<?xml version="1.0" encoding="utf-8"?>
<!-- Generator: Adobe Illustrator 22.0.1, SVG Export Plug-In . SVG Version: 6.00 Build 0)  -->
<svg version="1.1" id="Layer_1" xmlns="http://www.w3.org/2000/svg" xmlns:xlink="http://www.w3.org/1999/xlink" x="0px" y="0px"
	 viewBox="0 0 240.7 216" style="enable-background:new 0 0 240.7 216;" xml:space="preserve">
<style type="text/css">
	.st0{fill:#FFFFFF;}
</style>
<g id="XMLID_226_">
	<path id="XMLID_222_" class="st0" d="M132.4,98.2v8.8c-4.9,2.5-9.6,3.7-14.2,3.7c-12.9,0-20.6-7.6-20.6-17.2
		c0-10.4,8.9-18.9,20.1-18.9c2.8,0,4.9,0.5,7.1,1.2c1.6,0.5,2.6,1.1,3.5,1.1s1.1-1.5,1.2-2.3h1.2l1.1,11.9h-1.5
		c-0.6-2.3-1.7-4.3-3.2-5.6c-2.3-2.4-5.5-3.6-9.2-3.6c-7.7,0-12.3,6.1-12.3,15.4c0,9.1,5.5,15.3,12.9,15.3c2.2,0,4.2-0.5,6.6-1.6v-9
		c0-2.9-0.5-4-4.7-4V92H136v1.4C132.3,93.3,132.4,94.5,132.4,98.2 M89.5,83.7v26.4h-2L61.1,82.8c0.1,0.7,0.1,1.4,0.1,2.1v16.6
		c0,5.1,0,6.9,4.6,6.9v1.4H53.4v-1.4c4.7,0,4.7-2.2,4.7-6.9V82.6c0-2.8,0-5.9-4.9-5.9v-1.3h11.7l21.7,22.3c-0.1-0.6-0.1-1-0.1-1.9
		V83.7c0-4.9,0.1-7-4.5-7v-1.3h12.4v1.3C89.7,76.7,89.5,78.6,89.5,83.7 M29.5,109.8v-1.4c3,0,5.1-0.2,5.1-4.6V81.2
		c0-4.5-1.6-4.6-5.1-4.6v-1.3H47v1.3c-3.6,0-5.1,0.1-5.1,4.6v22.6c0,4.3,1.9,4.6,5.1,4.6v1.4C47,109.8,29.5,109.8,29.5,109.8z"/>
	<path id="XMLID_151_" class="st0" d="M166.6,109.8c-0.6-1.1-0.8-2.9-0.8-3.2c0-0.6,0-1.5,0.4-2.1l-1.4,0.3c-0.4,0.5-0.5,0.7-0.5,1
		l0.6-0.2c0.1,0,0.2,0.2,0.4,0.5c-0.1,0.6-0.9,0.6-1.1,0.9c-0.4,1.2,0.7,2,0.9,3h1.5V109.8z M214.2,93.9c0-5.4-2.2-10.8-6.2-14.7
		c-1.7-1.7-3.6-2.6-5.1-4.3c-0.7-0.7-1.3-1.5-1.8-2.5c-0.6-0.6-1-1-1.7-1.4c0.1,0.4,0.2,0.7,0.4,1.1h-0.1c-0.6,0-1.2-0.4-1.7-0.7
		l0.5-0.5c-0.1-0.2-0.5-0.2-0.7-0.2c-2-0.3-3.8,0.7-5.7,1.1V72c1.2,0.4,1.5,1.9,2.2,2.6h0.7c0.2,0,0.6,0.2,0.9,0.2
		c0-0.2-0.2-0.7-0.2-0.7c0.2-0.2,0.5-0.2,0.7,0c0.6,0.4,1.5-0.2,2.1,0.7c-0.7,0-1.5,0-2.1,0.4c0,0.1,0.4,0.3,0.3,0.6
		c-0.6-0.3-1.4,0-1.6-0.5l-0.1,0.1c0.7,0.9,1.9,1.6,3,1.9c1.6,0.3,3-0.5,4.5-0.1c5.6,2.7,9.6,9.1,9.6,15.5c0,9.1-5.2,12.7-8.4,12.7
		c-0.6,0-1.6-0.4-1.9-0.7c0.4-1.3,0.6-2.7,0.6-5c0-5.3-2.1-11-4.9-13.9c-1.4-1.4-2.8-2.5-4.4-2.5c-0.7,0-1.5,0-2,0.6
		c-0.6,0.5-1,1.5-0.9,2.1c-1,0.7-2.6,1.1-3.8,1.1c-1.4,0-3.1-0.5-4.6-1.7v-1.9c-0.4-0.1-1.6-0.9-1-1.4c0.4,0.1,0.6,0.3,0.7,0.5
		c-0.1-0.8-0.1-1.8-0.7-2.5c-0.2,0-0.6,0-1-0.2c-0.4-0.4-0.7-0.9-0.7-1.5c0.4,0.6,1,0.4,1.4,0.7c-0.6-1.5-0.4-2.1-1.5-4.3
		c-0.3-1.1-1.4-1.7-2.1-2.5c-0.4-0.2-0.5-0.6-0.9-0.6c-0.5-0.1-0.5-0.7-0.5-1.1c0.1,0,0.5,0.2,0.7,0.4c-0.7-1.7-1.2-3.5-2.8-4.5
		l-0.4,0.2h-2c0.2-0.2,0.7-0.4,1.1-0.6c-0.4-0.4-0.6-0.5-1.4-0.5c-0.3,0.1-0.8,0.5-1.3,0.5h-0.1c0-0.4-0.1-0.9,0.6-1.1
		c-0.7-0.1-1.3-0.1-2.2,0c-0.1,0.6-0.5,1-0.5,1.5c-0.4,0.2-0.5,0.6-0.9,1c0-0.8,0.4-1.5,0.5-2.2c-0.5,0.1-1.1,0.5-1.4,0.5
		c-1-0.5-2.2-1-2.7-1c0.7,0.5,0.4,1.4,0.5,2l-0.5-0.2c-0.1-0.5-0.7-0.9-0.9-1.5c-0.7,0-1.2,0.2-1.9,0.6v0.1c0.4,0,0.9,0.4,1.1,0.7
		c-0.9,0-1.5-0.4-2.3-0.4c0,0,0-0.1-0.1-0.1c-0.3,0.1-0.7,0.5-0.9,0.7c-0.9,0.8-1.5,1.4-1.9,2.5c0.2,0,0.6,0,0.7,0.1
		c-0.5,0.1-0.7,0.7-1.2,0.9V72c-0.4,0.4-0.9,0.7-1.1,1.5c-0.6,2-0.7,4.1-0.7,6.6c-0.1,0.5-0.4,0.6-0.6,0.7v1.9c0,0,0.7-0.7,1.1-0.9
		v1.5c-0.5,0-0.9,0.6-0.9,1c0,0.5,0.1,1,0.1,1.5c0,0.2,0,0.2,0.1,0.5c0-0.3,0.2-0.5,0.6-0.6c0,0,0.2-0.2,0.7-0.2
		c-0.4,0.4-0.5,0.9-0.7,1.4l-0.4,0.4c0,0-0.1,0.3-0.1,0.4c0.5,2.5,1.2,4.8,2.2,7.2c-1,1.6-2.1,4.7-2.8,7.7c-0.6-0.6-1.5-0.7-2.2-0.7
		c-0.7,0.1-1.4,0.4-1.9,1.1c-0.7-0.4-1.7-0.3-2.2,0.2c-1,0.9-1,1.4-1,2.1c-0.3,0.2-0.8,0.9-0.8,1.7c0,1.1,0.1,1.9,0.8,2.9h18.6
		c-0.1-0.4-0.4-0.9-0.6-1.1c-0.4-0.7-0.1-1.7-0.1-2.5c0.4-0.7,0.7-1.5,1.2-2.1c0.1-0.4,0-0.4,0.1-0.5l0.9-0.1c0.5,0,0.9-0.4,1.5-0.4
		c0.4,0.5,0.4-0.4,1-0.6c1.4-0.2,2.6,0,3.4,1c0,0.1,0.1,0.1,0.1,0.3H171c-0.7-0.3-1.5-0.6-2.4-0.3c0,0.3-0.1,0.3-0.1,0.6v0.6
		c0.5,0,0.9,0.5,1.4,0.7c0.2-0.4,0.9-0.7,1.4-0.7c0.6,0,1.5,0.3,1.5,1.3v1.3c0.5,0.5,1.1,0.6,1.7,0.9c-0.2,0.5-0.6,0.5-1,0.5h-1
		c-0.1-0.1-0.4-0.1-0.4-0.5c-0.4,0.5-0.6,1-0.9,1.5h14.3c-0.2-0.5-0.5-0.9-0.6-1.1c-0.2-0.7-0.2-1.7-0.2-2.5l1.4-1.8
		c0.7,0,1.4-0.3,2.7-0.4c0.3-0.4,0-0.5,1.1-0.5c0.9,0,1.5,0.1,1.7,0.3c0.1,0.3,0.1,0.3,0,0.5c-0.2,0.2-0.7-0.2-1.1-0.1
		c-0.2,0.3,0.1,0.4,0.1,0.6c0.2,0.2-1.1-0.3-1.1-0.3s-0.3,0.7-0.4,1c0,0,0.5,0.5,0.7,0.7c0.2,0.4-0.4,0.7-0.4,1.1
		c-0.3-0.1-0.7-0.5-0.7-0.4c-0.2,1,0,1.9-0.1,2.9h1.4l0.1-2.1c0.1-1.2,1.6-3.4,2.5-3.4c0.5,0,0.9,0.2,1.2,0.5c0.2,0.5,0.8,0.7,0.8,1
		c0,0.2-0.3,0.4-0.9,0.4c-0.2,0-0.2-0.4-0.6-0.6l-0.7,0.7c0,0,0.9,0.7,0.9,1.2c0,0.6-0.1,0.9-0.5,1.2l-0.7-1.5c-0.4,0-1,0.7-1,1.1
		c0,0.5-0.3,0.7-0.3,1.5h7.6c0.9,0,1.6-0.2,2.5-0.7h1.5c3,0,5.4-0.9,7.7-3.1C212.4,103.1,214.2,98.4,214.2,93.9 M187.5,105.1
		l-1.2,0.1c0.5,0.2,0.5,0.9,0.5,1c0,0.4-0.3,0.7-0.5,1c-0.2-0.3-0.2-0.6-0.5-1c-0.3,0-0.4,0.6-0.4,0.9c0,1.1,0.5,2,0.9,2.7h1.1
		c-0.1-1-0.4-1.9-0.4-3C187,106.2,187.4,105.5,187.5,105.1 M171.3,106.6c0-0.5-0.4-0.6-0.9-0.6c-0.2,0-0.8,0.4-0.8,0.6
		c0,0.5-0.2,3.2-0.2,3.2h0.8C170.6,108.7,171.3,107.2,171.3,106.6 M168.7,106.5c-0.1,0,0.1,0.3-1.1-1c-0.3,0-0.6,0.7-0.6,1
		c0,1,0.2,2.4,0.6,3.4h1C168.6,108.7,168.7,107.4,168.7,106.5 M201.1,75.4c-0.2-0.5-0.7-0.7-1.1-0.7c-0.4-0.5-0.9-1.1-1.4-1.1
		c0.4,0,0.9-0.4,1.5-0.4c0.2,0.6,0.8,1,0.9,1.5L201.1,75.4z M197.3,72.8H196c-0.2-0.4-0.6,0-0.9,0c-0.3,0-0.4,0-0.9-0.4
		c0.7,0,1.1-0.4,1.7-0.6C196.5,72.1,197,72.3,197.3,72.8 M194.4,86.9c-0.8-0.2-1.3-0.6-2-0.6c-0.2,0-1.4,0.4-1.5,0.6
		c-0.4-0.5,0.2-1.5,0.7-1.7c0.5-0.3,0.7-0.1,1,0c0,0.7,0.8,0.4,1.3,0.6C194.1,86.1,194.3,86.4,194.4,86.9 M194.3,88.7
		c-0.7,0-0.8-0.1-1.3-0.1c-0.6,0-1.4,0.2-1.7,0.8c-0.2-0.5-0.1-0.7,0-1.1c0.4-0.4,1-0.9,1.5-0.9C193.6,87.5,194.3,88.1,194.3,88.7
		 M197.1,91.4c-1-0.6-2.5-1-3.3-1c-0.5,0-1.9,0.6-2.4,1.1l-0.2-1.1c0.7-0.1,0.7-0.7,1.2-0.7c0.4,0,0.9-0.1,1.2-0.1
		c0.4,0,0.6-0.2,0.7-0.2c0.6,0,0.4,0.6,0.7,0.6c0.4,0,0.6-0.3,0.9-0.3C196.5,89.7,197,90.7,197.1,91.4 M197.5,94.1
		c-0.9,0-1.7-0.3-1.9-0.6c-0.2-0.3,0-0.8-0.6-0.8c-0.2,0-0.6,0.4-0.6,0.4c-0.2,0.1-0.9-0.4-0.9,0c0,0.6-0.5,0.9-1.1,0.9
		c-0.2,0-0.5,0-0.7-0.1v-1.2c1.6,0,1.5-0.5,2.2-0.5c0.5,0,0.8,0.2,1.2,0.2c0.6,0,0.3-0.2,0.9-0.2s0.9,0.5,1.2,0.6
		C197.1,93.1,197.5,93.6,197.5,94.1 M196.4,96.8c-0.4-0.1-1.2-0.2-1.2-0.6c0-0.5-0.3-0.6-0.9-0.6c-0.5,0-0.8,0.1-1.5,0.4
		c0,0-0.4-0.5-0.5-1c0.3-0.1,1.2-0.4,1.7-0.4c0.8,0,1.7,0,1.7,0.4C195.6,95.4,196.4,95.6,196.4,96.8 M174.9,77.5
		c0,0.1-0.2,1.2-0.2,1.2l-1,0.2l0.6-2.7C174.6,76.8,174.9,77.3,174.9,77.5 M198.7,101.1c0,0.7,0,1-0.4,1.6l-0.7-1.1
		c0.3-0.4,0.3-0.9,0.6-1.5C198.3,100.1,198.7,101,198.7,101.1 M195.7,99.5c-0.9,0-0.4-1.7-2.2-1.7c-0.3,0-0.6,0.6-1.1,0.7
		c0-0.1,0.1-0.9,0.1-0.9c0-0.3,0.1-0.7,0.6-1c0.9,0,0.7,0.4,1.4,0.6c0.4,0.1,0.6,0.4,1.1,0.4L195.7,99.5L195.7,99.5z M188,92.5
		c-1.1-0.6-1.7-1.7-2.7-2.9c1,0,1.2,1,2,1.1c0.2,0.2,0.5,0.4,0.7,0.7V92.5z M177.5,83.4c-0.7,0-1.1-0.4-1.5-1.1c0-0.4-0.1-0.9,0-1.5
		c0.2,0.5,0.2,0.7,0.5,1c0.5-0.3,0.5,0.4,0.6,0.5C177.2,82.7,177.5,83,177.5,83.4 M197.9,104.4c-0.3,0.4-0.3,0.4-0.4,0.7
		c0-0.6-0.7-1-1.2-2l0.5-0.9c0.4,0.2,0.9,0.6,0.9,1.2c0,0-0.1,0.3,0,0.5C197.6,104.1,197.9,104.1,197.9,104.4 M195.4,100.9
		c0,0.5-0.1,0.6-0.2,1.2c-0.9-0.1-0.9-1.1-1-1.2c-0.6-0.7-1.4-0.1-2-0.1c-0.2-0.7,0.1-0.7,0.1-1.2c0.4,0,0.7-0.3,1.1,0
		c0.6-0.3,0.9,0.4,1.5,0.4C195,100.1,195.3,100.8,195.4,100.9 M189.2,95.8c0,0.5-0.3,0.9-0.1,1.4c-0.3-0.7-0.7-1.5-1-2.2
		c0-0.1-0.1-0.1,0.1-0.2c0.1,0,0.6,0,0.6,0.1C188.9,95.1,189.2,95.4,189.2,95.8 M178.3,86.1c-0.1,0.5-0.6,0-0.7,0h-1.1
		c-0.1-0.2-0.2-0.4-0.2-0.6c0.5-0.1,0.9-0.4,1.2-0.1C177.7,85.8,178,86.1,178.3,86.1 M181.1,88.9c-0.4,0.4-1.4,0.5-2.1-0.1l1-0.4
		C180.3,88.7,180.8,88.8,181.1,88.9 M187.4,95.9c0,0.7-0.1,1.6-0.1,2.5c-0.4,0-0.4-0.2-0.4-0.8c-0.1-0.7-0.4-1.4-0.6-2.1
		c-0.2-1-0.9-1.8-1.4-2.9c-0.1-0.5-0.7-0.7-1.2-1.1c0.6,0,1.2,0,1.7,0.5c0,0.2,0.1,0.4,0.5,0.7c0.9,0,0.6,1.1,1.4,1.6
		c-0.4,0.3-0.5,0.6-0.7,0.8C186.9,95.4,187.3,95.6,187.4,95.9 M182.6,92.3c0,0.4-0.2,0.5-0.5,0.7c0,0-0.5-0.6-0.5-0.9
		c0-0.5,0-0.7,0.1-1.1C182.1,91.4,182.6,91.9,182.6,92.3 M194.1,103.5l-0.2,0.3c-0.6-0.3-0.9-0.4-1.7-0.4c0-0.5-0.4-1.1-0.6-1.1
		c-0.7,0-0.6,0.5-1.2,0.5l1.1-1.1c0.1-0.2,0.1-0.2,0.4-0.2c0.4,0.2,0.5,0.4,0.9,0.4c0,0.2,0,0.4-0.1,0.7c0.4,0.2,0.6-0.1,0.8,0.2
		C193.8,102.9,194.1,103,194.1,103.5 M184.2,94.9c0,0.2-0.4,0.5-0.5,0.5c0,0-0.6-0.6-0.7-1.2c-0.1-0.5,0.4-1.4,0.4-1.4
		c0.1,0,0.2,0.3,0.4,0.3c0.1,0.1,0,0.5,0.1,0.9C184.2,94.3,184.4,94.7,184.2,94.9 M174.7,83c-1.5-0.8-3.1-1.4-4.9-1.5
		c0,0.4,0,0.7-0.1,0.9c1.4,0.7,2.8,1.3,4,2.4v1.1c-1.2-1.2-2.6-2.5-4.1-2.9c-0.1,0.2-0.6,0.5-0.7,1c-0.9-0.6-1.9-1.2-2.9-1.4
		c-0.4,0-0.6-1.3-0.6-1.3c0.6-0.2,1-0.6,1.2-1.2h0.5c0.4,0,0.4-0.2,0.4-0.6c0-0.7-1.6-0.7-2.4-0.7c-0.9,0-1.5,0-2,0.4
		c-0.2,0-0.1,0.4-0.1,0.6c0,0.1,0.4,0.4,0.4,0.4c0.2,0,0.5-0.2,0.7-0.2c-0.1,0.7,0.1,1.1,0.9,1.5l-0.1,1.2c-1.5,0-2.5,0.6-3.6,1.1
		c-0.4-0.3-0.6-0.6-0.9-1c-1.5,0.5-4,2.5-4,2.5v-0.9c1.1-1,2.5-1.5,3.6-2.1v-0.9c-0.5-0.2-1,0-1.5,0c-1,0.1-2.1,0.6-2.9,1.2
		c0-0.3-0.1-0.8-0.1-0.8c1.4-0.7,3-1.4,4.6-1.1v-0.5c-0.1-0.2-0.1-0.6-0.4-0.6c-0.7-0.7-1.5-1.9-1.5-2.6l0.5-0.2
		c-0.2-0.7-0.5-2.6,0-3.2c-0.7-0.4-1.4-1-1.6-1.5c-0.2-0.6-0.5-1-0.6-1.7c0.4-0.7,0.6-1,1-1.7c0.2,0,0.6-0.1,0.7-0.4
		c0.6-0.1,1-0.7,1.7-0.4c0.5,0,1,0.2,1.4,0.4c0,0.2,0,0.4,0.2,0.6c0.7,0,0.7,0.7,1.1,1.4c0.4,0.1,0.7,0.1,1,0.1
		c0.7,0.2,1.4,0.2,1.6,0.6c1-0.6,2-0.7,3.1-0.6c0.1-0.4,0.4-0.9,0.5-1.5c0.1,0.4,0.1,0,0.4,0c0.5-0.4,1-1,1.9-0.7
		c0.5,0.4,1.4,0.1,1.9,0.7c0.4,0.5,0.6,1.2,1,1.8c-0.4,0.7,0,1.7-0.7,2.1l-0.7,0.7c-0.2,0-0.2,0.3-0.6,0.3c0.4,0.9,0.1,2.1-0.2,2.9
		c0.2-0.1,0.6-0.1,0.6-0.5c0.1,0.1,0,0.4,0,0.5V77c0,0.6-0.4,1.2-0.9,1.7c-0.2,0.7-0.9,1.7-1.7,1.9v0.2c1.8,0,3.3,0.5,5,1.4
		L174.7,83L174.7,83z M179.7,90.8l-0.6,0.2c-1.4,0-2-0.4-2.6-0.9c0.5,0,1.1-0.6,1.1-0.6C178.2,90.2,179.1,90.7,179.7,90.8 M176.2,88
		c-0.7,0-1.6,0.4-1.9-0.4c0.3-0.1,0.5-0.5,0.7-0.7L176.2,88z M186.3,99.5c0,0.6-0.7,1.4-1,1.9c0.2-0.6,0.2-1.9,0-1.9
		c-0.2-0.1-0.7,0-0.7-0.3c0-0.4,0.1-0.9,0.1-1.1c0-0.5-0.4-0.8-0.4-1c0-0.7,0.9-0.9,1.1-1.4c0.1,0.5,0.1,1,0.1,1.6
		c0,0.3,0.4,1,0,1.6C185.6,99.4,186.3,99.2,186.3,99.5 M183.4,98.2c0,0.7-0.5,1.4-0.6,2.1c0-0.7-0.1-1.4-0.6-1.9
		c0-0.2,0.4-0.2,0.1-0.6c0,0-0.7-0.4-0.7-0.9s0.5-0.9,0.7-1.2c0-0.1,0.5,0.2,0.5,1c0,0.1,0,0.5-0.1,0.7
		C182.6,97.8,183.4,97.8,183.4,98.2 M173.3,89.4c-0.6,0.1-1.1-0.5-1.7-0.7c-0.3-0.7-0.3-1.4-0.5-1.8c0.5,0.4,1.6,0.4,1.4,1.5
		C172.4,88.7,172.9,88.9,173.3,89.4 M176.7,92.9c-0.5,0-1.3,0-1.8-0.4c-0.8-0.4-1-0.6-1.4-1c0.5-0.4,1.1-0.4,1.4-0.5
		C175.4,91.5,175.9,92.4,176.7,92.9 M156,73.9l-0.9,0.2l0.1-0.6c0.2-0.4,0.4-0.7,0.7-1.1L156,73.9L156,73.9z M171.8,91
		c-0.5,0.1-1.4,0.4-1.6-0.2c-0.7-1.1-0.3-2.1,0-2.9c0.2,0.7,0.4,1.4,0.5,2C170.8,90.4,171.6,90.7,171.8,91 M168.3,84.3
		c-0.1,0.7-0.4,1.9-1.1,2.4c0-0.5-0.2-0.8-0.5-1.1c-0.1,0,0,0.4-0.1,0.4c0,0.2-0.2,0.8-0.2,1.2c-0.2,0.1-0.7,0.4-1.2,0.1v-0.4
		c-0.1-0.2-0.1-0.7-0.1-1l-0.1-0.1c-0.4,0.1-0.4,0.4-0.4,0.6c-0.1,0.2-0.4,0.5-0.4,0.9c-0.5,0-0.7-0.1-1.1-0.4v-1.1
		c0-0.2,0-0.2-0.1-0.2l-0.6,0.6c-0.5-0.4-0.6-1.4-0.6-2c2-1.1,4.5-0.7,6-0.1C167.8,84.2,168.1,84.2,168.3,84.3 M174.7,94.3h-0.4
		c-1.4,0.5-2.5-0.4-3.6-1.1c0.6-0.3,1.5-0.4,2.2-0.4l0.4,0.8C173.7,93.6,174.3,94,174.7,94.3 M156.3,75.6l-0.6,0.8
		c0.1,1.2-0.4,2.1-0.4,3.2l-0.6-2c0.1-0.5,0.3-1,0.6-1.6L156.3,75.6z M169,91.5c-0.6-0.4-1.7-0.5-1.5-1.2c0.2-0.6,0.6-0.8,0.9-1
		C168.5,90.2,168.6,90.8,169,91.5 M180.3,104.1h-0.1c-0.2-0.4-0.4-0.6-0.6-0.6c0.4-1.4-0.4-2.5-0.6-3.6v-0.4
		c0.4,0.6,1.4,1.2,1.2,1.9C180.3,102.5,180.3,103.5,180.3,104.1 M177.5,99.5c-0.6,0-1.1,0-1.5-0.6c-0.1,0-0.3-0.4-0.5-0.1
		c-0.6,0.5-1.2-0.4-2-0.2c-0.4,0.4-0.7,0.6-1.4,0.7v-0.1c0-0.4,0.2-0.7,0.7-1c0.8,0.2,1.4-1.4,2.1-0.5c0.4,0.1,0.7,0.1,0.9,0.1
		C176.9,98.2,177.1,98.9,177.5,99.5 M166.2,89.5c0,0.9-0.1,2-1,2.4l-0.2-1.2C165.3,90.4,165.7,90.2,166.2,89.5 M170.3,94.9
		c-0.2,0.2-0.9,0.5-1.4,0.5c-0.8-0.6-1.2-1.3-2-2.3l2,0.4C169.3,93.8,170,94.6,170.3,94.9 M177.7,102c-0.5-0.4-1.2-0.4-1.5-1
		c-0.5-0.1-0.8-0.1-1.4-0.1c-0.5,0.1-1.1,0.1-1.6,0.1c-0.1,0,0-0.1-0.3-0.2c-0.7,0.2-1.5,0.2-2.2,1l0.6-1.5c0.5,0,0.9-0.2,1.1-0.2
		c0.5-0.1,0.9-0.1,1.2-0.1v0.1c1.4,0,2.9-0.1,3.9,1L177.7,102z M163.6,91.5c-0.7-0.7-1.4-1.4-1.4-2.1c0.4,0,0.7,0,1.1,0.2
		C163.4,90.3,163.6,90.8,163.6,91.5 M161.3,88l-0.4,1.5c-0.4-0.7-0.7-1.4-0.9-2.3L161.3,88z M179,104.5c-0.1,0.3-0.4,1-0.5,1.5
		c-0.3-0.7-0.5-1.8-1.4-1.8c-0.1-0.5-0.3-0.6-0.7-1l-0.9-0.1c0.1,0.5,0.8,0.5,0.3,1.1c0.5,0.4,0.8,0.4,1.1,1c0.3,0.4,0,0.9,0.1,1.1
		l-0.7,0.4c0-0.6,0.1-1.8-0.7-2.1c-0.7,0.3-0.9-0.7-1.4-1c-0.2,0-0.2-0.6-0.6-0.4c-0.6,0.4-1.4,0-2,0.4l0.6-1c0.5-0.4,1-0.2,1.5-0.4
		l1-0.1c1,0,1.8,0.5,2.8,0.9c0.5,0.2,0.7,0.6,0.7,1.1C178.5,104.1,179,104.1,179,104.5 M169.2,98.8H169c-0.1,0-1-0.4-1.2-0.6
		c-0.1-0.4-0.1-0.8-0.1-0.8h1L169.2,98.8z M159.7,89.9c-0.7-0.3-1.6-1-1.9-1.6c-0.2-0.5-0.3-1.1-0.3-1.5c0.4,0,0.8,0.4,0.9,0.6v0.1
		C158.9,88.4,159.5,88.9,159.7,89.9 M165.6,94.3c-0.1,0.7-0.5,0.9-1.1,1.8c-0.4,0.3-1.1,0.4-1.8,0.7c0.1-0.4,0.5-0.5,0.7-0.9
		s0.7-1,0.9-1.3C164.9,94.3,165.1,94.3,165.6,94.3 M174.7,106.2l-0.4,0.4c-0.4-0.4-0.1-1.4-0.7-1.5c-0.6,0-1.1-0.6-1.4-0.7l0.5-0.3
		c0,0,0.2-0.1,0.5,0c0.2,0.3,0.5,0.4,0.5,0.6c0.2,0.3,0.6,0,0.9,0.3C174.7,105.5,174.8,106,174.7,106.2 M163.4,93.3
		c-0.4,0.7-0.7,1.4-1.5,1.7c-0.4,0-1,0.2-1.7,0c0.4-0.2,0.7-0.4,1.2-0.7l1-1H163.4z M165.8,98.9c-0.5,0.4-0.9,0.4-1.5,0.2l-0.7-1
		h1.9L165.8,98.9z M156.9,89.5c-0.6,0.6-1.2,0.9-1.5,1.6c0-0.4-0.1-0.7-0.2-1c0.1-0.5,0.5-0.7,0.6-0.9
		C156.2,89.4,156.4,89.4,156.9,89.5 M158.3,91.4c0,0.5-0.2,1.1-0.8,1.7c-0.1,0.1-0.5,0.4-0.5,0.4c0-0.8,0.4-1.4,0.4-2
		C157.7,91.4,158.1,91.2,158.3,91.4 M160,92.9l-0.5,1.8c-0.6,0.5-1.5,0.2-2.1,0.2c0.9-0.2,1.6-1.3,2.1-2.1
		C159.7,92.8,159.8,92.9,160,92.9 M160.6,99.2c0,0.4-0.1,1.9-0.1,1.9c-0.2-0.9-0.9-1.7-1.6-1.7c-0.4-0.4-0.7-0.7-0.8-1.1
		c-0.3-0.4-0.7,0-1.2-0.4c-0.5,0-1.1,0-1.6,0.4v-0.4l0.9-1c0.9,0.1,1.9,0,2.1,0.6c0.6,0.4,1.2,0.8,1.4,1v0.4
		C159.9,98.9,160.4,99,160.6,99.2 M160,103l-0.9,0.8c-0.3-0.3,0-0.9-0.4-1.3c0-0.2,0.2-0.4,0.1-0.5c-0.1-0.2-1.5-0.7-1.5-0.7
		c-0.5-0.4-1.1-0.8-1.6-1.2c-0.5-0.1-0.9,0.1-1.5,0.2V100c0.2-0.5,0.2-1.1,1-1.1c0.4,0,0.9,0,1.1,0.4c0.5,0,0.7,0.5,1.1,0.6
		c0.6,0.6,1,0.9,1.4,1.1c0,0.4,0.1,0.6,0.4,0.8C160,101.8,159.8,102.5,160,103 M158.2,104.8l-0.3,1.2l-0.8-2.2c-1-0.9-2.1-1-2.7-1.5
		c-0.5-0.1-0.5,0.2-0.7,0c0-0.2,0-0.6,0.4-1h0.7l0.7,0.4c0.4,0.4,1.2,0.4,1.2,1.1c0,0.1-0.1,0.2,0.3,0.7l1.2,0.3L158.2,104.8z
		 M154.8,106c0,1-1.6,2.4-1.6,2.4c0-0.6,0.4-1.4,0.4-2.1c0,0-0.5-0.5-1-0.5c-0.4,0.2-0.4,0.5-0.5,0.9c-0.4,0.7-1.1,1.5-1.2,2.2
		c-0.1,0-0.1-0.1-0.1-0.1c0-1.2,0.1-3.3,0.9-4.2c0.6-0.7,1.1-0.7,1.9-0.9l0.6,0.1l-0.5,0.7C154,104.8,154.8,105.2,154.8,106
		 M150.5,105.2c0,0.5-0.1,1-0.4,1.4c-0.1-0.5-0.5-1.1-1.1-1.1c-0.5,1-0.6,1.4-0.1,2.8c-0.4,0.4-0.6,0.5-1.1,0.7
		c-0.3-0.5-0.3-1.4-0.3-1.8c0-0.9,0.1-1.7,0.4-2.5c0.4-0.4,0.6-1,1-1.3h1.3c-0.6,0-0.6,0.5-0.6,0.9
		C150,104.5,150.5,104.6,150.5,105.2 M147.3,106.6c-0.1,0-0.5-0.4-0.9-0.4c-0.3,0.7,0,1.2,0,2.1c0,0.4-0.1,0.7-0.1,0.7
		c-0.2,0-0.7-0.5-0.8-1v-2l1-1.3C147.3,105.2,147.5,106,147.3,106.6 M172.7,72.4c0.2-0.6,0.2-1.7-0.2-2.3c-0.2-0.5-0.9-0.7-1.5-1.2
		l-0.9,0.5c-0.4,0.2-0.7,0.7-0.7,1.3c0.8,0.4,1.7,1.3,2,2.1h0.4C172.2,72.4,172.4,72.8,172.7,72.4 M168.6,73.1
		c0-0.4-0.1-0.4-0.2-0.4c-0.6,0-0.6-1-1.1-0.7c-0.2,0-0.5-0.2-0.9,0c0,0.1,0,0.1,0.2,0.1c0.6,0,0.4,0.9,0.9,1H168.6z M170.5,74.6
		C170.5,74.6,170.7,74.6,170.5,74.6l-2.6-0.5c-0.2,0.4-0.9,0.4-0.9,0.7h-0.2c0.2,1,0.2,2.1,0.2,3.2c0.5,0.1,1,0.4,1,1.1
		c0.5,0.2,1,0.4,1.5,0.7c0.2-0.1,0.3-0.5,0.5-0.9c-0.5-0.6-1.5-0.2-1.5-1.4l-0.7-0.3c0-0.7,0-1.4-0.1-1.9l0.1-0.1
		c0,0.1,0.1,0.2,0.4,0.5c0.5,0,1,0.1,1.5-0.3c0.2-0.1,0.2-0.7,0.5-0.7C170.1,74.9,170.3,74.9,170.5,74.6 M164.4,72
		c-0.2-0.2-1,0.1-1.4,0.3c-0.5,0.1-0.9,0.5-0.9,0.9h1.4C163.6,72.8,164.1,72.3,164.4,72 M161.6,70.7c-0.1-1.2-1.5-1.3-2.1-1.8H159
		c-1,0.4-1.2,1.4-1.3,2.2c0.3,1.1,1.1,0.4,1.5,1.1C159.8,71.8,161,70.9,161.6,70.7 M169,82v-0.6h-1.2l-0.1,0.1L169,82z M163.4,74.9
		c0-0.2-0.2-0.5-0.6-0.7H160h-0.2c0,0.5,0.4,0.7,0.7,0.7c0,0.5,0.4,0.6,0.5,0.7c0.4,0.3,0.5,0.3,0.9,0c0.4,0.3,0.5-0.2,0.6,0
		c0,0.8,0,1.1-0.1,1.7c-0.1,0.9-0.9,0.7-1.5,1.1c0,0.4-0.4,1,0,1.4c0.4-0.3,0.6-0.4,1.2-0.6c0-0.4,0.4-0.7,0.9-1
		C163,77,163.4,76,163.4,74.9 M162.4,81.4c-0.2-0.5-0.9,0-1.5-0.2c0,0.2,0,0.5,0.4,0.8C161.6,81.5,162.3,81.4,162.4,81.4"/>
	<path id="XMLID_148_" class="st0" d="M33.3,136.2h2.8c3.4,0,5.1-1.2,5.1-3.9s-1.6-3.9-5.1-3.9h-2.8V136.2z M29.9,142.6H32v-14.2
		h-2.1v-1.1h6.3c4.2,0,6.3,1.8,6.3,5c0,3.3-2.1,5-6.3,5h-2.9v5.3h2.1v1.1h-5.6v-1.1H29.9z"/>
	<path id="XMLID_145_" class="st0" d="M48.2,134.1c-2.3,0-4.1,1.5-4.4,3.8h8.8C52.2,135.5,50.6,134.1,48.2,134.1 M48.2,142.9
		c1.7,0,3.1-0.8,3.9-2.2h1.3c-1.1,2.1-2.9,3.3-5.2,3.3c-3.3,0-5.7-2.4-5.7-5.4c0-3.1,2.4-5.4,5.7-5.4c3.4,0,5.6,2.2,5.6,5.8h-10
		C43.9,141.3,45.8,142.9,48.2,142.9"/>
	<path id="XMLID_142_" class="st0" d="M65.2,138.5c0-2.6-1.9-4.4-4.5-4.4c-2.5,0-4.4,1.8-4.4,4.4c0,2.6,1.9,4.4,4.4,4.4
		C63.3,142.9,65.2,141.1,65.2,138.5 M55.1,138.5c0-3.1,2.4-5.4,5.7-5.4s5.6,2.4,5.6,5.4c0,3.1-2.4,5.4-5.6,5.4
		C57.5,144,55.1,141.6,55.1,138.5"/>
	<path id="XMLID_139_" class="st0" d="M74.3,142.9c2.3,0,4.1-1.9,4.1-4.4c0-2.6-1.7-4.4-4.2-4.4c-2.3,0-4.2,1.9-4.2,4.4
		C70,140.9,71.9,142.9,74.3,142.9 M70,147.4h1.8v1.1h-4.6v-1.1h1.7v-13h-1.7v-1H70v1.9c1.2-1.5,2.6-2.2,4.5-2.2c3,0,5.1,2.2,5.1,5.4
		c0,1.4-0.6,2.8-1.5,3.9c-1,1-2.3,1.6-3.7,1.6c-1.9,0-3.3-0.8-4.4-2.4V147.4z"/>
	<polygon id="XMLID_138_" class="st0" points="80.1,142.6 82.1,142.6 82.1,128.3 80.2,128.3 80.2,127.2 83.2,127.2 83.2,142.6 
		85,142.6 85,143.7 80.1,143.7 	"/>
	<path id="XMLID_135_" class="st0" d="M91.3,134.1c-2.3,0-4.1,1.5-4.4,3.8h8.8C95.3,135.5,93.7,134.1,91.3,134.1 M91.3,142.9
		c1.7,0,3.1-0.8,3.9-2.2h1.3c-1.1,2.1-2.9,3.3-5.2,3.3c-3.3,0-5.7-2.4-5.7-5.4c0-3.1,2.4-5.4,5.7-5.4c3.4,0,5.6,2.2,5.6,5.8h-10
		C87,141.3,88.9,142.9,91.3,142.9"/>
	<path id="XMLID_132_" class="st0" d="M104.3,128.6h1.2v2.7h-1.2V128.6z M102.4,142.6h1.9v-8.2h-1.8v-1h3v9.3h1.7v1.1h-4.9v-1.2
		H102.4z"/>
	<path id="XMLID_131_" class="st0" d="M108.4,142.6h1.7v-8.2h-1.7v-1h2.9v1.9c1.3-1.5,2.7-2.2,4.3-2.2c2.3,0,3.1,1.2,3.1,3.7v5.8
		h1.7v1.1h-4.5v-1.1h1.7v-5.8c0-1.8-0.6-2.7-2.2-2.7c-1.4,0-2.8,0.9-4.1,2.6v5.9h1.7v1.1h-4.6V142.6z"/>
	<path id="XMLID_128_" class="st0" d="M129.5,136.2h2.8c3.4,0,5.1-1.2,5.1-3.9s-1.7-3.9-5.1-3.9h-2.8V136.2z M126,142.6h2.1v-14.2
		H126v-1.1h6.3c4.2,0,6.3,1.8,6.3,5c0,3.3-2.1,5-6.3,5h-2.9v5.3h2.1v1.1H126V142.6z"/>
	<path id="XMLID_127_" class="st0" d="M139.7,142.6h1.7v-8.2h-1.7v-1h2.9v1.4c0.7-1.1,1.6-1.7,2.6-1.7c1.4,0,2.1,0.8,2.2,2.2h-1
		c-0.1-0.8-0.5-1.2-1.3-1.2c-1.7,0-2.5,1.6-2.5,5v3.6h1.7v1.1h-4.6L139.7,142.6L139.7,142.6z"/>
	<path id="XMLID_124_" class="st0" d="M157.7,138.5c0-2.6-1.9-4.4-4.5-4.4c-2.5,0-4.4,1.8-4.4,4.4c0,2.6,1.9,4.4,4.4,4.4
		C155.8,142.9,157.7,141.1,157.7,138.5 M147.6,138.5c0-3.1,2.4-5.4,5.6-5.4c3.3,0,5.6,2.4,5.6,5.4c0,3.1-2.4,5.4-5.6,5.4
		C150,144,147.6,141.6,147.6,138.5"/>
	<path id="XMLID_121_" class="st0" d="M165.6,142.8c2.3,0,4.2-1.9,4.2-4.3c0-2.5-1.9-4.4-4.3-4.4c-2.4,0-4.1,1.8-4.1,4.4
		C161.5,141,163.4,142.8,165.6,142.8 M170.3,146.1c-0.8,1.4-2.5,2.3-4.4,2.3c-2.5,0-4.1-0.8-5-2.7h1.3c0.6,1.1,1.9,1.7,3.5,1.7
		c3,0,4.2-1.6,4.2-5.1c0-0.3,0-0.5,0-0.8c-1.1,1.7-2.5,2.4-4.4,2.4c-1.4,0-2.7-0.5-3.7-1.6c-1-1-1.5-2.4-1.5-3.9
		c0-3.2,2.2-5.4,5.1-5.4c1.8,0,3.2,0.7,4.4,2.2v-1.9h2.8v1.1H171v6.9C171,143.4,171,144.9,170.3,146.1"/>
	<path id="XMLID_120_" class="st0" d="M174.3,142.6h1.7v-8.2h-1.7v-1h2.9v1.4c0.7-1.1,1.6-1.7,2.6-1.7c1.4,0,2.1,0.8,2.2,2.2h-1
		c-0.1-0.8-0.5-1.2-1.3-1.2c-1.7,0-2.5,1.6-2.5,5v3.6h1.7v1.1h-4.6L174.3,142.6L174.3,142.6z"/>
	<path id="XMLID_117_" class="st0" d="M188.1,134.1c-2.3,0-4,1.5-4.4,3.8h8.8C192.1,135.5,190.5,134.1,188.1,134.1 M188.1,142.9
		c1.7,0,3.1-0.8,3.9-2.2h1.3c-1.1,2.1-2.9,3.3-5.2,3.3c-3.3,0-5.6-2.4-5.6-5.4c0-3.1,2.4-5.4,5.6-5.4c3.4,0,5.6,2.2,5.6,5.8h-10
		C183.8,141.3,185.7,142.9,188.1,142.9"/>
	<path id="XMLID_116_" class="st0" d="M195.4,143.7V140h1.1c0.4,1.8,1.8,2.8,3.7,2.8c1.5,0,2.6-0.8,2.6-1.9c0-1.1-0.8-1.6-2.5-2
		l-1.3-0.3c-2.3-0.5-3.5-1.1-3.5-2.7c0-1.6,1.4-2.8,3.7-2.8c1.5,0,2.6,0.5,3.2,1.4v-1.1h1.1v3h-1.1c-0.3-1.5-1.5-2.3-3.2-2.3
		c-1.5,0-2.4,0.7-2.4,1.7c0,1.1,0.8,1.4,2.5,1.8l1.4,0.3c2.3,0.4,3.4,1.4,3.4,3c0,1.8-1.4,3-3.7,3c-1.5,0-2.7-0.5-3.7-1.5v1.4
		L195.4,143.7L195.4,143.7z"/>
	<path id="XMLID_2_" class="st0" d="M205.7,143.7V140h1.1c0.4,1.8,1.8,2.8,3.7,2.8c1.5,0,2.6-0.8,2.6-1.9c0-1.1-0.8-1.6-2.5-2
		l-1.3-0.3c-2.3-0.5-3.5-1.1-3.5-2.7c0-1.6,1.4-2.8,3.7-2.8c1.5,0,2.6,0.5,3.2,1.4v-1.1h1.1v3h-1.1c-0.3-1.5-1.5-2.3-3.2-2.3
		c-1.5,0-2.4,0.7-2.4,1.7c0,1.1,0.8,1.4,2.5,1.8l1.4,0.3c2.3,0.4,3.4,1.4,3.4,3c0,1.8-1.4,3-3.7,3c-1.5,0-2.7-0.5-3.7-1.5v1.4
		L205.7,143.7L205.7,143.7z"/>
</g>
</svg>
