<?xml version="1.0" encoding="utf-8"?>
<!-- Generator: Adobe Illustrator 22.0.1, SVG Export Plug-In . SVG Version: 6.00 Build 0)  -->
<svg version="1.1" id="Layer_1" xmlns="http://www.w3.org/2000/svg" xmlns:xlink="http://www.w3.org/1999/xlink" x="0px" y="0px"
	 viewBox="0 0 240.7 216" style="enable-background:new 0 0 240.7 216;" xml:space="preserve">
<style type="text/css">
	.st0{fill:none;}
	.st1{fill:#FFFFFF;}
</style>
<g>
	<path class="st0" d="M179.2,118.9h-1.5v1.8h1.5c0.5,0,0.9-0.4,0.9-0.9S179.7,118.9,179.2,118.9z"/>
	<path class="st0" d="M110,78.8v6c0,0,3.3-1,3.5-4.7C113.7,77.3,110.1,78.7,110,78.8z"/>
	<path class="st0" d="M76.3,98.5v5.8c0,0,3.8-0.8,3.9-4.2C80.3,96.6,76.3,98.5,76.3,98.5z"/>
	<path class="st0" d="M79.7,91.3c0.1-3-3.4-1.3-3.4-1.3v5C76.3,95,79.6,94.2,79.7,91.3z"/>
	<path class="st0" d="M162.5,69c0.2-2.8-3.4-1.5-3.4-1.5V73C159.1,73,162.3,72.2,162.5,69z"/>
	<path class="st0" d="M178.7,116.8c-2.4,0-4.3,2-4.3,4.4c0,2.4,1.9,4.4,4.3,4.4c2.3,0,4.2-2,4.3-4.4
		C183,118.8,181.1,116.8,178.7,116.8z M181.1,124.3h-1.2l-1.6-2.8h-0.7v2.8h-1.2V118h3c1,0,1.8,0.8,1.8,1.8c0,0.9-0.7,1.7-1.7,1.7
		L181.1,124.3z"/>
	<path class="st1" d="M137.8,147.6c20.1-7.1,26-22.1,26.3-25.4c0.3-2.9-1.1-2.3-3-1.8c-17.9,4.4-39.8,10.6-61.8,19.5
		c-2.6,1-4.6,1.5-3.2,3.3C99.3,147.4,116.1,155.3,137.8,147.6z M154.8,126.2c0.5-2.4,3.9-1.4,3.2,0.9c-4,12.4-18.1,17.5-18.1,17.5
		C152.3,136.3,154.5,127.4,154.8,126.2z"/>
	<path class="st1" d="M111.2,49.1C88.8,54.5,83,72.2,82.4,75.4c-0.5,2.9,1.3,2.1,1.9,1.9c15.2-5.6,39.4-12.4,64.8-17.4
		c2.7-0.5,4.8-0.4,3.2-2.5C147.6,51.3,133.6,43.7,111.2,49.1z M90.1,71.7c-0.4,1.7-2.8,1.7-2.3-0.5c2.9-12.2,15.8-18.1,15.8-18.1
		C91.9,61.6,90.3,70.5,90.1,71.7z M143.2,54.9c2.9,4.1-7.1,4.9-7.1,4.9s3.7-1.2,2.9-4.2c-0.7-3-9.4-6.6-16-6.8
		C123,48.8,138,47.5,143.2,54.9z"/>
	<path class="st1" d="M124.4,158.9c-16.5,1.6-32-4.4-43.3-15.2c-3.1,1.3-6.9,2.8-6.9,2.8v-10.8c-6-8.4-9.9-18.7-10.7-29.9
		c-2-27,14.4-50.4,37.6-59.5c9.3-3.6,22.8-6,37.7-3.1c-5.6-1.6-11.5-2.4-17.7-2.4c-35.7,0-64.6,28.9-64.6,64.6
		c0,35.7,29,64.6,64.6,64.6c26.7,0,49.6-16.2,59.5-39.3l-11.1-5.8C161.4,143.1,145.1,156.9,124.4,158.9z"/>
	<path class="st1" d="M92.8,82.6c0,0,0.1-2.7-2.9-1.7c-0.6,0.2-3,1.1-3,1.1v15.1c0,0,0.2,7.4,8.4,4.8c7.6-2.4,7.2-8.3,7.3-10
		c0.1-1.7,0-11.9,0-11.9s0.1-3.2-3.2-2.3c-1.3,0.4-2.8,0.9-2.8,0.9V94c0,0,0.3,2.5-2.1,2.8c-1.9,0.2-1.7-2.1-1.7-2.1V82.6z"/>
	<path class="st1" d="M85.5,88.7c-0.7-5.8-7.5-3.1-7.5-3.1l-7.3,2.7v23.1c0,0,4.7-2,9.5-4.1c4.9-2.3,6.4-4.6,6.2-8.2
		c-0.2-3.2-3.8-4.2-3.8-4.2S86,92.9,85.5,88.7z M76.3,90c0,0,3.5-1.7,3.4,1.3c-0.1,2.9-3.4,3.7-3.4,3.7V90z M76.3,104.3v-5.8
		c0,0,4-1.9,3.9,1.6C80.1,103.5,76.3,104.3,76.3,104.3z"/>
	<path class="st1" d="M164.4,85.1c-8.8,0-17.2,5.4-18.6,16.2c-1.5,11.2,5.6,16.9,13.8,16.3c10.6-0.7,13.7-5.6,13.7-10.7
		c0-3.9,0-10.5,0-10.5l-13.4,2.9v3.7c0,0-0.1,3.3,4.9,2v2.3c0,0-0.1,2.6-4.1,2.5c-3.3-0.1-6.2-2.4-5.3-8.8c0.9-6.4,6.5-8.2,9.9-7.8
		c3.5,0.4,6.9,1.7,8-2.3c0.5-2-0.4-4.4-4-5.2C167.9,85.3,166,85.1,164.4,85.1z"/>
	<path class="st1" d="M93.2,135c2,2,5.2,2,7.2,0s2-5.2,0-7.2l-6.4-6.4l6.7-11c1.7-2.7,0.9-5.2-1.4-6.1c-2.2-0.9-4.9-0.4-6.1,1.7
		l-8.3,14.1v-11.4l-9.5,4v31.5c0,0,4.1-1.5,7.2-2.9c2.5-1.1,2.4-4.5,2.4-4.5v-10L93.2,135z"/>
	<path class="st1" d="M181.2,119.8c0-1-0.8-1.8-1.8-1.8h-3v6.3h1.2v-2.8h0.7l1.6,2.8h1.2l-1.6-2.8
		C180.5,121.5,181.2,120.7,181.2,119.8z M179.2,120.7h-1.5v-1.8h1.5c0.5,0,0.9,0.4,0.9,0.9S179.7,120.7,179.2,120.7z"/>
	<path class="st1" d="M178.7,115.4c-3.1,0-5.7,2.6-5.7,5.8s2.6,5.8,5.7,5.8s5.7-2.6,5.7-5.8C184.3,118,181.8,115.4,178.7,115.4z
		 M178.7,125.6c-2.4,0-4.3-2-4.3-4.4c0-2.4,1.9-4.4,4.3-4.4s4.3,2,4.3,4.4C182.9,123.6,181,125.6,178.7,125.6z"/>
	<path class="st1" d="M149.8,69.6c0,0,2.3-0.4,2.3-2.6c0-0.6,0-2.6,0-2.6L139.5,67v21l10.4-2.4c0,0,2.2-0.4,2.2-2.6
		c0-0.6,0-2.6,0-2.6l-6.8,1.4v-4l4-0.9c0,0,2.1-0.3,2.1-2.5c0-0.6,0-2.1,0-2.1l-6.1,1.3v-3L149.8,69.6z"/>
	<path class="st1" d="M103.8,106.2v27.4l5.7-2c4.4-1.5,4.3-6,4.3-6V98.2l-5.7,2C103.7,101.7,103.8,106.2,103.8,106.2z"/>
	<path class="st1" d="M135.3,74c1.4,0,2.6-1.1,2.6-2.6c0-1.4-1.2-2.4-2.6-2.6c-10.9-1.6-14.8,6.6-15.1,11.4
		c-0.3,4.8,1.9,11.5,9.8,10.5c8-0.9,7.8-6,7.8-6v-8.5l-8.4,2c0,0-0.2,0.6-0.1,2.6c0.1,2,3.1,1.2,3.1,1.2s0.2,2.3,0.1,2.5
		c-0.2,0.7-1.6,1.6-3.6,1.3c-1.6-0.3-2.5-2-2.4-5.4C126.9,72,135.3,74,135.3,74z"/>
	<path class="st1" d="M119.3,78c-0.1-4.5-5-5-9-3.6c-1.3,0.5-6.2,1.9-6.2,1.9V98l3.6-1.2c0,0,2.3-0.6,2.3-3.6s0-5,0-5l5.1,5.1
		c0.2-0.1,2.5,2.1,4.6-0.4c1.8-2.1-0.5-4.2-0.5-4.2l-3.4-3.4C115.8,85.3,119.4,83.4,119.3,78z M110,84.8v-6c0.1-0.1,3.7-1.5,3.5,1.3
		C113.3,83.8,110,84.8,110,84.8z"/>
	<path class="st1" d="M159.4,80.9c0-3,0-4.1,0-4.1l4.8,5.3c0,0,2.1,2.3,4.5,0.1c1.9-1.8-0.5-4.1-0.5-4.1l-3.2-4c0,0,3.4-1.7,3.3-6.3
		c-0.1-4.5-4.6-5.6-8.6-4.6c-1.3,0.3-6.2,1.1-6.2,1.1V85l3.6-0.8C157.2,84.2,159.4,83.9,159.4,80.9z M159.1,67.5
		c0,0,3.6-1.3,3.4,1.5c-0.2,3.2-3.4,4-3.4,4V67.5z"/>
	<path class="st1" d="M135.3,96.9v10.2l-8.3-9.6c-2.5-2.8-5.3-1.7-5.3-1.7l-5,1.5v31.9l4.4-1.6c4.5-1.3,4.5-5.8,4.5-5.8v-11.7
		c0,0,7.6,8.6,9.5,10.8c1.3,1.4,3.2,2,4.7,1.8c4.4-0.7,4.3-4.8,4.3-4.8H144V90.2l-4.4,1.1C135.2,92.3,135.3,96.9,135.3,96.9z"/>
</g>
</svg>
