<?xml version="1.0" encoding="utf-8"?>
<!-- Generator: Adobe Illustrator 22.0.1, SVG Export Plug-In . SVG Version: 6.00 Build 0)  -->
<svg version="1.1" id="Layer_1" xmlns="http://www.w3.org/2000/svg" xmlns:xlink="http://www.w3.org/1999/xlink" x="0px" y="0px"
	 viewBox="0 0 240.7 216" style="enable-background:new 0 0 240.7 216;" xml:space="preserve">
<style type="text/css">
	.st0{fill:#FFFFFF;}
</style>
<g id="XMLID_335_">
	<path id="XMLID_336_" class="st0" d="M56.8,93.9c0.2-0.3,0.1-0.5-0.4-0.5H39.8c-0.5,0-0.6,0.2-0.4,0.5c0.2,0.2,0.5,1.7,0.5,3.3
		v18.4c0,1.6-0.3,3.1-0.5,3.3c-0.2,0.3-0.1,0.5,0.4,0.5h16.7c0.5,0,0.6-0.2,0.4-0.5c-0.2-0.2-0.5-1.7-0.5-3.3V97.2
		C56.3,95.6,56.6,94.1,56.8,93.9z"/>
	<path id="XMLID_337_" class="st0" d="M97.6,104.4c-0.3-0.4-0.4-0.8-0.1-1.2l6.8-9.5c0.1-0.1,0.2-0.3,0-0.3H87.8
		c-0.1,0-0.1,0.1-0.1,0.3c0,0.2,0.1,0.5-0.1,0.7l-6.1,8.2v-5.5c0-1.6,0.3-3.1,0.5-3.3c0.2-0.3,0.1-0.5-0.4-0.5H65.5
		c-0.5,0-0.6,0.2-0.4,0.5c0.2,0.2,0.5,1.7,0.5,3.3v18.4c0,1.6-0.3,3.1-0.5,3.3c-0.2,0.3-0.1,0.5,0.4,0.5h16.2c0.5,0,0.6-0.2,0.4-0.5
		c-0.2-0.2-0.5-1.7-0.5-3.3v-6.2l5.2,8c0.2,0.2-0.1,1.6-0.1,1.7c0,0.2,0,0.3,0.1,0.3h20.1c0.2,0,0.1-0.2,0-0.3L97.6,104.4z"/>
	<path id="XMLID_338_" class="st0" d="M112.2,93.9c0.2,0.2,0.5,1.7,0.5,3.2v18.2c0,1.6-0.3,3-0.5,3.2c-0.2,0.3-0.1,0.5,0.4,0.5h29
		v-7.6c0-0.5-0.2-0.6-0.5-0.4c-0.2,0.2-1.7,0.5-3.2,0.5h-9.2c-0.4,0-0.5-0.4-0.5-0.5v-1.4c0-0.1,0-0.5,0.5-0.5h6.4
		c0.7,0,3-0.1,3.2,0.1s0.5,0.1,0.5-0.3v-6.2c0-0.4-0.3-0.5-0.5-0.3s-2.6,0.1-3.2,0.1h-6.4c-0.4,0-0.5-0.4-0.5-0.5v-1.3
		c0-0.1,0-0.5,0.5-0.5h9.2c1.6,0,3,0.3,3.2,0.5c0.3,0.2,0.5,0.1,0.5-0.4v-7.2h-29C112.1,93.4,112,93.7,112.2,93.9z"/>
	<path id="XMLID_341_" class="st0" d="M177.7,94.3c0.2-0.6,0-0.7-0.4-0.7h-22.5c-0.4,0-0.6,0.1-0.4,0.7c0.2,0.6,0.1,1.2,0,1.6
		s-8.7,23.3-8.7,23.3h13.9c0.3,0,0.4-0.2,0.3-0.4c-0.1-0.2-0.1-0.7,0.1-1.1l0.7-2.5c0.2-0.7,0.6-0.8,1.2-0.8h6.1
		c0.6,0,0.9,0.1,1.2,0.8l0.7,2.5c0.2,0.4,0.2,0.9,0.1,1.1c-0.1,0.2,0,0.4,0.3,0.4h17.3c0,0-9.6-22.9-9.8-23.3
		C177.6,95.5,177.5,94.8,177.7,94.3z M166,109.3h-3.1c-0.2,0-0.2-0.2-0.2-0.4l1.5-3.6c0.1-0.1,0.1-0.2,0.2-0.2
		c0.1,0,0.2,0.1,0.2,0.2l1.5,3.6C166.3,109.1,166.2,109.3,166,109.3z"/>
	<path id="XMLID_344_" class="st0" d="M194.2,96.8c0-1-0.6-1.5-1.9-1.5h-2v5.2h0.8v-2.3h0.9l1.4,2.3h0.9l-1.5-2.3
		C193.6,98.2,194.2,97.8,194.2,96.8z M191.1,97.7V96h1.1c0.6,0,1.1,0.1,1.1,0.8c0,0.8-0.6,0.9-1.3,0.9
		C192,97.7,191.1,97.7,191.1,97.7z"/>
	<path id="XMLID_347_" class="st0" d="M192.1,93.4c-2.5,0-4.6,1.9-4.6,4.5s2.1,4.6,4.6,4.6s4.6-1.9,4.6-4.6
		C196.7,95.4,194.5,93.4,192.1,93.4z M192.1,101.8c-2.1,0-3.7-1.6-3.7-3.8c0-2.2,1.6-3.8,3.7-3.8c2.1,0,3.7,1.6,3.7,3.8
		C195.7,100.2,194.1,101.8,192.1,101.8z"/>
</g>
</svg>
