<?xml version="1.0" encoding="utf-8"?>
<!-- Generator: Adobe Illustrator 22.0.1, SVG Export Plug-In . SVG Version: 6.00 Build 0)  -->
<svg version="1.1" id="Layer_1" xmlns="http://www.w3.org/2000/svg" xmlns:xlink="http://www.w3.org/1999/xlink" x="0px" y="0px"
	 viewBox="0 0 240.7 216" style="enable-background:new 0 0 240.7 216;" xml:space="preserve">
<style type="text/css">
	.st0{fill:#FFFFFF;}
</style>
<g>
	<path class="st0" d="M167.7,60.6C155.1,48,138.2,41,120.3,41c-36.9,0-67,30.1-67,67c0,17.9,7,34.7,19.6,47.4
		C85.6,168,102.5,175,120.3,175c17.9,0,34.7-7,47.4-19.6c12.7-12.7,19.6-29.5,19.6-47.4C187.4,90.1,180.4,73.3,167.7,60.6z
		 M120.3,172.7c-17.3,0-33.5-6.7-45.7-18.9c-12.2-12.2-18.9-28.5-18.9-45.7c0-17.3,6.7-33.5,18.9-45.7
		c12.2-12.2,28.5-18.9,45.7-18.9c17.3,0,33.5,6.7,45.7,18.9C178.3,74.5,185,90.7,185,108C185,143.7,156,172.7,120.3,172.7z"/>
	<path class="st0" d="M120.3,46c-34.2,0-62,27.8-62,62s27.8,62,62,62c34.3,0,62-27.8,62-62C182.4,73.7,154.6,46,120.3,46z
		 M111.3,49.4h4.9l4.4,11.6l4.4-11.6h4.9v16.3h-3.3V54.3l-4.3,11.4h-3.6l-4.3-11.4v11.4h-3.3V49.4z M70.1,76.2l8-9.5
		c1.6-2,4-3.5,6.1-1.7c0.7,0.6,1,0.8,1.8,2.3c0.2,0.5,0.3,1.5,0,2.4c1.9-1.2,3.9-0.8,5.2,0.5c2,2,1.7,4.2-0.2,6.5l-8.4,10L70.1,76.2
		z M120.3,147.6c-21.9,0-39.6-17.7-39.6-39.6c0-21.9,17.7-39.6,39.6-39.6c21.9,0,39.6,17.7,39.6,39.6
		C160,129.9,142.2,147.6,120.3,147.6z M157.3,87.1l-3-3.7l5.9-8.6l0,0l-9.7,4l-3-3.7l10.2-13.2l2.5,3.1l-6.4,8.4l9.8-4.2l2.7,3.3
		l-6.2,8.7l9.5-4.5l2.5,3.1L157.3,87.1z"/>
	<path class="st0" d="M83.3,108h37.1V70.9C99.9,70.9,83.3,87.5,83.3,108z"/>
	<path class="st0" d="M120.3,145.1c20.5,0,37.1-16.6,37.1-37.1h-37.1V145.1z"/>
	<path class="st0" d="M82.4,69.1c-0.8-0.7-2.1-0.7-2.6,0L75,74.8l3,2.5l4.7-5.6C83.3,70.9,83.3,69.9,82.4,69.1z"/>
	<path class="st0" d="M88.2,75.7c0.7-0.8,0.6-2-0.4-2.8c-0.9-0.7-2.1-0.5-2.7,0.2l-5,6l3.1,2.6L88.2,75.7z"/>
</g>
</svg>
