<?xml version="1.0" encoding="utf-8"?>
<!-- Generator: Adobe Illustrator 22.0.1, SVG Export Plug-In . SVG Version: 6.00 Build 0)  -->
<svg version="1.1" id="Layer_1" xmlns="http://www.w3.org/2000/svg" xmlns:xlink="http://www.w3.org/1999/xlink" x="0px" y="0px"
	 viewBox="0 0 240.7 216" style="enable-background:new 0 0 240.7 216;" xml:space="preserve">
<style type="text/css">
	.st0{fill:#FFFFFF;}
</style>
<g id="XMLID_472_">
	<path id="XMLID_477_" class="st0" d="M216.6,84.1h-61.4c-7.6-11.9-20.9-19.9-36.1-19.9S90.6,72.1,83,84.1H21.8l6.2,6.2h51.6
		c-1,2.2-1.7,4.6-2.3,7H35l6.2,6.2h35.1c-0.1,1.1-0.2,2.3-0.2,3.5s0.1,2.4,0.2,3.5h-28l6.2,6.2h22.9c0.6,2.4,1.3,4.8,2.3,7H61.5
		l6.2,6.2H83c7.6,11.9,20.9,19.8,36.1,19.8s28.5-7.9,36.1-19.8h15.6l6.2-6.2h-18.5c1-2.2,1.7-4.6,2.3-7H184l6.2-6.2h-28.5
		c0.1-1.2,0.2-2.3,0.2-3.5s-0.1-2.3-0.2-3.5h35.5l6.2-6.2h-42.7c-0.6-2.4-1.3-4.8-2.3-7h51.9L216.6,84.1z M119.2,143.6
		c-20.2,0-36.5-16.4-36.5-36.5S99,70.6,119.2,70.6s36.5,16.4,36.5,36.5S139.4,143.6,119.2,143.6z"/>
	<polygon id="XMLID_468_" class="st0" points="100.4,112.4 95.5,97.4 89.8,97.4 89.8,116.7 93.9,116.7 93.9,102.4 98.3,116.7 
		102.5,116.7 106.9,102.4 106.9,116.7 111,116.7 111,97.4 105.3,97.4 	"/>
	<polygon id="XMLID_467_" class="st0" points="136.2,111.5 128.5,97.4 123.9,97.4 123.9,116.7 127.7,116.7 127.7,103.2 135.5,116.8 
		140,116.7 140,97.4 136.2,97.4 	"/>
	<rect id="XMLID_466_" x="115.5" y="97.4" class="st0" width="3.9" height="19.3"/>
	<rect id="XMLID_465_" x="144.5" y="97.4" class="st0" width="3.9" height="19.3"/>
</g>
</svg>
