<?xml version="1.0" encoding="utf-8"?>
<!-- Generator: Adobe Illustrator 22.0.1, SVG Export Plug-In . SVG Version: 6.00 Build 0)  -->
<svg version="1.1" id="Layer_1" xmlns="http://www.w3.org/2000/svg" xmlns:xlink="http://www.w3.org/1999/xlink" x="0px" y="0px"
	 viewBox="0 0 240.7 216" style="enable-background:new 0 0 240.7 216;" xml:space="preserve">
<style type="text/css">
	.st0{fill:#FFFFFF;}
</style>
<g>
	<path class="st0" d="M59.2,52.4v111.1h122.3V52.4H59.2z M130.5,75.5c0.6,0.4,1.3,0.7,2,0.8c0.8,0.1,1.7,0.1,2.4-0.4
		c0.9-0.6,0.9-1.7,0-2.3c-0.5-0.3-1.1-0.6-1.6-0.8c-0.6-0.3-1.1-0.6-1.5-1c-0.9-1-1-2.3-0.2-3.5c0.7-1.1,1.7-1.6,3-1.9
		c0.4-0.1,0.9-0.1,1.2-0.1c1.1,0,2,0.1,2.9,0.6c0.4,0.2,0.4,0.2,0.2,0.6s-0.4,0.8-0.6,1.2c-0.1,0.2-0.2,0.2-0.3,0.1
		c-0.8-0.5-1.6-0.7-2.5-0.6c-0.6,0-1.2,0.3-1.5,0.8c-0.4,0.5-0.3,1.1,0.1,1.5c0.4,0.3,0.8,0.6,1.3,0.8c0.6,0.3,1.2,0.5,1.7,0.9
		c1.5,1.1,1.7,3,0.5,4.4c-0.9,1.1-2.1,1.6-3.4,1.8c-1.4,0.2-2.7-0.1-4-0.7c-0.2-0.1-0.4-0.2-0.6-0.3c-0.1-0.1-0.1-0.1,0-0.2
		c0.3-0.5,0.5-1,0.8-1.5C130.4,75.5,130.4,75.5,130.5,75.5z M122.3,66.5c0.9-0.1,1.8,0,2.6,0.3c0.7,0.3,1.3,0.7,1.7,1.4
		c0,0,0,0.1,0.1,0.1c0,0,0,0,0.1,0c0.1-0.5,0.2-1,0.3-1.4c0-0.2,0.1-0.2,0.3-0.2c0.7,0,1.4,0,2.1,0c0.2,0,0.2,0,0.2,0.2
		c-0.2,1-0.4,2-0.5,3c-0.3,1.7-0.6,3.3-0.9,5c-0.2,1-0.4,2.1-0.5,3.1c0,0.1-0.1,0.2-0.2,0.2c-0.3,0-0.6,0-0.9,0
		c-0.9-0.2-1.3-0.7-1.2-1.7c-0.3,0.4-0.6,0.8-1,1.1c-0.8,0.6-1.8,0.9-2.8,0.9c-2.5,0.1-4.4-1.7-4.7-4.2c-0.2-2.3,0.4-4.3,1.9-6
		C119.7,67.2,120.9,66.8,122.3,66.5z M76.8,63.2c-0.3,0.6-0.6,1.2-1,1.8c-0.1,0.1-0.1,0.1-0.2,0c-1.1-0.8-2.3-1-3.6-0.9
		c-1.2,0.1-2.1,0.9-2.2,2c-0.1,0.6,0.1,1.1,0.5,1.5c0.4,0.5,1,0.8,1.5,1.1c0.7,0.4,1.4,0.7,2,1.2c1.3,0.9,1.9,2.2,1.8,3.8
		c-0.1,1.8-1,3-2.5,3.9c-1.4,0.8-2.9,1-4.5,0.9c-1.4-0.1-2.6-0.6-3.8-1.3v-0.1c0.4-0.5,0.6-1.1,1-1.7c0.3-0.5,0.3-0.5,0.6-0.2
		c1.6,1.1,3.3,1.4,5.1,0.7c1.2-0.5,1.7-1.6,1.4-2.7c-0.1-0.6-0.5-0.9-1-1.2c-0.6-0.4-1.3-0.7-1.9-1.1c-0.7-0.4-1.5-0.9-2-1.5
		s-0.8-1.4-0.9-2.2c-0.2-2.2,1.4-4.1,3.3-4.8c1-0.3,2-0.4,3-0.4c0.9,0.1,1.8,0.2,2.6,0.5c0.3,0.1,0.5,0.2,0.7,0.4
		C76.9,62.9,76.9,63,76.8,63.2z M89.8,69.4c-0.3,1.5-0.5,3-0.8,4.5c-0.2,1.4-0.5,2.7-0.7,4.1c0,0.2-0.1,0.3-0.3,0.3
		c-0.3,0-0.5,0-0.8,0c-0.8-0.2-1.3-0.8-1.2-1.6c-0.5,0.6-1.1,1.2-1.8,1.5c-1.9,0.8-4,0.6-5.4-1c-0.7-0.8-1.1-1.7-1.2-2.8
		c-0.2-2.1,0.3-3.9,1.6-5.6c1.5-2,4.3-2.8,6.5-1.9c0.8,0.3,1.4,0.8,1.9,1.6c0.1-0.4,0.2-0.8,0.2-1.2c0.1-0.5,0.1-0.5,0.6-0.5
		c0.7,0,1.3,0,2,0C90.1,67.8,90,68.4,89.8,69.4z M102.3,71.9c-0.3,1.9-0.7,3.8-1,5.8c-0.1,0.5-0.1,0.5-0.6,0.5c-0.6,0-1.2,0-1.8,0
		c-0.2,0-0.3,0-0.2-0.3c0.4-2.3,0.8-4.6,1.3-6.9c0.1-0.5,0.1-1-0.1-1.4c-0.3-0.7-1-1.1-1.7-1c-1.9,0.1-2.9,1.4-3.3,2.9
		c-0.3,0.9-0.4,1.8-0.6,2.8c-0.2,1.2-0.5,2.5-0.7,3.7c0,0.2-0.1,0.2-0.3,0.2c-0.7,0-1.5,0-2.2,0c-0.2,0-0.2,0-0.2-0.2
		c0.5-2.7,1-5.4,1.5-8c0.2-1,0.4-2,0.6-3.1c0-0.1,0.1-0.2,0.2-0.2c0.3,0,0.6,0,1,0.1c0.7,0.2,1,0.7,1.1,1.6c0.3-0.4,0.6-0.7,0.9-1
		c0.9-0.7,1.9-1,3-1c0.8,0,1.5,0.1,2.1,0.5c0.8,0.6,1.2,1.4,1.3,2.3C102.7,70.2,102.5,71.1,102.3,71.9z M108.2,68.5
		c-0.6,3-1.1,6.1-1.7,9.1c-0.1,0.6-0.1,0.6-0.7,0.6c-0.2,0-0.5,0-0.7,0c-0.4,0-0.8,0-1.1,0c-0.1,0-0.2,0-0.1-0.2
		c0.4-2,0.7-4,1.1-5.9c0.3-1.7,0.6-3.5,0.9-5.2c0-0.2,0.1-0.3,0.3-0.3c0.3,0,0.6,0,0.9,0.1C107.9,67,108.4,67.8,108.2,68.5z
		 M109.2,63.9c-0.3,0.7-1.1,1.2-1.8,1.1c-1-0.2-1.5-1.3-0.8-2.2c0.3-0.4,0.8-0.7,1.4-0.7C108.9,62.1,109.5,63,109.2,63.9z
		 M110.1,75.4c0.3-1.7,0.6-3.5,0.9-5.2c0.1-0.5,0.2-0.9,0.3-1.4c0-0.1,0-0.2-0.1-0.2c-0.4,0-0.8,0-1.3,0c-0.2,0-0.2,0-0.2-0.2
		c0.1-0.5,0.2-1,0.3-1.5c0-0.1,0.1-0.2,0.2-0.2c0.4,0,0.8,0,1.2,0c0.2,0,0.2-0.1,0.3-0.2c0.2-1,0.3-2,0.5-2.9
		c0.1-0.4,0.1-0.4,0.4-0.4c0.6,0,1.2,0.1,1.6,0.5c0.3,0.3,0.4,0.7,0.4,1.2c-0.1,0.5-0.2,1.1-0.3,1.6c0,0.2,0,0.2,0.2,0.2
		c0.8,0,1.6,0,2.4,0c0.2,0,0.3,0.1,0.2,0.3c-0.1,0.5-0.2,0.9-0.2,1.4c0,0.2-0.1,0.2-0.3,0.2c-0.4,0-0.8,0-1.2,0c-0.4,0-0.8,0-1.1,0
		c-0.2,0-0.3,0.1-0.3,0.3c-0.2,0.9-0.3,1.8-0.5,2.8c-0.2,1.1-0.4,2.3-0.6,3.4c-0.1,0.8,0.3,1.3,1.2,1.4c0.5,0,1,0,1.4-0.2
		c0.2-0.1,0.2,0,0.2,0.2c-0.1,0.6-0.2,1.1-0.3,1.7c0,0.1,0,0.2-0.1,0.2c-1.1,0.2-2.3,0.4-3.4-0.1C110.4,77.8,109.9,76.8,110.1,75.4z
		 M174.5,83.9c0,0.2-0.1,0.3-0.1,0.5c0,0.1,0,0.3-0.1,0.4c0,0.1,0,0.3-0.1,0.4c0,0.3-0.1,0.4-0.4,0.4c-0.7,0-1.3,0-2,0
		c-1.8-0.1-3.5-0.5-5-1.5c-0.7-0.5-1.4-1-2.1-1.4c-0.4-0.2-0.8-0.4-1.2-0.3s-0.7,0.3-0.9,0.6c-0.7,1-1.4,2-2.1,3l-1.5,2.2
		c-0.3,0.4-0.7,0.7-1.1,1c-0.9,0.5-1.6,0.2-2-0.7c-0.1-0.3-0.3-0.5-0.3-0.9c-0.1,0-0.1-0.1,0-0.2c-0.2-0.8-0.2-1.5-0.2-2.3
		c-0.1-1.8-0.2-3.5-0.3-5.3c-0.1-2.1-0.2-4.2-0.2-6.3c0-1.3-0.1-2.6-0.1-4c0-1.6-0.1-3.1-0.1-4.7v-0.1c-0.1-0.3-0.2-0.3-0.5-0.1
		c-0.2,0.6-0.4,1.3-0.5,2c-0.9,3.9-1.9,7.8-2.8,11.7c-1,4.3-2,8.5-3.1,12.8c-0.2,0.9-0.4,1.7-0.6,2.6c-0.1,0.4-0.3,0.8-0.5,1.2
		c0,0,0,0,0,0.1c0,0,0,0.1-0.1,0.1c0,0.1,0,0.1-0.1,0.2c-0.2,0.6-0.9,1.3-1.6,1.4c-0.1,0-0.2,0-0.3,0c-0.5-0.1-0.8-0.4-1-0.8
		c-0.4-0.7-0.6-1.5-0.8-2.2c-0.6-2-1-4.1-1.5-6.2c-0.1-0.3-0.1-0.5-0.3-0.8c-0.2-0.4-0.6-0.5-1-0.4c-0.5,0.2-0.9,0.5-1.3,0.7
		c-1.1,0.8-2.2,1.5-3.5,1.9c-0.5,0.2-1.1,0.3-1.7,0.3c-6.9,0-13.7,0-20.6,0c-0.5,0-0.5,0-0.4-0.5c0-0.1,0-0.2,0.1-0.3
		c0-0.1,0-0.3,0.1-0.4c0-0.2,0-0.4,0.1-0.5c0-0.7,0-0.7,0.7-0.7c6.4,0,12.8,0,19.1,0c1.5,0,2.8-0.5,4-1.4c0.6-0.5,1.1-0.9,1.7-1.4
		c0.4-0.3,0.9-0.6,1.5-0.8c1-0.3,1.9,0,2.5,0.8s0.8,1.7,1.1,2.5c0.5,1.8,0.8,3.7,1.2,5.5c0,0.1,0.1,0.3,0.1,0.4s0.1,0.2,0.3,0.2
		c0.1,0,0.2-0.1,0.2-0.2c0.1-0.3,0.1-0.5,0.2-0.8c0.8-3.9,1.7-7.7,2.6-11.5c1-4.4,2.1-8.9,3.3-13.3c0.5-1.8,0.9-3.7,1.4-5.5
		c0.2-0.8,0.5-1.5,1-2.2c0.2-0.3,0.4-0.6,0.7-0.7c0.5-0.3,1-0.2,1.3,0.2c0.4,0.5,0.5,1.1,0.7,1.7c0.2,0.8,0.2,1.6,0.2,2.4
		c0.1,2,0.2,4,0.3,5.9c0.1,1.6,0.1,3.2,0.2,4.8c0.1,1.6,0.1,3.2,0.2,4.8c0.1,1.9,0.1,3.7,0.2,5.6c0,0.4,0,0.8,0,1.2
		c0,0.2,0,0.4,0.2,0.5s0.3-0.1,0.4-0.2c0.9-1.3,1.8-2.7,2.9-4c0.4-0.5,0.9-1.1,1.5-1.5c0.8-0.6,1.6-0.7,2.4-0.2
		c0.8,0.4,1.5,1,2.3,1.6c0.6,0.4,1.2,0.9,1.8,1.3c0.8,0.4,1.6,0.6,2.5,0.7s1.8,0.1,2.7,0.1c0.4-0.1,0.4,0,0.4,0.2
		C174.6,83.5,174.5,83.8,174.5,83.9z"/>
	<path class="st0" d="M84,68.4c-0.9,0-1.6,0.3-2.2,0.8c-1.4,1.5-1.9,3.3-1.4,5.3c0.2,0.9,0.8,1.6,1.7,1.8c1.1,0.2,2.1-0.1,2.8-0.9
		c1.3-1.3,1.8-3,1.4-4.8C86.2,69.2,85.2,68.4,84,68.4z"/>
	<path class="st0" d="M121.5,76.4c1.2,0.2,2.2-0.1,2.9-1c1.2-1.3,1.6-2.9,1.3-4.6c-0.2-1.4-1.2-2.3-2.5-2.3c-0.9,0-1.6,0.3-2.2,0.8
		c-1.4,1.5-1.8,3.3-1.4,5.2C120,75.4,120.5,76.1,121.5,76.4z"/>
</g>
</svg>
