<?xml version="1.0" encoding="utf-8"?>
<!-- Generator: Adobe Illustrator 22.0.1, SVG Export Plug-In . SVG Version: 6.00 Build 0)  -->
<svg version="1.1" id="Layer_1" xmlns="http://www.w3.org/2000/svg" xmlns:xlink="http://www.w3.org/1999/xlink" x="0px" y="0px"
	 viewBox="0 0 240.7 216" style="enable-background:new 0 0 240.7 216;" xml:space="preserve">
<style type="text/css">
	.st0{fill:#FFFFFF;}
</style>
<g id="XMLID_844_">
	<g id="XMLID_828_">
		<path id="XMLID_841_" class="st0" d="M180.9,106.2c1.5-1.2,3.5-1.9,4.9-3.3c1.4,1,2.8,1.8,4.4,2.5c0,3.1,0,6.2,0,9.3
			c0,0.4,0,1,0.4,1.3s0.9-0.1,1.3-0.2c0,0.1,0,0.4,0,0.6c-1.1,0.7-2.2,1.6-3.1,2.6c-0.6-0.4-1.1-0.9-1.5-1.5
			c-0.4-0.5-0.5-1.2-0.6-1.8c-1.5,0.9-3,1.8-4.1,3.2c-1.1-0.6-2.2-1.5-2.6-2.7c-0.6-1.7-0.6-3.5-0.6-5.2
			C179.4,109.3,179.6,107.4,180.9,106.2L180.9,106.2z M183.4,105.4c-0.4,1.4-0.3,2.9-0.3,4.4c0,1.7-0.1,3.4,0.3,5.1
			c0.1,0.6,0.6,1.1,1.3,1s1.5-0.4,1.9-1c0-2.6,0-5.1,0-7.7C185.4,106.7,184.5,105.8,183.4,105.4z"/>
		<path id="XMLID_840_" class="st0" d="M167.1,102.8c0.5,0.6,1.1,1.5,1.9,1.6c0.5,0.1,0.7-0.4,1-0.7c0.1,0.1,0.2,0.2,0.3,0.3
			c-0.3,1.1-0.6,2.4-1.5,3.1c-0.6,0.4-1.4,0.6-2,0.1c-0.6-0.4-0.9-1.1-1.2-1.7c-0.2,1.8-0.2,3.6-0.2,5.5c0,1.1,0.1,2.3,0.7,3.3
			c0.4,0.5,0.9,1.1,1.6,1.1c0.8,0,1.5-0.6,2.1-1.1c0.1,0.1,0.3,0.3,0.4,0.4c-1.6,1.3-3.1,2.7-4.7,4.1c-0.9-0.6-1.8-1-2.5-1.9
			c-0.9-1.3-1.3-2.9-1.4-4.4c-0.1-1.4,0-2.8,0.2-4.2c0.2-1,0.5-1.9,1.3-2.6C164.5,104.7,165.9,103.9,167.1,102.8z"/>
		<path id="XMLID_837_" class="st0" d="M138.7,102.9c1.4,0.9,2.8,1.8,4.4,2.4c0,3.1,0,6.2,0,9.3c0,0.5,0,1.1,0.5,1.4
			c0.4,0.1,0.8-0.1,1.2-0.2c0,0.1,0,0.4,0,0.6c-1.1,0.7-2.2,1.6-3.1,2.6c-0.6-0.4-1.2-0.9-1.6-1.5c-0.3-0.5-0.5-1.1-0.6-1.7
			c-1.5,0.9-3,1.9-4.1,3.2c-1-0.6-2-1.3-2.4-2.3c-0.7-1.6-0.7-3.4-0.7-5.1c0-1.4,0.1-3,0.8-4.3c0.5-0.9,1.5-1.5,2.4-2
			C136.6,104.5,137.8,103.9,138.7,102.9L138.7,102.9z M136.3,105.4c-0.2,0.4-0.3,0.8-0.3,1.2c-0.1,1.7-0.1,3.4-0.1,5.1
			c0,1,0,2.1,0.3,3.1c0.1,0.5,0.5,1,1,1.1c0.8,0,1.5-0.5,2.1-0.9c0-2.6,0-5.2,0-7.9C138.3,106.7,137.4,105.9,136.3,105.4z"/>
		<path id="XMLID_836_" class="st0" d="M145.9,98.9c1.6,0.6,3.5,0.2,5-0.6c0,5.3,0,10.6,0,16c0,0.5,0,1.1,0.6,1.3
			c0.5,0.2,0.9-0.2,1.3-0.4c0.1,0.1,0.3,0.2,0.3,0.3c-1.2,1-2.4,2.1-3.5,3.3c-0.9-0.8-1.9-1.6-3-2.1c-0.3-0.2-0.6-0.3-0.8-0.6
			c0.4-0.2,0.9-0.3,1.2-0.7c0.3-0.6,0.3-1.3,0.3-1.9c0-3,0-6,0-9.1c0-1.5,0-3.2-0.9-4.5C146.1,99.6,145.4,99.4,145.9,98.9z"/>
		<path id="XMLID_833_" class="st0" d="M171.8,98.3c0.7-0.5,1.6-0.7,2.4-0.6c0.7,0,1.6,0.2,2.1,0.8c0.3,0.3,0.1,0.8-0.1,1.1
			c-0.6,1-1.4,1.8-2.2,2.6c-0.8-0.8-1.6-1.6-2.2-2.5C171.5,99.2,171.4,98.6,171.8,98.3L171.8,98.3z M170.1,106.6
			c1.4-1.2,2.7-2.3,3.9-3.7c0.6,0.7,1.2,1.4,1.9,2c0,3.1,0,6.2,0,9.2c0,0.6,0,1.3,0.6,1.6c0.6,0.2,1-0.4,1.4-0.7
			c0.1,0.1,0.3,0.3,0.4,0.5c-1.2,1.2-2.4,2.4-3.6,3.6c-1-0.7-2.3-1.5-2.3-2.8c-0.1-2.8,0-5.5,0-8.3c-0.1-0.5-0.1-1.2-0.6-1.4
			c-0.5-0.1-0.9,0.4-1.3,0.6C170.4,106.9,170.2,106.7,170.1,106.6z"/>
		<path id="XMLID_830_" class="st0" d="M154.7,97.9c1.1-0.5,2.5-0.5,3.6,0c0.4,0.2,0.8,0.7,0.5,1.2c-0.6,1.1-1.5,1.9-2.3,2.8
			c-0.9-0.9-1.9-1.8-2.4-3C153.9,98.5,154.3,98.1,154.7,97.9L154.7,97.9z M152.6,106.5c1.4-1.2,2.7-2.3,3.9-3.7
			c0.7,0.6,1.2,1.4,2,1.9c0,3.2,0,6.4,0,9.6c0,0.5,0.1,1.1,0.7,1.2c0.6,0.1,0.9-0.4,1.3-0.8c0.1,0.1,0.3,0.3,0.4,0.4
			c-1.2,1.2-2.4,2.4-3.6,3.7c-1.1-0.6-2.3-1.5-2.4-2.8c-0.1-2.7,0-5.4,0-8.1c-0.1-0.5,0-1.2-0.5-1.6c-0.5-0.2-1,0.3-1.4,0.6
			C152.8,106.8,152.7,106.6,152.6,106.5z"/>
		<path id="XMLID_829_" class="st0" d="M119.4,97.7c1.9-0.7,4.1-0.4,5.7,0.8c1.2,0.7,2.1,2,3.6,1.9c1,0,1.6-0.7,2-1.5
			c0.1,0.1,0.2,0.2,0.3,0.3c-0.5,2.5-3,4.8-5.7,4.4c-1.8-0.2-3-1.7-4.6-2.4c-1.2-0.6-2.8-0.7-4,0.2c-1.3,0.9-1.9,2.5-2.1,4
			c-0.2,1.8,0.1,3.7,1.1,5.2c1.1,1.7,2.8,2.8,4.4,3.7c1.5,0.8,3.1,1.5,4.8,1.3c0-1.4-0.1-2.7-0.1-4.1c-0.9,0-1.8,0-2.5-0.5
			c-1-0.7-1.5-1.9-2.1-2.9c0.5,0.2,1,0.3,1.5,0.1c1.6-0.4,3-1.3,4.7-1.3c0.9,0,2,0.2,2.7,0.9c0.8,0.9,1.4,1.9,1.9,3
			c-0.3-0.3-0.5-0.7-0.9-0.8c-0.6-0.2-1.2,0-1.8,0.2c0,1.2-0.1,2.4,0,3.6c0,0.4,0.2,0.9,0.6,1c0.5,0.1,0.9-0.2,1.3-0.5
			c0.1,0.1,0.2,0.3,0.3,0.4c-1.7,2.2-4.4,3.7-7.3,3.9c-2.3,0.2-4.6-0.4-6.4-1.9c-2.4-1.8-3.7-4.8-3.8-7.7c-0.2-2.8,0.5-5.7,2.1-8.1
			C116.1,99.7,117.6,98.3,119.4,97.7z"/>
	</g>
	<g id="XMLID_815_">
		<path id="XMLID_825_" class="st0" d="M98.2,104.7c0.9-0.5,1.9-1.1,2.6-1.9c1.4,0.9,2.8,1.8,4.3,2.5c0,3.1,0,6.3,0,9.4
			c0,0.4,0,1,0.5,1.3c0.4,0.2,0.9-0.1,1.3-0.3c0,0.1-0.1,0.4-0.1,0.5c-1.1,0.8-2.2,1.6-3.1,2.6c-0.6-0.5-1.2-0.9-1.6-1.6
			c-0.3-0.5-0.4-1.1-0.5-1.7c-1.5,0.9-3,1.9-4.1,3.2c-0.9-0.5-1.8-1.1-2.3-2.1c-0.7-1.2-0.8-2.6-0.9-4c-0.1-1.8-0.1-3.7,0.7-5.4
			C95.7,105.9,97,105.3,98.2,104.7L98.2,104.7z M98.4,105.2c-0.4,1.2-0.3,2.4-0.4,3.7c0,1.9-0.1,3.8,0.3,5.6
			c0.1,0.6,0.5,1.2,1.2,1.2s1.3-0.4,1.9-0.8c0.3-0.1,0.1-0.5,0.2-0.7c0-2.4,0-4.8,0-7.2C100.5,106.5,99.6,105.7,98.4,105.2z"/>
		<path id="XMLID_822_" class="st0" d="M69.8,104.9c1.4-1,3.1-1.6,4.6-2.4c1.2,2,2.4,4,3.6,6c-2.2,1.3-4.4,2.5-6.6,3.8
			c0.3,1.4,1.3,2.7,2.8,2.9c1.4,0.2,2.5-0.8,3.6-1.5c0.1,0.2,0.3,0.4,0.4,0.5c-1.9,1.4-3.7,2.8-5.3,4.5c-1.4-0.6-2.9-1.3-3.8-2.7
			c-1.4-1.8-1.5-4.3-1.4-6.5C67.8,107.8,68.3,106,69.8,104.9L69.8,104.9z M71.7,104.5c-0.3,0.9-0.3,1.8-0.3,2.8c0,1.3,0,2.6,0,3.9
			c1-0.6,2.1-1.2,3.1-1.8C73.5,107.7,72.7,106.1,71.7,104.5z"/>
		<path id="XMLID_821_" class="st0" d="M59.4,102.5c1.3,0.7,2.4,1.7,2.8,3.1c0.5-1.4,1.4-2.7,2.9-3.2c0.8,1,1.5,2.1,2.3,3.1
			c-0.9,0.8-1.7,1.6-2.6,2.4c-0.6-0.8-1.2-1.6-1.9-2.3c-1,2.5-0.6,5.3-0.7,8c-0.2,0.9,0.8,1.5,1.5,1.7c0.9-0.2,1.6-1,2.3-1.6
			c0,0.3,0,0.7,0,1c-1.5,1.2-2.8,2.5-4.2,3.9c-1.4-1.2-2.9-2.2-4.6-2.8c0-0.3,0.3-0.4,0.5-0.5c0.7-0.4,0.8-1.2,0.8-1.9
			c0-2,0-3.9,0-5.9c0-0.6-0.1-1.5-0.8-1.8c-0.6-0.2-1,0.3-1.4,0.6c0-0.3,0-0.6,0-0.9C57.5,104.5,58.4,103.5,59.4,102.5z"/>
		<path id="XMLID_820_" class="st0" d="M36.8,106c1.1-1.5,2.9-2.1,4.2-3.4c0.8,0.7,1.6,1.4,2.6,1.5c0.7,0.1,1.5-0.1,2.2-0.4
			c-0.4,1.6-1.8,2.9-3.5,3c-1.4,0-2.4-1.1-3.4-1.9c-0.2,1.4-0.2,3,0.8,4.1c1.3,1.2,3.7,0.8,4.5-0.8c1.3,0.9,2.4,2.3,2.5,3.9
			c0,1.1-0.3,2.3-1.1,3.2c-1.2,1.4-2.9,2.2-4.2,3.4c-1-0.8-2.1-1.6-3.4-1.5c-0.8,0-1.5,0.4-2.2,0.8c0.1-0.7,0.6-1.3,1-1.9
			c0.7-0.9,1.6-1.8,2.8-1.8c1.5,0,2.6,1.1,3.5,2.1c0.7-1.4,0.4-3.3-0.7-4.4c-0.7-0.8-2-0.9-2.9-0.3c-0.5,0.3-0.8,0.8-1.1,1.3
			c-1-0.7-1.8-1.6-2.3-2.7C35.6,108.8,35.8,107.1,36.8,106z"/>
		<path id="XMLID_819_" class="st0" d="M86.4,98.8c1.6,0.6,3.5,0.2,5-0.6c0,5.4,0,10.7,0,16.1c0,0.5,0.1,1.1,0.6,1.3
			c0.5,0.1,0.9-0.2,1.3-0.5c0.1,0.1,0.2,0.3,0.3,0.4c-1.2,1-2.4,2.1-3.5,3.2c-1.2-1.1-2.5-1.9-3.9-2.6c0.5-0.3,1.1-0.5,1.3-1
			c0.3-0.7,0.2-1.5,0.3-2.2c0-3.2,0-6.5,0-9.7c0-1.4-0.3-3.1-1.6-4C86.2,99.1,86.3,98.9,86.4,98.8z"/>
		<path id="XMLID_818_" class="st0" d="M78.7,98.9c1.6,0.5,3.2,0,4.6-0.7c0,5.3,0,10.6,0,15.8c0,0.5,0,1.2,0.5,1.4
			c0.5,0.2,1-0.1,1.4-0.4c0.1,0.1,0.2,0.3,0.3,0.4c-1.2,1-2.4,2.1-3.5,3.3c-1-0.8-1.9-1.6-3.1-2.2c-0.3-0.1-0.6-0.2-0.7-0.6
			c0.4-0.2,1-0.3,1.2-0.8c0.3-0.6,0.3-1.3,0.3-1.9c0-3.4,0-6.9,0-10.3c-0.1-1.4-0.4-3-1.6-3.8C78.2,98.9,78.4,98.7,78.7,98.9z"/>
		<path id="XMLID_817_" class="st0" d="M51.5,97.7c0.4,0,0.8,0,1.2,0c0,2.2,0,4.3,0,6.5c0.9,0,1.9,0,2.8,0c0,0.7,0,1.3,0,2
			c-0.9,0-1.9,0-2.8,0c0,2.5,0,5.1,0,7.6c0,0.6,0.2,1.4,0.9,1.6s1.3-0.3,1.8-0.7c0,0.3,0.4,0.7,0,0.9c-1.3,1-2.6,2-3.8,3.1
			c-1-0.9-1.9-1.8-3.1-2.3c-0.3-0.1-0.7-0.2-0.8-0.5c0.4-0.2,0.9-0.3,1.1-0.7c0.3-0.5,0.3-1.1,0.3-1.6c0-2.4,0-4.9,0-7.3
			c-0.7,0-1.4,0-2.1,0c0-0.4,0-0.9,0-1.3c1.4-0.6,2.5-1.8,3.2-3.1C50.8,100.4,51.2,99.1,51.5,97.7z"/>
		<path id="XMLID_816_" class="st0" d="M24.9,100.1c1.2-1.1,2.5-2.1,3.7-3.1c0.6,0.7,1.1,1.4,2,1.7c1.3,0.5,2.7,0,3.8-0.8
			c0.1,0.1,0.3,0.2,0.3,0.3c-0.7,1.3-1.7,2.5-3.1,3c-1.2,0.4-2.6,0.5-3.8,0.1c-0.7-0.3-1.3-0.9-1.9-1.3c-0.3,1.4,0.6,2.6,1.1,3.8
			c0.7,1.4,1.1,2.8,1.2,4.3c0.5-1.5,1.1-3.3,2.8-3.8c1.2-0.5,2.3,0.2,3.1,1c-0.8,1.1-1.6,2.1-2.3,3.3c-0.5-0.4-1-1-1.7-1.1
			c-0.4-0.1-0.9,0.1-1.2,0.4c-0.6,0.8-1.1,1.8-1.7,2.7c-0.5,0.9-1.4,1.6-2.3,2.1c1.1-0.1,2.3,0.2,3.3,0.7s1.9,1.1,3,1.4
			c1,0.3,2.2,0.2,3-0.5c0.6-0.6,0.7-1.4,0.9-2.2c0.1,0,0.4,0,0.6,0c-0.1,1.6-0.4,3.3-1.4,4.5c-1.2,1.6-3.4,2.3-5.3,2
			c-1.6-0.2-2.9-1.2-4.4-1.8c-1-0.3-2.1-0.4-3,0.1c-0.4,0.3-0.7,0.8-0.9,1.2c-0.1,0-0.3,0-0.5,0c0.3-1.9,1.2-3.7,2.8-4.8
			c0.9-0.5,1.1-1.5,1.2-2.4c0.2-2-1.2-3.8-1.5-5.7c-0.1-1-0.1-2,0.3-2.9C23.5,101.5,24.2,100.7,24.9,100.1z"/>
	</g>
	<g>
		<path class="st0" d="M214.1,104.9h-3.7l-1.8-3.2l-1.9,3.2H203l1.8,3.2l-1.8,3.1h3.7l1.9,3.2l1.8-3.2h3.7l-1.8-3.1L214.1,104.9z
			 M213.6,110.9l-5-2.8l1.7,2.8l-1.7,2.9v-5.7l-1.7,2.8h-3.3l5-2.8h-3.4l-1.6-2.9l5,2.9l-1.7-2.9l1.7-2.9v5.8l1.7-2.9h3.3l-5,2.9
			h3.3L213.6,110.9z"/>
		<path class="st0" d="M208.6,100.1c-4.4,0-7.9,3.6-7.9,7.9c0,4.4,3.6,7.9,7.9,7.9c2.9,0,5.5-1.7,6.9-4.1h-4.6l-2.3,3.9l-2.3-3.9
			h-4.6l2.3-3.8l-2.3-3.8h4.6l2.3-3.9l2.3,3.9h4.6l-2.3,3.8l2.3,3.8c0.6-1.1,1-2.4,1-3.8C216.5,103.6,212.9,100.1,208.6,100.1z"/>
		<path class="st0" d="M215.5,111.8L215.5,111.8C215.5,111.8,215.5,111.8,215.5,111.8L215.5,111.8z"/>
		<path class="st0" d="M207.4,98.4c0-0.2-0.1-0.2-0.2-0.2l-0.2,0.1v0.3h0.2C207.3,98.6,207.4,98.5,207.4,98.4z"/>
		<path class="st0" d="M203.9,100.2c0.1-0.1,0.1-0.3,0-0.5c-0.1-0.2-0.2-0.3-0.4-0.2l0.3,0.8L203.9,100.2z"/>
		<path class="st0" d="M208.4,117.1c0,0-0.1,0-0.1,0.1c0,0.1,0.2,0.1,0.3,0.1C208.7,117.2,208.6,117.1,208.4,117.1z"/>
		<path class="st0" d="M200.8,102.5c0.1,0.1,0.3,0,0.4-0.1c0.1-0.1,0-0.3-0.1-0.4c-0.1-0.1-0.3,0-0.4,0.1
			C200.6,102.2,200.6,102.4,200.8,102.5z"/>
		<path class="st0" d="M200.3,111.9l-0.3,0.2l0.1,0.2c0,0.1,0.1,0.2,0.2,0.1c0.1,0,0.2-0.1,0.1-0.3L200.3,111.9z"/>
		<path class="st0" d="M205.6,116.7l-0.2-0.1l-0.1,0.3l0.2,0.1c0.1,0,0.2,0,0.2-0.1C205.7,116.8,205.7,116.7,205.6,116.7z"/>
		<path class="st0" d="M202.3,101.3c0-0.1-0.2,0-0.3,0.1c0.1,0.1,0.2,0.1,0.3,0.1C202.3,101.4,202.4,101.4,202.3,101.3z"/>
		<path class="st0" d="M213.1,99.3c0-0.1,0-0.1-0.1-0.2l-0.2-0.1l-0.1,0.3l0.2,0.1C213,99.4,213,99.4,213.1,99.3z"/>
		<path class="st0" d="M207.7,117.8l0.4-0.1c0,0.1,0.1,0.2,0.2,0.2s0.2,0,0.2-0.1s-0.1-0.1-0.3-0.1c-0.2,0-0.4-0.1-0.4-0.4
			c0,0.1,0,0.2,0,0.3C207.8,117.7,207.8,117.7,207.7,117.8z"/>
		<path class="st0" d="M207,117.1c-0.1,0-0.3,0.1-0.3,0.3c-0.1,0.2,0,0.4,0.2,0.4s0.4-0.1,0.4-0.3
			C207.3,117.3,207.2,117.1,207,117.1z"/>
		<path class="st0" d="M210.4,117h-0.1l0.1,0.7h0.1c0.2,0,0.2-0.2,0.2-0.4S210.6,117,210.4,117z"/>
		<path class="st0" d="M218.2,109.6c-0.1,0-0.2,0.1-0.2,0.2s0.1,0.2,0.2,0.2c0.1,0,0.2,0,0.1-0.2
			C218.4,109.7,218.3,109.6,218.2,109.6z"/>
		<polygon class="st0" points="217.6,104.7 217.3,104.6 217.4,104.9 		"/>
		<path class="st0" d="M208.6,97.2c-6,0-10.8,4.8-10.8,10.8s4.8,10.8,10.8,10.8s10.8-4.8,10.8-10.8S214.5,97.2,208.6,97.2z
			 M218.5,107.5c0,0.2-0.2,0.4-0.4,0.4c-0.2,0-0.4-0.2-0.4-0.4c0-0.2,0.2-0.4,0.4-0.4C218.3,107.1,218.5,107.3,218.5,107.5z
			 M217.2,105.7l-0.2-0.5l0.1-0.1l-0.2-0.5h-0.2l-0.1-0.6l1.7,0.3L217.2,105.7z M217.6,106.1l-0.4,0.1l-0.1-0.4l0.4-0.1L217.6,106.1
			z M216.9,108c-0.1,4.6-3.8,8.3-8.3,8.3c-4.6,0-8.3-3.7-8.3-8.3c0-4.6,3.7-8.3,8.3-8.3C213.2,99.7,216.9,103.4,216.9,108z
			 M216.2,103.6l0.4-0.2l0.2,0.4l-0.4,0.2L216.2,103.6z M215.8,102.2l0.3,0.2c0,0.1-0.1,0.2,0,0.3c0.1,0.1,0.1,0.2,0.2,0.1
			c0.1,0,0-0.1-0.1-0.3c-0.1-0.1-0.1-0.4,0.1-0.5c0.3-0.2,0.6-0.1,0.8,0.2c0.1,0.3,0.2,0.5,0,0.7l-0.3-0.2c0.1,0,0.1-0.1,0-0.2
			c-0.1-0.1-0.1-0.1-0.2-0.1c0,0.1,0,0.2,0.1,0.3c0.1,0.2,0.2,0.4-0.1,0.6c-0.3,0.2-0.6,0-0.7-0.4
			C215.7,102.6,215.7,102.4,215.8,102.2z M215.3,101.7l-0.8,0.2v-0.1l0.5-0.5L215.3,101.7z M213.3,98.7c0.3,0.2,0.4,0.5,0.3,0.7
			c-0.1,0.2-0.2,0.3-0.4,0.3l0.1,0.7l1.6-0.6l-0.2,1.7l-0.4-0.3V101l-0.4-0.3l-0.2,0.1l-0.4-0.3l-0.6-0.3v-0.5l-0.2-0.1l-0.2,0.4
			l-0.5-0.4l0.7-1.3L213.3,98.7z M212.1,98.4l-0.1,0.3l-0.6-0.2v0.2l0.6,0.2l-0.1,0.3l-0.6-0.1l-0.1,0.2l0.6,0.1l-0.1,0.4l-1.1-0.4
			l0.5-1.4L212.1,98.4z M209.6,97.8l0.2,0.6l0.4-0.5h0.6l-1.1,1.4l-0.6-1.6L209.6,97.8z M208.8,97.7l0,1.5l-0.5,0l0-1.5L208.8,97.7z
			 M207.2,97.8c0.3,0,0.6,0.1,0.6,0.4c0,0.1-0.1,0.3-0.2,0.4l0.5,0.6l-0.6,0.1l-0.3-0.4H207l0.1,0.4l-0.5,0.1l-0.2-1.5L207.2,97.8z
			 M205.3,98.2l0.2,0.4l-0.6,0.2L205,99l0.5-0.2l0.2,0.3l-0.6,0.2l0.1,0.2l0.6-0.2l0.1,0.3l-1.1,0.4l-0.5-1.4L205.3,98.2z
			 M203.4,99.2c0.4-0.3,0.8-0.1,1,0.2c0.2,0.4,0.2,0.8-0.3,1.1l-0.5,0.3l-0.8-1.3L203.4,99.2z M201.6,100.5c0.1-0.1,0.4-0.2,0.6-0.1
			l-0.2,0.3c-0.1-0.1-0.1-0.1-0.2,0c0,0.1-0.1,0.1,0,0.2c0.1,0.1,0.2,0,0.3-0.1c0.1-0.1,0.4-0.3,0.6,0c0.2,0.2,0.1,0.6-0.1,0.8
			c-0.2,0.2-0.4,0.3-0.7,0.2l0.1-0.4c-0.2,0.1-0.4,0.1-0.4-0.1C201.3,101.1,201.4,100.7,201.6,100.5z M200.4,101.8
			c0.3-0.4,0.8-0.5,1.1-0.2c0.3,0.2,0.4,0.7,0.1,1.1c-0.3,0.4-0.7,0.5-1.1,0.2C200.1,102.7,200.1,102.2,200.4,101.8z M199.7,102.8
			l0.9,0.5c0.3,0.2,0.4,0.4,0.2,0.7c-0.1,0.1-0.2,0.2-0.2,0.2l-0.3-0.2c0.1-0.1,0.1-0.1,0.1-0.2s-0.1-0.1-0.1-0.1l-0.8-0.4
			L199.7,102.8z M199.3,103.6l1.4,0.6l-0.2,0.5l-1.4-0.6L199.3,103.6z M198.7,105.3l0.4,0.1l0.1-0.3l-0.4-0.2l0.1-0.5l1.4,0.5
			l-0.1,0.5l-0.5-0.2l-0.1,0.4l0.5,0.1l-0.2,0.5l-1.4-0.4L198.7,105.3z M199.5,107.5c0,0.2-0.2,0.4-0.4,0.4c-0.2,0-0.4-0.2-0.4-0.4
			c0-0.2,0.2-0.4,0.4-0.4C199.3,107.1,199.5,107.3,199.5,107.5z M199,108.6c0.4,0,0.8,0.2,0.9,0.7c0.1,0.3,0,0.6-0.3,0.8l-0.2-0.4
			c0.1-0.1,0.1-0.2,0.1-0.3c0-0.1-0.1-0.2-0.3-0.2c-0.2,0.1-0.3,0.2-0.3,0.4s0.1,0.3,0.2,0.3l-0.1,0.3c-0.3,0-0.5-0.3-0.6-0.7
			C198.3,109.1,198.5,108.7,199,108.6z M200,110.3l0.4,1l-0.4,0.1l-0.1-0.5h-0.2l0.1,0.6l-0.3,0.1l-0.2-0.6l-0.2,0.1l0.2,0.6
			l-0.3,0.1l-0.4-1.1L200,110.3z M199.7,113.6l-0.3-0.6l0.3-0.4l-0.1-0.2l-0.4,0.2l-0.2-0.5l1.3-0.7l0.4,0.7
			c0.2,0.3,0.1,0.6-0.1,0.7c-0.1,0.1-0.3,0.1-0.5,0.1L199.7,113.6z M202,115.5l-0.3,0.2l-0.8-0.8l1-1l-1.6,0.2l0.7-1.6l0.3,0.5
			l-0.3,0.6l0.6-0.1l0.4,0.4l0.8,0.8l-0.3,0.2l-0.4-0.4l-0.2,0.1l0.5,0.5l-0.3,0.2l-0.4-0.4l-0.2,0.1L202,115.5z M202.5,116.3
			c-0.4-0.3-0.5-0.7-0.2-1.1c0.2-0.3,0.7-0.4,1.1-0.1c0.3,0.2,0.4,0.5,0.3,0.8l-0.5-0.1c0.1-0.1,0-0.2-0.1-0.3
			c-0.1-0.1-0.3,0-0.4,0.1s0,0.3,0.1,0.4c0.1,0.1,0.2,0,0.3,0l0.3,0.3C203.2,116.6,202.8,116.5,202.5,116.3z M206,118.1l-0.6-0.2
			l-0.1-0.5l-0.2-0.1l-0.1,0.4l-0.5-0.2l0.5-1.4l-0.2,0.3l-0.5-0.3l-0.1,0.2l0.5,0.3l-0.2,0.3l-0.5-0.3l-0.1,0.2l0.5,0.3l-0.1,0.3
			l-1-0.5l0.7-1.4l1,0.6l0.8,0.3c0.3,0.1,0.5,0.3,0.4,0.6c0,0.1-0.2,0.2-0.4,0.4L206,118.1z M208.9,117.6c0,0.3-0.3,0.5-0.6,0.5
			c-0.3,0-0.5-0.1-0.6-0.3c-0.1,0.3-0.5,0.4-0.8,0.4c-0.4-0.1-0.8-0.5-0.7-0.9c0-0.4,0.5-0.7,0.9-0.6c0.4,0,0.7,0.2,0.7,0.6
			c0-0.3,0.3-0.5,0.6-0.5c0.3,0,0.5,0,0.6,0.3l-0.4,0.2C208.8,117.4,209.1,117.4,208.9,117.6z M210.6,118.1l-0.6,0.1l-0.3-1.5
			l0.7-0.1c0.5-0.1,0.8,0.2,0.8,0.6C211.3,117.6,211.1,118,210.6,118.1z M213.2,117.2c-0.2,0.1-0.4,0.2-0.5,0.1l0,0.2l-1.1,0.4
			l-0.5-1.4l1.1-0.4l0.1,0.2c0-0.2,0.1-0.4,0.3-0.6c0.3-0.1,0.5-0.2,0.7,0l-0.2,0.3c0,0-0.1,0-0.2,0c-0.1,0.1-0.1,0.1-0.1,0.2
			c0,0.1,0.2,0,0.3,0c0.2-0.1,0.4-0.1,0.4,0.2C213.7,116.7,213.5,117,213.2,117.2z M214.7,116.3l-0.5,0.4l-0.9-1.2l0.5-0.4
			c0.4-0.3,0.8-0.2,1.1,0.1C215.1,115.6,215.1,116,214.7,116.3z M215.5,115.7l-1.1-1.1l0.8-0.8l0.3,0.3l-0.5,0.4l0.2,0.2l0.4-0.5
			l0.3,0.3l-0.5,0.4l0.2,0.2l0.4-0.5l0.3,0.3L215.5,115.7z M216.8,114.1l-1-0.7l0.1-0.5l1.2,0.8L216.8,114.1z M217.6,113
			c-0.1,0.2-0.3,0.3-0.5,0.3v-0.4c0.1,0,0.2,0,0.2-0.1s-0.1-0.2-0.2-0.3c0,0.2,0,0.3-0.1,0.4c-0.1,0.2-0.4,0.3-0.6,0.2
			c-0.2-0.1-0.3-0.5-0.1-0.8c0.2-0.5,0.6-0.5,1-0.3C217.7,112.2,217.8,112.6,217.6,113z M218.3,111.4c-0.2,0.4-0.5,0.6-1,0.4
			c-0.4-0.1-0.6-0.5-0.5-0.9c0.2-0.4,0.5-0.6,1-0.4S218.4,111.1,218.3,111.4z M217.9,110.4c-0.5-0.1-0.8-0.5-0.7-0.9
			c0-0.2,0.2-0.4,0.4-0.5l0.1,0.4c-0.1,0-0.2,0.1-0.2,0.2c-0.1,0.2,0.1,0.3,0.2,0.3c0,0,0-0.2,0-0.3c0.1-0.3,0.3-0.5,0.6-0.4
			c0.3,0,0.5,0.4,0.4,0.7C218.7,110.2,218.3,110.5,217.9,110.4z"/>
		<path class="st0" d="M208.6,96.1c-6.6,0-11.9,5.3-11.9,11.9c0,6.6,5.3,11.9,11.9,11.9c6.6,0,11.9-5.3,11.9-11.9
			C220.4,101.4,215.1,96.1,208.6,96.1z M208.6,119.2c-6.2,0-11.2-5-11.2-11.2s5-11.2,11.2-11.2c6.2,0,11.2,5,11.2,11.2
			S214.8,119.2,208.6,119.2z"/>
		<path class="st0" d="M217.6,111c-0.1,0-0.3-0.1-0.4,0.1c0,0.1,0.1,0.2,0.3,0.3c0.1,0,0.3,0.1,0.4-0.1
			C218,111.2,217.8,111.1,217.6,111z"/>
		<path class="st0" d="M211.9,117.1l0.1,0.2l0.6-0.2l0.2-0.2c0.1,0,0.2,0,0.3,0c0.1-0.1,0.1-0.1,0.1-0.2c-0.1-0.1-0.2-0.1-0.4,0
			c-0.1,0.1-0.3,0-0.4-0.1l0.1,0.3L211.9,117.1z"/>
		<polygon class="st0" points="214.4,100.4 214.1,100.5 214.3,100.7 		"/>
		<path class="st0" d="M216.7,112.3c-0.1,0-0.2,0-0.2,0.1c0,0,0,0.2,0.1,0.2c0.1,0,0.2,0,0.3-0.1C217,112.4,216.9,112.3,216.7,112.3
			z"/>
		<path class="st0" d="M211.8,116.8l0.6-0.2c0,0-0.1-0.1-0.1-0.1c0,0,0-0.1,0-0.1l-0.6,0.2L211.8,116.8z"/>
		<path class="st0" d="M214,115.4l-0.1,0.1l0.5,0.5c0.2-0.1,0.1-0.3,0-0.5C214.3,115.4,214.2,115.3,214,115.4z"/>
	</g>
</g>
</svg>
