<?xml version="1.0" encoding="utf-8"?>
<!-- Generator: Adobe Illustrator 22.0.1, SVG Export Plug-In . SVG Version: 6.00 Build 0)  -->
<svg version="1.1" id="Layer_1" xmlns="http://www.w3.org/2000/svg" xmlns:xlink="http://www.w3.org/1999/xlink" x="0px" y="0px"
	 viewBox="0 0 240.7 216" style="enable-background:new 0 0 240.7 216;" xml:space="preserve">
<style type="text/css">
	.st0{fill:#FFFFFF;}
</style>
<g id="XMLID_983_">
	<path id="XMLID_981_" class="st0" d="M114,96.7c3.1-0.4,6.1-0.9,9.2-1.2c0,1.1,0,2.2,0,3.3c-3.1,0.5-6.1,0.8-9.2,1.3
		C114,98.9,114,97.8,114,96.7z"/>
	<path id="XMLID_980_" class="st0" d="M34.1,104c3.1-1.4,6.8-1.9,10-0.7c2.8,1.1,4.4,4.1,4.6,7c0.2,3.2,0,6.4,0.1,9.6
		c-1.7,0.2-3.4,0.2-5.2,0.1c-0.1-3.1,0-6.1,0-9.2c-0.2-1.3-0.5-3-1.9-3.6c-1.4-0.8-3-0.3-4.4,0c-0.1,4.3,0,8.6-0.1,12.8
		c-1.7,0.2-3.4,0.2-5.1,0c0-2.9,0-5.8,0-8.7c-0.1-1.5-0.3-3.3-1.8-4.1c-1.4-0.8-3-0.4-4.5-0.1c-0.1,4.3,0,8.6,0,12.9
		c-1.7,0.2-3.5,0.2-5.2,0c0-5.5,0-11,0-16.5C25,102.8,30,101.8,34.1,104z"/>
	<path id="XMLID_979_" class="st0" d="M52,102.9c1.7-0.1,3.5-0.2,5.2,0c-0.1,3.3,0,6.6,0,9.9c0,0.9,0.4,1.8,0.7,2.6
		c1.4,0.6,3,0.7,4.5,0.4c0-4.3,0-8.6,0-12.9c1.7-0.1,3.4-0.1,5,0c0,5.5,0,10.9,0,16.4c-3.6,1.1-7.5,1.4-11.2,0.5
		c-2.5-0.6-4.1-3.1-4.2-5.6C51.9,110.5,52.1,106.7,52,102.9z"/>
	<path id="XMLID_978_" class="st0" d="M72.2,102.9c1.7-0.1,3.4-0.2,5,0c0,4.3,0,8.6,0,12.9c2.2,0,4.4,0,6.6,0c0.1,1.4,0.1,2.7,0,4.1
		c-3.9,0-7.8,0-11.7,0C72.2,114.3,72.1,108.6,72.2,102.9z"/>
	<path id="XMLID_977_" class="st0" d="M83.5,103.1c4.8-0.1,9.7,0,14.5,0c0.1,1.4,0.1,2.7,0,4.1c-1.6,0-3.2,0-4.7,0
		c0,4.3,0,8.6,0,12.8c-1.7,0.2-3.4,0.2-5,0c-0.1-4.3,0-8.6,0-12.8c-1.6,0-3.2,0-4.8,0C83.4,105.8,83.4,104.4,83.5,103.1z"/>
	<path id="XMLID_976_" class="st0" d="M101.7,103c1.7-0.2,3.4-0.2,5-0.1c0,5.7,0,11.4,0,17.1c-1.7,0.2-3.3,0.2-5,0
		C101.7,114.3,101.7,108.7,101.7,103z"/>
	<path id="XMLID_973_" class="st0" d="M146.2,103.1c4.9,0,9.7,0,14.6,0c0.1,1.4,0.1,2.8,0,4.1c-1.6,0-3.2,0-4.7,0
		c0,4.3,0,8.6,0,12.9c-1.7,0.2-3.4,0.1-5.1,0c0-4.3,0-8.6,0-12.8c-1.6,0-3.1,0-4.7,0C146,105.8,146,104.5,146.2,103.1z"/>
	<path id="XMLID_972_" class="st0" d="M164.2,103c1.7-0.2,3.5-0.2,5.2,0c0,5.7,0,11.4,0,17c-1.7,0.2-3.4,0.2-5.1,0
		C164.2,114.3,164.2,108.6,164.2,103z"/>
	<path id="XMLID_971_" class="st0" d="M175.7,104.4c3.1-2.3,7.4-2.1,10.8-0.8c-0.1,1.3-0.5,2.6-0.9,3.8c-2.2-0.4-5.2-1.1-6.8,1
		c-1.2,1.9-1.2,4.5,0.1,6.3c1.6,2,4.6,1.4,6.7,0.8c0.6,1.3,0.9,2.7,1,4.1c-2.5,0.9-5.1,1-7.7,0.6c-3-0.5-5.4-3-5.9-6
		C172.4,110.8,172.9,106.7,175.7,104.4z"/>
	<path id="XMLID_969_" class="st0" d="M209.7,103.7c3.1-1.7,6.9-1,10.1-0.1c-0.3,1.3-0.7,2.6-1.2,3.9c-2-0.6-4.1-1.3-6.1-0.6
		c-0.1,0.3-0.3,1-0.4,1.4c2.1,1.3,4.7,1.1,6.6,2.6c1.5,1.2,1.7,3.5,1.2,5.3c-0.7,2.4-3.1,3.7-5.4,4c-2.7,0.3-5.4,0.1-8-0.7
		c0.3-1.4,0.6-2.8,1.1-4.1c2.1,0.6,4.5,1.4,6.7,0.5c0.9-0.2,0.9-1.8,0-1.9c-2.1-0.9-4.7-0.9-6.2-2.7C206.1,109,207,105,209.7,103.7z
		"/>
	<path id="XMLID_255_" class="st0" d="M141,103.4c-3.4-1.1-7.1-0.6-10.6-0.3c0,5.7,0,11.3,0,17c1.7,0.2,3.4,0.2,5,0
		c0-1.4,0-2.8,0-4.2c2.7,0.2,5.9,0,7.8-2.2C145.8,110.5,145.1,104.7,141,103.4z M138.5,111.7c-0.9,0.6-2,0.5-3,0.5
		c0-1.9,0-3.9,0-5.8c1.2,0,2.6,0,3.5,1C140.1,108.6,140,110.8,138.5,111.7z"/>
	<path id="XMLID_236_" class="st0" d="M126.9,109.9c-0.2-2.3-1.3-4.7-3.4-6c-2.3-1.5-5.2-1.5-7.8-1c-2.8,0.6-4.9,3.1-5.4,5.8
		c-0.7,3.2-0.4,7.1,2.1,9.5c2.1,2,5.2,2.2,7.9,1.9c1.9-0.3,3.9-1.2,5-2.9C127,115.2,127.1,112.5,126.9,109.9z M121.7,113.2
		c-0.3,1.1-0.7,2.4-1.8,2.9c-1.4,0.6-3.2,0.2-3.9-1.2c-0.8-1.6-0.9-3.6-0.5-5.4c0.2-1,0.8-2.1,1.9-2.5c1.2-0.5,2.8-0.2,3.6,1
		C121.9,109.6,121.9,111.5,121.7,113.2z"/>
	<path id="XMLID_239_" class="st0" d="M203.3,108.6c-0.1-2.4-1.6-4.7-4-5.4c-3.1-0.9-6.4-0.4-9.4,0.5c0.2,1.2,0.4,2.4,0.8,3.6
		c2.2-0.4,4.5-1.1,6.6-0.2c1,0.4,1.2,1.4,1.4,2.3c-2.7,0-5.6-0.3-7.9,1.3c-3.2,2.1-2.4,7.9,1.3,9.1c3.6,1.2,7.6,0.6,11.2-0.3
		C203.3,115.7,203.4,112.1,203.3,108.6z M194,116.1c-1-0.8-1-2.6,0.1-3.2c1.3-0.9,3-0.6,4.5-0.7c0,1.4,0,2.9,0,4.3
		C197.1,116.8,195.3,117,194,116.1z"/>
</g>
</svg>
