<?xml version="1.0" encoding="utf-8"?>
<!-- Generator: Adobe Illustrator 22.0.1, SVG Export Plug-In . SVG Version: 6.00 Build 0)  -->
<svg version="1.1" id="Layer_1" xmlns="http://www.w3.org/2000/svg" xmlns:xlink="http://www.w3.org/1999/xlink" x="0px" y="0px"
	 viewBox="0 0 240.7 216" style="enable-background:new 0 0 240.7 216;" xml:space="preserve">
<style type="text/css">
	.st0{fill:#FFFFFF;}
</style>
<g id="XMLID_2477_">
	<path id="XMLID_933_" class="st0" d="M173.1,109h20.8c0.2-8.3-5-14.3-12.7-14.3c-8.4,0-14.2,5.7-14.2,13.6s5.7,13.9,15.7,13.9
		c4.9,0,8-1.7,10.4-3.2v-4.8c0,0-5.2,2.9-10.2,2.7C178.4,116.7,173.3,114.9,173.1,109 M181.1,99.6c3.7,0,6.8,3.2,6.8,5.1h-14.5
		C173.4,102.5,176.3,99.6,181.1,99.6"/>
	<path id="XMLID_932_" class="st0" d="M105.3,84.5v-0.2h-9.6v0.2c1.2,0.7,1.5,2.7,1.5,4.7v26.9c-0.1,2.1-0.3,4.2-1.5,4.9v0.2h9.6
		V121c-1.2-0.7-1.5-2.9-1.5-5V89.6C103.8,87.4,104,85.3,105.3,84.5"/>
	<path id="XMLID_928_" class="st0" d="M154.2,101.8c3.7-0.7,8.3-2.9,8.3-8.6c0-5.3-4.4-8.8-13.3-8.8h-3.4h-9.6v0.2
		c1.2,0.7,1.5,2.7,1.5,4.7v26.9c-0.1,2.1-0.3,4.2-1.5,4.9v0.2h9.6l0,0h5.4c8.2,0,14.2-3,14.2-10.5
		C165.3,103.3,157.7,101.8,154.2,101.8 M144.2,89.6c0-0.2,0-0.5,0-0.7c0.9-0.1,1.7-0.1,2.6-0.1c6.9,0,9,1.6,9,5
		c0,4.7-5.1,5.8-10.1,5.8c-0.5,0-0.6,0-1.6-0.1v-9.9H144.2z M149.7,116.5c-2.1,0-3.5-0.1-5.5-0.4v-11.6c0.7-0.1,1.5-0.1,2.2-0.1
		c6.5,0,12,0.7,12,6.4C158.4,114.2,156.3,116.5,149.7,116.5"/>
	<path id="XMLID_927_" class="st0" d="M212.1,95.4v0.2c0.9,0.7,0.4,2.7-0.4,4.7l-5.3,13l-7.2-17.9h-7.9v0.2c1.5,0.7,2.6,2.7,3.5,4.8
		l6.4,15.8c1.7,4,6.6,5.1,6.6,5.1h0.3l10.5-25.9C218.6,95.4,212.1,95.4,212.1,95.4z"/>
	<path id="XMLID_926_" class="st0" d="M132.9,116.1V104c-0.1-1.9-0.3-3.9-1.4-5.4c-1.8-2.6-5.4-3.8-8.5-3.8c-3.5,0-5,0.2-7.6,2.4
		l0,0v-1.8h-8v0.2c1.2,0.7,1.5,2.7,1.5,4.7v15.8c-0.1,2.1-0.3,4.2-1.5,4.9v0.2h9.5V121c-1.2-0.7-1.5-2.9-1.5-5v-11.9
		c0.2-2.7,1.6-5.3,5.2-5.3c4.4,0,5.8,2.3,5.8,7.7v9.5c-0.1,2.1-0.3,4.2-1.5,4.9v0.2h9.6v-0.2C133.2,120.4,132.9,118.2,132.9,116.1"
		/>
	<path id="XMLID_920_" class="st0" d="M79.8,101.8c3.7-0.7,8.3-2.9,8.3-8.6c0-5.3-4.4-8.8-13.3-8.8h-3.4h-9.6v0.2
		c1.2,0.7,1.5,2.7,1.5,4.7v10.5c-3.7,0.1-7.2,0.6-10.3,1.3l-6.8-16.7H38v0.2c0.9,0.7,0.4,2.7-0.4,4.7l-10.9,26.9
		c-0.9,2.1-2.1,4.2-3.5,4.9v0.2h7.9c0.1-0.2,2.4-4.1,7.7-8.2c2.7-2,6.1-4,10.4-5.6l3.5,8.6c0.8,2.1,1.4,4.2,0.4,4.9v0.2h8.1
		L55,105.9c2.5-0.5,5.3-0.9,8.3-1v11.2c-0.1,2.1-0.3,4.2-1.5,4.9v0.2h9.6l0,0h5.4c8.2,0,14.2-3,14.2-10.5
		C91,103.3,83.4,101.8,79.8,101.8 M36.3,108.7L43,92l4.4,10.8C42.9,104.4,39.2,106.5,36.3,108.7 M69.9,89.6c0-0.2,0-0.5,0-0.7
		c0.9-0.1,1.7-0.1,2.6-0.1c6.9,0,9,1.6,9,5c0,4.7-5.1,5.8-10.1,5.8c-0.5,0-0.6,0-1.6-0.1L69.9,89.6L69.9,89.6z M75.4,116.5
		c-2.1,0-3.5-0.1-5.5-0.4v-11.6c0.7-0.1,1.5-0.1,2.2-0.1c6.5,0,12,0.7,12,6.4C84.1,114.2,82,116.5,75.4,116.5"/>
</g>
</svg>
