<?xml version="1.0" encoding="utf-8"?>
<!-- Generator: Adobe Illustrator 22.0.1, SVG Export Plug-In . SVG Version: 6.00 Build 0)  -->
<svg version="1.1" id="Layer_1" xmlns="http://www.w3.org/2000/svg" xmlns:xlink="http://www.w3.org/1999/xlink" x="0px" y="0px"
	 viewBox="0 0 240.7 216" style="enable-background:new 0 0 240.7 216;" xml:space="preserve">
<style type="text/css">
	.st0{fill:#FFFFFF;}
</style>
<g id="XMLID_496_">
	<path id="XMLID_994_" class="st0" d="M182.4,64.2c-14.8-6.9-34.7-12.3-61.6-12.3s-46.9,5.5-61.6,12.3c-16.6,7.7-21,12.2-21,33.3
		c-0.2,27.4,8.5,33.5,26.1,44.6c17.7,11.2,41.3,15.7,56.5,15.7s38.9-4.5,56.5-15.7c17.6-11.1,26.3-17.2,26.1-44.6
		C203.3,76.4,199,71.9,182.4,64.2z M194.5,102.5c0,7.2-2.5,13-11.4,18.5c-11.8,7.2-23.1,10.8-33.3,12.1c0,11.5-11.1,20.5-29.2,20.5
		s-29.2-9-29.2-20.5c-10.2-1.3-21.5-4.9-33.3-12.1c-8.9-5.5-11.4-11.2-11.4-18.5v-9c0-8.9,5.6-11.6,11.4-13.6
		c12-4.2,34-6.5,62.4-6.9c28.4,0.4,50.4,2.7,62.4,6.9c5.8,2,11.4,4.7,11.4,13.6v9H194.5z"/>
	<path id="XMLID_991_" class="st0" d="M120.7,116.6c15,0,27.2,7.9,27.2,17.5c0,9.7-12.2,17.5-27.2,17.5s-27.2-7.9-27.2-17.5
		C93.5,124.4,105.7,116.6,120.7,116.6L120.7,116.6z M113.4,125.2c0.1,1.7-0.4,2.8-1.3,3.5c-0.5,0.4-0.5,0.8,0,1.2
		c0.9,0.6,1,1.9,1.1,3.1c-0.3,1.6,0.4,2.4,1.9,2.5c1.1,0.2,2.3,0.7,2,2c-0.6,3.4-5.8,3.3-8.3,6.1c-0.9,0.9-1.3,2.8,0.3,2.8H133
		c1.7,0,1.1-2.1,0.2-3c-2.6-2.8-8.4-4.6-9.1-7.4c-0.2-1.2,0.1-2,1.4-1.8c1.2,0.3,2.1,0,2.7-1.2c3.2-1,3.4-2.7,2.2-4.8
		c0-1.6-0.6-2.8-1.6-3.8c-0.5-1.9-1.6-2.8-3.2-3.2c-1.1-1.4-2.3-2-3.8-2c-2.2-0.4-4.3-0.6-5.6,0c-0.9,0.8-1.7,1.6-2.6,2.5
		C113.5,122.7,113.5,124.1,113.4,125.2L113.4,125.2z"/>
	<path id="XMLID_941_" class="st0" d="M143.1,111.6V86.5h4.8v13.1l6.2-7.5h5.6l-6.7,7.7l7.5,11.8h-5.3l-5.4-8.6l-1.8,2v6.7
		L143.1,111.6L143.1,111.6z M138.4,106.5c0,1.9,0.3,2.3,2.8,2.1v3.3h-3.4c-3.4,0-4.3-1.6-4.3-4.5V95.5h-2.4V92h2.4v-3.8h4.9V92h3
		v3.6h-3V106.5L138.4,106.5z M118.4,99.6h6.7c0-2,0.1-5-3.2-5C118.6,94.6,118.4,97.7,118.4,99.6L118.4,99.6z M125.2,105.6h4.6
		c0,4.5-3.5,6.9-8.4,6.9c-6.2,0-8.2-5.1-8.2-10.9c0-5.9,2.7-10.3,8.5-10.3c7.3,0,8.6,6,8.6,11.6h-11.9c-0.2,1.8-0.2,6.2,3.5,6.2
		C125.1,109,125.2,107.3,125.2,105.6L125.2,105.6z M164.4,99.6h6.7c0-2,0.1-5-3.2-5C164.6,94.6,164.4,97.7,164.4,99.6L164.4,99.6z
		 M171.2,105.6h4.6c0,4.5-3.5,6.9-8.4,6.9c-6.2,0-8.2-5.1-8.2-10.9c0-5.9,2.7-10.3,8.5-10.3c7.3,0,8.6,6,8.6,11.6h-11.9
		c-0.2,1.8-0.2,6.2,3.5,6.2C171.1,109,171.2,107.3,171.2,105.6L171.2,105.6z M97.3,99.1c0,3-0.4,9.6,4.2,9.6c4.7,0,4.2-6.6,4.2-9.6
		s0-9.5-4.2-9.5C97.5,89.6,97.3,96.1,97.3,99.1L97.3,99.1z M91.7,99.1c0-6.7,1.8-13.2,9.7-13.2c8,0,9.9,6.7,9.9,13.2
		c0,7.2-1.3,13.2-10.4,13.2C93.2,112.2,91.7,106,91.7,99.1L91.7,99.1z M83.4,111.6v-4h4.4v4H83.4L83.4,111.6z M76.5,111.6V92.1h4.2
		v3.1c1.3-2.4,3.7-3.6,6.4-3.6v4.6c-2.3-0.3-5.6,1.1-5.6,3.7v11.8L76.5,111.6L76.5,111.6z M178.8,111.6V92.1h4.2v3.1
		c1.3-2.4,3.7-3.6,6.4-3.6v4.6c-2.3-0.3-5.6,1.1-5.6,3.7v11.8L178.8,111.6L178.8,111.6z M55.3,111.6V86.5h8.8c5.6,0,8.6,2.7,9.2,7.4
		c0.1,1,0.2,2.2,0.2,3.6c0,3.6,0.1,6.2-0.4,7.6c-1.9,6-5.1,6.5-10.7,6.5H55.3L55.3,111.6z M60.8,107.9h1.9c1.2,0,2.5-0.1,3-0.2
		s0.9-0.4,1.1-0.8c0.5-0.6,0.8-1.6,1-2.7c0.2-1.2,0.3-3,0.3-5.4c0-2.5-0.1-4.3-0.4-5.4c-0.2-1.1-0.7-1.9-1.3-2.5
		c-0.3-0.3-0.7-0.5-1.2-0.6s-1.8-0.2-2.8-0.2h-1.8v17.8H60.8z"/>
</g>
</svg>
