<?xml version="1.0" encoding="utf-8"?>
<!-- Generator: Adobe Illustrator 22.0.1, SVG Export Plug-In . SVG Version: 6.00 Build 0)  -->
<svg version="1.1" id="Layer_1" xmlns="http://www.w3.org/2000/svg" xmlns:xlink="http://www.w3.org/1999/xlink" x="0px" y="0px"
	 viewBox="0 0 240.7 216" style="enable-background:new 0 0 240.7 216;" xml:space="preserve">
<style type="text/css">
	.st0{fill:#FFFFFF;}
</style>
<g id="XMLID_425_">
	<path id="XMLID_1065_" class="st0" d="M138.2,112.8c0.3-0.5,0.6-1,1.3-1c0.4,0,0.8,0.1,1,0.3l0,0c0,0,0,0,0.1,0
		c0.1,0.1,0.2,0.2,0.3,0.3c0.2,0.3,0.5,1,0.5,2.1c0,0-2.7,0-3.6,0C137.8,113.9,138,113.3,138.2,112.8 M143.8,118.8l-0.1-0.1l0,0
		l-2.3-0.4l-0.1,0.1c-0.1,0.4-0.6,2.1-1.8,2c-0.8-0.1-1.2-0.9-1.5-1.7v-0.1c0,0-0.2-0.8-0.3-1.8c0.4,0,5.7-0.4,5.7-0.4
		s0.8-2.2,0-4.4c-0.2-0.6-0.4-1-0.7-1.2c-0.7-1-1.9-1.6-3.7-1.4c-3,0.3-3.8,3.1-3.8,4.2l0,0c0,0-0.7,3.3,0.3,6.2
		c0.1,0.5,0.3,1,0.6,1.4c0,0.1,0.1,0.1,0.1,0.2c0.7,0.9,1.8,1.5,3.5,1.4C142.8,122.7,143.8,119.8,143.8,118.8L143.8,118.8z
		 M132.3,113.5c-0.8-2.2-1.9-0.5-2.2-0.1l0.2,8.7l-0.1,0.1l0,0h-2.7l0,0l-0.1-0.1v-11.9l0,0l0.1-0.1l0,0l2.4-0.4l0,0l0.1,0.1l0,0
		v0.6c4.2-2,4.7,2,4.7,2.6l-0.1,0.1L132.3,113.5L132.3,113.5z M92.7,112.6h-1.9l0,0v-5.8c1,0,1.8,0,1.9,0c0.5,0,2,0.6,2,2.8
		C94.7,111.9,93.2,112.6,92.7,112.6 M94,104.5c-0.8,0-6.3,0-7.2,0l-0.1,0.1l0,0l0.3,2l0.1,0.1l0.5,0.1v15.5l0.1,0.1h2.9l0.1-0.1v-7
		h0.9l2.5,7.1l0.1,0.1h3.1l0,0v-0.1l-2.7-7.2c1.2-0.4,3-2,3-5.3C97.6,105.6,94.8,104.5,94,104.5 M117.6,119.5
		c-0.2,3.4-4.5,3.5-4.9,3.4s-3.8,0.4-4.1-4.3l0.1-0.1l0,0l2.2,0.2l0.1,0.1c0.1,0.4,0.5,2.2,2.1,2c1.9-0.2,2.1-1.1,1.5-2
		c-0.6-1-5.2-2.5-5.5-4.6s0.5-5,4-5c3.3,0,4,3.6,4.2,4.1l0,0l-0.1,0.1c-0.4,0.1-1.9,0.4-2.3,0.4l-0.1-0.1l0,0c0-0.4-0.3-2.5-1.9-2.1
		s-1.6,1.9-0.3,2.5C113.5,114.5,117.8,116.1,117.6,119.5 M170.6,118.7c0,0.1-0.1,0.2-0.1,0.4c-0.1,0.3-0.3,0.5-0.5,0.7
		c-0.3,0.3-0.6,0.5-1,0.4c-0.8-0.1-1.2-0.9-1.5-1.7v-0.1c0,0-0.9-3.6,0.1-5.8c0.3-0.5,0.6-1,1.3-1c0.5,0,0.8,0.2,1.1,0.4
		c0.1,0.1,0.6,0.5,0.7,1.5c0.1,0.5,0.2,1.1,0.2,1.9C171,117,170.9,118,170.6,118.7 M171.2,109.7c-0.5-0.4-1.1-0.5-1.7-0.5
		c-0.3,0-0.6,0-0.9,0c-3,0.3-3.8,3.1-3.8,4.2l0,0c0,0-0.7,3.3,0.3,6.2c0.1,0.5,0.3,1,0.6,1.4c0,0.1,0.1,0.1,0.1,0.2
		c0.7,0.9,1.8,1.5,3.5,1.4c1,0,1.8-0.4,2.4-0.9l0,0c0,0,0.8-0.4,1.4-2.1c0.1-0.3,0.2-0.5,0.2-0.7c0.2-0.8,0.3-1.8,0.3-3.1
		c0-1.3-0.2-2.3-0.4-3.2C172.9,111.4,172.3,110.3,171.2,109.7"/>
	<path id="XMLID_1062_" class="st0" d="M104.7,120.1c-0.8,0-2.3,0-2.8-0.4c-0.7-0.6-1.3-2.1-0.8-2.7c0.4-0.5,3-0.7,3.6-0.8
		C104.7,116.2,104.7,120.1,104.7,120.1z M102.8,109.3c-3,0.1-4,3-4.1,4l0.1,0.1l2.3,0.4l0.1-0.1c0.1-0.4,0.6-2.2,1.8-2.1
		c1.6,0.1,1.7,1.8,1.7,1.8v0.3c-1.2,0-6.6,0.4-6.6,4.4c0,4.5,3.6,4,4.6,4c0.6,0,1.3,0,1.9,0l0,0h0.8c0.1,0,0.1,0,0.1,0h1.5l0.1-0.1
		v-8.4C107.2,111.6,106,109.1,102.8,109.3"/>
	<path id="XMLID_1059_" class="st0" d="M151.8,120.1c-0.8,0-2.3,0-2.8-0.4c-0.7-0.6-1.3-2.1-0.8-2.7c0.4-0.5,3-0.7,3.6-0.8V120.1z
		 M149.8,109.3c-3,0.1-4,3-4.1,4l0.1,0.1l2.3,0.4l0.1-0.1c0.1-0.4,0.6-2.2,1.8-2.1c1.6,0.1,1.7,1.8,1.7,1.8v0.3
		c-1.1,0-6.6,0.4-6.6,4.4c0,4.5,3.6,4,4.6,4c0.6,0,1.3,0,1.9,0l0,0h0.8c0.1,0,0.1,0,0.1,0h1.5l0.1-0.1v-8.4
		C154.2,111.6,153,109.1,149.8,109.3"/>
	<path id="XMLID_1058_" class="st0" d="M126,122.3c-0.5,0.3-1.1,0.5-1.8,0.5c-3.2,0.2-4.4-2.3-4.4-4.4V112h-1.6l0,0l-0.1-0.1v-2.5
		l0,0l0.1-0.1h1.6v-4.7l0.1-0.1c0.8,0.2,1.9,0.4,2.6,0.6l0,0l0.1,0.1l-0.1,4h3l0.1,0.1v2.3l-0.1,0.1l0,0l-3,0.1l-0.1,6.6
		c0,0,0.1,1.7,1.7,1.9c0.4,0,0.9-0.1,1.2-0.3h0.1L126,122.3L126,122.3z"/>
	<path id="XMLID_1057_" class="st0" d="M163.4,122.3c-0.5,0.3-1.1,0.5-1.8,0.5c-3.2,0.2-4.4-2.3-4.4-4.4V112h-1.6l0,0l-0.1-0.1v-2.5
		l0,0l0.1-0.1h1.6v-4.7l0.1-0.1c0.8,0.2,1.9,0.4,2.6,0.6l0,0l0.1,0.1l-0.1,4h3l0.1,0.1v2.3l-0.1,0.1l0,0l-3,0.1l-0.1,6.6
		c0,0,0,1.7,1.7,1.9c0.4,0,0.9-0.1,1.2-0.3h0.1L163.4,122.3L163.4,122.3z"/>
	<path id="XMLID_1056_" class="st0" d="M180.4,113.5c-0.8-2.2-1.9-0.5-2.2-0.1l0.2,8.7l-0.1,0.1l0,0h-2.7l0,0l-0.1-0.1v-11.9l0,0
		l0.1-0.1l0,0l2.4-0.4l0,0l0.1,0.1l0,0v0.6c4.2-2,4.7,2,4.7,2.6l-0.1,0.1L180.4,113.5L180.4,113.5z"/>
	<path id="XMLID_1050_" class="st0" d="M187,119.3l-0.5,3l-0.1,0.1l-2.3-0.1l-0.1-0.1l0,0v-2.6l0,0l0.1-0.1L187,119.3L187,119.3
		L187,119.3z M197,118.8c-0.1,1-1,3.9-4.1,4c-1.7,0.1-2.8-0.5-3.5-1.4c0,0-0.1-0.1-0.1-0.2c-0.3-0.4-0.5-0.9-0.6-1.4
		c-0.9-2.9-0.3-6.2-0.3-6.2l0,0c0.1-1.1,0.9-3.9,3.8-4.2c3.1-0.4,4.5,1.9,4.6,4l0,0l-0.1,0.1h-2.3l-0.1-0.1
		c-0.1-0.4-0.4-1.6-1.8-1.6c-0.6,0-1,0.5-1.3,1c-1,2.3-0.1,5.8-0.1,5.8v0.1c0.2,0.8,0.7,1.6,1.5,1.7c1.2,0.1,1.7-1.6,1.8-2l0.1-0.1
		l0,0l2.3,0.4L197,118.8z M204.6,118.7c0,0.1-0.1,0.2-0.2,0.4c-0.1,0.3-0.3,0.5-0.5,0.7c-0.3,0.3-0.6,0.5-1,0.4
		c-0.8-0.1-1.2-0.9-1.5-1.7v-0.1c0,0-0.9-3.6,0.1-5.8c0.2-0.5,0.6-1,1.3-1c0.5,0,0.8,0.2,1.1,0.4c0.1,0.1,0.6,0.5,0.8,1.5
		c0.1,0.5,0.2,1.1,0.2,1.9C204.9,117,204.8,118,204.6,118.7 M207.1,112.6c-0.2-1.2-0.8-2.3-1.9-2.9c-0.5-0.4-1.1-0.5-1.7-0.5
		c-0.3,0-0.6,0-0.9,0c-3,0.3-3.8,3.1-3.8,4.2l0,0c0,0-0.7,3.3,0.3,6.2c0.1,0.5,0.3,1,0.6,1.4c0,0.1,0.1,0.1,0.1,0.2
		c0.7,0.9,1.8,1.5,3.5,1.4c1,0,1.8-0.4,2.4-0.9l0,0c0,0,0.8-0.4,1.4-2.1c0.1-0.3,0.2-0.5,0.2-0.7c0.2-0.8,0.3-1.8,0.3-3.1
		C207.5,114.6,207.3,113.5,207.1,112.6 M224,113.8c0,2.2-0.2,7.5-0.2,8.2l-0.1,0.1l-2.4,0.1l-0.1-0.1c0-0.9,0.4-8.5,0-9.5
		s-2.3-0.5-3.2,0.5c0,0.3,0,0.5,0,0.8c0,2.2-0.2,7.5-0.2,8.2l-0.1,0.1l-2.4,0.1l-0.1-0.1c0-0.9,0.4-8.5,0-9.5s-2.6-0.5-3.4,0.6
		l0.2,9l-0.1,0.1l0,0h-2.7l0,0l-0.1-0.1v-11.9l0.1-0.1l0,0l2.4-0.4l0.1,0.1l0,0v0.7c0.4-0.2,2.2-1.3,3.5-1.2
		c0.7,0.1,1.4,0.6,1.9,1.4c0.3-0.2,2.6-1.5,4-1.4C222.8,109.6,224,111.4,224,113.8"/>
	<g>
		<path class="st0" d="M25.9,122.1c-0.1-0.1-0.3-0.2-0.5-0.2c-0.1,0-0.1,0-0.2-0.1c0.4,0.2,0.8,0.4,1.1,0.7
			C26.1,122.4,26,122.2,25.9,122.1z"/>
		<path class="st0" d="M63,99.9C63,99.9,63,100,63,99.9c0,0.2,0,0.2,0,0.2c0,0,0,0-0.1,0c0,0,0,0,0,0.1C63,100.1,63,100,63,99.9
			C63,99.9,63,99.9,63,99.9z"/>
		<path class="st0" d="M62.4,121.8c-0.2-0.1-0.4-0.1-0.7-0.1c-0.2,0-0.4,0-0.6-0.1c0.4,0.2,1,0.2,1.5,0.3
			C62.4,121.9,62.4,121.8,62.4,121.8z"/>
		<path class="st0" d="M40.4,103.3C40.4,103.2,40.4,103.2,40.4,103.3C40.4,103.2,40.4,103.2,40.4,103.3c-0.6-0.2-1.1-0.4-1.6-0.5
			c-0.2,0-0.3-0.1-0.5-0.1c0.6,0.2,1.2,0.3,1.8,0.5C40.2,103.2,40.3,103.2,40.4,103.3z"/>
		<path class="st0" d="M77.2,102.3c0.1,0,0.3,0,0.4,0c0.1,0,0.1,0,0.2,0C77.5,102.3,77.3,102.3,77.2,102.3z"/>
		<path class="st0" d="M68.5,92.3c-0.1,0.1-0.2,0.2-0.3,0.3c0.3-0.2,0.6-0.4,0.9-0.5C68.9,92.1,68.7,92.2,68.5,92.3z"/>
		<path class="st0" d="M37.5,102.5C37.5,102.5,37.5,102.5,37.5,102.5C37.5,102.5,37.5,102.5,37.5,102.5
			C37.5,102.5,37.5,102.5,37.5,102.5z"/>
		<path class="st0" d="M63.8,120.2c0.1,0,0.1,0,0.2,0C63.9,120.2,63.8,120.2,63.8,120.2z"/>
		<path class="st0" d="M62.3,101c0.1,0,0.1-0.1,0.2-0.1c0.2-0.1,0.3-0.4,0.4-0.6c0,0,0,0,0,0C62.7,100.5,62.5,100.7,62.3,101
			C62.2,101,62.2,101,62.3,101z"/>
		<path class="st0" d="M37.9,116c0,0.2-0.1,0.4-0.2,0.6c-0.1,0.1-0.1,0.2-0.2,0.3c0,0,0,0,0,0c0.3-0.4,0.5-0.7,0.6-1.1
			c0,0-0.1,0-0.1,0C37.9,115.9,37.9,116,37.9,116z"/>
		<path class="st0" d="M26.4,124.3C26.5,124.3,26.5,124.3,26.4,124.3C26.5,124.3,26.5,124.3,26.4,124.3
			C26.4,124.3,26.4,124.3,26.4,124.3z"/>
		<path class="st0" d="M62.9,117.8c0,0.1,0,0.2-0.1,0.3C62.8,118,62.9,117.9,62.9,117.8C62.9,117.8,62.9,117.8,62.9,117.8
			C62.8,117.8,62.9,117.8,62.9,117.8z"/>
		<path class="st0" d="M63.3,122.2C63.3,122.2,63.3,122.2,63.3,122.2c0.2,0,0.4,0,0.5,0C63.6,122.2,63.5,122.2,63.3,122.2
			C63.3,122.2,63.3,122.2,63.3,122.2z"/>
		<path class="st0" d="M17.4,91.6c-0.1,0.1-0.2,0.2-0.2,0.2c0.2,0.7,1.1,1.9,1.6,2.6c0.1,0.1,0.2,0.2,0.2,0.3
			c0.2,0.3,0.4,0.5,0.6,0.8c0.2-0.2,0.5-0.4,0.8-0.5c-0.9-1.1-1.9-2.2-2.8-3.5C17.4,91.5,17.4,91.5,17.4,91.6z"/>
		<path class="st0" d="M26.4,101.9c-0.3-0.2-0.5-0.3-0.7-0.5c-0.1,0-0.2-0.1-0.3-0.2c0.3,0.2,0.6,0.4,0.9,0.7
			c0.3,0.2,0.7,0.5,1.1,0.8l0.1,0.1c0.7,0.5,1.5,1.1,1.8,1.9C28.9,103.4,27.2,102.6,26.4,101.9z"/>
		<path class="st0" d="M21,97.8c-0.3-0.4-0.7-0.9-1.1-1.3c-0.3-0.2-0.5-0.4-0.7-0.7c0,0.1,0.1,0.2,0.2,0.3c0.2,0.3,0.5,0.5,0.7,0.8
			c0.4,0.5,0.8,0.9,1.2,1.4c0.6,0.6,1.1,1.2,1.7,1.7c0.9,0.8,1.9,1.6,3,2.2c0,0,0.1,0,0.1,0c-0.1,0-0.1-0.1-0.2-0.1
			C24.2,100.8,22.4,99.5,21,97.8z"/>
		<path class="st0" d="M19.6,95.8c0.2,0.2,0.3,0.4,0.5,0.6c0,0,0,0,0,0C20,96.2,19.8,96,19.6,95.8C19.6,95.8,19.6,95.8,19.6,95.8z"
			/>
		<path class="st0" d="M20.7,95c-0.1-0.1-0.1-0.2-0.2-0.2v0C20.6,94.9,20.7,94.9,20.7,95z"/>
		<path class="st0" d="M19.4,95.6C19.5,95.6,19.5,95.6,19.4,95.6c-0.2-0.3-0.4-0.6-0.6-0.8c-0.4-0.4-0.7-0.7-1-1.1
			c-0.3-0.4-0.6-0.8-0.8-1.3c-0.1-0.3-0.5-0.9,0-1.1c0.1,0,0.4-0.1,0.5,0c0.1,0.1,0.1,0.2,0.2,0.3c0.1,0.1,0.2,0.2,0.3,0.3
			c0.5,0.6,1,1.2,1.5,1.9c0-0.1,0-0.1,0-0.2c0,0.1,0,0.1,0,0.2c0.3,0.3,0.5,0.7,0.8,1c0,0,0.1,0,0.1,0c-0.9-1-1.8-2.2-2.9-3.5
			c0-0.1-0.1-0.1-0.1-0.1c-0.1,0-0.4,0-0.6,0.2c-0.1,0.1-0.3,0.3-0.3,0.5c0.2,0.8,1.2,2,1.7,2.7c0.1,0.1,0.1,0.2,0.2,0.3
			c0.2,0.3,0.4,0.6,0.7,0.8c0,0,0.1-0.1,0.1-0.1C19.4,95.5,19.4,95.6,19.4,95.6z"/>
		<path class="st0" d="M18.9,94.7c0-0.1-0.1-0.2-0.2-0.3c-0.5-0.7-1.4-1.9-1.6-2.6c0,0,0.1-0.1,0.2-0.2c0-0.1,0.1-0.1,0.2-0.1
			c0.9,1.3,1.9,2.5,2.8,3.5c0,0,0,0,0.1,0c-0.1-0.1-0.1-0.1-0.1-0.1c-0.1-0.1-0.1-0.1-0.1-0.1c0,0,0.1,0,0.1,0
			c-0.3-0.3-0.5-0.7-0.8-1c0,0,0,0.1,0,0.1c0,0-0.1,0-0.1,0s0,0,0.1,0c0,0,0-0.1,0-0.1c-0.5-0.6-1-1.3-1.5-1.9
			c-0.1-0.1-0.2-0.2-0.3-0.3c-0.1-0.1-0.1-0.2-0.2-0.3c-0.1-0.1-0.4,0-0.5,0c-0.5,0.2-0.1,0.8,0,1.1c0.2,0.5,0.5,0.9,0.8,1.3
			C18.2,94.1,18.4,94.4,18.9,94.7c0.1,0.3,0.3,0.6,0.5,0.9c0,0,0.1-0.1,0.1-0.1C19.3,95.2,19.1,95,18.9,94.7z"/>
		<path class="st0" d="M19.5,95.6C19.5,95.6,19.5,95.6,19.5,95.6c0,0.1,0.1,0.2,0.1,0.2c0,0,0,0,0,0C19.6,95.7,19.5,95.7,19.5,95.6z
			"/>
		<path class="st0" d="M19.7,95.6C19.6,95.6,19.6,95.5,19.7,95.6c-0.1-0.1-0.1,0-0.2,0c0.1,0.1,0.1,0.2,0.2,0.2
			C19.7,95.8,19.7,95.7,19.7,95.6z"/>
		<path class="st0" d="M20.4,95c0.1,0.1,0.1,0.1,0.2,0.2c0,0.1,0.1,0.1,0.1,0C20.6,95.2,20.5,95.1,20.4,95C20.4,95,20.4,95,20.4,95z
			"/>
		<path class="st0" d="M19.3,95.8C19.3,95.7,19.2,95.7,19.3,95.8c-0.1-0.1-0.1-0.1-0.1-0.1c0,0-0.1,0.1-0.1,0.1
			C19.2,95.7,19.2,95.8,19.3,95.8C19.3,95.8,19.2,95.8,19.3,95.8C19.3,95.8,19.3,95.8,19.3,95.8z"/>
		<path class="st0" d="M29,104.6c-0.4-1.3-1.8-1.9-2.9-2.4c0.3,0.3,0.7,0.5,0.9,0.7l0.1,0.1c0.7,0.5,1.7,1.2,1.8,2c0,0,0,0,0,0
			c0,0,0.1-0.1,0.1-0.1C29.1,104.8,29.1,104.7,29,104.6z"/>
		<path class="st0" d="M29,104.6c0,0.1,0.1,0.2,0.1,0.3c0.1-0.1,0.1-0.1,0.2-0.2c0,0,0,0,0,0c-0.3-0.8-1.2-1.4-1.8-1.9l-0.1-0.1
			c-0.4-0.3-0.8-0.6-1.1-0.8c-0.3-0.2-0.6-0.4-0.9-0.7c-0.3-0.2-0.6-0.4-0.9-0.6c-0.3-0.2-0.6-0.5-0.9-0.7c-0.4-0.3-0.7-0.7-1.1-1
			c-0.5-0.5-1-1-1.5-1.5c-0.3-0.3-0.5-0.7-0.8-1c0,0,0,0,0,0c-0.2-0.2-0.4-0.4-0.5-0.6c-0.2,0-0.3,0-0.3,0s0,0-0.1,0c0,0,0,0,0,0
			c0,0,0,0,0,0c0.2,0.2,0.4,0.5,0.7,0.7c0.4,0.4,0.8,0.9,1.1,1.3c1.4,1.7,3.2,3,4.9,4.3c0.1,0,0.1,0.1,0.2,0.1
			C27.2,102.7,28.7,103.3,29,104.6z"/>
		<path class="st0" d="M29.3,104.7C29.3,104.7,29.3,104.7,29.3,104.7C29.3,104.7,29.3,104.7,29.3,104.7
			C29.3,104.7,29.3,104.7,29.3,104.7z"/>
		<path class="st0" d="M21.4,97.7c-0.3-0.4-0.8-0.9-1.2-1.3c0.3,0.3,0.5,0.7,0.8,1c0.5,0.5,1,1,1.5,1.5c0.4,0.3,0.7,0.7,1.1,1
			c0.3,0.2,0.6,0.5,0.9,0.7c0.3,0.2,0.6,0.4,0.9,0.6C23.9,100.1,22.5,99,21.4,97.7z"/>
		<path class="st0" d="M19.3,95.8c0,0,0.1-0.1,0.2-0.2c0,0-0.1-0.1-0.1-0.1c-0.1,0.1-0.1,0.1-0.1,0.1C19.2,95.7,19.2,95.7,19.3,95.8
			C19.2,95.7,19.3,95.7,19.3,95.8z"/>
		<path class="st0" d="M19.3,95.8C19.3,95.8,19.4,95.8,19.3,95.8c0.1,0,0.2,0,0.3,0c-0.1-0.1-0.1-0.1-0.2-0.2
			C19.4,95.7,19.3,95.7,19.3,95.8z"/>
		<path class="st0" d="M20.7,95.2C20.7,95.2,20.7,95.2,20.7,95.2c1.9,2.1,4.1,4,6.8,5.2c1.2,0.5,2.5,1.2,3.8,1.5
			c0.4,0.1,0.9,0.2,1.3,0.3c0,0,0,0,0.1,0c-0.8-0.2-1.6-0.4-2.4-0.8c-2.8-1-5.4-2.4-7.4-4.3c-0.6-0.6-1.4-1.4-2.1-2.1
			C20.9,95.1,20.9,95.2,20.7,95.2z"/>
		<path class="st0" d="M20.5,94.7C20.5,94.7,20.5,94.7,20.5,94.7C20.5,94.7,20.5,94.8,20.5,94.7L20.5,94.7z"/>
		<path class="st0" d="M20.9,95.4c0.2,0.2,0.3,0.3,0.5,0.5c1.5,1.6,3.1,2.9,5,4c0.6,0.3,1.2,0.6,1.9,0.9c1.3,0.5,2.5,1.1,3.9,1.3
			c0.1,0,0.3,0.1,0.5,0.1c0,0,0,0,0,0c-0.4-0.1-0.9-0.2-1.3-0.3c-1.3-0.3-2.6-1-3.8-1.5c-2.7-1.2-4.9-3.1-6.8-5.2c0,0,0,0,0,0
			C20.8,95.3,20.8,95.4,20.9,95.4z"/>
		<path class="st0" d="M32.2,102.1c-1.4-0.2-2.6-0.8-3.9-1.3c-0.7-0.3-1.3-0.6-1.9-0.9c-1.9-1.1-3.5-2.4-5-4
			c-0.2-0.2-0.3-0.3-0.5-0.5c0,0-0.1-0.1-0.1-0.2c0,0,0,0,0,0c0.6,0.7,1.4,1.4,2.1,2.1c2,1.9,4.6,3.4,7.5,4.3
			c0.6,0.4,1.2,0.6,1.9,0.8c0.2-0.1,0.3-0.1,0.5-0.2C32.5,102.2,32.3,102.1,32.2,102.1z"/>
		<path class="st0" d="M20.5,95c0.1,0.1,0.1,0.1,0.2,0.2c0,0,0,0,0,0c0.1,0,0.1-0.1,0-0.2c-0.1-0.1-0.1-0.1-0.2-0.2v0c0,0,0,0,0-0.1
			c0,0-0.1,0-0.1,0C20.4,94.8,20.5,94.9,20.5,95z"/>
		<path class="st0" d="M20.4,94.9C20.4,94.9,20.4,94.9,20.4,94.9c0.2,0.1,0.3,0.2,0.4,0.3c0,0,0,0,0,0c-0.1-0.1-0.1-0.1-0.2-0.2
			c-0.1-0.1-0.1-0.2-0.2-0.2c0,0-0.1,0-0.1,0C20.2,94.8,20.2,94.8,20.4,94.9z"/>
		<path class="st0" d="M20.4,95c0.1,0.1,0.2,0.2,0.2,0.2c0,0,0,0,0,0C20.7,95.1,20.6,95,20.4,95z"/>
		<path class="st0" d="M76.6,102.6c0.1-0.1,0.3-0.3,0.6-0.3c0,0,0,0,0,0c0.2,0,0.4,0,0.6,0c0.3-0.1,0.7-0.1,1-0.3
			c0.5-0.3,0.9-0.5,1.2-0.9c0.3-0.4,0.6-0.7,0.8-1.1c0.1-0.1,0.1-0.2,0.1-0.2s0,0,0,0c0.1-0.2,0.2-0.4,0.2-0.6
			c-0.1,0.3-0.3,0.6-0.5,0.8c0.1-0.1-0.4-1.3-0.4-1.4c-0.1-0.4-0.1-0.6,0.2-0.8c0.2-0.1,0.7,0,0.4-0.4c-0.2-0.4-0.5,0.1-0.8,0
			c-0.1-0.1-0.2-0.1-0.2-0.2s0.1-0.1,0.1-0.2l0.1-0.1c0,0,0,0,0,0c-0.2-0.1-0.4-0.1-0.5-0.2c-0.2,0-0.4-0.1-0.5-0.1
			c-0.2-0.1-0.4-0.1-0.6-0.2c0.1,0.2,0.2,0.6,0.3,0.9c0.1,0.6-0.1,1.3-0.4,1.8c-0.5,0.9-1.3,1.3-1.6,2.4c-0.1,0.4-0.2,0.9-0.5,1.2
			c0,0,0,0,0,0c-0.1,0.1-0.1,0.1-0.2,0.2c0,0,0,0,0,0c0,0,0,0,0,0c0,0,0,0-0.1,0.1c0.1,0,0.1,0,0.2,0c0,0,0.1-0.1,0.1-0.1
			C76.4,102.7,76.4,102.7,76.6,102.6z"/>
		<path class="st0" d="M74.9,103.1c0.1,0,0.2,0,0.3,0c0,0,0,0,0,0c0,0,0,0,0,0C75.1,103.1,75,103.1,74.9,103.1z"/>
		<path class="st0" d="M73.9,104.3c0,0,0-0.1,0-0.1C74,104.2,73.9,104.2,73.9,104.3C73.9,104.2,73.9,104.3,73.9,104.3z"/>
		<path class="st0" d="M73.5,105.5c0,0,0,0.1,0,0.1c0.1-0.1,0.2-0.2,0.3-0.3c0,0,0-0.1,0-0.1C73.7,105.3,73.7,105.4,73.5,105.5
			L73.5,105.5z"/>
		<path class="st0" d="M37.9,115.7c0.1,0,0.1,0,0.1,0c0,0,0,0,0-0.1C38,115.7,37.9,115.7,37.9,115.7
			C37.9,115.7,37.9,115.7,37.9,115.7z"/>
		<path class="st0" d="M24.2,124.6c-0.9-0.1-1.7-0.7-2.2-1.6c0.7,1.1,2.1,2,3.5,1.7c-0.2-0.1-0.4-0.1-0.6-0.1
			C24.7,124.7,24.4,124.7,24.2,124.6z"/>
		<path class="st0" d="M59.9,124.3C60,124.3,60,124.3,59.9,124.3C60,124.3,60,124.3,59.9,124.3C59.9,124.3,59.9,124.3,59.9,124.3z"
			/>
		<path class="st0" d="M80.3,96.6C80.3,96.6,80.3,96.6,80.3,96.6C80.3,96.6,80.3,96.6,80.3,96.6C80.3,96.6,80.3,96.6,80.3,96.6z"/>
		<path class="st0" d="M78.4,96.1c0.1,0,0.1,0,0.2,0.1c-0.1-0.1-0.3-0.1-0.4-0.2c0,0-0.1,0-0.1,0c0,0,0,0.1,0.1,0.1
			C78.3,96.1,78.4,96.1,78.4,96.1z"/>
		<path class="st0" d="M57.4,119c-2.8-0.1-5.5-0.9-8.2-1.6c-2.1-0.6-4.3-1.2-6.5-1.4c-0.9-0.1-1.9-0.2-2.8-0.2
			c-0.5,0-0.9-0.1-1.4-0.1c0,0,0,0,0,0.1c0.2,0,0.4,0,0.5,0c5.3,0.2,10.2,2,15.4,2.9c1,0.2,2.1,0.6,3.1,0.5c0-0.1,0-0.1,0-0.2
			C57.4,119,57.4,119,57.4,119z"/>
		<path class="st0" d="M69,108.3C69,108.3,69,108.3,69,108.3c-0.2-0.2-0.3-0.4-0.5-0.6c-0.5-0.7-0.8-1.4-0.9-2.2
			c-0.1-0.8,0.2-1.6,0.5-2.3c0.2-0.5,0.4-1,0.5-1.5c0.1-0.7,0.1-1.4,0.1-2.1c0-0.5,0-1.1,0-1.6c0-0.1,0-0.2,0-0.3
			c-0.4,0.7-0.4,1.5-0.5,2.3c-0.1,0.8-0.3,1.7-0.5,2.5c-0.2,0.7-0.4,1.2-1,1.2c-0.2-0.2-0.5-0.4-0.8-0.6c-0.7-0.5-1.3-0.9-1.6-1.8
			c0-0.2-0.1-0.3-0.1-0.5c0-0.1-0.1-0.2-0.1-0.3c-0.1-0.1-0.1-0.2-0.3-0.3c-0.2-0.1-0.3-0.1-0.5-0.1c-0.2,0-0.3-0.1-0.3-0.2
			c0,0,0,0,0,0c-0.1,0.1-0.1,0.2-0.1,0.3c0,0,0,0.1,0,0.1c-0.1,0.3-0.2,0.5-0.4,0.6c-0.1,0-0.1,0.1-0.2,0.1c0.1,0.1,0.1,0.1,0.2,0.2
			c0.3,0.6-0.3,1.4,0,2c0.3,0.5,0.9,0.8,1.2,1.2c0.6,0.8,0.3,2,1.2,2.8c0.3,0.2,0.5,0.4,0.5,0.6c0.2,0.3,0.5,0.7,0.6,1
			c0.2,0.5,0.5,1,0.4,1.6c-0.1,0.6-0.6,0.9-1.1,1c-1.2,0.3-2.4-0.2-3.6,0.2c-1,0.3-1.6,1.3-2.5,1.8c-0.5,0.3-1.1,0.4-1.6,0.8
			c-0.6,0.4-0.8,1-1.2,1.5c-0.6,0.7-1.5,0.9-2.1,0.2c-0.4-0.3-0.7-0.9-0.9-1.4c-0.3-0.7-0.6-1.4-1-2.1c0-0.1-0.1-0.1-0.1-0.2
			c-0.3-0.4-0.8-0.8-1.3-0.6c-0.5,0.1-0.6,0.6-0.7,1.1c-0.2,0.8-0.2,2.4-1.1,2.7c-0.8,0.3-2.1-0.1-3-0.4c-1.1-0.3-2.3-0.7-2.9-0.9
			c-1.8-0.4-3.7-1.9-4.9-3.3c-0.6-0.7-1.2-1.7-1.1-2.6c0.1-0.8,0.6-1.4,1.5-1.4c0.8,0.1,1.3,1,2.1,0.6c0.5-0.2,0.6-0.9,0.3-1.4
			c-0.1-0.2-0.3-0.4-0.5-0.6c-0.1-0.1-0.3-0.3-0.4-0.4c-0.2-0.2-0.4-0.4-0.4-0.7c0.1-0.5,0.3-0.8,0.6-1.1c-0.1,0-0.2,0-0.3-0.1
			c-0.6-0.2-1.2-0.3-1.8-0.5c-0.3-0.1-0.5-0.1-0.8-0.2c0,0,0,0-0.1,0c0,0,0,0,0,0c0.1,0,0.1,0.1,0.1,0.1c0,0,0-0.1,0,0c0,0,0,0,0,0
			c0,0,0,0,0,0c0.1,0,0.1,0,0.1,0.1c0.1,0.1-0.1,0.3-0.2,0.4c-0.1,0.2-0.2,0.3-0.3,0.5c-0.1,0.2-0.3,0.4-0.4,0.6
			c0,0.1-0.1,0.1-0.1,0.2c-0.1,0.2-0.2,0.4-0.2,0.5c-0.1,0.2-0.1,0.3-0.2,0.5c-0.1,0.4-0.2,0.8-0.2,1.2c0,0.3,0,0.6,0,0.9
			c0.1,1.2,0.2,2.5-0.5,3.6c-0.9,1.4-2.1,2.3-3.7,2.8c-1.3,0.4-2.7,0.7-4.1,0.5c-0.3-0.1-0.7-0.2-1.1-0.4c-0.1,0-0.1-0.1-0.2-0.1
			c-0.2-0.1-0.4-0.3-0.5-0.5c-0.3,0.5-0.7,0.8-1.2,1.1c-0.3,0.1-0.6,0.2-0.9,0.3c-0.5,0.1-0.9,0.2-1.2,0.8c-0.3,0.5-0.3,1.1-0.3,1.7
			c0,0.3,0,0.7,0,1.1c-0.1,0.4-0.2,0.8-0.3,1.2c-0.2,0.9-0.5,1.7-0.1,2.6c0.3,1,1.2,2.1,2.5,2.3c0.4,0.1,0.9,0.1,1.4,0
			c0.2,0,0.4-0.1,0.6-0.3c0,0,0,0,0,0c0,0,0-0.1,0.1-0.1h-0.1c-0.1-0.1-0.1-0.2,0-0.2c0.2-0.2,0.1-0.6,0-1c-0.1-0.2-0.1-0.3-0.2-0.5
			c-0.3-0.3-0.7-0.5-1.1-0.7c-0.2-0.1-0.4-0.2-0.6-0.4c-0.5-0.7-0.3-1.8,0.1-2.5c0.4-0.7,0.9-1.1,1.6-1.2c0.3,0,0.7,0,1,0
			c0.5,0,0.9,0,1.4,0c1-0.1,1.9-0.3,2.7-0.5c0,0,0,0,0-0.1c0.1-0.1,0.1-0.1,0.2,0c0.1,0,0.1-0.1,0.2-0.1c0.1,0,0.1,0,0.2-0.1
			c0.1-0.1,0.3-0.1,0.4-0.2c0.2-0.1,0.3-0.2,0.4-0.3c0.2-0.1,0.3-0.2,0.5-0.4c0.1-0.1,1.1-1.4,1.1-1.4c0,0,0,0,0.1,0
			c0,0,0.1,0,0.1,0c0.1-0.1,0.1-0.2,0.2-0.3c0.6-0.8,1.2-1.6,2-2.1c0.1-0.1,0.2,0,0.2,0c0.1,0.1,0,0.2,0,0.2
			c-0.8,0.5-1.3,1.3-1.9,2.1c0,0.1-0.1,0.1-0.2,0.2c0.3,0.1,0.6,0.2,0.9,0.3c0.1,0,0.3,0.1,0.4,0.1c0.4,0.1,0.8,0.1,1.2,0.1
			c0.2,0,0.5,0.1,0.6,0.1c0,0,0,0,0,0.1c0.6,0.1,1.3,0.1,1.9,0.1c0.9,0.1,1.8,0.1,2.8,0.2c2.2,0.3,4.4,0.9,6.5,1.4
			c2.6,0.7,5.3,1.4,8.1,1.6c0.1,0,0.1,0,0.2,0c0-0.3-0.1-0.5-0.1-0.8c0-0.2-0.1-0.5-0.1-0.8c-0.1-0.5-0.2-1-0.2-1.4
			c0-0.1,0.1-0.2,0.2-0.2c0.1,0,0.2,0.1,0.2,0.2c0,0.4,0.1,0.9,0.2,1.4c0.1,0.3,0.1,0.6,0.1,0.8c0,0.3,0.1,0.6,0.1,0.9
			c0.1,0.9,0.2,1.8,0.2,2.7c0,1,0.2,2.2,1.1,2.4c0.6,0.2,1.2,0.1,1.8,0.1H61c0.2,0,0.4,0,0.5,0c0.2,0,0.4,0,0.6,0
			c0.1-0.2,0.1-0.5-0.1-0.8c-0.2-0.4-0.7-0.7-1-0.7c-0.1,0-0.2-0.1-0.2-0.2c0-0.1,0.1-0.2,0.2-0.2c0.5,0,1,0.4,1.3,0.9
			c0.2,0.3,0.2,0.6,0.2,0.9c0,0,0,0,0,0c0.6-0.2,0.7-0.7,0.6-1.1c-0.1-0.4-0.3-0.7-0.7-0.9c-0.4-0.1-1.1-0.1-1.5-0.3
			c-0.1,0-0.3-0.1-0.5-0.2c-0.7-0.6-0.3-1.6,0-2.4c0.1-0.2,0.1-0.3,0.2-0.4c0.1-0.3,0.2-0.5,0.3-0.8c0.3-0.9,0.7-1.7,0.7-2.6
			c0-0.1,0-0.2,0-0.4c0-0.3,0.1-0.7,0-0.9c0,0,0,0,0,0c0,0-0.1,0-0.1,0c-0.2,0-0.5,0-0.6,0c-1.1,0.1-1.9,0.4-2.4,1
			c-0.1-0.1-0.1,0-0.1,0h-0.1c-0.1-0.1-0.1-0.2,0-0.2c0.6-0.6,1.5-1,2.6-1.1c0.2,0,0.4,0,0.7,0c0.6,0,1.2,0,1.5-0.3
			c0.1-0.1,0.2,0,0.2,0c0.1,0.1,0,0.2,0,0.2c-0.3,0.2-0.8,0.3-1.4,0.4c0.1,0.3,0.1,0.7,0.1,0.9c0,0.1,0,0.2,0,0.4
			c0,0.9-0.4,1.8-0.7,2.7c2.3-0.6,4.3-2,5.8-3.1c0.2-0.2,0.5-0.4,0.8-0.5c0.4-0.3,0.8-0.5,1.2-0.9c1.1-1,1.6-2.2,2-3.4
			c-0.4-0.3-0.9-0.7-1.3-0.9C69.6,108.9,69.3,108.6,69,108.3z M26.4,123.9C26.4,123.9,26.4,123.9,26.4,123.9
			C26.4,123.9,26.4,123.9,26.4,123.9C26.4,123.9,26.4,123.9,26.4,123.9C26.4,123.9,26.4,123.9,26.4,123.9
			C26.4,123.9,26.4,124,26.4,123.9C26.4,124,26.4,123.9,26.4,123.9z M24.9,124.5c0.2,0.1,0.1,0.1,0,0.1s-0.2-0.1-0.2-0.2
			c0-0.3-0.2-1.2-0.6-1.5c-0.1-0.1-0.2-0.1-0.3-0.1c-0.1,0-0.2,0-0.2-0.1s0-0.2,0.1-0.2c0.2,0,0.4,0,0.5,0.2
			C24.7,123.1,24.9,124.1,24.9,124.5z"/>
		<path class="st0" d="M73.9,104.9C73.9,104.9,73.9,104.9,73.9,104.9C73.9,104.9,73.9,104.9,73.9,104.9z"/>
		<path class="st0" d="M28.7,118.1c-0.5,0.1-1,0-1.5,0c-0.3,0-0.7,0-1,0c-0.4,0-0.8,0.3-1.1,0.7c0.8-0.9,1.6-0.6,2.6-0.6
			c1,0,2.1-0.1,3.2-0.3c0.1-0.1,0.1-0.2,0.1-0.2C30.2,117.9,29.4,118,28.7,118.1z"/>
		<path class="st0" d="M69.4,113.6c-0.4,0.3-0.8,0.6-1.2,0.9c-0.2,0.2-0.5,0.3-0.7,0.5c-1,0.7-2.1,1.5-3.4,2.2
			c1.1-0.5,2.2-1.2,3.4-2.1C68.2,114.6,68.9,114.2,69.4,113.6c1.1-0.8,1.7-2.1,2.1-3.4c0,0,0,0-0.1,0
			C71.1,111.4,70.6,112.7,69.4,113.6z"/>
		<path class="st0" d="M60.9,119.2c-0.1,0.3-0.3,0.6-0.3,0.9c0.1-0.5,0.4-1,0.5-1.3c0.1-0.2,0.1-0.4,0.2-0.6c0,0,0,0,0,0
			c-0.1,0.1-0.1,0.3-0.2,0.4C61.2,118.8,61,119,60.9,119.2z"/>
		<path class="st0" d="M60.6,120.3C60.6,120.3,60.6,120.3,60.6,120.3C60.6,120.3,60.6,120.3,60.6,120.3z"/>
		<path class="st0" d="M75.3,103.1c0.1,0,0.3,0,0.4,0c-0.1,0-0.1,0-0.2,0C75.4,103.1,75.3,103.1,75.3,103.1z"/>
		<path class="st0" d="M69.9,92.1c0.4-0.1,0.7-0.1,1.1,0c-0.7-0.1-1.3-0.1-1.8,0c-0.3,0.1-0.7,0.3-0.9,0.5c-0.1,0.1-0.3,0.3-0.4,0.5
			C68.4,92.6,69.1,92.2,69.9,92.1z"/>
		<path class="st0" d="M63.7,99.9c-0.2-0.1-0.5,0-0.7,0c0,0.1,0,0.2,0.3,0.2c0.2,0,0.3,0,0.5,0.1c0.2,0.1,0.2,0.2,0.3,0.3
			C64.1,100.2,64,100,63.7,99.9z"/>
		<polygon class="st0" points="76.1,102.9 76.1,102.9 76,102.9 		"/>
		<path class="st0" d="M52.4,112.5c0.4,0.7,0.7,1.4,1,2.1c0-0.1,0-0.1-0.1-0.2C53.2,114.1,52.9,113.2,52.4,112.5z"/>
		<path class="st0" d="M48.7,104.1c-0.3,0.3-0.9,0.5-1,0.9c-0.2,0.5,0.5,0.7,1,0.7s0.8-0.4,1.1-0.8c0.4-0.4,0.7-0.7,1.1-0.9
			c-0.3,0-0.6,0.1-0.9,0.1C49.5,104.1,49.1,104.1,48.7,104.1z"/>
		<path class="st0" d="M40.7,105.5c0.2,0.2,0.4,0.4,0.5,0.6C41,105.9,40.8,105.7,40.7,105.5z"/>
		<path class="st0" d="M50.4,111.9c-0.7,0.9,0,2.9-1.3,3.5c-0.6,0.3-1.8,0-3-0.3c0.8,0.3,2.2,0.7,3,0.4c0.9-0.3,0.9-1.9,1.1-2.7
			c0.1-0.5,0.2-1,0.7-1.1c0.6-0.2,1,0.2,1.3,0.6C51.7,111.5,51.1,111,50.4,111.9z"/>
		<path class="st0" d="M33,102.5c0,0,0.1,0,0.1,0c0.2-0.1,0.3-0.1,0.5-0.2c-0.4,0.1-0.8,0.2-1.2,0.3c0,0-0.1,0-0.1,0
			C32.6,102.6,32.8,102.6,33,102.5z"/>
		<path class="st0" d="M27.4,108.3c0,0.1,0,0.2,0,0.3c0.2-0.6,0.3-1.1,0.6-1.6C27.7,107.4,27.6,107.8,27.4,108.3z"/>
		<path class="st0" d="M35.3,102.2c0.3,0,0.6,0.1,0.9,0.2c0.1,0,0.2,0,0.3,0c0.3,0,0.7,0,1,0.1c0,0,0,0,0,0
			c-0.5-0.1-0.8-0.2-1.3-0.2C35.9,102.2,35.6,102.2,35.3,102.2z"/>
		<path class="st0" d="M25.9,112.7c0-0.1,0.1-0.1,0.1-0.2l-0.3,0.6l0.1-0.1C25.9,112.9,25.9,112.8,25.9,112.7z"/>
		<path class="st0" d="M25.7,113.1C25.7,113.1,25.8,113.1,25.7,113.1C25.8,113.2,25.8,113.2,25.7,113.1
			C25.8,113.2,25.7,113.1,25.7,113.1z"/>
		<path class="st0" d="M32.4,102.7C32.4,102.7,32.4,102.7,32.4,102.7C32.4,102.7,32.4,102.7,32.4,102.7
			C32.3,102.7,32.4,102.7,32.4,102.7z"/>
		<path class="st0" d="M37.4,102.6c0,0,0.1,0,0.2,0c0,0,0,0,0,0c0,0,0-0.1-0.1-0.1c-0.3,0-0.6,0-1-0.1
			C36.8,102.5,37.1,102.5,37.4,102.6z"/>
		<path class="st0" d="M36.7,104.4c-0.1,0.2-0.2,0.4-0.2,0.5C36.5,104.8,36.6,104.6,36.7,104.4z"/>
		<path class="st0" d="M36.2,102.4c-0.3-0.1-0.6-0.1-0.9-0.2c-0.3,0-0.5,0-0.8,0c-0.3,0-0.6,0.1-0.9,0.1c-0.2,0-0.3,0.1-0.5,0.2
			C34.2,102.3,35.2,102.2,36.2,102.4z"/>
		<path class="st0" d="M73.4,110.4c0.4-0.4,0.3-1.3,0.3-2c0,0.1,0,0.1,0,0.2C73.7,109.2,73.7,109.9,73.4,110.4z"/>
		<path class="st0" d="M72.7,110.5C72.7,110.5,72.7,110.5,72.7,110.5c-0.4,0-0.8-0.2-1.1-0.4c0,0,0,0.1,0,0.1
			c0.4,0.2,0.7,0.4,1.1,0.4c0.3,0,0.5-0.1,0.6-0.2C73.2,110.4,73,110.5,72.7,110.5C72.7,110.5,72.7,110.5,72.7,110.5z"/>
		<path class="st0" d="M73.6,108.1c0-0.8-0.1-1.6-0.2-2.4c0,0,0,0,0,0C73.5,106.5,73.6,107.3,73.6,108.1z"/>
		<path class="st0" d="M73.4,105.5L73.4,105.5c0,0,0,0.1,0,0.2c0,0,0,0,0,0C73.5,105.6,73.5,105.5,73.4,105.5L73.4,105.5z"/>
		<path class="st0" d="M69,108.3c-0.2-0.2-0.3-0.4-0.4-0.6C68.7,107.9,68.8,108.1,69,108.3z"/>
		<path class="st0" d="M70.6,109.5c-0.2-0.2-0.5-0.3-0.7-0.5c-0.3-0.2-0.6-0.4-0.9-0.7c0.3,0.3,0.6,0.6,1,0.8
			c0.4,0.2,0.8,0.6,1.3,0.9c0,0,0-0.1,0-0.1C71,109.8,70.8,109.6,70.6,109.5z"/>
		<path class="st0" d="M71.5,110.1c0,0,0,0.1,0,0.1c0,0,0,0,0.1,0C71.6,110.2,71.6,110.2,71.5,110.1
			C71.6,110.1,71.5,110.1,71.5,110.1z"/>
		<path class="st0" d="M72.7,98.3c0.2,0.8,0.4,1.8,0.4,2.8c0.1,1.2,0.2,2.4,0.3,3.6c0,0.2,0,0.3,0,0.5c0,0,0,0,0,0
			c-0.1-1.3-0.2-2.6-0.3-3.9c0-1-0.2-1.9-0.4-2.8c-0.2-1.1,0-2.2-0.3-3.2l-0.1,0c0.1,0.5,0.2,1,0.2,1.6
			C72.5,97.3,72.5,97.8,72.7,98.3z"/>
		<path class="st0" d="M29.9,104.1c-0.1,0.1-0.3,0.3-0.4,0.4C29.6,104.4,29.8,104.3,29.9,104.1C29.9,104.2,29.9,104.2,29.9,104.1z"
			/>
		<path class="st0" d="M36,106.7c0-0.4,0.1-0.8,0.2-1.2c0-0.2,0.1-0.4,0.2-0.5c-0.1,0.3-0.2,0.6-0.3,0.8
			C36.1,106.1,36,106.4,36,106.7z"/>
		<path class="st0" d="M36.7,104.2c0.1-0.2,0.3-0.4,0.4-0.6c0.1-0.2,0.2-0.3,0.3-0.5c0.1-0.1,0.3-0.3,0.2-0.4c0,0-0.1-0.1-0.1-0.1
			c-0.3,0.6-0.6,1.2-0.9,1.8C36.7,104.3,36.7,104.3,36.7,104.2z"/>
		<path class="st0" d="M33.2,102.5c0,0-0.1,0-0.1,0c-0.2,0.1-0.4,0.1-0.7,0.2c0,0-0.1,0-0.1,0c-0.2,0.1-0.4,0.2-0.6,0.4
			c-0.3,0.2-0.6,0.4-0.9,0.7c-0.1,0-0.2,0.1-0.3,0.2c0,0,0,0.1,0,0.1c0.6-0.5,1.2-0.9,1.9-1.2C32.6,102.7,32.9,102.6,33.2,102.5z"/>
		<path class="st0" d="M36.5,102.4c-0.1,0-0.2,0-0.3,0c0.1,0,0.1,0,0.2,0C36.4,102.4,36.4,102.4,36.5,102.4z"/>
		<path class="st0" d="M32.3,102.7c0,0,0.1,0,0.1,0C32.4,102.7,32.3,102.7,32.3,102.7C32.3,102.7,32.3,102.7,32.3,102.7z"/>
		<path class="st0" d="M62,101.1C62,101.1,62,101.1,62,101.1c0.1,0,0.2-0.1,0.3-0.1c0,0,0,0-0.1,0c0,0,0,0-0.1,0.1
			C62.1,101,62,101.1,62,101.1z"/>
		<path class="st0" d="M41.1,103.4c0.1,0,0.2,0,0.2,0c-0.2,0-0.4,0-0.5-0.1h-0.1c-0.1-0.1-0.1-0.1-0.2-0.1c0,0,0,0,0,0.1
			C40.6,103.3,40.8,103.4,41.1,103.4z"/>
		<path class="st0" d="M61.8,100.8c-0.1,0-0.2,0.1-0.3,0.1c0,0,0,0,0,0C61.7,100.8,61.8,100.8,61.8,100.8z"/>
		<path class="st0" d="M56,102.7c0.5-0.1,1-0.2,1.4-0.3c0.1,0,0.3,0,0.4-0.1c-0.2,0-0.5,0-0.7,0.1c-1,0.1-1.9,0.6-2.8,0.9
			c0.3-0.1,0.6-0.2,0.9-0.3C55.5,102.9,55.7,102.8,56,102.7z"/>
		<path class="st0" d="M53.4,114.6c0.2,0.5,0.4,1,0.9,1.4c0,0-0.1-0.1-0.1-0.1C53.8,115.4,53.6,115,53.4,114.6z"/>
		<path class="st0" d="M52.3,112.3c0,0.1,0.1,0.1,0.1,0.2C52.4,112.5,52.4,112.4,52.3,112.3C52.3,112.4,52.3,112.3,52.3,112.3z"/>
		<path class="st0" d="M41.1,103.4c-0.2,0-0.4-0.1-0.6-0.1c-0.3,0.4-0.5,0.7-0.6,1.1c0,0.3,0.2,0.5,0.4,0.7c0.1,0.1,0.3,0.2,0.4,0.4
			c-0.3-0.4-0.6-0.7-0.6-1.2C40.1,103.7,40.5,103.5,41.1,103.4z"/>
		<path class="st0" d="M62.4,101.7c0.1,0.5-0.4,1-0.2,1.5s0.8,0.7,1.2,1.1c0.3,0.4,0.5,0.9,0.6,1.4c0.1,0.5,0.3,1,0.6,1.4
			c0.2,0.2,0.3,0.3,0.5,0.5c0.1,0.1,0.1,0.1,0.2,0.2c0-0.2-0.2-0.4-0.5-0.6c-0.9-0.8-0.6-2-1.2-2.8c-0.3-0.4-0.9-0.7-1.2-1.2
			c-0.3-0.6,0.3-1.4,0-2c0-0.1-0.1-0.2-0.2-0.2c-0.1,0-0.1,0.1-0.2,0.1C62.2,101.2,62.4,101.4,62.4,101.7z"/>
		<path class="st0" d="M42.9,103.7c1.6,0.1,3.3,0.3,4.9,0.3c-1.3-0.1-2.5-0.2-3.7-0.3h-0.2c-0.2-0.1-0.5-0.1-0.8-0.1
			c-0.6-0.1-1.2-0.2-1.9-0.2c-0.1,0-0.2,0-0.2,0c0.2,0,0.3,0.1,0.5,0.1C42.1,103.5,42.4,103.7,42.9,103.7z"/>
		<path class="st0" d="M62,101.1C62,101.1,62,101.1,62,101.1c-0.1,0-0.1,0-0.2,0.1C61.9,101.1,62,101.1,62,101.1z"/>
		<path class="st0" d="M61.5,101.2c0,0-0.1,0-0.1,0.1C61.4,101.3,61.5,101.3,61.5,101.2C61.5,101.2,61.5,101.2,61.5,101.2z"/>
		<path class="st0" d="M63.1,99.8c0-0.1,0-0.1,0.1-0.2c0,0,0-0.1,0-0.1C63.1,99.6,63.1,99.8,63.1,99.8C63,99.9,63,99.9,63.1,99.8
			C63.1,99.9,63.1,99.9,63.1,99.8z"/>
		<path class="st0" d="M64.3,100.8c0-0.1-0.1-0.2-0.1-0.3C64.2,100.6,64.2,100.7,64.3,100.8z"/>
		<path class="st0" d="M63.1,99.9C63.1,99.9,63.1,99.9,63.1,99.9C63.1,99.9,63.1,99.9,63.1,99.9C63.1,99.9,63.1,99.9,63.1,99.9z"/>
		<path class="st0" d="M75.9,95.5c0-0.1-0.1-0.2-0.1-0.3c-0.1-0.3-0.2-0.9-0.6-1s-0.7,1.4-0.8,1.7c-0.2,0.3-0.5,0.8,0.1,0.9
			c0.5,0.1,0.8,0.1,1.3,0.3c0.3,0.1,0.8,0.5,0.8,0c0-0.3-0.1-0.4-0.3-0.6S75.9,95.9,75.9,95.5z M75.7,96.1c-0.1,0.1-0.1,0-0.1-0.1
			c0,0,0,0-0.1,0c0,0.1-0.1,0.2-0.2,0.2c-0.3,0.1-0.6,0.1-0.7,0c0-0.1,0.3-0.5,0.4-0.7c0.1-0.1,0.2-0.2,0.4-0.2
			c0.1,0,0.1,0.1,0.1,0.1c0.1,0,0.1,0.1,0.2,0.2C75.7,95.7,75.7,96,75.7,96.1z"/>
		<path class="st0" d="M75.5,95.4c0,0.1,0.1,0.2,0.1,0.3c0,0.1,0,0.2-0.1,0.3c0,0,0,0,0.1,0c0,0.1,0,0.2,0.1,0.1
			c0.1-0.1,0-0.4,0-0.5C75.6,95.5,75.5,95.5,75.5,95.4z"/>
		<path class="st0" d="M75.5,95.4c0,0-0.1,0-0.1,0.1c-0.1,0.1,0,0.3,0,0.4c0,0,0,0.1,0.1,0.1c0.1-0.1,0.1-0.2,0.1-0.3
			C75.5,95.6,75.5,95.5,75.5,95.4z"/>
		<path class="st0" d="M80.8,100.2c0,0.1-0.1,0.2-0.1,0.2c-0.2,0.3-0.4,0.5-0.6,0.8c-0.2,0.2-0.3,0.4-0.5,0.6
			c-0.4,0.3-0.7,0.5-1.2,0.5c-0.2,0-0.4,0-0.6,0c-0.1,0-0.1,0-0.2,0c-0.1,0-0.3,0-0.4,0c0,0,0,0,0,0c-0.3,0.2-0.5,0.5-0.9,0.6
			c0,0-0.1,0-0.1,0c-0.1,0.1-0.2,0.2-0.3,0.3c0.2,0,0.4,0,0.5-0.1c0.1-0.1,0.2-0.2,0.3-0.2c0.1-0.1,0.3-0.2,0.5-0.2
			c0.1,0,0.3,0,0.4,0c0.4,0,0.8-0.1,1.3-0.3s0.9-0.6,1.3-0.9c0.3-0.3,0.6-0.7,0.8-1.1c0-0.1,0-0.2,0-0.3l-0.1,0.3
			C80.9,100.3,80.8,100.3,80.8,100.2z"/>
		<path class="st0" d="M80.9,99.8C80.9,99.8,80.9,99.8,80.9,99.8c0,0,0,0.1-0.1,0.2L80.9,99.8C80.9,99.9,80.9,99.8,80.9,99.8z"/>
		<path class="st0" d="M79.9,101.1c-0.3,0.4-0.7,0.6-1.2,0.9c-0.3,0.2-0.7,0.2-1,0.3c0.2,0,0.4,0,0.6,0c0.5,0,0.8-0.2,1.2-0.5
			C79.7,101.6,79.8,101.4,79.9,101.1c0.3-0.2,0.5-0.4,0.7-0.7c0-0.1,0.1-0.2,0.1-0.2c0,0,0-0.1,0-0.2
			C80.6,100.4,80.2,100.7,79.9,101.1z"/>
		<path class="st0" d="M77.2,102.3C77.2,102.3,77.2,102.3,77.2,102.3C77.2,102.3,77.2,102.3,77.2,102.3c-0.3,0-0.5,0.2-0.6,0.3
			c-0.1,0.1-0.2,0.1-0.3,0.2c0,0-0.1,0.1-0.1,0.1c0,0,0.1,0,0.1,0C76.7,102.8,76.8,102.5,77.2,102.3z"/>
		<path class="st0" d="M80.7,96.7c-0.1,0-0.2,0-0.3-0.1l0,0L80.7,96.7z"/>
		<path class="st0" d="M80.3,96.6c-0.2-0.1-0.4-0.1-0.6-0.2c-0.2,0-0.4-0.1-0.5-0.1c-0.1-0.1-0.3-0.1-0.5-0.1
			c0.2,0.1,0.4,0.2,0.7,0.2C79.7,96.4,80,96.5,80.3,96.6z"/>
		<path class="st0" d="M78.2,96.1c0.1,0.1,0.1,0.2,0.2,0.3c0,0,0,0,0,0c0.2,0.1,0.4,0.1,0.6,0.2c0.1,0,0.3,0.1,0.5,0.1
			c0.2,0.1,0.3,0.1,0.5,0.2c0.1-0.1,0.1-0.2,0.2-0.3c0,0,0,0-0.1,0c-0.3-0.1-0.6-0.1-0.9-0.2c-0.3-0.1-0.5-0.2-0.7-0.2
			c-0.1,0-0.1,0-0.2-0.1C78.4,96.1,78.3,96.1,78.2,96.1z"/>
		<path class="st0" d="M78.4,96.4l-0.2-0.1c-0.2-0.1-0.4-0.2-0.5-0.2c0,0.1,0,0.2,0.1,0.2C78,96.3,78.2,96.4,78.4,96.4
			C78.4,96.4,78.4,96.4,78.4,96.4C78.5,96.4,78.5,96.4,78.4,96.4C78.4,96.4,78.4,96.4,78.4,96.4z"/>
		<path class="st0" d="M30.7,118.3C30.7,118.3,30.7,118.3,30.7,118.3C30.7,118.3,30.7,118.3,30.7,118.3z"/>
		<path class="st0" d="M34.3,114.9c0,0,0-0.1,0-0.1c0,0,0-0.1,0.1-0.1c0,0,0,0-0.1,0c0,0-1,1.3-1.1,1.4c-0.1,0.1-0.3,0.3-0.5,0.4
			c0.1-0.1,0.2-0.1,0.3-0.2C33.5,115.9,33.9,115.4,34.3,114.9z"/>
		<path class="st0" d="M34.3,115.4c0.2-0.1,0.3-0.2,0.5-0.2c0.3,0,0.9,0.2,1.2,0.3c0.6,0.1,1.2,0.2,1.8,0.2c0,0,0-0.1,0-0.1
			c-1.1-0.1-2.2-0.3-3.3-0.6C34.5,115.2,34.4,115.3,34.3,115.4z"/>
		<path class="st0" d="M31.7,117c-0.1,0-0.1,0-0.2,0.1c0,0,0,0,0,0C31.6,117,31.6,117,31.7,117z"/>
		<path class="st0" d="M31.9,116.9c0.1-0.1,0.3-0.1,0.4-0.2C32.1,116.8,32,116.9,31.9,116.9z"/>
		<path class="st0" d="M32.8,116.9c-0.4,0.3-0.9,0.5-1.4,0.6c-0.1,0.1-0.1,0.2-0.2,0.3c0.4-0.1,0.7-0.3,1-0.5
			C32.4,117.2,32.6,117,32.8,116.9z"/>
		<path class="st0" d="M37.9,115.3c-0.1,0-0.4-0.1-0.6-0.1c-0.4,0-0.8,0-1.2-0.1c-0.1,0-0.3,0-0.4-0.1
			C36.5,115.2,37.2,115.3,37.9,115.3C37.9,115.3,37.9,115.3,37.9,115.3z"/>
		<path class="st0" d="M63.4,120.1c0.2,0,0.3,0,0.4,0.1c0.1,0,0.1,0,0.2,0c0.3,0.1,0.5,0.3,0.7,0.5c0.1,0.2,0.2,0.4,0.1,0.6
			c0,0.2-0.1,0.4-0.3,0.6c-0.2,0.1-0.5,0.3-0.7,0.3c0,0,0.1,0,0.1,0c0.3,0,0.6-0.1,0.9-0.2c0.2-0.1,0.2-0.4,0.2-0.8
			c-0.1-0.8-0.6-1.2-1.6-1.3c-0.3,0-0.5-0.1-0.6-0.2c-0.1-0.1-0.1-0.3-0.1-0.5c0-0.4,0.1-0.7,0.1-1.1c-0.1,0.4-0.2,0.9-0.2,1.1
			C62.4,119.8,62.9,120.1,63.4,120.1z"/>
		<path class="st0" d="M63.4,120.1c0.2,0,0.3,0,0.4,0.1C63.6,120.1,63.5,120.1,63.4,120.1z"/>
		<path class="st0" d="M62.8,117.8c-0.1,0-0.2,0.1-0.3,0.1c-0.1,0.4-0.1,0.8-0.2,1.2c0,0.3,0,0.5,0.2,0.7c0.2,0.2,0.4,0.3,0.8,0.3
			c-0.5,0-0.9-0.3-0.8-0.9c0-0.2,0.1-0.6,0.2-1.1C62.8,118,62.8,117.9,62.8,117.8C62.9,117.8,62.8,117.8,62.8,117.8z"/>
		<path class="st0" d="M64.7,121.3c0.1-0.2,0-0.4-0.1-0.6c-0.2-0.2-0.4-0.4-0.7-0.5c0.4,0.2,0.6,0.5,0.7,0.9c0.1,0.3,0,0.5-0.1,0.6
			c-0.2,0.2-0.6,0.1-1.1,0.1c-0.2,0-0.3,0-0.4,0c0,0-0.1,0-0.1,0c0.1,0.1,0.2,0.2,0.3,0.4c0,0,0.1,0,0.1,0c0.2,0,0.3,0,0.4,0
			c0.2,0,0.5-0.2,0.7-0.3C64.7,121.7,64.7,121.5,64.7,121.3z"/>
		<polygon class="st0" points="61.5,100.9 61.5,100.9 61.5,100.9 		"/>
		<path class="st0" d="M62.2,100.9C62.2,100.9,62.2,100.9,62.2,100.9L62.2,100.9C62.2,100.9,62.2,100.9,62.2,100.9
			c0.3-0.2,0.5-0.4,0.7-0.6c0,0,0,0,0,0c0,0,0,0,0-0.1c0,0,0,0,0-0.1c-0.1,0-0.2,0-0.2-0.1c0,0,0,0,0,0c-0.1,0.2-0.3,0.4-0.6,0.6
			c-0.1,0-0.1,0.1-0.2,0.1c0,0,0.1,0,0.1,0C62,100.8,62.1,100.9,62.2,100.9z"/>
		<path class="st0" d="M61.4,100.9L61.4,100.9C61.4,100.9,61.4,100.9,61.4,100.9z"/>
		<path class="st0" d="M62.9,100.2C62.9,100.2,62.9,100.3,62.9,100.2C62.9,100.3,62.9,100.2,62.9,100.2z"/>
		<path class="st0" d="M62,101.1c0.1,0,0.1-0.1,0.2-0.1c0,0,0,0,0.1-0.1c0,0,0,0,0,0L62,101.1C61.9,101.1,62,101.1,62,101.1z"/>
		<path class="st0" d="M62.2,100.9c-0.1,0-0.1-0.1-0.2-0.1c0,0-0.1,0-0.1,0c-0.1,0-0.2,0.1-0.3,0.1c0,0,0,0,0,0c0,0,0,0,0,0
			C61.7,100.9,61.9,101,62.2,100.9z"/>
		<path class="st0" d="M61.8,101.2c0,0,0.1-0.1,0.2-0.1c0,0-0.1,0-0.1,0l-0.4,0.2c0,0,0,0-0.1,0c0,0,0,0,0,0
			C61.6,101.2,61.7,101.2,61.8,101.2z"/>
		<path class="st0" d="M61.7,101.3c0,0,0.1-0.1,0.2-0.1c-0.1,0-0.2,0.1-0.3,0.1C61.6,101.3,61.6,101.3,61.7,101.3z"/>
		<path class="st0" d="M62.9,117.8c0.4-0.2,0.9-0.4,1.3-0.6C63.8,117.4,63.4,117.6,62.9,117.8C62.9,117.7,62.9,117.7,62.9,117.8z"/>
		<path class="st0" d="M61.4,118.2C61.3,118.2,61.3,118.2,61.4,118.2c0.4-0.1,0.8-0.2,1.2-0.3c0,0,0,0,0-0.1
			C62.1,118,61.8,118.1,61.4,118.2z"/>
		<path class="st0" d="M62.8,117.7C62.8,117.7,62.8,117.8,62.8,117.7C62.9,117.8,62.9,117.8,62.8,117.7
			C62.9,117.7,62.9,117.7,62.8,117.7C62.9,117.7,62.9,117.7,62.8,117.7z"/>
		<path class="st0" d="M68.2,114.5c0.4-0.3,0.8-0.6,1.2-0.9c1.1-0.9,1.6-2.2,2-3.4c-0.1-0.1-0.2-0.1-0.3-0.2c-0.4,1.2-0.9,2.4-2,3.4
			c-0.4,0.4-0.8,0.6-1.2,0.9c-0.3,0.1-0.6,0.3-0.8,0.5c-1.5,1.1-3.5,2.4-5.8,3.1c0,0,0,0,0,0c0,0.1,0,0.1-0.1,0.2
			c0.4-0.1,0.8-0.2,1-0.3c0.1,0,0.1,0,0.2-0.1c0,0,0,0,0,0c0-0.1,0.1-0.1,0.2-0.1c0,0,0,0,0.1,0c0,0,0.1,0,0.1,0c0,0,0,0.1,0,0.1
			c0.4-0.2,0.9-0.4,1.3-0.5c1.3-0.6,2.4-1.4,3.4-2.2C67.7,114.8,68,114.7,68.2,114.5z"/>
		<path class="st0" d="M62.8,117.7C62.9,117.7,62.9,117.7,62.8,117.7c0.1-0.1,0.1-0.1,0.1-0.1C62.9,117.6,62.9,117.6,62.8,117.7
			C62.8,117.7,62.8,117.7,62.8,117.7z"/>
		<path class="st0" d="M61.3,118.2C61.3,118.2,61.3,118.2,61.3,118.2c0.4-0.2,0.8-0.3,1.2-0.4c0,0,0-0.1,0-0.1c-0.1,0-0.1,0-0.2,0.1
			c-0.2,0.1-0.5,0.2-1,0.3C61.4,118.1,61.3,118.2,61.3,118.2C61.3,118.3,61.3,118.3,61.3,118.2z"/>
		<path class="st0" d="M71.2,110c0.1,0.1,0.2,0.1,0.3,0.2c0,0,0-0.1,0-0.1C71.4,110,71.3,110,71.2,110C71.2,110,71.2,110,71.2,110z"
			/>
		<path class="st0" d="M71.4,109.8C71.4,109.8,71.4,109.8,71.4,109.8c0,0.1,0,0.1,0.1,0.1C71.5,109.9,71.5,109.8,71.4,109.8z"/>
		<path class="st0" d="M62.5,117.9c0.1,0,0.2-0.1,0.3-0.1c0,0,0,0,0,0C62.7,117.8,62.6,117.8,62.5,117.9
			C62.5,117.9,62.5,117.9,62.5,117.9z"/>
		<path class="st0" d="M62.7,117.6c-0.1,0-0.2,0-0.2,0.1c0,0,0,0,0,0C62.6,117.7,62.7,117.7,62.7,117.6
			C62.8,117.6,62.8,117.6,62.7,117.6z"/>
		<path class="st0" d="M62.8,117.7C62.8,117.7,62.8,117.7,62.8,117.7c-0.1-0.1-0.2,0-0.3,0c0,0,0,0.1,0,0.1
			C62.6,117.8,62.7,117.8,62.8,117.7z"/>
		<path class="st0" d="M60.6,121.2C60.6,121.3,60.6,121.3,60.6,121.2C60.6,121.3,60.6,121.2,60.6,121.2z"/>
		<path class="st0" d="M62.9,122.2c-0.1-0.2-0.3-0.3-0.5-0.4c-0.5-0.2-1.2,0-1.7-0.4c0,0,0,0.1,0.1,0.1c0,0,0.1,0.1,0.2,0.1
			c0.2,0.1,0.4,0.1,0.6,0.1c0.3,0,0.5,0,0.7,0.1c0,0,0.1,0.1,0.1,0.1c0,0,0.1,0,0.1,0c0.4,0.2,0.7,0.6,0.8,1.1
			c0.1,0.3,0,0.6-0.2,0.8c-0.2,0.3-0.6,0.4-0.9,0.4c-0.4,0.1-0.8,0.1-1.2,0.1c0.2,0,0.3,0,0.5,0c0.4,0,0.7,0,1.1-0.1
			c0.6-0.2,0.9-0.8,0.8-1.4c0-0.2-0.1-0.4-0.2-0.6C63.1,122.2,62.9,122.2,62.9,122.2z"/>
		<path class="st0" d="M58.2,123.3c-0.2-0.3-0.2-0.8-0.3-1.2c-0.1-0.6-0.1-1.3-0.2-2c0-0.3-0.1-0.6-0.1-0.9c-0.1,0-0.1,0-0.1,0
			c0,0,0,0-0.1,0c0.1,0.8,0.2,1.5,0.2,2.3c0,0.6,0.1,2.4,1.4,2.7c0.3,0.1,0.5,0.1,0.9,0.1C59.2,124.3,58.5,123.9,58.2,123.3z"/>
		<path class="st0" d="M60.6,120.1c0,0.1,0,0.1,0,0.2C60.6,120.2,60.6,120.2,60.6,120.1z"/>
		<path class="st0" d="M63,122.2c-0.1,0-0.2-0.1-0.2-0.2c0-0.1,0-0.1,0.1-0.2c-0.1-0.1-0.3-0.2-0.4-0.2c-0.2-0.1-0.5-0.2-0.8-0.2
			c-0.4,0-0.7,0-0.9-0.2c-0.3-0.2-0.3-0.5-0.3-0.9c-0.1,0.3-0.1,0.7,0.1,0.9c0,0,0,0,0,0.1c0,0,0.1,0.1,0.1,0.1
			c0.5,0.4,1.2,0.2,1.7,0.4C62.7,121.9,62.9,122,63,122.2c-0.1,0,0.1,0,0.2,0c0,0,0,0,0,0C63.2,122.2,63.1,122.2,63,122.2z"/>
		<path class="st0" d="M62.2,124.2C62.2,124.2,62.2,124.2,62.2,124.2c-0.1-0.1-0.1-0.2,0-0.2c0,0,0,0,0,0c-0.2,0-0.4,0-0.6,0
			c-0.1,0-0.3,0-0.5,0h-0.1c-0.6,0-1.2,0.1-1.8-0.1c-0.9-0.2-1.1-1.4-1.1-2.4c0-0.9-0.1-1.8-0.2-2.7c0-0.3-0.1-0.6-0.1-0.9
			c0-0.2,0-0.5-0.1-0.8c-0.1-0.5-0.2-1-0.2-1.4c0-0.1-0.1-0.2-0.2-0.2c-0.1,0-0.2,0.1-0.2,0.2c0,0.4,0.1,0.9,0.2,1.4
			c0,0.3,0.1,0.6,0.1,0.8c0,0.3,0.1,0.5,0.1,0.8c0,0,0.1,0,0.1,0c0.1,0,0.2,0.1,0.1,0.2c0.1,0,0,0.1,0,0.1c-0.1,0-0.1,0-0.2,0
			c0,0.1,0,0.1,0,0.2c0,0,0,0,0.1,0c0,0,0,0,0.1,0c0,0.3,0.1,0.6,0.1,0.9c0.1,0.7,0.1,1.4,0.2,2c0.1,0.4,0.1,0.9,0.3,1.2
			c0.3,0.6,1,1,1.7,1c0,0,0.1,0,0.1,0c0.3,0,0.6,0,0.9,0c0,0,0.1,0,0.1,0C61.4,124.3,61.9,124.3,62.2,124.2
			C62.2,124.2,62.2,124.2,62.2,124.2z"/>
		<path class="st0" d="M63.2,122.8c0.1,0.4,0,0.9-0.6,1.1c0,0,0,0,0,0c0,0.1,0,0.1-0.1,0.2c-0.1,0.1-0.2,0.1-0.2,0.1
			c0.3,0,0.7-0.1,0.9-0.4c0.2-0.2,0.3-0.5,0.2-0.8c-0.1-0.5-0.4-0.9-0.8-1.1c0,0,0,0-0.1,0C62.8,122.1,63.1,122.4,63.2,122.8z"/>
		<path class="st0" d="M62.2,114.8c0-0.3,0-0.7-0.1-0.9c-0.1,0-0.2,0-0.3,0c0,0,0,0,0,0c0.1,0.2,0,0.6,0,0.9c0,0.2,0,0.3,0,0.4
			c0,0.9-0.4,1.7-0.7,2.6c-0.1,0.3-0.2,0.5-0.3,0.8c-0.1,0.1-0.1,0.2-0.2,0.4c-0.3,0.8-0.7,1.8,0,2.4c0.2,0.1,0.3,0.1,0.5,0.2
			c0,0-0.1,0-0.2-0.1c0,0-0.1-0.1-0.1-0.1c0,0,0,0,0,0c0,0-0.1-0.1-0.1-0.1c0,0,0,0,0-0.1c-0.5-0.7,0.2-1.9,0.4-2.5
			c0.1-0.1,0.1-0.3,0.1-0.4c0,0,0,0,0,0c-0.1,0-0.1,0-0.2-0.1c0-0.1,0-0.2,0.1-0.2c0.1,0,0.3-0.1,0.4-0.1c0.3-0.9,0.7-1.8,0.7-2.7
			C62.2,115,62.2,114.9,62.2,114.8z"/>
		<path class="st0" d="M60.8,121.4c0,0-0.1-0.1-0.1-0.1C60.7,121.3,60.7,121.4,60.8,121.4C60.8,121.4,60.8,121.4,60.8,121.4z"/>
		<path class="st0" d="M60.6,120.1c0.1-0.3,0.2-0.6,0.3-0.9c0.1-0.2,0.2-0.4,0.2-0.5c0.1-0.2,0.1-0.3,0.2-0.4c0,0-0.1,0-0.1,0
			c0,0.1-0.1,0.3-0.1,0.4c-0.2,0.6-1,1.8-0.4,2.5c-0.1-0.3-0.1-0.6-0.1-0.9c0,0,0,0,0,0C60.6,120.2,60.6,120.2,60.6,120.1z"/>
		<path class="st0" d="M62.9,122c0,0.1,0.1,0.2,0.2,0.2c0.1,0,0.1,0,0.2,0c-0.1-0.1-0.2-0.3-0.3-0.4C62.9,121.9,62.9,121.9,62.9,122
			z"/>
		<path class="st0" d="M60.9,118.2c0.1,0.1,0.1,0.1,0.2,0.1c0,0,0,0,0,0c0-0.1,0-0.1,0.1-0.2c0,0,0.1,0,0.1,0c0-0.1,0-0.1,0.1-0.2
			c0,0,0,0,0,0c-0.1,0-0.3,0.1-0.4,0.1C60.9,118,60.9,118.1,60.9,118.2z"/>
		<path class="st0" d="M61.2,118.3c0,0,0.1,0,0.1,0c0-0.1,0-0.1,0.1-0.2c0,0-0.1,0-0.1,0C61.2,118.2,61.2,118.2,61.2,118.3z"/>
		<path class="st0" d="M73.3,110.4C73.3,110.4,73.4,110.4,73.3,110.4C73.4,110.4,73.4,110.4,73.3,110.4
			C73.4,110.4,73.3,110.4,73.3,110.4z"/>
		<path class="st0" d="M73.7,108.3c0-0.1,0-0.2,0-0.2c0,0.1,0,0.2,0,0.3C73.7,108.4,73.7,108.3,73.7,108.3z"/>
		<path class="st0" d="M68.7,99.6c0,0.7,0,1.4-0.1,2.1c-0.1,0.5-0.3,1-0.5,1.5c-0.3,0.7-0.6,1.5-0.5,2.3c0.1,0.8,0.4,1.6,0.9,2.2
			c-0.4-0.6-0.6-1.3-0.7-2c0-0.4,0-0.7,0.1-1.1c0,0,0,0,0,0c0.1-0.4,0.2-0.7,0.3-1c0.3-0.9,0.6-1.9,0.6-2.9c0-0.7,0.1-1.3,0.1-2
			c0-0.2,0.1-0.9-0.1-1.1c0,0,0,0.1-0.1,0.1c0,0.1,0,0.2,0,0.3C68.7,98.5,68.7,99.1,68.7,99.6z"/>
		<path class="st0" d="M69,108.3C69,108.3,69,108.3,69,108.3C69,108.3,69,108.3,69,108.3z"/>
		<path class="st0" d="M68.9,98.7c0,0.7-0.1,1.3-0.1,2c0,1-0.3,2-0.6,2.9c-0.1,0.3-0.2,0.6-0.3,1c0,0,0,0,0,0
			c0.2-0.9,0.7-1.8,0.9-2.7c0.2-1.2,0.1-2.5,0.2-3.7c0-0.1,0-0.1,0-0.2c0.1-0.8,0.2-1.7,0.6-2.4c0-0.1,0-0.2-0.1-0.2
			c-0.1,0-0.2,0-0.2,0.1c-0.4,0.7-0.5,1.5-0.6,2.2c0,0,0-0.1,0.1-0.1C69.1,97.8,68.9,98.5,68.9,98.7z"/>
		<path class="st0" d="M72.4,95.1c0-0.1-0.1-0.1-0.2-0.1C72,95,72,95.1,72,95.2c0,0,0,0.1,0,0.1l0.3-0.1
			C72.4,95.2,72.4,95.1,72.4,95.1z"/>
		<path class="st0" d="M73.1,105.9c0.1,0.8,0.1,1.6,0.2,2.4c0,0.1,0,0.2,0,0.3c0.1,0.5,0.1,1.2-0.2,1.5c-0.1,0.1-0.3,0.2-0.6,0.2
			c-0.3,0-0.6-0.1-0.9-0.3c0,0,0,0.1,0,0.1c0.4,0.2,0.8,0.4,1.2,0.4c0.2,0,0.4-0.1,0.5-0.1c0,0,0.1,0,0.1-0.1
			c0.4-0.4,0.3-1.2,0.3-1.8c0-0.1,0-0.1,0-0.2c0-0.1,0-0.2,0-0.3c-0.1-0.8-0.1-1.6-0.2-2.4C73.3,105.7,73.2,105.8,73.1,105.9z"/>
		<path class="st0" d="M67.9,105.7c0.1,0.7,0.3,1.4,0.7,2c0.1,0.2,0.3,0.4,0.4,0.6c0,0,0,0,0,0c0.2,0.3,0.5,0.5,0.9,0.7
			c0.2,0.2,0.5,0.3,0.7,0.5c0.2,0.1,0.5,0.3,0.7,0.4c0,0,0,0,0,0c0-0.1,0.1-0.1,0.1-0.1c-0.2-0.2-0.5-0.4-0.7-0.5
			c-0.3-0.2-0.5-0.4-0.7-0.5c-1.1-0.8-1.9-2-2-3.3c0-0.3,0-0.6,0.1-0.8c0,0,0,0-0.1-0.1C67.9,105,67.8,105.3,67.9,105.7z"/>
		<path class="st0" d="M71.5,110C71.5,110,71.5,110.1,71.5,110c0,0.1,0,0.1,0,0.1C71.6,110.1,71.6,110,71.5,110
			C71.6,110,71.6,110,71.5,110C71.5,110,71.5,110,71.5,110z"/>
		<path class="st0" d="M73.3,105.4c0,0,0,0.1-0.1,0.1c0,0-0.1,0.1-0.1,0.2c0,0.1,0,0.2,0,0.2c0.1-0.1,0.2-0.2,0.3-0.2
			c0-0.1,0-0.1,0-0.2L73.3,105.4C73.3,105.4,73.3,105.4,73.3,105.4z"/>
		<path class="st0" d="M72.4,98.4c0.2,0.7,0.4,1.7,0.4,2.7c0.1,1.2,0.2,2.4,0.3,3.6c0,0.3,0.1,0.6,0.1,1c0-0.1,0.1-0.1,0.1-0.2
			c0,0,0-0.1,0.1-0.1c-0.1-0.1-0.1-0.2,0-0.2c0,0,0,0,0,0c0-0.2,0-0.3,0-0.5c-0.1-1.2-0.2-2.4-0.3-3.6c0-1-0.2-2-0.4-2.8
			c-0.1-0.5-0.1-1-0.1-1.5c0-0.6-0.1-1.1-0.2-1.6l-0.3,0.1c0.2,0.5,0.2,1,0.2,1.5C72.2,97.4,72.2,97.9,72.4,98.4z"/>
		<path class="st0" d="M68,104.6C68,104.6,68,104.6,68,104.6c0.2-0.4,0.3-0.9,0.5-1.3c0.2-0.5,0.4-1,0.5-1.5
			c0.1-0.7,0.1-1.5,0.1-2.2c0-0.5,0-1,0-1.4c-0.1,1.2,0,2.5-0.2,3.7C68.6,102.8,68.2,103.7,68,104.6z"/>
		<path class="st0" d="M71.5,109.9c-0.1,0-0.1-0.1-0.2-0.1c-0.1,0-0.1,0-0.1,0.1c0,0,0,0,0,0c0.1,0.1,0.2,0.1,0.3,0.2
			C71.5,110.1,71.5,110,71.5,109.9C71.5,110,71.5,110,71.5,109.9z"/>
		<path class="st0" d="M62.4,123c-0.3-0.5-0.8-0.9-1.3-0.9c-0.1,0-0.2,0.1-0.2,0.2c0,0.1,0.1,0.2,0.2,0.2c0.3,0,0.8,0.3,1,0.7
			c0.2,0.3,0.2,0.6,0.1,0.8c0.1,0,0.2,0,0.4-0.1C62.6,123.6,62.5,123.3,62.4,123z"/>
		<path class="st0" d="M62.5,123.9c-0.1,0-0.2,0.1-0.4,0.1c0,0,0,0,0,0c-0.1,0-0.1,0.1,0.1,0.2c0,0,0.1,0,0.2-0.1
			C62.5,124,62.5,124,62.5,123.9z"/>
		<path class="st0" d="M61.9,113.7c0.1,0,0.2,0,0.2,0.1c0,0,0,0,0,0.1c0.6-0.1,1.1-0.1,1.4-0.4c0,0,0.1-0.1,0-0.2c0,0-0.1-0.1-0.2,0
			c-0.3,0.3-0.9,0.3-1.5,0.3c-0.3,0-0.5,0-0.7,0c-1.1,0.1-2,0.5-2.6,1.1c-0.1,0-0.1,0.1,0,0.2h0.1c0,0,0-0.1,0.1,0
			c0.5-0.6,1.3-0.9,2.4-1c0.1,0,0.4,0,0.6,0c0,0,0.1,0,0.1,0C61.8,113.8,61.8,113.7,61.9,113.7z"/>
		<path class="st0" d="M62,113.8c0-0.1-0.1-0.1-0.2-0.1c-0.1,0-0.1,0.1-0.1,0.2C61.9,113.9,62,113.9,62,113.8
			C62.1,113.8,62.1,113.8,62,113.8z"/>
		<path class="st0" d="M37.4,116.9C37.4,116.9,37.4,116.9,37.4,116.9c-0.2,0.3-0.4,0.5-0.7,0.7c-0.4,0.5-1.3,0.5-1.8,1.1
			c-0.4,0.6,0.4,1.3,0.8,1.6c0.5,0.4,1.1,0.7,1.8,0.6c0.8-0.1,1.7-0.3,2.2,0.5c0.2,0.3,0.3,0.7,0.3,1.1c0,0.1,0,0.2-0.1,0.3
			c0.1,0,0.1,0,0.1,0.1c0,0.1,0,0.2-0.1,0.2c0,0-0.1,0-0.1,0c0,0,0.1,0,0.1,0.1c0,0,0.1-0.1,0.3-0.1c0.5-0.6,0-1.4-0.1-1.6
			c-0.5-0.8-1.4-0.7-2.1-0.7c-0.2,0-0.5,0-0.7,0c-0.4-0.1-0.9-0.3-1.4-0.7c-0.5-0.4-1-0.9-0.8-1.2c0.1-0.2,0.5-0.4,0.7-0.5
			c0.8-0.3,1.5-0.6,2-1.3c0.3-0.4,0.5-0.8,0.6-1.3c-0.1,0-0.3,0-0.4,0C38,116.2,37.7,116.5,37.4,116.9z"/>
		<path class="st0" d="M38,115.7C38,115.7,38,115.7,38,115.7c0.1,0.1,0.3,0.1,0.4,0.1c0,0,0,0,0-0.1C38.3,115.7,38.2,115.7,38,115.7
			z"/>
		<path class="st0" d="M34.7,118.7c-0.3,0.6,0.4,1.3,0.9,1.7c0.6,0.4,1.1,0.7,1.6,0.7c0.3,0,0.5,0,0.8,0c0.7-0.1,1.4-0.1,1.8,0.5
			c0.1,0.2,0.4,0.7,0.2,1.2c0,0,0,0,0,0c0.1-0.1,0.1-0.2,0.1-0.3c0-0.4-0.1-0.8-0.3-1.1c-0.5-0.8-1.4-0.6-2.2-0.5
			c-0.7,0.1-1.3-0.2-1.8-0.6c-0.4-0.3-1.2-1-0.8-1.6c0.5-0.6,1.4-0.6,1.8-1.1c0.3-0.2,0.5-0.4,0.7-0.7c-0.5,0.6-1.2,0.9-1.9,1.2
			C35.2,118.2,34.9,118.4,34.7,118.7z"/>
		<path class="st0" d="M30.9,117.9C30.9,117.9,30.9,117.9,30.9,117.9c-0.1,0.2-0.1,0.3-0.2,0.4C30.8,118.1,30.8,118,30.9,117.9
			C30.9,117.9,30.9,117.9,30.9,117.9z"/>
		<path class="st0" d="M39.8,122.9c-0.1,0.1-0.3,0.1-0.5,0.2c-0.1,0-0.2,0-0.2,0.1c0,0,0,0-0.1,0c-0.1,0-0.1,0-0.1,0
			c-0.3,0.1-0.6,0.1-0.9,0.1c-0.8,0.1-1.6,0-2.4-0.4c-1-0.5-1.4-1.6-2.4-2.2s-2.7-0.7-2.6-2.1c0-0.1,0-0.2,0-0.3
			c-0.1,0.3-0.1,0.5,0,0.8c0.2,0.7,0.9,1.1,1.5,1.3c0.6,0.3,1.3,0.6,1.8,1.1c0.1,0.2,0.3,0.3,0.4,0.5c0.5,0.6,1.1,1.3,2,1.4
			c0.4,0.1,0.7,0.1,1,0.1c0.8,0,1.6-0.1,2.5-0.4C39.8,123.1,39.8,123,39.8,122.9z"/>
		<path class="st0" d="M31.1,117.6C31.1,117.6,31,117.6,31.1,117.6c-0.1,0.1-0.2,0.2-0.2,0.3c0,0,0,0,0,0
			C31,117.8,31,117.7,31.1,117.6z"/>
		<path class="st0" d="M31.4,117.1C31.5,117.1,31.5,117.1,31.4,117.1C31.5,117,31.4,117,31.4,117.1c-0.1,0-0.1,0-0.1,0.1
			C31.4,117.1,31.4,117.1,31.4,117.1C31.4,117.1,31.4,117.1,31.4,117.1z"/>
		<path class="st0" d="M33.2,120.7c1,0.6,1.4,1.7,2.4,2.2c0.8,0.4,1.6,0.5,2.4,0.4c0.3,0,0.6-0.1,0.9-0.1c0,0,0,0-0.1-0.1
			c0,0,0-0.1,0-0.1c-0.9,0.1-1.7,0.2-2.5,0.1c-0.8-0.1-1.3-0.7-1.8-1.3c-0.1-0.2-0.3-0.3-0.4-0.5c-0.6-0.6-1.3-0.9-2-1.2
			c-0.6-0.2-1.2-0.5-1.3-1.1c0-0.3,0-0.6,0.2-0.9c0-0.1,0.1-0.2,0.2-0.3c-0.1,0-0.2,0.1-0.3,0.1c-0.1,0.1-0.2,0.3-0.2,0.4
			c0,0,0,0,0,0c0,0.1,0,0.2,0,0.3C30.5,120,32.2,120.1,33.2,120.7z"/>
		<path class="st0" d="M39.9,122.8C39.9,122.8,39.9,122.8,39.9,122.8c-0.3,0.1-0.5,0.1-0.8,0.1c0,0.1,0,0.2,0,0.2
			c0.1,0,0.2,0,0.2-0.1c0.2,0,0.4-0.1,0.5-0.2C39.8,122.9,39.8,122.9,39.9,122.8C39.9,122.9,39.9,122.8,39.9,122.8z"/>
		<path class="st0" d="M31.4,117.1C31.5,117.1,31.5,117.1,31.4,117.1C31.5,117.1,31.5,117.1,31.4,117.1
			C31.5,117.1,31.5,117.1,31.4,117.1C31.4,117.1,31.4,117.1,31.4,117.1z"/>
		<path class="st0" d="M31.1,117.6c-0.1,0.1-0.1,0.2-0.2,0.3c0.1,0,0.2-0.1,0.3-0.1c0.1-0.1,0.1-0.2,0.2-0.3
			C31.3,117.5,31.2,117.6,31.1,117.6z"/>
		<path class="st0" d="M40,122.9c0-0.1,0-0.1-0.1-0.1c0,0-0.1,0.1-0.1,0.1c-0.1,0.1-0.1,0.1,0,0.2c0,0,0.1,0,0.1,0
			C40,123.1,40,123,40,122.9z"/>
		<path class="st0" d="M39.9,122.9C39.8,122.9,39.8,122.9,39.9,122.9C39.9,122.9,39.9,122.8,39.9,122.9
			C39.9,122.8,39.9,122.8,39.9,122.9C39.9,122.8,39.9,122.9,39.9,122.9z"/>
		<path class="st0" d="M23.7,122.5c-0.1,0-0.1,0.1-0.1,0.2s0.1,0.1,0.2,0.1c0.1,0,0.2,0,0.3,0.1c0.4,0.3,0.6,1.2,0.6,1.5
			c0,0.1,0.1,0.2,0.2,0.2s0.2,0,0-0.1c0-0.4-0.2-1.4-0.7-1.8C24.2,122.5,23.9,122.5,23.7,122.5z"/>
		<path class="st0" d="M39.2,122.9c-0.2-0.9-0.7-1.4-1.6-1.4c-0.1,0-0.2,0.1-0.2,0.2c0,0.1,0.1,0.2,0.2,0.2c0.7,0,1.1,0.4,1.3,1.1
			C38.9,123,39,123,39.2,122.9C39.1,122.9,39.2,122.9,39.2,122.9z"/>
		<path class="st0" d="M39,123.2C39.1,123.2,39.1,123.2,39,123.2c0,0,0,0-0.1,0C39,123.2,39,123.2,39,123.2z"/>
		<path class="st0" d="M39.1,122.9c-0.1,0-0.2,0-0.3,0.1c0,0,0,0.1,0,0.1c0,0,0.1,0.1,0.1,0.1c0.1,0,0.1,0,0.2,0
			C39.1,123.1,39.1,123,39.1,122.9z"/>
		<path class="st0" d="M26.7,124.3c-0.1-0.1-0.1-0.1-0.1-0.1h0c0,0,0,0.1-0.1,0.1c0,0,0,0,0,0c0,0,0,0,0,0c-0.1,0.2-0.3,0.3-0.6,0.4
			c-0.1,0-0.2,0-0.3,0.1c0.1,0,0.3,0.1,0.5,0.1c0.3,0,0.5-0.2,0.8-0.4c0.2-0.2,0.2-0.4,0.2-0.7c0-0.1-0.1-0.2-0.2-0.2c0,0,0,0,0,0
			C26.9,123.8,26.8,124.1,26.7,124.3z"/>
		<path class="st0" d="M21.5,120.8c0.1-0.5,0.3-1.1,0.4-1.6c0.1-0.6,0.2-1.1,0.2-1.7c0-0.4,0-0.7,0.1-1.1c0.1-0.7,0.4-1.3,1.1-1.6
			c0.3-0.2,0.7-0.2,1-0.3c0.3-0.1,0.7-0.3,1-0.5c0.2-0.1,0.4-0.3,0.6-0.6c0-0.1-0.1-0.1-0.1-0.2c0,0,0,0,0,0c0,0,0,0,0,0
			c-0.3,0.5-0.8,0.9-1.2,1.1c-0.3,0.1-0.5,0.1-0.8,0.2c-0.6,0.1-1.1,0.2-1.5,0.9c-0.3,0.6-0.3,1.2-0.3,1.8c0,0.3,0.1,0.7,0,1
			c-0.1,0.4-0.2,0.7-0.3,1.1c-0.2,0.9-0.5,1.8-0.1,2.8c0.1,0.3,0.3,0.7,0.5,0.9c-0.1-0.1-0.1-0.2-0.2-0.3
			C21.5,122.1,21.4,121.4,21.5,120.8z"/>
		<path class="st0" d="M26.4,124.3c-0.2,0.2-0.4,0.3-0.6,0.3c-0.5,0.1-1,0.1-1.4,0c-1.3-0.2-2.2-1.3-2.5-2.3
			c-0.4-0.9-0.1-1.7,0.1-2.6c0.1-0.4,0.2-0.8,0.3-1.2c0-0.4,0-0.8,0-1.1c0-0.6,0-1.2,0.3-1.7c0.3-0.6,0.7-0.7,1.2-0.8
			c0.3-0.1,0.6-0.2,0.9-0.3c0.5-0.2,0.9-0.6,1.2-1.1c0,0,0-0.1-0.1-0.1c-0.2,0.2-0.3,0.4-0.6,0.6c-0.3,0.2-0.7,0.4-1,0.5
			c-0.3,0.1-0.7,0.1-1,0.3c-0.7,0.3-1,0.9-1.1,1.6c-0.1,0.4-0.1,0.7-0.1,1.1c0,0.6-0.1,1.1-0.2,1.7c-0.1,0.5-0.3,1.1-0.4,1.6
			c-0.1,0.6,0,1.3,0.3,1.9c0.1,0.1,0.1,0.2,0.2,0.3c0.5,0.8,1.3,1.4,2.2,1.6c0.2,0.1,0.4,0.1,0.7,0.1c0.2,0,0.4,0,0.6,0.1
			c0.1,0,0.2,0,0.3-0.1C26.1,124.6,26.3,124.5,26.4,124.3z"/>
		<path class="st0" d="M26.5,124.3C26.5,124.3,26.5,124.2,26.5,124.3L26.5,124.3C26.5,124.2,26.5,124.3,26.5,124.3z"/>
		<path class="st0" d="M25.8,113.3c0,0.1,0,0.1,0.1,0.2c0,0,0,0,0,0C25.9,113.3,25.9,113.3,25.8,113.3z"/>
		<path class="st0" d="M25.8,113.2C25.8,113.2,25.8,113.2,25.8,113.2C25.8,113.2,25.8,113.2,25.8,113.2
			C25.8,113.2,25.8,113.2,25.8,113.2z"/>
		<path class="st0" d="M26.1,113.1l-0.2,0.3c0,0,0,0,0,0c0,0,0,0,0,0c0,0,0,0.1,0.1,0.1C26,113.4,26.1,113.3,26.1,113.1
			C26.2,113.2,26.1,113.1,26.1,113.1z"/>
		<path class="st0" d="M24.5,121.2c0.1,0.3,0.3,0.5,0.6,0.6c0.1,0,0.1,0,0.2,0.1c0.2,0,0.4,0.1,0.5,0.2c0.2,0.1,0.3,0.3,0.4,0.4
			c0.1,0.1,0.2,0.2,0.2,0.3c0.2,0.3,0.2,0.7,0.2,1c0-0.1,0.1-0.2,0.2-0.2c0-0.2,0-0.4-0.1-0.6c-0.1-0.3-0.3-0.7-0.7-1
			c-0.1-0.2-0.4-0.2-0.6-0.3c-0.3-0.1-0.6-0.2-0.7-0.4c-0.3-0.6-0.3-1.4,0.1-2.2c0.1-0.1,0.1-0.2,0.2-0.3c0,0-0.1,0.1-0.1,0.1
			C24.4,119.5,24.2,120.5,24.5,121.2z"/>
		<path class="st0" d="M26.6,124C26.6,124.1,26.6,124.1,26.6,124C26.6,124.1,26.6,124.1,26.6,124z"/>
		<path class="st0" d="M26.2,118.1c0.3,0,0.7,0,1,0c0.5,0,1,0.1,1.5,0c0.7-0.1,1.6-0.2,2.4-0.5c0.1-0.2,0.2-0.3,0.3-0.5
			c-0.8,0.3-1.7,0.4-2.7,0.5c-0.5,0-0.9,0-1.4,0c-0.3,0-0.7,0-1,0c-0.7,0.1-1.2,0.5-1.6,1.2c-0.4,0.7-0.6,1.8-0.1,2.5
			c0.2,0.2,0.4,0.3,0.6,0.4c-0.3-0.2-0.5-0.3-0.6-0.6c-0.3-0.7-0.1-1.7,0.4-2.3c0,0,0.1-0.1,0.1-0.1
			C25.3,118.4,25.7,118.1,26.2,118.1z"/>
		<path class="st0" d="M32.2,116.7c0.2-0.1,0.3-0.2,0.4-0.3C32.5,116.6,32.4,116.7,32.2,116.7z"/>
		<path class="st0" d="M31.9,116.9c-0.1,0-0.1,0-0.2,0.1c0,0,0,0,0,0C31.8,117,31.8,117,31.9,116.9z"/>
		<path class="st0" d="M26.4,124c-0.1,0-0.1,0.1,0,0.2h0.1c0,0,0,0,0-0.1c0,0,0-0.1,0-0.1c0-0.1,0.1-0.2,0.1-0.2c0,0,0,0,0,0
			c0-0.3,0-0.6-0.2-1c-0.1-0.1-0.1-0.2-0.2-0.3c0.1,0.2,0.2,0.3,0.2,0.5C26.5,123.4,26.7,123.8,26.4,124z"/>
		<path class="st0" d="M34.8,114.8c0-0.1,0.1-0.1,0.2-0.2c0.6-0.8,1.1-1.6,1.9-2.1c0,0,0.1-0.1,0-0.2c0,0-0.1-0.1-0.2,0
			c-0.8,0.5-1.4,1.3-2,2.1c-0.1,0.1-0.1,0.2-0.2,0.3c0,0,0,0,0,0C34.6,114.7,34.7,114.8,34.8,114.8z"/>
		<path class="st0" d="M32.8,116.9c0.1-0.1,0.3-0.2,0.4-0.3c0.4-0.4,0.8-0.8,1.2-1.2C33.8,115.7,33.3,116.4,32.8,116.9z"/>
		<path class="st0" d="M31.5,117.1c0.1,0.1,0.1,0.1,0,0.2c0,0.1-0.1,0.1-0.1,0.2c0.5-0.2,0.9-0.4,1.4-0.6c0.5-0.5,1-1.1,1.5-1.5
			c0.1-0.1,0.2-0.2,0.3-0.3c-0.1,0-0.2,0-0.2-0.1c-0.1,0-0.1,0-0.1-0.1c-0.4,0.5-0.8,1-1.3,1.4c-0.1,0.1-0.2,0.1-0.3,0.2
			c-0.1,0.1-0.3,0.2-0.4,0.3c-0.1,0.1-0.3,0.1-0.4,0.2c0,0-0.1,0-0.1,0.1c0,0,0,0,0,0C31.6,117,31.6,117,31.5,117.1
			C31.5,117.1,31.5,117.1,31.5,117.1z"/>
		<path class="st0" d="M31.4,117.1c0,0-0.1,0-0.1,0.1c-0.1,0.2-0.2,0.3-0.3,0.5c0,0,0,0,0.1,0c0.1-0.1,0.1-0.1,0.2-0.2
			C31.3,117.3,31.4,117.2,31.4,117.1z"/>
		<path class="st0" d="M31.5,117.3c0.1-0.1,0.1-0.1,0-0.2c0,0,0,0,0,0c0,0-0.1,0-0.1,0c-0.1,0.1-0.1,0.2-0.2,0.3
			c-0.1,0.1-0.1,0.1-0.2,0.2c0.1,0,0.2-0.1,0.3-0.1C31.5,117.4,31.5,117.4,31.5,117.3z"/>
		<path class="st0" d="M26.7,123.8c0,0.1,0,0.2-0.1,0.3c0,0,0,0.1,0,0.1c0,0,0,0,0,0.1h0c0,0,0,0,0.1,0.1c0.2-0.2,0.2-0.5,0.2-0.7
			C26.8,123.6,26.7,123.7,26.7,123.8z"/>
		<path class="st0" d="M26.5,124.2C26.5,124.2,26.5,124.2,26.5,124.2C26.5,124.2,26.5,124.2,26.5,124.2L26.5,124.2z"/>
		<path class="st0" d="M26.6,124c0-0.1,0-0.2,0.1-0.3c0,0,0,0,0,0C26.7,123.9,26.6,124,26.6,124z"/>
		<path class="st0" d="M34.4,114.7c0,0-0.1,0-0.1,0C34.3,114.7,34.4,114.7,34.4,114.7C34.4,114.7,34.4,114.7,34.4,114.7z"/>
		<path class="st0" d="M35.2,114.9c0.2,0.1,0.4,0.1,0.6,0.1c-0.3-0.1-0.6-0.2-0.9-0.3c0,0,0,0,0,0.1C34.9,114.9,35,114.9,35.2,114.9
			z"/>
		<path class="st0" d="M49.2,117.1c-2.1-0.5-4.3-1.1-6.5-1.4c-1-0.1-1.9-0.1-2.8-0.2c-0.7,0-1.3-0.1-1.9-0.1c0,0.1,0,0.2,0,0.3
			c0,0,0.1,0,0.1,0c0,0,0-0.1,0-0.1c0-0.1,0.1-0.2,0.2-0.2c0.1,0,0.2,0.1,0.2,0.2c0,0,0,0.1,0,0.1c0.5,0,0.9,0.1,1.4,0.1
			c0.9,0,1.9,0.1,2.8,0.2c2.2,0.2,4.4,0.8,6.5,1.4c2.7,0.7,5.4,1.5,8.2,1.6c0,0,0.1,0,0.1,0c0-0.1,0-0.1,0-0.2c0,0,0-0.1,0-0.1
			c-0.1,0-0.1,0-0.2,0C54.4,118.5,51.7,117.8,49.2,117.1z"/>
		<path class="st0" d="M34.8,114.8c-0.1,0.1-0.1,0.1-0.2,0.2c1.1,0.3,2.2,0.5,3.3,0.6c0-0.1,0-0.2,0-0.3c-0.7-0.1-1.5-0.2-2.2-0.3
			c-0.2,0-0.4-0.1-0.6-0.1C35,114.9,34.9,114.9,34.8,114.8z"/>
		<path class="st0" d="M34.3,114.9c0-0.1,0.1-0.1,0.1-0.2c0,0-0.1,0-0.1,0c0,0-0.1,0-0.1,0.1C34.2,114.8,34.3,114.9,34.3,114.9z"/>
		<path class="st0" d="M57.5,119c0.1,0,0.1,0,0.2,0c0,0,0.1-0.1,0-0.1c0.1-0.1,0-0.2-0.1-0.2c0,0-0.1,0-0.1,0c0,0,0,0.1,0,0.1
			C57.5,118.9,57.5,118.9,57.5,119z"/>
		<path class="st0" d="M38.2,115.4c-0.1,0-0.2,0.1-0.2,0.2c0,0,0,0.1,0,0.1c0.1,0,0.3,0,0.4,0c0,0,0-0.1,0-0.1
			C38.4,115.5,38.4,115.4,38.2,115.4z"/>
		<path class="st0" d="M34.8,114.8C34.8,114.8,34.8,114.8,34.8,114.8c-0.1-0.1-0.2-0.1-0.3-0.1c0,0,0,0,0,0c0,0,0,0,0,0
			C34.5,114.8,34.6,114.8,34.8,114.8z"/>
		<path class="st0" d="M34.4,114.7c0,0.1-0.1,0.1-0.1,0.2c0,0,0,0.1,0.1,0.1c0.1,0,0.2,0,0.2,0.1c0.1-0.1,0.1-0.1,0.2-0.2
			C34.6,114.8,34.5,114.8,34.4,114.7z"/>
		<path class="st0" d="M80.5,96.6L80.5,96.6c-0.1-0.1-0.1-0.1-0.2,0C80.4,96.6,80.4,96.6,80.5,96.6C80.4,96.6,80.5,96.6,80.5,96.6z"
			/>
		<path class="st0" d="M80.4,96.6C80.4,96.6,80.4,96.6,80.4,96.6C80.3,96.6,80.3,96.6,80.4,96.6C80.4,96.6,80.4,96.6,80.4,96.6z"/>
		<path class="st0" d="M80.4,96.6L80.4,96.6L80.4,96.6C80.5,96.6,80.4,96.6,80.4,96.6C80.4,96.6,80.4,96.6,80.4,96.6z"/>
		<path class="st0" d="M80.4,96.6L80.4,96.6C80.4,96.6,80.4,96.6,80.4,96.6C80.4,96.6,80.4,96.6,80.4,96.6c-0.1,0-0.2,0.2-0.3,0.3
			c0,0,0.1,0,0.1,0C80.2,96.8,80.3,96.7,80.4,96.6z"/>
		<path class="st0" d="M74.4,93.6c0,0-0.1-0.1-0.2,0c0,0-0.1,0.1,0,0.2c0.4,0.5,0.1,1.5-0.2,2.2c0,0.1-0.1,0.3-0.1,0.4
			c-0.4,1.1-0.4,2.3-0.4,3.5c0,0.1,0.1,0.2,0.2,0.2c0.1,0,0.2-0.1,0-0.2c0-1.1,0-2.3,0.4-3.4c0-0.1,0-0.3,0.1-0.4
			C74.4,95.3,74.9,94.3,74.4,93.6z"/>
		<path class="st0" d="M80.9,99.9C80.9,99.9,80.9,99.9,80.9,99.9C80.9,99.9,80.9,99.9,80.9,99.9C80.9,99.9,80.9,99.9,80.9,99.9z"/>
		<path class="st0" d="M81.7,97.6c-0.1-0.4-0.3-0.7-0.9-0.9c0.1,0,0.1,0,0.1,0.1c0,0,0,0,0,0c0.4,0.2,0.7,0.6,0.6,0.9
			c0.1,0.5-0.1,1.1-0.3,1.6c0,0.2-0.1,0.4-0.2,0.6c0,0,0,0,0,0c0,0,0,0.1,0,0.2L81,100C81.5,99.1,81.7,98.3,81.7,97.6z"/>
		<path class="st0" d="M81.1,99.2c-0.1,0.2-0.2,0.4-0.2,0.6c0,0,0,0,0.1,0.1C81,99.7,81.1,99.5,81.1,99.2c0.2-0.4,0.4-1,0.4-1.5
			c0,0.1,0,0.2,0,0.3C81.4,98.3,81.3,98.8,81.1,99.2z"/>
		<path class="st0" d="M80.9,99.9C80.9,99.9,80.9,99.9,80.9,99.9C80.9,99.8,80.9,99.9,80.9,99.9z"/>
		<path class="st0" d="M80.9,99.9C80.9,99.9,80.9,99.9,80.9,99.9C80.9,99.9,80.9,99.9,80.9,99.9C80.9,99.9,80.9,99.9,80.9,99.9z"/>
		<path class="st0" d="M80.9,99.9C80.9,99.9,80.9,99.9,80.9,99.9C80.9,99.9,80.9,99.9,80.9,99.9C80.9,99.9,80.9,99.9,80.9,99.9z"/>
		<path class="st0" d="M80.9,99.9c0,0.1-0.1,0.2-0.1,0.3c0,0.1,0.1,0.2,0.1,0.2l0.1-0.3C81,100,80.9,99.9,80.9,99.9
			C80.9,99.9,80.9,99.9,80.9,99.9z"/>
		<path class="st0" d="M80.9,99.8C80.9,99.8,80.9,99.9,80.9,99.8l-0.1,0.2c0,0.1,0,0.1,0,0.2C80.8,100.1,80.9,100,80.9,99.8
			C80.9,99.9,80.9,99.9,80.9,99.8C80.9,99.9,80.9,99.9,80.9,99.8C80.9,99.9,80.9,99.9,80.9,99.8C80.9,99.9,80.9,99.8,80.9,99.8
			C80.9,99.9,80.9,99.9,80.9,99.8C80.9,99.8,80.9,99.8,80.9,99.8z"/>
		<path class="st0" d="M80.5,96.7c0,0,0.1,0,0.1,0.1c0.1,0,0.1,0.1,0.2,0.1c0-0.1,0-0.1-0.1-0.1L80.5,96.7L80.5,96.7z"/>
		<path class="st0" d="M80.6,96.7c0,0-0.1,0-0.1-0.1L80.6,96.7C80.6,96.7,80.6,96.7,80.6,96.7z"/>
		<path class="st0" d="M81.2,97.2c0.1,0.2,0.2,0.4,0.2,0.5c0-0.4-0.2-0.7-0.6-0.9c0,0,0,0,0,0c0,0,0,0,0,0
			C81,96.9,81.1,97,81.2,97.2z"/>
		<path class="st0" d="M80.8,96.8C80.8,96.8,80.9,96.9,80.8,96.8c0,0.2-0.1,0.2-0.2,0.2c-0.2,0-0.3-0.1-0.5-0.1c0,0,0,0,0,0l0.5,0.2
			c0.4,0.2,0.6,0.4,0.7,0.6c0.1,0.4,0,1-0.2,1.5c0.2-0.4,0.3-0.9,0.3-1.2c0-0.1,0-0.2,0-0.3c0-0.2-0.1-0.4-0.2-0.5
			C81.1,97,81,96.9,80.8,96.8z"/>
		<path class="st0" d="M80.5,96.6L80.5,96.6C80.5,96.6,80.5,96.6,80.5,96.6L80.5,96.6z"/>
		<path class="st0" d="M80.8,96.8C80.8,96.8,80.8,96.8,80.8,96.8c-0.1,0-0.1-0.1-0.2-0.1C80.7,96.7,80.8,96.8,80.8,96.8z"/>
		<path class="st0" d="M80.2,96.9c0.2,0,0.3,0.1,0.5,0.1c0.1,0,0.2,0,0.2-0.1c0,0,0-0.1,0-0.1c-0.1,0-0.2-0.1-0.2-0.1c0,0,0,0-0.1,0
			l0,0c0,0-0.1,0-0.1,0l-0.1,0C80.3,96.7,80.2,96.8,80.2,96.9z"/>
		<path class="st0" d="M75.7,103.1c0.1,0,0.1,0,0.2,0c0.1-0.1,0.1-0.1,0.1-0.1c0,0,0,0,0,0C75.9,103,75.8,103.1,75.7,103.1z"/>
		<path class="st0" d="M73.9,104.9c0,0.1-0.1,0.2-0.1,0.3C73.8,105.1,73.9,105,73.9,104.9z"/>
		<path class="st0" d="M74.2,103.6c0,0.1-0.1,0.1-0.1,0.2c0,0.1-0.1,0.2-0.1,0.4C74,103.9,74.1,103.7,74.2,103.6
			c0.3-0.3,0.5-0.4,0.7-0.4C74.6,103.2,74.3,103.3,74.2,103.6z"/>
		<path class="st0" d="M73.9,104.5L73.9,104.5c0-0.2,0-0.2,0-0.2c0,0.2,0,0.4-0.1,0.6C73.9,104.8,73.9,104.6,73.9,104.5z"/>
		<path class="st0" d="M75.2,103.1c0,0,0.1,0,0.1,0C75.3,103.1,75.2,103.1,75.2,103.1C75.2,103.1,75.2,103.1,75.2,103.1z"/>
		<path class="st0" d="M75.9,103C76,103,76,103,75.9,103c0.1,0,0.1-0.1,0.1-0.1C76,102.9,76,103,75.9,103z"/>
		<path class="st0" d="M74.8,103.1c-0.2,0.1-0.4,0.2-0.6,0.5c0.2-0.2,0.5-0.4,0.7-0.4c0.1,0,0.2,0,0.3,0c0,0,0,0,0,0c0,0,0,0,0.1,0
			C75.1,103.1,74.9,103.1,74.8,103.1z"/>
		<path class="st0" d="M76.2,102.7C76.2,102.7,76.2,102.7,76.2,102.7c-0.1,0.1-0.1,0.1-0.2,0.2C76.1,102.8,76.2,102.8,76.2,102.7z"
			/>
		<path class="st0" d="M73.9,104c-0.1,0.4-0.2,0.7-0.4,1.1c0,0-0.1,0-0.1,0.1c0,0.1,0,0.2,0,0.3h0.1c0.1-0.1,0.2-0.2,0.2-0.3
			c0-0.1,0.1-0.2,0.1-0.3c0,0,0,0,0,0c0-0.2,0-0.4,0.1-0.6c0,0,0,0,0-0.1c0,0,0,0,0,0c0-0.1,0-0.3,0.1-0.4
			C74,103.9,74,103.9,73.9,104z"/>
		<path class="st0" d="M74,103.8c0-0.1,0.1-0.2,0.1-0.2C74.1,103.6,74.1,103.6,74,103.8C74,103.7,74,103.8,74,103.8z"/>
		<path class="st0" d="M75.2,103.1C75.2,103.1,75.3,103.1,75.2,103.1c0.1,0,0.2,0,0.2,0c0.1,0,0.2,0,0.2,0c0.1,0,0.2-0.1,0.3-0.1
			C75.7,103,75.5,103.1,75.2,103.1z"/>
		<path class="st0" d="M75.2,102.8c-0.4,0-0.7,0.2-1.1,0.5c-0.3,0.3-0.3,0.5-0.4,0.9c0,0,0,0.1,0,0.2v0.1c0,0.2-0.1,0.5-0.2,0.6
			c0,0,0,0,0,0.1c0-0.1,0.1-0.1,0.1-0.1c0.2-0.4,0.3-0.7,0.4-1.1c0-0.1,0-0.1,0.1-0.2c0,0,0-0.1,0-0.1c0-0.1,0.1-0.1,0.1-0.1
			c0.1-0.2,0.3-0.4,0.6-0.5c0.2,0,0.3,0,0.5,0c0.3,0,0.5-0.1,0.7-0.1c0,0,0.1,0,0.1-0.1c0,0,0,0,0,0c0.1-0.1,0.1-0.1,0.2-0.2
			c-0.2,0.1-0.5,0.1-0.7,0.1C75.4,102.8,75.4,102.8,75.2,102.8z"/>
		<path class="st0" d="M73.4,105.5L73.4,105.5L73.4,105.5c0-0.1,0-0.2,0-0.3c0,0,0,0,0,0C73.4,105.3,73.4,105.4,73.4,105.5z"/>
		<path class="st0" d="M73.4,105.2C73.4,105.2,73.4,105.2,73.4,105.2C73.4,105.2,73.4,105.2,73.4,105.2
			C73.4,105.2,73.4,105.1,73.4,105.2C73.4,105.1,73.4,105.2,73.4,105.2z"/>
		<path class="st0" d="M73.3,105.4C73.3,105.4,73.3,105.4,73.3,105.4l0.1,0.1c0-0.1,0-0.2,0-0.2C73.4,105.3,73.3,105.3,73.3,105.4z"
			/>
		<path class="st0" d="M73.3,105.4c0,0,0-0.1,0.1-0.1c0,0,0,0,0-0.1c0,0,0,0,0,0C73.3,105.2,73.3,105.3,73.3,105.4z"/>
		<path class="st0" d="M67.7,93c0.1-0.1,0.3-0.3,0.5-0.4c0.1-0.1,0.2-0.2,0.3-0.3c0.2-0.1,0.4-0.2,0.6-0.2c0.2-0.1,0.5-0.2,0.7-0.2
			c0.9,0,2.5,0.2,3.3,0.5c0.3,0.1,0.7,0.3,1.1,0.5c0.1,0,0.1,0.1,0.2,0.1c0.7,0.4,1.3,0.8,1.4,1.1c0.1,0.3,0.2,0.5,0.4,0.8
			c0,0.1,0.1,0.1,0.1,0.2c0,0,0.1,0.1,0.1,0.1c0.1,0.1,0.2,0.2,0.4,0.3c0,0,0.1,0.1,0.1,0.1c0.4,0.2,0.8,0.2,1.2,0.4
			c0,0,0-0.1,0-0.1c-0.2-0.1-0.4-0.1-0.4-0.1c-0.4-0.1-0.7-0.3-1-0.4c-0.2-0.1-0.4-0.4-0.5-0.7c-0.1-0.2-0.2-0.4-0.3-0.6
			c-1.2-1.5-3.6-2.1-4.3-2.2c-1.4-0.3-2.5-0.2-3.2,0.2c-0.5,0.3-0.9,0.8-1.2,1.3c-0.1,0.1-0.2,0.3-0.3,0.4l0,0c0,0,0,0.1,0,0.2
			C67.2,93.7,67.5,93.3,67.7,93z"/>
		<path class="st0" d="M74.2,92.9c0.1,0,0.1,0.1,0.2,0.1C74.3,93,74.3,93,74.2,92.9z"/>
		<path class="st0" d="M76.2,94.9c0,0.1,0.1,0.1,0.1,0.2C76.3,95,76.3,94.9,76.2,94.9z"/>
		<path class="st0" d="M76.8,95.5c0.2,0.2,0.5,0.3,0.7,0.4c0.1,0.1,0.2,0.1,0.3,0.1c0,0,0.1,0,0.1,0c0.1,0.1,0.2,0.1,0.3,0.1
			c0,0-0.1-0.1-0.1-0.1c-0.4-0.2-0.8-0.2-1.2-0.4C76.9,95.6,76.9,95.5,76.8,95.5z"/>
		<path class="st0" d="M67.4,93.4c0.1-0.1,0.2-0.2,0.3-0.3c0.1-0.2,0.3-0.3,0.4-0.5c-0.2,0.1-0.3,0.3-0.5,0.4
			c-0.3,0.3-0.5,0.7-0.8,1c0,0,0,0.1,0,0.1C67.1,93.9,67.3,93.6,67.4,93.4z"/>
		<path class="st0" d="M76.8,95.5c-0.1-0.1-0.3-0.2-0.4-0.3c0,0-0.1-0.1-0.1-0.1C76.5,95.2,76.6,95.4,76.8,95.5z"/>
		<path class="st0" d="M76.2,94.9c-0.1-0.2-0.2-0.5-0.4-0.8c-0.1-0.2-0.8-0.7-1.4-1.1c0.4,0.2,0.7,0.5,1,0.8
			C75.8,94.1,76,94.5,76.2,94.9z"/>
		<path class="st0" d="M70.9,92.1c0.7,0.1,1.3,0.3,2,0.4c0.5,0,0.9,0.2,1.3,0.4c-0.4-0.2-0.8-0.4-1.1-0.5c-0.8-0.3-2.4-0.5-3.3-0.5
			c-0.2,0-0.5,0.1-0.7,0.2C69.6,92,70.2,92,70.9,92.1z"/>
		<path class="st0" d="M70.9,92.1c0.2,0,0.4,0.1,0.6,0.1c1.4,0.3,3.2,1,4.1,2.1c0.1,0.1,0.2,0.3,0.3,0.5c0.2,0.3,0.3,0.6,0.6,0.8
			c0.3,0.2,0.6,0.3,1.1,0.5c0,0,0.1,0,0.1,0c0,0,0,0,0,0c0,0,0-0.1,0.1-0.1c-0.1,0-0.2-0.1-0.3-0.1c-0.3-0.1-0.5-0.2-0.7-0.4
			c-0.2-0.1-0.4-0.3-0.5-0.5c0-0.1-0.1-0.1-0.1-0.2c-0.2-0.4-0.4-0.8-0.8-1.1c-0.3-0.3-0.7-0.5-1-0.8c-0.1,0-0.1-0.1-0.2-0.1
			c-0.4-0.2-0.8-0.4-1.3-0.4C72.2,92.4,71.6,92.2,70.9,92.1z"/>
		<path class="st0" d="M66.9,94.1C66.9,94.1,66.9,94.1,66.9,94.1L66.9,94.1L66.9,94.1L66.9,94.1c0,0.1,0,0.1,0,0.1
			c0.1-0.1,0.2-0.2,0.2-0.3c0.1-0.1,0.2-0.3,0.3-0.4c0.1-0.1,0.2-0.3,0.3-0.4c-0.1,0.1-0.2,0.2-0.3,0.3
			C67.3,93.6,67.1,93.9,66.9,94.1z"/>
		<path class="st0" d="M66.9,94C66.9,94,66.9,94,66.9,94c0-0.1,0-0.1,0-0.2l0,0C66.9,93.9,66.9,94,66.9,94z"/>
		<path class="st0" d="M66.9,94.1C66.9,94.1,66.9,94,66.9,94.1C66.9,94,66.9,94,66.9,94.1C66.9,94,66.9,94.1,66.9,94.1
			C66.9,94.1,66.9,94.1,66.9,94.1z"/>
		<path class="st0" d="M66.9,94.1C66.9,94.1,66.9,94.1,66.9,94.1C66.9,94.1,66.9,94.1,66.9,94.1C66.9,94.1,66.9,94.1,66.9,94.1
			L66.9,94.1z"/>
		<path class="st0" d="M66.9,94.1C66.9,94.1,66.9,94.1,66.9,94.1C66.9,94.1,66.9,94.2,66.9,94.1C66.9,94.2,66.9,94.1,66.9,94.1
			C66.9,94.1,66.9,94.1,66.9,94.1z"/>
		<path class="st0" d="M66.9,94.1C66.9,94.1,66.9,94.1,66.9,94.1C66.9,94.1,66.9,94.1,66.9,94.1C66.9,94.1,66.9,94.1,66.9,94.1
			C66.9,94.1,66.9,94.1,66.9,94.1L66.9,94.1z"/>
		<polygon class="st0" points="66.9,94.1 66.9,94.1 66.9,94.1 		"/>
		<path class="st0" d="M78.4,96.4c-0.1-0.1-0.1-0.2-0.2-0.3c-0.1,0-0.2,0-0.3-0.1c-0.1,0-0.1,0-0.1,0c0.1,0,0.2,0,0.2,0.1
			C78.2,96.1,78.4,96.3,78.4,96.4z"/>
		<path class="st0" d="M77.8,96.1c0.1,0,0.3,0.1,0.5,0.2l0.2,0.1c0,0,0,0,0,0c-0.1-0.1-0.2-0.3-0.4-0.3C78,96.1,77.9,96,77.8,96.1
			C77.8,96,77.7,96.1,77.8,96.1C77.7,96.1,77.8,96.1,77.8,96.1z"/>
		<path class="st0" d="M66.6,94.1c0.1,0,0.1-0.1,0.2-0.2c0,0,0,0-0.1,0.1c-0.1,0.1-0.2,0.2-0.4,0.4C66.4,94.3,66.5,94.2,66.6,94.1z"
			/>
		<path class="st0" d="M62.9,100.1C62.9,100.1,62.9,100.1,62.9,100.1C62.9,100.1,62.9,100.1,62.9,100.1c0.1,0,0.1,0,0.1-0.1
			c0,0,0-0.1,0-0.1c-0.1,0-0.2,0-0.2,0c0-0.1,0.2-0.3,0.2-0.5c-0.1,0.2-0.2,0.4-0.3,0.6c0,0,0,0.1,0,0.1
			C62.8,100,62.9,100,62.9,100.1z"/>
		<path class="st0" d="M63,99.9c0.1-0.1,0.1-0.3,0.2-0.4c0.2-0.7,0.5-1.3,0.9-2c0,0,0-0.1,0.1-0.1c0.1-0.3,0.3-0.6,0.5-0.8
			c0.1-0.3,0.3-0.5,0.5-0.7c0.4-0.6,1-0.9,1.5-1.4c0.1-0.1,0.3-0.2,0.4-0.4c0,0,0-0.1-0.1-0.1l0,0c0,0,0-0.1,0-0.1
			c0,0-0.1,0.1-0.1,0.1c-0.1,0.1-0.1,0.2-0.2,0.2c-0.1,0.1-0.2,0.2-0.3,0.3c-0.2,0.2-0.4,0.4-0.6,0.6c-0.4,0.3-0.7,0.6-1,1
			c-0.6,0.7-0.9,1.3-1.1,2c-0.1,0.2-0.1,0.3-0.2,0.5c-0.1,0.1-0.1,0.3-0.2,0.4c0,0.2-0.1,0.4-0.2,0.5c0,0.2-0.2,0.4-0.2,0.5
			C62.8,99.9,62.9,99.9,63,99.9z"/>
		<path class="st0" d="M63.7,98.5c0.1-0.2,0.1-0.3,0.2-0.5c0.1-0.2,0.2-0.4,0.3-0.6c0,0,0,0.1-0.1,0.1c-0.4,0.7-0.7,1.2-0.9,2
			c0.1-0.2,0.2-0.4,0.3-0.6C63.6,98.8,63.6,98.6,63.7,98.5z"/>
		<path class="st0" d="M65.9,95.1c0.3-0.3,0.6-0.6,0.9-0.9c0,0,0-0.1,0.1-0.1c0,0,0,0,0,0c0,0,0,0,0-0.1c-0.1,0.1-0.2,0.3-0.4,0.4
			c-0.5,0.5-1.1,0.8-1.5,1.4c-0.2,0.2-0.3,0.5-0.5,0.7c0.1-0.1,0.2-0.3,0.4-0.4C65.2,95.8,65.7,95.4,65.9,95.1z"/>
		<path class="st0" d="M66.9,94.1C66.9,94.1,66.9,94.1,66.9,94.1C66.9,94.2,66.9,94.3,66.9,94.1z"/>
		<path class="st0" d="M66.9,94.1C66.9,94.1,66.9,94.1,66.9,94.1C66.9,94.1,66.9,94.1,66.9,94.1C66.9,94.1,66.9,94.1,66.9,94.1z"/>
		<path class="st0" d="M62.9,100.1C62.9,100.1,62.9,100.1,62.9,100.1c0-0.1-0.1-0.1-0.2-0.1C62.7,100.2,62.8,100.2,62.9,100.1z"/>
		<polygon class="st0" points="66.9,94.1 66.9,94.1 66.9,94.1 		"/>
		<path class="st0" d="M66.9,93.9L66.9,93.9c0,0.1,0,0.1,0,0.2c0,0,0,0,0,0C66.9,94,66.9,93.9,66.9,93.9z"/>
		<path class="st0" d="M66.9,94.1C66.9,94.1,66.9,94,66.9,94.1C66.9,94,66.9,94,66.9,94.1C66.9,94.1,66.9,94.1,66.9,94.1
			C66.9,94.1,66.9,94.1,66.9,94.1z"/>
		<polygon class="st0" points="66.9,94.1 66.9,94.1 66.9,94.1 66.9,94.1 		"/>
		<polygon class="st0" points="66.9,94.1 66.9,94.1 66.9,94.1 		"/>
		<path class="st0" d="M66.9,94.1C66.9,94.1,66.9,94.1,66.9,94.1C66.9,94.1,66.9,94.1,66.9,94.1C66.9,94.1,66.9,94.1,66.9,94.1z"/>
		<path class="st0" d="M66.9,94.1C66.9,94.1,66.9,94.1,66.9,94.1C66.9,94.1,66.9,94.1,66.9,94.1C66.9,94.1,66.9,94.1,66.9,94.1
			C66.9,94.1,66.9,94.1,66.9,94.1z"/>
		<path class="st0" d="M61.4,100.9L61.4,100.9C61.4,100.9,61.5,100.9,61.4,100.9C61.5,100.9,61.5,100.9,61.4,100.9z"/>
		<path class="st0" d="M59.7,101.8c0.4-0.2,0.7-0.4,1.1-0.6c0.1,0,0.2,0,0.3-0.1c0-0.1,0-0.1,0.1-0.1c0,0,0.1-0.1,0.1-0.1l-0.2,0.1
			C60.7,101.2,60.2,101.4,59.7,101.8c-0.7,0.3-1.3,0.4-1.9,0.5c0.5,0,1-0.1,1.5-0.3C59.4,102,59.7,101.9,59.7,101.8z"/>
		<path class="st0" d="M34.7,102c0.2,0,2.2,0.2,2.7,0.5c0,0,0,0,0,0c0.2,0,0.4,0,0.6,0.1c0.1,0,0.2,0.1,0.3,0.1
			c0.2,0,0.4,0.1,0.5,0.1c0.5,0.1,1,0.3,1.5,0.4c0,0,0.1,0,0.1,0c0,0,0,0,0,0c0.1-0.1,0.3-0.1,0.5-0.1c1.1,0.1,2.1,0.3,3.1,0.5
			c0.1,0,0.2,0,0.3,0c0.2,0,0.4,0,0.6,0.1c0.1,0,0.2,0,0.3,0c1,0,2.3-0.1,3.2,0.2c1,0,2,0,2.9-0.1c0.1,0,0.1,0,0.2,0
			c0.5-0.1,1-0.1,1.8-0.3c0.3,0,0.7-0.1,1-0.2c-0.1,0-0.3,0.1-0.4,0.1c-0.3,0-0.5,0.1-0.8,0.1l-0.9,0.1c-0.4,0-0.8,0.1-1.2,0.1
			c-0.4,0.1-0.8,0.1-1.2,0.1c-1.9,0-3.9-0.2-5.7-0.3l-0.2-0.1c-0.3,0-0.6,0-0.8-0.1c-0.6,0-1.1-0.1-1.7-0.2c-0.2,0-0.4-0.1-0.6-0.1
			c-0.6-0.1-1.3-0.3-1.9-0.5c-0.3-0.1-0.6-0.2-0.9-0.2c-0.3-0.1-0.5-0.1-0.8-0.2c-0.4-0.1-0.7-0.1-1.1-0.2c-0.5-0.1-1.1-0.1-1.7-0.1
			c-0.6,0.1-1.2,0.2-1.8,0.4c0.1,0,0.2,0,0.3,0.1C33.6,102.1,34.2,102,34.7,102z"/>
		<path class="st0" d="M31.6,102.9c0.2-0.2,0.5-0.3,0.7-0.4c-0.1,0-0.2,0-0.2-0.1c-0.2,0.1-0.5,0.3-0.7,0.4
			c-0.3,0.2-0.6,0.5-0.9,0.7c-0.2,0.2-0.4,0.3-0.6,0.5c-0.1,0.1-0.1,0.1-0.1,0.1C30.4,103.6,31,103.2,31.6,102.9z"/>
		<path class="st0" d="M32.9,102.3C33,102.2,33,102.2,32.9,102.3c0,0-0.1-0.1-0.2-0.1c0,0,0,0-0.1,0
			C32.7,102.2,32.8,102.2,32.9,102.3z"/>
		<path class="st0" d="M32.9,102.3C32.9,102.3,32.9,102.3,32.9,102.3c-0.1,0-0.2,0-0.3-0.1c0,0,0,0,0,0
			C32.7,102.2,32.8,102.2,32.9,102.3z"/>
		<path class="st0" d="M32.7,102.3c0.1,0,0.1,0,0.2,0c-0.1,0-0.2,0-0.3-0.1c-0.2,0.1-0.3,0.1-0.5,0.2c0.1,0,0.2,0,0.2,0.1
			C32.5,102.4,32.6,102.3,32.7,102.3z"/>
		<path class="st0" d="M38.3,102.7c-0.1,0-0.2-0.1-0.3-0.1c-0.2-0.1-0.4-0.1-0.6-0.1c0,0,0,0,0.1,0
			C37.8,102.6,38.1,102.6,38.3,102.7z"/>
		<path class="st0" d="M48.7,104.1c0.7,0,1.5,0,2.2-0.1c0.2-0.1,0.3-0.1,0.5-0.2c-1,0.1-2,0.1-2.9,0.1
			C48.6,103.9,48.7,104,48.7,104.1C48.7,104,48.7,104,48.7,104.1z"/>
		<path class="st0" d="M45.2,103.7c-0.1,0-0.2,0-0.3,0c-0.2,0-0.4,0-0.6-0.1c0.1,0,0.3,0.1,0.4,0.1
			C44.9,103.7,45.1,103.7,45.2,103.7z"/>
		<path class="st0" d="M49.9,104.1c0.3,0,0.6,0,0.9-0.1c0,0,0,0,0.1,0c-0.7,0.1-1.5,0.1-2.2,0.1c0,0,0,0,0,0
			C49.1,104.1,49.5,104.1,49.9,104.1z"/>
		<path class="st0" d="M33,102.4c-0.2,0.1-0.4,0.2-0.6,0.3c0.4-0.2,0.8-0.3,1.2-0.3c0.2-0.1,0.5-0.1,0.8-0.1c0.3,0,0.6,0,0.9,0
			c0.3,0,0.6,0,0.8,0.1c0.5,0,0.8,0.1,1.3,0.2c-0.5-0.3-2.5-0.5-2.7-0.5c-0.5,0-1.2,0.1-1.7,0.2c0.1,0,0.2,0.1,0.3,0.1
			C33.3,102.3,33.2,102.4,33,102.4z"/>
		<path class="st0" d="M32.2,102.8c0,0,0.1,0,0.1,0c0,0,0.1,0,0.1-0.1c0.2-0.1,0.4-0.2,0.6-0.3c-0.1,0-0.1,0-0.2,0.1
			C32.6,102.5,32.4,102.6,32.2,102.8z"/>
		<path class="st0" d="M31.9,102.9c0.1-0.1,0.2-0.1,0.4-0.1c0.2-0.1,0.4-0.2,0.6-0.3c-0.1,0-0.1,0-0.2,0.1c-0.1,0-0.2,0-0.3-0.1
			c-0.3,0.1-0.5,0.3-0.7,0.4c0.1-0.1,0.2-0.1,0.3-0.2C31.9,102.7,32,102.6,31.9,102.9z"/>
		<path class="st0" d="M33.2,102.3c-0.1,0-0.1,0.1-0.2,0.1c0.1,0,0.2,0,0.3-0.1c-0.1,0-0.2,0-0.3-0.1c0,0-0.1,0-0.1,0
			C33,102.3,33.1,102.3,33.2,102.3C33.2,102.3,33.2,102.3,33.2,102.3z"/>
		<path class="st0" d="M33.2,102.3c-0.1,0-0.1,0-0.2,0c0,0,0,0,0,0C33,102.3,33.1,102.3,33.2,102.3z"/>
		<path class="st0" d="M33,102.4c0.1,0,0.1-0.1,0.2-0.1c-0.1,0-0.1,0-0.1,0c-0.1,0-0.2,0.1-0.3,0.1C32.9,102.4,33,102.4,33,102.4z"
			/>
		<path class="st0" d="M32.4,102.4c0.1,0,0.2,0,0.3,0.1c0.1,0,0.1,0,0.2-0.1c0.1,0,0.2-0.1,0.3-0.1c-0.1,0-0.2,0-0.2,0
			c-0.1,0-0.1,0-0.2,0C32.6,102.3,32.5,102.4,32.4,102.4z"/>
		<path class="st0" d="M35.3,102.2c-0.3,0-0.6-0.1-0.9,0c-0.3,0-0.5,0-0.8,0.1c0.3,0,0.6-0.1,0.9-0.1
			C34.8,102.2,35,102.2,35.3,102.2z"/>
		<path class="st0" d="M30,104.1l0.2-0.1c0-0.1,0.1-0.1,0.1,0c0.4-0.4,0.8-0.8,1.3-1.1c-0.6,0.3-1.2,0.8-1.8,1.3c0,0,0,0,0.1,0.1
			C30,104.2,30,104.1,30,104.1z"/>
		<path class="st0" d="M31.7,103.1c0.2-0.1,0.4-0.3,0.6-0.4c-0.2,0.1-0.4,0.2-0.5,0.3c-0.5,0.3-0.9,0.6-1.3,1c0,0,0,0,0,0
			c0,0,0,0,0,0c0.1-0.1,0.2-0.2,0.3-0.2C31,103.5,31.4,103.3,31.7,103.1z"/>
		<path class="st0" d="M32.2,102.8c-0.2,0.1-0.3,0.2-0.5,0.2C31.9,102.9,32.1,102.8,32.2,102.8c0.1,0,0.1,0,0.1,0
			C32.3,102.7,32.2,102.7,32.2,102.8z"/>
		<path class="st0" d="M31.9,102.9c0.2-0.3,0.1-0.2,0.1-0.2c-0.1,0-0.2,0.1-0.3,0.2c-0.5,0.3-0.9,0.7-1.3,1.1c0,0,0,0,0,0
			c0.4-0.4,0.8-0.7,1.3-1c0.1-0.1,0.3-0.2,0.5-0.2C32.1,102.8,32,102.8,31.9,102.9z"/>
		<path class="st0" d="M45.2,103.7c1.1,0.1,2.1,0.1,3.2,0.2C47.5,103.6,46.3,103.7,45.2,103.7z"/>
		<path class="st0" d="M40.7,103.3c0.2,0,0.4,0,0.5,0.1c0.4,0,0.9,0,1.3,0c0.6,0.2,1.2,0.2,1.8,0.2c-0.1,0-0.2,0-0.3,0
			c-1-0.2-2-0.4-3.1-0.5c-0.2,0-0.4,0-0.5,0.1c0,0,0,0,0,0C40.5,103.2,40.6,103.2,40.7,103.3L40.7,103.3z"/>
		<path class="st0" d="M51.5,103.8c-0.1,0-0.1,0-0.2,0c0.7,0,1.3-0.1,2-0.2c1.1-0.2,2.2-0.6,3.3-0.8c1.5-0.3,2.5-0.4,3.7-1.2
			c0.2-0.1,0.5-0.3,0.8-0.4c0,0,0,0,0-0.1c-0.1,0.1-0.2,0.1-0.3,0.1c-0.4,0.2-0.7,0.4-1.1,0.6c-0.1,0.1-0.3,0.2-0.4,0.2
			c-0.5,0.3-1,0.3-1.5,0.3c-0.1,0-0.3,0-0.4,0.1c-0.4,0.1-0.9,0.2-1.4,0.3c-0.3,0.1-0.5,0.2-0.8,0.3c-0.3,0.1-0.6,0.2-0.9,0.3
			c-0.3,0.1-0.7,0.2-1,0.2C52.5,103.7,52,103.7,51.5,103.8z"/>
		<path class="st0" d="M41.3,103.4c0.6,0.1,1.2,0.2,1.9,0.2c0.3,0,0.6,0,0.8,0.1h0.2c1.2,0.1,2.5,0.3,3.7,0.3c0.3,0,0.6,0,0.8,0
			c0,0,0,0,0.1-0.1c-0.1,0-0.2-0.1-0.3-0.1c-1.1,0-2.1-0.1-3.2-0.2c-0.2,0-0.3,0-0.5,0c-0.1,0-0.2,0-0.4-0.1
			c-0.6-0.1-1.2-0.1-1.8-0.2C42.2,103.4,41.7,103.3,41.3,103.4z"/>
		<path class="st0" d="M51.1,104c0.1,0,0.2,0,0.3,0c0.4-0.1,0.7-0.1,1.1-0.1l0.9-0.1c0.3,0,0.6,0,0.9-0.1c0.5-0.1,0.9-0.2,1.4-0.4
			c0.3-0.1,0.5-0.2,0.8-0.3c0.5-0.1,0.9-0.2,1.4-0.3c0.6-0.1,1.2-0.2,1.8-0.5c0.5-0.3,1.1-0.6,1.7-0.9c0,0,0,0,0,0
			c0,0,0.1,0,0.1-0.1c-0.1,0-0.1,0-0.2,0.1c0.1,0,0.1,0,0.1,0s0,0-0.1,0c-0.1,0-0.1,0-0.1-0.1c0,0,0,0,0,0c-0.3,0.1-0.6,0.3-0.8,0.4
			c-1.2,0.8-2.2,0.9-3.7,1.2c-1.1,0.2-2.2,0.6-3.3,0.8c-0.7,0.1-1.3,0.2-2,0.2c-0.2,0-0.3,0.1-0.5,0.2C51,104,51,104,51.1,104z"/>
		<path class="st0" d="M61.4,101.3C61.4,101.3,61.4,101.3,61.4,101.3c-0.7,0.3-1.2,0.6-1.7,0.9c0.2-0.1,0.4-0.2,0.6-0.3
			C60.6,101.7,61,101.5,61.4,101.3z"/>
		<path class="st0" d="M48.7,104.1c-0.3,0-0.6,0-0.8,0C48.1,104,48.4,104.1,48.7,104.1C48.7,104.1,48.7,104.1,48.7,104.1z"/>
		<path class="st0" d="M51.2,104c0,0,0.1,0,0.1,0c-0.1,0-0.2,0-0.3,0c0,0-0.1,0-0.1,0c0,0,0,0-0.1,0C51,104,51.1,104,51.2,104z"/>
		<path class="st0" d="M62.2,100.9C62.2,100.9,62.2,100.9,62.2,100.9C62.2,100.9,62.2,100.9,62.2,100.9L62.2,100.9z"/>
		<path class="st0" d="M61.2,101.1c0.1,0,0.1-0.1,0.2-0.1c0.1,0,0.1-0.1,0.2-0.1c0,0,0,0,0,0c0,0-0.1,0-0.1,0l0,0c0,0-0.1,0-0.1,0.1
			C61.2,101,61.2,101,61.2,101.1z"/>
		<path class="st0" d="M61.9,101l0.3-0.1c0,0,0,0,0,0c-0.2,0-0.4,0-0.6,0c-0.1,0-0.1,0.1-0.2,0.1c-0.1,0-0.1,0.1-0.2,0.1
			c0,0,0,0,0,0.1C61.4,101.1,61.7,101,61.9,101z"/>
		<path class="st0" d="M61.2,101.3c0.1-0.1,0.2-0.1,0.2-0.1c0,0,0,0,0.1,0l0.4-0.2c-0.2,0-0.5,0-0.7,0.1
			C61.2,101.2,61.2,101.2,61.2,101.3C61.2,101.3,61.2,101.3,61.2,101.3z"/>
		<path class="st0" d="M26.4,112.3c0.1-0.3,0.2-0.6,0.3-0.9c0.1-0.5,0.1-1.1,0.3-1.6c0.2-0.6,0.2-1.2,0.4-1.7
			c0.1-0.5,0.2-0.9,0.4-1.3c0,0,0,0,0,0c0.1-0.5,0.5-0.9,0.8-1.2c0.2-0.2,0.4-0.4,0.6-0.6c0,0,0,0,0,0c0,0-0.1,0-0.1,0
			c-0.1,0.1-0.2,0.2-0.3,0.3c-0.9,0.9-1.4,1.8-1.6,2.7c-0.1,0.3-0.1,0.6-0.1,0.9c-0.1,0.6-0.2,1.2-0.4,1.8c-0.1,0.2-0.2,0.5-0.2,0.8
			c-0.1,0.3-0.2,0.7-0.3,1h0.2C26.2,112.4,26.4,112.4,26.4,112.3z"/>
		<path class="st0" d="M29.1,104.9C29.1,105,29.1,105,29.1,104.9C29.1,105,29.1,104.9,29.1,104.9C29.1,104.9,29.1,104.9,29.1,104.9z
			"/>
		<path class="st0" d="M29.5,104.6c-0.1,0-0.1,0.1-0.2,0.1c0,0,0,0,0,0c0,0,0,0,0,0C29.4,104.7,29.4,104.6,29.5,104.6z"/>
		<path class="st0" d="M29.1,104.9c0,0-0.1,0.1-0.1,0.1C29,105,29.1,105,29.1,104.9C29.1,104.9,29.1,104.9,29.1,104.9z"/>
		<path class="st0" d="M29.3,104.8C29.3,104.7,29.3,104.7,29.3,104.8c-0.1,0-0.1,0.1-0.2,0.1c0,0,0,0,0,0.1c0,0,0,0,0,0
			C29.2,104.9,29.2,104.8,29.3,104.8z"/>
		<path class="st0" d="M29.3,104.7C29.3,104.7,29.3,104.7,29.3,104.7C29.3,104.7,29.3,104.7,29.3,104.7
			C29.3,104.7,29.3,104.7,29.3,104.7C29.3,104.7,29.3,104.7,29.3,104.7z"/>
		<path class="st0" d="M25.9,113.1c0-0.1,0.1-0.1,0.2-0.1c0.1,0,0.1,0,0.1,0.1c0.2-0.4,0.3-0.8,0.4-1.2c0.2-0.6,0.4-1.2,0.5-1.9
			c0.1-0.5,0.2-0.9,0.4-1.4c0-0.1,0-0.2,0-0.3c0.1-0.5,0.3-0.9,0.5-1.3c0,0,0,0,0-0.1c-0.1,0-0.2,0-0.2-0.1
			c-0.2,0.4-0.3,0.8-0.4,1.3c-0.2,0.5-0.2,1.1-0.4,1.7c-0.2,0.5-0.2,1.1-0.3,1.6c-0.1,0.3-0.2,0.6-0.3,0.9c0,0.1-0.1,0.1-0.1,0.2H26
			c0,0.1-0.1,0.1-0.1,0.2s-0.1,0.2-0.1,0.3l-0.1,0.1C25.7,113.1,25.8,113.2,25.9,113.1C25.8,113.2,25.8,113.1,25.9,113.1z"/>
		<path class="st0" d="M28,106.9C28,106.9,28,107,28,106.9C28,107,28,106.9,28,106.9C28,106.9,28,106.9,28,106.9z"/>
		<path class="st0" d="M26.2,113.1c0.1-0.1,0.1-0.2,0.2-0.3c0-0.1,0.1-0.2,0.1-0.3c0.1-0.3,0.2-0.6,0.3-0.9c0.1-0.2,0.1-0.5,0.2-0.7
			c0.2-0.6,0.3-1.2,0.4-1.8c0-0.2,0-0.3,0.1-0.5c-0.1,0.4-0.2,0.9-0.4,1.4c-0.1,0.7-0.3,1.3-0.5,1.9
			C26.4,112.2,26.3,112.7,26.2,113.1C26.1,113.1,26.1,113.1,26.2,113.1L26.2,113.1z"/>
		<path class="st0" d="M29.7,104.7C29.7,104.7,29.7,104.6,29.7,104.7c0,0-0.1,0-0.2,0.1c-0.1,0.1-0.3,0.2-0.4,0.4
			c0-0.1,0-0.2,0.1-0.2c-0.2,0.2-0.3,0.4-0.6,0.6c-0.3,0.3-0.7,0.7-0.8,1.2c0,0,0,0,0,0c0.1-0.2,0.2-0.4,0.4-0.5
			C28.7,105.7,29.2,105.2,29.7,104.7z"/>
		<path class="st0" d="M29.5,104.8c0.1-0.1,0.2-0.1,0.2-0.2c0,0,0,0,0,0C29.7,104.7,29.6,104.7,29.5,104.8z"/>
		<path class="st0" d="M29.5,104.8c0,0-0.1,0.1-0.1,0.1c0,0,0-0.1,0-0.1c-0.1,0.1-0.1,0.1-0.2,0.1c0,0,0,0,0,0c0,0.1,0,0.2-0.1,0.2
			C29.2,105,29.4,104.9,29.5,104.8z"/>
		<path class="st0" d="M30,104.3L30,104.3c-0.1-0.1-0.1-0.1-0.1-0.1c-0.2,0.1-0.3,0.3-0.5,0.4c0,0-0.1,0.1-0.1,0.1c0,0,0,0,0,0
			c0,0,0,0,0,0.1c0,0,0,0,0,0c0,0,0,0.1,0,0.1c0.1,0,0.1-0.1,0.1-0.1c0.1-0.1,0.2-0.1,0.2-0.2C29.8,104.5,29.9,104.4,30,104.3z"/>
		<path class="st0" d="M29.1,104.9c0.1,0,0.1-0.1,0.2-0.1c0,0,0,0,0-0.1C29.2,104.8,29.2,104.9,29.1,104.9z"/>
		<path class="st0" d="M29.3,104.7C29.3,104.7,29.3,104.7,29.3,104.7C29.3,104.8,29.3,104.8,29.3,104.7
			C29.3,104.8,29.3,104.8,29.3,104.7C29.3,104.8,29.3,104.8,29.3,104.7z"/>
		<path class="st0" d="M30.5,104.1c0,0,0-0.1,0-0.1c-0.1,0.1-0.2,0.2-0.3,0.3h-0.1c-0.1,0.1-0.2,0.2-0.3,0.3c0,0,0,0,0,0
			c0,0-0.1,0.1-0.1,0.1c-0.5,0.5-1,1-1.5,1.6c-0.2,0.2-0.3,0.3-0.4,0.5c0.1,0,0.2,0.1,0.2,0.1c0.2-0.3,0.4-0.7,0.6-1
			C29.2,105.2,29.8,104.6,30.5,104.1z"/>
		<path class="st0" d="M29.7,104.6C29.7,104.6,29.7,104.6,29.7,104.6C29.7,104.6,29.7,104.6,29.7,104.6
			C29.7,104.6,29.7,104.6,29.7,104.6z"/>
		<path class="st0" d="M30,104.3c-0.1,0.1-0.2,0.2-0.3,0.3c0,0,0,0,0,0C29.9,104.5,30,104.4,30,104.3L30,104.3L30,104.3z"/>
		<path class="st0" d="M28.9,105.7c0.4-0.4,0.9-0.8,1.4-1.2l0.2-0.1c-0.1-0.1-0.1-0.2-0.1-0.3c-0.7,0.5-1.3,1.1-1.8,1.8
			c-0.3,0.3-0.5,0.7-0.6,1c0,0,0,0,0,0C28.3,106.5,28.6,106.1,28.9,105.7z"/>
		<path class="st0" d="M25.8,113.3C25.8,113.2,25.8,113.2,25.8,113.3C25.8,113.2,25.8,113.2,25.8,113.3z"/>
		<path class="st0" d="M26.1,113.1C26.1,113,26.1,113,26.1,113.1c-0.2-0.1-0.3-0.1-0.3,0c0,0,0,0.1-0.1,0.1c0,0,0,0,0,0c0,0,0,0,0,0
			c0,0,0.1,0.1,0.1,0.1C26,113.3,26.1,113.2,26.1,113.1z"/>
		<path class="st0" d="M25.9,113.4l0.2-0.3c0,0,0,0,0,0C26.1,113.2,26,113.3,25.9,113.4C25.9,113.4,25.9,113.4,25.9,113.4z"/>
		<path class="st0" d="M30.2,104l-0.2,0.1c0,0-0.1,0.1-0.1,0.1c0,0,0,0,0,0l0.1,0.1c0.1-0.1,0.2-0.2,0.3-0.3
			C30.3,103.9,30.2,103.9,30.2,104z"/>
		<path class="st0" d="M30.4,104c-0.1,0.1-0.2,0.2-0.3,0.3h0.1C30.3,104.2,30.4,104.1,30.4,104C30.5,104,30.4,104,30.4,104
			C30.4,104,30.4,104,30.4,104z"/>
		<path class="st0" d="M30.4,104c-0.1,0.1-0.2,0.2-0.3,0.3l0,0h0C30.2,104.2,30.3,104.1,30.4,104C30.4,104,30.4,104,30.4,104z"/>
	</g>
</g>
</svg>
