<?xml version="1.0" encoding="utf-8"?>
<!-- Generator: Adobe Illustrator 22.0.1, SVG Export Plug-In . SVG Version: 6.00 Build 0)  -->
<svg version="1.1" id="Layer_1" xmlns="http://www.w3.org/2000/svg" xmlns:xlink="http://www.w3.org/1999/xlink" x="0px" y="0px"
	 viewBox="0 0 240.7 216" style="enable-background:new 0 0 240.7 216;" xml:space="preserve">
<style type="text/css">
	.st0{fill:#FFFFFF;}
</style>
<g id="XMLID_271_">
	<path id="XMLID_373_" class="st0" d="M199.1,107.8c0,0.1,0,0.2,0.1,0.3c-0.7,0.1-1.3-0.1-1.9-0.4
		C197.9,107.8,198.5,107.8,199.1,107.8z"/>
	<path id="XMLID_372_" class="st0" d="M201,108.4c0,0.1,0,0.2,0,0.3c-0.5,0-0.9,0-1.2-0.4c0.3-0.2,0.6-0.1,0.9-0.1
		C200.8,108.2,200.9,108.3,201,108.4z"/>
	<path id="XMLID_371_" class="st0" d="M201,108.4c-0.1-0.1-0.2-0.2-0.3-0.3c0-0.3,0.1-0.5,0.4-0.4c0.2,0.1,0.4,0.2,0.4,0.4
		C201.4,108.3,201.1,108.3,201,108.4z"/>
	<path id="XMLID_370_" class="st0" d="M203.8,108.3c0.1,0.1,0.2,0.3,0.2,0.4c0,0.3-0.2,0.3-0.4,0.2c-0.1,0-0.2-0.2-0.2-0.3
		C203.4,108.6,203.5,108.5,203.8,108.3z"/>
	<g id="XMLID_305_">
		<path id="XMLID_364_" class="st0" d="M171.7,126.9l-0.4-1h-0.1c-0.3,0.4-0.7,0.7-1,0.9c-0.3,0.2-0.8,0.2-1.4,0.2
			c-0.7,0-1.2-0.2-1.6-0.6c-0.4-0.4-0.6-1-0.6-1.7c0-0.8,0.3-1.3,0.8-1.7c0.5-0.4,1.3-0.6,2.4-0.6h1.2v-0.3c0-0.7-0.4-1.1-1.1-1.1
			c-0.6,0-1.2,0.2-2,0.5l-0.6-1.3c0.8-0.4,1.7-0.6,2.7-0.6s1.7,0.2,2.2,0.6s0.8,1.1,0.8,1.9v4.8H171.7z M171.1,123.5h-0.8
			c-0.6,0-1,0.1-1.3,0.3c-0.3,0.2-0.4,0.5-0.4,0.9c0,0.6,0.3,0.8,0.9,0.8c0.5,0,0.8-0.1,1.1-0.4s0.4-0.6,0.4-1v-0.6H171.1z"/>
		<path id="XMLID_318_" class="st0" d="M176.7,126.9l-2.7-7.2h2l1.4,4.1c0.2,0.5,0.3,1,0.3,1.5l0,0c0-0.4,0.1-0.9,0.3-1.5l1.4-4.1h2
			l-2.7,7.2H176.7z"/>
		<path id="XMLID_315_" class="st0" d="M187.1,126.9l-0.4-1h-0.1c-0.3,0.4-0.7,0.7-1,0.9c-0.3,0.2-0.8,0.2-1.4,0.2
			c-0.7,0-1.2-0.2-1.6-0.6c-0.4-0.4-0.6-1-0.6-1.7c0-0.8,0.3-1.3,0.8-1.7c0.5-0.4,1.3-0.6,2.4-0.6h1.2v-0.3c0-0.7-0.4-1.1-1.1-1.1
			c-0.6,0-1.2,0.2-2,0.5l-0.6-1.3c0.8-0.4,1.7-0.6,2.7-0.6s1.7,0.2,2.2,0.6s0.8,1.1,0.8,1.9v4.8H187.1z M186.5,123.5h-0.8
			c-0.6,0-1,0.1-1.3,0.3c-0.3,0.2-0.4,0.5-0.4,0.9c0,0.6,0.3,0.8,0.9,0.8c0.5,0,0.8-0.1,1.1-0.4s0.4-0.6,0.4-1v-0.6H186.5z"/>
		<path id="XMLID_313_" class="st0" d="M197.1,126.9h-2v-4.2c0-0.5-0.1-0.9-0.3-1.2s-0.5-0.4-0.9-0.4c-0.5,0-0.9,0.2-1.2,0.5
			c-0.2,0.4-0.4,1-0.4,1.8v3.4h-2v-7.2h1.5l0.3,0.9h0.1c0.2-0.3,0.5-0.6,0.9-0.8c0.4-0.2,0.8-0.3,1.3-0.3c0.8,0,1.5,0.2,1.9,0.7
			s0.6,1.1,0.6,2v4.8H197.1z"/>
		<path id="XMLID_311_" class="st0" d="M202.1,125.4c0.3,0,0.8-0.1,1.2-0.2v1.5c-0.5,0.2-1.1,0.3-1.8,0.3c-0.8,0-1.4-0.2-1.7-0.6
			s-0.5-1-0.5-1.8v-3.5h-0.9v-0.8l1.1-0.7l0.6-1.5h1.3v1.5h2v1.5h-2v3.5c0,0.3,0.1,0.5,0.2,0.6C201.6,125.4,201.9,125.4,202.1,125.4
			z"/>
		<path id="XMLID_308_" class="st0" d="M204.7,117.8c0-0.6,0.4-1,1.1-1s1.1,0.3,1.1,1c0,0.3-0.1,0.5-0.3,0.7s-0.4,0.3-0.8,0.3
			C205.1,118.8,204.7,118.5,204.7,117.8z M206.7,126.9h-2v-7.2h2V126.9z"/>
		<path id="XMLID_306_" class="st0" d="M213.8,124.7c0,0.7-0.3,1.3-0.8,1.7s-1.3,0.6-2.3,0.6c-0.5,0-1,0-1.3-0.1
			c-0.4-0.1-0.7-0.2-1-0.3V125c0.4,0.2,0.8,0.3,1.2,0.4c0.5,0.1,0.9,0.2,1.2,0.2c0.7,0,1.1-0.2,1.1-0.6c0-0.2,0-0.3-0.1-0.4
			s-0.3-0.2-0.5-0.3c-0.2-0.1-0.5-0.3-0.9-0.4c-0.6-0.2-1-0.4-1.2-0.6c-0.3-0.2-0.4-0.4-0.6-0.7c-0.1-0.3-0.2-0.6-0.2-0.9
			c0-0.6,0.2-1.1,0.7-1.5c0.5-0.3,1.2-0.5,2.1-0.5c0.9,0,1.7,0.2,2.5,0.6l-0.6,1.4c-0.4-0.2-0.7-0.3-1-0.4s-0.6-0.1-1-0.1
			c-0.6,0-0.9,0.2-0.9,0.5c0,0.2,0.1,0.3,0.3,0.5c0.2,0.1,0.6,0.3,1.2,0.6c0.6,0.2,1,0.4,1.2,0.6s0.5,0.4,0.6,0.7
			C213.7,124.1,213.8,124.4,213.8,124.7z"/>
	</g>
	<g id="XMLID_272_">
		<path id="XMLID_304_" class="st0" d="M153.3,99.1c0.2,0.4,0.5,0.2,0.8,0.2c1.7-0.5,3.5-1,5.2-1.5c0.8-0.2,1.6-0.4,2.3-0.7
			c0.7-0.3,1-1,0.9-1.8c-0.1-0.6-0.6-0.6-1.1-0.6c-0.2,0-0.4,0-0.6,0.1c-2.7,0.8-5,2.2-7.2,3.8C153.4,98.6,153.2,98.9,153.3,99.1z"
			/>
		<path id="XMLID_303_" class="st0" d="M109.8,125.2c-1-0.1-2-0.1-2.9-0.4c-6.4-1.9-10.4-6.5-13-12.4c-0.4-0.9-0.1-1.3,0.6-1.8
			c1.8-1.3,3.6-2.6,5.4-3.9c1.7-1.3,3.5-2.6,5.2-4c0.6-0.5,0.9-1.2,0.4-1.9c-0.5-0.6-1.2-0.6-1.8-0.3c-0.8,0.4-1.6,0.7-2.3,1.2
			c-2.7,1.8-5.3,3.6-7.9,5.5c-0.8,0.6-1.1,0.3-1.2-0.5c-0.3-1.3-0.6-2.6-0.8-4c-0.5-2.5-1.4-2.9-3.8-2.1c-0.8,0.3-1.1,0.5-0.6,1.4
			c0.6,1.1,0.8,2.4,0.4,3.6c-1.2,3.8-3.8,6.4-7.1,8.4c-0.7,0.4-1.6,0.6-2.2,0.1s-0.3-1.3,0-2c1.1-2.7,2.8-5,4.3-7.5
			c0.5-0.7,1.1-1.5,0.2-2.3c-0.6-0.6-3-0.3-3.4,0.4c-1.7,3.2-3.9,6.1-5.3,9.6c-0.5,1.3-0.6,2.6,0.3,3.6c1,1.1,2.3,1.3,3.7,0.9
			c1.2-0.4,2.5-0.8,3.6-1.5c2.8-1.9,5.2-4.3,6.6-7.6c1.1,2.6,1.1,2.6-0.9,4.1c-1.8,1.4-3.5,3-5.3,4.4c-0.2,0.8-0.9,1.2-1.1,2
			c-0.2,0.9-0.5,1.8,0.5,2.3s1.3-0.4,1.6-1.2c0.1-0.2,0.3-0.4,0.5-0.6c1.4-1.8,3.3-3,5.1-4.2c1.8-1.3,1.7-1.3,2.7,0.7
			c2.6,5,6.1,9.1,11.8,10.8c2.3,0.7,4.6,1,6.9,0.4c0.4-0.1,0.8-0.4,0.8-0.8C110.7,125.2,110.2,125.2,109.8,125.2z"/>
		<path id="XMLID_302_" class="st0" d="M113.3,100.4c-1.6-1.7-1.5-3.2,0.2-4.5c2.9-2.2,6.2-3.2,9.9-3.1c1.2,0.1,1.8,0.6,1.6,1.9
			c-0.2,1.4,0.6,2,1.9,1.6c1.5-0.4,2.5-1.4,3.1-2.8c0.7-1.7,0.2-2.9-1.5-3.6c-1.4-0.5-2.8-0.8-4.3-0.6c-2.3,0.4-4.5,0.6-6.7,1.3
			c-2.7,0.9-5.4,1.8-7.7,3.7c-3.6,3-3.7,6.8-0.1,9.9c1.4,1.2,2.7,2.4,3.9,3.7c2.7,3.2,2.2,6.1-1.5,7.9c-4.1,2-8.3,1.6-12.5,0.3
			c-0.7-0.2-1.7-1.2-2.2-0.4c-0.5,0.8,0.6,1.6,1.3,2.2c0.2,0.2,0.4,0.3,0.6,0.4c2.3,1.4,4.7,1.8,7.5,1.7c2,0.2,4.1-0.3,6.1-1
			c2.8-1.1,5.2-2.7,6.5-5.4c1.5-3.1,0.5-6.8-2.3-9.5C115.9,102.9,114.6,101.7,113.3,100.4z"/>
		<path id="XMLID_301_" class="st0" d="M66.3,96.1c-2.7,0.4-5.3,1.7-7.8,3.2c-0.2,0.2-0.4,0.4-0.3,0.6c0.2,0.5,0.6,0.3,0.9,0.2
			c2.2-0.5,4.3-1,6.5-1.3c0.5-0.1,1-0.3,1.4-0.6c0.5-0.4,0.8-1,0.6-1.6C67.5,96.1,66.9,96.1,66.3,96.1z"/>
		<path id="XMLID_287_" class="st0" d="M84.2,99.7c1.2,0.1,2.7-1.5,2.6-2.6c0-0.2-0.1-0.5-0.2-0.7c-0.2-0.6-0.7-1-1.6-0.9
			c-0.5,0-0.9,0.2-1.3,0.5c-0.2,0.2-0.4,0.3-0.5,0.5c-0.1,0.1-0.1,0.1-0.1,0.2c-0.1,0.1-0.2,0.3-0.2,0.5c-0.1,0.3-0.2,0.7-0.2,1
			C82.6,99.4,83.4,99.7,84.2,99.7z"/>
		<path id="XMLID_279_" class="st0" d="M149.6,118.4c-0.1-0.1-0.3-0.1-0.4,0c-0.1,0-0.2,0-0.4,0.1c-0.1,0-0.2,0.1-0.2,0.1
			c-0.1,0-0.2,0.1-0.3,0.1c-0.2,0.1-0.4,0.1-0.6,0.2c-0.9,0.3-1.7,0.3-2.4,0c-0.5-0.2-1-0.5-1.4-0.9c-0.1-0.1-0.2-0.2-0.3-0.4
			c-0.2-0.3-0.3-0.5-0.4-0.9c-0.2-0.5-0.2-1-0.3-1.6c-0.1-3.9,1.8-7.2,3.6-10.5c1.3-2.4,2.9-4.7,4.5-7c1-1.4,1.9-2.7,2.9-4.1
			c0.2-0.2,0.3-0.5,0.4-0.7c0.1-0.1,0.1-0.3,0.1-0.4c0.1-0.3,0-0.5-0.1-0.7c-0.1-0.1-0.2-0.2-0.4-0.3c-0.2-0.1-0.4-0.2-0.7-0.3
			c-1.4-0.5-2.8-0.3-4.2-0.1c-0.3,0-0.5,0.2-0.5,0.3c0,0,0,0,0,0.1c0,0.2,0.1,0.4,0.4,0.6c0,0,0.1,0,0.1,0.1
			c0.1,0.1,0.1,0.1,0.2,0.2c0.1,0.1,0.1,0.1,0.2,0.2c0.1,0.1,0.1,0.2,0.2,0.3c0,0.1,0,0.1,0,0.2s0,0.2,0,0.3c0,0.1-0.1,0.2-0.2,0.4
			c-0.4,0.6-0.9,1.1-1.3,1.6c-0.2,0.3-0.4,0.5-0.7,0.8c-0.5,0.5-0.9,1-1.4,1.5c-2.7,2.6-5.7,4.7-9.5,5.9c-0.1,0-0.2,0.1-0.3,0.1
			c-0.6,0.1-1.2,0.1-1.6-0.2c-0.2-0.2-0.4-0.4-0.5-0.6c-0.1-0.3-0.2-0.6-0.2-1c0-0.2-0.1-0.3-0.1-0.4c-0.1-0.2-0.4-0.2-0.6-0.3
			c-0.1,0-0.2,0-0.2-0.1c-0.2,0-0.3-0.1-0.5-0.1c-0.1,0-0.2,0-0.3,0c-0.2,0-0.3,0-0.5,0s-0.3,0.1-0.5,0.1c-4.9,1.7-8.1,5.2-9.5,10.2
			c-0.4,1.5,0.1,3.3,1.2,4.5c0.1,0.1,0.3,0.3,0.4,0.4c0.5,0.5,1.1,0.8,1.8,1c0.2,0,0.4,0.1,0.6,0.1c0.1,0,0.2,0,0.3,0
			c0.3,0,0.7,0,1-0.1c1.2-0.3,2.3-0.7,3.4-1.3c0.6-0.3,1.1-0.6,1.6-1c0.3-0.2,0.5-0.4,0.8-0.6c0.9-0.7,1.6-1.6,2.2-2.5
			c0.2-0.3,0.3-0.5,0.5-0.8c0.7-1.3,1.1-2.7,1.1-4.2c0-0.2,0-0.4,0.1-0.5c0-0.1,0.1-0.2,0.2-0.3c0.1-0.1,0.1-0.1,0.3-0.2
			c0.1,0,0.1-0.1,0.2-0.1c1.3-0.6,2.6-1.2,4-1.8c0,0,0.8-0.3,0.7,0.5c-1.3,2.6-2.5,5.1-3.1,7.9c-0.1,0.5-0.2,1-0.2,1.5
			c-0.1,0.5-0.1,0.9-0.1,1.3c0,0.2,0,0.4,0,0.6c0,0.6,0.1,1.1,0.2,1.6c0.4,1.3,1.2,2.3,2.8,2.9c1.9,0.8,3.9,0.9,5.8,0.3
			c0.3-0.1,0.6-0.2,0.9-0.3c0.1-0.1,0.3-0.1,0.4-0.2c0.2-0.1,0.5-0.2,0.7-0.3c0.1,0,0.1-0.1,0.2-0.1l0.1-0.1
			c0.1-0.1,0.1-0.1,0.1-0.2s0.1-0.1,0.1-0.2s0-0.2-0.1-0.4C149.8,118.5,149.7,118.4,149.6,118.4z M132.9,108
			c-0.9,2.2-2.3,4.1-4.3,5.5c-0.5,0.4-1.1,0.9-1.8,0.4c-0.7-0.5-1-1.1-1-2c0.3-2.3,1.6-4.1,2.9-5.9c0.2-0.3,0.5-0.2,0.8,0
			c0.8,0.3,1.6,0.6,2.4,0.5C133.3,106.5,133.3,107.2,132.9,108z"/>
		<path id="XMLID_276_" class="st0" d="M74.4,118.6c-1.6,0.7-3.1,0.8-4.3-0.5c-1.2-1.2-1.4-2.7-1.1-4.5c0.7-4,2.7-7.4,4.7-10.8
			c1.9-3.2,4.3-6.2,6.4-9.3c0.8-1.1,0.4-2.2-0.8-2.6c-1.3-0.4-2.7-0.3-4,0c-0.4,0.1-0.8,0.5-0.4,0.7c1.7,1.2,0.4,2-0.3,2.9
			c-3.2,4.1-6.3,8.4-8.1,13.4c-0.8,2.1-2.1,3.5-3.9,4.5c-0.5,0.3-1,0.6-1.5,0.8c-2,0.8-3.9,1.8-6.1,1.2c-1.1-0.3-1.3-1.1-1.4-2
			c-0.1-1,0.7-1,1.3-1.1c3.4-0.9,6.3-2.6,8.4-5.5c1.2-1.7,0.3-3.5-1.7-3.6c-1.3-0.1-2.6,0-3.8,0.7c-3.4,1.9-7.2,2.5-11,3.1
			c-0.7,0.1-1.3,0-0.8-0.8c1.8-2.8,2.9-5.9,4.2-9c0.2-0.5,0.5-0.8,1.1-0.9c3.2-0.7,6.4-1.6,9.7-2.3c1.2-0.2,2.6-0.9,3.5,0.3
			c0.6,0.7,1.1,0.6,1.7,0.3c0.8-0.3,1.5-0.9,2.2-1.5c0.6-0.5,1.1-1.2,0.8-2c-0.3-0.8-1-0.9-1.8-1c-2.6-0.4-5.2-0.1-7.8,0.4
			c-4.2,0.7-8.5,1.7-12.7,2.4c-2,0.3-4.2,0.8-6.1-0.8c-0.6-0.5-0.8,0.1-1,0.5c-1,2,0.4,4,2.8,4.2c2,0.2,2.1,0.2,1.4,2
			c-0.8,2.1-1.8,4-2.6,6.1c-0.6,1.6-1.3,2.8-3.1,3.2c-0.8,0.2-1.5,0.9-1.7,1.9c-0.1,0.9,0.7,1.1,1.3,1.3c0.7,0.2,0.4,0.5,0.2,0.9
			c-0.9,1.7-1.5,3.5-2.6,5.1c-2,2.8-3.7,5.9-8,5.3c-0.3-0.1-0.6,0.1-0.7,0.5c0,0.4,0.2,0.7,0.5,0.9c1.2,0.6,2.4,1,3.7,0.7
			c2.5-0.6,4.5-2.1,6.2-4c2.4-2.5,4.1-5.5,5.9-8.5c0.3-0.5,0.5-1.3,1.4-1.3c2.1-0.1,4-0.9,6.4-1.3c-1,1.6-1.6,3.2-1.6,4.8
			c0,2.4,2.8,4.2,5.7,3.8c3-0.4,5.9-1.3,8.4-3.1c0.3-0.2,0.7-0.7,1.1-0.4c0.4,0.3,0.1,0.8,0.1,1.2c-0.2,2.8,0.9,4.7,3,5.6
			c2.5,1,4.9,0.8,7.3-0.2c0.6-0.2,1.4-0.6,1.1-1.2C75.8,118.1,74.9,118.3,74.4,118.6z M58.9,104.7c0.5-0.3,1.1-0.6,1.6-0.1
			c0.4,0.5,0.1,1-0.3,1.5c-1.5,1.8-3.3,3.1-5.7,3.4C55.6,107.5,57,105.9,58.9,104.7z"/>
		<path id="XMLID_273_" class="st0" d="M213.7,113.9l-0.1-0.1c-0.2-0.2-0.4-0.4-0.6-0.6l-0.1-0.1c-0.2-0.2-0.4-0.4-0.6-0.6
			c0,0,0,0-0.1-0.1c-0.7-0.6-1.4-1.2-2.2-1.7l0,0c-0.8-0.5-1.6-1-2.4-1.4l0,0l0,0c0,0-12.2-7.6-31.2-2.4c-1.1,0.3-2.2,0.5-3.3,0.9
			c-1.3,0.4-2.6,0.8-3.8,1.3c-0.3,0.1-0.5,0.2-0.7,0.3c-0.2,0.1-0.4,0.1-0.5,0.1c-0.3,0-0.6-0.1-0.7-0.4c-0.1-0.1-0.1-0.3-0.2-0.6
			c-0.1-0.6-0.2-1.2-0.3-1.9c-0.1-0.6-0.2-1.2-0.3-1.8c0-0.1,0-0.1,0-0.2s0-0.1,0-0.2s0.1-0.2,0.2-0.3c0.1-0.1,0.2-0.2,0.4-0.4
			l0.1-0.1c0.2-0.2,0.5-0.4,0.7-0.6c0.1-0.1,0.2-0.2,0.4-0.3c0.6-0.6,1.1-1.2,1.5-1.9c0-0.1,0.1-0.1,0.1-0.2s0.1-0.1,0.1-0.2
			c0.1-0.1,0.1-0.3,0.1-0.4s0-0.3,0-0.4s-0.1-0.3-0.2-0.4c-0.1-0.2-0.3-0.3-0.5-0.3c-0.3-0.1-0.7-0.1-1,0c-2,0.4-3.6,1.4-4.8,2.8
			c-0.3,0.4-0.6,0.8-0.9,1.2c-0.2,0.3-0.3,0.6-0.5,0.9c-0.6,1.3-1.2,2.4-2,3.4c-0.3,0.3-0.6,0.7-0.9,1c-0.3,0.2-0.5,0.5-0.8,0.7
			c-0.9,0.9-1.7,1.8-2.7,2.6c-0.5,0.5-1.1,0.9-1.7,1.3c-0.1,0.1-0.3,0.2-0.5,0.3c-0.3,0.2-0.6,0.4-1,0.5c-0.3,0.1-0.5,0.2-0.7,0.2
			s-0.4-0.1-0.6-0.2l-0.1-0.1c0-0.1-0.1-0.2-0.1-0.2v-0.1c0-0.1,0-0.2,0-0.4c0-0.1,0-0.1,0-0.2c0-0.2,0.1-0.4,0.1-0.6
			c0.1-0.4,0.3-0.8,0.5-1.2c0.1-0.2,0.2-0.4,0.3-0.6c0.6-1.2,1.2-2.3,1.9-3.5c0.3-0.6,0.7-1.1,1-1.7s0.7-1.1,1-1.7
			c0-0.1,0.1-0.1,0.1-0.2c0.1-0.1,0.2-0.3,0.2-0.4s0-0.1,0-0.2c0-0.2-0.1-0.4-0.4-0.7c-0.2-0.2-0.5-0.3-0.8-0.3
			c-0.4-0.1-0.9-0.1-1.3,0c-0.4,0.1-0.7,0.2-1,0.3c-0.2,0.1-0.4,0.3-0.4,0.4c-0.1,0.2-0.2,0.4-0.3,0.6c-0.3,0.6-0.7,1.2-1.1,1.8
			c-0.2,0.4-0.5,0.8-0.7,1.2c-1.1,1.8-2.1,3.6-2.9,5.6c-0.1,0.2-0.2,0.4-0.2,0.7c-0.2,0.5-0.3,1-0.2,1.4c0,0.1,0,0.2,0,0.2
			c0,0.2,0.1,0.5,0.2,0.7c0.1,0.4,0.3,0.7,0.6,1.1c0.1,0.1,0.1,0.1,0.2,0.2c0.3,0.3,0.6,0.5,1,0.7c0.1,0.1,0.3,0.1,0.4,0.1
			s0.3,0.1,0.4,0.1c0.3,0,0.6,0,0.9-0.1c0.2-0.1,0.5-0.1,0.7-0.2c0.4-0.2,0.8-0.3,1.1-0.5c0.2-0.1,0.4-0.2,0.6-0.3
			c0.2-0.1,0.4-0.2,0.5-0.3c0.3-0.2,0.7-0.4,1-0.7c0.3-0.2,0.6-0.5,0.9-0.7c0.9-0.7,1.8-1.5,2.7-2.3s1.7-1.7,2.5-2.5
			c0.2-0.2,0.4-0.4,0.5-0.4c0.1-0.1,0.2-0.1,0.3,0c0,0,0,0,0.1,0l0.1,0.1c0,0,0,0.1,0.1,0.1c0,0.1,0.1,0.1,0.1,0.2v0.1v0.1
			c0,0.1,0.1,0.2,0.1,0.4c0.1,0.4,0.2,0.8,0.2,1c0,0.3-0.1,0.6-0.3,0.8c-0.1,0.1-0.3,0.2-0.6,0.4c-0.2,0.1-0.5,0.3-0.9,0.4
			c-0.1,0.1-0.3,0.1-0.4,0.2c-2.1,1-4,2.1-5.3,4.2c-0.4,0.7-0.5,1.3-0.4,1.8c0.1,0.6,0.7,1.1,1.6,1.1c1.1,0.1,2.2-0.1,3.3-0.4
			c1.3-0.4,2.5-0.9,3.6-1.7c0.2-0.2,0.5-0.3,0.7-0.5c0.9-0.7,1.8-1.6,2.4-2.5c0.4-0.6,0.7-1.2,1-1.8c0.1-0.2,0.1-0.3,0.2-0.5
			c0.1-0.2,0.3-0.4,0.4-0.6c0.1-0.1,0.2-0.2,0.4-0.3c0.1,0,0.1-0.1,0.2-0.1c0.3-0.1,0.6-0.2,0.9-0.3c0.6-0.2,1.2-0.4,1.8-0.7
			c0.6-0.2,1.2-0.4,1.8-0.6c1.1-0.4,2.3-0.7,3.4-1c0.4-0.1,0.8-0.2,1.2-0.3c1.2-0.3,2.5-0.6,3.7-0.8c0.4-0.1,0.7-0.1,1.1-0.2
			c0.3,0,0.6-0.1,0.9-0.1l0,0c0.3,0,0.7,0,1,0l0,0c0.1,0,0.2,0,0.3-0.1l0,0c5.4-0.4,12.6,0,21,2.7c0.2,0.1,0.4,0.1,0.6,0.2
			c0.1,0,0.1,0,0.2,0.1c0.1,0.1,0.3,0.1,0.4,0.2c0.1,0,0.1,0.1,0.2,0.1c0.1,0.1,0.2,0.1,0.4,0.2c0.1,0,0.1,0.1,0.2,0.1
			c0.1,0.1,0.3,0.1,0.4,0.2c0,0,0.1,0,0.1,0.1c0.2,0.1,0.4,0.2,0.5,0.3l0.1,0.1c0.1,0.1,0.3,0.1,0.4,0.2c0.1,0,0.1,0.1,0.2,0.1
			c0.1,0.1,0.2,0.1,0.3,0.2c0.1,0,0.1,0.1,0.2,0.1c0.1,0.1,0.2,0.2,0.4,0.2l0.1,0.1c0.2,0.1,0.3,0.2,0.5,0.3c0,0,0.1,0,0.1,0.1
			c0.1,0.1,0.3,0.2,0.4,0.3c0.1,0,0.1,0.1,0.2,0.1c0.1,0.1,0.2,0.2,0.3,0.3c0.1,0,0.1,0.1,0.2,0.1c0.1,0.1,0.2,0.2,0.3,0.3l0.1,0.1
			c0.1,0.1,0.3,0.3,0.4,0.4c0.1,0.1,0.3,0.3,0.4,0.4h0.1c0.1,0,0.2,0,0.4-0.1c0.1-0.1,0.1-0.2,0.2-0.3
			C214,114.4,213.8,114.1,213.7,113.9z M158.4,116.4c1.1-1.2,3.6-2.3,3.6-2.3c1.1-0.5,1.8-0.5,1.8-0.5
			C159.8,118.8,157.4,117.6,158.4,116.4z"/>
	</g>
</g>
</svg>
