<?xml version="1.0" encoding="utf-8"?>
<!-- Generator: Adobe Illustrator 22.0.1, SVG Export Plug-In . SVG Version: 6.00 Build 0)  -->
<svg version="1.1" id="Layer_1" xmlns="http://www.w3.org/2000/svg" xmlns:xlink="http://www.w3.org/1999/xlink" x="0px" y="0px"
	 viewBox="0 0 240.7 216" style="enable-background:new 0 0 240.7 216;" xml:space="preserve">
<style type="text/css">
	.st0{fill:#FFFFFF;}
</style>
<g>
	<path class="st0" d="M46.8,37.2v141.7h147.1V37.2H46.8z M185.2,170.5H55.5v-125h129.7V170.5z"/>
	<path class="st0" d="M160.1,139.8c-1,0-1.7,0.4-2.3,1c-0.5,0.7-0.8,1.5-0.8,2.5s0.3,1.9,0.9,2.5c0.6,0.6,1.3,0.9,2.2,1
		c0.9,0,1.7-0.3,2.2-1c0.6-0.6,0.9-1.5,0.9-2.5s-0.3-1.8-0.8-2.5C161.8,140,161,139.8,160.1,139.8z"/>
	<polygon class="st0" points="101.9,140 101.6,140 100.6,144.8 103.2,144.8 	"/>
	<path class="st0" d="M183.6,47H57.2v121.7h126.4V47z M79.3,147.3c0.6,0,1.9-0.4,2-1.2h-1.6v-4.5H90c0.2,5.3-2.5,11.9-10.5,11.9
		c-2,0-3.7-0.3-5.4-1.1c-1.7-0.8-3-2-3.9-3.5c-1-1.5-1.5-3.3-1.5-5.5c0-2.2,0.5-4,1.5-5.6c1-1.5,2.3-2.7,3.9-3.6
		c1.7-0.8,3.5-1.2,5.6-1.3c3.7,0.4,5,1.1,5.9,1.5l-0.1,6.1C83,139,81,139,80.3,139c-1,0-1.8,0.5-2.4,0.9c-0.6,0.4-1,1-1.4,1.7
		c-0.3,0.7-0.5,1.5-0.5,2.3C76,145.5,77.4,147.3,79.3,147.3z M101.3,71.6c1.9-1.2,3.3-1.7,4.1-1.5c0.2,0.1,0.4,0.2,0.5,0.5
		c0.8,1.7,1.3,3.3-1.2,4.9c-2.5,1.7-3.4,1.7-3.9,1.7c-0.2,0-0.3,0-0.3-0.1c0-0.1,0.2-0.4,0.3-0.5c0.4-0.5,0.6-0.9,0.5-1.5
		c-0.1-0.3-0.4-0.5-0.7-0.7c-0.4-0.3-0.7-0.6-0.7-0.8C100.2,73,100.6,72.1,101.3,71.6L101.3,71.6L101.3,71.6z M101.2,80.2
		c2.6-2.3,6.9-5.2,6.8-7.9c-0.1-2.6-3.6-2.8-5.6-2.6c-2.1,0.1-0.8-1.8,0.2-2.6s0.4-2.1-0.4-3.1c-0.8-1.1-0.7-2.3,0-2.1
		c0.7,0.1,8.9,4,13,9.2c3.1,3.9,4.8,8.3,5.4,13.8c0.5,5.3-1.5,12.7-1.8,15.6c-0.3,2.9-0.2,6.1,3.6,6.1s6-5.3,7.3-8.4
		c1.2-3.1,3.4-16.3,12.3-16.3c9.9,0,10.2,15.4,10.2,16.8c0,1.3-0.6,0.5-0.6,0c0,0-1.3-13.4-9.6-13.4c-6,0-9.5,12.8-12.9,18.2
		c-1.1,1.7-3,4.7-6.9,4.7c-4.5,0-6.4-5.7-6.5-9.8c0-4.2,0.6-5.2,0.7-8.9c0.2-3.6-0.2-9.5-2.2-14.5s-7.7-8.4-8.1-8.7
		c-0.4-0.3-0.9-0.7-1.4,0.2c-0.5,0.9,0.6,1.2,0.6,1.2s4.2,2.1,4.2,5.7c0,3.6-7.3,9.8-9.2,11.8c-1.9,2-4.2,4.4-4.2,9.8
		c0,5.5,2.2,8.9,4.9,11.8c2.9,3,8,6.3,13.2,10.6c5.1,4.3,8.2,9.1,8.6,10c0.3,0.7,0.2,1.5-0.4,0.7c-2.1-2.6-5.6-5.8-8.6-8
		c-3.2-2.4-9.6-5.6-13.4-8.7c-3.8-3.1-8.4-7.1-8.4-16.2S98.7,82.5,101.2,80.2z M116.3,59c0.1,0.1,0.4,0.2,0.9,0.3
		c1,0.4,3.4,1.2,3.4,1.6c0,0.1-0.1,0.1-0.2,0.1c-0.9,0.3-2.4,0.3-3.4,0.3c-0.5,0-0.9,0-1.1,0.1c-0.3,0.1-0.4,0.3-0.5,0.4
		c-0.1,0.2-0.2,0.3-0.3,0.3c-0.1,0-0.1,0-0.2,0c-0.7,0-2.4,0-3.5,0.4c-0.7,0.3-1.3,0.9-1.8,1.3c-0.2,0.2-0.4,0.4-0.5,0.4
		c-0.3,0-2.5-1-2.8-2.6c-0.2-1.6,0.2-2.8,1.1-3.3c0.8-0.5,2.7-1,3.9-1c0.6,0,1.2,0.2,1.9,0.3c0.6,0.1,1.2,0.3,1.6,0.3
		c0.2,0,0.4,0,0.6,0c0.4,0,0.7-0.1,0.8,0.1l0,0c0.1,0.1,0,0.3,0,0.4C116.1,58.7,116.1,58.9,116.3,59z M127.3,65.8
		c-0.2,0.6-2,2-3.7,2.6c-0.1,0-0.3,0.1-0.3,0.2c0,0.2,0.8,0.4,2.4,0.7c0.9,0.2,2.3,0.4,2.3,0.6c0.1,0.7-0.7,1.1-1.5,1.5
		c-0.1,0-0.1,0.1-0.2,0.1c-0.4,0.3-1.2,0.8-3.4,0.6c-0.7-0.1-1.2-0.3-1.6-0.5c-0.3-0.1-0.5-0.2-0.6-0.2c-0.2,0.1-0.5,0.3-0.8,0.6
		c-0.1,0.1-0.4,0.3-0.4,0.3c-0.2,0-1.1-0.9-2.1-1.8c-1.7-1.7-4.1-4-6.2-5.1c-0.2-0.1-0.3-0.2-0.3-0.3c0-0.4,1.8-1,3-1.4
		c0.7-0.2,1.4-0.4,1.6-0.6c0.7-0.4,3.4-0.8,4.7-0.8c0.2,0,0.3,0,0.4,0c0.6,0.1,0.7,0.4,0.7,0.7c0,0.2,0.1,0.5,0.5,0.5
		c0.7,0,5.2,1.8,5.3,2.1C127.4,65.7,127.3,65.8,127.3,65.8z M146.4,147.2v5.9h-12.9v-19.4h7.2v13.5H146.4z M128.8,147.2v5.9h-12.9
		v-19.4h7.2v13.5H128.8z M97.2,133.8h9.1l5.9,19.3h-7.4l-0.6-3h-4.5l-0.6,3h-7.7L97.2,133.8z M169.4,148.7c-1,1.5-2.3,2.6-3.9,3.4
		s-3.4,1.2-5.4,1.2s-3.8-0.4-5.4-1.2s-2.9-1.9-3.9-3.4s-1.5-3.3-1.5-5.4s0.5-3.8,1.5-5.3s2.3-2.7,3.9-3.5c1.6-0.9,3.4-1.3,5.4-1.3
		s3.8,0.4,5.4,1.3c1.6,0.8,2.9,2,3.9,3.5s1.5,3.3,1.5,5.3C170.9,145.4,170.4,147.2,169.4,148.7z"/>
</g>
</svg>
