<?xml version="1.0" encoding="utf-8"?>
<!-- Generator: Adobe Illustrator 22.0.1, SVG Export Plug-In . SVG Version: 6.00 Build 0)  -->
<svg version="1.1" id="Layer_1" xmlns="http://www.w3.org/2000/svg" xmlns:xlink="http://www.w3.org/1999/xlink" x="0px" y="0px"
	 viewBox="0 0 240.7 216" style="enable-background:new 0 0 240.7 216;" xml:space="preserve">
<style type="text/css">
	.st0{fill:#FFFFFF;}
</style>
<g id="XMLID_106_">
	<path id="XMLID_250_" class="st0" d="M148.4,88.7L148.4,88.7v12.8h12.8l0,0l0,0c7.1,0,12.8-5.8,12.8-12.9c0,0,0,0,0-0.1V75.8h-12.8
		l0,0C154.2,75.8,148.4,81.5,148.4,88.7L148.4,88.7z"/>
	<g id="XMLID_105_">
		<path id="XMLID_109_" class="st0" d="M79.7,116.6c-3.5,0-6.4,2.8-6.4,6.4c0,3.5,2.9,6.4,6.4,6.4s6.4-2.9,6.4-6.4
			C86.1,119.5,83.2,116.6,79.7,116.6z"/>
		<path id="XMLID_252_" class="st0" d="M177.4,116.6c-3.5,0-6.4,2.8-6.4,6.4c0,1.1,0.3,2.2,0.8,3.1l8.7-8.7
			C179.8,117,178.6,116.6,177.4,116.6z"/>
		<path id="XMLID_257_" class="st0" d="M154.9,129.3c3.5,0,6.4-2.9,6.4-6.4s-2.9-6.4-6.4-6.4c-3.3,0-6,2.5-6.3,5.7v1.4
			C148.8,126.7,151.6,129.3,154.9,129.3z"/>
		<path id="XMLID_258_" class="st0" d="M102.2,116.6c-3.5,0-6.4,2.8-6.4,6.4c0,1.1,0.3,2.2,0.8,3.1l8.7-8.7
			C104.6,117,103.5,116.6,102.2,116.6z"/>
		<path id="XMLID_261_" class="st0" d="M195.6,105.2h-47.1v10.1c1.7-1.4,3.9-2.3,6.3-2.3c5.5,0,9.9,4.4,9.9,9.9s-4.4,9.9-9.9,9.9
			c-2.4,0-4.6-0.9-6.3-2.3v0.7c0,1-0.8,1.8-1.8,1.8s-1.8-0.8-1.8-1.8v-7.5c0-0.3-0.1-0.6-0.1-0.8c0-0.3,0-0.5,0.1-0.8v-16.9l0,0
			H27.7v17.5c0,9.6,7.8,17.5,17.5,17.5H213v-17.5C213.1,113,205.2,105.2,195.6,105.2z M52.1,129.9c-1.9,1.9-4.4,3-7.1,3
			c-5.5,0-9.9-4.4-9.9-9.9c0-5.5,4.4-9.9,9.9-9.9c4.4,0,7,2.9,7.1,3c0.6,0.7,0.6,1.8-0.1,2.4l-10.1,10.1c0.9,0.5,1.9,0.8,3,0.8
			c1.7,0,3.4-0.7,4.6-1.9c0.7-0.7,1.8-0.7,2.5,0C52.7,128.1,52.7,129.2,52.1,129.9z M67.8,132.2c-1.1,0.5-2.4,0.7-3.6,0.7
			c-5.5,0-9.9-4.4-9.9-9.9c0-5.5,4.5-9.9,9.9-9.9c1.3,0,2.4,0.2,3.6,0.7c0.9,0.4,1.4,1.4,1,2.3c-0.4,0.9-1.4,1.4-2.3,1
			c-0.7-0.3-1.5-0.4-2.3-0.4c-3.5,0-6.4,2.8-6.4,6.4c0,3.5,2.9,6.4,6.4,6.4c0.8,0,1.6-0.1,2.3-0.4c0.9-0.4,1.9,0.1,2.3,1
			C69.1,130.9,68.7,131.9,67.8,132.2z M79.7,132.9c-5.5,0-9.9-4.4-9.9-9.9c0-5.5,4.5-9.9,9.9-9.9c5.5,0,9.9,4.5,9.9,9.9
			C89.7,128.5,85.2,132.9,79.7,132.9z M109.3,129.9c-1.9,1.9-4.4,3-7.1,3c-5.5,0-9.9-4.4-9.9-9.9c0-5.5,4.5-9.9,9.9-9.9
			c4.4,0,7,2.9,7.1,3c0.6,0.7,0.6,1.8-0.1,2.4l-10.1,10.1c0.9,0.5,1.9,0.8,3,0.8c1.7,0,3.3-0.7,4.6-1.9c0.7-0.7,1.8-0.7,2.5,0
			C110,128.1,110,129.2,109.3,129.9z M142.2,131.2c0,1-0.8,1.8-1.8,1.8s-1.8-0.8-1.8-1.8v-8.3c0-3.5-2.8-6.4-6.4-6.4
			c-0.7,0-1.4,0.1-2.1,0.3c1.3,1.7,2.1,3.7,2.1,6v8.3c0,1-0.8,1.8-1.8,1.8s-1.8-0.8-1.8-1.8v-8.3c0-3.5-2.9-6.4-6.4-6.4
			c-2.3,0-3.7,1.1-4.5,1.9c-1.1,1.2-1.9,2.9-1.8,4.4l0,0v8.4c0,1-0.8,1.8-1.8,1.8s-1.8-0.8-1.8-1.8v-8.3c0-2.5,1-5.1,2.8-7
			c1.8-1.9,4.3-2.9,7.1-3c1.8,0,3.5,0.5,5,1.3c1.5-0.9,3.2-1.3,5-1.3c5.5,0,10,4.4,10,9.9L142.2,131.2L142.2,131.2z M184.4,129.9
			c-1.9,1.9-4.4,3-7.1,3c-5.5,0-10-4.4-10-9.9c0-5.5,4.5-9.9,10-9.9c4.4,0,7,2.9,7.1,3c0.6,0.7,0.6,1.8-0.1,2.4l-10.1,10.1
			c0.9,0.5,1.9,0.8,3,0.8c1.7,0,3.3-0.7,4.6-1.9c0.7-0.7,1.8-0.7,2.5,0C185.1,128.1,185.1,129.2,184.4,129.9z M205.4,127
			c-1.5,3.7-4.9,5.9-9.1,5.9c-2.8,0-5.4-1.2-7.3-3.2c-0.7-0.7-0.6-1.8,0.1-2.5c0.7-0.7,1.8-0.6,2.5,0.1c1.2,1.3,2.9,2,4.7,2
			c3.8,0,5.3-2.6,5.8-3.7c0.1-0.2,0.1-0.5,0-0.8l0,0c0,0-0.1,0-0.4,0h-10.8c-1.4,0-2.7-0.9-3.3-1.8c-0.8-1.1-0.9-2.7-0.4-4
			c1.4-3.5,5.1-5.9,9.1-5.9c2.5,0,4.9,1,6.7,2.6c0.7,0.7,0.8,1.8,0.1,2.5s-1.8,0.8-2.5,0.1c-1.2-1.1-2.7-1.7-4.3-1.7
			c-2.5,0-4.9,1.5-5.8,3.7c-0.1,0.3,0,0.6,0,0.7c0.1,0.1,0.3,0.3,0.4,0.3h10.7c1.8,0,3.2,0.9,3.7,2.4
			C205.9,124.8,205.9,125.9,205.4,127z"/>
		<path id="XMLID_268_" class="st0" d="M44.9,116.6c-3.5,0-6.4,2.8-6.4,6.4c0,1.1,0.3,2.2,0.8,3.1l8.7-8.7
			C47.3,117,46.3,116.6,44.9,116.6z"/>
	</g>
	<path id="XMLID_256_" class="st0" d="M144.9,88.6c0-7.1-5.8-12.8-12.9-12.8l0,0h-12.8v12.7c0,0.1,0,0.1,0,0.1
		c0,7.1,5.7,12.9,12.9,12.9c0,0,0,0,0.1,0l0,0h12.8V88.6H144.9C144.9,88.7,144.9,88.7,144.9,88.6z M132.1,97.9
		c-5.1,0-9.3-4.2-9.3-9.3c0-4.7,3.5-8.6,8-9.2c0.4,0,0.9-0.1,1.3-0.1c5.2,0,9.4,4.2,9.4,9.3C141.4,93.8,137.2,97.9,132.1,97.9z"/>
	<path id="XMLID_108_" class="st0" d="M140.3,88.4L140.3,88.4c0,4.7-3.8,8.6-8.6,8.6c-2.2,0-4.3-0.9-5.8-2.2
		c-4-4.7-0.7-12.2,5.7-12.2v-2.1c3.6,1.3,4.6,4.6,4.6,4.6s-1.1,3.2-4.6,4.4v-2.2c-3.6,1.3-4.6,4.5-4.6,4.5s1.1,3.3,4.6,4.6v-2.1
		c6.2,0,9.6-7.1,6.2-11.9C139.2,83.9,140.3,86,140.3,88.4z"/>
</g>
</svg>
