<?xml version="1.0" encoding="utf-8"?>
<!-- Generator: Adobe Illustrator 22.0.1, SVG Export Plug-In . SVG Version: 6.00 Build 0)  -->
<svg version="1.1" id="Layer_1" xmlns="http://www.w3.org/2000/svg" xmlns:xlink="http://www.w3.org/1999/xlink" x="0px" y="0px"
	 viewBox="0 0 240.7 216" style="enable-background:new 0 0 240.7 216;" xml:space="preserve">
<style type="text/css">
	.st0{fill:#FFFFFF;}
</style>
<g id="XMLID_66_">
	<g id="XMLID_52_">
		<polygon id="XMLID_68_" class="st0" points="52.5,116.4 52.5,119.5 179.1,119.5 179.1,116.4 		"/>
		<path id="XMLID_65_" class="st0" d="M184.6,60.2h1.7c0.7,0,1.5,0.3,1.5,1.2c0,1.1-1,1.2-1.9,1.2h-1.3V63h1.6l1.8,2.8h0.6l-1.8-2.8
			c0.9-0.1,1.6-0.6,1.6-1.6c0-1.1-0.6-1.7-2-1.7H184v6.1h0.5v-5.6H184.6z"/>
		<path id="XMLID_64_" class="st0" d="M185.9,57.6c2.8,0,5.1,2.3,5.1,5.1c0,2.8-2.3,5.1-5.1,5.1s-5.1-2.3-5.1-5.1
			C180.8,59.9,183.1,57.6,185.9,57.6v0.5c-2.6,0-4.6,2-4.6,4.7c0,2.6,2,4.7,4.6,4.7s4.6-2.1,4.6-4.7c0-2.6-2-4.7-4.6-4.7V57.6
			L185.9,57.6z"/>
		<path id="XMLID_59_" class="st0" d="M107.2,69.3h5.5c2.7,0,5.5,0.5,5.5,3.9c0.2,3.1-1.7,4.9-5.4,4.9h-5.7L107.2,69.3L107.2,69.3z
			 M94.2,109.4h21.1c4.2,0,7.7-1.5,11.3-4.1c3.3-2.4,5.4-6.5,5.4-10.5c0-4.7-0.9-8.3-6.7-11.7c4.5-2.3,6-5.7,6-11.5
			c0-3.8-2.2-7.8-5.2-10.1c-2.9-2.1-5.8-3.4-9.3-3.4H94.2V109.4L94.2,109.4z M107.2,97.8v-9.4h5.6c3.4,0,6.3,0.9,6.4,4.8
			c0,1.3-0.8,3-1.8,3.7c-1.1,0.9-2.7,0.9-4.1,0.9H107.2L107.2,97.8z"/>
		<path id="XMLID_56_" class="st0" d="M155.6,97c-7.4,0-13.5-6-13.5-13.5c0-7.4,6-13.5,13.5-13.5c7.4,0,13.5,6,13.5,13.5
			C169.1,90.9,163.1,97,155.6,97L155.6,97z M155.6,109.5c14.3,0,26-11.6,26-26c0-14.3-11.6-26-26-26c-14.3,0-26,11.6-26,26
			C129.7,97.8,141.3,109.5,155.6,109.5L155.6,109.5z"/>
		<path id="XMLID_55_" class="st0" d="M155.6,93.4c5.5,0,9.9-4.4,9.9-9.9s-4.4-9.9-9.9-9.9s-9.9,4.4-9.9,9.9S150.2,93.4,155.6,93.4
			L155.6,93.4z"/>
		<polygon id="XMLID_54_" class="st0" points="90.7,109.4 90.7,58.3 77.7,58.3 77.7,77.1 67.3,77.1 67.3,58.3 54.2,58.3 54.2,109.4 
			67.2,109.4 67.2,89.5 77.6,89.5 77.6,109.4 		"/>
	</g>
	<g id="XMLID_382_">
		<path id="XMLID_385_" class="st0" d="M69.2,154.1v2.7H54.3v-24.1h14.9v2.7H57.6v8H67v2.6h-9.4v8.2L69.2,154.1L69.2,154.1z"/>
		<path id="XMLID_387_" class="st0" d="M86.1,136.4c-0.1,0.2-0.2,0.3-0.3,0.4c-0.1,0.1-0.3,0.1-0.4,0.1c-0.2,0-0.4-0.1-0.7-0.3
			c-0.3-0.2-0.6-0.4-1-0.6c-0.4-0.2-0.9-0.4-1.4-0.6c-0.5-0.2-1.2-0.3-2-0.3c-0.7,0-1.4,0.1-1.9,0.3c-0.6,0.2-1,0.5-1.4,0.8
			s-0.7,0.7-0.8,1.2c-0.2,0.5-0.3,0.9-0.3,1.5c0,0.7,0.2,1.2,0.5,1.7c0.3,0.4,0.8,0.8,1.3,1.1s1.2,0.6,1.9,0.8
			c0.7,0.2,1.4,0.5,2.1,0.7s1.4,0.5,2.1,0.8s1.3,0.7,1.9,1.2c0.5,0.5,1,1,1.3,1.7s0.5,1.5,0.5,2.5c0,1.1-0.2,2-0.5,3
			c-0.4,0.9-0.9,1.7-1.6,2.4s-1.5,1.2-2.5,1.6c-1,0.4-2.1,0.6-3.4,0.6c-1.6,0-3-0.3-4.3-0.8c-1.3-0.6-2.4-1.3-3.3-2.3l0.9-1.5
			c0.1-0.1,0.2-0.2,0.3-0.3c0.1-0.1,0.3-0.1,0.4-0.1s0.3,0.1,0.5,0.2c0.2,0.1,0.4,0.3,0.6,0.4c0.2,0.2,0.5,0.4,0.8,0.6
			c0.3,0.2,0.6,0.4,1,0.6c0.4,0.2,0.8,0.3,1.3,0.4c0.5,0.1,1,0.2,1.7,0.2c0.8,0,1.5-0.1,2.1-0.3s1.1-0.5,1.5-0.9s0.7-0.8,1-1.4
			c0.2-0.5,0.3-1.1,0.3-1.8s-0.2-1.3-0.5-1.8s-0.8-0.9-1.3-1.2s-1.2-0.6-1.9-0.8c-0.7-0.2-1.4-0.4-2.1-0.7c-0.7-0.2-1.4-0.5-2.1-0.8
			s-1.3-0.7-1.9-1.2c-0.5-0.5-1-1.1-1.3-1.8s-0.5-1.6-0.5-2.7c0-0.9,0.2-1.7,0.5-2.5s0.8-1.5,1.4-2.1s1.4-1.1,2.3-1.5s2-0.6,3.2-0.6
			c1.3,0,2.6,0.2,3.7,0.6c1.1,0.4,2.1,1,2.9,1.9L86.1,136.4z"/>
		<path id="XMLID_389_" class="st0" d="M99.1,132.6c1.5,0,2.9,0.2,4,0.5c1.1,0.4,2.1,0.9,2.8,1.5c0.7,0.7,1.3,1.4,1.7,2.4
			c0.4,0.9,0.5,1.9,0.5,3.1c0,1.1-0.2,2.1-0.6,3.1s-1,1.7-1.7,2.4c-0.8,0.7-1.7,1.2-2.8,1.6c-1.1,0.4-2.4,0.6-3.9,0.6h-3.9v9H92
			v-24.1h7.1V132.6z M99.1,145.1c0.9,0,1.8-0.1,2.5-0.4c0.7-0.2,1.3-0.6,1.8-1s0.9-1,1.1-1.6s0.4-1.3,0.4-2c0-1.5-0.5-2.7-1.4-3.6
			c-0.9-0.9-2.4-1.3-4.3-1.3h-3.9v9.9L99.1,145.1L99.1,145.1z"/>
		<path id="XMLID_416_" class="st0" d="M130.1,156.8h-2.5c-0.3,0-0.5-0.1-0.7-0.2c-0.2-0.1-0.3-0.3-0.4-0.6l-2.3-5.8h-10.8l-2.3,5.8
			c-0.1,0.2-0.2,0.4-0.4,0.5c-0.2,0.2-0.4,0.2-0.7,0.2h-2.5l9.6-24.1h3.3L130.1,156.8z M123.3,147.8l-3.8-9.8
			c-0.1-0.3-0.2-0.6-0.4-1c-0.1-0.4-0.2-0.8-0.4-1.2c-0.2,0.9-0.5,1.7-0.7,2.3l-3.8,9.8h9.1V147.8z"/>
		<path id="XMLID_422_" class="st0" d="M152.9,132.6v24.1h-1.6c-0.3,0-0.5,0-0.6-0.1c-0.2-0.1-0.3-0.2-0.5-0.5l-14-18.2
			c0,0.3,0,0.6,0.1,0.8c0,0.3,0,0.5,0,0.8v17.2h-2.9v-24.1h1.7c0.1,0,0.3,0,0.4,0c0.1,0,0.2,0,0.3,0.1c0.1,0,0.2,0.1,0.2,0.2
			c0.1,0.1,0.2,0.2,0.3,0.3l14,18.2c0-0.3,0-0.6-0.1-0.8c0-0.3,0-0.5,0-0.8v-17.1L152.9,132.6L152.9,132.6z M145.5,128.8
			c0.3,0,0.5,0,0.7-0.1s0.4-0.2,0.5-0.4s0.2-0.3,0.3-0.5s0.1-0.4,0.1-0.6h1.8c0,0.5-0.1,0.9-0.2,1.4c-0.1,0.4-0.3,0.8-0.6,1.2
			c-0.3,0.3-0.6,0.6-1,0.8s-0.8,0.3-1.3,0.3s-1-0.1-1.4-0.3s-0.8-0.4-1.1-0.6c-0.3-0.2-0.7-0.4-1-0.6c-0.3-0.2-0.6-0.3-0.9-0.3
			c-0.3,0-0.5,0.1-0.7,0.2c-0.2,0.1-0.4,0.2-0.5,0.4s-0.2,0.3-0.3,0.5s-0.1,0.4-0.1,0.6H138c0-0.5,0.1-0.9,0.2-1.4
			c0.1-0.4,0.3-0.8,0.6-1.2c0.3-0.3,0.6-0.6,1-0.8s0.8-0.3,1.3-0.3s1,0.1,1.4,0.3c0.4,0.2,0.8,0.4,1.1,0.6c0.3,0.2,0.7,0.4,1,0.6
			C144.8,128.7,145.1,128.8,145.5,128.8z"/>
		<path id="XMLID_453_" class="st0" d="M178.6,156.8h-2.5c-0.3,0-0.5-0.1-0.7-0.2c-0.2-0.1-0.3-0.3-0.4-0.6l-2.3-5.8h-10.8l-2.3,5.8
			c-0.1,0.2-0.2,0.4-0.4,0.5c-0.2,0.2-0.4,0.2-0.7,0.2H156l9.6-24.1h3.3L178.6,156.8z M171.8,147.8L168,138c-0.1-0.3-0.2-0.6-0.4-1
			c-0.1-0.4-0.2-0.8-0.4-1.2c-0.2,0.9-0.5,1.7-0.7,2.3l-3.8,9.8h9.1V147.8z"/>
	</g>
</g>
</svg>
