<?xml version="1.0" encoding="utf-8"?>
<!-- Generator: Adobe Illustrator 22.0.1, SVG Export Plug-In . SVG Version: 6.00 Build 0)  -->
<svg version="1.1" id="Layer_1" xmlns="http://www.w3.org/2000/svg" xmlns:xlink="http://www.w3.org/1999/xlink" x="0px" y="0px"
	 viewBox="0 0 240.7 216" style="enable-background:new 0 0 240.7 216;" xml:space="preserve">
<style type="text/css">
	.st0{fill:#FFFFFF;}
</style>
<g>
	<path class="st0" d="M129.8,125.8c-18.4-1.7-39.7,0.6-39.7,0.6s-2.4,0.4-6.9,1c-4.6,0.7-5.4,1.6-5.4,1.6s2.7,2.4,3.8,6.1
		c1.2,3.8,0.3,6.9,0.3,6.9s0,0.2,2-0.7c2-0.8,8.1-2.8,19.4-5.7c11.3-2.8,29.3-4.7,29.3-4.7c18.5-1.7,27.4-2,27.4-2s-1-0.4-7.6-1.1
		C146.2,127.2,147.3,127.4,129.8,125.8z"/>
	<path class="st0" d="M129.8,160.7c-18.4-1.7-39.7,0.6-39.7,0.6s-2.4,0.4-6.9,1c-4.6,0.7-5.4,1.6-5.4,1.6s2.7,2.4,3.8,6.1
		c1.2,3.8,0.3,6.9,0.3,6.9s0,0.2,2-0.7c2-0.8,8.1-2.8,19.4-5.7c11.3-2.8,29.3-4.7,29.3-4.7c18.5-1.7,27.4-2,27.4-2s-1-0.4-7.6-1.1
		C146.2,162.1,147.3,162.3,129.8,160.7z"/>
	<path class="st0" d="M129.8,143.1c-18.4-1.7-39.7,0.6-39.7,0.6s-2.4,0.5-6.9,1c-4.6,0.7-5.4,1.6-5.4,1.6s2.7,2.4,3.8,6.1
		c1.2,3.8,0.3,6.9,0.3,6.9s0,0.2,2-0.7c2-0.8,8.1-2.8,19.4-5.7c11.3-2.8,29.3-4.7,29.3-4.7c18.5-1.7,27.4-2,27.4-2s-1-0.4-7.6-1.1
		C146.2,144.5,147.3,144.7,129.8,143.1z"/>
	<path class="st0" d="M132.7,96.4c4.5,0,8.4,2.9,9.7,7c1.1,0.5,1.8,0.9,3.1,1c-1.1-6-6.4-10.6-12.7-10.6c-0.3,0-0.5,0-0.7,0l0.1,0.7
		c0,0.9,0,1.3-0.1,1.9H132.7z"/>
	<path class="st0" d="M132.7,119.5c6.6,0,12-5,12.8-11.3c-0.6,0-1.1,0-1.7-0.2c-0.3-0.1-0.6-0.2-1-0.3c-0.6,4.9-4.8,8.8-10,8.8
		c-5.6,0-10.1-4.5-10.1-10.1c0-3.8,2-7.1,5.1-8.8c0.2-0.4,0.3-0.7,0.3-1.2c0-0.7,0-1.2,0-1.8c-4.8,1.9-8.2,6.5-8.2,12
		C119.9,113.7,125.6,119.5,132.7,119.5z"/>
	<path class="st0" d="M105,96.2c4.7,0,8.6,3.1,9.7,7.3c1,0.6,1.9,0.8,3,0.9c-1-6.1-6.3-10.8-12.7-10.8h-0.5c0.1,1,0,1.7-0.1,2.6H105
		z"/>
	<path class="st0" d="M92.2,106.4c0,7.1,5.7,12.9,13,12.8c6.4,0,11.8-4.7,12.7-10.9c-0.8,0-1.9-0.3-2.8-0.5c-0.8,4.8-5,8.5-10,8.5
		c-5.6,0-10.1-4.5-10.1-10.1c0-3.7,2-6.9,5-8.7c0.3-1,0.5-1.3,0.4-2.8v-0.3C95.6,96.3,92.2,100.9,92.2,106.4z"/>
	<path class="st0" d="M128.8,94.8c0,3.7-2,6.9-5,8.7l-0.4,3v0.4c4.8-1.9,8.2-6.5,8.2-12c0-7.1-5.7-12.8-12.9-12.9
		c-6.4,0-11.7,4.7-12.7,10.9c1.1,0.1,1.6,0.1,2.7,0.6c0.6-5,4.9-8.8,10-8.8C124.3,84.7,128.8,89.2,128.8,94.8z"/>
	<path class="st0" d="M119.3,107.9v-0.2l-0.1-0.2v-0.8c0-0.4,0-0.8,0-1.3v-0.2v-0.3h-0.5c-4.6,0-8.5-3.1-9.7-7.2
		c-1-0.5-1.9-0.7-3-0.7c0.9,6.2,6.2,10.9,12.7,10.9C118.7,107.9,119.3,107.9,119.3,107.9z"/>
	<path class="st0" d="M159.5,95c0-7.1-5.8-12.9-12.9-12.9c-6.6,0-12,4.9-12.8,11.2c0.9,0.1,1.8,0.1,2.7,0.4c0.5-5.1,4.8-9,10-9
		c5.6,0,10.1,4.5,10.1,10.1s-4.5,10.1-10.1,10.1c-4.5,0-8.3-2.9-9.6-7c-1-0.4-1.7-0.8-2.9-0.8h-0.1c1,6.1,6.3,10.7,12.7,10.7
		C153.7,107.8,159.5,102,159.5,95z"/>
	<path class="st0" d="M90.9,82C83.8,82,78,87.8,78,94.9s5.8,12.9,12.9,12.9h0.4c0-0.8-0.1-1.9,0.1-2.9H91c-5.5,0-10.1-4.5-10.1-10.2
		c0-5.6,4.5-10.1,10.1-10.1s10.1,4.5,10.1,10.1c0,3.9-2.2,7.2-5.3,8.9c-0.4,0.8-0.3,1.7-0.3,2.8v0.5c4.9-1.8,8.3-6.5,8.3-12
		C103.8,87.8,98,82,90.9,82z"/>
	<path class="st0" d="M81.1,61.9v-4.1H100v4.1h3.4c0,0,0-8.4-0.2-11.2s0.2-5.1-3.2-10.9c-3.5-5.8-9.9-5.2-9.9-5.2
		c-5.3,0-9.2,4.2-11.1,8.4c-1.9,4.1-1.3,8.9-1.3,8.9v10H81.1z M81.4,47.5c0.6-3.1,3.7-9.4,8.6-9.5c5.1-0.1,7.5,3.1,8.9,6.4
		c1.4,3.2,1,4,1.1,5.4s0,4.9,0,4.9l-19,0.1C81,49.2,80.8,50.6,81.4,47.5z"/>
	<path class="st0" d="M107.1,58.7h-2V62c0,0,8,0,9.5,0c1.6-0.1,16.7,0,17-13.5c0.4-14.4-16.9-13.9-18.4-13.9s-8.3,0-8.3,0v3.3h2.1
		C107,36.4,107.1,58.7,107.1,58.7z M117.9,38c2.8,0.2,10.6,2.8,10.7,10.4c0.1,8.1-10.5,10.2-12.1,10.3c-1.4,0.1-6.5,0-6.5,0
		L109.9,38C109.9,38,115,37.9,117.9,38z"/>
	<path class="st0" d="M146.5,62.3c7.5,0,13.5-6,13.5-13.5s-6.1-13.5-13.5-13.5c-7.5,0-13.5,6-13.5,13.5
		C133,56.2,139.1,62.2,146.5,62.3z M146.4,38.5c5.6,0,10.1,4.5,10.1,10.1s-4.5,10.1-10.1,10.1c-5.6,0.1-10.1-4.5-10.1-10.1
		C136.3,43,140.8,38.5,146.4,38.5z"/>
</g>
</svg>
