<?xml version="1.0" encoding="utf-8"?>
<!-- Generator: Adobe Illustrator 22.0.1, SVG Export Plug-In . SVG Version: 6.00 Build 0)  -->
<svg version="1.1" id="Layer_1" xmlns="http://www.w3.org/2000/svg" xmlns:xlink="http://www.w3.org/1999/xlink" x="0px" y="0px"
	 viewBox="0 0 240.7 216" style="enable-background:new 0 0 240.7 216;" xml:space="preserve">
<style type="text/css">
	.st0{fill:#FFFFFF;}
</style>
<path id="XMLID_1443_" class="st0" d="M49.3,156.9c-2-0.9-3.2-1.3-4.4-1.3c-1.3,0-2,0.5-2,1.2c0,2.1,7,1.5,7,6.4
	c0,2.7-2.2,4.2-5.3,4.2c-2.4,0-3.6-0.6-5-1.4v-3c2,1.4,3.2,1.8,4.7,1.8c1.4,0,2-0.5,2-1.3c0-2.3-7-1.4-7-6.4c0-2.4,2-4,5.3-4
	c1.5,0,3,0.3,4.7,1.1V156.9L49.3,156.9z"/>
<path id="XMLID_1440_" class="st0" d="M60.1,165.5c-0.3,0-0.5-0.2-0.5-0.6v-4.3c0-2-1.6-2.8-4-2.8c-1.5,0-2.8,0.4-4,1.1v2.4
	c0.9-0.9,2.3-1.5,3.5-1.5c1.3,0,1.6,0.7,1.6,1.5c-3.9,1.3-5.6,1.7-5.6,3.9c0,1.2,1.1,2.3,2.6,2.3c1,0,2-0.3,3.1-1.1
	c0.2,0.8,0.7,1.1,1.6,1.1c0.8,0,1.9-0.3,2.8-0.9V165C60.5,165.4,60.3,165.5,60.1,165.5L60.1,165.5z M56.6,165
	c-0.5,0.4-1.1,0.7-1.6,0.7c-0.6,0-1-0.5-1-1c0-1,0.8-1.4,2.6-2V165L56.6,165z"/>
<polygon id="XMLID_1439_" class="st0" points="60.8,157.8 64,157.8 66,163 68,157.8 71.2,157.8 66.8,167.4 65.2,167.4 "/>
<path id="XMLID_1436_" class="st0" d="M74.6,163h6.8c0.1-3.4-2.2-5.3-4.9-5.3c-2.9,0-4.9,2-4.9,4.9s2.2,4.8,5.5,4.8
	c0.7,0,2.5,0,4.2-1.3v-1.9c-1.4,1-2.3,1.4-3.5,1.4C75.9,165.7,74.7,164.7,74.6,163L74.6,163z M76.7,159.4c1.1,0,1.9,0.7,2,2h-4.1
	C74.8,160.2,75.5,159.4,76.7,159.4L76.7,159.4z"/>
<path id="XMLID_1349_" class="st0" d="M94.9,159.9h-3.4v3.9c0,0.9,0.5,1.5,1.4,1.5c0.6,0,1.2-0.2,2-0.6v2.2c-1,0.4-1.8,0.6-2.7,0.6
	c-2,0-3.7-0.9-3.7-3.5v-4h-1.3v-0.6l3.9-4.4h0.4v3h3.4L94.9,159.9L94.9,159.9z"/>
<path id="XMLID_1348_" class="st0" d="M99,159.3L99,159.3c0.9-1.1,1.9-1.6,3.1-1.6c1.7,0,3.4,1,3.4,3.6v6h-3v-5.4c0-1.4-0.6-2-1.5-2
	c-0.7,0-1.3,0.5-2,1.4v6h-3v-13.9h3V159.3L99,159.3z"/>
<path id="XMLID_1345_" class="st0" d="M110.2,163h6.8c0.1-3.4-2.2-5.3-4.9-5.3c-2.9,0-4.9,2-4.9,4.9s2.1,4.8,5.5,4.8
	c0.7,0,2.5,0,4.2-1.3v-1.9c-1.4,1-2.3,1.4-3.5,1.4C111.4,165.7,110.2,164.7,110.2,163L110.2,163z M112.3,159.4c1.1,0,1.9,0.7,2,2
	h-4.1C110.3,160.2,111.1,159.4,112.3,159.4L112.3,159.4z"/>
<path id="XMLID_1344_" class="st0" d="M137,166.1c-1.9,1-3.4,1.4-5.5,1.4c-5.5,0-8.1-3.5-8.1-7.1c0-3.7,3.1-7.2,8.4-7.2
	c2,0,3.7,0.5,5.1,1.3v3.1c-1.5-0.9-3.1-1.5-4.8-1.5c-3,0-5.1,1.8-5.1,4.3s2,4.3,4.9,4.3c1.8,0,3.1-0.6,5.1-1.5L137,166.1L137,166.1z
	"/>
<path id="XMLID_1343_" class="st0" d="M142,159.3L142,159.3c0.9-1.1,1.9-1.6,3.1-1.6c1.7,0,3.4,1,3.4,3.6v6h-3v-5.4
	c0-1.4-0.6-2-1.5-2c-0.7,0-1.3,0.5-2,1.4v6h-3v-13.9h3V159.3L142,159.3z"/>
<polygon id="XMLID_1342_" class="st0" points="150.6,157.8 153.5,157.8 153.5,167.3 150.6,167.3 "/>
<path id="XMLID_1341_" class="st0" d="M153.7,154.8c0,0.9-0.7,1.6-1.6,1.6c-0.9,0-1.6-0.7-1.6-1.6c0-0.9,0.7-1.6,1.6-1.6
	C153,153.1,153.7,153.9,153.7,154.8L153.7,154.8z"/>
<polygon id="XMLID_1340_" class="st0" points="155.7,153.3 158.7,153.3 158.7,167.3 155.7,167.3 "/>
<path id="XMLID_1337_" class="st0" d="M167.3,153.3v4.9c-0.8-0.4-1.6-0.6-2.4-0.6c-2.7,0-4.6,2-4.6,4.9c0,2.8,1.9,4.9,4.4,4.9
	c1,0,1.8-0.3,2.6-0.9v0.7h3v-13.9L167.3,153.3L167.3,153.3z M167.3,164.7c-0.6,0.5-1.1,0.7-1.8,0.7c-1.4,0-2.3-1.1-2.3-2.8
	c0-1.9,0.9-3,2.4-3c0.5,0,1.2,0.2,1.6,0.5v4.6H167.3z"/>
<path id="XMLID_1336_" class="st0" d="M175.3,160.6L175.3,160.6c0.9-2,1.9-2.9,3.1-2.9c0.6,0,1.1,0.2,1.9,0.9l-0.8,2.6
	c-0.8-0.5-1.3-0.7-1.8-0.7c-1.1,0-1.8,1-2.4,2.7v4.1h-3v-9.4h3V160.6L175.3,160.6z"/>
<path id="XMLID_1333_" class="st0" d="M183.6,163h6.8c0.2-3.4-2.1-5.3-4.9-5.3c-2.9,0-4.9,2-4.9,4.9s2.2,4.8,5.5,4.8
	c0.7,0,2.5,0,4.2-1.3v-1.9c-1.4,1-2.3,1.4-3.5,1.4C184.9,165.7,183.7,164.7,183.6,163L183.6,163z M185.7,159.4c1.1,0,1.9,0.7,2,2
	h-4.1C183.8,160.2,184.6,159.4,185.7,159.4L185.7,159.4z"/>
<path id="XMLID_1332_" class="st0" d="M194.9,159.2c0.9-1.1,1.8-1.5,3.1-1.5c1.4,0,3.4,0.9,3.4,3.6v6h-3v-5.7c0-1.4-0.6-1.9-1.5-1.9
	c-0.7,0-1.3,0.4-2,1.5v6.1h-3v-9.4h3V159.2L194.9,159.2z"/>
<path id="XMLID_1328_" class="st0" d="M161.9,70.7c4.6-4.7,6.7-6.8,6.4-8.2c-0.3-1-1.2-1.8-2.6-2.5c-1.5-0.7-3.7-1.1-4.9-0.6
	c-0.4,0.1-1.1,0.8-2.6,2.4l-1.4,1.4l0,0c-0.8-1-1.7-1.8-2.5-2.6c-6.1-6.1-13.7-10.4-22.3-12.4c-3.2-3.9-7.5-5.8-11.9-5.4
	c-3.7,0.3-7.2,2.2-9.7,5.6c-8.9,2.1-17.1,6.5-23.9,12.9l0,0C85.2,60.7,82,61.2,80,62c-1.1,0.6-1.8,1.3-1.9,1.9
	c-0.3,0.7,0,1.5,2.2,4.4l0,0C73.5,77.7,70,89,70.6,100.4c0.6,11.5,5.3,22.3,13.3,30.4c2.9,2.9,6,5.4,9.4,7.4c5,2.9,10.7,5,16.7,6.2
	c12.8,2.6,25.3,0.7,35.8-4.4v-0.1c1.4-0.6,1.9-2.1,1.4-3.6l-0.1-0.4c-2.2-6.1-9-24.7-3.5-40.7c2.4-6.8,8.3-13.7,13.3-19.2l0,0
	c4.4,8,6.4,17.3,5.4,26.4c-1,8.5-4.3,16.2-9.9,22.5l0,0c-0.1,0.1-0.1,0.4-0.1,0.7c0,0.1,0,0.1,0,0.3l0.4,1.2c0.1,0.4,0.6,0.6,1,0.6
	c0.3,0,0.4,0,0.7-0.3l0,0C168.7,111.7,171.8,88.8,161.9,70.7L161.9,70.7L161.9,70.7z M101.1,105.6c-1.4,6.1-3.5,14.4-3.1,27.2l0,0
	c-3.3-1.9-6.4-4.3-9-6.9c-7.4-7.5-12.1-17.1-13.2-27.3c-1-9.7,1.2-19.6,6.5-27.5l0,0l0,0l0,0c1.5,1.9,3.6,4.2,5.7,6.5
	c5,5.8,10.8,12.4,13.5,16.9C103.2,97.1,102.4,100.3,101.1,105.6L101.1,105.6z M151.5,68.2c-10.8,9.3-20.7,14.2-29.4,14.3
	c-6.7,0-13.6-2.5-20.4-7.4c-5.8-4-10.1-8.7-12.6-11.5l-0.3-0.3l0,0l0,0c5.3-5,11.8-8.5,18.9-10l0,0l0,0l0,0c-0.8,2.6-1.2,5.6-1,8.5
	c0.4,5.4,2.8,10.1,6.5,13.3c2.9,2.4,6.4,3.5,9.9,3.2s6.7-2.1,9.2-4.9c3.1-3.7,4.6-8.9,4.2-14.2c-0.1-1-0.3-1.9-0.4-2.9l0,0
	c4.9,2.2,9.3,5.4,13.2,9.3C150,66.4,150.7,67.3,151.5,68.2L151.5,68.2L151.5,68.2z"/>
</svg>
