<?xml version="1.0" encoding="utf-8"?>
<!-- Generator: Adobe Illustrator 22.0.1, SVG Export Plug-In . SVG Version: 6.00 Build 0)  -->
<svg version="1.1" id="Layer_1" xmlns="http://www.w3.org/2000/svg" xmlns:xlink="http://www.w3.org/1999/xlink" x="0px" y="0px"
	 viewBox="0 0 240.7 216" style="enable-background:new 0 0 240.7 216;" xml:space="preserve">
<style type="text/css">
	.st0{fill:#FFFFFF;}
</style>
<g id="XMLID_1186_">
	<polygon id="XMLID_1189_" class="st0" points="93.7,107.6 93.8,107.5 93.8,107.5 93.8,107.5 	"/>
	<path id="XMLID_1239_" class="st0" d="M127,127.5c-0.1-0.1-0.2-0.2-0.2-0.3c0-0.1,0-0.1-0.1-0.2c0-0.1-0.1-0.2,0-0.4
		c-0.1-0.1-0.1-0.1-0.1-0.2s-0.1-0.2-0.1-0.3c0-0.1,0-0.1,0-0.2c-0.1-0.1-0.1-0.2-0.2-0.3c-0.1-0.2-0.1-0.4-0.2-0.7
		c0-0.1,0-0.2,0-0.2s0,0-0.1-0.1c-0.1-0.3-0.2-0.5-0.2-0.8c0,0,0,0,0-0.1v-0.1c0,0,0,0-0.1-0.1c-0.1-0.2-0.1-0.5-0.2-0.7l0,0l0,0
		c-0.1-0.2-0.1-0.4-0.2-0.6l0,0v-0.1c-1.4-4.6-3.2-10.4-3.5-11.4c-0.3-0.8-0.7-1.2-1.2-1.5l0,0l0,0c-0.4-0.2-0.9-0.3-1.5-0.3
		c-0.4,0-0.8,0-1.1,0c-0.1,0-0.2,0-0.3,0c-1.2-0.1-1.9,0.1-2.2,0.2c-0.1,0-0.2,0-0.3,0.1l0,0l0,0c-0.3,0.2-0.7,0.6-1.1,1.7
		c-0.8,2.2-7.2,22.3-7.2,22.3h0.1l0,0c-0.5,1.1-0.2,1.7,1,1.9c0.2,0,0.4,0,0.6,0.1c0.2,0,0.4,0,0.6,0c0.3,0,0.6,0,0.9,0
		c0.4-0.1,0.8-0.2,1.2-0.2c0.1-0.1,0.1-0.2,0.2-0.3c0.2-0.6,0.3-1.3,0.4-1.9l0.6-1.9c0.1-0.2,0.1-0.3,0.2-0.5
		c0.2-0.8,0.4-1.4,1.4-1.4c2.4,0.1,4.8,0.1,7.1,0.1c0.5,0,0.8,0.1,1,0.2c0,0,0,0,0,0.1c0,0,0.6,4,1.6,4.7l0.1,0.1
		c1.3,1.5,3.2,0.8,4.9,0.5l0,0c0.1-1.6-0.8-2.9-1.2-4.3C127.5,129.3,127.2,128.4,127,127.5z M120.2,124.9c-1.7,0-3.4,0-5.1,0
		c-0.7,0-0.7-0.4-0.5-0.9c1-3.3,1.9-6.6,3-10.3c1.1,3.7,2.1,7.1,3.1,10.5C120.8,124.6,120.7,124.9,120.2,124.9z"/>
	<path id="XMLID_1242_" class="st0" d="M130.2,103.6c0.2-0.1,0.3-0.1,0.5-0.2l0,0c0.3-0.1,0.6-0.2,0.8-0.4c0,0,0,0,0.1,0
		s0.1-0.1,0.1-0.1c0.3-0.2,0.6-0.4,0.7-0.5c0.8-0.5,1.2-0.4,2.5,0.5c0.1,0.1,0.2,0.2,0.4,0.3c1,0.7,1.6,0.6,1.9,0.4c0,0,0,0,0.1,0
		l0.1-0.1c0.1,0,0.1-0.1,0.2-0.1c0.3-0.1,0.6-0.9,0.7-1.2c0.1-0.2,0.2-0.3,0.3-0.5v-0.1c0,0,0,0,0-0.1c0-0.3,0-0.8,0-0.8
		s0-0.1-0.1-0.1l0,0c-1.2-1.2-0.8-2.7-0.7-4.1c-0.1-1.7-0.1-3.3,0-5c0-0.8,0-1.7-0.1-2.5c0-0.1-0.1-0.1-0.1-0.2
		c-0.3-3.2-2.5-3.9-2.9-4c-1.4-0.6-2.9-0.8-4.4-0.9c-0.2,0-0.4,0-0.6,0.1c-2.1,0.5-4.1,0.9-6.2,1.4h-0.1c-0.2,0.1-0.3,0.2-0.5,0.3
		c0,0.2,0,0.4-0.1,0.5c0.2,0.7,0.5,1.3,0.7,2c0.3,0.7,0.7,1,1.5,0.8c0.2-0.1,0.4-0.1,0.6-0.2c1.5-0.7,3-1,4.6-0.9
		c1,0,1.9,0.5,2.3,1.5c0.7,1.7,0.3,2.3-1.5,2.3c-3-0.1-5.8,0.2-7.9,2.7v0.1c0,0,0,0.1-0.1,0.1c-0.2,0.1-0.4,0.5-0.7,1.3
		c-0.9,3.1,0.1,6.6,3.4,7.6l0,0l0,0c0.3,0.1,0.6,0.2,0.9,0.2h0.1c0,0,0,0,0.1,0l0,0c0.9,0.1,1.7,0.1,2.3,0h0.1
		C129.7,103.7,130,103.6,130.2,103.6z M127.3,97.1c0.3-1.4,1.3-2,2.7-2c0.3,0,0.5,0,0.9,0c0.9,0.1,1.7-0.2,1.9,0.7
		c0.4,1.2,0.6,2.8-1,3.5c-1,0.5-1.7,1.6-3.1,0.8C127.5,99.4,126.9,98.5,127.3,97.1z"/>
	<path id="XMLID_1260_" class="st0" d="M146.5,132.1c-0.8-0.8-0.8-1.9-0.8-2.9c0-3.9-0.1-7.8,0-11.7c0-1.1-0.3-1.5-1.4-1.6
		c-3.5-0.1-3.5-0.2-3.5,3.3c0,2.8,0,5.7,0,8.5c0,1.5-1.8,2.9-3.7,2.9c-1.4,0-2-0.7-2-2.7c0-2.6,0.1-5.2,0.1-7.9c0-0.1,0-0.2,0-0.3
		c0-0.3,0-0.7,0-0.9l0,0v-0.1c0-0.2,0-0.4,0-0.5s0-0.2,0-0.3c0-0.1-0.1-0.3-0.1-0.4c-0.1-0.2-0.1-0.3-0.2-0.5l0,0
		c0-0.1-0.1-0.1-0.1-0.1l0,0c0,0-0.1,0-0.1-0.1c-0.1-0.1-0.2-0.2-0.3-0.2c-0.8-0.7-1.8-0.8-2.9-0.6c-1.8,0.4-2,0.6-1.6,2.4
		c0.4,1.9,0.1,3.8,0.2,5.7c0,1.7,0,3.4,0,5H130c0,0-0.5,5,3.6,5.8h0.1c0.5,0.2,0.9,0.3,1.4,0.4c0.2,0,0.4,0,0.6,0
		c0.1,0,0.1,0,0.2-0.1c2,0,2.8-0.9,4.8-2.2c0.1,0,0.1-0.1,0.2-0.1c0.3-0.2,0.6-0.2,0.8,0.1c0.1,0.2,0.2,0.5,0.4,0.6
		c2,2.2,3.8,1.8,4.8-1.1l0,0C146.7,132.3,146.6,132.2,146.5,132.1L146.5,132.1z"/>
	<path id="XMLID_1266_" class="st0" d="M190.7,98c0-2.1,0-4.2,0-6.3c0-4.9-1.5-6.8-5.6-7.6c-0.7,0-1.4,0-2.2,0
		c-1.9,0.4-3.7,0.7-5.6,1.1h-0.1c-1.4,0.7-1.5,2.9-0.3,3.8c0.5,0.3,0.9,0.1,1.3-0.1c1.5-0.5,2.9-0.9,4.5-1c1,0,1.8,0.2,2.5,1
		c0.6,0.7,0.7,1.7,0.4,2.5s-1.1,0.3-1.6,0.3c-1.7,0-3.5,0.1-5.2,0.6c-0.3,0.1-0.6,0.3-0.9,0.4c-2.1,1.5-3,3.6-2.7,6.2
		c0.5,3.9,4.4,6,8.3,4.3c1.8-0.8,3.3-1.9,5.1,0c0.5,0.5,1.5,0.6,2-0.3c0.5-0.8,1.4-1.5,0.5-2.6C190.7,99.7,190.7,98.8,190.7,98z
		 M180.2,97.7c0-1.4,0.7-2.4,2.1-2.6c0.9-0.2,1.8-0.1,2.8,0c0.6,0,0.8,0.3,0.8,0.6c0,0.4-0.2,2.1-0.8,3.1c-0.3,0.4-0.7,0.7-1.1,0.9
		c0,0,0,0-0.1,0h-0.1c-0.2,0.1-0.6,0.2-1,0.3h-0.1c-0.1,0-0.1,0-0.2,0c-0.2,0-0.4,0-0.6-0.1C180.8,99.8,180.1,99,180.2,97.7z"/>
	<path id="XMLID_1270_" class="st0" d="M178.4,122.2c-0.4-2.2-1.5-4-3.3-5.4l0,0c0,0-0.1,0-0.1-0.1c-0.8-0.6-2.5-1.5-5.2-1.5
		c-1.9,0-3.3,0.5-4.3,1.1l0,0c0,0-2.3,1.2-2.7,3.5c0,0.2-0.1,0.3-0.1,0.5c-0.5,1.6-0.9,3.3-0.9,5c0.1,4.7,1.5,9.1,7.9,9.9
		c0.3,0,0.6,0,1,0h0.1c0.8-0.1,2-0.2,3.3-0.8c0.1,0,0.2,0,0.3-0.1l0,0c0.1-0.1,0.3-0.2,0.4-0.2l0,0c0,0,0,0,0-0.1
		c0.3-0.2,0.6-0.4,0.8-0.6l0,0l0,0c0.2-0.2,0.4-0.3,0.6-0.5c0,0,0,0,0.1,0c0,0,0-0.1,0.1-0.1c0.4-0.5,0.8-1.1,1.1-1.8
		C178.8,128.4,178.9,125.3,178.4,122.2z M167.4,129.5c-0.6-1.4-0.6-2.8-0.6-4.2c0-1.4,0-2.9,0.7-4.2c0.5-1.2,1.4-1.9,2.8-1.8
		c1.3,0,2.3,0.7,2.7,1.9c1,2.8,0.9,5.7,0,8.5c-0.4,1.2-1.4,1.9-2.7,1.9C168.9,131.5,167.9,130.8,167.4,129.5z"/>
	<path id="XMLID_1271_" class="st0" d="M111.6,103c0.2-0.1,0.4-0.2,0.6-0.3c0.2-0.2,0.4-0.3,0.6-0.5c1-0.8,1.7-1.4,3,0
		c1.6,1.8,3.1,1.4,4-0.4c0.2-0.4,0.3-0.8,0-1.3c-0.7-1-0.7-2.1-0.7-3.2c-0.1-4.3,0.2-8.6-0.1-12.9c0,0,0,0-0.1,0
		c-0.1-0.3-0.3-0.3-0.3-0.3s-2-0.1-3.2,0s-1.3,0.8-1.3,0.8h0.1c-0.1,0.2-0.1,0.4-0.1,0.7c0.1,3.8,0.2,7.6,0,11.4
		c-0.6,1.2-1.8,1.6-2.9,1.9c-1.6,0.5-2.4-0.1-2.5-1.9c0-0.2,0-0.4-0.1-0.6c-0.4-3.5-0.1-7-0.2-10.5c0-0.1-0.1-0.2-0.1-0.3
		c-0.1-1.1-1.3-1.7-3.3-1.7c-2.2,0.1-2.2,1.3-2.2,1.3h0.1c0,0.1,0,0.1,0,0.2c1.2,3.9,0.5,7.9,0.6,11.8c0.1,2.3,0.7,4.2,2.6,5.7l0,0
		C107.9,103.8,109.7,103.6,111.6,103z"/>
	<path id="XMLID_1272_" class="st0" d="M208.1,96.9c0-0.2-0.1-0.4-0.1-0.6c-0.2-0.4-0.4-0.8-0.7-1.2l0,0c-1-2.3-4.6-3.2-4.8-3.2
		c-0.7-0.3-1.3-0.5-2-0.8c-0.8-0.3-1.6-0.8-1.4-1.9c0.2-1.1,1.1-1.4,2.1-1.4c1.5,0,3,0.4,4.3,1c1.4,0.6,1.5-0.7,1.8-1.4
		c0.3-0.7,0.8-1.6-0.5-2.1c-0.9-0.3-1.9-0.6-2.8-0.7l0,0c0,0-4.4-1.4-7.2,0.7l0,0c-1.2,0.7-2.2,1.7-2.6,3.4
		c-0.6,2.6,0.3,4.8,2.9,6.1c1,0.5,2,0.9,3.1,1.4l0,0c0,0,2.1,0.9,2.5,1.3l0.1,0.1c0.1,0.2,0.1,0.6,0.2,1v0.1
		c-0.2,0.9-0.9,1.3-1.8,1.5c-1.6,0.3-3.2-0.1-4.6-0.8c-1-0.5-1.9-1-2.5,0.6c-0.7,1.7-0.7,2,0.9,2.9c0.3,0.1,0.5,0.2,0.8,0.3
		c0.1,0,0.1,0,0.2,0c8,2.5,10.7-1.3,10.7-1.3l0,0C207.7,100.5,208.3,98.9,208.1,96.9z"/>
	<path id="XMLID_1273_" class="st0" d="M87.5,136.4c-3.7-6.2-9.2-9.4-16.4-9.1c-7.2,0.3-12.3,4-15.4,10.6c-1.1,2.3-1,2.4,1.5,2.3
		c1,0,2.3,0.6,3-0.8c0-0.1,0-0.2,0.1-0.2v-0.1c0.2-0.3,0.3-0.5,0.5-0.8c0,0,0,0,0.1,0c0,0,0,0,0-0.1c2.3-3.5,5.3-5,7.5-5.7
		c0.2,0,0.4-0.1,0.6-0.1c0.1,0,0.1-0.1,0.2-0.1s0.3-0.1,0.4-0.1s0.2,0,0.4,0c0.7-0.2,1.4-0.3,2-0.3c0.1,0,0.2,0,0.3,0
		c0.3,0,0.5,0,0.8,0.1c8.9,1.6,11,8.2,11,8.2h0.1c0,0,0,0,0,0.1c1.3,0,2.6,0,3.8,0.1c1.1,0.1,1.1-0.5,0.8-1.2
		C88.3,138.2,88,137.2,87.5,136.4z"/>
	<path id="XMLID_1274_" class="st0" d="M162.9,88c0.7,0.1,1.6-0.1,1.2,1.1c0.1,2.9,0.1,5.8,0,8.7c-0.1,0.5-0.3,3.5,1.2,4.6
		c1.8,1.3,3.9,0.9,5.9,1c0.3,0,0.6,0,0.9-0.1c0.6-0.3,1.5-0.2,1.2-1.3c-0.2-0.9,0.4-2.2-1.2-2.5c-0.2,0-0.4,0-0.6,0
		c-2.1,0.2-2.4-0.2-2.4-2.1c0-2.7,0-5.4,0-8.2c0-1,0.2-1.4,1.3-1.3c0.5,0.1,1,0,1.5,0c1.7,0,2.6-1.4,1.8-3c-0.4-0.8-1.2-0.4-1.8-0.4
		c-2.8,0-2.7,0-2.9-2.8c-0.1-1,1-2.6-0.8-2.9c-2.5-0.5-3.5,0.2-4.1,2.5c0,0.2,0,0.4,0,0.6c0,0.5,0.1,0.9,0.1,1.4
		c0.1,0.9-0.3,1.3-1.2,1.2c-0.6,0-1.4-0.5-1.7,0.4s-0.3,1.9,0.1,2.7C161.6,88.4,162.4,88,162.9,88z"/>
	<path id="XMLID_1275_" class="st0" d="M159.8,116c-1-0.3-3.6-0.1-3.8,0c-0.2-0.1-0.2-0.4-0.2-0.7c0-1.5,0-3,0.1-4.5
		c-0.1-0.1-0.1-0.2-0.1-0.3c-0.3,0-0.5-0.1-0.8-0.1c-3.5-0.2-4,0.4-4.1,3.9c0,0.6,0.5,1.4-0.4,1.7c-0.2,0-0.4,0-0.6,0
		c-1.6-0.2-2.2,0.4-2.1,2.1c0.1,1.2,0.4,1.7,1.6,1.5c1.1-0.2,1.5,0.2,1.5,1.4c-0.1,2.8-0.1,5.6-0.1,8.4l-0.1,0.1
		c0,0-0.9,4.4,2.3,5.1l0,0c2,0.7,4.1,0.3,6.1,0.1c1.1-0.1,0.8-1,0.8-1.7c-0.1-0.7,0.2-1.7-1-1.9c-3.3-0.4-3.3-0.4-3.3-3.7
		c0-2.3,0-4.5,0-6.8c0-0.9,0.3-1.2,1.2-1.1c0.6,0.1,1.2,0.1,1.8,0c0.6,0,1.4,0.4,1.6-0.4c0.3-0.9,0.4-1.9,0-2.7
		C160.2,116.1,160,116,159.8,116z"/>
	<path id="XMLID_1276_" class="st0" d="M98,124.4c-0.3-0.1-0.6-0.2-0.9-0.2c-0.5,0.1-1,0.2-1.5-0.1c-0.2,0-0.4,0-0.6,0
		c-0.8,0.9-0.5,2-0.4,3c0.2,1.2-0.2,1.4-1.3,1.2c-4.1-0.7-8.1-2-11.7-4.2c-0.9-0.5-2-0.4-2.7-1.3c-0.8-1-2-1.5-3.3-2.3
		c0.7,1.5,1.2,2.7,2.2,3.7c2.6,2.6,5.4,5.1,8.3,7.3c1.8,1.3,3.8,2.6,6.1,3.1c1,0.2,1.3-0.1,1.6-1.2c0.4-1.9,1.2-3.7,1.9-5.7
		c0.6,0.5,0.5,0.8,0.3,1.1c-0.5,1.1-0.4,1.9,1,2.1c0.2,0,0.3,0.2,0.5,0.3h0.1l0.1,0.1c1.6,0.2,0.6-1.4,1.2-1.8c0-0.2,0-0.4,0.1-0.6
		c0-0.1,0-0.2,0-0.3c-0.1-0.6,0.1-1.3,0.2-1.9C98.9,125.7,98.7,124.9,98,124.4z"/>
	<path id="XMLID_1277_" class="st0" d="M96.9,114.6c-2.2,0.6-4.5,1.2-6.7,1.8c-0.3,0.1-0.6,0.1-0.9,0.2c-0.4,0.3-0.8,0.2-1.2,0.1
		c-0.4,0.2-0.8,0.1-1.3,0c-1.1,0.1-2.1-0.1-3.1-0.5c-0.2,0-0.4-0.1-0.6-0.1c-0.2,0.1-0.4,0-0.6-0.2c-0.2-0.1-0.4-0.1-0.7-0.2
		c-2.2-0.6-4.5-0.9-6.7-1.2c-0.4-0.1-0.8-0.2-1,0.1c-0.2,0.5,0.2,0.7,0.6,0.8c2.7,1,5.3,2.2,8,3.1s5.3,1.1,8,0.2
		c1.3-0.4,2.6-0.7,3.9-1c1-0.2,2.1-0.4,3.2-0.2c-0.5,0.7-0.8,1.2-1.2,1.8c-0.3,0.5-0.9,1.1-0.2,1.6c0.7,0.4,1.7,0.7,2.4-0.2
		c0.5-0.6,0.7-1.3,0.8-2c0.3-1.6,0.4-3.2,1.9-4.6C99.8,114,98.3,114.3,96.9,114.6z"/>
	<path id="XMLID_1278_" class="st0" d="M56.9,94c1.6-1.6,3.7-2.2,5.8-2.3c6.9-0.5,12,6.5,9.5,13c-0.3,0.7-0.7,1.2,0.3,1.7
		c1.2,0.6,1.1-0.5,1.5-0.9c0.2-0.5,0.3-1,0.5-1.5c0.1-0.2,0.1-0.3,0.2-0.5c0.1-0.8,0.1-1.5,0.2-2.3c0-0.3,0-0.6,0-0.9
		c-0.1-0.5-0.2-1-0.2-1.5c-0.1-0.4-0.2-0.9-0.4-1.3c0-0.2-0.1-0.3-0.1-0.5c-0.1-0.1-0.1-0.3-0.2-0.4s-0.1-0.3-0.2-0.4
		c-0.1-0.2-0.2-0.3-0.3-0.5c-0.1-0.2-0.2-0.3-0.3-0.5c-0.5-0.7-1-1.3-1.5-2c-0.4-0.2-0.7-0.5-0.9-0.9c-1-0.6-2.1-1.2-3.1-1.8
		c-0.4-0.1-0.8-0.3-1.2-0.4c-1.5-0.2-3.1-0.4-4.6-0.3c-0.2,0-0.4,0.1-0.6,0.1c-0.7,0.2-1.5,0.4-2.2,0.6v0.1H59
		c-1.5,1.1-3.2,1.8-4.5,3.2c0,0.2,0,0.4-0.1,0.5C55.2,94.3,56,94.9,56.9,94z"/>
	<path id="XMLID_1279_" class="st0" d="M53.1,126.4c-0.5-1.7,0.1-3,1.3-4.2c0.9-0.8,1.5-2,2.2-3c0.3-0.4,0.4-1,0.1-1.2
		c-0.4-0.5-0.6,0.2-0.9,0.4c-1.4,0.9-2.2,2.3-2.7,3.8c-1.5,4.3-3.3,8.5-4.1,13.1h-0.1c0,0-0.9,2.8-1.3,3.5c0,0-0.2,0.5-0.1,0.8
		c0,0,0,0.1,0.1,0.1c0,0.3,0.1,0.5,0.7,0.5c0.7,0,1.5,0.2,1.7-1c0.6-3.2,1.3-6.3,2.5-9.3C53,128.8,53.5,127.7,53.1,126.4z"/>
	<path id="XMLID_1280_" class="st0" d="M69.1,115.5c0.1,0.1,0.3,0.2,0.5,0.3c0.3,0.2,0.6,0.3,0.8,0c0.2-0.2,0.1-0.5,0-0.7
		c-0.2-0.7-0.6-1.4-0.3-2.2c0-0.4,0.1-0.8,0.1-1.2c-0.1-0.4,0-0.8,0.2-1.2c0-0.3,0-0.6,0-0.9c-0.4-0.6,0-1.4-0.7-2
		c-0.8,1.1-1.6,2.1-2.8,2.8c-0.4,0.3-0.8,0.6-1.4,0.1c-1.4-1.1-1.4-1.1-1.7,0.7c-0.1,0.4-0.1,0.8-0.2,1.2c-0.2,1.7,0,2,1.7,1.8
		C66.8,114.2,68.1,114.3,69.1,115.5z"/>
	<path id="XMLID_1281_" class="st0" d="M96.1,134.6c-0.6-0.6,0.1-1.7-0.8-2.3c-0.4,0.3-0.4,0.7-0.5,1c-0.5,2.1-1.4,2.6-3.4,2
		c-1.1-0.3-2-0.9-3.1-1.3c-0.5-0.2-0.9-0.7-1.4-0.3c0.5,2.4,2.6,2.6,4.3,3.5h0.1l0.1,0.1c1.9,0.3,3.7,1.2,5.8,1.3
		c-0.2-1.2-1-2.2-1.1-3.3C96.2,135,96.1,134.8,96.1,134.6z"/>
	<path id="XMLID_1282_" class="st0" d="M35.9,128.7c-0.8-1-0.3-2-0.1-3.1c0.1-0.6-0.1-1.6-0.6-1.6c-0.8,0-0.4,0.9-0.4,1.3
		c-0.1,4.9-0.1,9.8-0.1,14.8c0.1,0,0.1,0,0.1,0.1c0.3,0,0.7,0,1,0v-0.1h0.1c0-3.5-0.2-7,0.1-10.6C36,129.3,36,129,35.9,128.7z"/>
	<path id="XMLID_1283_" class="st0" d="M33.3,126.9c0.3,0,0.6,0,0.7-0.4c0.3-1.8-0.1-3.4-1.2-4.9C32.2,123.5,33.1,125.2,33.3,126.9z
		"/>
	<path id="XMLID_1284_" class="st0" d="M36.7,95c-0.3-0.1-0.6-0.1-0.8-0.2c-0.4,0-0.8,0-1.3,0c-0.2,0-0.4,0.1-0.6,0.1
		c-0.1,0.3-0.2,0.6,0,1c0.1,0,0.3,0,0.4,0.1c0.6,0,1.2-0.1,1.8,0C36.9,96,36.8,95.5,36.7,95z"/>
	<path id="XMLID_1285_" class="st0" d="M65,127.9c1.4-0.5,3.3-0.6,4.1-1.6c0.8-0.9,0.4-2.8,0.6-4.3c0-0.1,0-0.1,0-0.2
		c0.4-2.3,1-2.9,3.3-3.3c-1.6-1.8-1.6-1.9-2.7-1.6c-7.9,2.3-13.8,6.9-17.1,14.5c-1,2.2-1.8,4.5-2.1,6.9c-0.1,0.7-0.7,1.6,0.4,1.7
		c1,0.2,2.2,0.5,2.7-1C56.2,133.8,59.6,129.9,65,127.9z"/>
	<path id="XMLID_1286_" class="st0" d="M60.2,99.5c-0.8,0.6-1.7,1.1-2.6,1.6c-0.8,0.5-1.4,1.1-1.7,2c-0.3,0.8-0.3,1.4,0.9,1.6
		c3.4,0.6,6.3,2.3,8.8,4.6c0.3,0.2,0.5,0.7,0.9,0.5c1-0.3,1.7-1.1,2-2s1.2-1.9,0-2.7c-1.1-0.7-1.1-1.5-0.7-2.7
		c0.9-2.9-1.3-5.7-4.3-5.7c-0.9,0-1.7,0.2-2.5,0.7c-0.3,0.2-0.6,0.5-0.3,0.7C61.8,98.8,60.6,99.1,60.2,99.5z"/>
	<path id="XMLID_1287_" class="st0" d="M92.4,127c0.7,0.1,1,0.1,1-0.8c-0.1-2.2,0.7-4.2,1.9-6.1c0.2-0.4,0.7-0.7,0.6-1.4
		c-1.1,0-2.2,0.3-3.3,0.7c-4,1.5-7.9,1.2-11.7-0.5c-2.9-1.2-5.8-2.4-8.7-3.6l0,0c-0.1,0-0.3-0.1-0.4-0.1c0,0.1,0.1,0.2,0.1,0.4
		c3.2,4,7.7,6.1,12,8.6C86.4,125.6,89.4,126.4,92.4,127z"/>
	<path id="XMLID_1288_" class="st0" d="M58.2,120c0.1,0.9,0.4,1.3,1.4,0.7c2.6-1.4,5.2-3.1,8.1-4c0.9-0.3,0.5-0.6,0.1-1
		c-0.7-0.7-1.6-0.4-2.5-0.4c-2.7,0.1-2.9-0.1-2.5-2.9c0-0.2,0.1-0.3,0.1-0.5c0.7-4,0.7-4-3-5.6c-0.4-0.2-0.9-0.3-1.3-0.5
		c-2.5-0.8-2.5-0.8-3,1.8c-0.1,0.5-0.3,1-0.4,1.5c-0.1,0.3-0.3,0.9,0.1,1c1.3,0.3,1,1.5,1.2,2.2c0.2,1.1,0.7,1.5,1.7,1.5
		c0.4,0,0.9-0.2,0.9,0.5c0,0.9,0.3,1.9-0.3,2.7C58,117.9,58.1,118.9,58.2,120z"/>
	<path id="XMLID_1289_" class="st0" d="M71.4,104c1.9-5.6-2.2-11.3-7.4-11.3c-2.7,0-4.5,0.6-6,1.8c-0.4,0.3-0.9,0.8-0.4,1.1
		c0.8,0.5,1.7,1.6,2.9,0.9c2.3-1.4,4.4-1.1,6.4,0.5c1.9,1.5,2.6,3.8,1.7,6.2c-0.6,1.6,0.9,1.6,1.4,2C70.8,105.7,71.2,104.7,71.4,104
		z"/>
	<path id="XMLID_1290_" class="st0" d="M70.9,120.8c-0.5,1.5-0.4,3.2-0.5,4.7c0,0.6,0.2,0.8,0.8,0.8c1.5,0,3.1,0.1,4.6,0.4
		c0.5,0.1,0.9,0.1,0.7-0.6c0-1.5-1.6-5.1-2.7-6.2C72.8,119,71.4,119.3,70.9,120.8z"/>
	<path id="XMLID_1291_" class="st0" d="M79.4,128.1l0.4-0.1c0.1-0.8-0.7-1.1-1.1-1.5c-0.3-0.3-0.5-0.7-1.3-0.9
		c0.1,0.5,0.2,0.7,0.2,1C77.7,127.6,78.8,127.5,79.4,128.1z"/>
	<path id="XMLID_1292_" class="st0" d="M35.3,96.7c-0.9,0.1-0.5,0.9-0.5,1.4c0,3.6,0,7.2,0,10.8c0,0.9,0,1.7,0,2.6
		c0,2.9,0,5.8,0,8.6c0,0.3-0.2,0.8,0.4,0.8c0.4,0,0.8-0.3,0.8-0.8c0-0.2,0-0.4,0-0.6c0-7.2,0-14.4,0-21.6
		C35.9,97.4,36.2,96.6,35.3,96.7z"/>
	<path id="XMLID_1293_" class="st0" d="M34.5,94.2L34.5,94.2C34.6,94.2,34.6,94.2,34.5,94.2c0.5,0.1,0.9,0.1,1.4,0.1
		c0.2-0.2,0.3-0.4,0.5-0.6c0-0.1,0.1-0.2,0.1-0.3l0,0c0.1-0.2,0.2-0.5,0.3-0.8c0-0.1,0.1-0.1,0.1-0.2c0.4-0.9,0.2-1.7,0.1-2.6
		c0-0.2,0-0.3-0.1-0.5c0-0.2,0-0.4,0-0.6c0-0.3-0.1-0.6-0.1-0.9l-0.1-0.1c0-0.1,0-0.2-0.1-0.3c0,0,0-0.1,0-0.2
		c-0.1-0.1-0.1-0.2-0.1-0.3c0-0.1,0-0.2-0.1-0.3c0-0.1,0-0.2,0-0.4c-0.1-0.1-0.1-0.2-0.2-0.3c-0.1-0.6-0.2-1.1-0.3-1.7v-0.1
		c0-0.2-0.1-0.4-0.1-0.6c0,0,0,0,0-0.1c0-0.2-0.1-0.4-0.1-0.5l0,0c-0.1-0.3-0.1-0.6-0.2-1c0,0,0,0-0.1,0c0,0,0,0,0-0.1
		c0,0-1,0.2-1.7,4.8c-0.7,4.6-1.2,5.5,0.6,7.3L34.5,94.2z"/>
	<path id="XMLID_1294_" class="st0" d="M47.4,136.3c0.2-0.4,0.4-0.9,0.5-1.4c0.2-1.3,0.5-2.5,0.9-3.7c1.5-4.7,2.7-9.5,6.5-13.6
		c-1.5,0.2-1.9,1.1-2.6,1.6c-0.1,0.1-0.2,0.2-0.2,0.3c-0.1,0.3-0.2,0.5-0.5,0.6c-0.2,0.3-0.4,0.6-0.6,0.9c-0.9,1.5-0.8,3.5-2,4.7
		l0.1-0.2c0,0-2.7,1.6-2.9,4.5c0,0.1,0,0.2,0,0.3c-0.3,0.7-0.6,0.6-1.7-0.2c-0.7-0.6-1.6-0.9-2.1-1.7l0,0c-1.6-1.2-3.7-2.1-3.4-4.6
		c-0.1-0.2-0.1-0.5-0.2-0.7c-1.5-2.2-2.2-2.4-4.5-0.9c-0.2,0.2-0.6,0.2-0.4,0.6c0.1,0.2,0.4,0.2,0.6,0.3c0.4,0.2,1.2-0.6,1.3,0.1
		c0.1,0.9,1,1.7,0.5,2.7c-0.2,0.3-0.3,0.7-0.3,1.1l-0.1-0.1c0,0,0,0.9,0.3,1.3c0,0,0.5,0.2,0.7,0.4c0.2,0.2,0.5-0.2,1.3,1.6
		c0.7,1.8,1.4,3.3,2.4,4.3s2.2,2.2,3.5,2.6c0.7,0.2,1.6,0.4,2.3,0c0,0,0,0,0.1,0c0,0,0,0,0.1-0.1C47,136.9,47.2,136.6,47.4,136.3z"
		/>
	<path id="XMLID_1297_" class="st0" d="M89,103.8c0.5,0.2,1,0.5,1.5,0.9c1,1,2.2,1.9,3.2,2.8c1.1,0.6,2.3,0.9,3.6,0.9
		c0.2,0,0.4-0.1,0.6-0.1c0.1,0,0.2-0.1,0.3-0.1c0.2-0.1,0.4-0.2,0.6-0.3c0.1-0.1,0.2-0.2,0.4-0.3c0.1-0.1,0.2-0.1,0.2-0.2l0,0l0,0
		l0,0c0.4-0.5,0.6-0.9,0.6-1.2c0.3-1.1-0.6-1.3-1.4-1.7c-0.1,0-0.3-0.1-0.4-0.1c-0.2-0.1-0.5-0.1-0.7-0.2c-3.1-1.5-3.1-1.6-0.5-3.7
		c0.4-0.5,0.8-1,1.1-1.5c2.1-4.2,2-8.7,1.4-13.3c0-0.2-0.1-0.4-0.1-0.6c-0.1-0.1-0.1-0.1-0.1-0.2c-0.1-0.4-0.2-0.8-0.3-1.1
		c0-0.1,0-0.1,0-0.2c-0.2-0.5-0.5-1.1-0.7-1.6c0-0.1-0.1-0.1-0.1-0.2c-0.5-0.8-0.8-1.3-0.8-1.3l0,0c-0.9-1.2-2-2-3.2-2.6l0,0l0,0
		c-0.1,0-0.1-0.1-0.2-0.1l0,0c0,0,0,0-0.1,0c-0.6-0.3-1.3-0.5-1.9-0.6c-0.1,0-0.1,0-0.2-0.1c-0.1,0-0.1,0-0.2,0
		c-1.5-0.3-2.8-0.3-3.3-0.2c-2.6,0-8.4,0.8-9.8,9.2c0,0-1.7,7.7,1.4,12.6C83,103.6,86.2,103.9,89,103.8z M93.8,96.5
		c-0.9,2.2-2.6,3.3-4.7,3.3c-2.3,0-3.9-1.2-4.6-3.2c-1.5-4.2-1.5-8.4,0-12.5c0.7-2,2.4-3.1,4.5-3.1c2.3,0,3.8,1.1,4.7,3.1
		c0.9,2.1,1,4.3,1,6.3C94.7,92.6,94.6,94.6,93.8,96.5z"/>
	<path id="XMLID_1298_" class="st0" d="M143.1,102.7L143.1,102.7L143.1,102.7c0.5,0.4,1.1,0.6,1.9,0.6l0,0c1.4,0.3,2.8,0.1,4.2-0.1
		c1.1-0.1,0.8-1,0.8-1.7c-0.1-0.8,0.2-1.9-1.1-1.8c-1.7,0-2-0.9-2-2.4c0-5.9,0-11.7,0-17.6c0-0.9,0-1.7-0.2-2.5c0-0.1,0-0.1,0-0.2
		c0-0.3-0.2-0.6-0.4-0.8l0,0l0,0c-1.1-0.9-4.1-0.5-4.1-0.5l-0.3,0.5v23.7C141.8,99.8,141.8,101.7,143.1,102.7z"/>
	<path id="XMLID_1299_" class="st0" d="M152.4,88.2c1.3,0.4,1.3,1.6,1.1,2.8c0,0.2,0,0.4,0,0.6c0,3.4,0.1,6.8,0.1,10.3
		c0,1.1,0.3,1.6,1.5,1.5c0.6,0,1.2-0.1,1.8,0c1.2,0.1,1.8-0.4,1.8-1.6c-0.1-4.3-0.1-8.7,0-13c0,0,0,0,0-0.1c0-3.2-1.2-3.9-2.8-4.3
		c-0.1,0-0.2-0.1-0.3-0.1c-0.2,0-0.4,0-0.6,0c-0.1,0-0.1,0-0.2,0c-2.2-0.3-3.2,0.5-3.2,0.5s-0.9,0.6-0.4,2.5
		C151,87.3,150.8,88,152.4,88.2z"/>
	<path id="XMLID_1300_" class="st0" d="M153.8,81.8c1.8,0.1,3.7,0,3.7,0s0.9,0.2,0.8-2.4v-0.1c0-0.7-0.2-1.5-0.9-2.1
		c0,0-0.1-0.3-1.9-0.3s-2.8,0-2.9,0.6c-0.1,0.6-0.4,1.4-0.2,2.6S152,81.7,153.8,81.8z"/>
</g>
</svg>
