<?xml version="1.0" encoding="utf-8"?>
<!-- Generator: Adobe Illustrator 22.0.1, SVG Export Plug-In . SVG Version: 6.00 Build 0)  -->
<svg version="1.1" id="Layer_1" xmlns="http://www.w3.org/2000/svg" xmlns:xlink="http://www.w3.org/1999/xlink" x="0px" y="0px"
	 viewBox="0 0 240.7 216" style="enable-background:new 0 0 240.7 216;" xml:space="preserve">
<style type="text/css">
	.st0{fill:#FFFFFF;}
	.st1{clip-path:url(#SVGID_2_);}
	.st2{clip-path:url(#SVGID_4_);}
	.st3{clip-path:url(#SVGID_6_);}
	.st4{clip-path:url(#SVGID_10_);}
	.st5{clip-path:url(#SVGID_12_);}
	.st6{clip-path:url(#SVGID_14_);}
</style>
<g>
	<g id="XMLID_1456_">
		<path id="XMLID_1457_" class="st0" d="M82.9,123.6H66c-0.6,0-1-0.4-1-1v-2.1c0-0.5,0.2-0.7,0.5-1.1L79,103.8H65.7
			c-0.6,0-1-0.4-1-1v-1.5c0-0.6,0.4-1,1-1h17.1c0.6,0,1,0.4,1,1v2.1c0,0.4-0.1,0.7-0.4,1l-13.5,15.7h13c0.6,0,1,0.4,1,1v1.5
			C83.9,123.2,83.5,123.6,82.9,123.6 M116.2,124L116.2,124c1.2,0,2.1-0.3,2.5-0.7c0.1-0.1,0.2-0.3,0.2-0.5c0-0.1,0-0.1-0.3-1.7l0,0
			c-0.1-0.4-0.4-0.6-0.6-0.6l0,0c0,0-0.3,0-0.6,0l0,0c-0.9,0-1.6-0.2-1.6-1.4V92.7c0-0.4-0.3-0.9-0.8-0.9h-0.2l-2.4,0.6
			c-0.4,0-0.8,0.3-0.8,0.9v26C111.6,122.3,113.3,124,116.2,124L116.2,124z M164,123.6h-2.1c-0.6,0-1-0.4-1-1v-15.9
			c0-2.7-0.8-3.4-3.7-3.5c-3.3,0-6.6,0.8-7.7,1.1v18.3c0,0.6-0.4,1-0.9,1h-2.2c-0.6,0-1-0.4-1-1v-17.8c0-1.7,0.1-2.8,2.5-3.6
			c2.2-0.8,6.6-1.4,9.4-1.4c5.4,0,7.7,2,7.7,6.5v16.3C165,123.2,164.5,123.6,164,123.6 M185.2,103.9c-0.8-0.2-3-0.7-5.5-0.7
			c-4.5,0-6.4,1.3-6.5,8.8c0.1,8.3,2.5,8.7,6.5,8.8v0.2v-0.2c2.5,0,4.6-0.5,5.4-0.7L185.2,103.9z M186.3,123.3l-0.3,0.1
			c-1.3,0.3-3.2,0.8-6.4,0.8l0,0l0,0c-8.9,0-10.6-4.5-10.6-12.2c0-8.9,2.8-12.2,10.4-12.2c2.7,0,4.5,0.3,5.8,0.7v-7.1
			c0-0.3,0.1-0.7,0.9-0.9l2.4-0.6h0.1c0.5,0,0.7,0.5,0.7,0.9v26.8C189.3,121.3,189.1,122.7,186.3,123.3 M203.5,120.7
			c-5.8,0-6.1-3-6.1-8.7s0.3-8.7,6.1-8.8c5.8,0,6.1,3,6.1,8.8C209.6,117.7,209.3,120.7,203.5,120.7 M203.5,99.8
			c-9.6,0-10.4,6.3-10.4,12.2s0.8,12.2,10.4,12.2l0,0c9.6,0,10.4-6.3,10.4-12.2C213.9,105.8,213.1,99.8,203.5,99.8 M137,112.1
			c-1,0-5.6,0.1-7.5,0.5h-0.1c-2.1,0.5-3.7,0.8-3.8,3.9c0,3.9,3,4.2,6,4.3v0.2v-0.2c1.9,0,3.7-0.3,5.3-0.8L137,112.1z M141.1,106.5
			v12.3c0,3.1-0.7,4-3.8,4.8c-1.4,0.3-3.4,0.6-5.7,0.6l0,0c-3.3,0-10.2,0-10.2-7.4c0-5.8,3.5-6.9,7.7-7.5c2.8-0.4,5.6-0.5,7-0.5
			c0.4,0,0.6,0,0.8,0v-2.1c0-1.4,0-2.2-1.3-2.7c-0.8-0.3-2-0.5-3.8-0.5c-2.9,0-5.6,0.7-7.3,1.1l-0.7,0.2c-0.1,0-0.1,0-0.2,0l0,0
			c-0.3,0-0.6-0.2-0.8-0.6l0,0l-0.4-2v-0.1c0-0.5,0.3-0.7,0.7-0.8c1.4-0.5,5.1-1.4,9.1-1.4c2.9,0,5,0.4,6.4,1.2
			C141.2,102.2,141.1,104.6,141.1,106.5 M102.6,120c-1.6,0.5-3.4,0.8-5.3,0.8v0.2v-0.2c-3,0-6-0.4-6-4.3c0-3.1,1.7-3.5,3.8-3.9h0.1
			c1.9-0.4,6.5-0.5,7.5-0.5L102.6,120z M104.3,100.9c-1.4-0.8-3.5-1.2-6.4-1.2c-4,0-7.7,0.8-9.1,1.4c-0.3,0.1-0.7,0.4-0.7,0.8v0.1
			l0.4,2l0,0c0.1,0.4,0.5,0.6,0.8,0.6l0,0c0.1,0,0.2,0,0.2,0l0.7-0.2c1.7-0.4,4.4-1.1,7.3-1.1c1.8,0,3,0.2,3.8,0.5
			c1.3,0.5,1.3,1.3,1.3,2.7v2.1c-0.1,0-0.4,0-0.8,0c-1.4,0-4.3,0.1-7,0.5c-4.2,0.7-7.8,1.7-7.7,7.5c0,7.4,6.9,7.4,10.2,7.4l0,0
			c2.2,0,4.3-0.3,5.7-0.6c3.1-0.7,3.9-1.7,3.8-4.8v-12.3C106.7,104.6,106.7,102.2,104.3,100.9"/>
	</g>
	<g>
		<g>
			<defs>
				<path id="SVGID_1_" d="M52.8,107.8L52.8,107.8L52.8,107.8z M26.8,113.2c8.3,2,17.2-0.2,25.8-5.4l0.1-0.1
					c-0.1-0.1-0.2-0.2-0.3-0.3c-3.9-4.4-12.1-9.7-21.4-9.7C28.2,97.7,26.7,105.7,26.8,113.2"/>
			</defs>
			<use xlink:href="#SVGID_1_"  style="overflow:visible;fill:#FFFFFF;"/>
			<clipPath id="SVGID_2_">
				<use xlink:href="#SVGID_1_"  style="overflow:visible;"/>
			</clipPath>
			<g class="st1">
				<g>
					<defs>
						<rect id="SVGID_3_" x="9.3" y="30.7" width="221.7" height="156.9"/>
					</defs>
					<use xlink:href="#SVGID_3_"  style="overflow:visible;fill:#FFFFFF;"/>
					<clipPath id="SVGID_4_">
						<use xlink:href="#SVGID_3_"  style="overflow:visible;"/>
					</clipPath>
					<g id="XMLID_1354_" class="st2">
						<g id="XMLID_1358_">
							<g id="XMLID_1312_">
								<defs>
									
										<rect id="SVGID_5_" x="-15.1" y="-14.2" transform="matrix(0.866 -0.5 0.5 0.866 -38.4739 74.6873)" width="270.4" height="246.7"/>
								</defs>
								<use xlink:href="#SVGID_5_"  style="overflow:visible;fill:#FFFFFF;"/>
								<clipPath id="SVGID_6_">
									<use xlink:href="#SVGID_5_"  style="overflow:visible;"/>
								</clipPath>
								<g id="XMLID_49_" class="st3">
									<g id="XMLID_52_">
										<defs>
											
												<rect id="SVGID_7_" x="-122" y="-131.3" transform="matrix(0.866 -0.5 0.5 0.866 -38.4922 74.6691)" width="484.1" height="480.9"/>
										</defs>
										<use xlink:href="#SVGID_7_"  style="overflow:visible;fill:#FFFFFF;"/>
										<clipPath id="SVGID_8_">
											<use xlink:href="#SVGID_7_"  style="overflow:visible;"/>
										</clipPath>
									</g>
								</g>
							</g>
						</g>
					</g>
					<g class="st2">
						<g>
							<defs>
								<path id="SVGID_9_" d="M26.8,113.2c0.2,6.6,1.6,12.9,4.5,12.9c11.1,0,23.7-10.4,23.7-14.2c0-0.9-1-2.7-2.2-4.2
									C44.1,112.9,35.2,115.2,26.8,113.2"/>
							</defs>
							<use xlink:href="#SVGID_9_"  style="overflow:visible;fill:#FFFFFF;"/>
							<clipPath id="SVGID_10_">
								<use xlink:href="#SVGID_9_"  style="overflow:visible;"/>
							</clipPath>
							<g class="st4">
								<g>
									<defs>
										<rect id="SVGID_11_" x="9.3" y="30.7" width="221.7" height="156.9"/>
									</defs>
									<use xlink:href="#SVGID_11_"  style="overflow:visible;fill:#FFFFFF;"/>
									<clipPath id="SVGID_12_">
										<use xlink:href="#SVGID_11_"  style="overflow:visible;"/>
									</clipPath>
									<g id="XMLID_1327_" class="st5">
										<g id="XMLID_1351_">
											<g id="XMLID_1308_">
												<defs>
													<rect id="SVGID_13_" x="9.3" y="30.7" width="221.7" height="156.9"/>
												</defs>
												<use xlink:href="#SVGID_13_"  style="overflow:visible;fill:#FFFFFF;"/>
												<clipPath id="SVGID_14_">
													<use xlink:href="#SVGID_13_"  style="overflow:visible;"/>
												</clipPath>
												<g id="XMLID_55_" class="st6">
													<g id="XMLID_58_">
														<defs>
															<rect id="SVGID_15_" x="9.3" y="30.7" width="221.7" height="156.9"/>
														</defs>
														<use xlink:href="#SVGID_15_"  style="overflow:visible;fill:#FFFFFF;"/>
														<clipPath id="SVGID_16_">
															<use xlink:href="#SVGID_15_"  style="overflow:visible;"/>
														</clipPath>
													</g>
												</g>
											</g>
										</g>
									</g>
								</g>
							</g>
						</g>
					</g>
				</g>
			</g>
		</g>
	</g>
</g>
</svg>
