<?xml version="1.0" encoding="utf-8"?>
<!-- Generator: Adobe Illustrator 22.0.1, SVG Export Plug-In . SVG Version: 6.00 Build 0)  -->
<svg version="1.1" id="Layer_1" xmlns="http://www.w3.org/2000/svg" xmlns:xlink="http://www.w3.org/1999/xlink" x="0px" y="0px"
	 viewBox="0 0 240.7 216" style="enable-background:new 0 0 240.7 216;" xml:space="preserve">
<style type="text/css">
	.st0{fill:#FFFFFF;}
</style>
<g id="XMLID_1352_">
	<path id="XMLID_1469_" class="st0" d="M42.4,72.4c0.1,0,6.5-5.9,16.3-5.9c5,0,13.1,2.9,13.1,15.8C68.1,75.1,60,70.1,52.7,70.1
		C46.1,70.1,42.4,72.4,42.4,72.4L42.4,72.4z"/>
	<path id="XMLID_1468_" class="st0" d="M43.9,101.4c0-0.1-5.9-6.5-5.9-16.3c0-5,2.9-13.1,15.8-13.1c-7.2,3.7-12.1,11.8-12.1,19.1
		C41.7,97.7,43.9,101.4,43.9,101.4L43.9,101.4z"/>
	<path id="XMLID_1467_" class="st0" d="M72.8,99.8c-0.1,0-6.5,5.9-16.3,5.9c-5,0-13.1-2.9-13.1-15.8c3.7,7.2,11.8,12.1,19.1,12.1
		C69.2,102.1,72.8,99.8,72.8,99.8L72.8,99.8z"/>
	<path id="XMLID_1466_" class="st0" d="M71.3,70.8c0,0.1,5.9,6.5,5.9,16.3c0,5-2.9,13.1-15.8,13.1c7.2-3.7,12.1-11.8,12.1-19.1
		C73.6,74.5,71.3,70.8,71.3,70.8L71.3,70.8z"/>
	<path id="XMLID_1465_" class="st0" d="M195.9,126.8c3.1-1.1,5.5-2.5,6.9-3.5c-0.3,7.5-4,11.2-11.5,11.2c-6.5,0-10.3-3-11.3-8.8
		c2.3,1.7,4.9,2.3,7,2.5c0.7,2.5,2,3.7,4.3,3.7C193.9,131.9,195.5,130.2,195.9,126.8L195.9,126.8z"/>
	<path id="XMLID_1464_" class="st0" d="M196.1,124.5c0-7.7-0.5-11.7-4.8-11.7c-3.7,0-4.9,3.2-4.9,9.8v0.5c-2.3-0.9-4.5-2.3-6.5-3.9
		c1-6,4.8-9,11.3-9c7.1,0,11.5,4.6,11.5,12.4v0.4C201.5,123.5,199.2,124.2,196.1,124.5L196.1,124.5z"/>
	<path id="XMLID_1461_" class="st0" d="M112.3,131.7c-0.4-0.6-0.9-0.9-1.4-0.9c-1.1,0-2.7,0.6-4.9,0.6c-3.3,0-5.8-1.1-7.6-3.4
		c-1.1-1.4-2.1-4.1-2.1-5.7c0-1.2,0.5-1.7,2-1.7h9.4c2.9,0,4.6-1.3,4.6-3.5c0-3.6-4.2-6.9-10.8-6.9c-8.1,0-12.5,4.1-12.5,11.8
		c0,7.8,5.5,12.6,14.4,12.6c5.6,0,8.9-1.2,8.9-2.5C112.3,131.9,112.3,131.8,112.3,131.7L112.3,131.7z M100.8,117.6h-4.2
		c0.7-3.2,2.3-4.8,4.8-4.8c1.8,0,3,0.8,3.7,2.5c0.3,0.6,0.4,1.1,0.4,1.5c0,0.6-0.9,0.8-2.9,0.8C102.2,117.6,101.6,117.6,100.8,117.6
		L100.8,117.6z"/>
	<path id="XMLID_1460_" class="st0" d="M126.6,134h-6.2c-3,0-4.5-1.8-4.5-5.2v-0.5l-0.1-7.7V99.7h6.7v28.6c0,2.7,0.6,3.6,3.6,3.6
		h0.5V134L126.6,134z"/>
	<path id="XMLID_1455_" class="st0" d="M150.8,131.2v-12.3c0-6.3-2.6-8.9-9.7-8.9c-6.4,0-10.4,2.4-10.5,6l3.7,3
		c2.4-0.1,3.7-0.8,4-2.6c0.4-1.8,0.2-3.8,2.7-3.8c2.3,0,3,2,3,5.9v2.2c-9.8,0.4-14.7,3.1-14.7,7.8c0,3.3,3.6,5.9,8.3,5.9
		c3.3,0,4.8-1.3,6.6-2.5c0.8-0.5,2-0.8,3.4-0.8h3.2V131.2z M143.9,128.2c-1,1.7-3,2.7-4.6,2.7c-1.7,0-2.8-1.2-2.8-3.2
		c0-2.6,2.5-4.1,7.4-4.3L143.9,128.2L143.9,128.2z"/>
	<path id="XMLID_1454_" class="st0" d="M178.1,112.6L167.9,135c-1.1,2.3-1.8,4.4-3,5.8c-2,2.4-4.3,3.6-7.5,3.6h-4.3v-2.3h3.1
		c2.1,0,4.6-1.7,5.7-4.3l1.3-3l-8.5-17.8c-0.1-0.3-0.3-0.6-0.4-0.8l-2.6-5.5h6.8l8.2,17.5l7.7-16.9c0.4-0.8,1.1-1.2,2-1.2
		c1.1,0,2,0.8,2,1.8C178.3,112.1,178.3,112.3,178.1,112.6L178.1,112.6z"/>
	<path id="XMLID_1353_" class="st0" d="M62.6,110.6v31.1c0,1.5,1.5,2.8,3.4,2.8s3.3-1.3,3.3-2.8v-13.1c1.7,1.7,3.6,2.4,6.4,2.4
		c6.8,0,10.9-4.5,10.9-12.4c0-7.8-4-12.3-10.2-12.3c-4.1,0-5.5,2.1-8.3,3.7c-0.7,0.4-2,0.6-3.9,0.6
		C63.7,110.7,63.2,110.6,62.6,110.6L62.6,110.6z M69.2,120.4v-5.6c1.3-3.2,3-4.8,5.1-4.8c3.3,0,4.7,2.8,4.7,8.6c0,6-1.4,9-4.8,9
		C70.8,127.5,69.2,125.1,69.2,120.4L69.2,120.4z"/>
</g>
</svg>
