<?xml version="1.0" encoding="utf-8"?>
<!-- Generator: Adobe Illustrator 22.0.1, SVG Export Plug-In . SVG Version: 6.00 Build 0)  -->
<svg version="1.1" id="Layer_1" xmlns="http://www.w3.org/2000/svg" xmlns:xlink="http://www.w3.org/1999/xlink" x="0px" y="0px"
	 viewBox="0 0 240.7 216" style="enable-background:new 0 0 240.7 216;" xml:space="preserve">
<style type="text/css">
	.st0{fill:#FFFFFF;}
</style>
<g>
	<polygon class="st0" points="91.5,121.2 95.5,121.3 95.5,97.6 91.5,97.6 	"/>
	<path class="st0" d="M125.6,98c-4.1-1.2-7.5-0.3-10.5,2.6c-4.6,6.1-6.9,12.3-9.2,18c-2.1,2.7-4.2,3.6-7,1.6c-0.3-0.2-1.1,0-0.9,0.4
		c0.9,2.1,3.1,2.3,5.3,2.2c3.8-0.7,6.2-2.5,7.4-5c3.7-7.6,6.5-14.4,8.6-17.2c1.7-2.1,3.1-2.8,6-1.5c0.4,0.2,1,0.3,1.2-0.1
		C126.6,98.6,126.1,98.1,125.6,98z"/>
	<polygon class="st0" points="132.1,110.1 144.6,110.1 144.7,108.5 132.1,108.4 132.2,99.2 147.8,99.2 147.8,97.7 128.3,97.7 
		128.2,121.7 148,121.7 148,120.4 132,120.4 	"/>
	<path class="st0" d="M68.7,94.7L63,93.2c-2.5-0.7-9,1.1-12.5,7.4c-2.9,5.4-4.7,11.1-7.4,16.2c-3.7,4.1-8.7,6.7-15.2,1.2
		c-0.4-0.3-1.4,0.1-1,0.5c3.7,4.2,8.9,3.7,11.8,3.9c3.4,0.1,7.2-2,10-7l6-15.9c4.5-7.4,9.9-4.4,13.4-3.7
		C68.5,95.8,69.1,94.9,68.7,94.7z"/>
	<polygon class="st0" points="82.9,107.9 68.7,107.8 68.7,97.2 64.3,97.2 64.4,122 68.8,121.9 68.8,110.4 83.2,110.4 83,121.2 
		87.1,121.2 87.1,97.7 82.8,97.7 	"/>
	<path class="st0" d="M175.5,98.2H160v23.6h15.5C183.1,121.8,188.4,103.6,175.5,98.2z M173.9,120.2H164V99.9h9.6
		C179.8,99.9,180.7,120.2,173.9,120.2z"/>
	<path class="st0" d="M200,97.1c-7.6,0-13.9,5.8-13.9,12.9c0,7.1,6.3,12.9,13.9,12.9c7.7,0,13.9-5.8,13.9-12.9
		C213.9,102.9,207.7,97.1,200,97.1z M200.1,121.1c-5.4,0-9.8-5.1-9.8-11.3c0-6.2,4.4-11.3,9.8-11.3c5.3,0,9.8,5.1,9.8,11.3
		C209.9,116,205.5,121.1,200.1,121.1z"/>
	<polygon class="st0" points="151.5,121.6 155.5,121.7 155.5,98.1 151.5,98 	"/>
</g>
</svg>
