<?xml version="1.0" encoding="utf-8"?>
<!-- Generator: Adobe Illustrator 22.0.1, SVG Export Plug-In . SVG Version: 6.00 Build 0)  -->
<svg version="1.1" id="Layer_1" xmlns="http://www.w3.org/2000/svg" xmlns:xlink="http://www.w3.org/1999/xlink" x="0px" y="0px"
	 viewBox="0 0 240.7 216" style="enable-background:new 0 0 240.7 216;" xml:space="preserve">
<style type="text/css">
	.st0{fill:#FFFFFF;}
</style>
<g id="XMLID_1226_">
	<g id="XMLID_1548_">
		<g id="XMLID_148_">
			<path id="XMLID_159_" class="st0" d="M48.9,140.2v-49h4.4v6.1c2.6-4.9,6.5-7.3,11.6-7.3c4.9,0,8.7,1.8,11.5,5.3
				c2.5,3.2,3.8,7.3,3.8,12.3s-1.2,9.1-3.7,12.3c-2.7,3.5-6.5,5.3-11.4,5.3c-5.3,0-9.3-2.5-11.9-7.5v22.4L48.9,140.2L48.9,140.2z
				 M75.3,107.8c0-3.8-0.8-7-2.5-9.4c-1.9-2.8-4.7-4.2-8.4-4.2c-3.7,0-6.5,1.3-8.5,3.9c-1.8,2.3-2.7,5.4-2.7,9.3
				c0,3.9,0.9,7.1,2.8,9.6c2.1,2.8,5,4.2,8.8,4.2c3.6,0,6.3-1.4,8.1-4.1C74.5,114.6,75.3,111.5,75.3,107.8z"/>
			<path id="XMLID_157_" class="st0" d="M94,97.8c3.1-5.2,6.6-7.8,10.5-7.8c1.2,0,2.5,0.2,3.9,0.7l-1.5,4.3
				c-1.2-0.3-2.2-0.5-3.1-0.5c-3.1,0-5.6,1.5-7.5,4.5c-1.6,2.6-2.4,5.5-2.4,8.8v16h-4.5V91.2H94V97.8z"/>
			<path id="XMLID_154_" class="st0" d="M112.4,78.5c0-1,0.3-1.8,1-2.4c0.7-0.7,1.5-1,2.5-1s1.8,0.3,2.5,1s1,1.5,1,2.4
				c0,1-0.3,1.8-1,2.5c-0.7,0.6-1.5,1-2.5,1s-1.8-0.3-2.5-1S112.4,79.5,112.4,78.5z M113.5,123.8V91.2h4.7v32.6H113.5z"/>
			<path id="XMLID_152_" class="st0" d="M125.7,91.2h5l10,24.7l9.9-24.7h5l-15,34.7L125.7,91.2z"/>
			<path id="XMLID_149_" class="st0" d="M190.7,107.8h-25.9c0.1,3.8,1,7,2.7,9.4c2,2.8,4.8,4.2,8.4,4.2c4.8,0,8.4-2.6,10.8-7.8
				l4.2,2.3c-3.2,6.4-8.2,9.6-15,9.6c-4.9,0-8.9-1.7-11.8-5c-2.8-3.2-4.2-7.3-4.2-12.3c0-5.1,1.3-9.3,4-12.6
				c2.9-3.5,6.9-5.3,11.8-5.3c4.7,0,8.4,1.6,11.1,4.8c2.5,3,3.8,7,3.8,11.8L190.7,107.8L190.7,107.8z M185.3,103.8
				c-0.5-6.3-3.8-9.4-10.1-9.4c-2.8,0-5.1,0.9-6.9,2.6c-1.8,1.7-2.9,4-3.2,6.8H185.3z"/>
		</g>
	</g>
	<g id="XMLID_1363_">
		<g id="XMLID_190_">
			<path id="XMLID_208_" class="st0" d="M58.9,56.3l-2.8,1.5c-0.4-0.9-1-1.4-1.7-1.4c-0.3,0-0.6,0.1-0.8,0.3s-0.3,0.5-0.3,0.8
				c0,0.6,0.7,1.1,2,1.7c1.8,0.8,3,1.5,3.7,2.2c0.6,0.7,0.9,1.5,0.9,2.7c0,1.4-0.5,2.6-1.6,3.6c-1,0.9-2.3,1.4-3.7,1.4
				c-2.5,0-4.3-1.2-5.3-3.6l2.9-1.4c0.4,0.7,0.7,1.2,0.9,1.4c0.4,0.4,0.9,0.6,1.5,0.6c1.2,0,1.7-0.5,1.7-1.6c0-0.6-0.4-1.2-1.3-1.7
				c-0.3-0.2-0.7-0.3-1-0.5c-0.3-0.2-0.7-0.3-1.1-0.5c-1-0.5-1.7-1-2.1-1.5c-0.5-0.6-0.8-1.4-0.8-2.4c0-1.3,0.4-2.4,1.3-3.2
				c0.9-0.8,2-1.3,3.3-1.3C56.6,53.3,58,54.3,58.9,56.3z"/>
			<path id="XMLID_206_" class="st0" d="M63,42.8h3.4v12.1c1.2-1.1,2.6-1.6,4-1.6c1.7,0,3,0.5,4,1.6c0.9,0.9,1.3,2.5,1.3,4.5v9.1
				h-3.4v-8.8c0-1.2-0.2-2.1-0.6-2.6c-0.4-0.5-1.1-0.8-2-0.8c-1.2,0-2,0.4-2.5,1.1c-0.5,0.8-0.7,2-0.7,3.9v7.2H63V42.8z"/>
			<path id="XMLID_203_" class="st0" d="M79.4,61.1c0-2.1,0.8-4,2.3-5.5s3.4-2.3,5.6-2.3s4.1,0.8,5.6,2.3s2.3,3.4,2.3,5.6
				c0,2.2-0.8,4.1-2.3,5.6S89.5,69,87.2,69c-2.2,0-4.1-0.8-5.6-2.3C80.2,65.2,79.4,63.3,79.4,61.1z M82.9,61.1
				c0,1.5,0.4,2.7,1.2,3.5c0.8,0.9,1.9,1.3,3.2,1.3c1.3,0,2.4-0.4,3.2-1.3c0.8-0.9,1.2-2,1.2-3.5c0-1.4-0.4-2.6-1.2-3.5
				s-1.9-1.3-3.2-1.3s-2.4,0.4-3.2,1.3C83.3,58.6,82.9,59.7,82.9,61.1z"/>
			<path id="XMLID_201_" class="st0" d="M100.2,53.7l3.9,8.5l4.2-9.8l4.2,9.8l3.8-8.5h3.8l-7.8,16l-4.1-9.6l-4.2,9.6l-7.8-16
				C96.2,53.7,100.2,53.7,100.2,53.7z"/>
			<path id="XMLID_199_" class="st0" d="M122.5,53.7h3.4V55c0.6-0.7,1.2-1.1,1.7-1.4c0.5-0.3,1.1-0.4,1.8-0.4c0.9,0,1.9,0.3,2.8,0.9
				l-1.6,3.1c-0.7-0.5-1.3-0.7-1.9-0.7c-1.9,0-2.8,1.4-2.8,4.2v7.7h-3.4C122.4,68.4,122.4,53.7,122.5,53.7z"/>
			<path id="XMLID_196_" class="st0" d="M133.2,61.1c0-2.1,0.8-4,2.3-5.5s3.4-2.3,5.6-2.3c2.2,0,4.1,0.8,5.6,2.3s2.3,3.4,2.3,5.6
				c0,2.2-0.8,4.1-2.3,5.6S143.3,69,141,69c-2.2,0-4.1-0.8-5.6-2.3C134,65.2,133.2,63.3,133.2,61.1z M136.7,61.1
				c0,1.5,0.4,2.7,1.2,3.5c0.8,0.9,1.9,1.3,3.2,1.3s2.4-0.4,3.2-1.3c0.8-0.9,1.2-2,1.2-3.5c0-1.4-0.4-2.6-1.2-3.5s-1.9-1.3-3.2-1.3
				s-2.4,0.4-3.2,1.3C137.1,58.6,136.7,59.7,136.7,61.1z"/>
			<path id="XMLID_193_" class="st0" d="M152,61.1c0-2.1,0.8-4,2.3-5.5s3.4-2.3,5.6-2.3c2.2,0,4.1,0.8,5.6,2.3s2.3,3.4,2.3,5.6
				c0,2.2-0.8,4.1-2.3,5.6s-3.4,2.2-5.7,2.2c-2.2,0-4.1-0.8-5.6-2.3C152.7,65.2,152,63.3,152,61.1z M155.5,61.1
				c0,1.5,0.4,2.7,1.2,3.5c0.8,0.9,1.9,1.3,3.2,1.3s2.4-0.4,3.2-1.3c0.8-0.9,1.2-2,1.2-3.5c0-1.4-0.4-2.6-1.2-3.5s-1.9-1.3-3.2-1.3
				s-2.4,0.4-3.2,1.3C155.9,58.6,155.5,59.7,155.5,61.1z"/>
			<path id="XMLID_191_" class="st0" d="M171.5,53.7h3.4v1.4c0.7-0.7,1.2-1.2,1.7-1.4c0.5-0.3,1.1-0.4,1.9-0.4c1.7,0,3,0.7,4,2.2
				c1.1-1.5,2.5-2.2,4.4-2.2c3.3,0,5,2,5,6.1v9.2h-3.4v-8.3c0-1.4-0.2-2.4-0.5-3c-0.4-0.6-0.9-0.9-1.8-0.9c-0.9,0-1.6,0.4-2.1,1.1
				c-0.4,0.7-0.6,1.9-0.6,3.4v7.7H180v-8.2c0-2.6-0.8-4-2.3-4c-1,0-1.7,0.4-2.1,1.1c-0.4,0.7-0.7,1.9-0.7,3.4v7.7h-3.4V53.7z"/>
		</g>
	</g>
	<g id="XMLID_1230_">
		<g id="XMLID_85_">
			<path id="XMLID_88_" class="st0" d="M76.9,156.1c-0.2,8.4,5.6,14,13.3,14c5.2,0,9.3-3.1,11.7-7.5l2.7,1.6c-3,5.8-8.3,9-14.9,9
				c-9.8,0-16.1-8-16.1-17.4c0-9.3,6.4-17.3,16.1-17.3c10.1,0,16,8.1,16,17.6L76.9,156.1L76.9,156.1z M102.5,153.1
				c-0.8-6.1-5.8-11.6-12.7-11.6c-6.8,0-12.4,5.3-12.9,11.6H102.5z"/>
			<path id="XMLID_86_" class="st0" d="M127.5,145.1c-1.1-2.3-3.2-3.7-5.8-3.7c-2.8,0-5.7,2.3-5.7,5.2c0,8,16.2,4.1,16.2,16.1
				c0,6.1-4.7,10.4-10.7,10.4c-5.5,0-10.1-3.4-11.4-8.8l3.2-1c1.2,4,3.9,6.8,8.3,6.8c4.2,0,7.5-3.3,7.5-7.5c0-4.1-3.2-5.4-6.5-6.5
				c-4.5-1.7-9.7-3.6-9.7-9.2c0-5,4.2-8.4,9.1-8.4c3.4,0,7,2.2,8.5,5.3L127.5,145.1z"/>
		</g>
	</g>
	<circle id="XMLID_1227_" class="st0" cx="56.9" cy="155.2" r="8"/>
</g>
</svg>
