<?xml version="1.0" encoding="utf-8"?>
<!-- Generator: Adobe Illustrator 22.0.1, SVG Export Plug-In . SVG Version: 6.00 Build 0)  -->
<svg version="1.1" id="Layer_1" xmlns="http://www.w3.org/2000/svg" xmlns:xlink="http://www.w3.org/1999/xlink" x="0px" y="0px"
	 viewBox="0 0 240.7 216" style="enable-background:new 0 0 240.7 216;" xml:space="preserve">
<style type="text/css">
	.st0{fill:#FFFFFF;}
</style>
<g>
	<path id="XMLID_1621_" class="st0" d="M190.5,91.1c-2.4-7.4-1-12.8-5.2-18.1c-4.9-4.7-10.6-3.7-16.8-7.4
		c-5.9-4.1-7.3-9.5-13.2-11.7c-6.6-2-10.7,1.3-18.3,0.4c-8.3-1.6-9.4-5.9-16.6-6.2h-0.1c-7.2,0.3-8.3,4.6-16.6,6.2
		c-7.6,0.9-11.7-2.4-18.3-0.4c-5.9,2.2-7.3,7.6-13.2,11.7C66,69.2,60.3,68.3,55.4,73c-4.2,5.3-2.8,10.7-5.2,18.1
		c-2.9,7.2-8.1,9.7-8.1,16.9c0,7.2,5.2,9.8,8.1,16.9c2.4,7.4,1,12.8,5.2,18.1c4.9,4.7,10.6,3.7,16.8,7.4c5.9,4.1,7.3,9.5,13.2,11.7
		c6.6,2,10.7-1.3,18.3-0.4c8.3,1.6,9.4,5.9,16.6,6.2h0.1c7.2-0.3,8.3-4.6,16.6-6.2c7.6-0.9,11.6,2.4,18.3,0.4
		c5.9-2.2,7.3-7.6,13.2-11.7c6.2-3.6,11.9-2.7,16.8-7.4c4.2-5.3,2.8-10.7,5.2-18.1c2.9-7.2,8.1-9.8,8.1-16.9
		C198.7,100.7,193.5,98.3,190.5,91.1z M120.5,154.7c-39.2,0-65.3-20.5-65.3-46.7s26.2-46.7,65.3-46.7c39.2,0,65.3,20.5,65.3,46.7
		C185.8,134.2,159.6,154.7,120.5,154.7z"/>
	<path id="XMLID_1616_" class="st0" d="M73.3,107.1c0-14.7,8.9-23.9,21.1-23.9c3.9,0,6,0.8,7.3,1.3c1,0.5,1.5,0.8,2.2,0.8
		c0.9,0,1.2-0.5,1.5-1.2c0.2-0.4,0.3-0.5,0.7-0.5h2.7c0.4,0,0.7,0.3,0.7,0.7v11.9c0,0.4-0.3,0.7-0.7,0.7h-2.7
		c-0.4,0-0.6-0.1-0.7-0.6c-1-5.6-3-9-9.3-9c-7.9,0-9.8,12.2-9.8,18.3c0,9.2,1,21.5,10.2,21.5c6.6,0,8.6-3.7,9.4-9.1
		c0.1-0.5,0.4-0.6,0.7-0.6h2.7c0.4,0,0.7,0.3,0.7,0.7V130c0,0.4-0.3,0.7-0.7,0.7h-2.7c-0.3,0-0.5-0.1-0.6-0.4
		c-0.2-0.3-0.5-0.8-1.1-0.8c-1.5,0-4.2,1.6-10.3,1.6C80.7,130.8,73.3,119.5,73.3,107.1L73.3,107.1z"/>
	<path id="XMLID_1605_" class="st0" d="M131.5,101.6h-5.4c-0.5,0-0.6,0.2-0.6,0.4c-0.4,1.7-1.2,3.4-2.4,5.1l-3.3-4.9
		c2.4-1.1,5.1-2.7,5.1-5.3c0-3-2.5-4.9-6-4.9s-6.8,1.9-6.8,5.8c0,1.7,0.7,2.9,1.6,4c-2.7,0.8-5.9,3.2-5.9,6.7c0.1,4,3.6,6.4,8.1,6.4
		c1.8,0,4.1-0.4,6.1-1.9c1.6,1.6,4.3,1.4,4.3,1.4h2.1c0.4,0,0.5-0.2,0.6-0.4l0.7-1.6c0.2-0.6-0.3-0.5-0.4-0.5h-1
		c-2.2,0-3.2-1.8-3.2-1.8c1.4-1.4,1.6-1.8,2.4-3c0.5-0.8,1.3-2,1.3-2c0.3-0.5,0.6-0.9,1.2-0.9h0.7c0.3,0,0.5-0.1,0.6-0.4l0.6-1.4
		C132.1,101.5,131.8,101.6,131.5,101.6z M118.8,93.8c1.3,0,1.8,1.2,1.8,2.3c0,1.7-0.8,3-2.5,3.8c-0.9-1.4-1.5-2.3-1.5-3.8
		C116.7,94.9,117.4,93.8,118.8,93.8z M116.5,112.2c-2.4,0-3.9-1.5-3.9-4.1c0-1.7,1-3.4,2.4-4.3l4.9,6.8
		C118.9,111.5,118,112.2,116.5,112.2z"/>
	<path id="XMLID_1564_" class="st0" d="M169.7,126.5h-0.8c-2,0-2.6-0.6-3.2-2.3c0,0-12.6-35.8-14.1-40.2c-0.1-0.4-0.4-0.6-0.9-0.6
		h-5.4c-0.4,0-0.7,0.1-0.9,0.6l-16.9,40.3c-0.3,0.8-0.7,1.3-1.5,1.7c-0.8,0.4-2.2,0.3-2.2,0.3h-0.4c-0.4,0-0.7,0.3-0.7,0.7v2.6
		c0,0.4,0.3,0.7,0.7,0.7h13.1c0.4,0,0.7-0.3,0.7-0.7V127c0-0.4-0.3-0.7-0.7-0.7H135c-1.2,0-2.5-0.1-2.5-1.4c0-0.4,0.1-0.9,0.4-1.6
		l2.6-6.3h15.4c0.7,2,1.8,5.6,1.8,5.6s0.4,1.2,0.5,1.7c0,0.2,0.1,0.4,0.1,0.7c0,0.6-0.3,1.2-1.6,1.2h-1.6c-0.4,0-0.7,0.3-0.7,0.7
		v2.6c0,0.4,0.3,0.7,0.7,0.7h19.4c0.4,0,0.7-0.3,0.7-0.7v-2.6C170.4,126.8,170.1,126.5,169.7,126.5z M137.1,113.6l7.3-18.3l5.5,18.3
		H137.1z"/>
</g>
</svg>
