<?xml version="1.0" encoding="utf-8"?>
<!-- Generator: Adobe Illustrator 22.0.1, SVG Export Plug-In . SVG Version: 6.00 Build 0)  -->
<svg version="1.1" id="Layer_1" xmlns="http://www.w3.org/2000/svg" xmlns:xlink="http://www.w3.org/1999/xlink" x="0px" y="0px"
	 viewBox="0 0 240.7 216" style="enable-background:new 0 0 240.7 216;" xml:space="preserve">
<style type="text/css">
	.st0{fill:#FFFFFF;}
</style>
<g id="XMLID_2387_">
	<path id="XMLID_2385_" class="st0" d="M121.5,81.1c0.6,0.1,1,0.1,1.3,0.2c3.2,0.5,5.4-0.4,6.6-2.6c1.3-2.3,1.1-5.8-0.7-7.8
		c-3.5-4.1-8.1-4.8-13.1-3.5c-4.6,1.2-7.6,4.1-8.2,9c-0.2,1.1-0.3,2.3-0.3,3.5c0,10.9,0,21.7,0,32.6c0,5.2,1.4,9.4,6.9,11.5
		c-1.5,1.8-3.3,2-5.2,1.7c-6.3-1-12.3-7.5-12.6-14.6c-0.4-10.8-0.6-21.6,0.1-32.4c0.6-10.7,9-18.5,19.8-19.4
		c4.6-0.4,9.1,0.2,13.4,2.1c6.9,3,11.1,9.8,10.7,17.4c-0.3,4.6-3.2,8.2-7,8.8C127.8,88.4,123.2,85.9,121.5,81.1z"/>
	<path id="XMLID_2384_" class="st0" d="M123.9,89.3c4.9,3,9.3,2.9,13.6-0.1c4.7-3.3,6-8.1,5.4-13.4c-0.9-8.7-6.8-14.8-16.3-17.2
		c-12.1-2.9-22.2,0.4-30.2,9.9c-0.4,0.5-0.8,1-1.5,1.8c-0.1-2.3,0.4-4,1.1-5.6c4.1-9.8,12-14.9,22.1-16.4c13.6-2,24.1,3.6,31.8,14.5
		c6.8,9.7,4.9,24.5-3.6,32.8c-4.7,4.5-10.8,5.8-15.7,3.2C126.9,96.7,124.8,93.7,123.9,89.3z"/>
	<path id="XMLID_2383_" class="st0" d="M122.4,122.4c-6.9,3.9-13.9-0.9-14-7.8c-0.1-11.5-0.1-22.9,0-34.4c0.1-6.3,6.9-9.5,13-6
		c-3.4,1.9-3.5,5-3.5,8.3c0.1,10.2,0.1,20.3,0.2,30.5C118.2,117.7,118.9,119.3,122.4,122.4z"/>
	<path id="XMLID_2428_" class="st0" d="M157.3,142.2c0-6.6,5.3-11.9,12.1-12c6.8-0.1,12.3,5.3,12.3,12c0,6.6-5.4,12-12.1,12
		C162.8,154.2,157.3,148.8,157.3,142.2z M169.6,146.5c2.5,0,4.6-2.1,4.5-4.6c-0.1-2.4-2.1-4.3-4.5-4.4c-2.5,0-4.6,2-4.6,4.5
		C164.9,144.6,167,146.5,169.6,146.5z"/>
	<path id="XMLID_2380_" class="st0" d="M122.2,142.2c0-5.2,2.7-9.5,7.3-11.3c4.7-1.8,9.1-1.3,12.9,2.3c0.8,0.8,1.5,1.6,1.8,2.7
		c0.5,1.7,0.2,3.2-1.2,4.2c-1.5,1-3,1.1-4.4-0.1c-0.5-0.4-1-0.9-1.5-1.3c-1.9-1.4-4.7-1.2-6.1,0.4c-1.5,1.8-1.3,4.7,0.5,6.3
		s4.1,1.5,6-0.2c0.4-0.3,0.7-0.7,1.1-1.1c1.9-1.8,3.7-2,5.4-0.5c1.6,1.4,1.8,3.6,0.4,5.5c-2.1,2.8-4.9,4.5-8.3,5.1
		C128.7,155.3,122.2,149.6,122.2,142.2z"/>
	<path id="XMLID_2424_" class="st0" d="M80.1,150c-0.2,1.8-0.6,3.3-2.4,3.9c-1.8,0.7-3.4,0.2-4.4-1.3c-0.8-1.3-1.7-1.6-3-1.5
		c-1,0.1-2,0.1-3,0c-1.2-0.1-2.1,0.2-2.8,1.4c-0.9,1.6-3.1,2.1-4.8,1.3c-1.8-0.9-2.6-2.5-1.8-4.3c1.4-3.5,2.9-6.9,4.4-10.3
		c0.9-2,1.8-4.1,2.8-6.1c1.6-2.9,5.6-3.1,7.1-0.2c2.7,5.2,5.1,10.5,7.6,15.8C80,149.1,80,149.6,80.1,150z M68.8,141.7
		c-0.6,1.2-0.9,1.8-1.2,2.6c-1.4,3.2-1.3,3.3,2.2,3c1-0.1,1.3-0.3,0.9-1.3C70.1,144.7,69.6,143.4,68.8,141.7z"/>
	<path id="XMLID_2421_" class="st0" d="M103.2,154.2c-2.4,0-4.1-1.8-3.8-4c0.1-0.7,0.3-1.4,0.6-2.1c2.2-4.9,4.4-9.7,6.6-14.6
		c0.8-1.7,2-2.6,3.9-2.6s3.1,1,3.9,2.6c2.3,4.8,4.6,9.6,6.9,14.5c0.5,1,0.7,2.1,0.5,3.2c-0.4,1.5-1.1,2.7-2.8,3
		c-1.6,0.3-3,0-3.8-1.4s-1.8-1.6-3.2-1.5c-1.2,0.1-2.3,0.1-3.5,0c-1-0.1-1.6,0.2-2.1,1.1C105.7,153.6,104.4,154.1,103.2,154.2z
		 M110.5,141.6c-0.6,1.3-1,2.1-1.4,3c-1.2,2.6-1.1,2.5,1.6,2.6c2,0.1,2.2-0.6,1.3-2.1C111.6,144.1,111.2,143.1,110.5,141.6z"/>
	<path id="XMLID_2375_" class="st0" d="M191.3,154.4c-2.6,0-5-0.7-6.9-2.7c-1.6-1.7-1.8-4-0.6-5.3c1.3-1.4,3.4-1.5,5.3-0.2
		c0.9,0.6,1.6,1.6,2.9,1.2c0.4-0.1,0.6-0.4,0.5-0.8c-0.4-1.2-1.6-1.3-2.6-1.8c-0.6-0.3-1.2-0.4-1.8-0.7c-3.1-1.3-4.7-3.5-4.7-6.6
		c0.1-3.3,1.9-5.7,5.1-6.8c2.7-0.9,5.3-0.8,7.8,0.4c1.4,0.7,2.4,1.8,2.8,3.4c0.3,1.2,0.1,2.3-0.9,3.2c-0.9,0.8-1.9,1-3,0.5
		c-0.8-0.3-1.5-0.9-2.2-1.3c-0.7-0.4-1.5-1.2-2-0.1c-0.5,1,0.6,1.3,1.3,1.6c0.5,0.2,1.1,0.4,1.6,0.6c5.1,1.7,7,4.4,6.3,8.9
		C199.6,151.9,196.1,154.4,191.3,154.4z"/>
	<path id="XMLID_2417_" class="st0" d="M40.5,142.3c0-2.5,0-5.1,0-7.6c0-2.2,1-3.3,3.2-3.6c2.5-0.3,4.9-0.3,7.4,0
		c4.1,0.5,6.8,3.2,7.1,7.2c0.4,4.1-1.9,7.7-5.8,8.9c-0.6,0.2-1.3,0.4-1.9,0.4c-1.6-0.1-2,0.6-2,2.2c0,3-1.3,4.4-3.9,4.4
		c-2.6,0-4.1-1.5-4.1-4.5C40.4,147.2,40.5,144.7,40.5,142.3L40.5,142.3z M47.8,139.3c0.2,0.8-0.5,2.1,1.2,1.9
		c1.2-0.1,2.2-0.6,2.2-1.9c0-1.3-1.1-1.7-2.3-1.8C47.3,137.3,48,138.6,47.8,139.3z"/>
	<path id="XMLID_2372_" class="st0" d="M90,140.3c0,1.6,0.1,3.2,0,4.8s0.5,2,2,1.9c0.9-0.1,1.7-0.1,2.6,0c1.9,0.2,3.3,1.6,3.3,3.4
		c0,1.9-1.3,3.6-3.2,3.7c-2.9,0.1-5.8,0.2-8.7,0c-2.6-0.2-3.7-1.6-3.7-4.2c0-4.7,0-9.4,0-14.1c0-2.7,1.6-4.7,3.8-4.7
		c2.3-0.1,3.9,1.9,3.9,4.8C90,137.2,90,138.8,90,140.3z"/>
	<path id="XMLID_2371_" class="st0" d="M147.5,142.5c0-2.5,0-5.1,0-7.6c0.1-2.6,1.3-3.9,3.6-4c2.3-0.1,4.1,1.4,4.2,3.8
		c0.1,5.3,0.1,10.6,0,15.8c0,2.1-1.9,3.6-3.9,3.6c-2.3,0-3.8-1.5-3.9-3.8C147.4,147.8,147.5,145.1,147.5,142.5z"/>
	<path id="XMLID_2370_" class="st0" d="M52.6,162.1c-1.7,0.3-3,0.6-4.3,0.8c-1.7,0.1-2.1,1.5-1.9,2.6c0.2,1.2,1.6,0.6,2.4,0.5
		c1-0.1,2.1-0.5,3.2-0.6c-0.8,1.6-2.4,1.6-3.8,1.9c-3.1,0.6-3.5-0.1-3-3.1c0.3-1.9,2-3.2,1.8-5.3c0-0.4,1.1-1.3,1.3-1.2
		c1.7,0.7,3.5-0.3,5.5,0.6c-2.2,1.2-5.5-0.2-6,3.3C49.2,162.1,50.8,161,52.6,162.1z"/>
	<path id="XMLID_2411_" class="st0" d="M118.2,158.5c-0.7,3.1-1.8,6-2,9c-1.3-0.5-0.5-1.5-1.1-2c-0.6,0.4-1.1,0.9-1.7,1.3
		c-0.6,0.4-1.3,0.7-2,0.1c-0.6-0.6-0.5-1.3-0.2-2c0.7-1.3,1.6-2.5,3-2.9c1.5-0.4,2.3-0.9,2.5-2.5
		C116.8,159.2,117.1,158.7,118.2,158.5z M112.1,166.3c1.9-0.6,2.9-1.6,3.7-3.4C113.7,163.3,112.6,164.3,112.1,166.3z"/>
	<path id="XMLID_2367_" class="st0" d="M175.5,166.5c-0.8-0.6-0.1-1.5-0.7-2.1c-1.2-0.1-1.1,1.6-2.2,1.8c-0.9-0.6,0-1.6-0.6-2.4
		c-1.2,0.6-1.8,1.8-2.7,2.6c-0.3,0.3-0.7,0.6-1.1,0.4c-0.4-0.2-0.3-0.8-0.2-1.2c0.2-0.8,0.5-1.6,0.8-2.5c0.2-0.5,0.3-1.1,0.9-1
		c0.7,0.1,0.1,0.7,0.2,1c0.3,0.6,0.8,0.4,1.2,0.1c0.9-0.7,1.7-1.6,2.6,0.1c0.1,0.1,0.4,0.2,0.5,0.2c0.7-0.4,1.5-1,1.9,0.2
		C176.4,164.6,176.3,165.6,175.5,166.5z"/>
	<path id="XMLID_2366_" class="st0" d="M98.6,157.3c0.6,1-0.1,1.5-0.4,2.2c-0.1,0.3-0.7,0.7,0.1,1c1.2,0.4,0.6,0.8,0,0.9
		c-1.5,0.3-1.8,1.5-2.1,2.7c-0.3,1.2-0.4,2.4,2,1.6c-0.9,1.3-1.7,1.7-2.6,1.2c-1-0.5-0.6-1.5-0.7-2.3s1.6-2.3-0.9-2.1
		c-0.6,0-0.3-0.9-0.1-0.9C96.5,161.3,97,158.7,98.6,157.3z"/>
	<path id="XMLID_2365_" class="st0" d="M131.1,165.6c1.2-0.6,1.8-2,2.8-2.8c0.3-0.3,0.6-0.7,1.1-0.5c0.6,0.2,0.5,0.8,0.5,1.3
		c0,1.2,0,2.4,0,4c-1.5-0.9-0.8-2.2-1.2-3.1c-1.1,0.5-1.5,1.4-2.2,2.1c-0.5,0.5-1,0.8-1.7,0.5c-0.8-0.3-0.7-1-0.7-1.7
		c0-0.4,0-0.9,0.2-1.3c0.3-0.6,0.4-2,1.3-1.6c0.9,0.3-0.1,1.2-0.2,1.9C130.9,164.7,130.6,165.1,131.1,165.6z"/>
	<path id="XMLID_2405_" class="st0" d="M90,167.2c-0.8-0.1-1.5-0.1-1.8-1c-0.5-1.7,2.3-5,4-4.4c1.7,0.5,0.6,1.4,0.2,2.3
		c-0.3,0.6-2.5,0.7-0.6,2.1C92.1,166.4,90.6,166.9,90,167.2z M91,166c0-0.8-0.3-0.7-0.6-0.6c-0.3,0.1-0.8,0.3-0.8,0.5
		c0,0.4,0.4,0.5,0.8,0.4C90.7,166.2,91,166.1,91,166z"/>
	<path id="XMLID_2362_" class="st0" d="M154.7,168.1c-0.7-1.5,0-2.4,0.4-3.4c0.4-1.1,0.9-2.1-1.3-2.1c2.3-0.6,3.3-2.2,4.1-3.9
		c0.3-0.7,1.1-0.9,1.6-0.2c0.9,1.1-0.5,0.7-0.8,1c-0.9,0.8-1.3,1.7,0.6,2.5C155.5,162.5,156.6,166.2,154.7,168.1z"/>
	<path id="XMLID_2361_" class="st0" d="M193.2,164.4c1,0.7,1.8,1.3,2.6,1.8c0.3,0.2,0.6,0.5,0.4,0.9c-0.2,0.4-0.7,0.3-1,0
		c-1.2-1.1-2.4-1.5-3.7-0.1c-0.3,0.3-0.8,0.4-1.2,0.1c-0.4-0.3-0.3-0.8-0.1-1.2c0.5-1.2,1.3-2.3,2.3-3.1c0.5-0.4,1-0.9,1.7-0.6
		c0.5,0.2,0.6,0.6,0.6,1.1C194.9,164.4,193.9,164.2,193.2,164.4z"/>
	<path id="XMLID_2360_" class="st0" d="M149.4,166.9c-0.9,0.6-1.5,0.2-1.8-0.1c-1-0.9-1.8-1-2.8,0c-0.4,0.4-1,0.8-1.5,0.3
		s-0.2-1.1,0.1-1.6c0.5-1.1,1.2-2,2.2-2.7c0.5-0.4,1.1-0.9,1.8-0.5c0.3,0.1,0.5,0.6,0.5,0.9c0.1,1-0.9,0.9-1.5,1.3
		C147.3,165.3,148.2,166,149.4,166.9z"/>
	<path id="XMLID_2359_" class="st0" d="M71,166c0.9,0.9,1.7-0.3,2.5-0.1c-1.2,1.3-2.6,1.6-3.4,0.8c-1-1.1-0.2-2.2,0.5-3.1
		c0.8-1.1,1.8-2.1,3.4-1.9c0.4,0.1,0.9,0.4,0.7,0.9c-0.4,1.4-1.5,2.2-2.8,2.7C71.6,165.5,71.2,165.5,71,166z"/>
	<path id="XMLID_2358_" class="st0" d="M167,166.9c-0.7,0.6-1.1,0.4-1.4,0.1c-1.1-1-2.1-1.3-3.3-0.1c-0.3,0.4-0.9,0.6-1.4,0.1
		c-0.5-0.4-0.2-0.9,0-1.4c0.5-1.3,1.4-2.2,2.4-3c0.5-0.4,1.1-0.8,1.7-0.3c0.2,0.2,0.3,0.6,0.3,1c0,0.9-0.8,0.9-1.4,0.9
		c-0.2,0-0.4,0.1-0.6,0.1c0.3,0.6,0.9,0.2,1.3,0.5C165.3,165.6,166.1,166.2,167,166.9z"/>
	<path id="XMLID_2357_" class="st0" d="M120.5,165.8c0.4,1,1.4,0.2,1.7,0.9c-0.9,0.6-2,0.7-2.7-0.2c-0.7-0.8-0.2-1.8,0.3-2.6
		c0.4-0.5,0.8-1,1.3-1.4c0.9-0.6,2-1.6,2.8-0.4c0.8,1.1-0.5,1.9-1.3,2.6C122,165.2,121.2,165.4,120.5,165.8z"/>
	<path id="XMLID_2396_" class="st0" d="M101.6,166.9c-0.7-0.1-1.5-0.3-1.5-1.5c0-1.5,2.4-4,3.7-3.8c1,0.1,1.9,0.8,1.9,2
		C105.6,165,103.3,166.9,101.6,166.9z M104.5,164c0-0.6-0.3-1.1-0.9-0.9c-1.1,0.3-1.9,1-2.2,2.1c-0.1,0.5,0.3,0.8,0.8,0.7
		C103.2,165.6,104.2,165.2,104.5,164z"/>
	<path id="XMLID_2354_" class="st0" d="M138.2,161.8c0.2,1.4,0.5,1.9,2,1.4c1.4-0.5,2.1,1.2,1.6,3.8c-0.6-0.1-0.7-0.6-0.8-1.1
		c-0.1-0.6,0.2-1.4-0.7-1.6c-0.7-0.1-1.2,0.3-1.7,0.8c-0.6,0.6-1.1,1.3-1.8,1.8C136.7,165,137.4,163.5,138.2,161.8z"/>
	<path id="XMLID_2353_" class="st0" d="M63.6,166.8c0.5-0.7,1-0.6,1.5-0.8c0.6-0.3,1.2-0.7,0.4-1.4c-0.8-0.6-1.1-1.4-0.5-2.3
		c0.7-1.1,1.9-1.3,3.1-1.3c0.3,0,0.7,0.2,0.7,0.6c0,0.5-0.4,0.5-0.8,0.6c-1.8,0.2-2.8,0.5-0.8,2.3c1.2,1.1-0.4,1.6-1.2,2.1
		C65.2,167,64.5,167,63.6,166.8z"/>
	<path id="XMLID_2352_" class="st0" d="M57.5,156.9c0.7,1.3-0.1,2.1-0.3,2.9c-0.6,2.2-1.9,4.2-0.8,6.6c0.2,0.3,0.1,0.6-0.3,0.6
		c-0.6,0.2-1.1-0.2-1.1-0.7c0-1.1,0-2.3,0.2-3.4C55.7,160.9,56,158.8,57.5,156.9z"/>
	<path id="XMLID_2351_" class="st0" d="M79.8,166.3c-0.4,0.3-0.6,0.5-0.9,0.6c-1,0.5-2.3,1-3,0.1c-0.9-1,0.3-2,1-2.7
		c1-1.1,2-2.5,4-2.1c-0.2,1.3-1.5,1-2.1,1.6c-0.6,0.7-1.8,1.2-1.5,2.1C77.6,167.1,78.7,165.8,79.8,166.3z"/>
	<path id="XMLID_2350_" class="st0" d="M181.9,164.8c0.3-2.2,0.8-4.4,1.6-6.6c0.2-0.4,0.3-1.2,0.9-0.9c0.9,0.3,0.2,1,0.1,1.4
		c-0.6,1.7-1.3,3.4-1.6,5.2c-0.1,0.6,0,1.2-0.1,1.7c-0.1,0.6,1.1,0.7,0.4,1.4c-0.1,0.1-0.4,0.1-0.6,0c-0.8-0.3-0.7-1-0.7-1.6
		C181.8,165.2,181.9,165.1,181.9,164.8z"/>
	<path id="XMLID_2349_" class="st0" d="M87.5,162.7c-2.7,0.5-3.8,2.5-5.3,4.3c-0.3-1.9,0.5-3.4,0.9-5c0-0.1,0.3-0.2,0.5-0.3
		C84.3,163.6,86.1,161.3,87.5,162.7z"/>
	<path id="XMLID_2348_" class="st0" d="M186.5,167c-0.6-1.9,0.1-3.5,0.8-5.1c0.1-0.3,0.3-0.7,0.8-0.6c0.5,0.2,0.6,0.7,0.4,1
		C187.6,163.8,187.2,165.5,186.5,167z"/>
	<path id="XMLID_2347_" class="st0" d="M178,167c-0.5-2,0.2-3.7,1-5.4c0.1-0.2,0.4-0.5,0.7-0.3c0.4,0.2,0.6,0.6,0.4,0.9
		C179.1,163.7,178.9,165.5,178,167z"/>
</g>
</svg>
