<?xml version="1.0" encoding="utf-8"?>
<!-- Generator: Adobe Illustrator 22.0.1, SVG Export Plug-In . SVG Version: 6.00 Build 0)  -->
<svg version="1.1" id="Layer_1" xmlns="http://www.w3.org/2000/svg" xmlns:xlink="http://www.w3.org/1999/xlink" x="0px" y="0px"
	 viewBox="0 0 240.7 216" style="enable-background:new 0 0 240.7 216;" xml:space="preserve">
<style type="text/css">
	.st0{fill:#FFFFFF;}
</style>
<g id="XMLID_1883_">
	<g id="XMLID_1886_">
		<path id="XMLID_1899_" class="st0" d="M60.5,128.3l-2.8,1.7c-0.5-0.9-1-1.5-1.5-1.8s-1.1-0.5-1.9-0.5c-1,0-1.8,0.3-2.4,0.8
			s-1,1.2-1,2c0,1.1,0.8,2,2.5,2.7l2.3,0.9c1.9,0.8,3.3,1.7,4.1,2.8c0.9,1.1,1.3,2.4,1.3,4c0,2.1-0.7,3.9-2.1,5.3
			c-1.4,1.4-3.2,2.1-5.3,2.1c-2,0-3.7-0.6-5-1.8c-1.3-1.2-2.1-2.9-2.4-5l3.6-0.8c0.2,1.4,0.4,2.3,0.8,2.8c0.7,1,1.8,1.5,3.2,1.5
			c1.1,0,2-0.4,2.7-1.1c0.7-0.7,1.1-1.7,1.1-2.8c0-0.5-0.1-0.9-0.2-1.2c-0.1-0.4-0.3-0.7-0.6-1c-0.3-0.3-0.6-0.6-1-0.9
			c-0.4-0.3-0.9-0.5-1.5-0.8l-2.2-0.9c-3.2-1.3-4.8-3.3-4.8-5.9c0-1.7,0.7-3.2,2-4.4c1.3-1.2,3-1.8,5-1.8
			C56.9,124.4,59,125.7,60.5,128.3z"/>
		<path id="XMLID_1943_" class="st0" d="M78.2,128.1h-9.3v5.6h9v3.3h-9v7.8h9.3v3.3H65.3v-23.2h12.9V128.1z"/>
		<path id="XMLID_1945_" class="st0" d="M96.4,142.4h-9.9l-2.6,5.6h-3.8l11.5-24.7l11.1,24.7h-3.8L96.4,142.4z M95,139.1l-3.4-7.9
			l-3.6,7.9H95z"/>
		<path id="XMLID_1948_" class="st0" d="M117.2,128.1h-8.1v5.6h7.8v3.3h-7.8v11.1h-3.5v-23.2h11.6V128.1z"/>
		<path id="XMLID_1950_" class="st0" d="M120.1,136.3c0-3.3,1.2-6.1,3.6-8.4c2.4-2.3,5.3-3.5,8.6-3.5s6.2,1.2,8.5,3.6
			c2.4,2.4,3.6,5.2,3.6,8.5s-1.2,6.2-3.6,8.5c-2.4,2.3-5.3,3.5-8.7,3.5c-3,0-5.7-1-8.1-3.1C121.4,143.1,120.1,140.1,120.1,136.3z
			 M123.7,136.4c0,2.6,0.9,4.7,2.6,6.3c1.7,1.7,3.7,2.5,5.9,2.5c2.4,0,4.5-0.8,6.2-2.5s2.5-3.8,2.5-6.2c0-2.5-0.8-4.6-2.5-6.2
			c-1.6-1.7-3.7-2.5-6.1-2.5c-2.4,0-4.5,0.8-6.1,2.5C124.5,131.9,123.7,133.9,123.7,136.4z"/>
		<path id="XMLID_1953_" class="st0" d="M147.7,136.3c0-3.3,1.2-6.1,3.6-8.4c2.4-2.3,5.3-3.5,8.6-3.5s6.2,1.2,8.5,3.6
			c2.4,2.4,3.6,5.2,3.6,8.5s-1.2,6.2-3.6,8.5c-2.4,2.3-5.3,3.5-8.7,3.5c-3,0-5.7-1-8.1-3.1C149,143.1,147.7,140.1,147.7,136.3z
			 M151.2,136.4c0,2.6,0.9,4.7,2.6,6.3c1.7,1.7,3.7,2.5,5.9,2.5c2.4,0,4.5-0.8,6.2-2.5s2.5-3.8,2.5-6.2c0-2.5-0.8-4.6-2.5-6.2
			c-1.6-1.7-3.7-2.5-6.1-2.5c-2.4,0-4.5,0.8-6.1,2.5C152,131.9,151.2,133.9,151.2,136.4z"/>
		<path id="XMLID_1956_" class="st0" d="M176.4,148.1v-23.2h4.9c2.3,0,4.2,0.2,5.5,0.7c1.5,0.5,2.8,1.2,4,2.3
			c2.4,2.2,3.6,5.1,3.6,8.6c0,3.6-1.2,6.5-3.7,8.7c-1.3,1.1-2.6,1.9-3.9,2.3c-1.3,0.4-3.1,0.6-5.5,0.6L176.4,148.1L176.4,148.1z
			 M179.9,144.8h1.6c1.6,0,2.9-0.2,3.9-0.5c1-0.4,2-0.9,2.8-1.7c1.7-1.6,2.6-3.6,2.6-6.2c0-2.5-0.9-4.6-2.6-6.2
			c-1.5-1.4-3.8-2.1-6.8-2.1h-1.6v16.7H179.9z"/>
	</g>
	<g id="XMLID_1885_">
		<path id="XMLID_1900_" class="st0" d="M171.5,173.7h-24.8l17.7-16.9h-16.2v-3.5h24.7l-17.7,16.9h16.3V173.7z"/>
		<path id="XMLID_1907_" class="st0" d="M161.6,112.1l9.9-7.2v4.3l-9.5,6.6v0.6h9.5v3.5h-23.3v-4.1c0-3.1,0.6-5.3,1.7-6.7
			c1.3-1.5,3-2.3,5.1-2.3c1.6,0,3.1,0.5,4.2,1.4C160.5,109.3,161.3,110.5,161.6,112.1z M158.9,116.4v-1.1c0-3.3-1.3-5-3.8-5
			c-2.4,0-3.6,1.6-3.6,4.8v1.2L158.9,116.4L158.9,116.4z"/>
		<path id="XMLID_1910_" class="st0" d="M148.2,101.1l15.5-6.1L147,88.7l16.7-6.1l-15.5-6.4v-3.8l24.7,10.4l-16.5,6l16.5,6.2
			l-24.7,9.9V101.1z"/>
		<path id="XMLID_1912_" class="st0" d="M165.8,57.9v9.9l5.6,2.6v3.8l-24.7-11.5l24.8-11.1v3.8L165.8,57.9z M162.5,59.3l-7.9,3.4
			l7.9,3.6V59.3z"/>
		<path id="XMLID_1915_" class="st0" d="M161.4,46l-13.2,7.6v-4l9.3-5.3l-9.3-5.3v-4l13.2,7.6h10v3.5L161.4,46L161.4,46z"/>
	</g>
	<g id="XMLID_1884_">
		<path id="XMLID_1887_" class="st0" d="M123.9,169.4v8.1h5.6v-7.8h3.3v7.8h11.1v3.5h-23.2v-11.6H123.9z"/>
		<path id="XMLID_1889_" class="st0" d="M133.9,157.5l9.9-7.2v4.3l-9.5,6.6v0.6h9.5v3.5h-23.2v-4.1c0-3.1,0.6-5.3,1.7-6.7
			c1.3-1.5,3-2.3,5.1-2.3c1.6,0,3.1,0.5,4.2,1.4C132.8,154.7,133.6,155.9,133.9,157.5z M131.3,161.8v-1.1c0-3.3-1.3-5-3.8-5
			c-2.4,0-3.6,1.6-3.6,4.8v1.2h7.4V161.8z"/>
		<path id="XMLID_1902_" class="st0" d="M143.8,120.6l-25-4.9l18.1-8l-18.1-8.3l25-4.4v3.6l-14,2.2l15.1,6.9l-15.1,6.7l14,2.5V120.6
			z"/>
	</g>
	<rect id="XMLID_1234_" x="179.9" y="98.2" class="st0" width="10.9" height="22.3"/>
	<rect id="XMLID_1904_" x="179.9" y="44.2" class="st0" width="10.9" height="22.3"/>
	<rect id="XMLID_1959_" x="179.9" y="74.2" class="st0" width="10.9" height="16.4"/>
</g>
</svg>
