<?xml version="1.0" encoding="utf-8"?>
<!-- Generator: Adobe Illustrator 22.0.1, SVG Export Plug-In . SVG Version: 6.00 Build 0)  -->
<svg version="1.1" id="Layer_1" xmlns="http://www.w3.org/2000/svg" xmlns:xlink="http://www.w3.org/1999/xlink" x="0px" y="0px"
	 viewBox="0 0 240.7 216" style="enable-background:new 0 0 240.7 216;" xml:space="preserve">
<style type="text/css">
	.st0{fill:#FFFFFF;}
</style>
<g id="XMLID_2152_">
	<path id="XMLID_2044_" class="st0" d="M109.2,109.2c0,1.3-0.9,2.1-2.5,2.1h-3.3V107h3.3C108.2,107,109.2,107.8,109.2,109.2
		L109.2,109.2z M112.9,119l-3.6-5.3c1.9-0.7,3.2-2.2,3.2-4.6l0,0c0-3.1-2.1-4.9-5.6-4.9h-6.8v14.9h3.3v-4.8h2.6l3.2,4.8L112.9,119
		L112.9,119z M93,111.6c0,2.6-1.8,4.6-4.5,4.6c-2.6,0-4.5-2.1-4.5-4.7l0,0c0-2.6,1.8-4.6,4.5-4.6S93,109,93,111.6L93,111.6z
		 M96.5,111.5L96.5,111.5c0-4.3-3.3-7.7-7.9-7.7s-8,3.5-8,7.7l0,0c0,4.2,3.3,7.7,7.9,7.7C93.1,119.3,96.5,115.8,96.5,111.5
		 M78.4,116.6l-2.1-2.1c-1.2,1.1-2.2,1.7-3.9,1.7c-2.6,0-4.3-2.1-4.3-4.7l0,0c0-2.6,1.8-4.6,4.3-4.6c1.5,0,2.7,0.6,3.8,1.7l2.1-2.4
		c-1.4-1.4-3.1-2.3-5.9-2.3c-4.6,0-7.8,3.5-7.8,7.7l0,0c0,4.3,3.3,7.7,7.7,7.7C75.2,119.3,76.9,118.2,78.4,116.6 M62.5,116.6
		l-2.1-2.1c-1.2,1.1-2.2,1.7-3.9,1.7c-2.6,0-4.3-2.1-4.3-4.7l0,0c0-2.6,1.8-4.6,4.3-4.6c1.5,0,2.7,0.6,3.8,1.7l2.1-2.4
		c-1.4-1.4-3.1-2.3-5.9-2.3c-4.6,0-7.8,3.5-7.8,7.7l0,0c0,4.3,3.3,7.7,7.7,7.7C59.2,119.3,60.9,118.2,62.5,116.6 M41.4,112.8h-4
		l2-4.8L41.4,112.8z M47.4,119L41,104h-3l-6.4,15h3.3l1.4-3.3h6.3L44,119H47.4z"/>
	<path id="XMLID_1961_" class="st0" d="M151.7,130c0-0.1,0-0.2,0-0.2c0-1.3-0.8-2.4-2.1-2.4s-2.2,1.1-2.2,2.4c0,1.4,1,2.4,2.3,2.4
		c0.9,0,1.4-0.3,1.9-0.9l-0.4-0.4c-0.4,0.4-0.8,0.6-1.4,0.6c-0.8,0-1.5-0.6-1.6-1.5L151.7,130L151.7,130z M148,129.5
		c0.1-0.9,0.7-1.6,1.5-1.6c0.9,0,1.4,0.7,1.5,1.6H148z M126.1,125.6h-0.7v5.4c0,1,0.5,1.1,1,1.1c0.2,0,0.4,0,0.5-0.1l-0.1-0.6
		c-0.4,0.1-0.7,0.1-0.7-0.4V125.6z M123.9,130c0-0.1,0-0.2,0-0.2c0-1.3-0.8-2.4-2.1-2.4c-1.3,0-2.2,1.1-2.2,2.4c0,1.4,1,2.4,2.3,2.4
		c0.9,0,1.4-0.3,1.9-0.9l-0.4-0.4c-0.4,0.4-0.8,0.6-1.4,0.6c-0.8,0-1.5-0.6-1.6-1.5L123.9,130L123.9,130z M120.3,129.5
		c0.1-0.9,0.7-1.6,1.5-1.6c0.9,0,1.4,0.7,1.5,1.6H120.3z M103.6,130c0-0.1,0-0.2,0-0.2c0-1.3-0.8-2.4-2.1-2.4
		c-1.3,0-2.2,1.1-2.2,2.4c0,1.4,1,2.4,2.3,2.4c0.9,0,1.4-0.3,1.9-0.9l-0.4-0.4c-0.4,0.4-0.8,0.6-1.4,0.6c-0.8,0-1.5-0.6-1.6-1.5
		L103.6,130L103.6,130z M93,125.8h-4v6.2h0.7v-2.7h2.9v-0.7h-2.9v-2.2H93V125.8z M98.1,130c0-0.1,0-0.2,0-0.2c0-1.3-0.8-2.4-2.1-2.4
		c-1.3,0-2.2,1.1-2.2,2.4c0,1.4,1,2.4,2.3,2.4c0.9,0,1.4-0.3,1.9-0.9l-0.4-0.4c-0.4,0.4-0.8,0.6-1.4,0.6c-0.8,0-1.5-0.6-1.6-1.5
		L98.1,130L98.1,130z M94.5,129.5c0.1-0.9,0.7-1.6,1.5-1.6c0.9,0,1.4,0.7,1.5,1.6H94.5z M100,129.5c0.1-0.9,0.7-1.6,1.5-1.6
		c0.9,0,1.4,0.7,1.5,1.6H100z M105.8,125.6h-0.7v5.4c0,1,0.5,1.1,1,1.1c0.2,0,0.4,0,0.5-0.1l-0.1-0.6c-0.4,0.1-0.7,0.1-0.7-0.4
		C105.8,131,105.8,125.6,105.8,125.6z M112.6,131l-1.8-5.2H110l2.2,6.2h0.6l1.7-5l1.7,5h0.6l2.2-6.2h-0.7l-1.8,5.2l-1.7-5.2h-0.6
		L112.6,131z M131.4,130.8c-0.4,0.4-0.8,0.7-1.4,0.7c-1,0-1.7-0.8-1.7-1.8s0.7-1.8,1.6-1.8c0.6,0,1,0.3,1.4,0.7l0.5-0.5
		c-0.4-0.4-1-0.8-1.8-0.8c-1.3,0-2.3,1.1-2.3,2.4c0,1.3,1,2.4,2.3,2.4c0.9,0,1.4-0.4,1.9-0.9L131.4,130.8z M137.5,129.7
		c0-1.3-1-2.4-2.4-2.4s-2.4,1.1-2.4,2.4s1,2.4,2.4,2.4S137.5,131,137.5,129.7 M136.8,129.7c0,1-0.7,1.8-1.7,1.8
		c-0.9,0-1.7-0.8-1.7-1.8s0.7-1.8,1.7-1.8C136.1,127.9,136.8,128.7,136.8,129.7 M142.6,128.3c-0.3-0.5-0.7-0.9-1.5-0.9
		s-1.2,0.4-1.5,0.9v-0.8h-0.7v4.6h0.7v-2.6c0-0.8,0.5-1.5,1.3-1.5c0.7,0,1.2,0.5,1.2,1.4v2.7h0.7v-2.6c0-0.9,0.6-1.4,1.3-1.4
		s1.2,0.5,1.2,1.4v2.7h0.7v-2.8c0-1.1-0.6-1.8-1.7-1.8C143.4,127.3,142.9,127.7,142.6,128.3"/>
	<path id="XMLID_1906_" class="st0" d="M108.8,96.8c0,0.2,0.8,0.2,1.7,0.2c3.1,0,6.3-0.3,9.2-1c3.9-0.9,5-2.3,7.2-3.6
		c4.5-2.5,10.2-2.1,10.2-2.5c0-0.1-0.1-0.1-1.7-0.6c-0.1-0.6-0.9-1-1.7-1c-1.9,0-4.9,2.1-7.6,2.1c-0.3,0-0.6,0-0.9-0.1
		c-1.1-2-3.6-3.9-6.7-4.3c-1.8-0.2-3.1-0.4-4.1-0.6c-3.6-0.7-4.5-1.6-4.9-1.6c-0.1,0-0.1,0.1-0.1,0.1c0,0.7,1.2,2.6,3.2,4.8
		c1.3,1.4,3.4,3.5,3.4,4.5c0,0.5-1.2,1.2-3.5,2.2C109.9,96.6,108.8,96.6,108.8,96.8"/>
	<path id="XMLID_1521_" class="st0" d="M209.1,114.6L209.1,114.6c0-2.6-1.7-3.7-4.7-4.5c-2.6-0.7-3.2-1-3.2-2l0,0
		c0-0.7,0.7-1.3,1.9-1.3c1.3,0,2.6,0.6,3.9,1.5l1.7-2.5c-1.5-1.2-3.4-1.9-5.5-1.9c-3,0-5.2,1.8-5.2,4.5l0,0c0,3,1.9,3.8,4.9,4.6
		c2.5,0.6,3,1.1,3,1.9l0,0c0,0.9-0.8,1.4-2.2,1.4c-1.7,0-3.1-0.7-4.5-1.8l-1.9,2.3c1.8,1.6,4.1,2.4,6.3,2.4
		C206.9,119.2,209.1,117.6,209.1,114.6 M195.2,119v-3h-6.7v-11.9h-3.3V119H195.2z M181.6,119v-2.9h-8.1V113h7v-2.9h-7v-3h8v-3h-11.3
		V119H181.6z M167.1,107.1v-3h-12.4v3h4.5V119h3.3v-11.9H167.1z M149.4,111.6c0,2.6-1.8,4.6-4.5,4.6c-2.6,0-4.5-2.1-4.5-4.7l0,0
		c0-2.6,1.8-4.6,4.5-4.6S149.4,109,149.4,111.6L149.4,111.6z M152.9,111.5L152.9,111.5c0-4.3-3.3-7.7-7.9-7.7c-4.6,0-8,3.5-8,7.7
		l0,0c0,4.2,3.3,7.7,7.9,7.7C149.5,119.3,152.9,115.8,152.9,111.5 M133.4,119v-14.9h-3.2v5.9h-7.5v-5.9h-3.3V119h3.3v-6h7.5v6H133.4
		z"/>
</g>
</svg>
