<?xml version="1.0" encoding="utf-8"?>
<!-- Generator: Adobe Illustrator 22.0.1, SVG Export Plug-In . SVG Version: 6.00 Build 0)  -->
<svg version="1.1" id="Layer_1" xmlns="http://www.w3.org/2000/svg" xmlns:xlink="http://www.w3.org/1999/xlink" x="0px" y="0px"
	 viewBox="0 0 240.7 216" style="enable-background:new 0 0 240.7 216;" xml:space="preserve">
<style type="text/css">
	.st0{fill:#FFFFFF;}
</style>
<g id="XMLID_1838_">
	<path id="XMLID_1895_" class="st0" d="M176.3,122h7.9v-17.1c0-4.3-3.5-7.8-7.8-7.8h-0.1V122L176.3,122z"/>
	<polygon id="XMLID_1894_" class="st0" points="150,127.1 158.2,127.1 172.3,89.8 164.2,89.8 	"/>
	<path id="XMLID_1893_" class="st0" d="M63,102.9c-2.2-0.4-10-1.4-11.5-1.6c0,0.4-0.1,2.5-0.1,2.5c0,2.3,1.7,4.3,4,4.6
		c2.1,0.3,4.5,0.7,6,0.9c2,0.3,3.2,1.5,3.2,3.4c0,3.5-3.9,4.1-6.5,4.1c-2.2,0-3.6-0.4-4.9-1.4c-1-0.8-1.7-2.3-1.7-3.8h-7.2
		c0,3,1.5,5.7,3.4,7.5c2.6,2.5,6.3,3.7,10.4,3.7c4.4,0,8.4-1.1,11-3.7c1.7-1.7,2.8-3.9,2.8-7C71.8,106.9,68.1,103.7,63,102.9"/>
	<path id="XMLID_1892_" class="st0" d="M96.6,101.9h2.9c2.8,0,4.8-2.6,4-5.3c-0.1-0.4-0.2-0.7-0.4-1.1c-1.8-4.8-6.5-6.5-12-6.5
		c-7.1,0-12.9,3.2-13.3,10.4h7.5c0.2-3,2.3-4.6,5.9-4.6c4.4,0,5.4,2,5.4,5.1"/>
	<path id="XMLID_1891_" class="st0" d="M176.3,97.1L176.3,97.1h20.1v-7.4h-12.7C179.6,89.8,176.3,93.1,176.3,97.1"/>
	<path id="XMLID_1845_" class="st0" d="M156.2,110.7L148,89.8h-8.3l6.6,16.8c1,2.5,3.4,4.1,6.1,4.1
		C152.4,110.7,156.2,110.7,156.2,110.7z"/>
	<path id="XMLID_1844_" class="st0" d="M96.6,108.3v0.3c0,4.7-3.1,7.5-8.2,7.5c-2.6,0-4.6-1.7-4.6-4.2c0-1.4,0.6-2.1,1.6-2.8
		c1.1-0.7,2.6-0.8,3.9-0.8H96.6v-6.4H88c-1,0-2,0.2-3,0.4c-5,1.2-8.6,5-8.6,10.3c0,5.2,3.9,10,11.6,10c3.7,0,6.9-1.5,8.7-3.4v2.8h7
		v-13.7C103.7,108.3,96.6,108.3,96.6,108.3z"/>
	<path id="XMLID_1843_" class="st0" d="M68.2,92.7c-2.7-2.9-6.9-3.9-10.8-3.8c-3.9,0.2-8,1.5-10.5,4.7c-0.7,0.9-1.2,2-1.5,3.1
		s-0.5,2.2-0.5,3.4c1.4,0.2,6.4,1,6.5,1c0,0,0.1-0.7,0.1-0.9c0-0.3,0.1-0.6,0.2-0.9c0.1-0.6,0.3-1.2,0.6-1.8
		c0.6-1.1,1.5-1.9,2.6-2.4c1.1-0.4,2.3-0.6,3.5-0.5s2.4,0.4,3.3,1.1c1,0.7,1.8,1.9,1.8,3.2v0.2h7.3C71.1,95.5,68.2,92.7,68.2,92.7"
		/>
	<path id="XMLID_1842_" class="st0" d="M117.2,101.9c-4.9,0-8.3,3.7-7.8,8c0,0.2,0.1,0.5,0.1,0.5c0.5,2.7,1.5,5.1,3.1,7
		c2.2,2.7,6.3,5.1,11.2,5.1s8.7-2.3,11-5.1c1.5-1.9,2.3-4.4,2.5-7h-7.7c-0.1,1.2-0.4,2.2-0.9,3c-0.9,1.4-2.6,2.4-4.9,2.4
		c-2.1,0-3.6-0.9-4.7-2c-1.8-2-2.2-5.1-2.2-8.1C116.9,104.4,117,103.1,117.2,101.9"/>
	<path id="XMLID_1841_" class="st0" d="M119.1,97.6c1-1.1,2.6-2,4.7-2c2.3,0,4,1,4.9,2.4c0.5,0.8,0.9,1.8,0.9,3h7.6
		c-0.1-2.5-1-5.1-2.5-7c-2.2-2.8-6.1-5.1-11-5.1c-4.9,0-8.9,2.3-11.2,5.1c-1.7,2.1-2.8,4.8-3.2,7.8h7.8
		C117.5,100.3,118,98.8,119.1,97.6"/>
</g>
</svg>
