<?xml version="1.0" encoding="utf-8"?>
<!-- Generator: Adobe Illustrator 22.0.1, SVG Export Plug-In . SVG Version: 6.00 Build 0)  -->
<svg version="1.1" id="Capa_1" xmlns="http://www.w3.org/2000/svg" xmlns:xlink="http://www.w3.org/1999/xlink" x="0px" y="0px"
	 viewBox="0 0 556 246.8" style="enable-background:new 0 0 556 246.8;" xml:space="preserve">
<style type="text/css">
	.st0{fill:#FFFFFF;}
</style>
<g id="LOGO">
	<g>
		<path class="st0" d="M184.9,110.1c-4.6-5.4-10.8-8.1-18.7-8.1c-7.9,0-14.3,3.1-19.2,9.4c-4.9,6.3-7.3,14.6-7.3,24.9v0.9
			c0,10.3,2.5,18.6,7.4,25c4.9,6.4,11.3,9.6,19.1,9.6c8.2,0,14.6-2.8,19.2-8.5l0.6,7.2h10.6V75h-11.5
			C184.9,75,184.9,110.1,184.9,110.1z M184.9,152.2c-3.4,6.6-8.7,9.8-16,9.8c-5.6,0-9.9-2.2-13.1-6.5s-4.7-10.3-4.7-17.9
			c0-8.6,1.6-15,4.7-19.4c3.2-4.4,7.6-6.5,13.2-6.5c7.1,0,12.4,3.2,15.9,9.5C184.9,121.3,184.9,152.2,184.9,152.2z"/>
		<path class="st0" d="M231.4,102c-5.4,0-10.3,1.5-14.9,4.4s-8.1,7.1-10.7,12.3c-2.6,5.2-3.8,11.2-3.8,17.9v2.1
			c0,10,2.9,18.1,8.6,24.1c5.7,6,13.1,9,22.3,9c11.3,0,19.8-4.3,25.4-13l-7-5.5c-2.1,2.7-4.6,4.9-7.4,6.6s-6.3,2.5-10.3,2.5
			c-5.7,0-10.4-2-14.2-6.1s-5.6-9.4-5.8-16.1h45.6v-4.8c0-10.8-2.4-19-7.3-24.8C247,104.9,240.2,102,231.4,102z M247.6,130.8h-33.7
			c0.8-6.1,2.7-10.8,5.9-14.2s7.1-5.1,11.7-5.1c4.8,0,8.6,1.6,11.4,4.8c2.8,3.2,4.4,7.8,4.7,13.6V130.8L247.6,130.8z"/>
		<polygon class="st0" points="287.5,155 270.4,103.2 258.6,103.2 283,170.6 291.8,170.6 315.9,103.2 304.2,103.2 		"/>
		<rect x="321.6" y="103.2" class="st0" width="11.5" height="67.3"/>
		<path class="st0" d="M327.5,78.7c-2.2,0-3.9,0.6-5.1,1.9s-1.7,2.9-1.7,4.7c0,1.9,0.6,3.4,1.7,4.7c1.1,1.2,2.8,1.9,5.1,1.9
			c2.2,0,3.9-0.6,5.1-1.9c1.2-1.2,1.7-2.8,1.7-4.7c0-1.9-0.6-3.4-1.7-4.7C331.4,79.4,329.7,78.7,327.5,78.7z"/>
		<path class="st0" d="M374.1,102c-8.3,0-15,3.2-20.2,9.7l-0.4-8.5h-10.9v67.3h11.5v-48c1.6-3.2,3.8-5.8,6.6-7.8c2.8-2,6.1-3,9.8-3
			c4.6,0,8,1.2,10.2,3.5c2.2,2.3,3.3,5.9,3.3,10.8v44.6h11.5v-44.5C395.5,110,388.3,102,374.1,102z"/>
		<path class="st0" d="M421.4,160c-1.1-1.4-1.7-3.4-1.7-6.1v-41.8h12.6v-8.9h-12.6V86.9h-11.5v16.3h-12.3v8.9h12.3v41.8
			c0,5.7,1.3,10.1,3.9,13.3c2.6,3.1,6.5,4.7,11.6,4.7c2.9,0,5.8-0.4,8.8-1.2v-9.3c-2.3,0.5-4.1,0.8-5.5,0.8
			C424.4,162.1,422.5,161.4,421.4,160z"/>
		<path class="st0" d="M490.6,154.8v-31c-0.2-6.8-2.5-12.2-6.8-16c-4.4-3.9-10.5-5.8-18.2-5.8c-4.9,0-9.4,0.9-13.5,2.7
			c-4.1,1.8-7.3,4.3-9.7,7.4c-2.4,3.1-3.6,6.4-3.6,9.7h11.6c0-2.9,1.4-5.5,4.2-7.5s6.2-3.1,10.3-3.1c4.7,0,8.2,1.2,10.6,3.6
			c2.4,2.4,3.6,5.6,3.6,9.6v5.3h-11.2c-9.7,0-17.2,1.9-22.5,5.8s-8,9.3-8,16.3c0,5.8,2.1,10.5,6.4,14.3c4.2,3.8,9.7,5.6,16.3,5.6
			c7.4,0,13.8-2.8,19.2-8.3c0.4,3.4,1,5.8,1.6,7.1H493v-1C491.4,165.9,490.6,161,490.6,154.8z M479.1,151.7c-1.5,3-3.8,5.4-7,7.3
			c-3.2,1.9-6.7,2.8-10.3,2.8c-3.8,0-6.9-1-9.3-3.1c-2.4-2-3.6-4.9-3.6-8.5c0-8.3,7-12.4,21.2-12.4h9L479.1,151.7L479.1,151.7z"/>
		<path class="st0" d="M107.8,80H97.3L72,146.8h61.6L107.8,80z M102.6,94.7l15.6,42.4H87.4L102.6,94.7z"/>
		<polygon class="st0" points="124.4,154.1 130.5,170.6 142.7,170.6 136.4,154.1 		"/>
		<polygon class="st0" points="63,170.6 75.3,170.6 81.2,154.1 69.2,154.1 		"/>
	</g>
</g>
</svg>
