<?xml version="1.0" encoding="utf-8"?>
<!-- Generator: Adobe Illustrator 22.0.1, SVG Export Plug-In . SVG Version: 6.00 Build 0)  -->
<svg version="1.1" id="Capa_1" xmlns="http://www.w3.org/2000/svg" xmlns:xlink="http://www.w3.org/1999/xlink" x="0px" y="0px"
	 viewBox="0 0 240.9 155.9" style="enable-background:new 0 0 240.9 155.9;" xml:space="preserve">
<style type="text/css">
	.st0{fill:#FFFFFF;}
</style>
<g>
	<path class="st0" d="M67.9,82.6h-4.4c0-1.4-0.4-1.4-0.8-1.4c-0.4,0-0.5,0.5-0.5,0.9v1.7c0,0.9,0.3,1.4,1.2,1.4h4.3
		c1,0,1.6-0.8,1.6-1.9v-2.9h5.1v9.7H61.1c-1.4,0-2.5-0.7-2.9-1.5c-0.4,0.9-1.5,1.5-2.9,1.5h-3.9v-4.9h1.7c1,0,1.5-0.8,1.5-1.5V81
		c0-1.2-0.6-2.1-2-2.4c1.4-0.3,2-1.2,2-2.4v-2.7c0-0.7-0.4-1.5-1.5-1.5h-1.6v-4.9h3.9c1.4,0,2.5,0.7,2.9,1.5
		c0.4-0.9,1.5-1.5,2.9-1.5h13.4v9.7h-5.1v-2.9c0-1-0.5-1.9-1.6-1.9h-4.3c-0.8,0-1.2,0.5-1.2,1.4v1.7c0,0.4,0.2,0.9,0.5,0.9
		c0.4,0,0.8,0,0.8-1.4h4.4v8H67.9z"/>
	<path class="st0" d="M149.1,82.6h-4.4c0-1.4-0.4-1.4-0.8-1.4c-0.4,0-0.5,0.5-0.5,0.9v1.7c0,0.9,0.3,1.4,1.2,1.4h4.3
		c1,0,1.6-0.8,1.6-1.9v-2.9h5.1v9.7h-13.4c-1.4,0-2.5-0.7-2.9-1.5c-0.4,0.9-1.5,1.5-2.9,1.5h-3.9v-4.9h1.6c1,0,1.5-0.8,1.5-1.5V81
		c0-1.2-0.6-2.1-2-2.4c1.4-0.3,2-1.2,2-2.4v-2.7c0-0.7-0.4-1.5-1.5-1.5h-1.6v-4.9h3.9c1.4,0,2.5,0.7,2.9,1.5
		c0.4-0.9,1.5-1.5,2.9-1.5h13.4v9.7h-5.1v-2.9c0-1-0.5-1.9-1.6-1.9h-4.3c-0.8,0-1.2,0.5-1.2,1.4v1.7c0,0.4,0.2,0.9,0.5,0.9
		c0.4,0,0.8,0,0.8-1.4h4.4V82.6L149.1,82.6z"/>
	<path class="st0" d="M50,76.9v-9.7H36.6c-1.4,0-2.5,0.7-2.9,1.5c-0.4-0.9-1.5-1.5-2.9-1.5h-3.9v4.9h1.6c1,0,1.5,0.8,1.5,1.5v2.7
		c0,1.2-0.6,2.1-2,2.4c1.4,0.3,2,1.2,2,2.4v2.7c0,0.7-0.4,1.5-1.5,1.5h-1.6v4.9h3.9c1.4,0,2.5-0.7,2.9-1.5c0.4,0.9,1.5,1.5,2.9,1.5
		h5.1v-5H39c-0.8,0-1.2-0.5-1.2-1.4v-1.7c0-0.4,0.2-0.9,0.5-0.9c0.4,0,0.8,0,0.8,1.4h4.4v-7.9h-4.4c0,1.4-0.4,1.4-0.8,1.4
		c-0.4,0-0.5-0.5-0.5-0.9v-1.7c0-0.9,0.3-1.4,1.2-1.4h4.3c1,0,1.6,0.8,1.6,1.9V77L50,76.9L50,76.9z"/>
	<path class="st0" d="M88.2,73.6c0-0.9,0.3-1.5,1.2-1.5h2.1c1.7,0,2.8,0.6,2.8,2.1c0,1.6-1.1,2.1-2.8,2.1h-2.1
		c-0.8,0-1.2-0.5-1.2-1.5V73.6L88.2,73.6z M87.1,67.1c-1.4,0-2.5,0.7-2.9,1.5c-0.4-0.9-1.5-1.5-2.9-1.5h-3.9V72H79
		c1,0,1.5,0.8,1.5,1.5v2.7c0,1.2-0.6,2.1-2,2.4c1.4,0.3,2,1.2,2,2.4v2.7c0,0.7-0.4,1.5-1.5,1.5h-1.6v4.9h3.9c1.4,0,2.5-0.7,2.9-1.5
		c0.4,0.9,1.5,1.5,2.9,1.5h5v-5h-2.7c-0.8,0-1.2-0.5-1.2-1.4V82c0-0.4,0.2-0.9,0.5-0.9h2.7c1.5,0,2.1,1.1,2.1,3.1v1.6
		c0,2.2,1.3,4.2,4.8,4.2h5v-5.3h-0.8c-1,0-1.5-0.3-1.5-1.5v-0.8c0-1.5-1-3.4-2.5-3.7c1.8-0.8,3.3-1.8,3.3-5.4c0-3.8-2.4-6.2-5.4-6.2
		S87.1,67.1,87.1,67.1L87.1,67.1z"/>
	<path class="st0" d="M115.8,73.6c0-0.9,0.3-1.5,1.2-1.5h2.1c1.7,0,2.8,0.6,2.8,2.1c0,1.6-1.1,2.1-2.8,2.1H117
		c-0.8,0-1.2-0.5-1.2-1.5V73.6L115.8,73.6z M114.6,67.1c-1.4,0-2.5,0.7-2.9,1.5c-0.4-0.9-1.5-1.5-2.9-1.5h-3.9V72h1.6
		c1,0,1.5,0.8,1.5,1.5v2.7c0,1.2-0.6,2.1-2,2.4c1.4,0.3,2,1.2,2,2.4v2.7c0,0.7-0.4,1.5-1.5,1.5h-1.6v4.9h3.9c1.4,0,2.5-0.7,2.9-1.5
		c0.4,0.9,1.5,1.5,2.9,1.5h5.1v-5H117c-0.8,0-1.2-0.5-1.2-1.4V82c0-0.4,0.2-0.9,0.5-0.9h2.7c1.5,0,2.1,1.1,2.1,3.1v1.6
		c0,2.2,1.3,4.2,4.8,4.2h5v-5.3h-0.8c-1,0-1.5-0.3-1.5-1.5v-0.8c0-1.5-1-3.4-2.5-3.7c1.8-0.8,3.3-1.8,3.3-5.4c0-3.8-2.4-6.2-5.4-6.2
		C120.9,67.1,114.6,67.1,114.6,67.1L114.6,67.1z"/>
	<path class="st0" d="M169.7,73.6c0-0.9,0.3-1.5,1.2-1.5h2.1c1.7,0,2.8,0.6,2.8,2.1c0,1.6-1.1,2.1-2.8,2.1h-2.1
		c-0.8,0-1.2-0.5-1.2-1.5V73.6L169.7,73.6z M168.5,67.1c-1.4,0-2.5,0.7-2.9,1.5c-0.4-0.9-1.5-1.5-2.9-1.5h-3.9V72h1.6
		c1,0,1.5,0.8,1.5,1.5v2.7c0,1.2-0.6,2.1-2,2.4c1.4,0.3,2,1.2,2,2.4v2.7c0,0.7-0.4,1.5-1.5,1.5h-1.6v4.9h3.9c1.4,0,2.5-0.7,2.9-1.5
		c0.4,0.9,1.5,1.5,2.9,1.5h5.1v-5h-2.7c-0.8,0-1.2-0.5-1.2-1.4V82c0-0.4,0.2-0.9,0.5-0.9h2.7c1.5,0,2.1,1.1,2.1,3.1v1.6
		c0,2.2,1.3,4.2,4.8,4.2h5v-5.3H184c-1,0-1.5-0.3-1.5-1.5v-0.8c0-1.5-1-3.4-2.5-3.7c1.8-0.8,3.3-1.8,3.3-5.4c0-3.8-2.4-6.2-5.4-6.2
		C174.9,67.1,168.5,67.1,168.5,67.1L168.5,67.1z"/>
	<path class="st0" d="M212,74.6c0.4,1.9,1,2.6,2,3.3c-1,0.7-1.6,1.3-2,3.3c-1.7,7.9-8.4,9-12.6,9s-10.9-1.2-12.6-9
		c-0.4-1.9-1-2.6-2-3.3c1-0.7,1.6-1.3,2-3.3c1.7-7.9,8.4-9,12.6-9S210.3,66.7,212,74.6L212,74.6z M199.5,71c-2,0-4.2,1.4-4.2,4.2
		c0,1.3,0.6,2.1,1.6,2.6c-1,0.5-1.6,1.3-1.6,2.6c0,2.7,2.2,4.2,4.2,4.2s4.2-1.4,4.2-4.2c0-1.3-0.6-2.1-1.6-2.6
		c1-0.5,1.6-1.3,1.6-2.6C203.6,72.4,201.5,71,199.5,71L199.5,71L199.5,71z"/>
</g>
</svg>
