<?xml version="1.0" encoding="utf-8"?>
<!-- Generator: Adobe Illustrator 22.0.1, SVG Export Plug-In . SVG Version: 6.00 Build 0)  -->
<svg version="1.1" id="Capa_1" xmlns="http://www.w3.org/2000/svg" xmlns:xlink="http://www.w3.org/1999/xlink" x="0px" y="0px"
	 viewBox="0 0 841.9 595.3" style="enable-background:new 0 0 841.9 595.3;" xml:space="preserve">
<style type="text/css">
	.st0{fill:#FFFFFF;}
</style>
<g>
	<path class="st0" d="M609.5,299.9c2.6-8.2,2.8-17.1,0.5-26.5c-6.9-28.4-34.8-55.3-61.7-68c-6.3-6.1-13.2-11.7-20.5-16.9
		c-38.6-27.3-84-36.8-121-24.6c-2.4,0.8-4.7,1.6-7,2.6c-59.7-2.8-135.1,13.8-173.4,58.9l2.5,2.1c36.3-42.7,106.5-59.4,164.2-58
		c-34.8,17.1-55,51.9-56.6,95h3.2c1.4-44.7,22.9-79.2,60.7-94.7c16.7,0.8,32,3.1,44.8,6.6c16.5,4.5,32.1,11.1,45.8,18.6
		c-10.3-0.1-20.2,0.8-29.4,2.4c-17.2,0-33.6,3.5-48.2,10.4c-23.5,11.2-40.1,29.9-47.9,54.2c-0.3,0.8-0.5,1.7-0.7,2.5h3.4
		c0.1-0.5,0.3-1,0.4-1.5c7.5-23.4,23.5-41.4,46.2-52.2c9-4.3,18.7-7.2,28.9-8.7c-10,3.4-19,8.1-26.9,13.9
		c-15.9,11.8-26.5,28.1-31.8,48.5h3.4c5.2-19.3,15.3-34.7,30.3-45.9c11.8-8.8,26.5-14.8,43.2-17.9h0c17.6,0,36,3.6,53.9,10.8
		c19.1,15.2,33.3,33.7,41.2,54.3h3.5c-6.9-18.5-18.7-35.3-34.4-49.8c6.1,2.9,12.1,6.2,17.9,9.9c14.3,9,26.7,19.8,36.9,31.7
		c5.7,13.5,9,27.4,9.3,41c1.3,61.4-44.7,101.9-88,113.5c-16.2,4.4-34.7,5.5-53,1.5c-13.1-7.3-24.7-16.7-34.4-28.1
		c-1.6-1.9-3.1-3.8-4.6-5.8c0.3,0.1,0.5,0.2,0.8,0.3c43.7,19.5,93,16.9,125.7-6.7c21.7-15.6,30.8-43.9,30.6-70.7h-3.2
		c0.2,25.9-8.5,53.1-29.2,68c-31.8,22.9-79.9,25.4-122.5,6.3c-2-0.9-4-1.9-6-2.8c-10.5-15.7-17.4-33.9-20.3-53.4h-3.3
		c2.7,18.2,8.7,35.2,17.8,50.3c-8.2-4.6-15.8-9.9-22.5-15.8c-5.5-10.9-9.4-22.6-11.7-34.4h-3.3c1.9,9.7,4.8,19.3,8.7,28.5
		c-8.5-8.6-15.5-18.2-20.7-28.5h-3.7c6.6,13.5,16.1,25.9,28,36.5c0.7,1.4,1.4,2.8,2.2,4.1c18.1,32.8,44.1,49.3,70.7,55.2
		c19,10.5,40.8,18.7,64.5,19.8c2,0.1,4,0.2,6,0.2c26.5,0,50.3-8.9,67.6-25.3c19.1-18.1,29.3-45.1,29.3-75.6
		C615.5,324,613.5,311.4,609.5,299.9 M382,362.9c6.7,5.2,14.1,9.8,22,13.9c2.6,3.8,5.3,7.4,8.3,10.8c7.4,8.7,16,16.3,25.5,22.7
		C416.7,403.1,396.8,388.3,382,362.9 M446,173.1c-11.1-3-24-5.1-38.1-6.2c36-11.8,80.3-2.5,118,24.2c4.7,3.3,9.2,6.9,13.5,10.6
		c-3.8-1.4-7.6-2.4-11.2-3.1c-10.5-2-20.6-3.1-30.4-3.6C482.5,186,464.9,178.2,446,173.1 M479.4,198.5c5.7-0.3,11.5-0.4,17.5-0.2
		c3.4,2,6.7,4.1,9.9,6.3C497.6,201.7,488.5,199.6,479.4,198.5 M545.8,223c-9.2-5.8-18.7-10.7-28.3-14.5c-4.3-3.4-8.9-6.7-13.8-9.8
		c7.7,0.6,15.7,1.6,23.9,3.1c6,1.1,12.4,3.3,19,6.4c12.2,11.9,22.3,25.2,29.6,39.2C567.3,238.5,557.1,230.2,545.8,223 M556,213.3
		c22.9,13.7,45,37,50.8,60.9c1.7,7.1,1.9,13.9,0.6,20.3c-5.4-13.6-13.5-26.7-23.8-38.8C577.3,240.8,567.9,226.4,556,213.3
		 M587.6,265.8c8,10.8,14.3,22.3,18.5,34.1c-2.6,7.4-7.3,14.3-14.1,20.4c1.2-7,1.7-14.2,1.5-21.8
		C593.2,287.6,591.2,276.6,587.6,265.8 M583.9,409c-18,17.1-43.3,25.7-71.2,24.3c-19.3-1-37.4-7.4-53.6-14.7
		c15.3,1.8,30.4,0.3,44-3.3c37.9-10.2,77.7-41.8,88-89.9c7.7-6.1,13.3-13,16.7-20.6c3,10,4.6,20.9,4.6,31
		C612.2,365.3,602.4,391.5,583.9,409"/>
	<path class="st0" d="M238.6,316.2h-8.3l17.6-46.3h7.8l16.3,46.3h-8.7l-4-12.4h-15.9L238.6,316.2z M251.7,279.6h-0.1l-5.8,16.6H257
		L251.7,279.6z M276.8,316.2h8.5l5-29.6h0.1l9.7,29.6h8.7l10.7-29.5h0.1l3.7,29.5h9l-6.7-46.4h-8.6l-12.6,35h-0.1l-11-35h-8.6
		L276.8,316.2z M336.2,269.8h17.6c9.6,0,14.9,5,14.9,11.9c0,6.3-3.8,10.3-8.8,10.9v0.1c6.1,0.9,9.7,5.2,9.7,10.9
		c0,7.7-5.6,12.6-15.1,12.6h-18.3V269.8z M351.5,309.6c6,0.1,8.4-2.5,8.4-6.4c0-4.7-2.5-7.1-9.3-7.1h-5.4v13.5H351.5z M350.9,289.5
		c4.9,0,8.5-2,8.5-6.7c0-4.2-2.5-6.4-8-6.4h-6.2v13.1H350.9z M378.8,316.2h9.3v-46.4h-9.3V316.2z"/>
	<path class="st0" d="M438.1,316.2h-8.3l17.6-46.3h7.8l16.3,46.3h-8.7l-4.1-12.4h-15.9L438.1,316.2z M451.2,279.6h-0.1l-5.8,16.6
		h11.2L451.2,279.6z M476.3,316.2h8.5l5-29.6h0.1l9.7,29.6h8.7l10.7-29.5h0.1l3.7,29.5h9l-6.7-46.4h-8.6l-12.6,35h-0.1l-11-35h-8.6
		L476.3,316.2z M397.4,316.2h27.8v-9.3h-18.5v-37.1h-9.3V316.2z M536.4,269.8h14.2c13.1,0,18.4,5.9,18.4,15.3
		c0,10.3-8.6,15.2-18.3,15.2h-4.9v15.9h-9.4V269.8z M550.3,292.7c5,0,8.9-3,8.9-7.7c0-3-1.7-7.7-8.5-7.7h-5v15.4H550.3z"/>
	<path class="st0" d="M397.4,325.5h2.5c2,0,3.9,0.3,3.9,2.7c0,1.2-0.9,2.1-2.1,2.3v0c0.5,0.2,0.7,0.4,1,1l1.9,4h-1.7l-1.6-3.5
		c-0.4-1-0.9-1-1.7-1h-0.9v4.5h-1.5V325.5z M398.8,329.8h1.2c1.4,0,2.2-0.6,2.2-1.6c0-0.9-0.7-1.5-2-1.5h-1.4V329.8z M407,335.6h5.7
		v-1.3h-4.2V331h3.8v-1.3h-3.8v-3h4.2v-1.3H407V335.6z M422.7,325.7c-0.7-0.3-1.5-0.4-2.3-0.4c-3.1,0-5.3,2.1-5.3,5.2
		c0,3.2,2.1,5.3,5.3,5.3c0.6,0,1.5,0,2.3-0.4l-0.1-1.4c-0.5,0.3-1.5,0.5-2.2,0.5c-2.1,0-3.8-1.6-3.8-4c0-2.3,1.5-3.9,3.9-3.9
		c0.7,0,1.5,0.2,2.1,0.6L422.7,325.7z M425.1,335.6h1.4v-10.1h-1.4V335.6z M436.6,325.7c-0.7-0.3-1.5-0.4-2.3-0.4
		c-3.1,0-5.3,2.1-5.3,5.2c0,3.2,2.1,5.3,5.3,5.3c0.6,0,1.5,0,2.3-0.4l-0.1-1.4c-0.5,0.3-1.5,0.5-2.2,0.5c-2.1,0-3.8-1.6-3.8-4
		c0-2.3,1.6-3.9,3.9-3.9c0.7,0,1.5,0.2,2.1,0.6L436.6,325.7z M439,335.6h5.7v-1.3h-4.2v-8.8H439V335.6z M451.4,325.5h1.5l4.3,10.1
		h-1.6l-1-2.5h-4.9l-1,2.5h-1.5L451.4,325.5z M452.2,326.8l-2,5h4L452.2,326.8z M459.6,335.6h1.5v-8.7h0l3.3,8.7h1.4l3.3-8.7h0v8.7
		h1.4v-10.1h-2.4l-3.1,8.4l-3.2-8.4h-2.4V335.6z M478,325.3c3.1,0,4.9,2.2,4.9,5.2c0,3.1-1.8,5.2-4.9,5.2c-3.1,0-4.9-2.2-4.9-5.2
		C473.1,327.5,474.9,325.3,478,325.3 M478,334.5c2.3,0,3.3-1.9,3.3-4c0-2.1-1.1-4-3.3-3.9c-2.2,0-3.3,1.9-3.3,3.9
		C474.7,332.5,475.6,334.5,478,334.5 M490.7,325.7c-0.7-0.2-1.5-0.4-2.2-0.4c-1.8,0-3.2,1-3.2,2.8c0,3.1,4.3,2.5,4.3,4.8
		c0,1.2-1.1,1.6-2,1.6c-0.7,0-1.6-0.3-2.1-0.5l-0.1,1.3c0.7,0.2,1.4,0.4,2.1,0.4c2,0,3.7-0.9,3.7-3c0-3.3-4.3-2.9-4.3-4.8
		c0-1.1,1-1.3,1.8-1.3c0.8,0,1.2,0.1,1.9,0.4L490.7,325.7z M497.8,335.6h5.7v-1.3h-4.2v-8.8h-1.5V335.6z M509.3,325.5h1.5l4.3,10.1
		h-1.6l-1-2.5h-5l-1,2.5H505L509.3,325.5z M510,326.8l-2,5h4L510,326.8z M520.5,335.6h5.7v-1.3h-4.2v-8.8h-1.4V335.6z M536.3,325.5
		h-1.4v5.7c0,1.9-0.6,3.3-2.5,3.3c-1.9,0-2.5-1.3-2.5-3.3v-5.7h-1.4v5.9c0,2.8,1.4,4.4,3.9,4.4c2.5,0,3.9-1.5,3.9-4.4V325.5z
		 M538.8,335.6h7v-1.3h-5.3l5.2-7.5v-1.3h-6.7v1.3h5.1l-5.2,7.5V335.6z"/>
</g>
</svg>
