<?xml version="1.0" encoding="utf-8"?>
<!-- Generator: Adobe Illustrator 22.0.1, SVG Export Plug-In . SVG Version: 6.00 Build 0)  -->
<svg version="1.1" id="Layer_1" xmlns="http://www.w3.org/2000/svg" xmlns:xlink="http://www.w3.org/1999/xlink" x="0px" y="0px"
	 viewBox="0 0 240.7 216" style="enable-background:new 0 0 240.7 216;" xml:space="preserve">
<style type="text/css">
	.st0{fill:#FFFFFF;}
</style>
<g>
	<g>
		<path class="st0" d="M145.3,61.8L145.3,61.8l0.2,0.1C145.5,61.8,145.4,61.8,145.3,61.8z"/>
	</g>
	<g>
		<path class="st0" d="M208.5,116.8c-0.1,0-0.1,0-0.2,0.1v-0.1C208.4,116.8,208.4,116.8,208.5,116.8c0.5-0.1,0.9-0.5,0.9-1.1
			c0-1.4-1.4-1.4-1.7-1.4v-0.1h-1.5v5.3h0.7v-2.4h0.6c0.4,0,0.5,0.1,0.6,0.4l0.9,2h0.8l-0.9-2.1
			C208.8,117.2,208.7,116.9,208.5,116.8z M207.5,116.6h-0.6h-0.1V115h0.8c0.9,0,1,0.5,1,0.8C208.6,116.2,208.3,116.6,207.5,116.6z"
			/>
		<path class="st0" d="M210,119.6h-1l-0.9-2.1c-0.1-0.3-0.2-0.3-0.5-0.3H207v2.4h-0.9v-5.5h1.7v0.1c1.1,0,1.7,0.6,1.7,1.5
			c0,0.5-0.3,1-0.8,1.2c0.2,0.2,0.2,0.4,0.3,0.5L210,119.6z M209.1,119.4h0.6l-0.8-1.9c-0.1-0.2-0.2-0.4-0.3-0.5c0,0,0,0,0,0
			c0,0-0.1,0-0.1,0l-0.1,0v-0.3h0.1c0.1,0,0.1,0,0.2,0c0.5-0.2,0.8-0.5,0.8-1c0-1.1-0.9-1.3-1.6-1.3h-0.1v-0.1h-1.3v5.1h0.5V117h0.7
			c0.5,0,0.6,0.1,0.7,0.5L209.1,119.4z M207.5,116.7h-0.8v-1.8h0.9c0.9,0,1.1,0.5,1.1,0.9C208.7,116.2,208.4,116.7,207.5,116.7z
			 M206.9,116.5h0.6c0.6,0,1-0.3,1-0.7c0-0.2,0-0.7-0.9-0.7h-0.7V116.5z"/>
	</g>
	<g>
		<path class="st0" d="M208.3,116.9c0.1,0,0.1,0,0.2-0.1c-0.1,0-0.1,0-0.2,0V116.9z"/>
		<path class="st0" d="M208.2,117v-0.3h0.1c0.1,0,0.2,0,0.2,0.1l0,0.2c0,0,0,0-0.1,0c0,0-0.1,0-0.1,0L208.2,117z"/>
	</g>
	<g>
		<path class="st0" d="M207.8,112.4c-2.4,0-4.5,2.1-4.5,4.5c0,2.5,2,4.5,4.5,4.5s4.5-2,4.5-4.5S210.3,112.4,207.8,112.4z
			 M207.8,120.8c-2.1,0-3.9-1.7-3.9-3.9c0-2.2,1.7-3.9,3.9-3.9c2.2,0,3.9,1.7,3.9,3.9C211.7,119.1,210,120.8,207.8,120.8z"/>
		<path class="st0" d="M207.8,121.5c-2.5,0-4.6-2.1-4.6-4.6c0-2.5,2.2-4.6,4.6-4.6c2.5,0,4.6,2.1,4.6,4.6S210.3,121.5,207.8,121.5z
			 M207.8,112.5c-2.3,0-4.4,2.1-4.4,4.4c0,2.4,2,4.4,4.4,4.4s4.4-2,4.4-4.4S210.2,112.5,207.8,112.5z M207.8,120.9c-2.2,0-4-1.8-4-4
			c0-2.2,1.8-4,4-4c2.2,0,4,1.8,4,4C211.8,119.1,210,120.9,207.8,120.9z M207.8,113.1c-2.1,0-3.8,1.7-3.8,3.8c0,2.1,1.7,3.8,3.8,3.8
			c2.1,0,3.8-1.7,3.8-3.8C211.6,114.8,209.9,113.1,207.8,113.1z"/>
	</g>
	<g>
		<path class="st0" d="M95.4,69.8c-0.2,0.3-0.3,0.7-0.1,1c0,0,1.2,1.4,1.3,4.3c0,0,1.1-3.1-0.4-5.2C96.2,69.9,95.8,69.1,95.4,69.8z"
			/>
	</g>
	<g>
		<path class="st0" d="M145.1,61.7l0.2,0.1h0C145.2,61.8,145.2,61.8,145.1,61.7z"/>
	</g>
	<g>
		<path class="st0" d="M143.6,61.3c0.1,0,0.3,0.1,0.5,0.1L143.6,61.3z"/>
	</g>
	<g>
		<path class="st0" d="M122.8,104.2l-0.4,0.1C122.5,104.3,122.7,104.3,122.8,104.2z"/>
	</g>
	<g>
		<path class="st0" d="M104.9,88.7c0,0-0.6,0.4-0.8,1.2c0,0.3,0,0.4,0.3,0.4c0,0,0.9,0,1.1-0.1c0,0,1-0.2,0.8-1.5
			C106.3,88.7,106.1,88,104.9,88.7z"/>
	</g>
	<g>
		<path class="st0" d="M115.7,104.3c-0.2-0.1-0.3-0.1-0.5-0.1L115.7,104.3z"/>
	</g>
	<g>
		<path class="st0" d="M141,69.9c-1.5,2.1-0.4,5.2-0.4,5.2c0.2-2.9,1.3-4.3,1.3-4.3c0.2-0.3,0.1-0.7-0.1-1
			C141.4,69.1,141,69.9,141,69.9z"/>
	</g>
	<g>
		<path class="st0" d="M132.3,88.7c-1.2-0.7-1.4,0-1.4,0c-0.2,1.3,0.8,1.5,0.8,1.5c0.2,0.1,1.1,0.1,1.1,0.1c0.3,0,0.3-0.1,0.3-0.4
			C132.9,89.1,132.3,88.7,132.3,88.7z"/>
	</g>
	<g>
		<path class="st0" d="M188.6,95c-0.1-0.2-0.1-0.3-0.1-0.5c0-1.2-0.6-2-1.1-2.3c-0.4-0.3-0.8-0.5-0.9-0.9c-0.1-0.4-0.3-0.7-0.8-1
			c-0.4-0.3-1.1-0.7-1.6-0.9s-1.2-0.4-1.6,0c-0.2,0.2-0.4,0.5-0.7,0.7c-0.3,0.3-0.6,0.5-0.6,0.5c-0.6-0.4-0.7-0.9-0.9-1.5
			c-0.1-0.3-0.2-0.7-0.3-1.1c-0.6-1.5-1.9-1.1-2.7-1h-0.1h-0.5l-0.1-0.1l-0.2-0.1L175,86v-0.1c0-0.1,0-0.3,0.2-0.6
			c0.6-0.9,1-2.8,1.1-4.3c0.4,0.1,0.7,0.1,1,0.1c3.1,0.2,4.9-0.6,6-1.6c0.1-0.1,0.1-0.1,0.2-0.2c0.6-0.6,0.9-1.2,1.1-1.8
			c0.2-0.7,0.5-1.5,0.5-2.2c0-3.1-1.8-5.4-3.8-6.5c-0.9-0.5-1.3-0.8-1.4-1c0.1-0.1,0.1-0.1,0.2-0.1c2.7,0,4-1,4.7-1.9
			c0.7-0.8,1-1.8,1-3c0-0.5,0-1.1-0.2-1.7c-0.8-1.3-1.5-0.9-1.9-0.3c-0.2,0.4-2.1,1.8-4.5,2c-1.7,0.2-2.6,1-3.1,1.7
			c-0.6,0.8-0.8,1.7-0.8,2.5c0,0.3,0,0.6,0.1,0.9c0.3,1.1,1.4,2,2.9,3.2l0.7,0.6l0.2,0.1c1.3,1.1,2,2.4,2,3.4c0,0.2,0,0.3,0,0.4
			c0,0.3-0.1,0.5-0.2,0.7c-0.6,1-2.2,1.6-4.5,0.8c-1.1-0.3-3.1-1.6-4.4-2.9c-1.5-1.5-3.5-1.8-5.4-2c-1.7-0.1-2.7-0.5-3.4-1.3
			c-2.1-2.4-4.2-2.8-6.1-2.9c-0.8,0-0.8-0.1-0.9-0.2c-1.3-1.8-2.7-2.5-3.8-2.9c-0.4-0.1-0.8-0.2-1.2-0.3l-0.7-0.2l-0.2-0.1
			c-0.4-0.1-0.7-0.2-1-0.3c-0.7-0.3-1.6-0.8-3.1-1.8l-0.1-0.1l-0.1-0.1H146h-0.1h-0.1c-0.1-0.1-0.3-0.1-0.4-0.2h-0.1
			c0.1,0,0.1,0,0.2,0.1l-0.2-0.1h-0.1h-0.1H145h-0.1h-0.1h-0.1h-0.1h-0.1h-0.1h-0.1c-0.1-0.1-0.3-0.1-0.5-0.1h-0.1h-0.1h-0.1h-0.1
			h-0.1h-0.1h-0.1H143h-0.1h-0.1h-0.1h-0.1c-0.7,0-1.4,0.2-2.1,0.4C136,56,128.9,52,120.8,51.5c-0.1,0-0.3,0-0.4,0
			c-0.1,0-0.3,0-0.4,0c-0.1,0-0.3,0-0.4,0s-0.3,0-0.4,0c-0.1,0-0.3,0-0.4,0c-0.1,0-0.3,0-0.4,0c-0.1,0-0.3,0-0.4,0
			c-8.3,0.4-15.7,4.6-20.3,10.9h-0.1h-0.1c-0.2-0.1-0.5-0.2-0.7-0.3h-0.1c-0.1,0-0.3-0.1-0.4-0.1h-0.1c-0.1,0-0.3-0.1-0.4-0.1h-0.1
			h-0.1h-0.1h-0.1h-0.1h-0.1h-0.1H95h-0.1h-0.1c-0.1,0-0.1,0-0.2,0h-0.1h-0.1h-0.1h-0.1h-0.1H94h-0.1h-0.1h-0.1h-0.1h-0.1h-0.1h-0.1
			h-0.1h-0.1H93h-0.1h-0.1h-0.1h-0.1h-0.1h-0.1h-0.1h-0.1h-0.1H92h-0.1h-0.1L91.7,62l-0.1,0.1l-0.1,0.1l-0.1,0.1
			c-2.2,1.5-3,1.8-4.1,2.1l-0.2,0.1l-0.7,0.2c-0.6,0.1-1.3,0.3-2,0.6c-1,0.4-2,1.2-3.1,2.6c-0.1,0.1-0.2,0.1-0.9,0.2
			c-1.9,0.2-4,0.5-6.1,2.9c-0.7,0.8-1.7,1.2-3.4,1.3c-1.9,0.2-3.9,0.5-5.4,2c-1.2,1.2-3.3,2.5-4.4,2.9c-2.3,0.8-3.9,0.2-4.5-0.8
			c0-0.1-0.1-0.2-0.1-0.3c-0.1-0.3-0.1-0.5-0.1-0.8c0-1,0.7-2.3,2-3.4l0.9-0.7c1.5-1.2,2.6-2.2,2.9-3.2c0.1-0.3,0.1-0.6,0.1-0.9
			c0-0.8-0.2-1.7-0.8-2.5c-0.5-0.7-1.4-1.5-3.1-1.7c-2.3-0.3-4.2-1.6-4.5-2c-0.4-0.6-1.2-0.9-1.9,0.3c-0.1,0.6-0.2,1.1-0.2,1.7
			c0,1.1,0.4,2.2,1,3c0.7,0.9,2,1.9,4.7,1.9c0.1,0,0.1,0.1,0.2,0.1c-0.2,0.2-0.5,0.5-1.4,1c-2,1.1-3.8,3.4-3.8,6.5
			c0,0.7,0.3,1.5,0.5,2.2c0.2,0.6,0.6,1.3,1.3,2c1.2,1,3.1,1.9,6.3,1.6c0.2-0.1,0.4-0.1,0.6-0.1c0.1,1.5,0.5,3.4,1.1,4.3
			c0.2,0.3,0.2,0.5,0.2,0.6c0,0.1,0,0.1,0,0.1c-0.1,0-1.4,0.8-1.4,0.8L60.9,87l-0.1,0.1c-0.1,0-0.5,0-0.5,0h-0.1
			c-0.8-0.1-2.1-0.5-2.6,1c-0.5,1.2-0.4,2-1.2,2.6c0,0-0.9-0.8-1.3-1.2c-0.4-0.4-1.1-0.2-1.6,0s-1.1,0.6-1.6,0.9
			c-0.4,0.3-0.7,0.6-0.8,1c-0.1,0.4-0.4,0.6-0.9,0.9c-0.4,0.3-1.1,1.1-1.1,2.3c0,0.3,0,0.5-0.2,0.8c-0.7,1.4-0.2,2,0.2,2.3
			c0.5,0.4,1.4,0.5,2.3,0.4v0.2l1.2-0.2c0.5-0.1,1.1,0,1.5,0.1h0.1c1,0.2,2.2-0.2,2.8-1.3c0.3-0.6,0.8-1.2,1.1-1.3
			c0.8,0.2,2.4,0.6,4.1-1.1c1.1-1.1,2.5-1.3,3.4-1.2l0.5,0.1c1.1,0.2,2.5,0.5,3.8-0.3c0.3-0.2,0.7-0.4,1.2-0.6
			c1.1-0.5,2.3-1,2.5-2.1c0-0.2,0.2-0.5,0.4-0.8c0.3-0.5,0.7-1.1,0.7-1.7c0.5,0.1,1,0.2,1.6,0.1l0.5-0.2c0.8-0.1,2.6-0.4,3.2-0.2
			c1.2,0.4,4.7,0.6,5.7,0.4c0,0,0.4,0,0.9,0c0.4,0.3,0.7,0.6,1.1,0.9c-0.7,0.1-1.4,0-1.8,0.1L85,89.2c-0.3,0-1,0-1.4,0l-1.1,0.1
			l-1.2,0.1c-0.6,0.1-1.2,0.4-1.1,1.5c0,0.3,0.2,0.8,0.5,1.1c0.1,0.2,0.8,1.1,0.9,1.4v0.1c0.3,0.5,0.7,1,1.7,1c0.1,0,0.3,0,0.4,0
			l0.1,0.2c0.2,0.5,0.5,1.3,1.2,1.7l0.2,0.1c0.5,0.4,1.4,1,2.7,0.5l0.6-0.2c1.1-0.4,2.9-1,3.8-1.5l0.1-0.1c0.8-0.5,1-0.5,1.3-0.5
			h0.2c0.7,0.1,1.9,0.3,2.7-1.1l0.5-0.7c3.5,5,8.6,8.8,14.6,10.5h0.1c0.2,0.1,0.4,0.1,0.6,0.2h0.2l0.3,0.1h0.1
			c0.3,0,0.5,0.1,0.7,0.1h0.2l0.3,0.1c0.1,0,0.3,0.1,0.4,0.1h0.2l0.4,0.1h0.2c0.2,0.1,0.3,0.1,0.5,0.1h0.2h0.3h0.2
			c0.2,0,0.3,0,0.5,0h0.2c0.1,0,0.3,0,0.4,0h0.2c0.2,0,0.3,0,0.5,0h0.2c0.2,0,0.4,0,0.6,0s0.4,0,0.6,0h0.2c0.2,0,0.3,0,0.5,0h0.2
			c0.2,0,0.4,0,0.5,0h0.2c0.2,0,0.3,0,0.5,0h0.3h0.4h0.2h0c0.1-0.1,0.3-0.1,0.4-0.1h0.3h0.1c0.2,0,0.5-0.1,0.7-0.1
			c6.8-1.3,12.8-5.2,16.7-10.6l0.1,0.1c0.9,1.4,2.1,1.2,2.7,1.1h0.2c0.3,0,0.5,0,1.3,0.5l0.1,0.1c0.9,0.4,2.6,1.1,3.8,1.5l0.5,0.2
			c1.4,0.5,2.3-0.1,2.8-0.5l0.2-0.1c0.6-0.4,1-1.2,1.2-1.7c0,0,0.1-0.1,0.1-0.2c0.1,0,0.3,0,0.4,0c1.1,0,1.5-0.5,1.7-1v-0.1
			c0.1-0.3,0.7-1.2,0.9-1.4c0.3-0.3,0.5-0.7,0.5-1.1c0.1-1.1-0.5-1.4-1.1-1.5l-1.2-0.1l-1.1-0.1c-0.4-0.1-1.1-0.1-1.4,0l-0.9-0.2
			c-0.5-0.1-1.1-0.1-1.8-0.1c0.4-0.2,0.8-0.6,1.1-0.9c0.3,0.1,0.7,0.2,0.7,0.2c1,0.2,4.6,0,5.7-0.4c0.6-0.2,2.3,0.1,3.2,0.2l0.5,0.1
			c0.1,0,0.3,0,0.4,0c0.4,0,0.8,0,1.2-0.1c0,0.3,0.1,0.6,0.2,0.9c0.2,0.3,0.3,0.5,0.5,0.8c0.2,0.2,0.4,0.6,0.4,0.8
			c0.1,1.1,1.3,1.6,2.5,2.1c0.4,0.2,0.9,0.4,1.2,0.6c1.3,0.8,2.7,0.5,3.8,0.3l0.5-0.1c0.9-0.1,2.3,0.1,3.4,1.2
			c0.2,0.1,0.3,0.2,0.4,0.3c0.7,0.6,1.5,0.8,2.1,0.9c0.7,0,1.2-0.1,1.6-0.2c0.3,0.2,0.8,0.7,1.1,1.3c0.1,0,0.1,0.1,0.1,0.1
			c0.7,1.1,1.8,1.4,2.7,1.2h0.1c0.4,0,1-0.2,1.5-0.1l1.2,0.2V98c0.9,0.1,1.8,0,2.3-0.4c0.4-0.3,1-1,0.3-2.3
			C188.7,95.2,188.6,95.1,188.6,95z M51.9,94.6c0,0-0.7,1.8-0.6,2.5c0,0-1.5,0.3-1.7-0.5c0,0,0-0.3,0.2-0.7c0,0,0.3-0.4,0.3-1.1
			c0,0,0-1.8,1.1-1.3c0.2,0.1,0.4,0.3,0.6,0.5C51.8,94,52.1,94.2,51.9,94.6z M52.2,92.1c0.5-0.2,1.4-1,1.4-1
			c0.2-0.2,0.6-0.3,0.9-0.2c0.7,0.2,0.3,0.8,0.3,0.8c-0.3,0.5-1.3,1.5-1.3,1.5C52.7,93.7,52,93,52,93C51.4,92.4,52.2,92.1,52.2,92.1
			z M112.8,89.8c-0.4-1.2-1.8-2.5-1.8-2.5c-0.6-0.6-0.8-0.4-0.8-0.4c-0.4,0.1,0,0.7,0,0.7c1.4,1.8,1.5,3.1,1.5,3.1
			c0.7,1.5,3.4,2.6,3.4,2.6c-3.4,0.7-5.5-2.1-5.5-2.1c-0.3-0.7-1.2,0-1.2,0c-1.2,1.3-2.9,1.1-2.9,1.1c-0.6-0.1-1-0.1-1-0.1
			c-0.7,0-2.1,0.5-2.1,0.5c-0.4,0.1-1.5,0.4-1.5,0.4c-0.7,0.2-1,0.2-1,0.2c-0.3-0.1-0.4,0-0.4,0C99,93.5,98.6,93,98.6,93
			c-0.3-0.3-0.4-1.4-0.4-1.4c0-0.9,0.8-1.6,0.8-1.6c0.3-0.4,0.2-0.4,0.2-0.4c-0.3-0.4-1.1,0-1.1,0c-0.6,0.2-0.3-0.6-0.3-0.6
			c0.1-0.9,1.4-1.8,1.4-1.8c0.5-0.3,0.5-0.8,0.5-0.8c0-0.6,0.7-1.6,0.7-1.6c0.4-0.4-0.2-0.3-0.2-0.3c-0.4,0.2-2.7,0.5-2.7,0.5
			c-0.8,0.5-2.6,0-2.6,0c2.4-2.9,0.9-5.7,0.9-5.7c0,1.3-0.7,3.3-0.7,3.3c-0.6,1.7-1.4,2-1.4,2c-0.3,0.2-2,0.6-2,0.6
			C91,85.4,91.4,86,91.4,86c0.2,0.1,0.6,0.9,0.6,0.9c0.2,0.6,1.4,2.5,1.4,2.5c0.5,0.5,0.4,1.2,0.4,1.2c0,0.7-0.6,2-0.6,2
			c-0.1,0.4,0.1,0.3,0.1,0.3c0.1,0,0.6-0.3,0.6-0.3c0.3-0.2,0.6-0.9,0.6-0.9c0.1-0.2,0.4-0.6,0.4-0.6c0.2-0.2,0.3-0.7,0.3-0.7
			c0.1-0.7-0.7-1.9-0.7-1.9c-0.5-0.8-1.3-2.8-1.3-2.8l1.1-0.1c0.4,0.2,0.7,0.7,0.7,0.7l0.8,2c0.1,0.3,0.5,0.8,0.5,0.8
			c0.5,0.5,0.4,1.1,0.4,1.1c0.1,0.5-0.2,1-0.2,1L95.3,93c-0.5,0.9-1.6,0.6-1.6,0.6c-0.7-0.3-1.5,0.2-1.5,0.2
			c-0.7,0.5-4.5,1.9-4.5,1.9c-0.8,0.5-1.6,0.2-1.6,0.2c-0.9-0.3-1.4-1.3-1.4-1.3c-0.6-1.9-1.6-1.4-1.6-1.4c-0.7,0.1-0.8-0.4-0.8-0.4
			c-0.3-0.6-1.1-1.7-1.1-1.7c-0.6-0.6,0.2-0.8,0.2-0.8l2.3-0.2c1.2-0.1,2.6,2.9,2.6,2.9c0.4,0.8,1.5,0.5,1.5,0.5
			c3-1,3.3-1.4,3.3-1.4c0-2.8-2.2-3.6-2.2-3.6c-2.5-0.9-3.4-3.9-3.4-3.9c-0.4-0.5-0.7,0.3-0.7,0.3c-0.1,1.2,0.5,2.1,0.5,2.1
			c-2.4,0.3-5.1-0.4-5.1-0.4c-1.8-0.3-4,0.2-4,0.2C74.8,87,74,86.4,74,86.4c-1.3-0.9-0.6-5-0.6-5c0.1-0.7-0.3-0.6-0.3-0.6
			c-1,0.9-0.8,4.9-0.8,4.9c-2.2,4.6-6.9,4.5-6.9,4.5c-1-0.1-2.1,0.1-2.1,0.1c-3.5,0.7-5.1,3.4-5.1,3.4c0.6,0.3,1-0.3,1-0.3
			c2.9-3.1,6.2-2.4,6.2-2.4c2.3,0.4,3.4-0.1,3.4-0.1c2.1-0.6,3.3-2.7,3.3-2.7h1.4c-0.4,0.4-0.9,1.7-0.9,1.7
			c-0.1,0.9-0.9,1.1-0.9,1.1c-0.7,0.3-2.5,1.2-2.5,1.2c-0.9,0.7-3.7,0.1-3.7,0.1c-2.5-0.4-4.3,1.6-4.3,1.6c-1.3,1.3-3.1,0.7-3.1,0.7
			c-1-0.3-2.2,1.8-2.2,1.8c-0.7,1.2-2.1,0.7-2.1,0.7c-0.6-0.2-1.5-0.1-1.5-0.1c0-0.5,0.2-1.3,0.2-1.3c0.4-1.1,0.9-1.3,0.9-1.3
			c0.7,0,1.1-0.7,1.1-0.7c0.3-1,1.4-1.2,1.4-1.2c1.4-0.6,2.2-2.5,2.2-2.5c0.4-0.8,0.7-1.7,0.7-1.7c0.4-0.5,1.5-0.2,1.5-0.2
			c0.9,0.1,1.1-0.1,1.1-0.1l1.8-1.1c0.9-0.8,0-2,0-2C62,82.6,62.3,80,62.3,80c-1.8,0.3-3.8,0.5-5.9,0.1c-4.6-1.8-2.7-6.5-2.7-6.5
			c0.9-2.7,2.7-3.5,2.7-3.5c1-0.4,1.8-1.5,1.8-1.5c0.6-1.3-1-1.5-1-1.5c-6.2,0.1-4.6-5.4-4.6-5.4c1.3,1.7,4.8,2.4,4.8,2.4
			c2.8,0.1,3.2,2,3.2,2c0.8,2-1,3.3-1,3.3c-2.3,1.7-3.6,3.3-3.6,3.3c-2.1,3.2-0.3,4.9-0.3,4.9c3.6,3.4,9.5-1.8,9.5-1.8
			c2.4-2.8,6-2.4,6-2.4c2.2-0.3,3.3-1.4,3.3-1.4c2.4-3.2,5.7-2.8,5.7-2.8c1.5-0.2,1.6-0.7,1.6-0.7c1.6-2.6,5.3-3,5.3-3
			c1.8-0.4,3.9-1.9,3.9-1.9c3.1-2.5,7.4,0.6,7.4,0.6c0.8,0.9,1.9,1.7,1.9,1.7c2.5,1.7,3.6,3,3.6,3c0.9,0.9,2,2.3,2,2.3
			c1.5,1.3,2.5,3.2,2.5,3.2c1.5,1.8,1.3,4,1.3,4c0,0.5,0.5,2.2,0.5,2.2c0.2,0.4,0.6,2.4,0.6,2.4c0.8,1.1,0.9,3.2,0.9,3.2
			c1.8,1.4,2.4,3.2,2.4,3.2c0.9,1.4,2.8,2.1,2.8,2.1C114.5,92.3,112.8,89.8,112.8,89.8z M183.4,97.1c0,0-1.4,0.5-2.1-0.7
			c0,0-1.2-2.1-2.2-1.8c0,0-1.8,0.6-3.1-0.7c0,0-1.8-2-4.3-1.6c0,0-2.8,0.6-3.7-0.1c0,0-1.8-0.9-2.5-1.2c0,0-0.8-0.2-0.9-1.1
			c0,0-0.5-1.3-0.9-1.7h1.4c0,0,1.2,2.1,3.3,2.7c0,0,1.1,0.5,3.4,0.1c0,0,3.3-0.7,6.2,2.4c0,0,0.4,0.6,1,0.3c0,0-1.6-2.7-5.1-3.4
			c0,0-1.1-0.2-2.1-0.1c0,0-4.7,0.1-6.9-4.5c0,0,0.2-4-0.8-4.9c0,0-0.4-0.1-0.3,0.6c0,0,0.7,4.1-0.6,5c0,0-0.8,0.6-2.2,0.4
			c0,0-2.2-0.5-4-0.2c0,0-2.7,0.7-5.1,0.4c0,0,0.6-0.9,0.5-2.1c0,0-0.3-0.8-0.7-0.3c0,0-0.9,3-3.4,3.9c0,0-2.2,0.8-2.2,3.6
			c0,0,0.3,0.4,3.3,1.4c0,0,1.1,0.3,1.5-0.5c0,0,1.4-3,2.6-2.9l2.3,0.2c0,0,0.8,0.2,0.2,0.8c0,0-0.8,1.1-1.1,1.7
			c0,0-0.1,0.5-0.8,0.4c0,0-1-0.5-1.6,1.4c0,0-0.5,1-1.4,1.3c0,0-0.8,0.3-1.6-0.2c0,0-3.8-1.4-4.5-1.9c0,0-0.8-0.5-1.5-0.2
			c0,0-1.1,0.3-1.6-0.6l-1.2-1.8c0,0-0.3-0.5-0.2-1c0,0-0.1-0.6,0.4-1.1c0,0,0.4-0.5,0.5-0.8l0.8-2c0,0,0.3-0.5,0.7-0.7l1.1,0.1
			c0,0-0.8,2-1.3,2.8c0,0-0.8,1.2-0.7,1.9c0,0,0.1,0.5,0.3,0.7c0,0,0.3,0.4,0.4,0.6c0,0,0.3,0.7,0.6,0.9c0,0,0.5,0.3,0.6,0.3
			c0,0,0.2,0.1,0.1-0.3c0,0-0.6-1.3-0.6-2c0,0-0.1-0.7,0.4-1.2c0,0,1.2-1.9,1.4-2.5c0,0,0.4-0.8,0.6-0.9c0,0,0.4-0.6-0.3-0.8
			c0,0-1.7-0.4-2-0.6c0,0-0.8-0.3-1.4-2c0,0-0.7-2-0.7-3.3c0,0-1.5,2.8,0.9,5.7c0,0-1.8,0.5-2.6,0c0,0-2.3-0.3-2.7-0.5
			c0,0-0.6-0.1-0.2,0.3c0,0,0.7,1,0.7,1.6c0,0,0,0.5,0.5,0.8c0,0,1.3,0.9,1.4,1.8c0,0,0.3,0.8-0.3,0.6c0,0-0.8-0.4-1.1,0
			c0,0-0.1,0,0.2,0.4c0,0,0.8,0.7,0.8,1.6c0,0-0.1,1.1-0.4,1.4c0,0-0.4,0.5-0.9,0.3c0,0-0.1-0.1-0.4,0c0,0-0.3,0-1-0.2
			c0,0-1.1-0.3-1.5-0.4c0,0-1.4-0.5-2.1-0.5c0,0-0.4,0-1,0.1c0,0-1.7,0.2-2.9-1.1c0,0-0.9-0.7-1.2,0c0,0-2.1,2.8-5.5,2.1
			c0,0,2.7-1.1,3.4-2.6c0,0,0.1-1.3,1.5-3.1c0,0,0.4-0.6,0-0.7c0,0-0.2-0.2-0.8,0.4c0,0-1.4,1.3-1.8,2.5c0,0-1.7,2.5-4.1,1.7
			c0,0,1.9-0.7,2.8-2.1c0,0,0.6-1.8,2.4-3.2c0,0,0.1-2.1,0.9-3.2c0,0,0.4-2,0.6-2.4c0,0,0.5-1.7,0.5-2.2c0,0-0.2-2.2,1.3-4
			c0,0,1-1.9,2.5-3.2c0,0,1.1-1.4,2-2.3c0,0,1.1-1.3,3.6-3c0,0,1.1-0.8,1.9-1.7c0,0,4.3-3.1,7.4-0.6c0,0,2.1,1.5,3.9,1.9
			c0,0,3.7,0.4,5.3,3c0,0,0.1,0.5,1.6,0.7c0,0,3.3-0.4,5.7,2.8c0,0,1.1,1.1,3.3,1.4c0,0,3.6-0.4,6,2.4c0,0,5.9,5.2,9.5,1.8
			c0,0,1.8-1.7-0.3-4.9c0,0-1.3-1.6-3.6-3.3c0,0-1.8-1.3-1-3.3c0,0,0.4-1.9,3.2-2c0,0,3.5-0.7,4.8-2.4c0,0,1.6,5.5-4.6,5.4
			c0,0-1.6,0.2-1,1.5c0,0,0.8,1.1,1.8,1.5c0,0,1.8,0.8,2.7,3.5c0,0,1.9,4.7-2.7,6.5c-2.1,0.4-4.1,0.2-5.9-0.1c0,0,0.3,2.6-0.9,4.9
			c0,0-0.9,1.2,0,2l1.8,1.1c0,0,0.2,0.2,1.1,0.1c0,0,1.1-0.3,1.5,0.2c0,0,0.3,0.9,0.7,1.7c0,0,0.8,1.9,2.2,2.5c0,0,1.1,0.2,1.4,1.2
			c0,0,0.4,0.7,1.1,0.7c0,0,0.5,0.2,0.9,1.3c0,0,0.2,0.8,0.2,1.3C184.9,97,184,96.9,183.4,97.1z M183.8,93.2c0,0-1-1-1.3-1.5
			c0,0-0.4-0.6,0.3-0.8c0.3-0.1,0.7,0,0.9,0.2c0,0,0.9,0.8,1.4,1.1c0,0,0.8,0.3,0.2,0.9C185.3,93.1,184.7,93.8,183.8,93.2z
			 M186,97.1c0.1-0.7-0.6-2.5-0.6-2.5c-0.2-0.4,0.1-0.6,0.1-0.6c0.2-0.2,0.3-0.4,0.6-0.5c1.1-0.5,1.1,1.3,1.1,1.3
			c0,0.7,0.3,1.1,0.3,1.1c0.2,0.4,0.2,0.7,0.2,0.7C187.5,97.4,186,97.1,186,97.1z"/>
	</g>
	<g>
		<path class="st0" d="M108.6,81.3c0,0-1.3-1.7-1.6-2.2c0,0-0.6-0.8-1.2,0.2c0,0-0.1,0.3-0.2,0.5c0,0-0.7,1.5-0.9,1.8
			c0,0-0.1,0.3-0.1,0.5c0,0,0.7,0.1,1.3-1.1c0,0,0.2-0.4,0.4-0.4c0,0,0.1,0.1,0.2,0.3c0,0,0.9,1,1.1,1.2c0.6,0.4,0.5,1.8,0.5,2.4
			c0,0,1.1-0.2,0.8-2.4C108.9,82.1,108.9,81.7,108.6,81.3z"/>
	</g>
	<g>
		<path class="st0" d="M131.3,81c0.6,1.2,1.3,1.1,1.3,1.1c0-0.2-0.1-0.5-0.1-0.5c-0.2-0.3-0.9-1.8-0.9-1.8c-0.1-0.2-0.2-0.5-0.2-0.5
			c-0.6-1-1.2-0.2-1.2-0.2c-0.3,0.5-1.6,2.2-1.6,2.2c-0.3,0.4-0.3,0.8-0.3,0.8c-0.3,2.2,0.8,2.4,0.8,2.4c0-0.6-0.1-2,0.5-2.4
			c0.2-0.2,1.1-1.2,1.1-1.2c0.1-0.2,0.2-0.3,0.2-0.3C131.1,80.6,131.3,81,131.3,81z"/>
	</g>
	<g>
		<path class="st0" d="M57.3,125.7c0-9.5-6.6-12.1-15.5-12.1c-8.8,0-9.2,0-9.2,0v37.9h7.6v-30.7h3.6c0,0,5.6-0.3,5.6,4.9
			c0,5.1-5,5-5,5h-1.8v8.7l7.6,12.1h9L48.5,136C48.5,136,57.3,135.2,57.3,125.7z"/>
	</g>
	<g>
		<path class="st0" d="M71.4,127.7c-12.2,0-12.4,11.3-12.3,12.7c0,1.3,0.2,11.9,13,11.9c4.1,0,7.8-1.7,10.5-5.8l-5.9-2.9
			c0,0-1.6,3-4.7,3s-5.4-2.4-5.4-5.1h16.6v-1.9C83.2,139.6,83.7,127.7,71.4,127.7z M66.7,137.2c0,0,0.5-4.3,4.6-4.3
			c4.1,0,4.5,4.3,4.5,4.3H66.7z"/>
	</g>
	<g>
		<rect x="192.6" y="112.9" class="st0" width="7.1" height="38.6"/>
	</g>
	<g>
		<rect x="180.3" y="112.9" class="st0" width="7.2" height="38.6"/>
	</g>
	<g>
		<path class="st0" d="M104.3,112.9v17.5c0,0-3.5-2.7-7.6-2.7c-4,0-10.9,2.8-10.9,11.8s5.8,12.4,10.8,12.4s7.8-3.3,7.8-3.3v2.9h7.2
			v-38.6L104.3,112.9L104.3,112.9z M98.7,145.6c-0.4,0-5.1,0.1-5.1-5.8c0-5.8,5.2-6,5.2-6s5.8,0.2,5.8,5.9
			C104.6,145.4,99.1,145.6,98.7,145.6z"/>
	</g>
	<g>
		<path class="st0" d="M176,129h-7.4v12.9c0,0,0.1,4.4-4,4.4c-4.1,0-4.4-4.4-4.4-4.4v-13h-7.3c0,0,0,11.4-0.1,13
			c0,1.6-0.3,10.8,11.9,10.8c12.2,0,11.3-10.4,11.3-10.4V129z"/>
	</g>
	<g>
		<path class="st0" d="M144.4,131.4c0,0,3.3-2.6,3.3-7.5c0-4.9-3.6-9.4-11.2-9.4s-12.8,0-12.8,0v37.1h15.8c0,0,11.3-0.1,11.3-10.3
			C150.8,135.3,148.5,133,144.4,131.4z M138.2,145.1h-6.9v-24.2h3.7c0,0,5-0.4,5,4c0,4.3-4,4-4,4h-2.3v6.5c0,0,3.3,0,4.5,0
			s4.9,0.6,4.9,4.8C143.1,144.5,138.2,145.1,138.2,145.1z"/>
	</g>
</g>
</svg>
