<?xml version="1.0" encoding="utf-8"?>
<!-- Generator: Adobe Illustrator 22.0.1, SVG Export Plug-In . SVG Version: 6.00 Build 0)  -->
<svg version="1.1" id="Layer_1" xmlns="http://www.w3.org/2000/svg" xmlns:xlink="http://www.w3.org/1999/xlink" x="0px" y="0px"
	 viewBox="0 0 240.7 216" style="enable-background:new 0 0 240.7 216;" xml:space="preserve">
<style type="text/css">
	.st0{fill:none;}
	.st1{fill:#FFFFFF;}
</style>
<g>
	<path class="st0" d="M103.2,94.7c0.6-0.5,0.9-1.3,1-2.4c0-0.9-0.3-1.6-0.9-2.2c-0.6-0.5-1.4-0.8-2.4-0.8H90.1v6.2h10.7
		C101.8,95.5,102.6,95.3,103.2,94.7z"/>
	<path class="st1" d="M60,93.8c0,5.2-3.1,7.8-7.9,9.1c4.9-1.2,8-3.9,8-9.2c0-4.3-2.4-7.2-4.3-8.8H27.1V85h28.6
		C57.6,86.6,60,89.5,60,93.8z"/>
	<path class="st1" d="M27.1,130.4h37.3c-10.5-7.3-22.5-11.8-37.3-13.7V130.4z"/>
	<path class="st1" d="M50.8,108.1c6.8,2.4,14.3,6.1,21.7,11.4V84.9H62.4c1.7,2.6,2.7,5.9,2.7,9.2C65,101.5,58.6,107.8,50.8,108.1z"
		/>
	<path class="st1" d="M27.2,102.8c9.4,0.8,18.6,1.7,24.9,0.1C57,101.6,60,99,60,93.8c0-4.3-2.4-7.2-4.3-8.8H27.1L27.2,102.8
		c-0.1,0.1,0,0.1,0,0.1V102.8z"/>
	<path class="st1" d="M27.1,111.8c18.9,1.5,36.1,10.6,45.5,18.6v-4.7c-21.2-16.8-45.5-17.9-45.5-17.9V111.8z"/>
	<path class="st1" d="M164.6,108.4L154.1,85h-5.9h-1.9v0.6c0.7,0.2,1,0.6,1,1.1c0,0.3-0.1,0.8-0.4,1.3l-9.2,20.4h4.8l2.3-5.1h12.6
		l2.3,5.1H164.6z M146.9,98.8l4.3-9.6l4.3,9.6H146.9z"/>
	<path class="st1" d="M190.6,86.7v21.6h22.1v-4.5h-17.3v-5.1h11.5v-4.5h-11.5v-4.8h16.6v-4.5h-21.4h-1.1v0.5
		c0.4,0.1,0.7,0.3,0.9,0.4C190.4,86.1,190.6,86.4,190.6,86.7z"/>
	<path class="st1" d="M113.8,86.7v21.6h22.1v-4.5h-17.3v-5.1h-0.1h0.1h11.4v-4.5h-11.5v-4.8h16.6v-4.5h-21.3h-1.1v0.6
		c0.4,0.1,0.7,0.3,0.9,0.4C113.8,86.1,113.8,86.4,113.8,86.7z"/>
	<path class="st1" d="M167.2,86.7v21.6h19.9v-4.5H172V84.9h-4.8h-1.1v0.5c0.4,0.1,0.7,0.3,0.9,0.4C167.1,86.1,167.2,86.4,167.2,86.7
		z"/>
	<path class="st1" d="M85.3,86.7v21.6h4.8v-8.2h9l4.8,8.3h5.4l-5-8.7c3-1,4.5-3.4,4.5-7.1c0-2.3-0.7-4.1-2-5.6
		c-1.4-1.4-3.2-2.1-5.4-2.1H85.3h-1.1v0.6c0.4,0.1,0.7,0.3,0.9,0.4C85.3,86.1,85.3,86.4,85.3,86.7z M90.1,89.3h10.8
		c1,0,1.8,0.3,2.4,0.8c0.6,0.6,0.9,1.3,0.9,2.2c-0.1,1.1-0.4,1.9-1,2.4c-0.6,0.6-1.4,0.8-2.4,0.8H90.1V89.3z"/>
	<path class="st1" d="M98.6,122.5c-0.9-0.7-2.4-1.2-4.5-1.4c-0.4-0.1-1.4-0.1-2.8-0.2c-1-0.1-1.7-0.2-2.2-0.3
		c-0.7-0.2-1.1-0.6-1.1-1.1c0-1.1,1.4-1.6,4.1-1.6c1.6,0,3.1,0.3,4.5,1c0.4,0.2,0.7,0.6,0.7,0.8c0,0.1,0,0.1,0,0.2l0.3,0.2l2.1-3
		c-1.9-1.6-4.4-2.3-7.6-2.3c-2.3,0-4.1,0.4-5.4,1.3c-1.3,0.8-1.9,2.1-1.9,3.6s0.7,2.6,1.9,3.3c1.2,0.7,3.1,1.1,5.7,1.2
		c1.8,0.1,2.8,0.2,3.3,0.3c0.8,0.2,1.2,0.6,1.2,1.2c0,0.7-0.3,1.2-1,1.6c-0.7,0.4-1.7,0.6-3,0.6c-2.4,0-4.7-0.8-6.9-2.4l-1.7,2.5
		c2.3,1.9,5.1,2.9,8.4,2.9c2.4,0,4.3-0.5,5.6-1.4c1.3-0.9,1.9-2.2,1.9-3.9C100.2,124.1,99.7,123,98.6,122.5z"/>
	<path class="st1" d="M106.7,124.3h7.6v-3h-7.6v-3.2h10.9v-3h-14.8v0.4c0.3,0.1,0.5,0.2,0.6,0.3c0.1,0.1,0.1,0.3,0.1,0.5v14.3h14.6
		v-2.9h-11.4V124.3z"/>
	<path class="st1" d="M127.4,124.8h6.3c-0.5,1-1.2,1.7-2.2,2.3c-1.1,0.6-2.2,0.9-3.5,0.9c-1.5,0-2.7-0.5-3.8-1.3
		c-1.3-1-1.9-2.3-1.9-3.9c0-1.5,0.6-2.7,1.6-3.7s2.4-1.5,4.1-1.5c1,0,1.9,0.3,2.7,0.7c0.5,0.2,0.8,0.5,0.9,0.8c0,0.2,0,0.4-0.1,0.5
		c0,0.1,0,0.1-0.1,0.2l0.1,0.3l4.1-1.8c-1.7-2.5-4.2-3.7-7.6-3.7c-2.6,0-4.8,0.9-6.6,2.6c-1.5,1.5-2.2,3.4-2.2,5.6
		c0,2.2,0.7,4.1,2.2,5.6c1.7,1.7,3.9,2.6,6.6,2.6c2.8,0,5.1-0.8,6.8-2.5c1.5-1.5,2.3-3.4,2.3-5.8h0.1v-0.9h-9.8V124.8z"/>
	<path class="st1" d="M147.7,131.1c0.6,0,1.2,0,1.7-0.1H146C146.6,131.1,147.1,131.1,147.7,131.1z"/>
	<path class="st1" d="M155.5,115.1h-3.2v9.8c0,1-0.4,1.7-1.2,2.3c-0.9,0.6-2,0.9-3.5,0.9s-2.7-0.3-3.5-0.9c-0.8-0.6-1.2-1.3-1.2-2.3
		v-9.8H139v0.4c0.3,0.1,0.5,0.2,0.6,0.3c0.1,0.1,0.2,0.3,0.2,0.5v9.1c0,1.7,0.7,3.1,2.1,4.1c1.1,0.8,2.5,1.3,4.1,1.5h3.5
		c1.6-0.2,2.9-0.7,4.1-1.5c1.4-1.1,2.1-2.4,2.1-4.1h-0.1V115.1z"/>
	<path class="st1" d="M175.2,120.1c0-1.5-0.4-2.7-1.3-3.6c-0.9-0.9-2.1-1.4-3.6-1.4h-11.4v0.4c0.3,0.1,0.5,0.2,0.6,0.3
		c0.2,0.1,0.2,0.3,0.2,0.5v14.3h3.2v-5.5h6l3.2,5.5v-0.1h3.4l-3.3-5.7C174.2,124.1,175.2,122.6,175.2,120.1z M171.6,121.6
		c-0.4,0.4-0.9,0.6-1.6,0.6h-7.1v-4.1h7.1c0.7,0,1.2,0.2,1.6,0.6c0.4,0.3,0.6,0.8,0.6,1.4S172.1,121.2,171.6,121.6z"/>
	<path class="st1" d="M186.6,114.6c-2.7,0-4.9,0.9-6.6,2.6c-1.4,1.5-2.2,3.3-2.2,5.6c0,2.3,0.7,4.2,2.2,5.7c1.7,1.6,3.9,2.5,6.6,2.5
		s4.9-0.8,6.6-2.5c1.5-1.5,2.2-3.4,2.2-5.7c0-2.2-0.8-4.1-2.2-5.6C191.4,115.5,189.2,114.6,186.6,114.6z M190.6,126.6
		c-1,0.9-2.4,1.4-4.1,1.4s-3.1-0.4-4.1-1.4s-1.5-2.2-1.5-3.8c0-1.6,0.5-2.8,1.5-3.8c1.1-1,2.4-1.5,4.1-1.5c1.7,0,3.1,0.5,4.1,1.5
		s1.5,2.3,1.5,3.8C192.1,124.4,191.6,125.7,190.6,126.6z"/>
	<polygon class="st1" points="213.5,125.6 213.5,125.6 213.6,125.6 	"/>
	<path class="st1" d="M211.9,122.5c-0.9-0.7-2.4-1.2-4.5-1.4c-0.4-0.1-1.3-0.1-2.8-0.2c-1-0.1-1.7-0.2-2.2-0.3
		c-0.7-0.2-1.1-0.6-1.1-1.1c0-1.1,1.4-1.6,4.1-1.6c1.6,0,3.1,0.3,4.5,1c0.4,0.2,0.7,0.6,0.7,0.8c0,0.1,0,0.1,0,0.2l0.3,0.2l2.1-3
		c-1.9-1.6-4.4-2.3-7.6-2.3c-2.3,0-4.1,0.4-5.4,1.3c-1.3,0.8-1.9,2.1-1.9,3.6s0.7,2.6,1.9,3.3c1.2,0.7,3.1,1.1,5.7,1.2
		c1.8,0.1,2.9,0.2,3.3,0.3c0.8,0.2,1.2,0.6,1.2,1.2c0,0.7-0.3,1.2-1,1.6c-0.7,0.4-1.7,0.6-3,0.6c-2.4,0-4.7-0.8-6.9-2.4l-1.7,2.5
		c2.3,1.9,5.1,2.9,8.4,2.9c2.4,0,4.3-0.5,5.6-1.4c1.3-0.9,1.9-2.2,1.9-3.9v0C213.5,124.1,213,123,211.9,122.5z"/>
</g>
</svg>
