<?xml version="1.0" encoding="utf-8"?>
<!-- Generator: Adobe Illustrator 22.0.1, SVG Export Plug-In . SVG Version: 6.00 Build 0)  -->
<svg version="1.1" xmlns="http://www.w3.org/2000/svg" xmlns:xlink="http://www.w3.org/1999/xlink" x="0px" y="0px"
	 viewBox="0 0 240.7 216" style="enable-background:new 0 0 240.7 216;" xml:space="preserve">
<style type="text/css">
	.st0{fill:#FFFFFF;}
	.st1{display:none;}
	.st2{display:inline;}
	.st3{fill:#231F20;}
	.st4{fill:#EB272B;}
	.st5{fill:none;stroke:#081217;stroke-width:0.2444;stroke-linejoin:round;stroke-miterlimit:3.864;}
	.st6{fill:#DD9762;}
	.st7{fill:none;stroke:#081217;stroke-width:0.211;stroke-miterlimit:3.864;}
	.st8{fill:none;stroke:#081217;stroke-width:0.1831;stroke-linejoin:round;stroke-miterlimit:3.864;}
	.st9{clip-path:url(#SVGID_2_);fill:#EB272B;}
	.st10{clip-path:url(#SVGID_4_);fill:none;stroke:#081217;stroke-width:0.2444;stroke-linejoin:round;stroke-miterlimit:3.864;}
	.st11{clip-path:url(#SVGID_6_);fill:#F6EA63;}
	.st12{clip-path:url(#SVGID_8_);fill:none;stroke:#081217;stroke-width:0.2444;stroke-linejoin:round;stroke-miterlimit:3.864;}
	.st13{fill:none;stroke:#081217;stroke-width:0.211;stroke-linejoin:round;stroke-miterlimit:3.864;}
	.st14{fill:none;stroke:#081217;stroke-width:0.1055;stroke-miterlimit:3.864;}
	.st15{fill:#081217;}
	.st16{fill:#F6EA63;}
</style>
<g id="Layer_1">
	<g>
		<g>
			<path class="st0" d="M82.5,156.7c2.6-0.4,4.8-2.2,5.7-5.1c0.7-2.2,0.2-4.8-0.5-5.9c-1.2-2.2-3.5-4.4-6.7-4.4H56.6v26.2h9.5v-10.2
				h5.8c2.1,3.5,4.2,6.9,6.1,10.2h9.7l0.5-1.1L82.5,156.7z M75.4,151.1H66v-3.6h9.4c1.5,0,2.5,0.5,2.5,1.8
				C77.9,150.5,77,151.1,75.4,151.1z"/>
		</g>
		<g>
			<path class="st0" d="M98.8,141.3l-10.6,25.1l0.6,1.1h8.7l1-2.7h11.3l1.1,2.7h10.2l-10.6-26.2H98.8z M101,158.3l3-8.3l3.1,8.3H101
				z"/>
		</g>
		<g>
			<polygon class="st0" points="87.7,167.5 88.8,167.5 88.2,166.4 			"/>
		</g>
		<g>
			<path class="st0" d="M140.2,160.4c-2.5,1.9-6.5,1.2-8.1,0.2c-1.4-0.8-2.9-3.2-2.8-5.4c-0.2-2.5,0.1-5,2.7-6.9
				c2.1-1.5,5.6-1.1,7.5-0.1c1,0.4,2.3,1.8,2.3,2.9l10.6-0.7c0-3.2-3.1-6.6-6.3-7.8c-4.8-2.4-15.3-2.7-20.1-0.1
				c-4.3,1.4-6.8,6.7-7,9.9c-0.7,3.9,0.9,10,4.3,12.4c5.6,4.2,16.3,4.1,21.9,2.2c3.6-1.1,7-4.3,7.5-8.4l-10.7-0.8
				C141.7,159,141,159.7,140.2,160.4z"/>
		</g>
		<g>
			<polygon class="st0" points="164.1,161.2 164.1,157.5 179.6,157.5 179.6,151.3 164.1,151.3 164.1,147.6 182.9,147.6 182.9,141.3 
				154.6,141.3 154.6,167.4 184.1,167.4 184.1,161.2 			"/>
		</g>
		<g>
			<g>
				<path class="st0" d="M128.2,81.4c1,0.4,1.9,0.8,2.8,1.2c7.5,3.9,12.6,11.8,12.6,20.8s-5.1,16.9-12.6,20.8
					c-0.9,0.5-1.8,0.9-2.8,1.2c-2.5,0.9-5.2,1.4-8.1,1.4l0,0h0c-3.9,0-7.6-1-10.9-2.7c-7.5-3.9-12.6-11.8-12.6-20.8
					c0-10.4,6.7-19.1,16-22.3l-0.8-1.4l-2.6,1.1l-1.7-2.3l-2.5,1.5l1.1,2.6l-2.4,1.8l-2.2-1.8l-2,2.1l1.8,2.2l-1.9,2.4l-2.6-1.1
					l-1.4,2.5l2.2,1.6l-1.1,2.9l-2.8-0.5l-0.8,2.8l2.7,1l-0.4,3.1l-2.8,0.3v2.9l2.8,0.3l0.4,3l-2.7,1l0.8,2.8l2.8-0.4l1.1,2.8
					l-2.2,1.6l1.4,2.6l2.6-1.2l1.9,2.4l-1.8,2.2l2,2.1l2.2-1.8l2.4,1.9l-1.1,2.6l2.5,1.4l1.7-2.3l2.8,1.2l-0.4,2.8l2.8,0.7l1-2.6
					l3,0.4l0.3,2.8h2.9l0.3-2.8l3-0.4l1,2.6l2.8-0.7l-0.4-2.8l2.8-1.2l1.7,2.3l2.5-1.4l-1.1-2.6l2.4-1.9l2.2,1.8l2-2.1l-1.8-2.2
					l1.9-2.4l2.6,1.2l1.4-2.6l-2.2-1.6l1.1-2.8l2.8,0.4l0.8-2.8l-2.7-1l0.4-3l2.8-0.3v-2.9l-2.8-0.3l-0.4-3.1l2.7-1l-0.8-2.8
					l-2.8,0.5l-1.1-2.9l2.2-1.6l-1.4-2.5l-2.6,1.1l-1.9-2.4l1.8-2.2l-2-2.1l-2.2,1.8l-2.4-1.8l1.1-2.6l-2.5-1.5l-1.7,2.3l-2.8-1.2
					l0-0.1l-0.9,1.5C127.7,81.2,127.9,81.3,128.2,81.4z"/>
			</g>
			<g>
				<path class="st0" d="M128.7,77.1l-2.8-0.8l-1,2.6l-3-0.4l-0.3-2.8h-2.9l-0.3,2.8l-3,0.4l-1-2.6l-2.8,0.8l0.4,2.7l-0.2,0.1
					l0.8,1.4c2.4-0.8,4.9-1.2,7.5-1.2h0l0,0c2.6,0,5,0.4,7.4,1.2l0.9-1.5L128.7,77.1z"/>
			</g>
			<g>
				<path class="st0" d="M120.1,127c2.8,0,5.6-0.5,8.1-1.4C125.7,126.5,122.9,127,120.1,127L120.1,127z"/>
			</g>
			<g>
				<path class="st0" d="M96.6,103.5c0-9,5.1-16.9,12.6-20.8c1.1-0.6,2.2-1.1,3.4-1.4l0,0C103.3,84.3,96.6,93.1,96.6,103.5z"/>
			</g>
			<g>
				<path class="st0" d="M120.1,80L120.1,80c-2.6,0-5.2,0.4-7.5,1.2l0,0C114.9,80.4,117.5,80,120.1,80z"/>
			</g>
			<g>
				<path class="st0" d="M133.1,121.8c-0.6,0.4-1.4,0.4-2.1,0.3v0c0.8,0.2,1.7,0.2,2.3-0.2c0.2-0.2,0.4-0.3,0.5-0.5h-0.3
					C133.4,121.5,133.3,121.6,133.1,121.8z"/>
			</g>
			<g>
				<path class="st0" d="M107.4,121.8c0.3,0.2,0.7,0.2,1,0.1c0,0,0,0,0.1,0c-0.2,0-0.4,0-0.6-0.2c-0.1-0.1-0.1-0.2-0.1-0.3v0.2h-0.5
					C107.3,121.6,107.3,121.7,107.4,121.8z"/>
			</g>
			<g>
				<path class="st0" d="M107.7,122.7C107.7,122.7,107.7,122.7,107.7,122.7c0.1,0,0.3,0,0.4,0c0.5-0.1,0.6-0.1,1.1-0.3v-0.2
					C108.3,122.6,108.3,122.6,107.7,122.7z"/>
			</g>
			<g>
				<path class="st0" d="M130.2,121.8c-0.6,0-0.3,0.8-0.6,1.2c-0.2,0.8-0.8,1.4-1.6,1.9c-0.7,0.3-1.5,0.4-2.2,0.2
					c0.7,0.4,1.7,0.3,2.4-0.1c0.8-0.5,1.4-1.1,1.6-1.9c0.3-0.4,0-1.2,0.6-1.2c0.2,0.1,0.4,0.2,0.6,0.2v0
					C130.7,122,130.4,121.9,130.2,121.8z"/>
			</g>
			<g>
				<path class="st0" d="M113.8,123.3c0.2,0.6-0.2,1-0.6,1.3c-0.2,0.1-0.5,0.2-0.8,0.2c0.4,0,0.9,0,1.2-0.2c0.4-0.3,0.8-0.7,0.6-1.3
					c-0.1-0.4-0.5-0.6-1-0.5C113.5,122.8,113.7,123,113.8,123.3z"/>
			</g>
			<g>
				<path class="st0" d="M126.7,123.5c0.3,0.6-0.6,1.1,0.1,1.4c-0.4-0.3,0.3-0.7,0.1-1.3c-0.1-0.3-0.2-0.4-0.4-0.4
					C126.6,123.2,126.7,123.3,126.7,123.5z"/>
			</g>
			<g>
				<path class="st0" d="M110.5,122.3c0.2,0.7,0.4,1.8,1.4,1.8c0,0,0,0,0-0.1c-0.7-0.2-0.9-1.1-1-1.7c-0.1-0.2-0.1-0.4-0.1-0.8h-0.4
					C110.4,121.9,110.4,122,110.5,122.3z"/>
			</g>
			<g>
				<path class="st0" d="M109.2,122.1v0.2c0.1-0.1,0.3-0.2,0.5-0.3c0-0.1,0-0.1,0-0.2C109.5,122,109.3,122.1,109.2,122.1z"/>
			</g>
			<g>
				<path class="st0" d="M107.4,120.3c0.1,0.2,0.3,0.5,0.1,0.8c0,0.1-0.1,0.1-0.1,0.2h0.4c0-0.1,0.1-0.3,0.2-0.4
					c0.2-0.3,0-0.6-0.1-0.8c-0.1-0.1-0.3-0.3-0.6-0.2c-0.2,0-0.3,0.1-0.5,0.2C107.1,120,107.3,120.2,107.4,120.3z"/>
			</g>
			<g>
				<path class="st0" d="M132.7,121.3L132.7,121.3C132.7,121.3,132.8,121.3,132.7,121.3L132.7,121.3z"/>
			</g>
			<g>
				<path class="st0" d="M134.1,120.2c0,0.4-0.2,0.8-0.5,1.1h0.1C134,121,134.2,120.7,134.1,120.2c-0.1-0.4-0.2-0.8-0.7-1
					c-0.1,0-0.2,0-0.3,0c0.1,0,0.1,0,0.2,0C133.8,119.4,134,119.8,134.1,120.2z"/>
			</g>
			<g>
				<path class="st0" d="M132.3,117.7c-0.5,0.1-0.9,0.2-1.3,0.2v0c0.4,0,0.9-0.1,1.4-0.2c0.3,0,0.5-0.1,0.7-0.2h-0.3
					C132.7,117.5,132.5,117.6,132.3,117.7z"/>
			</g>
			<g>
				<path class="st0" d="M131.1,121.2c0.1,0,0.1,0.1,0.2,0.1C131.2,121.3,131.2,121.2,131.1,121.2z"/>
			</g>
			<g>
				<path class="st0" d="M130.1,117.9c0.2,0,0.5,0,0.9,0v0C130.7,117.9,130.4,117.9,130.1,117.9z"/>
			</g>
			<g>
				<path class="st0" d="M131,121.1c-0.8-0.7-1-2.2-1.3-3.2c-0.1,0-0.1,0-0.1,0C129.8,118.9,130.1,120.4,131,121.1z"/>
			</g>
			<g>
				<path class="st0" d="M120.8,117.4c0,0-0.1,0.1-0.1,0.1L120.8,117.4L120.8,117.4z"/>
			</g>
			<g>
				<path class="st0" d="M110.8,121.4c0-0.6,0.2-1.6,0.7-4h-0.3c-0.5,2.3-0.7,3.4-0.8,4H110.8z"/>
			</g>
			<g>
				<path class="st0" d="M119.6,117.9c0.3,0,0.7-0.1,1-0.3c0,0,0-0.1,0.1-0.1h-0.3c-0.1,0.1-0.2,0.1-0.3,0.2
					C120,117.8,119.8,117.8,119.6,117.9z"/>
			</g>
			<g>
				<path class="st0" d="M106.3,116.5c-0.4,0.2-0.7,0.4-1,0.4c0.5,0,1-0.2,1.6-0.5c1.2-0.8,1.4-1.5,1.6-1.9
					C107.6,114.1,108.2,115.1,106.3,116.5z"/>
			</g>
			<g>
				<path class="st0" d="M136.8,109.9c0.3,1.3,0.5,2.9-0.2,4.1c-0.1,0.9-0.8,1.4-1.3,2c-0.7,0.6-1.4,1.1-2.2,1.4h0.3
					c-0.1,0-0.2,0.1-0.3,0.1h0.4c0.7-0.3,1.4-0.8,2.1-1.3c0.5-0.6,1.2-1.1,1.3-2c0.6-1.1,0.4-2.8,0.2-4.1c-0.4-1-1.1-1.8-2-2.3
					C135.8,108.3,136.4,109,136.8,109.9z"/>
			</g>
			<g>
				<path class="st0" d="M104.3,114.1c0.1,0.4,0,0.6-0.5,0.9c-0.2,0.1-0.5,0.2-0.5,0.4c0,0.6,0.6,0.9,1.1,1.1c0.3,0.1,0.6,0,0.9-0.1
					c-0.1,0-0.2,0-0.3,0c-0.5-0.2-1.1-0.5-1.1-1.1c0-0.2,0.3-0.3,0.5-0.4c0.5-0.3,0.6-0.5,0.5-0.9c-0.2-0.2-0.2-0.4-0.6-0.5
					c-0.4-0.1-0.6-0.1-0.8,0.1c0.1,0,0.1,0,0.2,0C104.1,113.7,104.1,113.9,104.3,114.1z"/>
			</g>
			<g>
				<path class="st0" d="M132.9,111.9c-0.4,0.4-0.8,0.6-1.4,0.5c-0.1,0-0.2-0.1-0.4-0.1c0.2,0.1,0.4,0.3,0.7,0.3
					c0.6,0.1,1-0.1,1.4-0.5c0.1-0.3,0.2-0.5,0-0.8c-0.1-0.1-0.2-0.2-0.3-0.2c0,0,0,0,0,0C133,111.4,132.9,111.6,132.9,111.9z"/>
			</g>
			<g>
				<path class="st0" d="M131.8,108.7c0.5-0.4,1.3-0.4,2-0.3c0.1,0.1,0.2,0.1,0.3,0.2c-0.2-0.1-0.4-0.3-0.6-0.4
					c-0.7-0.1-1.5-0.1-2,0.3c-0.2,0.1-0.4,0.3-0.5,0.6v1.4C131,109.8,131.3,109.1,131.8,108.7z"/>
			</g>
			<g>
				<path class="st0" d="M131.2,111.3c-0.1-0.2-0.1-0.5-0.2-0.8v0.7C131.1,111.2,131.1,111.2,131.2,111.3z"/>
			</g>
			<g>
				<path class="st0" d="M107.1,107.4c0,0.1,0.1,0.2,0.1,0.3l-0.5-0.1c0.7,2.6,1.6,6,1.9,6.8c0.1-0.1,0.3-0.1,0.6,0.1
					C109.2,114.5,108,110.4,107.1,107.4L107.1,107.4z"/>
			</g>
			<g>
				<path class="st0" d="M113.9,110.1c0.2,0.6,1.9,6.9,4.9,7.1c0.5,0,0.8,0,1.1-0.1c-0.2,0-0.4,0-0.6,0c-3-0.2-4.7-6.5-4.9-7.1
					c-0.4-1-0.5-1.4-0.5-1.6l-0.5,0C113.4,108.4,113.5,108.7,113.9,110.1z"/>
			</g>
			<g>
				<path class="st0" d="M121.1,115.7C121.1,115.7,121.1,115.7,121.1,115.7C121.1,115.8,121.1,115.8,121.1,115.7
					c0.1,0.4,0.1,0.8-0.2,1.1c0,0,0,0,0,0c-0.1,0.2-0.2,0.4-0.4,0.6h0.3c0.5-0.4,0.8-1,0.8-1.8c0-0.5-0.2-0.8-0.5-1.1
					c-0.3-0.4-0.7-0.6-1.1-0.4c0,0-0.1,0-0.1,0.1c0.3,0,0.5,0.2,0.7,0.4C120.9,115,121.1,115.2,121.1,115.7z"/>
			</g>
			<g>
				<path class="st0" d="M129.8,117.2c-0.2-0.8-1.4-5-2.7-9.6h-0.3c1.4,4.9,2.7,9.5,2.7,9.5C129.6,117.2,129.7,117.2,129.8,117.2z"
					/>
			</g>
			<g>
				<path class="st0" d="M131,111.2v-0.7V109c-0.2,0.4-0.3,0.8-0.3,1.2C130.8,110.6,130.7,111,131,111.2z"/>
			</g>
			<g>
				<path class="st0" d="M112.4,112.5c-0.2,0.7-0.5,1.8-0.5,1.8s-0.3,1.1-0.4,1.6c-0.1,0.6-0.2,1-0.3,1.5h0.3c0.1-0.5,0.2-1,0.4-1.6
					c0.1-0.5,0.4-1.6,0.4-1.6s0.3-0.9,0.4-1.6c-0.1-0.2-0.2-0.3-0.2-0.5L112.4,112.5z"/>
			</g>
			<g>
				<path class="st0" d="M133.1,117.4c-0.1,0-0.2,0.1-0.3,0.1L133.1,117.4c0.1,0.1,0.2,0,0.3,0H133.1z"/>
			</g>
			<g>
				<path class="st0" d="M131.1,95.3C131.1,95.3,131.1,95.3,131.1,95.3c0,0,0-0.1-0.1-0.1v0.1C131,95.3,131.1,95.3,131.1,95.3z"/>
			</g>
			<g>
				<path class="st0" d="M131.3,90.2c0.8,0.1,1.5,0.6,2.1,1.1c-0.6-0.6-1.3-1-2.2-1.2c-0.1,0-0.1,0-0.2,0v0.1
					C131.1,90.2,131.2,90.2,131.3,90.2z"/>
			</g>
			<g>
				<path class="st0" d="M133.4,89.4c0.6,0.2,1,0.6,1.5,1c0.3,0.5,0.8,1,0.9,1.6c0,0,0.3,0.6,0.3,0.9c0.2,1.1,0.3,2.3-0.2,3.6
					c-0.5,1.2-1.1,1.9-2.2,2.4c-1,0.5-1.9,0.5-2.7,0.1v0c0.9,0.5,1.8,0.5,2.8,0c1.1-0.5,1.7-1.2,2.2-2.4c0.5-1.3,0.4-2.5,0.2-3.6
					c0-0.4-0.3-1-0.3-1c-0.1-0.6-0.6-1.1-0.9-1.6C134.5,90,134.1,89.6,133.4,89.4c-0.8-0.5-1.6-0.7-2.4-0.7v0
					C131.8,88.7,132.6,88.9,133.4,89.4z"/>
			</g>
			<g>
				<path class="st0" d="M132.9,95.7c-0.1,0.4-0.4,0.6-0.8,0.6c-0.3,0-0.5-0.1-0.7-0.3c0,0,0,0,0,0c0.2,0.2,0.4,0.4,0.8,0.4
					C132.6,96.4,132.9,96.2,132.9,95.7c0.3-0.5,0.1-0.9-0.2-1.1C132.9,94.8,133.1,95.1,132.9,95.7z"/>
			</g>
			<g>
				<path class="st0" d="M109.2,90.2V90c-0.6-0.1-1.2-0.1-1.8,0.1C108,90,108.6,90,109.2,90.2z"/>
			</g>
			<g>
				<path class="st0" d="M108.1,102.9c-0.2,0.2,0.2,0.4,0.3,0.5c0.3,0.1,0.5,0.2,0.8,0.3v-0.4c-0.1,0-0.1-0.1-0.2-0.1
					c-0.1-0.1-0.5-0.3-0.3-0.5c0.1-0.2,0.3-0.3,0.5-0.5v-0.5C108.8,102.2,108.4,102.6,108.1,102.9z"/>
			</g>
			<g>
				<path class="st0" d="M107.2,103.7c-0.4,0.4-1.4,0.8-1.4,0.8c0.1,0.3,0.4,1.4,0.8,2.9h0.5c-0.4-1.4-0.7-2.4-0.8-2.7
					c0,0,1-0.4,1.4-0.8c0.1-0.1,0.3-0.1,0.4-0.1C107.8,103.6,107.6,103.5,107.2,103.7z"/>
			</g>
			<g>
				<path class="st0" d="M102.9,96.1c-0.7-0.2-1.1-0.1-1.4,0c0.3,0,0.7,0.1,1.3,0.2C102.9,96.3,102.9,96.2,102.9,96.1z"/>
			</g>
			<g>
				<path class="st0" d="M112.5,106.6l0.4,0.7l0.2-0.8c-1-1.5-2.2-2.5-3.9-3.1v0.4C110.6,104.3,111.7,105.2,112.5,106.6z"/>
			</g>
			<g>
				<path class="st0" d="M121.3,84.5c-0.2,0.6-0.2,1.4-0.1,2.2c0.2,0.4,1.8,6.5,1.8,6.5c0,0,0.1-0.1,0.1-0.1c-0.2-0.7-1.6-6-1.8-6.4
					c-0.1-0.8-0.1-1.6,0.1-2.2c0.2-0.4,0.9-1.2,1.3-1.5l-0.1,0C122.2,83.3,121.5,84.1,121.3,84.5z"/>
			</g>
			<g>
				<path class="st0" d="M123.6,95.9c0,0,0.2-0.8,0.8-1.5c2.8-3.2,4.5-4.4,6.6-4.2v-0.1c-2.2-0.2-3.9,0.9-6.7,4.2
					C123.7,95,123.5,95.8,123.6,95.9c0,0.3,1.6,6.2,3.2,11.7h0C125.3,102.1,123.7,96.3,123.6,95.9z"/>
			</g>
			<g>
				<path class="st0" d="M131,88.6c-0.1,0-0.3,0-0.4,0C130.7,88.6,130.9,88.6,131,88.6L131,88.6z"/>
			</g>
			<g>
				<path class="st0" d="M130.4,98.6c-0.1-0.1-0.2-0.2-0.3-0.3c0.1,0.1,0.3,0.2,0.4,0.4c0.2,0.1,0.3,0.2,0.5,0.3v0
					C130.8,98.8,130.6,98.7,130.4,98.6z"/>
			</g>
			<g>
				<path class="st0" d="M111,91.6c0.4,0.6,0.5,1,0.8,1.6c0.3,1,0.4,1.6,0.4,2.6c0,1.2-0.3,1.8-0.7,2.9c-0.5,1.2-1.5,2.3-2.3,3.1
					v0.5c0.9-0.9,2.2-2.1,2.9-3.7c0.4-1.1,0.7-1.7,0.7-2.9c0-1-0.1-1.6-0.4-2.6c-0.3-0.6-0.4-1-0.8-1.6c-0.7-0.9-1.5-1.4-2.4-1.5
					v0.3C109.9,90.5,110.5,90.9,111,91.6z"/>
			</g>
			<g>
				<path class="st0" d="M130.2,96.2c0.2-0.5,0.5-1,0.8-0.9v-0.1c-0.4-0.2-0.7,0.4-0.9,0.9c-0.2,0.5,0.1,0.9,0.4,1.4
					c0.1,0.2,0.3,0.3,0.4,0.4c-0.1-0.1-0.2-0.2-0.3-0.3C130.3,97.1,130,96.7,130.2,96.2z"/>
			</g>
			<g>
				<path class="st0" d="M122.7,82.8c0,0-0.1,0.1-0.1,0.2l0.1,0C122.7,82.9,122.8,82.8,122.7,82.8c-0.9-0.1-4.3-0.1-5.4,0.1
					c0,0,0,0,0,0C119,82.7,121.8,82.7,122.7,82.8z"/>
			</g>
			<g>
				<path class="st0" d="M106.7,107.6l0.5,0.1c0-0.1-0.1-0.2-0.1-0.3h-0.5C106.7,107.4,106.7,107.5,106.7,107.6z"/>
			</g>
			<g>
				<path class="st0" d="M109.2,122.1v-0.5c-0.1,0-0.2,0.1-0.3,0.2c-0.1,0-0.3,0.1-0.4,0.1c0,0,0,0-0.1,0c-0.3,0.1-0.7,0.1-1-0.1
					c-0.1-0.1-0.1-0.1-0.1-0.2h-1c0.1,0.2,0.2,0.3,0.3,0.5c0.3,0.3,0.7,0.5,1.1,0.6c0,0,0,0,0,0
					C108.3,122.6,108.3,122.6,109.2,122.1z"/>
			</g>
			<g>
				<path class="st0" d="M131.9,121.6c-0.2-0.1-0.4-0.1-0.5-0.2v0.3H131v0.4c0.7,0.2,1.5,0.1,2.1-0.3c0.2-0.1,0.3-0.3,0.4-0.4h-0.8
					C132.5,121.6,132.2,121.6,131.9,121.6z"/>
			</g>
			<g>
				<path class="st0" d="M128,124.9c0.8-0.5,1.4-1.1,1.6-1.9c0.3-0.4,0-1.2,0.6-1.2c0.2,0.1,0.5,0.2,0.8,0.3v-0.4h-2.5
					c0.3,0.8,0.5,1.6,0.1,2.3c-0.3,0.5-0.7,1.2-1.5,1c-0.1,0-0.2-0.1-0.3-0.1c-0.8-0.3,0.2-0.8-0.1-1.4c0-0.2-0.1-0.3-0.2-0.3
					c-0.1,0-0.2-0.1-0.4-0.1c-0.4,0-0.7,0.2-0.8,0.5c-0.3,0.4,0,1,0.3,1.3c0.1,0.1,0.1,0.1,0.2,0.2
					C126.5,125.3,127.3,125.2,128,124.9z"/>
			</g>
			<g>
				<path class="st0" d="M109.2,121.6v0.5c0.1-0.1,0.3-0.2,0.5-0.3c0,0.1,0,0.1,0,0.2c0.1-0.1,0.2-0.1,0.4-0.2
					c0.2,1,0.5,2.3,1.7,2.8c0.2,0.1,0.4,0.1,0.6,0.1c0.3,0,0.6-0.1,0.8-0.2c0.4-0.3,0.8-0.7,0.6-1.3c-0.1-0.3-0.3-0.4-0.6-0.5
					c0,0-0.1,0-0.1,0c-0.6,0.2-0.4,0.9-0.8,1.3c-0.1,0-0.2,0-0.4-0.1c0,0,0,0,0,0.1c-1,0-1.2-1.1-1.4-1.8c-0.1-0.2-0.1-0.4-0.1-0.8
					h-0.9C109.4,121.5,109.3,121.6,109.2,121.6z"/>
			</g>
			<g>
				<path class="st0" d="M132.4,119.6c-0.4,0.8,0.7,1,0.5,1.7h0.7c0.3-0.3,0.5-0.7,0.5-1.1c-0.1-0.4-0.3-0.8-0.8-1
					c-0.1,0-0.1,0-0.2,0C132.8,119.2,132.5,119.4,132.4,119.6z"/>
			</g>
			<g>
				<path class="st0" d="M132.9,121.3h-0.1c0,0-0.1,0-0.1,0v0.1C132.8,121.4,132.8,121.3,132.9,121.3z"/>
			</g>
			<g>
				<path class="st0" d="M131,117.5c0.2,0,0.4,0,0.5-0.1L131,117.5L131,117.5z"/>
			</g>
			<g>
				<path class="st0" d="M106.4,120.6c-0.1,0.3-0.1,0.6,0,0.8v-0.1h1c0-0.1,0.1-0.1,0.1-0.2c0.2-0.3,0-0.6-0.1-0.8
					c-0.1-0.1-0.3-0.3-0.6-0.2C106.7,120.2,106.5,120.4,106.4,120.6z"/>
			</g>
			<g>
				<path class="st0" d="M131,117.9c0.4,0,0.8-0.1,1.3-0.2c0.2-0.1,0.4-0.1,0.6-0.2H131V117.9z"/>
			</g>
			<g>
				<path class="st0" d="M131,121.4h0.4c0,0-0.1-0.1-0.1-0.1c-0.1,0-0.1-0.1-0.2-0.1c0,0-0.1,0-0.1-0.1V121.4z"/>
			</g>
			<g>
				<path class="st0" d="M130.9,117.5C131,117.5,131,117.5,130.9,117.5L130.9,117.5l-1.1-0.1c0.2,0,0.3,0.1,0.5,0.1H130.9z"/>
			</g>
			<g>
				<path class="st0" d="M118,117.7c0.6,0.1,1.1,0.2,1.6,0.2c0.2,0,0.3-0.1,0.5-0.2c0.1-0.1,0.2-0.1,0.3-0.2h-3
					C117.6,117.6,117.8,117.6,118,117.7z"/>
			</g>
			<g>
				<path class="st0" d="M110.5,119.3c-0.3,0.9-0.2,1.5-1,2.1h0.9c0-0.6,0.3-1.7,0.8-4h-0.3L110.5,119.3z"/>
			</g>
			<g>
				<path class="st0" d="M130.9,117.5c-0.2,0-0.4,0-0.6,0h-2.8c0,0-0.1,0-0.1,0c0.1,0.4,0.8,2.5,1,3.1c0.1,0.3,0.1,0.5,0.2,0.8h2.4
					v-0.3c0,0,0,0,0,0c-0.9-0.7-1.1-2.2-1.4-3.2c0,0,0,0,0.1,0c0,0,0,0,0,0c0,0,0.2,0,0.4,0c0.2,0,0.5,0,0.9,0L130.9,117.5
					L130.9,117.5z"/>
			</g>
			<g>
				<path class="st0" d="M131.3,108.4c-0.1,0.1-0.2,0.2-0.3,0.2v0.4c0.1-0.2,0.3-0.4,0.5-0.6c0.5-0.4,1.3-0.4,2-0.3
					c0.2,0.1,0.4,0.3,0.6,0.4c0.7,0.4,1.3,0.9,1.5,1.8c0.3,0.3,0.1,0.8,0.3,1.1c0.3,2-0.8,3.7-2.1,4.9c-0.7,0.4-1.5,0.8-2.3,1h1.6
					c0.8-0.3,1.5-0.8,2.2-1.4c0.5-0.6,1.2-1.1,1.3-2c0.7-1.2,0.5-2.8,0.2-4.1c-0.4-0.8-1-1.6-1.7-2.1c-0.2-0.1-0.5-0.2-0.8-0.2
					C133.2,107.4,132.1,107.7,131.3,108.4z"/>
			</g>
			<g>
				<path class="st0" d="M105.1,107.4l1.7,5.7c0.2,0.8,0.5,1.7,0.1,2.4c-0.4,0.5-0.9,1-1.6,0.9c-0.3,0.1-0.6,0.1-0.9,0.1
					c-0.5-0.2-1.1-0.5-1.1-1.1c0-0.2,0.3-0.3,0.5-0.4c0.5-0.3,0.6-0.5,0.5-0.9c-0.2-0.2-0.2-0.4-0.6-0.5c-0.1,0-0.1,0-0.2,0
					c-0.1,0.1-0.2,0.1-0.3,0.2c-0.3,0.4-0.4,1-0.3,1.5c0.1,0.5,0.8,1.2,1.4,1.5c0.3,0.1,0.6,0.2,1,0.1c0.3-0.1,0.7-0.2,1-0.4
					c1.9-1.3,1.3-2.4,2.2-2c0,0,0.1-0.1,0.1-0.1c-0.2-0.8-1.1-4.2-1.9-6.8L105.1,107.4z"/>
			</g>
			<g>
				<path class="st0" d="M131.5,112.4c0.6,0.1,1-0.1,1.4-0.5c0-0.3,0.1-0.5,0-0.8c0,0,0,0,0,0c-0.1,0-0.1,0-0.2-0.1
					c-0.5-0.2-0.8,0.2-1.2,0.5c-0.2,0-0.2-0.1-0.3-0.2c-0.1,0-0.1-0.1-0.2-0.1v1c0,0,0.1,0.1,0.1,0.1
					C131.3,112.3,131.4,112.3,131.5,112.4z"/>
			</g>
			<g>
				<path class="st0" d="M130.7,110.3c0-0.4,0.1-0.9,0.3-1.2v-0.4c-0.6,0.6-0.7,1.6-0.6,2.6c0.1,0.4,0.3,0.7,0.6,1v-1
					C130.7,111,130.8,110.6,130.7,110.3z"/>
			</g>
			<g>
				<path class="st0" d="M119.5,115.2c0.5,0.8,1.2-0.3,1.6,0.6c0,0,0-0.1,0-0.1c0-0.5-0.2-0.7-0.5-1.1c-0.2-0.2-0.5-0.4-0.7-0.4
					C119.5,114.3,119.2,114.6,119.5,115.2z"/>
			</g>
			<g>
				<path class="st0" d="M120.2,108.4c0,0,0.2-0.2,0.8,1.4c1.1,3.1,4,6.9,6.4,7.7c0,0,0-0.1,0-0.1h2.4c0,0,0,0,0,0c0,0,0-0.1,0-0.1
					c-0.1,0-0.2,0-0.3-0.1c0,0-1.3-4.6-2.7-9.5H125l0.1,0.2h-2.5c0-0.1,0-0.1,0-0.2h-2.5v-0.1H120h-0.6c-1.7,0-3.1,0-4.8,0
					c-0.4,0-0.6,0-0.6-0.2c0,0.1,0,0.1,0,0.2h-2.4c0.3,0.7,0.5,1.4,0.6,2c0.1,0.3,0.1,0.5,0.1,0.7c0.1,1.2-0.1,1.9-0.8,4.7l-0.6,2.4
					h0.3c0.1-0.5,0.2-0.9,0.3-1.5c0.1-0.5,0.4-1.6,0.4-1.6s0.3-1.1,0.5-1.8l0.1-0.4c0.1,0.2,0.2,0.3,0.2,0.5c0-0.1,0-0.1,0.1-0.2
					l0.1-0.4c1,1.9,2.3,4.5,4.4,5.4h3.2c0.2-0.2,0.3-0.4,0.4-0.6c-0.2,0.2-0.5,0.3-1,0.3c-0.3,0.1-0.6,0.1-1.1,0.1
					c-3-0.2-4.7-6.5-4.9-7.1c-0.4-1.4-0.5-1.7-0.5-1.7l0.5,0c0-0.1,0-0.1,0-0.1L120.2,108.4z M124.9,108.1v0.1l2.4,8.4
					c-0.5-0.2-0.9-0.6-1.6-1.4c-2.1-2.6-3.5-6-3.5-7.1H124.9z"/>
			</g>
			<g>
				<path class="st0" d="M131,117.5h1.9c0.1,0,0.2-0.1,0.3-0.1h-1.6C131.4,117.4,131.2,117.4,131,117.5L131,117.5z"/>
			</g>
			<g>
				<path class="st0" d="M131,117.5L131,117.5C131,117.5,131,117.5,131,117.5L131,117.5z"/>
			</g>
			<g>
				<path class="st0" d="M130.3,117.5c-0.2,0-0.3-0.1-0.5-0.1h-2.4c0,0,0,0,0,0.1c0,0,0.1,0,0.1,0H130.3z"/>
			</g>
			<g>
				<path class="st0" d="M130.9,117.5h-0.6C130.5,117.5,130.7,117.5,130.9,117.5z"/>
			</g>
			<g>
				<path class="st0" d="M133.4,91.3c0.6,0.6,1,1.2,1.2,1.9c0.3,0.8,0.5,1.5,0.3,2.4c-0.3,1.3-0.9,2.5-2.2,2.7
					c-0.7,0.1-1.2,0-1.7-0.3v1c0.8,0.4,1.7,0.4,2.7-0.1c1.1-0.5,1.7-1.2,2.2-2.4c0.5-1.3,0.4-2.5,0.2-3.6c0-0.3-0.3-0.9-0.3-0.9
					c-0.1-0.6-0.6-1.1-0.9-1.6c-0.5-0.4-0.9-0.8-1.5-1c-0.8-0.4-1.6-0.7-2.4-0.7v1.4c0.1,0,0.1,0,0.2,0
					C132.1,90.2,132.8,90.7,133.4,91.3z"/>
			</g>
			<g>
				<path class="st0" d="M131.1,95.3c0.2,0.1,0.1,0.5,0.2,0.7c0.2,0.2,0.4,0.3,0.7,0.3c0.4,0,0.7-0.2,0.8-0.6c0.2-0.5,0-0.9-0.2-1.1
					c-0.1-0.1-0.3-0.2-0.4-0.3c-0.4-0.1-0.8-0.2-1.3-0.2v1.1C131.1,95.2,131.1,95.3,131.1,95.3z"/>
			</g>
			<g>
				<path class="st0" d="M100.9,96.9c0,0.2,0.4,0.2,0.6,0.3c0.4,0.2,0.8,0.8,1.1,1.6l2.5,8.6h1.5c-0.4-1.5-0.7-2.6-0.8-2.9
					c0,0,1-0.4,1.4-0.8c0.4-0.2,0.6,0,0.9,0.1c0.4,0,0.7,0.4,1.1,0.5v-0.6c-0.3-0.1-0.5-0.2-0.8-0.3c-0.1-0.1-0.5-0.3-0.3-0.5
					c0.3-0.3,0.7-0.7,1.1-1.1v-0.7c-0.4,0.6-1,1.2-1.8,1.8c-0.5,0.4-0.8,0.6-1.3,0.8l-1.8-6.5c0-1.9,0-4.2,1.9-5.1
					c0.4-0.2,0.6-0.3,1-0.3c0.8-0.2,1.5,0.1,2,0.6v-2.2c-0.6-0.2-1.2-0.3-1.8-0.2c-0.2,0-0.4,0.1-0.6,0.1c-2,0.7-2.7,2.3-3.2,4.4
					c-0.1,0.7,0.1,1.4-0.2,1.7c-0.2-0.1-0.3-0.1-0.5-0.1c0,0.1-0.1,0.2-0.1,0.2c-0.5-0.2-1-0.2-1.3-0.2
					C100.9,96.4,100.9,96.9,100.9,96.9z"/>
			</g>
			<g>
				<path class="st0" d="M124.8,107.6l-2.2-8.7c0,0.1-0.1,0.2-0.1,0.3L124.8,107.6L124.8,107.6z"/>
			</g>
			<g>
				<path class="st0" d="M130.9,97.9c-0.2-0.1-0.3-0.2-0.4-0.4c-0.3-0.5-0.6-0.9-0.4-1.4c0.2-0.5,0.5-1.1,0.9-0.9v-1.1
					c-0.2,0-0.3,0.1-0.5,0.2c-0.7,0.4-1.1,1-1.2,1.8c-0.2,0.9,0.2,1.6,0.8,2.2c0.1,0.1,0.2,0.2,0.3,0.3c0.2,0.2,0.4,0.3,0.6,0.4
					L130.9,97.9C131,98,130.9,97.9,130.9,97.9z"/>
			</g>
			<g>
				<path class="st0" d="M119.7,102.2c0,0.2,0,0.4,0,0.5C119.7,102.6,119.7,102.4,119.7,102.2z"/>
			</g>
			<g>
				<path class="st0" d="M111.5,98.7c0.4-1.1,0.7-1.7,0.7-2.9c0-1-0.1-1.6-0.4-2.6c-0.3-0.6-0.4-1-0.8-1.6c-0.5-0.7-1.1-1.1-1.8-1.4
					v2.2c0.5,0.4,0.8,1.1,1.1,1.8c0.7,1.7,0.5,3.1-0.1,4.9c-0.3,0.8-0.6,1.5-1,2v0.7C110,100.9,111,99.9,111.5,98.7z"/>
			</g>
			<g>
				<path class="st0" d="M121.2,86.7c-0.1-0.8-0.1-1.6,0.1-2.2c0.2-0.4,0.9-1.2,1.3-1.5l-5.2,0c0.5,0.4,1.1,1.1,1.4,1.7
					c0.1,0.7,0,1.3-0.1,2l-5.1,20.6l-0.4-0.7c0,0,0,0,0,0l-0.2,0.8l-0.4-0.7c-0.8-1.3-1.9-2.2-3.3-2.9v0.6c0.3,0.1,1.5,1.6,2.3,3.3
					h0.1c0-0.1-0.1-0.1-0.1-0.2h2.5c0,0,0-0.1,0-0.1c0.6-2,4.7-19.4,5-20.8l0.1-0.3c0,0,0,0,0,0l0.1-0.3l2.5,9.3c0,0,0,0-0.1,0.1
					l0.1,0.2c0,0-1.6,3.1-1.9,6.1c0,0.2-0.1,0.5-0.1,0.7c0,0.2,0,0.4,0,0.5c0,0,0,0.1,0,0.1c0,1.5,0.2,2.9,0.4,4.6c0,0,0,0,0-0.1
					c0,0,0,0.1,0,0.1c0,0,0,0,0,0.1h2.1c-0.2-1.4-0.5-4.2-0.2-6.7c0.1-0.6,0.3-1.3,0.5-1.8l0,0.1c0-0.1,0.1-0.2,0.1-0.3l2.2,8.7h2
					c-1.6-5.5-3.2-11.4-3.3-11.8c0,0,0.2-0.8,0.8-1.5c2.8-3.3,4.5-4.4,6.7-4.2v-1.4c-0.1,0-0.3,0-0.4,0c-1.9,0-3.6,0.9-4.7,1.8
					c-0.9,0.6-1.9,1.8-2.8,2.8c0,0,0,0,0-0.1c0,0-0.1,0.1-0.1,0.1C123,93.2,121.4,87.1,121.2,86.7z"/>
			</g>
			<g>
				<path class="st0" d="M120,107.5h0.1c-0.2-1.6-0.4-3-0.4-4.6C119.6,104.5,119.8,105.9,120,107.5z"/>
			</g>
			<g>
				<path class="st0" d="M121.6,95.3c0-0.1,0.1-0.1,0.1-0.1l-2.5-9.3l-0.1,0.3c0,0,0,0,0,0l0,0L121.6,95.3z"/>
			</g>
			<g>
				<path class="st0" d="M120,107.6L120,107.6C120.1,107.5,120.1,107.5,120,107.6L120,107.6C120,107.5,120,107.5,120,107.6z"/>
			</g>
			<g>
				<path class="st0" d="M122.6,82.9c0.1-0.1,0.1-0.1,0.1-0.2c-0.9-0.1-3.7-0.1-5.4,0.1c0,0,0,0,0,0L122.6,82.9z"/>
			</g>
			<g>
				<path class="st0" d="M105.1,107.4l1.6,0.2c0-0.1,0-0.2-0.1-0.2H105.1z"/>
			</g>
			<g>
				<path class="st0" d="M114,107.4h-2.5c0,0.1,0.1,0.1,0.1,0.2h2.4C114,107.5,114,107.4,114,107.4z"/>
			</g>
		</g>
		<g>
			<path class="st0" d="M119.6,49.1v-0.2c-0.3,0-0.6-0.1-0.8,0.2v0.2C119.1,49.2,119.5,49.4,119.6,49.1z"/>
		</g>
		<g>
			<path class="st0" d="M100.8,64.8c0.3,0.9,1.1,1.6,1.8,2.2c0,0.7,0.4,1.6,1.2,1.9c0.3,0.2,0.8,0.2,1-0.1l0.4,0.4
				c0.9,0.9,2.2,1.3,3.4,1.3c-0.4,0.1-0.9,0.3-1.1,0.7c-0.2,0.4-0.1,0.8,0.1,1.1c0.2,0.3,0.4,0.3,0.7,0.3l-0.2-0.4l0.2-0.2
				c-0.1,0-0.3,0-0.5-0.1c-0.2-0.2-0.2-0.4-0.1-0.6c0.2-0.4,0.6-0.5,0.9-0.6c2.3-0.9,4.5-1.5,6.9-1.8c0.6,0,1.3,0,1.9-0.2
				c1.6,0,3.8-0.1,5.7,0.1c0.7,0.2,1.4,0.2,2.2,0.2c2.3,0.3,4.8,1,7.1,1.9c0.2,0.1,0.5,0.4,0.5,0.6c0,0.1-0.1,0.3-0.2,0.4
				c-0.2,0.1-0.4,0.1-0.5,0.1c-0.1,0-0.1,0-0.2-0.1l0.3,0.3l-0.2,0.3c0.4,0.1,0.7,0.1,1.1-0.2c0.2-0.3,0.3-0.6,0.2-0.9
				c-0.2-0.5-0.7-0.8-1.2-1c1.4,0.1,2.8-0.6,3.8-1.7c0.3,0.3,0.7,0.2,1,0.1c0.7-0.4,1.1-1.2,1.1-1.9c0.6-0.4,1.1-1,1.5-1.6
				c0.2-0.3,0.3-0.8,0.1-1.2c-0.1-0.2-0.3-0.2-0.5-0.2l0.2-0.1c0.3-0.3,0.3-0.7,0.3-1c-0.1-0.3-0.4-0.7-0.7-0.8l0.1-0.1
				c0.4-0.3,0.4-0.8,0.2-1.2c-0.2-0.4-0.5-0.6-0.9-0.6c0.2-0.4,0.1-0.8-0.2-1.2c-0.3-0.3-0.7-0.4-1-0.4c0.1-0.3,0-0.6-0.2-0.9
				c-0.3-0.4-0.8-0.4-1.2-0.3c0-0.4-0.2-0.8-0.5-1c-0.3-0.3-0.8-0.3-1.1-0.1c-0.1-0.4-0.4-0.6-0.7-0.8c-0.3-0.2-0.7-0.1-1,0.1
				c-0.2-0.4-0.5-0.6-0.8-0.7s-0.7,0-1,0.3c0-0.1-0.1-0.3-0.2-0.4c-0.2-0.2-0.6-0.4-0.9-0.3c-0.3,0-0.6,0.2-0.8,0.5
				c-0.1-0.1-0.2-0.2-0.3-0.3c-0.3-0.3-0.8-0.3-1.2-0.1c0.2-0.4,0.1-0.9-0.3-1.2c-0.3-0.3-0.8-0.3-1.2-0.1c-0.1-0.1-0.1-0.1-0.2-0.1
				c-0.2-0.4-0.5-0.7-0.9-0.8c-0.4,0-0.8,0.1-1.1,0.4c-0.1-0.3-0.5-0.6-0.8-0.7c-0.4,0-0.7,0-1,0.3h-0.1c-0.2-0.3-0.4-0.5-0.6-0.7
				c-0.1-0.3-0.2-0.7-0.2-1h0.9c0.1,0,0.2,0,0.2-0.1V49c-0.2-0.3-0.6-0.1-0.9-0.2v-0.9c0,0,0-0.1-0.1-0.1h-1.2l-0.1,0.1
				c0,0.1,0,0.2,0,0.3h1v1c0.1,0.3,0.6,0.1,0.9,0.2v0.9h-1c-0.1,0.1-0.1,0.2-0.1,0.3l0.1,0.8c-0.3-0.1-0.6-0.1-0.9,0
				c0-0.3,0.2-0.7,0.1-1.1l-0.1-0.1h-0.9v0.3c0,0.1,0.1,0.2,0.2,0.2h0.8l-0.2,1c-0.2,0.1-0.3,0.2-0.4,0.4c0,0,0.1-0.1,0.1-0.1
				c0.4-0.3,0.9-0.3,1.3,0c0.4,0,0.6,0.3,0.7,0.5c0.2,0.4,0.2,1-0.2,1.4c-0.3,0.4-0.8,0.5-1.3,0.4c-0.5-0.1-0.9-0.5-1-1
				c-0.1-0.3,0-0.7,0.2-0.9c0,0-0.1,0-0.1,0c-0.2-0.3-0.6-0.4-1-0.3c-0.4,0.1-0.7,0.4-0.8,0.7c-0.2-0.3-0.6-0.5-1-0.4
				c-0.4,0.1-0.8,0.4-0.9,0.8h-0.1c-0.1,0.1-0.3,0-0.4,0c-0.4-0.1-0.8,0-1.1,0.3c-0.3,0.3-0.4,0.7-0.3,1.1c-0.1-0.1-0.3-0.1-0.5-0.1
				c-0.4,0-0.7,0.2-0.9,0.5c-0.1-0.1-0.2-0.2-0.3-0.3c-0.3-0.3-0.7-0.3-1-0.2c-0.3,0.1-0.6,0.4-0.7,0.7c-0.3-0.3-0.7-0.4-1-0.3
				c-0.2,0.1-0.4,0.2-0.5,0.4c0,0,0,0,0,0c0.4-0.1,0.7,0,0.9,0.3c0.1,0.3,0.1,0.5-0.1,0.7c-0.1,0.1-0.3,0.2-0.5,0.2
				s-0.3-0.1-0.5-0.2c-0.2-0.1-0.2-0.4-0.2-0.5c0-0.1,0-0.2,0.1-0.3c-0.3-0.2-0.6-0.2-1,0c-0.1,0.1-0.3,0.3-0.4,0.5
				c0.1-0.1,0.2-0.1,0.3-0.2c0.2-0.1,0.4-0.1,0.5,0.1c0.2,0.2,0.2,0.4,0.2,0.6s-0.2,0.3-0.3,0.4c-0.2,0.1-0.5,0.1-0.7,0
				c-0.2-0.1-0.3-0.5-0.2-0.6c0,0,0,0,0,0l-0.2-0.1c-0.4-0.1-0.7-0.1-1,0.2c-0.2,0.2-0.3,0.4-0.4,0.6c0-0.1,0-0.1,0.1-0.2
				c0.1-0.2,0.3-0.3,0.5-0.3s0.4,0,0.5,0.2c0.2,0.2,0.2,0.5,0.1,0.7c-0.1,0.2-0.3,0.3-0.5,0.3c-0.3,0-0.5-0.1-0.6-0.4
				c0-0.1-0.1-0.2-0.1-0.3c0,0.1,0,0.2,0,0.3h-0.1c-0.3-0.1-0.7,0-0.9,0.3c0.3-0.1,0.6,0,0.6,0.1c0.2,0.2,0.2,0.5,0.1,0.7
				c-0.1,0.2-0.2,0.3-0.4,0.4c-0.2,0.1-0.5,0-0.7-0.2c0,0,0,0,0,0c0,0,0,0,0,0h-0.3c-0.3,0-0.5,0.1-0.7,0.3c0.1,0,0.1-0.1,0.2-0.1
				c0.3,0.1,0.4,0.1,0.6,0.2c0.2,0.2,0.3,0.4,0.2,0.6c-0.1,0.3-0.3,0.5-0.6,0.5c-0.2,0-0.3,0-0.5-0.2c-0.1-0.1-0.2-0.3-0.2-0.4
				c0,0.2,0,0.4,0.1,0.6l-0.4,0.1c-0.3,0.1-0.5,0.4-0.6,0.7c0,0,0,0.1,0,0.1c0-0.1,0.1-0.2,0.2-0.3c0.2-0.2,0.4-0.2,0.7-0.1
				c0.1-0.1,0.3,0,0.3,0.2c0.1,0.3,0.1,0.5-0.2,0.8c-0.2,0.1-0.4,0.2-0.6,0.1c-0.2-0.1-0.4-0.3-0.4-0.4c0,0,0-0.1,0-0.1
				c0,0.3,0.1,0.6,0.3,0.8c-0.2,0.1-0.3,0.2-0.4,0.3c0.2-0.2,0.4-0.2,0.6-0.1c0.2,0.1,0.3,0.2,0.4,0.3c0.1,0.2,0.1,0.4,0,0.6
				c-0.1,0.2-0.4,0.3-0.7,0.3c-0.3-0.1-0.4-0.3-0.5-0.5c0-0.1,0-0.3,0.1-0.5c-0.1,0.2-0.2,0.3-0.2,0.5c-0.1,0.3,0.1,0.7,0.3,0.9
				c0.1,0.1,0.2,0.1,0.2,0.2c-0.2,0-0.4,0.1-0.5,0.2C100.8,64.4,100.8,64.6,100.8,64.8z M102.8,66.8c0.3,0.4,0.5,0.9,0.6,1.4
				C102.9,67.9,102.7,67.3,102.8,66.8z M104.1,68.3c-0.1,0.1-0.2,0.1-0.3,0.2c0-0.7-0.3-1.5-0.9-2.1c0,0-0.1,0,0,0c0,0,0,0,0,0
				c0.2-0.1,0.3-0.1,0.5,0c0.4,0,0.6,0.4,0.7,0.8C104.2,67.6,104.3,67.9,104.1,68.3z M106.1,69.4c-0.6-0.3-1-0.8-1.5-1.2
				c0.2-0.7-0.1-1.6-0.7-2.2c0.3-0.5,0.4-1.4,1.1-1.6c0.3,0.1,0.5,0.1,0.7,0.4c0.2,0.4,0.2,0.9,0.1,1.3c0.1,0.6,0.9,1.1,0.6,1.7
				c-0.3,0.3-1,0.2-0.9,0.7c0.3,0.5,0.9,0.6,1.3,0.7c1.6,0.3,3.4-0.7,4.4-2.1h0.4c0.1,0.5,0.1,1.2-0.3,1.7
				C109.7,70,107.8,70.2,106.1,69.4z M107.9,63.9c-0.4,0.1-0.7,0.5-0.7,0.8c-0.1,0.5,0.3,1.1,0.5,1.6c0.2,0.6-0.2,1.2,0.2,1.8
				c0.2,0.3,0.6,0.4,0.9,0.4c-1,0.4-1.9,0.5-2.8-0.1c0.3,0,0.6-0.2,0.8-0.5c0.3-0.6-0.1-1.2-0.5-1.7c-0.1-0.2,0-0.4,0-0.6
				c0-0.4-0.1-1.1-0.7-1.4c-0.5-0.2-1-0.1-1.3,0.3c0.1-0.3-0.1-0.8-0.4-1c0.2-2,1.5-3.7,3.3-4.7c0.4-0.3,0.9-0.5,1.4-0.8
				C107.4,59.7,107.2,61.9,107.9,63.9z M112.4,61.9c0.6,0.6-0.2,1.4-0.2,2.1v0.1c-0.5-0.3-1.2-0.2-1.7,0.1l-0.3,0.3
				c-0.4-0.4-0.8-0.7-1.2-1.2c-0.1-0.3-0.1-0.6,0.1-0.9c0.5-0.4,1.1,0,1.7-0.2C111.3,62.1,111.8,61.5,112.4,61.9z M111.2,59.3
				c-0.2,0.2-0.5,0.3-0.8,0.3c-0.3-0.1-0.5-0.3-0.5-0.5c0-0.3,0.1-0.5,0.3-0.7c0.3-0.2,0.8-0.2,1,0.2
				C111.4,58.8,111.3,59.1,111.2,59.3z M112.9,61.6c0-1.8,0.6-4.3,2.5-5.5c0.8-0.3,1.6-0.6,2.4-0.7c-0.5,2-0.4,3.6-0.3,5.5v0.2
				c-0.1,0.4-0.1,0.8,0.1,1.1c-0.4-0.2-0.8-0.1-1.1,0.1s-0.5,0.5-0.5,0.8c-0.1,0.5,0.4,1,0.2,1.5c-0.2,0.6-0.4,1.2,0.1,1.8
				c0.1,0.1,0.3,0.2,0.4,0.3c-0.6,0.2-1.2,0.2-1.7,0.2c0.4-0.3,0.5-0.7,0.5-1.1c-0.1-0.5-0.5-0.9-0.6-1.5c0-0.6,0.2-1.4-0.5-1.8
				c-0.4-0.2-0.8-0.2-1.2,0.1c-0.1,0.1-0.2,0.2-0.3,0.3C113.1,62.5,113.1,62,112.9,61.6z M119,65.6c-0.4,0.5-1,0.6-1.6,0.8
				c-0.2,0-0.4,0-0.5-0.1c-0.6-0.6,0-1.2,0-1.9c0-0.5-0.6-1.2-0.1-1.7c0.2-0.2,0.5-0.3,0.7-0.2l0.7,0.6l0.5,0.7
				C118.5,64.3,118.5,65.1,119,65.6z M114,63.1c0.3,0,0.5,0.1,0.5,0.3c0.2,0.6-0.2,1.2,0.2,1.8c0.3,0.4,0.6,0.9,0.2,1.4
				c-0.5,0.5-1.2,0-1.8,0l-0.5-0.2c0-0.1,0.1-0.3,0.2-0.4c0.1-0.6,0-1.2-0.5-1.6l0.1-0.3C112.9,63.8,113.3,62.8,114,63.1z
				 M112.4,66.1c-0.2,0.3-0.5,0.5-0.8,0.6c-0.4,0.1-0.8-0.1-1.1-0.4s-0.4-0.7-0.3-1.1c0.1-0.3,0.4-0.7,0.7-0.8c0.5-0.1,1,0,1.3,0.4
				C112.6,65.2,112.6,65.7,112.4,66.1z M109.7,64.7l0.2,0.2c-0.2,0.5-0.1,1.2,0.2,1.6c0.1,0.2,0.3,0.3,0.4,0.4
				c-0.1,0.2-0.2,0.3-0.3,0.4L109,68c-0.2,0.1-0.5,0-0.7-0.1c-0.6-0.6,0.1-1.3-0.4-2c-0.3-0.4-0.6-1-0.3-1.4
				C108.3,63.9,109,64.6,109.7,64.7z M111.6,69.3c0.4-0.4,0.6-1,0.6-1.4c0.3,0.3,0.9,0.7,1.5,0.9C113,68.9,112.3,69.1,111.6,69.3z
				 M114.2,68.4c-0.8-0.2-1.7-0.6-2.1-1.4l0.3-0.2c1.9,0.7,3.8,1.1,5.6,0.1c0.5-0.3,1-0.6,1.5-0.9l0.3,0.1c-0.6,0.8-1.3,1.6-2.3,2.1
				C116.4,68.6,115.3,68.6,114.2,68.4z M121.6,63.8c0.1-0.2,0.3-0.5,0.4-0.8c0.4-0.2,0.8-0.7,1.2-0.5c0.2,0.2,0.4,0.3,0.4,0.4
				c0.3,0.6-0.2,1.2-0.2,1.8c0.1,0.5,0.6,1.3-0.1,1.6c-0.6,0.3-1.1-0.2-1.6-0.4l-0.4-0.3C121.7,65.1,121.8,64.4,121.6,63.8z
				 M122.8,61.1c0.2-1.8,0.3-3.9-0.1-5.8c1.7,0.4,3.4,1.5,4.1,3.2c0.5,1.1,0.6,2.2,0.7,3.3c-0.3,0.4-0.3,0.9,0,1.3
				c-0.2-0.3-0.7-0.6-1-0.5c-0.4,0-0.9,0.3-1.1,0.7c-0.3,0.7,0.2,1.1-0.2,1.7c-0.3,0.5-0.6,1.1-0.3,1.7c0.1,0.1,0.2,0.3,0.3,0.4
				c-0.5,0-1.2,0-1.8-0.2c0.3-0.1,0.6-0.4,0.8-0.7c0.2-0.6-0.3-1.1-0.2-1.8c0.2-0.7,0.5-1.4-0.2-2c-0.4-0.3-0.7-0.3-1.1-0.2
				C122.9,61.9,122.9,61.5,122.8,61.1z M131.7,57.9c1.9,0.9,3.9,2.3,4.5,4.5c0.1,0.3,0.2,0.7,0.2,1c-0.3,0.3-0.4,0.7-0.4,1
				c-0.3-0.3-0.7-0.4-1.1-0.3c-0.6,0.1-0.8,0.8-0.9,1.2c-0.1,0.3,0.1,0.7,0,1c-0.4,0.5-0.7,1.1-0.5,1.7c0.2,0.3,0.5,0.5,0.8,0.5
				c-0.5,0.4-1.2,0.5-1.8,0.4c-0.4-0.1-0.7-0.2-1-0.3c0.4,0,0.8-0.2,1-0.6c0.3-0.5,0-1.1,0.1-1.6c0.3-0.6,0.8-1.3,0.4-2
				c-0.1-0.2-0.4-0.4-0.6-0.5C133,61.9,132.9,59.8,131.7,57.9z M132.7,64.6c0.3,0.7-0.5,1.2-0.5,1.9c0,0.5,0.2,1-0.2,1.4
				c-0.7,0.5-1.3-0.4-1.9-0.6c-0.1-0.1-0.2-0.3-0.3-0.4c0.5-0.3,0.8-0.9,0.8-1.4c0.1-0.2-0.3-0.6,0.1-0.8l1.4-0.5
				C132.2,64.3,132.5,64.4,132.7,64.6z M129.2,66.7c-0.5,0.1-1-0.1-1.3-0.5c-0.2-0.4-0.2-0.8,0-1.2c0.2-0.4,0.6-0.6,1-0.6
				c0.3,0,0.6,0.1,0.9,0.3c0.3,0.3,0.4,0.7,0.3,1.1C130,66.2,129.6,66.6,129.2,66.7z M131.3,63.3c-0.4,0.5-0.8,0.8-1.2,1.3
				c-0.4-0.6-1.1-0.7-1.7-0.6l-0.3,0.1c-0.2-0.6-0.5-1.1-0.5-1.7c0-0.2,0.2-0.5,0.4-0.5c0.9-0.4,1.5,0.7,2.2,0.4
				c0.3,0,0.8-0.1,1,0.2C131.4,62.7,131.4,63,131.3,63.3z M127.7,64.1l0.1,0.2c-0.6,0.6-0.6,1.3-0.3,2c-0.5,0.4-1.2,0.3-1.7,0.4
				c-0.2,0-0.5-0.1-0.6-0.3c-0.4-0.8,0.7-1.4,0.5-2.2c0-0.4-0.2-0.9,0.3-1.2c0.3-0.1,0.5-0.1,0.7,0L127.7,64.1z M121.2,65.1
				c-0.2,0.3-0.5,0.5-0.9,0.6c-0.4,0-0.7-0.1-1-0.4c-0.3-0.4-0.4-0.8-0.2-1.3c0.2-0.4,0.6-0.6,1-0.6c0.3,0,0.7,0.1,1,0.4
				C121.4,64.2,121.5,64.7,121.2,65.1z M121.5,68.3h-2.7h-0.5c0.7-0.5,1.3-1.2,1.9-1.9c0.5,0.7,1.1,1.3,1.8,1.9
				C121.8,68.3,121.7,68.3,121.5,68.3z M123.4,68.4c-1.2-0.3-2.1-1.4-2.8-2.2l0.3-0.1c1.4,1,3.2,1.7,5,1.3c0.7-0.1,1.4-0.4,2.1-0.6
				l0.3,0.2C127.2,68.8,125.1,68.6,123.4,68.4z M126.6,68.7c0.6-0.1,1.1-0.5,1.6-1c0,0.5,0.1,1.2,0.5,1.5
				C128.1,69.1,127.3,68.9,126.6,68.7z M135.7,68.2c-0.8,0.8-1.7,1.5-2.8,1.6c-1.3,0.2-2.8-0.1-4-1.1c-0.4-0.5-0.3-1.1-0.2-1.6
				c0.1,0,0.3,0,0.4,0c1.1,1.5,3,2.5,4.7,2c0.4-0.1,0.9-0.3,1-0.7c0-0.2-0.1-0.3-0.2-0.4c-0.3-0.1-0.6-0.1-0.7-0.4
				c-0.2-0.6,0.7-1.1,0.6-1.7c-0.1-0.4-0.1-0.9,0.2-1.2c0.2-0.2,0.3-0.2,0.5-0.2c0.3,0,0.5,0.2,0.6,0.3c0.3,0.3,0.3,0.8,0.6,1.2
				C135.8,66.5,135.5,67.5,135.7,68.2z M136.4,68.2v0.2c-0.2,0-0.3-0.1-0.3-0.2c-0.2-0.5,0-1.2,0.4-1.6c0.2-0.2,0.5-0.5,0.9-0.3
				C136.8,66.8,136.5,67.5,136.4,68.2z M136.9,68.2c0.1-0.5,0.3-1,0.7-1.4C137.6,67.2,137.4,67.9,136.9,68.2z M139.4,64.3
				c0.1,0,0,0.2,0,0.3c-0.2,0.7-0.8,1.3-1.4,1.8c-0.1-0.2-0.3-0.5-0.5-0.5c-0.2,0-0.4,0-0.6,0c-0.2-0.6-0.3-1.1-0.4-1.8
				c0.1-0.2,0.3-0.4,0.5-0.5c0.8-0.1,1.3,1,2.1,0.7C139.2,64.3,139.3,64.3,139.4,64.3z M139.2,62.5c0.1,0.2,0.1,0.4,0,0.6
				c-0.1,0.2-0.3,0.3-0.5,0.3s-0.5-0.2-0.6-0.4c-0.1-0.2,0-0.5,0.2-0.7c0.2-0.1,0.4-0.2,0.6-0.2C138.9,62.2,139.1,62.4,139.2,62.5z
				 M138.5,60.6c0.2-0.1,0.3,0.1,0.4,0.2c0.1,0.2,0.1,0.4-0.1,0.6c-0.1,0.2-0.4,0.3-0.7,0.3c-0.2,0-0.3-0.2-0.4-0.3
				c-0.1-0.3-0.1-0.5,0.1-0.7S138.2,60.4,138.5,60.6z M137.4,58.8c0.1,0.1,0.3,0.1,0.5,0.2c0.2,0.2,0.2,0.4,0.2,0.7
				c-0.1,0.3-0.3,0.4-0.6,0.4c-0.1,0-0.4,0-0.5-0.2c-0.2-0.2-0.2-0.4-0.1-0.7C137,59,137.2,58.9,137.4,58.8z M135.7,57.8
				c0.1-0.2,0.3-0.3,0.5-0.3c0.1,0,0.3,0.1,0.5,0.2c0.2,0.2,0.2,0.4,0.2,0.6c0,0.1-0.1,0.3-0.3,0.4c-0.1,0.1-0.3,0.1-0.5,0.1
				c-0.2-0.1-0.4-0.3-0.5-0.5C135.6,58.2,135.6,58,135.7,57.8z M134.2,56.7c0.1-0.2,0.3-0.2,0.5-0.3c0.2,0,0.5,0.2,0.6,0.4
				c0.1,0.2,0.1,0.5,0,0.7c-0.2,0.2-0.4,0.3-0.7,0.2c-0.2-0.1-0.4-0.2-0.5-0.5C134.1,57,134.1,56.9,134.2,56.7z M132.8,55.9
				c0.2-0.1,0.4-0.2,0.6-0.1c0.2,0,0.3,0.1,0.4,0.3c0.1,0.3,0.1,0.5-0.1,0.7S133.3,57,133,57c-0.2-0.1-0.4-0.3-0.4-0.5
				S132.7,56,132.8,55.9z M137.2,62c0.1,0.3,0.1,0.8,0,1.1h-0.4c-0.2-1.9-1.6-3.8-3.4-4.9c-0.7-0.4-1.4-0.8-2.1-1.2
				C133.8,57.7,136.5,59.4,137.2,62z M131.1,55.4c0.1-0.1,0.3-0.2,0.4-0.3c0.2,0.2,0.4,0.2,0.5,0.3c0.1,0.2,0.2,0.4,0.2,0.6
				c-0.1,0.2-0.3,0.4-0.5,0.4s-0.3,0-0.5-0.2C131,55.9,130.9,55.7,131.1,55.4z M132,63.8h-0.4c0.4-0.4,0.4-0.8,0.2-1.2
				c-0.1-0.3-0.4-0.5-0.6-0.6c0.2-1.4,0.1-3.1-0.5-4.5C132.4,59.2,132.7,61.7,132,63.8z M130.6,60.6c0.1,0.2,0.1,0.5,0,0.6
				c-0.1,0.2-0.4,0.3-0.6,0.3c-0.3,0-0.5-0.2-0.6-0.4c-0.1-0.2-0.1-0.5,0.1-0.7c0.1-0.2,0.3-0.3,0.6-0.3
				C130.2,60.2,130.5,60.4,130.6,60.6z M130.4,59c0,0.2-0.2,0.5-0.5,0.6c-0.3,0.1-0.5,0-0.7-0.2c-0.2-0.2-0.2-0.5-0.1-0.8
				c0.1-0.2,0.3-0.3,0.6-0.4c0.1,0,0.3,0.1,0.5,0.2C130.4,58.5,130.5,58.8,130.4,59z M129.2,55.2c0.1-0.2,0.3-0.4,0.5-0.4
				c0.1,0,0.3,0.1,0.5,0.2c0.1,0.1,0.2,0.3,0.2,0.5s-0.2,0.4-0.4,0.5s-0.5,0-0.7-0.1C129.1,55.7,129.1,55.5,129.2,55.2z M129.2,56.4
				c0.2,0.1,0.3,0.3,0.4,0.4c0.1,0.2,0.1,0.4,0,0.7c-0.1,0.2-0.4,0.4-0.6,0.3c-0.3,0-0.5-0.2-0.6-0.5c-0.1-0.3,0-0.5,0.2-0.7
				C128.8,56.4,129,56.4,129.2,56.4z M127.3,55.5c0.1-0.3,0.3-0.5,0.6-0.5c0.1-0.1,0.3,0,0.4,0.1c0.1,0.1,0.2,0.3,0.3,0.5
				c0,0.2-0.1,0.5-0.3,0.6c-0.3,0.1-0.6,0.1-0.8,0C127.3,56,127.2,55.7,127.3,55.5z M125.7,54c0.1-0.2,0.3-0.5,0.6-0.5
				c0.1,0.1,0.3,0.1,0.4,0.2c0.2,0.2,0.3,0.5,0.3,0.6c0,0.2-0.2,0.5-0.4,0.5c-0.2,0.1-0.5,0.1-0.7-0.1
				C125.7,54.5,125.6,54.2,125.7,54z M123.9,53.1c0.4-0.4,0.9-0.4,1.1,0c0.1,0.2,0.2,0.5,0,0.8c-0.2,0.2-0.5,0.3-0.8,0.3
				c-0.3-0.1-0.4-0.3-0.5-0.5C123.7,53.5,123.8,53.2,123.9,53.1z M127.7,57.6c0.6,1.2,1,2.5,1.1,3.7c-0.3-0.1-0.6-0.1-0.9,0
				c-0.1-2-0.8-4.3-2.8-5.5c-0.8-0.5-1.8-0.8-2.6-1c0-0.2-0.1-0.3-0.1-0.5C124.4,54.4,126.7,55.7,127.7,57.6z M122,52.6
				c0.2-0.2,0.5-0.3,0.8-0.2c0.1,0.1,0.3,0.2,0.4,0.4c0.1,0.2,0.1,0.5,0,0.7c-0.1,0.2-0.4,0.3-0.7,0.3s-0.5-0.2-0.6-0.5
				C121.9,53.1,121.8,52.8,122,52.6z M121.5,54.1c0.2,0,0.3,0.1,0.3,0.2c0.7,1.7,0.6,3.4,0.6,4.9l-0.1,1.3c-0.2-0.2-0.6-0.3-0.9-0.3
				c0.1-2.1,0.1-3.9-0.1-6C121.4,54.2,121.4,54,121.5,54.1z M119.6,55.4c0.2-0.3,0.5-0.4,0.8-0.3c0.1,0,0.3,0.2,0.4,0.3
				c0.2,0.3,0.1,0.6-0.1,0.9c-0.2,0.2-0.5,0.2-0.7,0.2c-0.2-0.1-0.4-0.3-0.5-0.5C119.5,55.8,119.5,55.6,119.6,55.4z M120.8,58.1
				c-0.2,0.2-0.4,0.4-0.7,0.3c-0.2,0-0.4-0.2-0.5-0.4c-0.1-0.3-0.1-0.5,0.1-0.7c0.2-0.3,0.5-0.3,0.8-0.3c0,0,0.2,0.2,0.3,0.3
				C120.9,57.6,121,57.8,120.8,58.1z M119.5,59c0.1-0.2,0.3-0.3,0.6-0.3c0.3,0.1,0.6,0.3,0.7,0.5c0.1,0.3,0.1,0.5,0,0.7
				c-0.1,0.2-0.3,0.3-0.5,0.3c-0.2,0-0.4,0-0.6-0.1c-0.2-0.1-0.3-0.3-0.3-0.5C119.4,59.4,119.4,59.2,119.5,59z M120.4,61.1
				c0.7-0.2,1.4-0.6,1.8,0.1c0.4,0.8-0.7,1.5-0.9,2.2c-0.4-0.4-1.1-0.6-1.6-0.4c-0.3,0.1-0.5,0.2-0.7,0.4c-0.3-0.6-0.7-1.1-1-1.6
				c-0.1-0.2,0-0.5,0.1-0.7C118.8,60.4,119.7,61.3,120.4,61.1z M118.8,54.2c0.3,0,0.1,0.3,0.1,0.5c-0.2,1.8-0.2,3.8-0.1,5.6
				c-0.4,0-0.7,0.1-0.9,0.3C117.8,58.7,117.8,56.4,118.8,54.2C118.7,54.2,118.8,54.2,118.8,54.2z M117.3,52.7
				c0.2-0.2,0.5-0.2,0.7-0.2c0.1,0,0.3,0.1,0.4,0.3c0.1,0.2,0.1,0.5,0,0.7c-0.1,0.2-0.4,0.4-0.6,0.4c-0.2,0-0.5-0.1-0.6-0.4
				S117.1,52.9,117.3,52.7z M115.4,53c0.2-0.2,0.5-0.2,0.7-0.1c0.2,0,0.3,0.1,0.4,0.2c0.1,0.2,0.1,0.4,0,0.6
				c-0.1,0.3-0.5,0.4-0.7,0.4c-0.3-0.1-0.5-0.3-0.6-0.5C115.2,53.4,115.2,53.1,115.4,53z M113.6,53.6c0.4-0.1,0.8,0,1,0.3
				c0.1,0.3,0.1,0.5-0.1,0.8c-0.2,0.2-0.5,0.3-0.7,0.2c-0.2-0.1-0.5-0.3-0.5-0.6C113.3,54.1,113.4,53.8,113.6,53.6z M115.8,55
				c0.8-0.3,1.7-0.4,2.4-0.4l-0.2,0.3c-2.1,0.3-4.2,1.6-4.9,3.7c-0.3,0.9-0.5,1.9-0.6,2.9c-0.3-0.1-0.6-0.1-0.9,0
				C111.8,59,113.1,56,115.8,55z M112.2,55c0.3-0.1,0.5-0.1,0.6,0.1c0.2,0.1,0.3,0.3,0.3,0.5c0,0.2-0.1,0.5-0.4,0.7
				c-0.3,0.1-0.5,0.1-0.7,0c-0.3-0.2-0.3-0.5-0.3-0.8C111.8,55.3,112,55.1,112.2,55z M111.9,56.8c0.1,0.3,0.1,0.5,0,0.7
				c-0.1,0.1-0.3,0.2-0.4,0.3c-0.2,0-0.5,0-0.7-0.2c-0.2-0.2-0.2-0.5-0.1-0.8c0.1-0.2,0.3-0.3,0.5-0.3
				C111.5,56.5,111.8,56.6,111.9,56.8z M110.2,55c0.4-0.2,0.8-0.1,0.9,0.2c0.1,0.2,0.1,0.4-0.1,0.7c-0.2,0.2-0.5,0.3-0.7,0.2
				c-0.3-0.1-0.4-0.3-0.5-0.5C109.8,55.4,109.9,55.1,110.2,55z M110.2,60.2c0.4,0,0.7,0.2,0.8,0.5c0.1,0.2,0,0.4-0.1,0.6
				c-0.2,0.2-0.4,0.3-0.7,0.3c-0.2,0-0.4-0.2-0.6-0.4c-0.1-0.2,0-0.4,0-0.6C109.7,60.4,110,60.2,110.2,60.2z M109.3,57.6l0.3-0.3
				c-0.6,1.6-0.6,3.1-0.5,4.6c-0.4,0.1-0.6,0.5-0.7,0.9c0,0.4,0,0.7,0.3,1h-0.4C107.7,61.8,107.8,59.6,109.3,57.6z M105.4,58.8
				c1.1-0.8,2.3-1.3,3.5-1.6c-2,1-4.3,2.3-5,4.6c-0.1,0.4-0.3,0.9-0.4,1.4c-0.1,0-0.3,0-0.4,0C102.8,61.5,104,59.8,105.4,58.8z
				 M100.9,64.3c0.3-0.2,0.6,0.2,0.9,0c0.5-0.2,0.9-0.7,1.4-0.7c0.2,0,0.4,0,0.5,0.2c0.4,0.6,0,1.1-0.1,1.7l-0.1,0.3
				c-0.3-0.1-0.7-0.1-1,0.2c-0.1,0.1-0.1,0.2-0.2,0.3c-0.6-0.5-1.2-1.1-1.4-1.9V64.3z"/>
		</g>
		<g>
			<path class="st0" d="M132,71.9c-6.4-2.1-12.6-2.4-19-1.2c-1.5,0.3-3.2,0.8-4.7,1.3l-0.2,0.2l0.2,0.4c0,0,0.1,0,0.1,0
				c1.3-0.4,2.5-0.8,3.9-1.1c6.3-1.4,12.2-1.2,18.5,0.6c0.4,0.1,0.9,0.3,1.3,0.4l0.2-0.3L132,71.9z"/>
		</g>
		<g>
			<path class="st0" d="M121.3,61.6c-0.4-0.1-0.7,0.1-1.1,0.2c-0.4,0.1-0.9-0.4-1.4-0.2c0.4,0.1,0.7,0.4,1,0.5
				C120.4,62.3,120.8,61.7,121.3,61.6z"/>
		</g>
		<g>
			<path class="st0" d="M109.5,62.9c0.3,0,0.7,0.2,1,0.3c0.6,0.1,1-0.7,1.4-0.9c-0.3,0-0.5,0.3-0.8,0.4
				C110.5,63.1,110,62.7,109.5,62.9z"/>
		</g>
		<g>
			<path class="st0" d="M129.6,62.9c-0.4-0.1-0.8-0.6-1.3-0.6c0.4,0.2,0.6,0.6,0.9,0.8c0.5,0.3,1-0.2,1.5-0.2
				C130.4,62.8,129.9,62.9,129.6,62.9z"/>
		</g>
		<g>
			<path class="st0" d="M123,64.6c-0.1-0.3,0.3-0.8,0.3-1.3c-0.2,0.4-0.5,0.7-0.6,1.1c-0.1,0.5,0.4,0.8,0.5,1.3
				C123.3,65.4,123.1,65,123,64.6z"/>
		</g>
		<g>
			<path class="st0" d="M117.4,64.4c0.1,0.5-0.4,0.9-0.3,1.4c0.1-0.3,0.4-0.6,0.5-1c0.2-0.4-0.3-0.9-0.4-1.4
				C117.1,63.7,117.3,64.1,117.4,64.4z"/>
		</g>
		<g>
			<path class="st0" d="M114.6,66.2c0-0.3-0.3-0.6-0.4-0.9c-0.3-0.5,0.1-1-0.2-1.4c0,0.4-0.3,0.6-0.3,1
				C113.7,65.5,114.4,65.8,114.6,66.2z"/>
		</g>
		<g>
			<path class="st0" d="M126.2,64.9c-0.1,0.5-0.6,0.8-0.6,1.3c0.2-0.3,0.6-0.6,0.8-0.9c0.3-0.6-0.2-1-0.2-1.5
				C126.1,64.2,126.2,64.6,126.2,64.9z"/>
		</g>
		<g>
			<path class="st0" d="M103,64.6c0.2,0.3,0.1,0.6,0.2,0.9c0.1-0.4,0.1-1,0.1-1.3c0-0.1-0.1-0.2-0.1-0.1c-0.4,0.1-0.6,0.5-0.9,0.7
				c-0.3,0.1-0.7-0.3-1,0c0.3,0,0.6,0.2,0.9,0.3C102.6,65.2,102.7,64.8,103,64.6z"/>
		</g>
		<g>
			<path class="st0" d="M138.2,64.8c-0.5-0.2-0.7-0.6-1.1-0.6v0.1c-0.1,0.4,0,0.9,0.1,1.3l0.1-0.8c0-0.1,0-0.2,0.1-0.2l0.3,0.3
				c0.4,0.6,0.9-0.2,1.4-0.1C138.8,64.6,138.5,64.8,138.2,64.8z"/>
		</g>
		<g>
			<path class="st0" d="M108.6,66c0.2,0.4-0.1,0.9,0.1,1.4c-0.1-0.2,0.1-0.6,0.2-0.9c0.2-0.6-0.6-1-0.8-1.5
				C108.1,65.4,108.5,65.7,108.6,66z"/>
		</g>
		<g>
			<path class="st0" d="M131.6,67.4c0.1-0.3,0-0.8,0-1.1c0.1-0.5,0.6-0.8,0.6-1.2c-0.2,0.3-0.5,0.5-0.7,0.8
				C131.1,66.4,131.6,66.9,131.6,67.4z"/>
		</g>
		<g>
			<path class="st0" d="M106,67.4c0-0.4-0.4-0.8-0.6-1.2c-0.2-0.4-0.1-0.7-0.4-1.1c0.1,0.3,0,0.7,0,1
				C105.1,66.6,105.6,66.9,106,67.4z"/>
		</g>
		<g>
			<path class="st0" d="M135.2,65.1c-0.2,0.2-0.1,0.6-0.2,0.9c-0.1,0.5-0.6,0.9-0.7,1.4l0.7-0.7C135.5,66.2,135.1,65.7,135.2,65.1z"
				/>
		</g>
		<g>
			<path class="st0" d="M120,70.8c-0.3,0-0.5,0.1-0.7,0.4c-0.2,0.3-0.2,0.5-0.1,0.8c0.2,0.3,0.5,0.6,0.8,0.6s0.6-0.1,0.8-0.3
				c0.3-0.4,0.3-0.7,0.2-1.1C120.8,70.8,120.4,70.6,120,70.8z M120.5,71.9c-0.2,0.2-0.4,0.2-0.6,0.1c-0.2-0.1-0.3-0.3-0.3-0.5
				s0.1-0.3,0.3-0.5c0.1,0,0.3-0.1,0.4,0c0.2,0.1,0.3,0.2,0.3,0.4C120.7,71.6,120.7,71.7,120.5,71.9z"/>
		</g>
		<g>
			<path class="st0" d="M117.4,70.8c-0.9,0-1.8,0.2-2.8,0.3c-0.6,0.2-1.5,0.1-2,0.8c-0.1,0.3-0.1,0.5,0.1,0.8c0.3,0.2,0.7,0.3,1,0.3
				c0.9-0.2,1.8-0.3,2.7-0.4c0.7-0.1,1.5,0.1,2.1-0.5c0.2-0.3,0.2-0.6,0-0.9C118.2,70.9,117.9,70.8,117.4,70.8z M118.2,71.8
				c-0.1,0.2-0.3,0.2-0.5,0.3c-1.3,0.1-2.6,0.3-3.9,0.5c-0.2,0-0.4,0-0.6-0.1c-0.1-0.1-0.2-0.2-0.1-0.3c0.3-0.5,0.8-0.4,1.3-0.5
				c1.1-0.2,2.2-0.3,3.2-0.4c0.2,0,0.5,0,0.6,0.2C118.2,71.6,118.2,71.7,118.2,71.8z"/>
		</g>
		<g>
			<path class="st0" d="M126.9,71.4c-1.4-0.3-2.8-0.5-4.3-0.5c-0.4,0-0.9,0.2-1,0.6c0,0.2,0,0.4,0.1,0.6c0.2,0.2,0.5,0.3,0.7,0.4
				c0.8,0.1,1.6,0.2,2.4,0.3c0.9,0,2,0.7,2.7-0.1c0.1-0.2,0.1-0.4,0.1-0.6C127.5,71.8,127.2,71.5,126.9,71.4z M127.1,72.5
				c-0.2,0.1-0.3,0.1-0.6,0.1c-1.3-0.3-2.7-0.4-4-0.6c-0.2,0-0.4-0.1-0.5-0.3c0-0.1,0-0.2,0.1-0.3c0.4-0.3,0.8-0.1,1.2-0.1
				c1.2,0.1,2.5,0.3,3.6,0.6c0.1,0.1,0.3,0.2,0.3,0.3C127.3,72.3,127.2,72.4,127.1,72.5z"/>
		</g>
		<g>
			<path class="st0" d="M110.9,73.2c-0.1-0.2-0.2-0.4,0-0.6c0.2-0.3,0.6-0.3,0.8-0.1c0.1,0.1,0.1,0.3,0.1,0.4c0,0.2-0.2,0.3-0.3,0.4
				l0.6,0c0,0,0.1-0.1,0.1-0.1c0.1-0.3,0.1-0.7-0.2-1s-0.8-0.4-1.2-0.2c-0.3,0.1-0.5,0.4-0.5,0.7c0,0.4,0.1,0.7,0.4,0.9
				c0.1,0.1,0.3,0.2,0.5,0.2l0.3-0.5C111.3,73.3,111,73.3,110.9,73.2z"/>
		</g>
		<g>
			<path class="st0" d="M112.1,73.3l-0.6,0l-0.3,0.5c0.1,0,0.1,0,0.2,0C111.7,73.7,112,73.5,112.1,73.3z"/>
		</g>
		<g>
			<path class="st0" d="M129.1,72c-0.3-0.1-0.8,0-1,0.3c-0.2,0.3-0.2,0.6-0.1,0.9c0.2,0.3,0.5,0.6,0.8,0.6c0.3,0.1,0.7-0.1,0.9-0.4
				c0.2-0.3,0.3-0.7,0.1-1C129.7,72.2,129.5,72,129.1,72z M129.2,73.3c-0.2,0.1-0.4,0.1-0.6-0.1c-0.1-0.2-0.2-0.4,0-0.6
				c0.1-0.1,0.2-0.2,0.3-0.2c0.2-0.1,0.3,0,0.4,0.1c0.1,0.1,0.2,0.3,0.2,0.4C129.5,73.1,129.4,73.2,129.2,73.3z"/>
		</g>
		<g>
			<path class="st0" d="M108.6,74.3c-0.1,0-0.2-0.1-0.3-0.2c-0.1-0.2-0.1-0.3,0-0.4c0.1-0.1,0.2-0.2,0.3-0.3l-0.2-0.5
				c-0.1,0.1-0.2,0.1-0.3,0.2c-0.3,0.2-0.3,0.5-0.3,0.8c0.1,0.3,0.3,0.6,0.6,0.7c0.2,0,0.4,0,0.6,0l-0.1-0.3
				C108.8,74.2,108.7,74.2,108.6,74.3z"/>
		</g>
		<g>
			<path class="st0" d="M109.9,73.1c-0.1-0.2-0.2-0.3-0.5-0.4c-0.3-0.1-0.7,0-1,0.2l0.2,0.5c0.3-0.3,0.7-0.3,0.9-0.1
				c0.1,0.1,0.2,0.3,0.1,0.5c-0.2,0.2-0.4,0.3-0.7,0.4l0.1,0.3c0.4-0.1,0.7-0.3,1-0.6C110.1,73.7,110.1,73.4,109.9,73.1z"/>
		</g>
		<g>
			<path class="st0" d="M132,73.6c0,0.2,0,0.2,0,0.4c-0.1,0.1-0.1,0.2-0.3,0.2c-0.1,0-0.2,0-0.3-0.1l-0.2,0.3
				c0.2,0.1,0.5,0.1,0.7,0.1c0.1,0,0.3-0.2,0.4-0.3c0.2-0.2,0.2-0.6,0.1-0.9c-0.1-0.2-0.3-0.3-0.5-0.4l-0.2,0.4
				C131.8,73.4,131.9,73.5,132,73.6z"/>
		</g>
		<g>
			<path class="st0" d="M130.4,73.2c-0.1,0.3-0.2,0.6,0.1,0.9c0.2,0.2,0.5,0.3,0.7,0.4l0.2-0.3c-0.2-0.1-0.5-0.2-0.7-0.4
				c-0.1-0.1,0-0.2,0-0.4c0.1-0.1,0.2-0.3,0.4-0.3c0.2,0.1,0.4,0.2,0.6,0.3l0.2-0.4c-0.3-0.2-0.6-0.3-0.7-0.3
				C130.8,72.7,130.5,72.9,130.4,73.2z"/>
		</g>
		<g>
			<path class="st0" d="M109.4,76.3c-0.1-0.2-0.2-0.4-0.1-0.6c0.1-0.3,0.3-0.4,0.5-0.5l-0.5,0l0-0.1c-0.1,0.1-0.3,0.2-0.4,0.4
				c-0.2,0.3-0.1,0.7,0.1,1s0.7,0.3,1,0.3c0,0,0,0,0.1,0l-0.2-0.4C109.7,76.4,109.6,76.4,109.4,76.3z"/>
		</g>
		<g>
			<path class="st0" d="M130.6,75.2c0.2,0.1,0.4,0.3,0.5,0.5c0,0.2,0,0.3-0.1,0.5c-0.2,0.1-0.4,0.2-0.6,0.1c0,0-0.1,0-0.1,0l0,0
				l-0.2,0.4c0,0,0,0,0,0c0.4,0.2,0.6,0.2,1,0c0.3-0.2,0.4-0.4,0.4-0.7s-0.1-0.7-0.4-0.9c-0.1,0-0.1-0.1-0.2-0.1l0,0.1L130.6,75.2z"
				/>
		</g>
		<g>
			<path class="st0" d="M130.3,76.2c-4.5-1.7-9-1.8-13.3-1.6c-2.3,0.2-4.8,0.8-7.1,1.7c0,0,0,0,0,0l0.2,0.4c3.5-1.4,7-1.9,10.6-1.8
				c3.2,0,6.3,0.5,9.4,1.7L130.3,76.2L130.3,76.2z"/>
		</g>
		<g>
			<path class="st0" d="M128.5,73.9l0.4,0.5c0.4,0.2,0.9,0.4,1.3,0.6c0.2,0,0.4,0.1,0.5,0.2l0.3-0.1l0-0.1c-0.7-0.3-1.4-0.5-2-0.9
				C128.8,74,128.6,74,128.5,73.9z"/>
		</g>
		<g>
			<path class="st0" d="M120,73.3c1.7,0,3.3,0,5,0.2l2.1,0c-1.6-0.4-3.3-0.6-4.8-0.7c-0.2,0-0.5,0-0.7,0v0.1h-2.8
				c-1.4,0.1-3,0.1-4.5,0.4l3,0C118.2,73.3,119.1,73.3,120,73.3z"/>
		</g>
		<g>
			<path class="st0" d="M109.8,75.2c0.2-0.1,0.5-0.1,0.7-0.2l0.4-0.7c-0.1,0-0.2,0.1-0.3,0.1c-0.4,0.2-0.9,0.3-1.3,0.6l0,0.1
				L109.8,75.2z"/>
		</g>
		<g>
			<path class="st0" d="M110.8,74.9c2.1-1,4.3-1.4,6.4-1.5l-3,0c-1.1,0.2-2.3,0.5-3.3,1l-0.4,0.7C110.6,75,110.7,74.9,110.8,74.9z"
				/>
		</g>
		<g>
			<path class="st0" d="M128.8,74.4l-0.4-0.5c-0.5-0.2-0.9-0.3-1.4-0.5l-2.1,0C126.3,73.6,127.5,73.9,128.8,74.4z"/>
		</g>
		<g>
			<rect x="108.9" y="82.2" class="st0" width="0.5" height="8.7"/>
		</g>
		<g>
			<rect x="108.9" y="104.1" class="st0" width="0.5" height="20.9"/>
		</g>
		<g>
			<rect x="131" y="81.9" class="st0" width="0.5" height="43.1"/>
		</g>
	</g>
</g>
<g id="Capa_2" class="st1">
	<g id="XMLID_104_" class="st2">
		<path id="XMLID_1516_" class="st3" d="M77.9,148.3c0-1.3-1-1.8-2.5-1.8H66v3.6h9.4C77,150.1,77.9,149.5,77.9,148.3 M81,140.3
			c3.2,0,5.5,2.2,6.7,4.4c0.7,1.1,1.2,3.7,0.5,5.9c-0.9,2.9-3.1,4.7-5.7,5.1l6.3,10.8H78c-1.9-3.3-4-6.7-6.1-10.2h-5.8v10.2h-9.5
			v-26.2H81z"/>
		<path id="XMLID_1513_" class="st3" d="M110.5,140.3l10.6,26.2h-10.2l-1.1-2.7H98.5l-1,2.7h-9.8l11.1-26.2H110.5z M104,149l-3,8.3
			h6.1L104,149z"/>
		<path id="XMLID_1512_" class="st3" d="M146.1,141.6c3.2,1.2,6.3,4.6,6.3,7.8l-10.6,0.7c0-1.1-1.3-2.5-2.3-2.9
			c-1.9-1-5.4-1.4-7.5,0.1c-2.6,1.9-2.9,4.4-2.7,6.9c-0.1,2.2,1.4,4.6,2.8,5.4c1.6,1,5.6,1.7,8.1-0.2c0.8-0.7,1.5-1.4,1.8-2.6
			l10.7,0.8c-0.5,4.1-3.9,7.3-7.5,8.4c-5.6,1.9-16.3,2-21.9-2.2c-3.4-2.4-5-8.5-4.3-12.4c0.2-3.2,2.7-8.5,7-9.9
			C130.8,138.9,141.3,139.2,146.1,141.6"/>
		<polygon id="XMLID_1511_" class="st3" points="182.9,140.3 182.9,146.6 164.1,146.6 164.1,150.3 179.6,150.3 179.6,156.5 
			164.1,156.5 164.1,160.2 184.1,160.2 184.1,166.4 154.6,166.4 154.6,140.3 		"/>
		<polygon id="XMLID_1510_" class="st4" points="109.8,75.3 113.5,81.9 126.4,82 130.3,75.3 128.1,72.5 111.5,72.3 		"/>
		<polygon id="XMLID_1509_" class="st5" points="109.8,75.3 113.5,81.9 126.4,82 130.3,75.3 128.1,72.5 111.5,72.3 		"/>
		<polygon id="XMLID_1508_" class="st6" points="108.1,71.2 109.3,74.2 110.8,74.3 116.9,72.7 120.4,72.7 125,73 127.1,73.5 
			130.1,74.4 130.9,74.1 132.3,71.2 131.1,70.1 126.4,68.8 121.1,68.4 117,68.5 112.5,69.2 109.1,70.2 		"/>
		<polygon id="XMLID_1507_" class="st7" points="108.1,71.2 109.3,74.2 110.8,74.3 116.9,72.7 120.4,72.7 125,73 127.1,73.5 
			130.1,74.4 130.9,74.1 132.3,71.2 131.1,70.1 126.4,68.8 121.1,68.4 117,68.5 112.5,69.2 109.1,70.2 		"/>
		<polygon id="XMLID_1506_" class="st6" points="121.6,74.7 121.9,77.5 124.9,77.9 125.9,75.3 128.7,76.1 128.3,78.8 131.1,80 
			132.8,77.7 135.3,79.2 134.2,81.8 136.6,83.6 138.8,81.8 140.8,83.9 139,86.1 140.9,88.5 143.5,87.4 144.9,89.9 142.7,91.5 
			143.8,94.4 146.6,93.9 147.4,96.7 144.7,97.7 145.1,100.8 147.9,101.1 147.9,104 145.1,104.3 144.7,107.3 147.4,108.3 
			146.6,111.1 143.8,110.7 142.7,113.5 144.9,115.1 143.5,117.7 140.9,116.5 139,118.9 140.8,121.1 138.8,123.2 136.6,121.4 
			134.2,123.3 135.3,125.9 132.8,127.3 131.1,125 128.3,126.2 128.7,129 125.9,129.7 124.9,127.1 121.9,127.5 121.6,130.3 
			118.7,130.3 118.4,127.5 115.4,127.1 114.4,129.7 111.6,129 112,126.2 109.2,125 107.5,127.3 105,125.9 106.1,123.3 103.7,121.4 
			101.5,123.2 99.5,121.1 101.3,118.9 99.4,116.5 96.8,117.7 95.4,115.1 97.6,113.5 96.5,110.7 93.7,111.1 92.9,108.3 95.6,107.3 
			95.2,104.3 92.4,104 92.4,101.1 95.2,100.8 95.6,97.7 92.9,96.7 93.7,93.9 96.5,94.4 97.6,91.5 95.4,89.9 96.8,87.4 99.4,88.5 
			101.3,86.1 99.5,83.9 101.5,81.8 103.7,83.6 106.1,81.8 105,79.2 107.5,77.7 109.2,80 112,78.8 111.6,76.1 114.4,75.3 115.4,77.9 
			118.4,77.5 118.7,74.7 		"/>
		<polygon id="XMLID_1505_" class="st8" points="121.6,74.7 121.9,77.5 124.9,77.9 125.9,75.3 128.7,76.1 128.3,78.8 131.1,80 
			132.8,77.7 135.3,79.2 134.2,81.8 136.6,83.6 138.8,81.8 140.8,83.9 139,86.1 140.9,88.5 143.5,87.4 144.9,89.9 142.7,91.5 
			143.8,94.4 146.6,93.9 147.4,96.7 144.7,97.7 145.1,100.8 147.9,101.1 147.9,104 145.1,104.3 144.7,107.3 147.4,108.3 
			146.6,111.1 143.8,110.7 142.7,113.5 144.9,115.1 143.5,117.7 140.9,116.5 139,118.9 140.8,121.1 138.8,123.2 136.6,121.4 
			134.2,123.3 135.3,125.9 132.8,127.3 131.1,125 128.3,126.2 128.7,129 125.9,129.7 124.9,127.1 121.9,127.5 121.6,130.3 
			118.7,130.3 118.4,127.5 115.4,127.1 114.4,129.7 111.6,129 112,126.2 109.2,125 107.5,127.3 105,125.9 106.1,123.3 103.7,121.4 
			101.5,123.2 99.5,121.1 101.3,118.9 99.4,116.5 96.8,117.7 95.4,115.1 97.6,113.5 96.5,110.7 93.7,111.1 92.9,108.3 95.6,107.3 
			95.2,104.3 92.4,104 92.4,101.1 95.2,100.8 95.6,97.7 92.9,96.7 93.7,93.9 96.5,94.4 97.6,91.5 95.4,89.9 96.8,87.4 99.4,88.5 
			101.3,86.1 99.5,83.9 101.5,81.8 103.7,83.6 106.1,81.8 105,79.2 107.5,77.7 109.2,80 112,78.8 111.6,76.1 114.4,75.3 115.4,77.9 
			118.4,77.5 118.7,74.7 		"/>
		<path id="XMLID_1504_" class="st6" d="M96.6,102.5c0-13,10.5-23.5,23.5-23.5s23.5,10.5,23.5,23.5S133.1,126,120.1,126
			C107.2,126,96.6,115.5,96.6,102.5"/>
		<g id="XMLID_1498_">
			<g>
				<defs>
					<path id="SVGID_1_" d="M96.6,102.5c0,13,10.5,23.5,23.5,23.5s23.5-10.5,23.5-23.5S133.1,79,120.1,79
						C107.2,79,96.6,89.5,96.6,102.5"/>
				</defs>
				<clipPath id="SVGID_2_">
					<use xlink:href="#SVGID_1_"  style="overflow:visible;"/>
				</clipPath>
				<rect id="XMLID_1503_" x="92.3" y="74.7" class="st9" width="55.8" height="55.7"/>
			</g>
			<g>
				<defs>
					<path id="SVGID_3_" d="M96.6,102.5c0,13,10.5,23.5,23.5,23.5s23.5-10.5,23.5-23.5S133.1,79,120.1,79
						C107.2,79,96.6,89.5,96.6,102.5"/>
				</defs>
				<clipPath id="SVGID_4_">
					<use xlink:href="#SVGID_3_"  style="overflow:visible;"/>
				</clipPath>
				<rect id="XMLID_1502_" x="92.3" y="74.7" class="st10" width="55.8" height="55.7"/>
			</g>
			<g>
				<defs>
					<path id="SVGID_5_" d="M96.6,102.5c0,13,10.5,23.5,23.5,23.5s23.5-10.5,23.5-23.5S133.1,79,120.1,79
						C107.2,79,96.6,89.5,96.6,102.5"/>
				</defs>
				<clipPath id="SVGID_6_">
					<use xlink:href="#SVGID_5_"  style="overflow:visible;"/>
				</clipPath>
				<rect id="XMLID_1501_" x="109.2" y="77.5" class="st11" width="21.8" height="50.1"/>
			</g>
			<g>
				<defs>
					<path id="SVGID_7_" d="M96.6,102.5c0,13,10.5,23.5,23.5,23.5s23.5-10.5,23.5-23.5S133.1,79,120.1,79
						C107.2,79,96.6,89.5,96.6,102.5"/>
				</defs>
				<clipPath id="SVGID_8_">
					<use xlink:href="#SVGID_7_"  style="overflow:visible;"/>
				</clipPath>
				<rect id="XMLID_1500_" x="109.2" y="77.5" class="st12" width="21.8" height="50.1"/>
			</g>
		</g>
		<path id="XMLID_1497_" class="st13" d="M96.6,102.5c0-13,10.5-23.5,23.5-23.5s23.5,10.5,23.5,23.5S133.1,126,120.1,126
			C107.2,126,96.6,115.5,96.6,102.5z"/>
		<path id="XMLID_1494_" class="st6" d="M107.8,120.4c0,0.1,0,0.2,0.1,0.3c0.3,0.2,0.7,0.2,1,0.1c0.2-0.1,0.4-0.2,0.6-0.3h1.3
			c0,0.4,0,0.6,0.1,0.8c0.2,0.7,0.4,1.8,1.4,1.8c0.4-0.4,0.2-1.1,0.8-1.3c0.5-0.2,1,0.1,1.1,0.5c0.2,0.6-0.2,1-0.6,1.3
			c-0.5,0.3-1.3,0.3-1.8,0.1c-1.2-0.5-1.5-1.8-1.7-2.8c-1.4,0.7-1.3,0.7-2,0.8c-0.5,0.1-1.1-0.2-1.5-0.6c-0.1-0.2-0.2-0.3-0.3-0.5
			h1.5V120.4z M131.4,120.4c0.1,0.1,0.3,0.1,0.5,0.2c0.3,0,0.6,0,0.8-0.2h1.1c-0.1,0.2-0.3,0.3-0.5,0.5c-0.8,0.6-2.1,0.4-2.9,0
			c-0.6,0-0.3,0.8-0.6,1.2c-0.2,0.8-0.8,1.4-1.6,1.9c-0.8,0.4-1.9,0.5-2.6-0.1c-0.3-0.3-0.6-0.9-0.3-1.3c0.1-0.3,0.4-0.5,0.8-0.5
			c0.3,0,0.7,0.1,0.8,0.5c0.3,0.6-0.7,1.1,0.2,1.4c0.8,0.2,1.2-0.5,1.5-1c0.4-0.7,0.2-1.5-0.1-2.3h2.9V120.4z"/>
		<path id="XMLID_1488_" class="st6" d="M111.5,116.4c-0.5,2.4-0.7,3.4-0.7,4h-1.3c0.8-0.6,0.7-1.2,1-2.1l0.4-1.9H111.5z
			 M120.8,116.4c-0.1,0.1-0.2,0.1-0.2,0.2c-0.8,0.5-1.7,0.3-2.6,0.1c-0.2-0.1-0.4-0.1-0.6-0.2L120.8,116.4L120.8,116.4z
			 M133.4,116.4c-0.3,0.1-0.6,0.3-1,0.3c-1.4,0.3-2.7,0.2-2.7,0.2c0.3,1.2,0.5,2.9,1.7,3.5h-2.8c-0.1-0.3-0.1-0.5-0.2-0.8
			c-0.2-0.7-1-3.2-1-3.2l0,0H133.4z M106.4,120.4c-0.1-0.2-0.1-0.5,0-0.8c0.2-0.3,0.5-0.7,0.9-0.7c0.3-0.1,0.5,0.1,0.6,0.2
			c0.1,0.2,0.3,0.5,0.1,0.8c-0.1,0.1-0.2,0.3-0.2,0.4L106.4,120.4L106.4,120.4z M132.7,120.4c0.1,0,0.1-0.1,0.2-0.1
			c0.2-0.7-0.9-0.9-0.5-1.7c0.2-0.3,0.6-0.5,1-0.4c0.5,0.2,0.6,0.6,0.8,1c0,0.5-0.2,0.8-0.5,1.1L132.7,120.4L132.7,120.4z"/>
		<path id="XMLID_1484_" class="st6" d="M107.2,106.4c0.8,3,2,7.1,2,7.1c-1.1-0.6-0.3,0.5-2.3,1.9c-1,0.6-1.8,0.7-2.6,0.4
			c-0.6-0.3-1.3-1-1.4-1.5s0-1.1,0.3-1.5c0.3-0.3,0.5-0.5,1.1-0.3c0.4,0.1,0.4,0.3,0.6,0.5c0.1,0.4,0,0.6-0.5,0.9
			c-0.2,0.1-0.5,0.2-0.5,0.4c0,0.6,0.6,0.9,1.1,1.1c0.8,0.2,1.5-0.3,1.9-0.9c0.4-0.7,0.1-1.6-0.1-2.4l-1.7-5.7H107.2z M120.1,106.4
			c0,0.1,0,0.1,0,0.2h-0.7c-1.7,0-3.1,0-4.8,0c-0.4,0-0.6,0-0.6-0.2h-2.5c0.3,0.7,0.6,1.5,0.7,2.2c0.1,0.3,0.1,0.5,0.1,0.7
			c0.1,1.2-0.1,1.9-0.8,4.7l-0.6,2.4h0.6c0.1-0.5,0.2-1,0.4-1.6c0.1-0.5,0.4-1.6,0.4-1.6s0.3-1.1,0.5-1.8l0.1-0.4
			c1,1.9,2.3,4.5,4.4,5.4h3.5c0.5-0.4,0.8-1,0.8-1.8c0-0.5-0.2-0.8-0.5-1.1c-0.3-0.4-0.7-0.6-1.1-0.4c-0.4,0.1-0.8,0.5-0.5,1.1
			c0.5,0.8,1.2-0.3,1.6,0.6c0.1,0.3,0.1,0.7-0.2,1c-0.3,0.3-0.8,0.4-1.6,0.3c-3-0.2-4.7-6.5-4.9-7.1c-0.5-1.4-0.5-1.7-0.5-1.7
			l6.3,0.1c0,0,0.2-0.2,0.8,1.4c1.1,3.1,4.1,7,6.5,7.7h6c0.7-0.3,1.4-0.8,2.1-1.3c0.5-0.6,1.2-1.1,1.3-2c0.6-1.1,0.4-2.8,0.2-4.1
			c-0.5-1.2-1.5-2.3-2.8-2.5c-1.1-0.2-2.2,0.1-3,0.8c-0.9,0.6-1,1.7-0.9,2.8c0.1,0.7,0.8,1.2,1.4,1.4c0.6,0.1,1-0.1,1.4-0.5
			c0.1-0.3,0.2-0.5,0-0.8c-0.1-0.2-0.3-0.2-0.5-0.3c-0.5-0.2-0.8,0.2-1.2,0.5c-0.5-0.1-0.4-0.6-0.5-1c0-0.7,0.3-1.4,0.8-1.8
			s1.3-0.4,2-0.3c0.8,0.5,1.6,1,1.8,2c0.3,0.3,0.1,0.8,0.3,1.1c0.3,2-0.8,3.7-2.1,4.9c-1.2,0.7-2.6,1.4-4,1c0,0-1.3-4.7-2.7-9.7H125
			l0.1,0.2h-2.5c0-0.1,0-0.1,0-0.2h-2.5V106.4z M124.9,107.2l2.4,8.4c-0.5-0.2-0.9-0.6-1.6-1.4c-2.1-2.6-3.5-6-3.5-7.1L124.9,107.2
			L124.9,107.2z"/>
		<path id="XMLID_1481_" class="st6" d="M105.1,106.4l-2.5-8.6c-0.3-0.8-0.7-1.4-1.1-1.6c-0.2-0.1-0.6-0.1-0.6-0.3
			c0,0,0.1-1.4,2.5-0.6c0.3-0.3,0.1-1,0.2-1.7c0.5-2.1,1.2-3.7,3.2-4.4c1.9-0.6,3.6-0.3,4.8,1.3c0.4,0.6,0.5,1,0.8,1.6
			c0.3,1,0.4,1.6,0.4,2.6c0,1.2-0.3,1.8-0.7,2.9c-0.8,1.9-2.6,3.3-3.4,4.2c-0.2,0.2,0.2,0.4,0.3,0.5c1.8,0.6,3.1,1.6,4.1,3.2
			l0.4,0.7l5.1-20.6c0.1-0.7,0.2-1.3,0.1-2c-0.3-0.6-0.9-1.3-1.4-1.7c1.1-0.2,4.5-0.2,5.5-0.1c-0.1,0.2-1.2,1.2-1.4,1.7
			c-0.2,0.6-0.2,1.4-0.1,2.2c0.2,0.4,1.8,6.5,1.8,6.5c0.9-1,1.9-2.2,2.8-2.8c1.6-1.2,4.4-2.7,7.6-1c0.6,0.2,1,0.6,1.5,1
			c0.3,0.5,0.8,1,0.9,1.6c0,0,0.3,0.6,0.3,1c0.2,1.1,0.3,2.3-0.2,3.6c-0.5,1.2-1.1,1.9-2.2,2.4c-1.2,0.6-2.3,0.5-3.3-0.3
			c-0.9-0.7-1.4-1.5-1.2-2.6c0.1-0.8,0.5-1.4,1.2-1.8c0.7-0.3,1.2-0.2,1.8,0c0.3,0.2,1,0.6,0.7,1.5c-0.1,0.4-0.4,0.6-0.8,0.6
			c-0.4,0-0.6-0.2-0.8-0.4c-0.2-0.2,0-0.6-0.3-0.7c-0.4-0.2-0.7,0.4-0.9,0.9s0.1,0.9,0.4,1.4c0.5,0.7,1.2,0.8,2.1,0.7
			c1.3-0.2,1.9-1.4,2.2-2.7c0.2-0.9,0-1.6-0.3-2.4c-0.4-1.3-1.6-2.7-3.3-3c-2.3-0.3-4,0.8-6.9,4.2c-0.6,0.7-0.8,1.5-0.8,1.5
			c0.1,0.4,1.7,6.2,3.2,11.7h-2.1l-2.2-8.5c-0.2,0.5-0.4,1.2-0.5,1.8c-0.3,2.5,0,5.3,0.2,6.7H120c-0.3-2.1-0.5-3.7-0.2-6
			c0.3-3,1.9-6.1,1.9-6.1l-2.6-9.3l-0.1,0.3c-0.3,1.4-4.4,18.8-5,20.8c0,0.1,0,0.2,0,0.3h-2.5c-0.8-1.7-2-3.2-2.3-3.3
			c-0.5-0.1-0.9-0.7-1.5-0.4c-0.4,0.4-1.4,0.8-1.4,0.8c0.1,0.3,0.4,1.5,0.9,3L105.1,106.4z M110.3,93.2c0.7,1.7,0.5,3.1-0.1,4.9
			c-0.6,1.7-1.3,2.7-2.8,3.8c-0.5,0.4-0.8,0.6-1.3,0.8l-1.8-6.5c0-1.9,0-4.2,1.9-5.1c0.4-0.2,0.6-0.3,1-0.3
			C108.7,90.5,109.7,91.7,110.3,93.2"/>
		<path id="XMLID_1475_" class="st14" d="M122.7,81.8c-0.1,0.2-1.2,1.2-1.4,1.7c-0.2,0.6-0.2,1.4-0.1,2.2c0.2,0.4,1.8,6.5,1.8,6.5
			c0.9-1,1.9-2.2,2.8-2.8c1.6-1.2,4.4-2.7,7.6-1c0.6,0.2,1,0.6,1.5,1c0.3,0.5,0.8,1,0.9,1.6c0,0,0.3,0.6,0.3,0.9
			c0.2,1.1,0.3,2.3-0.2,3.6c-0.5,1.2-1.1,1.9-2.2,2.4c-1.2,0.6-2.3,0.5-3.3-0.3c-0.9-0.7-1.4-1.5-1.2-2.6c0.1-0.8,0.5-1.4,1.2-1.8
			c0.7-0.3,1.2-0.2,1.8,0c0.3,0.2,1,0.6,0.7,1.5c-0.1,0.4-0.4,0.6-0.8,0.6c-0.4,0-0.6-0.2-0.8-0.4c-0.2-0.2,0-0.6-0.3-0.7
			c-0.4-0.2-0.7,0.4-0.9,0.9s0.1,0.9,0.4,1.4c0.5,0.7,1.2,0.8,2.1,0.7c1.3-0.2,1.9-1.4,2.2-2.7c0.2-0.9,0-1.6-0.3-2.4
			c-0.4-1.3-1.6-2.7-3.3-3c-2.3-0.3-4,0.8-6.9,4.2c-0.6,0.7-0.8,1.5-0.8,1.5c0.1,0.7,6,21.4,6,21.4c1.4,0.5,2.8-0.3,4-1
			c1.4-1.1,2.4-2.8,2.1-4.9c-0.2-0.3,0-0.8-0.3-1.1c-0.2-1-1-1.5-1.8-2c-0.7-0.1-1.5-0.1-2,0.3c-0.6,0.4-0.8,1.1-0.8,1.8
			c0.1,0.4,0,0.9,0.5,1c0.4-0.2,0.7-0.6,1.2-0.5c0.2,0.1,0.3,0.1,0.5,0.3c0.1,0.3,0,0.5,0,0.8c-0.4,0.4-0.8,0.6-1.4,0.5
			c-0.7-0.2-1.3-0.7-1.4-1.4c-0.1-1.1,0-2.2,0.9-2.8c0.7-0.7,1.9-1,3-0.8c1.3,0.3,2.3,1.3,2.8,2.5c0.3,1.3,0.5,2.9-0.2,4.1
			c-0.1,0.9-0.8,1.4-1.3,2c-0.9,0.8-1.9,1.4-3,1.7c-1.4,0.3-2.7,0.2-2.7,0.2c0.3,1.3,0.6,3.3,2.2,3.6c0.4,0,0.7-0.1,1-0.2
			c0.2-0.7-0.9-0.9-0.5-1.7c0.2-0.3,0.6-0.5,1-0.4c0.5,0.2,0.7,0.6,0.8,1c0,0.7-0.5,1.2-1,1.6c-0.8,0.6-2.1,0.4-2.9,0
			c-0.6,0-0.3,0.8-0.6,1.2c-0.2,0.8-0.8,1.4-1.6,1.9c-0.8,0.4-1.9,0.5-2.6-0.1c-0.3-0.3-0.6-0.9-0.3-1.3c0.1-0.3,0.4-0.5,0.8-0.5
			c0.3,0,0.7,0.1,0.8,0.5c0.3,0.6-0.7,1.1,0.2,1.4c0.8,0.2,1.2-0.5,1.5-1c0.5-1-0.1-2.1-0.3-3.1c-0.2-0.7-1-3.2-1-3.2
			c-2.4-0.7-5.5-4.6-6.6-7.7c-0.6-1.5-0.8-1.4-0.8-1.4l-6.3-0.1c0,0,0.1,0.3,0.5,1.7c0.2,0.6,1.9,6.9,4.9,7.1c0.8,0,1.3,0,1.6-0.3
			c0.3-0.3,0.4-0.7,0.2-1c-0.4-0.9-1.1,0.2-1.6-0.6c-0.4-0.6,0.1-1,0.5-1.1c0.4-0.2,0.8,0.1,1.1,0.4c0.3,0.4,0.5,0.6,0.5,1.1
			c0,0.9-0.3,1.6-1,2c-0.8,0.5-1.7,0.3-2.6,0.1c-2.5-0.7-3.9-3.6-5-5.7l-0.1,0.4c-0.2,0.7-0.5,1.8-0.5,1.8s-0.3,1.1-0.4,1.6
			c-1.3,5.7-1.2,5.8-1,6.4c0.2,0.7,0.4,1.8,1.4,1.8c0.4-0.4,0.2-1.1,0.8-1.3c0.5-0.2,1,0.1,1.1,0.5c0.2,0.6-0.2,1-0.6,1.3
			c-0.5,0.3-1.3,0.3-1.8,0.1c-1.2-0.5-1.5-1.8-1.7-2.8c-1.4,0.7-1.3,0.7-2,0.8c-0.5,0.1-1.1-0.2-1.5-0.6c-0.3-0.3-0.5-0.8-0.3-1.3
			c0.2-0.3,0.5-0.7,0.9-0.7c0.3-0.1,0.5,0.1,0.6,0.2c0.1,0.2,0.3,0.5,0.1,0.8c-0.1,0.2-0.3,0.5-0.1,0.7c0.3,0.2,0.7,0.2,1,0.1
			c1.5-0.7,1.2-1.3,1.6-2.5l1-4.3c0.7-2.8,0.9-3.5,0.8-4.7c0-0.3,0-0.4-0.1-0.7c-0.3-2.5-2.6-5.3-3-5.6c-0.5-0.1-0.9-0.7-1.5-0.4
			c-0.4,0.4-1.4,0.8-1.4,0.8c0.3,0.8,2.8,10.1,2.8,10.1c-1.1-0.6-0.3,0.5-2.3,1.9c-1,0.6-1.8,0.7-2.6,0.4c-0.6-0.3-1.3-1-1.4-1.5
			s0-1.1,0.3-1.5c0.3-0.3,0.5-0.5,1.1-0.3c0.4,0.1,0.4,0.3,0.6,0.5c0.1,0.4,0,0.6-0.5,0.9c-0.2,0.1-0.5,0.2-0.5,0.4
			c0,0.6,0.6,0.9,1.1,1.1c0.8,0.2,1.5-0.3,1.9-0.9c0.4-0.7,0.1-1.6-0.1-2.4L102,97.9c-0.3-0.8-0.7-1.4-1.1-1.6
			c-0.2-0.1-0.6-0.1-0.6-0.3c0,0,0.1-1.4,2.5-0.6c0.3-0.3,0.1-1,0.2-1.7c0.5-2.1,1.2-3.7,3.2-4.4c1.9-0.6,3.6-0.3,4.8,1.3
			c0.4,0.6,0.5,1,0.8,1.6c0.3,1,0.4,1.6,0.4,2.6c0,1.2-0.3,1.8-0.7,2.9c-0.8,1.9-2.6,3.3-3.4,4.2c-0.2,0.2,0.2,0.4,0.3,0.5
			c1.8,0.6,3.1,1.6,4.1,3.2l0.4,0.7l5.1-20.6c0.1-0.7,0.2-1.3,0.1-2c-0.3-0.6-0.9-1.3-1.4-1.7C118.3,81.7,121.7,81.7,122.7,81.8z
			 M121.7,94.2c0,0-1.5,3.1-1.9,6.1c-0.3,2.3,0,4,0.3,6.2h-0.7c-1.7,0-3.1,0-4.8,0c-0.5,0-0.7,0-0.5-0.5c0.6-2,4.7-19.4,5-20.8
			l0.1-0.3L121.7,94.2z M110.3,93.2c0.7,1.7,0.5,3.1-0.1,4.9c-0.6,1.7-1.3,2.7-2.8,3.8c-0.5,0.4-0.8,0.6-1.3,0.8l-1.8-6.5
			c0-1.9,0-4.2,1.9-5.1c0.4-0.2,0.6-0.3,1-0.3C108.7,90.5,109.7,91.7,110.3,93.2z M124.8,106.6h-2.5c-0.2-1.3-0.6-4.2-0.2-6.9
			c0.1-0.6,0.3-1.2,0.5-1.8L124.8,106.6z M124.9,107.2l2.4,8.4c-0.5-0.2-0.9-0.6-1.6-1.4c-2.1-2.6-3.5-6-3.5-7.1L124.9,107.2
			L124.9,107.2z"/>
		<path id="XMLID_1474_" class="st15" d="M121,46.8C121.1,46.8,121.1,46.9,121,46.8l0.1,1c0.3,0.1,0.7-0.1,0.9,0.2v1.5
			c0,0.1-0.1,0.1-0.2,0.1h-0.9c0,0.3,0.1,0.7,0.2,1c0.2,0.2,0.4,0.4,0.6,0.7h0.1c0.3-0.3,0.6-0.3,1-0.3c0.3,0.1,0.7,0.4,0.8,0.7
			c0.3-0.3,0.7-0.4,1.1-0.4c0.4,0.1,0.7,0.4,0.9,0.8c0.1,0,0.1,0,0.2,0.1c0.4-0.2,0.9-0.2,1.2,0.1c0.4,0.3,0.5,0.8,0.3,1.2
			c0.4-0.2,0.9-0.2,1.2,0.1c0.1,0.1,0.2,0.2,0.3,0.3c0.2-0.3,0.5-0.5,0.8-0.5c0.3-0.1,0.7,0.1,0.9,0.3c0.1,0.1,0.2,0.3,0.2,0.4
			c0.3-0.3,0.7-0.4,1-0.3c0.3,0.1,0.6,0.3,0.8,0.7c0.3-0.2,0.7-0.3,1-0.1s0.6,0.4,0.7,0.8c0.3-0.2,0.8-0.2,1.1,0.1
			c0.3,0.2,0.5,0.6,0.5,1c0.4-0.1,0.9-0.1,1.2,0.3c0.2,0.3,0.3,0.6,0.2,0.9c0.3,0,0.7,0.1,1,0.4c0.3,0.4,0.4,0.8,0.2,1.2
			c0.4,0,0.7,0.2,0.9,0.6c0.2,0.4,0.2,0.9-0.2,1.2L139,61c0.3,0.1,0.6,0.5,0.7,0.8c0,0.3,0,0.7-0.3,1l-0.2,0.1c0.2,0,0.4,0,0.5,0.2
			c0.2,0.4,0.1,0.9-0.1,1.2c-0.4,0.6-0.9,1.2-1.5,1.6c0,0.7-0.4,1.5-1.1,1.9c-0.3,0.1-0.7,0.2-1-0.1l0,0l0,0c-1,1.1-2.4,1.8-3.8,1.7
			c0.5,0.2,1,0.5,1.2,1c0.1,0.3,0,0.6-0.2,0.9c-0.7,0.7-1.6-0.1-2.4-0.2c-6.3-1.8-12.2-2-18.5-0.6c-1.4,0.3-2.6,0.7-3.9,1.1
			c-0.3,0-0.6,0-0.8-0.3c-0.2-0.3-0.3-0.7-0.1-1.1c0.2-0.4,0.7-0.6,1.1-0.7c-1.2,0-2.5-0.4-3.4-1.3l-0.4-0.4c-0.2,0.3-0.7,0.3-1,0.1
			c-0.8-0.3-1.2-1.2-1.2-1.9c-0.7-0.6-1.5-1.3-1.8-2.2c0-0.2,0-0.4,0.1-0.6c0.1-0.1,0.3-0.2,0.5-0.2c0-0.1-0.1-0.1-0.2-0.2
			c-0.2-0.2-0.4-0.6-0.3-0.9c0-0.3,0.3-0.7,0.7-0.9c-0.3-0.3-0.4-0.7-0.3-1.1c0.1-0.3,0.3-0.6,0.6-0.7l0.4-0.1
			c-0.2-0.3-0.1-0.6,0-0.9c0.2-0.3,0.5-0.6,0.9-0.6h0.3c-0.1-0.3,0-0.6,0.2-0.9c0.3-0.3,0.7-0.5,1.1-0.4h0.1c0-0.4,0.1-0.6,0.4-0.9
			c0.3-0.3,0.6-0.3,1-0.2l0.3,0.1c0-0.3,0.3-0.6,0.5-0.8c0.4-0.2,0.8-0.1,1.1,0.1c0.1-0.3,0.4-0.6,0.7-0.7c0.3-0.1,0.7,0,1,0.3
			c0.1-0.3,0.4-0.6,0.7-0.7c0.3-0.1,0.7-0.1,1,0.2c0.1,0.1,0.2,0.2,0.3,0.3c0.2-0.3,0.5-0.5,0.9-0.5c0.2,0,0.4,0,0.5,0.1
			c-0.1-0.4,0-0.8,0.3-1.1s0.7-0.4,1.1-0.3c0.1,0,0.3,0.1,0.4,0h0.1c0.1-0.4,0.5-0.7,0.9-0.8s0.8,0.1,1,0.4c0.1-0.3,0.4-0.6,0.8-0.7
			c0.4-0.1,0.8,0,1,0.3c0.1,0,0.2-0.2,0.3-0.3c0.1-0.2,0.2-0.3,0.4-0.4l0.2-1l0,0H119c-0.1,0-0.2-0.1-0.2-0.2v-1.4
			c0.2-0.3,0.6-0.1,0.9-0.2c0-0.3,0-0.6,0-1l0.1-0.1L121,46.8z"/>
		<path id="XMLID_1473_" class="st6" d="M120.7,48.2c0.1,0.3,0.6,0.1,0.9,0.2v0.9h-1c-0.1,0.1-0.1,0.2-0.1,0.3l0.1,0.8
			c-0.3-0.1-0.6-0.1-0.9,0c0-0.3,0.2-0.7,0.1-1.1l-0.1-0.1h-1v-0.9c0.3-0.1,0.8,0.2,0.9-0.2v-0.9h1.1V48.2z"/>
		<path id="XMLID_1472_" class="st6" d="M121.3,51.5c0.2,0.4,0.2,1-0.2,1.4c-0.3,0.4-0.8,0.5-1.3,0.4s-0.9-0.5-1-1s0.1-1,0.5-1.3
			s0.9-0.3,1.3,0C121,51,121.2,51.3,121.3,51.5"/>
		<path id="XMLID_1471_" class="st6" d="M118.4,51.8c0.1,0.2,0.1,0.5,0,0.7s-0.4,0.4-0.6,0.4s-0.5-0.1-0.6-0.4
			c-0.1-0.3-0.1-0.6,0.1-0.8s0.5-0.2,0.7-0.2C118.1,51.5,118.3,51.6,118.4,51.8"/>
		<path id="XMLID_1407_" class="st6" d="M123.2,51.8c0.1,0.2,0.1,0.5,0,0.7s-0.4,0.3-0.7,0.3c-0.3,0-0.5-0.2-0.6-0.5
			c0-0.2-0.1-0.5,0.1-0.7s0.5-0.3,0.8-0.2C122.9,51.5,123.1,51.6,123.2,51.8"/>
		<path id="XMLID_1406_" class="st6" d="M116.5,52.1c0.1,0.2,0.1,0.4,0,0.6c-0.1,0.3-0.5,0.4-0.7,0.4c-0.3-0.1-0.5-0.3-0.6-0.5
			c0-0.2,0-0.5,0.2-0.6c0.2-0.2,0.5-0.2,0.7-0.1C116.3,51.9,116.4,52,116.5,52.1"/>
		<path id="XMLID_1405_" class="st6" d="M125,52.1c0.1,0.2,0.2,0.5,0,0.8c-0.2,0.2-0.5,0.3-0.8,0.3c-0.3-0.1-0.4-0.3-0.5-0.5
			c0-0.2,0.1-0.5,0.2-0.6C124.3,51.7,124.8,51.7,125,52.1"/>
		<path id="XMLID_1404_" class="st6" d="M114.6,52.9c0.1,0.3,0.1,0.5-0.1,0.8c-0.2,0.2-0.5,0.3-0.7,0.2s-0.5-0.3-0.5-0.6
			c0-0.2,0.1-0.5,0.3-0.7C114,52.5,114.4,52.6,114.6,52.9"/>
		<path id="XMLID_1403_" class="st6" d="M126.7,52.7c0.2,0.2,0.3,0.5,0.3,0.6c0,0.2-0.2,0.5-0.4,0.5c-0.2,0.1-0.5,0.1-0.7-0.1
			c-0.2-0.2-0.3-0.5-0.2-0.7c0.1-0.2,0.3-0.5,0.6-0.5C126.4,52.6,126.6,52.6,126.7,52.7"/>
		<path id="XMLID_1402_" class="st6" d="M121.8,53.3c0.7,1.7,0.6,3.4,0.6,4.9l-0.1,1.3c-0.2-0.2-0.6-0.3-0.9-0.3
			c0.1-2.1,0.1-3.9-0.1-6c0.1,0,0.1-0.2,0.2-0.1C121.7,53.1,121.8,53.2,121.8,53.3"/>
		<path id="XMLID_1401_" class="st6" d="M118.9,53.7c-0.2,1.8-0.2,3.8-0.1,5.6c-0.4,0-0.7,0.1-0.9,0.3c-0.1-1.9-0.1-4.2,0.8-6.3
			c0-0.1,0.1-0.1,0.1-0.1C119.1,53.2,118.9,53.5,118.9,53.7"/>
		<path id="XMLID_1400_" class="st6" d="M118,53.9c-2.1,0.3-4.2,1.6-4.9,3.7c-0.3,0.9-0.5,1.9-0.6,2.9c-0.3-0.1-0.6-0.1-0.9,0
			c0.2-2.5,1.5-5.5,4.2-6.5c0.8-0.3,1.7-0.4,2.4-0.4L118,53.9z"/>
		<path id="XMLID_1399_" class="st6" d="M127.7,56.6c0.6,1.2,1,2.5,1.1,3.7c-0.3-0.1-0.6-0.1-0.9,0l0,0c-0.1-2-0.8-4.3-2.8-5.5
			c-0.8-0.5-1.8-0.8-2.6-1c0-0.2-0.1-0.3-0.1-0.5C124.4,53.4,126.7,54.7,127.7,56.6"/>
		<path id="XMLID_1398_" class="st6" d="M111.1,54.2c0.1,0.2,0.1,0.4-0.1,0.7c-0.2,0.2-0.5,0.3-0.7,0.2c-0.3-0.1-0.4-0.3-0.5-0.5
			c0-0.2,0.1-0.5,0.4-0.6C110.6,53.8,111,53.9,111.1,54.2"/>
		<path id="XMLID_1397_" class="st6" d="M130.2,54c0.1,0.1,0.2,0.3,0.2,0.5s-0.2,0.4-0.4,0.5s-0.5,0-0.7-0.1
			c-0.2-0.2-0.2-0.4-0.1-0.7c0.1-0.2,0.3-0.4,0.5-0.4C129.8,53.8,130,53.9,130.2,54"/>
		<path id="XMLID_1396_" class="st6" d="M112.8,54.1c0.2,0.1,0.3,0.3,0.3,0.5s-0.1,0.5-0.4,0.7c-0.3,0.1-0.5,0.1-0.7,0
			c-0.3-0.2-0.3-0.5-0.3-0.8c0.1-0.2,0.3-0.4,0.5-0.5C112.5,53.9,112.7,53.9,112.8,54.1"/>
		<path id="XMLID_1395_" class="st6" d="M128.3,54.1c0.1,0.1,0.2,0.3,0.3,0.5c0,0.2-0.1,0.5-0.3,0.6c-0.3,0.1-0.6,0.1-0.8,0
			c-0.2-0.2-0.3-0.5-0.2-0.7c0.1-0.3,0.3-0.5,0.6-0.5C128,53.9,128.2,54,128.3,54.1"/>
		<path id="XMLID_1394_" class="st6" d="M120.8,54.4c0.2,0.3,0.1,0.6-0.1,0.9c-0.2,0.2-0.5,0.2-0.7,0.2c-0.2-0.1-0.4-0.3-0.5-0.5
			c0-0.2,0-0.4,0.1-0.6c0.2-0.3,0.5-0.4,0.8-0.3C120.5,54.1,120.7,54.3,120.8,54.4"/>
		<path id="XMLID_1393_" class="st6" d="M109.3,54.6c0.1,0.3,0.1,0.5-0.1,0.7c-0.1,0.1-0.3,0.2-0.5,0.2s-0.3-0.1-0.5-0.2
			c-0.2-0.1-0.2-0.4-0.2-0.5c0-0.2,0.2-0.5,0.4-0.5C108.8,54.2,109.1,54.3,109.3,54.6"/>
		<path id="XMLID_1392_" class="st6" d="M132,54.4c0.1,0.2,0.2,0.4,0.2,0.6c-0.1,0.2-0.3,0.4-0.5,0.4s-0.3,0-0.5-0.2
			c-0.2-0.3-0.3-0.5-0.1-0.8c0.1-0.1,0.3-0.2,0.4-0.3C131.7,54.3,131.9,54.3,132,54.4"/>
		<path id="XMLID_1391_" class="st4" d="M117.8,54.4c-0.5,2-0.4,3.6-0.3,5.5v0.2c-0.1,0.4-0.1,0.8,0.1,1.1c-0.4-0.2-0.8-0.1-1.1,0.1
			c-0.3,0.2-0.5,0.5-0.5,0.8c-0.1,0.5,0.4,1,0.2,1.5c-0.2,0.6-0.4,1.2,0.1,1.8c0.1,0.1,0.3,0.2,0.4,0.3c-0.6,0.2-1.2,0.2-1.7,0.2
			c0.4-0.3,0.5-0.7,0.5-1.1c-0.1-0.5-0.5-0.9-0.6-1.5c0-0.6,0.2-1.4-0.5-1.8c-0.4-0.2-0.8-0.2-1.2,0.1c-0.1,0.1-0.2,0.2-0.3,0.3
			c0.2-0.4,0.2-0.9,0-1.3c0-1.8,0.6-4.3,2.5-5.5C116.2,54.8,117,54.5,117.8,54.4"/>
		<path id="XMLID_1390_" class="st4" d="M126.8,57.5c0.5,1.1,0.6,2.2,0.7,3.3c-0.3,0.4-0.3,0.9,0,1.3c-0.2-0.3-0.7-0.6-1-0.5
			c-0.4,0-0.9,0.3-1.1,0.7c-0.3,0.7,0.2,1.1-0.2,1.7c-0.3,0.5-0.6,1.1-0.3,1.7c0.1,0.1,0.2,0.3,0.3,0.4c-0.5,0-1.2,0-1.8-0.2
			c0.3-0.1,0.6-0.4,0.8-0.7c0.2-0.6-0.3-1.1-0.2-1.8c0.2-0.7,0.5-1.4-0.2-2c-0.4-0.3-0.7-0.3-1.1-0.2c0.2-0.3,0.2-0.7,0.1-1.1
			c0.2-1.8,0.3-3.9-0.1-5.8C124.4,54.7,126.1,55.8,126.8,57.5"/>
		<path id="XMLID_1389_" class="st6" d="M107.5,54.9c0.2,0.2,0.2,0.4,0.2,0.6c0,0.2-0.2,0.3-0.3,0.4c-0.2,0.1-0.5,0.1-0.7,0
			s-0.3-0.5-0.2-0.6c0-0.2,0.3-0.4,0.5-0.5C107.2,54.7,107.4,54.7,107.5,54.9"/>
		<path id="XMLID_1388_" class="st6" d="M133.8,55.1c0.1,0.3,0.1,0.5-0.1,0.7c-0.2,0.2-0.4,0.2-0.7,0.2c-0.2-0.1-0.4-0.3-0.4-0.5
			s0.1-0.5,0.2-0.6c0.2-0.1,0.4-0.2,0.6-0.1C133.6,54.8,133.7,54.9,133.8,55.1"/>
		<path id="XMLID_1387_" class="st6" d="M106,55.7c0.2,0.2,0.2,0.5,0.1,0.7s-0.3,0.3-0.5,0.3c-0.3,0-0.5-0.1-0.6-0.4
			c-0.1-0.2-0.1-0.4,0-0.5c0.1-0.2,0.3-0.3,0.5-0.3S105.9,55.5,106,55.7"/>
		<path id="XMLID_1386_" class="st6" d="M135.3,55.8c0.1,0.2,0.1,0.5,0,0.7c-0.2,0.2-0.4,0.3-0.7,0.2c-0.2-0.1-0.4-0.2-0.5-0.5
			c0-0.2,0-0.3,0.1-0.5s0.3-0.2,0.5-0.3C134.9,55.4,135.2,55.6,135.3,55.8"/>
		<path id="XMLID_1385_" class="st6" d="M111.9,55.8c0.1,0.3,0.1,0.5,0,0.7c-0.1,0.1-0.3,0.2-0.4,0.3c-0.2,0-0.5,0-0.7-0.2
			s-0.2-0.5-0.1-0.8c0.1-0.2,0.3-0.3,0.5-0.3C111.5,55.5,111.8,55.6,111.9,55.8"/>
		<path id="XMLID_1384_" class="st6" d="M129.6,55.8c0.1,0.2,0.1,0.4,0,0.7c-0.1,0.2-0.4,0.4-0.6,0.3c-0.3,0-0.5-0.2-0.6-0.5
			s0-0.5,0.2-0.7s0.4-0.2,0.6-0.2C129.4,55.5,129.5,55.7,129.6,55.8"/>
		<path id="XMLID_1383_" class="st6" d="M120.8,56.3c0.1,0.3,0.2,0.5,0,0.8c-0.2,0.2-0.4,0.4-0.7,0.3c-0.2,0-0.4-0.2-0.5-0.4
			c-0.1-0.3-0.1-0.5,0.1-0.7c0.2-0.3,0.5-0.3,0.8-0.3C120.5,56,120.7,56.2,120.8,56.3"/>
		<path id="XMLID_1382_" class="st6" d="M103.9,60.8c-0.1,0.4-0.3,0.9-0.4,1.4c-0.1,0-0.3,0-0.4,0c-0.3-1.7,0.9-3.4,2.3-4.4
			c1.1-0.8,2.3-1.3,3.5-1.6C106.9,57.2,104.6,58.5,103.9,60.8"/>
		<path id="XMLID_1381_" class="st6" d="M137.2,61c0.1,0.3,0.1,0.8,0,1.1h-0.4c-0.2-1.9-1.6-3.8-3.4-4.9c-0.7-0.4-1.4-0.8-2.1-1.2
			C133.8,56.7,136.5,58.4,137.2,61"/>
		<path id="XMLID_1380_" class="st6" d="M109.1,60.9c-0.4,0.1-0.6,0.5-0.7,0.9c0,0.4,0,0.7,0.3,1h-0.4c-0.6-2-0.5-4.2,1-6.2l0.3-0.3
			C109,57.9,109,59.4,109.1,60.9"/>
		<path id="XMLID_1379_" class="st6" d="M132,62.8h-0.4c0.4-0.4,0.4-0.8,0.2-1.2c-0.1-0.3-0.4-0.5-0.6-0.6c0.2-1.4,0.1-3.1-0.5-4.5
			C132.4,58.2,132.7,60.7,132,62.8"/>
		<path id="XMLID_1378_" class="st6" d="M104.5,56.7c0.2,0.2,0.2,0.5,0.1,0.7s-0.2,0.3-0.4,0.4c-0.2,0.1-0.5,0-0.7-0.2
			c-0.1-0.2-0.2-0.3-0.2-0.5s0.2-0.4,0.4-0.5C104.1,56.5,104.4,56.5,104.5,56.7"/>
		<path id="XMLID_1377_" class="st6" d="M136.7,56.7c0.2,0.2,0.2,0.4,0.2,0.6c0,0.1-0.1,0.3-0.3,0.4c-0.1,0.1-0.3,0.1-0.5,0.1
			c-0.2-0.1-0.4-0.3-0.5-0.5c0-0.1,0-0.3,0.1-0.5s0.3-0.3,0.5-0.3C136.3,56.5,136.5,56.6,136.7,56.7"/>
		<path id="XMLID_1086_" class="st4" d="M107.9,62.9c-0.4,0.1-0.7,0.5-0.7,0.8c-0.1,0.5,0.3,1.1,0.5,1.6c0.2,0.6-0.2,1.2,0.2,1.8
			c0.2,0.3,0.6,0.4,0.9,0.4c-1,0.4-1.9,0.5-2.8-0.1c0.3,0,0.6-0.2,0.8-0.5c0.3-0.6-0.1-1.2-0.5-1.7c-0.1-0.2,0-0.4,0-0.6
			c0-0.4-0.1-1.1-0.7-1.4c-0.5-0.2-1-0.1-1.3,0.3c0.1-0.3-0.1-0.8-0.4-1c0.2-2,1.5-3.7,3.3-4.7c0.4-0.3,0.9-0.5,1.4-0.8
			C107.4,58.7,107.2,60.9,107.9,62.9"/>
		<path id="XMLID_1085_" class="st4" d="M136.2,61.4c0.1,0.3,0.2,0.7,0.2,1c-0.3,0.3-0.4,0.7-0.4,1c-0.3-0.3-0.7-0.4-1.1-0.3
			c-0.6,0.1-0.8,0.8-0.9,1.2c-0.1,0.3,0.1,0.7,0,1c-0.4,0.5-0.7,1.1-0.5,1.7c0.2,0.3,0.5,0.5,0.8,0.5c-0.5,0.4-1.2,0.5-1.8,0.4
			c-0.4-0.1-0.7-0.2-1-0.3c0.4,0,0.8-0.2,1-0.6c0.3-0.5,0-1.1,0.1-1.6c0.3-0.6,0.8-1.3,0.4-2c-0.1-0.2-0.4-0.4-0.6-0.5
			c0.6-2,0.5-4.1-0.7-6C133.6,57.8,135.6,59.2,136.2,61.4"/>
		<path id="XMLID_1084_" class="st6" d="M111.2,57.6c0.2,0.2,0.1,0.5,0,0.7c-0.2,0.2-0.5,0.3-0.8,0.3c-0.3-0.1-0.5-0.3-0.5-0.5
			c0-0.3,0.1-0.5,0.3-0.7C110.5,57.2,111,57.2,111.2,57.6"/>
		<path id="XMLID_1082_" class="st6" d="M130.2,57.4c0.2,0.1,0.3,0.4,0.2,0.6c0,0.2-0.2,0.5-0.5,0.6s-0.5,0-0.7-0.2
			s-0.2-0.5-0.1-0.8c0.1-0.2,0.3-0.3,0.6-0.4C129.8,57.2,130,57.3,130.2,57.4"/>
		<path id="XMLID_1081_" class="st6" d="M120.8,58.2c0.1,0.3,0.1,0.5,0,0.7s-0.3,0.3-0.5,0.3s-0.4,0-0.6-0.1s-0.3-0.3-0.3-0.5
			s0-0.4,0.1-0.6c0.1-0.2,0.3-0.3,0.6-0.3C120.4,57.8,120.7,58,120.8,58.2"/>
		<path id="XMLID_1079_" class="st6" d="M103.3,58c0.2,0.2,0.3,0.4,0.2,0.6c-0.1,0.3-0.3,0.5-0.6,0.5c-0.2,0-0.3,0-0.5-0.2
			s-0.2-0.4-0.2-0.6c0.1-0.2,0.3-0.4,0.5-0.5C103,57.9,103.1,57.9,103.3,58"/>
		<path id="XMLID_1078_" class="st6" d="M137.9,58c0.2,0.2,0.2,0.4,0.2,0.7c-0.1,0.3-0.3,0.4-0.6,0.4c-0.1,0-0.4,0-0.5-0.2
			c-0.2-0.2-0.2-0.4-0.1-0.7c0.1-0.2,0.3-0.3,0.5-0.4C137.5,57.9,137.7,57.9,137.9,58"/>
		<path id="XMLID_1076_" class="st6" d="M111,59.7c0.1,0.2,0,0.4-0.1,0.6c-0.2,0.2-0.4,0.3-0.7,0.3c-0.2,0-0.4-0.2-0.6-0.4
			c-0.1-0.2,0-0.4,0-0.6c0.1-0.2,0.4-0.4,0.6-0.4C110.6,59.2,110.9,59.4,111,59.7"/>
		<path id="XMLID_1028_" class="st6" d="M130.6,59.6c0.1,0.2,0.1,0.5,0,0.6c-0.1,0.2-0.4,0.3-0.6,0.3c-0.3,0-0.5-0.2-0.6-0.4
			s-0.1-0.5,0.1-0.7c0.1-0.2,0.3-0.3,0.6-0.3C130.2,59.2,130.5,59.4,130.6,59.6"/>
		<path id="XMLID_1026_" class="st6" d="M102.5,59.8c0.1,0.3,0.1,0.5-0.2,0.8c-0.2,0.1-0.4,0.2-0.6,0.1c-0.2-0.1-0.4-0.3-0.4-0.4
			c-0.1-0.2,0-0.4,0.2-0.6c0.2-0.2,0.4-0.2,0.7-0.1C102.3,59.5,102.5,59.6,102.5,59.8"/>
		<path id="XMLID_1023_" class="st6" d="M138.9,59.8c0.1,0.2,0.1,0.4-0.1,0.6c-0.1,0.2-0.4,0.3-0.7,0.3c-0.2,0-0.3-0.2-0.4-0.3
			c-0.1-0.3-0.1-0.5,0.1-0.7c0.2-0.2,0.4-0.3,0.7-0.1C138.7,59.5,138.8,59.7,138.9,59.8"/>
		<path id="XMLID_1011_" class="st6" d="M122.2,60.2c0.4,0.8-0.7,1.5-0.9,2.2c-0.4-0.4-1.1-0.6-1.6-0.4c-0.3,0.1-0.5,0.2-0.7,0.4
			c-0.3-0.6-0.7-1.1-1-1.6c-0.1-0.2,0-0.5,0.1-0.7c0.7-0.7,1.6,0.2,2.3,0C121.1,59.9,121.8,59.5,122.2,60.2"/>
		<path id="XMLID_712_" class="st15" d="M120.2,60.8c0.4-0.1,0.7-0.3,1.1-0.2c-0.5,0.1-0.9,0.7-1.5,0.5c-0.3-0.1-0.6-0.4-1-0.5
			C119.3,60.4,119.8,60.9,120.2,60.8"/>
		<path id="XMLID_707_" class="st6" d="M112.4,60.9c0.6,0.6-0.2,1.4-0.2,2.1v0.1c-0.5-0.3-1.2-0.2-1.7,0.1l-0.3,0.3
			c-0.4-0.4-0.8-0.7-1.2-1.2c-0.1-0.3-0.1-0.6,0.1-0.9c0.5-0.4,1.1,0,1.7-0.2C111.3,61.1,111.8,60.5,112.4,60.9"/>
		<path id="XMLID_706_" class="st6" d="M130.2,61.3c0.3,0,0.8-0.1,1,0.2c0.2,0.2,0.2,0.5,0.1,0.8c-0.4,0.5-0.8,0.8-1.2,1.3
			c-0.4-0.6-1.1-0.7-1.7-0.6l-0.3,0.1c-0.2-0.6-0.5-1.1-0.5-1.7c0-0.2,0.2-0.5,0.4-0.5C128.9,60.5,129.5,61.6,130.2,61.3"/>
		<path id="XMLID_702_" class="st6" d="M102.2,61.5c0.1,0.2,0.1,0.4,0,0.6c-0.1,0.2-0.4,0.3-0.7,0.3c-0.3-0.1-0.4-0.3-0.5-0.5
			c0-0.1,0-0.3,0.1-0.5c0.2-0.2,0.4-0.3,0.7-0.2C102,61.3,102.1,61.4,102.2,61.5"/>
		<path id="XMLID_701_" class="st6" d="M139.2,61.5c0.1,0.2,0.1,0.4,0,0.6c-0.1,0.2-0.3,0.3-0.5,0.3s-0.5-0.2-0.6-0.4s0-0.5,0.2-0.7
			c0.2-0.1,0.4-0.2,0.6-0.2C138.9,61.2,139.1,61.4,139.2,61.5"/>
		<path id="XMLID_700_" class="st15" d="M111.9,61.3c-0.4,0.2-0.8,1-1.4,0.9c-0.3-0.1-0.7-0.3-1-0.3c0.5-0.2,1,0.2,1.6-0.2
			C111.4,61.6,111.6,61.3,111.9,61.3"/>
		<path id="XMLID_699_" class="st15" d="M129.6,61.9c0.3,0,0.8-0.1,1.1,0c-0.5,0-1,0.5-1.5,0.2c-0.3-0.2-0.5-0.6-0.9-0.8
			C128.8,61.3,129.2,61.8,129.6,61.9"/>
		<path id="XMLID_698_" class="st6" d="M123.6,61.9c0.3,0.6-0.2,1.2-0.2,1.8c0.1,0.5,0.6,1.3-0.1,1.6c-0.6,0.3-1.1-0.2-1.6-0.4
			l-0.4-0.3c0.4-0.5,0.5-1.2,0.3-1.8c0.1-0.2,0.3-0.5,0.4-0.8c0.4-0.2,0.8-0.7,1.2-0.5C123.4,61.7,123.6,61.8,123.6,61.9"/>
		<path id="XMLID_697_" class="st6" d="M118.2,62.1l0.5,0.7c-0.2,0.5-0.2,1.3,0.3,1.8c-0.4,0.5-1,0.6-1.6,0.8c-0.2,0-0.4,0-0.5-0.1
			c-0.6-0.6,0-1.2,0-1.9c0-0.5-0.6-1.2-0.1-1.7c0.2-0.2,0.5-0.3,0.7-0.2L118.2,62.1z"/>
		<path id="XMLID_696_" class="st6" d="M114.5,62.4c0.2,0.6-0.2,1.2,0.2,1.8c0.3,0.4,0.6,0.9,0.2,1.4c-0.5,0.5-1.2,0-1.8,0l-0.5-0.2
			c0-0.1,0.1-0.3,0.2-0.4c0.1-0.6,0-1.2-0.5-1.6l0.1-0.3c0.5-0.3,0.9-1.3,1.6-1C114.3,62.1,114.5,62.2,114.5,62.4"/>
		<path id="XMLID_694_" class="st6" d="M127.7,63.1l0.1,0.2c-0.6,0.6-0.6,1.3-0.3,2l0,0c-0.5,0.4-1.2,0.3-1.7,0.4
			c-0.2,0-0.5-0.1-0.6-0.3c-0.4-0.8,0.7-1.4,0.5-2.2c0-0.4-0.2-0.9,0.3-1.2c0.3-0.1,0.5-0.1,0.7,0L127.7,63.1z"/>
		<path id="XMLID_691_" class="st15" d="M123,63.6c0.1,0.4,0.3,0.8,0.2,1.1c-0.1-0.5-0.6-0.8-0.5-1.3c0.1-0.4,0.4-0.7,0.6-1.1
			C123.3,62.8,122.9,63.3,123,63.6"/>
		<path id="XMLID_690_" class="st4" d="M121.1,62.8c0.3,0.4,0.4,0.9,0.1,1.3c-0.2,0.3-0.5,0.5-0.9,0.6c-0.4,0-0.7-0.1-1-0.4
			c-0.3-0.4-0.4-0.8-0.2-1.3c0.2-0.4,0.6-0.6,1-0.6C120.4,62.4,120.8,62.5,121.1,62.8"/>
		<path id="XMLID_688_" class="st15" d="M117.6,63.8c-0.1,0.4-0.4,0.7-0.5,1c-0.1-0.5,0.4-0.9,0.3-1.4c-0.1-0.3-0.3-0.7-0.2-1
			C117.3,62.9,117.8,63.4,117.6,63.8"/>
		<path id="XMLID_687_" class="st6" d="M103.7,62.8c0.4,0.6,0,1.1-0.1,1.7l-0.1,0.3c-0.3-0.1-0.7-0.1-1,0.2
			c-0.1,0.1-0.1,0.2-0.2,0.3c-0.6-0.5-1.2-1.1-1.4-1.9v-0.1c0.3-0.2,0.6,0.2,0.9,0c0.5-0.2,0.9-0.7,1.4-0.7
			C103.4,62.6,103.6,62.6,103.7,62.8"/>
		<path id="XMLID_686_" class="st6" d="M139.1,63.3c0.1,0,0.2,0,0.3,0s0,0.2,0,0.3c-0.2,0.7-0.8,1.3-1.4,1.8
			c-0.1-0.2-0.3-0.5-0.5-0.5s-0.4,0-0.6,0c-0.2-0.6-0.3-1.1-0.4-1.8c0.1-0.2,0.3-0.4,0.5-0.5C137.8,62.5,138.3,63.6,139.1,63.3"/>
		<path id="XMLID_685_" class="st15" d="M114.2,64.3c0.1,0.3,0.4,0.6,0.4,0.9c-0.2-0.4-0.9-0.7-0.9-1.3c0-0.4,0.3-0.6,0.3-1
			C114.3,63.3,113.9,63.8,114.2,64.3"/>
		<path id="XMLID_684_" class="st15" d="M126.4,64.3c-0.2,0.3-0.6,0.6-0.8,0.9c0-0.5,0.5-0.8,0.6-1.3c0-0.3-0.1-0.7,0-1.1
			C126.2,63.3,126.7,63.7,126.4,64.3"/>
		<path id="XMLID_683_" class="st15" d="M103.3,63.2c0,0.3,0,0.9-0.1,1.3c-0.1-0.3,0-0.6-0.2-0.9c-0.3,0.2-0.4,0.6-0.8,0.5
			c-0.3-0.1-0.6-0.3-0.9-0.3c0.3-0.3,0.7,0.1,1,0c0.3-0.2,0.5-0.6,0.9-0.7C103.2,63,103.3,63.1,103.3,63.2"/>
		<path id="XMLID_682_" class="st15" d="M138.2,63.8c0.3,0,0.6-0.2,0.9,0c-0.5-0.1-1,0.7-1.4,0.1l-0.3-0.3c-0.1,0-0.1,0.1-0.1,0.2
			l-0.1,0.8c-0.1-0.4-0.2-0.9-0.1-1.3v-0.1C137.5,63.2,137.7,63.6,138.2,63.8"/>
		<path id="XMLID_681_" class="st6" d="M109.7,63.7l0.2,0.2c-0.2,0.5-0.1,1.2,0.2,1.6c0.1,0.2,0.3,0.3,0.4,0.4
			c-0.1,0.2-0.2,0.3-0.3,0.4L109,67c-0.2,0.1-0.5,0-0.7-0.1c-0.6-0.6,0.1-1.3-0.4-2c-0.3-0.4-0.6-1-0.3-1.4
			C108.3,62.9,109,63.6,109.7,63.7"/>
		<path id="XMLID_680_" class="st6" d="M132.7,63.6c0.3,0.7-0.5,1.2-0.5,1.9c0,0.5,0.2,1-0.2,1.4c-0.7,0.5-1.3-0.4-1.9-0.6
			c-0.1-0.1-0.2-0.3-0.3-0.4c0.5-0.3,0.8-0.9,0.8-1.4c0.1-0.2-0.3-0.6,0.1-0.8l1.4-0.5C132.2,63.3,132.5,63.4,132.7,63.6"/>
		<path id="XMLID_679_" class="st4" d="M112.2,63.8c0.4,0.4,0.4,0.9,0.2,1.3c-0.2,0.3-0.5,0.5-0.8,0.6c-0.4,0.1-0.8-0.1-1.1-0.4
			c-0.3-0.3-0.4-0.7-0.3-1.1c0.1-0.3,0.4-0.7,0.7-0.8C111.4,63.3,111.9,63.4,112.2,63.8"/>
		<path id="XMLID_678_" class="st4" d="M129.8,63.7c0.3,0.3,0.4,0.7,0.3,1.1c-0.1,0.4-0.5,0.8-0.9,0.9c-0.5,0.1-1-0.1-1.3-0.5
			c-0.2-0.4-0.2-0.8,0-1.2c0.2-0.4,0.6-0.6,1-0.6C129.2,63.4,129.5,63.5,129.8,63.7"/>
		<path id="XMLID_670_" class="st6" d="M105.7,63.8c0.2,0.4,0.2,0.9,0.1,1.3c0.1,0.6,0.9,1.1,0.6,1.7c-0.3,0.3-1,0.2-0.9,0.7
			c0.3,0.5,0.9,0.6,1.3,0.7c1.6,0.3,3.4-0.7,4.4-2.1h0.4c0.1,0.5,0.1,1.2-0.3,1.7c-1.6,1.2-3.5,1.4-5.2,0.6c-0.6-0.3-1-0.8-1.5-1.2
			c0.2-0.7-0.1-1.6-0.7-2.2c0.3-0.5,0.4-1.4,1.1-1.6C105.3,63.5,105.5,63.5,105.7,63.8"/>
		<path id="XMLID_669_" class="st6" d="M135.8,63.8c0.3,0.3,0.3,0.8,0.6,1.2c-0.6,0.5-0.9,1.5-0.7,2.2c-0.8,0.8-1.7,1.5-2.8,1.6
			c-1.3,0.2-2.8-0.1-4-1.1c-0.4-0.5-0.3-1.1-0.2-1.6c0.1,0,0.3,0,0.4,0c1.1,1.5,3,2.5,4.7,2c0.4-0.1,0.9-0.3,1-0.7
			c0-0.2-0.1-0.3-0.2-0.4c-0.3-0.1-0.6-0.1-0.7-0.4c-0.2-0.6,0.7-1.1,0.6-1.7c-0.1-0.4-0.1-0.9,0.2-1.2c0.2-0.2,0.3-0.2,0.5-0.2
			C135.5,63.5,135.7,63.7,135.8,63.8"/>
		<path id="XMLID_667_" class="st15" d="M108.9,65.5c-0.1,0.3-0.3,0.7-0.2,0.9c-0.2-0.5,0.1-1-0.1-1.4c-0.1-0.3-0.5-0.6-0.5-1
			C108.3,64.5,109.1,64.9,108.9,65.5"/>
		<path id="XMLID_665_" class="st15" d="M131.6,65.3c0,0.3,0.1,0.8,0,1.1c0-0.5-0.5-1-0.1-1.5c0.2-0.3,0.5-0.5,0.7-0.8
			C132.2,64.5,131.7,64.8,131.6,65.3"/>
		<path id="XMLID_664_" class="st15" d="M105.4,65.2c0.2,0.4,0.6,0.8,0.6,1.2c-0.4-0.5-0.9-0.8-1-1.3c0-0.3,0.1-0.7,0-1
			C105.3,64.5,105.2,64.8,105.4,65.2"/>
		<path id="XMLID_658_" class="st15" d="M135,65.7l-0.7,0.7c0.1-0.5,0.6-0.9,0.7-1.4c0.1-0.3,0-0.7,0.2-0.9
			C135.1,64.7,135.5,65.2,135,65.7"/>
		<path id="XMLID_645_" class="st6" d="M119.8,65.1c-0.6,0.8-1.3,1.6-2.3,2.1c-1.1,0.4-2.2,0.4-3.3,0.2c-0.8-0.2-1.7-0.6-2.1-1.4
			l0.3-0.2c1.9,0.7,3.8,1.1,5.6,0.1c0.5-0.3,1-0.6,1.5-0.9L119.8,65.1z"/>
		<path id="XMLID_644_" class="st6" d="M125.9,66.4c0.7-0.1,1.4-0.4,2.1-0.6l0.3,0.2c-1.1,1.8-3.2,1.6-4.9,1.4
			c-1.2-0.3-2.1-1.4-2.8-2.2l0.3-0.1C122.3,66.1,124.1,66.8,125.9,66.4"/>
		<path id="XMLID_643_" class="st6" d="M104.1,66.2c0.1,0.4,0.2,0.7,0,1.1c-0.1,0.1-0.2,0.1-0.3,0.2c0-0.7-0.3-1.5-0.9-2.1
			c0,0-0.1,0,0,0c0.2-0.1,0.3-0.1,0.5,0C103.8,65.4,104,65.8,104.1,66.2"/>
		<path id="XMLID_642_" class="st6" d="M137.4,65.3c-0.6,0.5-0.9,1.2-1,1.9v0.2c-0.2,0-0.3-0.1-0.3-0.2c-0.2-0.5,0-1.2,0.4-1.6
			C136.7,65.4,137,65.1,137.4,65.3L137.4,65.3"/>
		<path id="XMLID_641_" class="st6" d="M122,67.3c-0.2,0-0.3,0-0.5,0h-2.7l0,0h-0.5c0.7-0.5,1.3-1.2,1.9-1.9
			C120.7,66.1,121.3,66.7,122,67.3"/>
		<path id="XMLID_640_" class="st4" d="M136.9,67.2c0.1-0.5,0.3-1,0.7-1.4C137.6,66.2,137.4,66.9,136.9,67.2"/>
		<path id="XMLID_639_" class="st4" d="M103.4,67.2c-0.5-0.3-0.7-0.9-0.6-1.4C103.1,66.2,103.3,66.7,103.4,67.2"/>
		<path id="XMLID_638_" class="st6" d="M113.7,67.8c-0.7,0.1-1.4,0.3-2.1,0.5c0.4-0.4,0.6-1,0.6-1.4
			C112.5,67.2,113.1,67.6,113.7,67.8"/>
		<path id="XMLID_636_" class="st6" d="M128.7,68.2c-0.6-0.1-1.4-0.3-2.1-0.5c0.6-0.1,1.1-0.5,1.6-1
			C128.2,67.2,128.3,67.9,128.7,68.2"/>
		<path id="XMLID_629_" class="st6" d="M123.1,67.8c0.7,0.2,1.4,0.2,2.2,0.2c2.3,0.3,4.8,1,7.1,1.9c0.2,0.1,0.5,0.4,0.5,0.6
			c0,0.1-0.1,0.3-0.2,0.4c-0.2,0.1-0.4,0.1-0.5,0.1c-6.5-2.2-12.7-2.5-19.2-1.3c-1.5,0.3-3.2,0.8-4.7,1.3c-0.1,0-0.3,0-0.5-0.1
			c-0.2-0.2-0.2-0.4-0.1-0.6c0.2-0.4,0.6-0.5,0.9-0.6c2.3-0.9,4.5-1.5,6.9-1.8c0.6,0,1.3,0,1.9-0.2C119,67.7,121.2,67.6,123.1,67.8"
			/>
		<path id="XMLID_628_" class="st15" d="M121,70.2c0.1,0.4,0.1,0.7-0.2,1.1c-0.2,0.2-0.5,0.3-0.8,0.3s-0.6-0.3-0.8-0.6
			c-0.1-0.3-0.1-0.5,0.1-0.8s0.4-0.4,0.7-0.4C120.4,69.6,120.8,69.8,121,70.2"/>
		<path id="XMLID_595_" class="st15" d="M118.5,70.2c0.2,0.3,0.2,0.6,0,0.9c-0.6,0.6-1.4,0.4-2.1,0.5c-0.9,0.1-1.8,0.2-2.7,0.4
			c-0.3,0-0.7-0.1-1-0.3c-0.2-0.3-0.2-0.5-0.1-0.8c0.5-0.7,1.4-0.6,2-0.8c1-0.1,1.9-0.3,2.8-0.3C117.9,69.8,118.2,69.9,118.5,70.2"
			/>
		<path id="XMLID_594_" class="st15" d="M126.9,70.4c0.3,0.1,0.6,0.4,0.7,0.7c0,0.2,0,0.4-0.1,0.6c-0.7,0.8-1.8,0.1-2.7,0.1
			c-0.8-0.1-1.6-0.2-2.4-0.3c-0.2-0.1-0.5-0.2-0.7-0.4c-0.1-0.2-0.1-0.4-0.1-0.6c0.1-0.4,0.6-0.6,1-0.6
			C124.1,69.9,125.5,70.1,126.9,70.4"/>
		<path id="XMLID_593_" class="st16" d="M120.6,70.4c0.1,0.2,0.1,0.3-0.1,0.5s-0.4,0.2-0.6,0.1s-0.3-0.3-0.3-0.5s0.1-0.3,0.3-0.5
			c0.1,0,0.3-0.1,0.4,0C120.5,70.1,120.6,70.2,120.6,70.4"/>
		<path id="XMLID_592_" class="st4" d="M118.2,70.5c0,0.1,0,0.2,0,0.3c-0.1,0.2-0.3,0.2-0.5,0.3c-1.3,0.1-2.6,0.3-3.9,0.5
			c-0.2,0-0.4,0-0.6-0.1c-0.1-0.1-0.2-0.2-0.1-0.3c0.3-0.5,0.8-0.4,1.3-0.5c1.1-0.2,2.2-0.3,3.2-0.4
			C117.8,70.3,118.1,70.3,118.2,70.5"/>
		<path id="XMLID_591_" class="st4" d="M126.9,70.9c0.1,0.1,0.3,0.2,0.3,0.3c0.1,0.1,0,0.2-0.1,0.3c-0.2,0.1-0.3,0.1-0.6,0.1
			c-1.3-0.3-2.7-0.4-4-0.6c-0.2,0-0.4-0.1-0.5-0.3c0-0.1,0-0.2,0.1-0.3c0.4-0.3,0.8-0.1,1.2-0.1C124.5,70.4,125.8,70.6,126.9,70.9"
			/>
		<path id="XMLID_590_" class="st15" d="M112,71.2c0.3,0.3,0.3,0.7,0.2,1c-0.1,0.3-0.5,0.5-0.8,0.6c-0.2,0-0.5,0-0.7-0.2
			c-0.3-0.2-0.4-0.5-0.4-0.9c0-0.3,0.2-0.6,0.5-0.7C111.2,70.8,111.7,70.9,112,71.2"/>
		<path id="XMLID_589_" class="st15" d="M129.8,71.4c0.2,0.3,0.1,0.7-0.1,1c-0.2,0.3-0.6,0.5-0.9,0.4c-0.3,0-0.6-0.3-0.8-0.6
			c-0.1-0.3-0.1-0.6,0.1-0.9c0.2-0.3,0.7-0.4,1-0.3C129.5,71,129.7,71.2,129.8,71.4"/>
		<path id="XMLID_588_" class="st16" d="M111.7,71.5c0.1,0.1,0.1,0.3,0.1,0.4c0,0.2-0.2,0.3-0.3,0.4c-0.2,0-0.5,0-0.6-0.1
			c-0.1-0.2-0.2-0.4,0-0.6C111.1,71.3,111.5,71.3,111.7,71.5"/>
		<path id="XMLID_587_" class="st16" d="M129.3,71.5c0.1,0.1,0.2,0.3,0.2,0.4c0,0.2-0.1,0.3-0.3,0.4s-0.4,0.1-0.6-0.1
			c-0.1-0.2-0.2-0.4,0-0.6c0.1-0.1,0.2-0.2,0.3-0.2C129.1,71.3,129.2,71.4,129.3,71.5"/>
		<path id="XMLID_586_" class="st15" d="M109.9,72.1c0.2,0.3,0.2,0.6,0.1,0.9c-0.4,0.4-1,0.7-1.6,0.6c-0.3-0.1-0.5-0.4-0.6-0.7
			c0-0.3,0-0.6,0.3-0.8c0.4-0.3,0.9-0.5,1.3-0.4C109.7,71.8,109.8,71.9,109.9,72.1"/>
		<path id="XMLID_585_" class="st15" d="M132.4,72.4c0.1,0.3,0.1,0.7-0.1,0.9c-0.1,0.1-0.3,0.3-0.4,0.3c-0.5,0-1-0.2-1.4-0.5
			c-0.3-0.3-0.2-0.6-0.1-0.9c0.1-0.3,0.4-0.5,0.8-0.5C131.5,71.7,132.1,71.9,132.4,72.4"/>
		<path id="XMLID_584_" class="st15" d="M121.5,71.8c0.2,0,0.5,0,0.7,0c2.2,0.1,4.5,0.4,6.7,1.3c0.7,0.4,1.5,0.6,2.2,1
			c0.3,0.2,0.4,0.6,0.4,0.9s-0.1,0.5-0.4,0.7c-0.4,0.2-0.6,0.2-1,0c-3.1-1.2-6.2-1.7-9.4-1.7c-3.7-0.1-7.2,0.4-10.7,1.8
			c-0.3,0-0.8,0-1-0.3s-0.3-0.7-0.1-1c0.4-0.6,1.1-0.7,1.7-1c2.6-1.3,5.5-1.5,8.1-1.6h2.8V71.8z"/>
		<path id="XMLID_583_" class="st4" d="M109.5,72.3c0.1,0.1,0.2,0.3,0.1,0.5c-0.3,0.3-0.6,0.4-1,0.5c-0.1,0-0.2-0.1-0.3-0.2
			c-0.1-0.2-0.1-0.3,0-0.4C108.6,72.2,109.2,72,109.5,72.3"/>
		<path id="XMLID_229_" class="st4" d="M132,72.6c0,0.2,0,0.2,0,0.4c-0.1,0.1-0.1,0.2-0.3,0.2c-0.4,0-0.7-0.2-1-0.5
			c-0.1-0.1,0-0.2,0-0.4c0.1-0.1,0.2-0.3,0.4-0.3C131.4,72.1,131.8,72.3,132,72.6"/>
		<path id="XMLID_115_" class="st6" d="M130.1,74c0.4,0.1,0.8,0.3,1,0.7c0,0.2,0,0.3-0.1,0.5c-0.2,0.1-0.4,0.2-0.6,0.1
			c-4.5-1.8-9.1-1.9-13.4-1.6c-2.3,0.2-4.8,0.8-7.1,1.7c-0.2,0-0.3,0-0.5-0.1c-0.1-0.2-0.2-0.4-0.1-0.6c0.3-0.6,1-0.5,1.5-0.8
			c3-1.5,6.2-1.6,9.2-1.6C123.4,72.2,126.8,72.3,130.1,74"/>
	</g>
</g>
</svg>
