<?xml version="1.0" encoding="utf-8"?>
<!-- Generator: Adobe Illustrator 22.0.1, SVG Export Plug-In . SVG Version: 6.00 Build 0)  -->
<svg version="1.1" id="Layer_1" xmlns="http://www.w3.org/2000/svg" xmlns:xlink="http://www.w3.org/1999/xlink" x="0px" y="0px"
	 viewBox="0 0 240.7 216" style="enable-background:new 0 0 240.7 216;" xml:space="preserve">
<style type="text/css">
	.st0{fill:#FFFFFF;}
</style>
<g>
	<path class="st0" d="M117.4,81.4c0.1,0,0.1,0.1,0.1,0.2c0.1,0.3,0.3,0.3,0.5,0.2c-0.1,0-0.2-0.1-0.3-0.2c0-0.1-0.1-0.1-0.1-0.2
		c-1.1-0.5-2.4-0.7-3.5-1.3c-0.1-0.1-0.2-0.1-0.3,0c0,0,0,0,0.1,0C115,80.7,116.3,80.9,117.4,81.4z"/>
	<path class="st0" d="M132.1,90.2c-0.3,0-0.4,0.1-0.2,0.4c-0.7,0.2-1.3,0.7-2,0.7c0.8,0,1.4-0.5,2.1-0.7c0,0,0-0.1,0-0.1
		C132,90.4,132,90.3,132.1,90.2z"/>
	<path class="st0" d="M112.9,80.5c0.1,0,0.1-0.1,0.2-0.1c-0.3-0.9-0.7-1.3-1.3-1.3C112.3,79.2,112.6,79.6,112.9,80.5z"/>
	<path class="st0" d="M110.6,79.4c0.1,0,0.1,0,0.2-0.1c-0.4-1.1-0.8-1.5-1.5-1.5C109.9,77.9,110.3,78.3,110.6,79.4z"/>
	<path class="st0" d="M108.3,78c0.1,0,0.1,0,0.2-0.1c0.1-0.9-0.1-1.7-1.1-1.7c-0.1,0-0.1,0-0.2,0C108.2,76.3,108.4,77.1,108.3,78z"
		/>
	<path class="st0" d="M127.6,84.8c0.1-0.1,0.1-0.2,0.2-0.3c-0.1-0.6-0.3-0.9-0.9-1c-0.2-0.1-0.4-0.1-0.5,0c0.1,0,0.2,0,0.3,0
		C127.3,83.7,127.6,84,127.6,84.8z"/>
	<path class="st0" d="M132,90.8c-0.1,0.4,0.3,0.2,0.5,0.1C132.3,90.9,132,91,132,90.8z"/>
	<path class="st0" d="M130,85.2c0.1-0.1,0.2-0.2,0.2-0.3c0.1-0.8-0.3-0.9-0.8-1.1c-0.2,0-0.3,0-0.4,0c0.1,0,0.1,0,0.2,0
		C129.8,83.9,130.2,84.2,130,85.2z"/>
	<path class="st0" d="M123.7,83c0.7-0.1,1.3,0.4,1.4,1.3c0.1-0.1,0.1-0.1,0.2-0.2c-0.1-0.8-0.6-1.2-1.4-1.1
		c-0.6,0.1-1.2-0.3-1.6-0.3c-1.4,0.1-2.4-0.9-3.7-0.9c1.2,0.1,2.2,1,3.5,0.9C122.5,82.7,123,83.1,123.7,83z"/>
	<path class="st0" d="M120.7,90.8c-0.4,0.1-0.9,0.1-1.2,0.1c0.5,0.2,1,0.1,1.5-0.1c0.1,0,0.1,0,0.2-0.1c0,0,0,0,0,0
		C121,90.4,120.8,90.8,120.7,90.8z"/>
	<path class="st0" d="M132.5,85.1c0.1-0.1,0.1-0.1,0.2-0.2c-0.1-0.6-0.2-1-1-1c0,0-0.1,0-0.1,0C132.3,84,132.4,84.4,132.5,85.1z"/>
	<path class="st0" d="M106.3,76.8c0,0.1,0,0.2,0,0.3c0.2-0.2,0.2-0.5,0.2-0.7c0.1-0.2,0.2-0.5,0.2-0.7c0-0.1,0-0.1,0-0.2
		c0,0.2-0.1,0.4-0.2,0.6C106.5,76.3,106.5,76.6,106.3,76.8z"/>
	<path class="st0" d="M105.2,77.3c-0.1-0.5-0.2-1-0.2-1.5c0,0.6,0.1,1.2,0.2,1.8c0,0-0.1,0-0.1,0c0.3,0.6,0.3,1.5,1.2,1.6
		c0,0,0-0.1,0-0.1C105.4,78.8,105.6,77.9,105.2,77.3z"/>
	<path class="st0" d="M112.2,88.6c0.2,0,0.4,0,0.7-0.1c0,0,0,0-0.1-0.1C112.5,88.5,112.3,88.5,112.2,88.6z"/>
	<path class="st0" d="M117.9,90.3c-0.1,0-0.2,0-0.3,0c0.2,0,0.4,0,0.6,0c0,0,0.1,0,0.1,0C118.1,90.2,118,90.2,117.9,90.3z"/>
	<path class="st0" d="M128.9,91c-0.4,0.1-0.8,0.3-1.2,0.4c0.5,0,1-0.4,1.5-0.4C129.1,90.9,129,90.9,128.9,91z"/>
	<path class="st0" d="M123.5,91.1c-0.4,0.1-0.8,0.2-1.2,0.2c0.5,0.1,1-0.1,1.5-0.2c0.1,0,0.1,0,0.1,0
		C123.7,90.9,123.6,91.1,123.5,91.1z"/>
	<path class="st0" d="M125.8,91.3c-0.1,0-0.3,0.1-0.4,0.1c0.2,0,0.5-0.1,0.7-0.1c0.1-0.1,0.3-0.1,0.4-0.2c0,0,0,0,0,0
		C126.4,91,126.1,91.3,125.8,91.3z"/>
	<path class="st0" d="M106.3,78.9C106.3,78.9,106.3,78.9,106.3,78.9c0-0.2-0.1-0.3-0.1-0.5c0,0,0,0,0,0c0-0.1,0-0.2,0-0.3
		C106.3,78.3,106.2,78.6,106.3,78.9z"/>
	<path class="st0" d="M106.3,76.8c0-0.3,0-0.5,0.2-0.7C106.2,76.3,106.2,76.5,106.3,76.8z"/>
	<path class="st0" d="M136.9,87.5c-0.3,0.4-0.2,1-0.8,1c0,0,0,0-0.1,0c0,0,0,0,0,0c0,0,0,0,0,0C136.7,88.7,136.7,88,136.9,87.5
		c0.2,0,0.3-0.3,0.2-0.5c0,0,0,0-0.1,0C137.1,87.2,137,87.4,136.9,87.5z"/>
	<path class="st0" d="M118.3,65.2c0.1,0,0.1,0,0.1,0.1C118.4,65.2,118.3,65.2,118.3,65.2z"/>
	<path class="st0" d="M134.8,87.7C134.8,87.7,134.8,87.7,134.8,87.7c-0.3-0.1-0.5-0.1-0.7,0C134.3,87.6,134.5,87.6,134.8,87.7z"/>
	<path class="st0" d="M121.6,67.2c0,1.1-1.3,1.9-2.7,1.9C120.3,69.1,121.6,68.3,121.6,67.2c0.2-0.5,0.1-0.9-0.3-0.8
		C121.6,66.4,121.6,66.8,121.6,67.2z"/>
	<path class="st0" d="M135.1,88.5c-0.1,0.2-0.2,0.4-0.3,0.6c0,0.1,0,0.2,0,0.3c0.2-0.4,0.3-0.7,0.5-0.9c0.1-0.4,0.2-0.7-0.1-1
		c0.1-0.1,0.1-0.2,0.2-0.3c-0.1,0-0.2,0.1-0.3,0.3c0,0,0,0-0.1,0.1C135.2,87.9,135.2,88.2,135.1,88.5z"/>
	<path class="st0" d="M117.4,67.9c-0.4-1.2-0.1-1.8,1.1-2.3C117.3,66.1,116.9,66.7,117.4,67.9z"/>
	<path class="st0" d="M116.6,68.9c-0.5-0.1-1-0.2-1.4-0.4C115.6,68.8,116.1,68.9,116.6,68.9z"/>
	<path class="st0" d="M118.1,66.6c-0.1-0.3,0.5-0.7,0.4-1C118.5,65.9,117.8,66.4,118.1,66.6z"/>
	<path class="st0" d="M130.3,89.1c0.1-0.1,0.2-0.1,0.2-0.2c-0.2-0.6-0.6-0.8-1-0.7C129.8,88.2,130.1,88.5,130.3,89.1z"/>
	<path class="st0" d="M130.5,87.1C130.5,87.1,130.5,87.1,130.5,87.1c-0.2-0.2-0.3,0-0.4,0.1c-0.4,0-0.7,0.3-1.1,0.4
		c0.5,0.1,0.9-0.3,1.4-0.4C130.4,87.1,130.4,87.1,130.5,87.1z"/>
	<path class="st0" d="M132.3,88.1c0.4,0.3,0.1,0.6,0.1,1c-0.1,0.4-0.5,0.6-0.3,1.1c0-0.1,0.1-0.1,0.2-0.1c-0.1,0.1-0.2,0.2-0.2,0.4
		c0.1-0.1,0.2-0.2,0.3-0.3c-0.2-0.4,0.2-0.7,0.3-1.1c0.1-0.4,0.3-0.7-0.1-1c-0.2-0.2-0.6-0.2-0.9-0.1C131.9,88,132.1,88,132.3,88.1z
		"/>
	<path class="st0" d="M121.4,65.5C121.4,65.5,121.4,65.4,121.4,65.5c-0.1-0.5-0.4-0.6-0.8-0.6c-0.2,0-0.4,0.1-0.6,0.1
		c0.2,0,0.4,0,0.6,0C120.9,65,121.3,65.1,121.4,65.5z"/>
	<path class="st0" d="M105,74c0.1-0.3,0.3-0.7,0.1-1c0.1-0.1,0.1-0.1,0.2-0.2c0.1,0,0.1,0,0.1,0c0.2,0.4,0.4,0.8,1,0.6
		c0-0.1-0.1-0.2-0.1-0.3c-0.5,0.1-0.8-0.2-1-0.6c0.4,0,0.7,0.3,1,0.6c2.2,1.1,4.5,1.1,6.9,0.4c0.7-0.2,1.3,0.1,1.9,0.3
		c3.1,1.3,6.1,1.5,9.1-0.2c0,0,0,0,0,0c-2.9,1.6-6,1.4-8.9,0.1c-0.6-0.3-1.2-0.5-1.9-0.3c-2.3,0.7-4.6,0.7-6.9-0.4
		c-0.3-0.3-0.5-0.6-1-0.6c0,0-0.1-0.1-0.1,0c-0.4-0.3-0.8-0.5-1-1c-0.2-0.1-0.3-0.2-0.5-0.3c-0.5,0.8-0.6,1.7-0.5,2.7
		c0-1,0.1-1.8,0.5-2.6c0.2,0.1,0.3,0.2,0.5,0.3c0.1,0.4,0.5,0.6,0.7,1c0,0-0.1,0.1-0.1,0.1c0.2,0.4,0.1,0.7-0.1,1
		c-0.5,1.1-0.2,2.4-0.2,3.5c-0.1,0-0.2-0.3-0.4-0.2c-0.4-1.3-0.9-2.6-0.6-4c0-0.2,0.1-0.4,0.1-0.6c-0.1,0.2-0.1,0.5-0.2,0.8
		c-0.3,1.3,0.2,2.6,0.6,3.8c0,0,0.1,0.1,0.1,0.1c0,0-0.1,0-0.1,0.1c0,0,0,0,0,0c0.2-0.1,0.2,0.1,0.4,0.2c0.1,0,0.1,0,0.2,0
		C104.8,76.2,104.6,75,105,74z"/>
	<path class="st0" d="M135.1,88.5c-0.1,0-0.1-0.1-0.2-0.1c0,0,0,0,0,0C135,88.5,135,88.5,135.1,88.5z"/>
	<path class="st0" d="M136.4,84.2c-0.3,0.5-0.7,1.1-1.3,1.6c0.1,0,0.1,0,0.2,0c0.6-0.5,1-1,1.3-1.6c0.2-0.3,0.4-0.6,0-0.8
		c-0.2-0.1-0.3-0.1-0.5-0.1c0.1,0,0.2,0,0.3,0.1C136.8,83.7,136.5,84,136.4,84.2z"/>
	<path class="st0" d="M134.5,85c0.1,0,0.1-0.1,0.2-0.1c0-0.4,0.4-0.9-0.2-1.1c-0.2-0.1-0.4-0.1-0.5-0.1c0.1,0,0.2,0,0.3,0.1
		C135,84,134.5,84.6,134.5,85z"/>
	<path class="st0" d="M102.5,70.9c-0.1,0-0.1,0.1-0.1,0.1c0,0,0.1,0,0.1,0c0.1,1.3-0.1,2.6,0.9,3.9c0,0,0-0.1,0-0.1
		C102.5,73.5,102.6,72.1,102.5,70.9C102.5,70.9,102.5,70.9,102.5,70.9z"/>
	<path class="st0" d="M102.3,68.2C102.3,68.2,102.3,68.1,102.3,68.2c-0.1-0.1-0.1-0.1-0.1-0.1C102.3,68.1,102.3,68.2,102.3,68.2
		c-0.5,1.1-0.6,2.1-0.3,3.3c0.1,0,0.1-0.1,0.1-0.1c0,0,0,0,0,0C101.8,70.2,102,69.3,102.3,68.2z"/>
	<path class="st0" d="M103.3,77.7c0.2-0.2,0.5-0.4,0.9-0.6c0,0,0,0-0.1,0C103.7,77.2,103.5,77.4,103.3,77.7z"/>
	<path class="st0" d="M109.4,70.2c-1-2-0.6-3.9,1.2-5.5C108.8,66.3,108.3,68.2,109.4,70.2z"/>
	<path class="st0" d="M102.3,76.7c0.1-0.3,0.1-0.5,0.3-0.7C102.3,76.2,102.2,76.5,102.3,76.7c-0.4,1.4-0.1,2.5,0.5,3.6
		c0-0.1,0-0.2,0-0.3C102.2,79,102,77.9,102.3,76.7z"/>
	<path class="st0" d="M116.6,68.9c0.3,0,0.6,0,0.7,0C117.1,68.9,116.9,68.9,116.6,68.9z"/>
	<path class="st0" d="M106.3,87.8c0,0.1-0.1,0.2-0.1,0.3c0,0,0.1,0,0.1,0.1c0-0.1,0.1-0.2,0.1-0.4L106.3,87.8
		C106.3,87.8,106.3,87.8,106.3,87.8z"/>
	<path class="st0" d="M136.4,79.6c0.1,0.1,0.3,0.3,0.4,0.5c-0.2-0.6-0.2-1,0-1.2C136.5,79,136.4,79.3,136.4,79.6z"/>
	<path class="st0" d="M142,73.9c0.2,0.1,0.4,0.1,0.7,0.2c-1.3-0.9-2.8-1-4.3-1c-1.5,0-2.9,0.5-4.2,1c1.3-0.5,2.6-0.9,4-0.9
		C139.5,73.2,140.8,73.3,142,73.9z"/>
	<path class="st0" d="M126.8,93.2C126.8,93.2,126.8,93.1,126.8,93.2c-0.4-0.2-0.6,0.2-0.8,0.4l0,0c0,0,0,0,0,0.1
		C126.3,93.4,126.4,93.1,126.8,93.2z"/>
	<path class="st0" d="M126.9,92.2c0,0.3-0.2,0.5-0.1,0.8C126.7,92.7,126.9,92.4,126.9,92.2z"/>
	<path class="st0" d="M129.3,80.8c0.2-0.1,0.3-0.3,0.3-0.5c-0.1-0.1-0.1-0.2-0.2-0.4C129.4,80.3,129.4,80.6,129.3,80.8z"/>
	<path class="st0" d="M105.3,84.9c0-0.1,0.1-0.1,0.1-0.2c0,0-0.1,0-0.1,0c-0.4-0.3-0.5-0.2-0.5,0c0.1-0.1,0.2-0.1,0.5,0.1
		C105.3,84.9,105.2,84.9,105.3,84.9c-0.1,0.5-0.1,0.9-0.1,1.4c-0.1-0.2-0.2-0.4-0.2-0.7c0,0.2,0.1,0.5,0.2,0.8c0,0.2,0,0.3,0,0.5
		c0,0,0.1,0,0.1,0c0-0.2,0-0.4,0-0.6C105.3,85.8,105.3,85.4,105.3,84.9z"/>
	<path class="st0" d="M143.8,71.2c-0.2,0.6-0.6,1.2-1.2,1.9c0,0,0,0,0.1,0C143.3,72.4,143.6,71.8,143.8,71.2z"/>
	<path class="st0" d="M141.1,71.5c-0.2,0.3-0.4,0.6-0.6,0.9c0,0,0,0,0,0C140.7,72.1,140.9,71.8,141.1,71.5z"/>
	<path class="st0" d="M106.5,86.9c0,0.1,0.1,0.1,0.1,0.2c0-0.4,0-0.7,0-1.1c-0.1,0-0.1-0.1-0.1-0.2c0,0.1,0,0.2,0,0.2
		C106.5,86.3,106.5,86.6,106.5,86.9z"/>
	<path class="st0" d="M131.3,77C131.3,77,131.3,77,131.3,77c0.1-0.3,0.2-0.6,0.3-0.9C131.5,76.4,131.3,76.8,131.3,77
		c-0.3,0.4-0.5,0.7-0.7,1C130.8,77.7,131.1,77.4,131.3,77z"/>
	<path class="st0" d="M119.4,94c-1-0.2-2-0.2-3-0.4C117.4,93.9,118.4,93.9,119.4,94z"/>
	<path class="st0" d="M106.5,86c-0.1,0-0.2,0-0.2-0.1c0,0,0,0,0,0C106.3,86,106.3,86,106.5,86z"/>
	<path class="st0" d="M116.4,93.6c-1.3-0.4-2.7-0.7-3.8-1.3C113.7,93,115.1,93.3,116.4,93.6z"/>
	<path class="st0" d="M126,93.6c-0.9,0.4-3,0.3-4.3,0.5C123,94,125.1,94,126,93.6z"/>
	<path class="st0" d="M105.4,84c0,0.1,0.1,0.2,0.1,0.3c0.1,0.2,0.1,0.3,0.1,0.4c0,0,0.1,0,0.1,0c0.5,0.2,1,0.3,0.8,1c0,0,0,0,0,0
		c0,0,0,0,0,0.1c0.1,0,0.1,0,0.2,0c0,0,0-0.1,0-0.1c0.2-0.7-0.3-0.8-0.8-1c0-0.1,0-0.2-0.1-0.3c0-0.1-0.1-0.2-0.1-0.3
		c-0.3-0.3-0.5-0.8-0.9-0.8C105,83.5,105.1,83.8,105.4,84z M105.6,84.4c-0.1-0.1-0.1-0.2-0.1-0.3C105.5,84.2,105.6,84.3,105.6,84.4z
		"/>
	<path class="st0" d="M110.3,87.6c0.3,0.1,0.4-0.1,0.4-0.2c-0.1-0.1-0.1-0.2-0.2-0.3C110.4,87.2,110.4,87.5,110.3,87.6z"/>
	<path class="st0" d="M127.7,91.6C127.7,91.6,127.7,91.6,127.7,91.6C127.7,91.6,127.7,91.6,127.7,91.6z"/>
	<path class="st0" d="M104.7,85.1c0,0,0-0.1,0-0.1C104.7,85,104.7,85,104.7,85.1C104.7,85,104.7,85.1,104.7,85.1z"/>
	<path class="st0" d="M137.6,85.1c0,0,0.1-0.1,0.1-0.2C137.6,85,137.5,85.1,137.6,85.1z"/>
	<path class="st0" d="M123.4,92.2C123.4,92.1,123.4,92.1,123.4,92.2c-0.1-0.2-0.1-0.3-0.2-0.4c0,0.1,0.1,0.1,0.1,0.2
		C123.3,92.1,123.3,92.2,123.4,92.2z"/>
	<path class="st0" d="M137.7,84.9c0.1,0,0.1,0,0.2,0.1c0,0,0,0,0,0c0.3-0.4,0.5-0.8,0.7-1.3c0.1-0.2,0.2-0.5,0.1-0.7
		c0,0.1-0.1,0.3-0.2,0.4C138.3,83.9,138,84.4,137.7,84.9z"/>
	<path class="st0" d="M138.8,84.8c0.3-0.3,0.6-0.6,0.8-1c0,0,0,0-0.1,0C139.4,84.3,139.1,84.6,138.8,84.8z"/>
	<path class="st0" d="M139.9,83.7C139.9,83.7,139.9,83.7,139.9,83.7C139.9,83.7,139.9,83.7,139.9,83.7c0.7-0.7,0.9-1.6,1-2.5
		C140.8,82.2,140.6,83,139.9,83.7z"/>
	<path class="st0" d="M147.3,76c-0.2-0.1-0.3-0.1-0.4-0.1c0.1,0,0.2,0,0.3,0.1C147.2,76,147.2,76,147.3,76z"/>
	<path class="st0" d="M107.8,86c0.2,0.1,0.4,0.1,0.5-0.1c-0.1-0.2-0.2-0.4-0.2-0.7C108.2,85.9,108.1,86,107.8,86z"/>
	<path class="st0" d="M108.8,87.2c-0.6-0.4-1.2-0.7-1.6-1.4c0,0,0,0,0,0C107.6,86.4,108.2,86.8,108.8,87.2z"/>
	<path class="st0" d="M133.5,87c0.2-0.1,0.3-0.1,0.5-0.2c0.3-0.2,0.6-0.3,0.9-0.4c-0.4,0.1-0.8,0.3-1.2,0.5
		C133.6,86.9,133.6,87,133.5,87z"/>
	<path class="st0" d="M107.4,85.8c0.1,0,0.2,0,0.2,0.1C107.5,85.8,107.4,85.8,107.4,85.8C107.4,85.8,107.4,85.8,107.4,85.8z"/>
	<path class="st0" d="M135.8,85.8c0,0.1,0,0.2,0,0.4c0.1,0,0.1,0,0.2,0c0-0.1,0-0.2,0-0.3C135.9,85.8,135.8,85.8,135.8,85.8z"/>
	<polygon class="st0" points="150.3,76.1 150.3,76.1 150.3,76.1 	"/>
	<path class="st0" d="M129.9,92.2c-0.2,0.7-0.5,1.2-1.2,0.9c0,0,0,0.1-0.1,0.1C129.4,93.4,129.8,92.9,129.9,92.2
		c0.2-0.1,0.1-0.3,0-0.4C129.9,91.9,130,92.1,129.9,92.2z"/>
	<path class="st0" d="M149.8,75.7C149.9,75.7,149.9,75.7,149.8,75.7c0.1,0,0.1,0,0.1,0C149.9,75.7,149.9,75.7,149.8,75.7z"/>
	<path class="st0" d="M149.9,76.1c-0.1,0-0.2,0-0.3-0.1c0,0-0.1,0-0.1,0C149.6,76.1,149.7,76.1,149.9,76.1z"/>
	<path class="st0" d="M140.8,81.2c-0.1,0-0.2,0.1-0.3,0.1c0.1,0,0.3-0.1,0.4-0.1c0.3-0.1,0.5-0.3,0.8-0.4c-0.1,0.8-0.3,1.5-0.7,2.2
		c0.4-0.7,0.7-1.5,0.8-2.3c-0.1,0-0.1,0.1-0.2,0.1C141.3,80.9,141.1,81.1,140.8,81.2z"/>
	<path class="st0" d="M149.6,76c0.1,0,0.3-0.1,0.4-0.1C149.8,75.9,149.7,75.9,149.6,76z"/>
	<path class="st0" d="M128.6,93.2C128.6,93.2,128.6,93.1,128.6,93.2c0-0.1,0-0.1,0-0.1C128.6,93.1,128.6,93.2,128.6,93.2
		c0,0,0-0.1,0-0.1c0,0,0,0,0,0c0-0.6,0-1.2-0.5-1.4C128.5,91.9,128.5,92.5,128.6,93.2z"/>
	<path class="st0" d="M126.8,93.2c0.3,0.2-0.6,0.4-0.2,0.6c-0.2-0.2,0.5-0.4,0.3-0.5c0.7-0.4,0.4-1.1,0.4-1.6
		C127.3,92.2,127.6,92.9,126.8,93.2z"/>
	<path class="st0" d="M144,79.1c0.7-0.7,1.2-1.7,1.3-2.9c-0.1,0-0.1,0-0.2,0C145.1,77.4,144.7,78.4,144,79.1z"/>
	<path class="st0" d="M135.8,58.2c-0.1,0-0.1,0,0,0.2c0,0,0,0,0.1-0.1C135.8,58.2,135.8,58.2,135.8,58.2z"/>
	<path class="st0" d="M138,57.6c-0.7,0-1.3,0.2-2,0.6c0,0,0,0,0,0C136.6,57.8,137.3,57.6,138,57.6z"/>
	<path class="st0" d="M141.2,57.3c0,0,0.1,0,0.1,0c0.1,0,0.1,0,0.2,0c0,0,0,0,0,0C141.4,57.3,141.3,57.3,141.2,57.3z"/>
	<path class="st0" d="M147.6,50C147.6,50,147.6,50,147.6,50c-1.7,0.1-3.3,0.5-4.7,1.6c0.1,0,0.1,0,0.2-0.1
		C144.4,50.5,146,50.1,147.6,50z"/>
	<path class="st0" d="M148.2,50C148.2,50,148.2,50,148.2,50c-0.2,0-0.2,0.1-0.3,0.1C148.1,50.1,148.2,50,148.2,50z"/>
	<path class="st0" d="M57.4,106.5c-3.8-1.6-5.7-5.7-4.5-9.8c0.4-1.5,1.1-2.7,1.9-3.7c-0.9,1.1-1.6,2.4-2.1,3.9
		c-1.2,4.1,0.7,8.2,4.5,9.8c0.5,0.2,1.1,0.4,1.7,0.4c0.4,0,0.8-0.1,1.1-0.4c-0.2,0.2-0.6,0.2-0.9,0.2
		C58.5,106.9,58,106.8,57.4,106.5z"/>
	<path class="st0" d="M94.5,90.7c-1.5,1-3.2,1.2-4.9,1.1c-5-0.3-10-0.8-14.9-0.9c-3.5-0.1-7.1,0-10.5,1c-2.1,0.6-3.9,1.6-5.3,3.1
		c1.4-1.4,3.1-2.4,5.1-2.9c3.4-1,7-1.1,10.5-1c5,0.1,10,0.6,14.9,0.9c1.7,0.1,3.4-0.1,4.9-1.1c0.4-0.2,0.7-0.5,0.9-0.8
		C95,90.3,94.7,90.5,94.5,90.7z"/>
	<path class="st0" d="M140.3,57.3c-0.2,0-0.4-0.1-0.6-0.3c-0.4-0.7,0.1-1.5,0.5-2.2c0.2-0.5,0.6-1,1.2-1.3c1.9-1.6,4.1-2.4,6.4-2.7
		c2.4-0.4,4.8-1.1,7.4-1.3c0,0,0,0,0,0c-2.6,0.2-5.1,0.9-7.6,1.3c-2.4,0.3-4.6,1.1-6.4,2.7c-0.6,0.3-0.9,0.8-1.3,1.3
		c-0.4,0.7-0.9,1.5-0.5,2.2C139.6,57.3,140,57.4,140.3,57.3z"/>
	<path class="st0" d="M141.6,57.2C141.7,57.2,141.7,57.3,141.6,57.2c0.1,0.1,0.1,0.1,0.1,0.1C141.7,57.2,141.7,57.1,141.6,57.2z"/>
	<path class="st0" d="M127.8,89.2c0.1-0.1,0.2-0.2,0.3-0.2c-0.1-0.6-0.5-0.9-1.2-0.9c0,0-0.1,0-0.1,0
		C127.3,88.2,127.8,88.5,127.8,89.2z"/>
	<path class="st0" d="M151.5,53.7c0-0.2-0.1-0.4-0.2-0.5C151.4,53.4,151.4,53.5,151.5,53.7C151.5,53.7,151.5,53.7,151.5,53.7z"/>
	<polygon class="st0" points="142.4,57.3 142.4,57.3 142.4,57.3 	"/>
	<path class="st0" d="M148.9,50c0,0.1,0,0.2,0,0.3C149,50.2,149,50.1,148.9,50C149,50,148.9,50,148.9,50z"/>
	<path class="st0" d="M138.4,57.1c0.1-0.1,0.2-0.3,0.2-0.6c0-0.9,0.5-1.7,1.1-2.4c-0.6,0.7-1.1,1.5-1.1,2.4
		C138.6,56.8,138.5,57,138.4,57.1z"/>
	<path class="st0" d="M141.9,58c0.8,0,1.6-0.1,2.4,0C143.5,57.9,142.7,57.9,141.9,58z"/>
	<path class="st0" d="M46.4,115.4c-1.7,2.7-1.7,5.8-0.4,8.3c-1.2-2.5-1.1-5.4,0.5-8.1c1.8-2.9,4.4-4.6,7.7-5.2
		c0.4-0.1,0.9-0.1,1.3,0.1c0.2,0.1,0.3,0.2,0.4,0.3c-0.1-0.2-0.2-0.3-0.5-0.5c-0.4-0.2-0.8-0.2-1.3-0.1
		C50.8,110.8,48.1,112.5,46.4,115.4z"/>
	<path class="st0" d="M145.8,58.1c-0.1,0-0.2-0.1-0.3-0.1h0C145.7,58.1,145.8,58.2,145.8,58.1z"/>
	<polygon class="st0" points="140.8,52.9 140.8,52.9 140.8,52.9 140.8,52.9 	"/>
	<path class="st0" d="M145.2,58c-1.1,0.2-2.2,0.3-3.3,0h0C143,58.3,144.1,58.3,145.2,58z"/>
	<path class="st0" d="M141.5,58c0,0-0.1,0.1-0.1,0.1C141.4,58.1,141.4,58.1,141.5,58z"/>
	<path class="st0" d="M114.1,135.3c2.5,0,4.9,0,7.2,0C119,135.3,116.5,135.2,114.1,135.3z"/>
	<path class="st0" d="M141.3,58c-0.4,0-0.8-0.1-1.3-0.1C140.4,57.9,140.8,58,141.3,58C141.3,58,141.3,58,141.3,58z"/>
	<path class="st0" d="M80.9,107.5C80.9,107.4,80.9,107.4,80.9,107.5c-0.5-1.1-1.4-0.8-2.2-0.6c-1.2,0.5-2.5,0.8-3.9,1.1
		c1.4-0.3,2.7-0.5,4-0.9C79.5,106.8,80.4,106.5,80.9,107.5z"/>
	<path class="st0" d="M154.7,76.6c-0.1,0.4-0.3,0.7-0.6,1C154.3,77.3,154.5,77,154.7,76.6z"/>
	<path class="st0" d="M61.5,109.9c0.2-1,0.9-1.4,2.1-1.2c1.3,0.2,2.5,0.2,3.8,0.3c0.7,0,1-0.2,1.2-0.9c0.9-3,2.3-5.8,4-8.4
		c1.9-2.9,4.3-5.1,7.8-5.9c0.8-0.2,1.7-0.3,2.5-0.1c0.2,0,0.4,0.1,0.6,0.3c-0.2-0.2-0.4-0.4-0.7-0.5c-0.8-0.2-1.7-0.1-2.5,0.1
		c-3.5,0.8-5.9,3-7.8,5.9c-1.7,2.6-3,5.4-4,8.4c-0.2,0.7-0.5,0.9-1.2,0.9c-1.3-0.1-2.5-0.1-3.8-0.3c-1.2-0.2-1.9,0.3-2.1,1.2
		c-0.1,0.5,0.1,0.9,0.4,1.2C61.5,110.6,61.4,110.2,61.5,109.9z"/>
	<path class="st0" d="M150.2,49.9C150.2,49.9,150.1,49.9,150.2,49.9c-0.3,0.1-0.5,0.3-0.7,0.3C149.7,50.1,149.9,50,150.2,49.9z"/>
	<path class="st0" d="M149,50.3c0.1,0,0.2,0,0.3,0C149.1,50.3,149.1,50.3,149,50.3C149,50.3,149,50.3,149,50.3z"/>
	<path class="st0" d="M55.5,126.1c2.9,0.1,5.3-0.9,7.1-3.2c2.4-3.1,3.6-6.7,4.7-10.4c0.1-0.3,0.1-0.4-0.1-0.5c0,0.1,0,0.2,0,0.3
		c-1.2,3.6-2.3,7.3-4.7,10.4c-1.8,2.3-4.2,3.3-7.1,3.2c-1.7-0.1-3.2-0.7-4.3-1.8C52.2,125.3,53.7,126,55.5,126.1z"/>
	<path class="st0" d="M141.7,51.7c1-1,2.3-1.7,3.8-2C144,50.1,142.7,50.7,141.7,51.7z"/>
	<path class="st0" d="M109.6,90.7c-0.1-0.1-0.2-0.1-0.2-0.2C109.4,90.6,109.5,90.6,109.6,90.7z"/>
	<path class="st0" d="M196.1,144.2c0.1,0.1,0.1,0.2,0,0.4c-0.1,0.6-0.6,0.5-1,0.4c-2.5-0.6-4.9-1.3-7.4-1.9
		c-7.9-1.8-15.8-3.1-23.8-4.1c-13.5-1.6-27.1-2.2-40.7-2.1c-10.9,0.1-21.8,0.6-32.7,1.5c-9.6,0.8-19.2,1.8-28.8,3.1
		c-5.3,0.7-10.6,1.5-15.9,2.5c-0.4,0.1-0.7,0-1-0.2c0.2,0.4,0.6,0.4,1.2,0.3c5.3-1,10.6-1.8,15.9-2.5c9.6-1.3,19.2-2.4,28.8-3.1
		c10.9-0.9,21.8-1.4,32.7-1.5c13.6-0.1,27.2,0.5,40.7,2.1c8,1,15.9,2.3,23.8,4.1c2.5,0.6,4.9,1.3,7.4,1.9c0.4,0.1,0.9,0.3,1-0.4
		C196.4,144.4,196.3,144.3,196.1,144.2z"/>
	<path class="st0" d="M110.8,84.6c0.1,0,0.2-0.1,0.3-0.1c-0.2-1.2-0.6-1.5-1.7-1.4C110.3,83.1,110.6,83.4,110.8,84.6z"/>
	<path class="st0" d="M108.5,82.7c0,0.3-0.1,0.5,0.3,0.5c0,0,0,0,0,0c-0.1-0.1-0.1-0.2,0-0.5c0.1-0.8-0.6-1-1.2-1.2
		c-0.1,0-0.2,0-0.3,0C107.9,81.6,108.5,81.9,108.5,82.7z"/>
	<path class="st0" d="M114.6,67.7c-0.1-0.3,0-0.6,0.2-1C114.6,67.1,114.5,67.4,114.6,67.7z"/>
	<path class="st0" d="M122.4,88.3c0-0.1,0.1-0.2,0.2-0.2c-0.1-0.2-0.2-0.4-0.5-0.6c-0.3-0.2-0.6-0.3-0.9-0.3c0.2,0,0.4,0.1,0.6,0.3
		C122,87.7,122.2,88,122.4,88.3z"/>
	<path class="st0" d="M123.1,62.6c1.1,0.4,1.9,1.1,2.4,2C125,63.7,124.2,63,123.1,62.6c-1.6-0.5-3.2-0.6-4.7,0.1
		C119.9,62.1,121.6,62.1,123.1,62.6z"/>
	<path class="st0" d="M125.9,66.9c-0.1,0.3-0.1,0.7-0.3,1C125.7,67.6,125.8,67.3,125.9,66.9z"/>
	<path class="st0" d="M125.9,66.9c0.1-0.8,0-1.7-0.4-2.4C125.9,65.3,126,66.1,125.9,66.9z"/>
	<path class="st0" d="M106.9,80.8c0,0.1,0,0.1,0,0.1C106.9,80.9,106.9,80.8,106.9,80.8z"/>
	<path class="st0" d="M114.6,72.2c-2.1,0.6-4.3-0.3-5.2-2C110.3,71.9,112.5,72.9,114.6,72.2c0.7-0.2,1.3-0.4,1.8-0.4
		C115.8,71.8,115.2,72,114.6,72.2z"/>
	<path class="st0" d="M116.8,71.2c0.7-0.6,1.4-1.2,2.3-1.5C118.2,70,117.5,70.6,116.8,71.2z"/>
	<path class="st0" d="M125,89.1c0.1-0.2,0.2-0.3,0.3-0.4c0-0.5-0.4-0.7-0.8-0.9c-0.3-0.1-0.5-0.1-0.8-0.1c0.2,0,0.3,0.1,0.5,0.1
		C124.8,88,125.2,88.3,125,89.1z"/>
	<path class="st0" d="M124.3,67.3c-1.5,2.2-3.7,3.2-6.2,3.7c-0.3,0.1-0.6,0.2-0.9,0.2c0.3,0,0.6,0,1-0.1c2.5-0.4,4.7-1.5,6.2-3.7
		c0.9-1.3,0.7-2.7-0.3-3.4C125,64.8,125.1,66.1,124.3,67.3z"/>
	<path class="st0" d="M119.8,87.3c-0.1,0-0.1,0-0.2-0.1c-0.7-0.5-1.4-0.9-2.1-0.8c0.7,0,1.2,0.4,1.8,0.8
		C119.4,87.3,119.6,87.3,119.8,87.3z"/>
	<path class="st0" d="M119.8,64.7c-1,0.1-2,0.1-3,0.2c-0.4,0-0.8,0.1-1.2,0.3c-0.9,0.4-1.8,0.8-1.9,2c0,0.5,0.2,0.9,0.7,1.3
		c-0.3-0.4-0.6-0.8-0.6-1.2c0-1.2,0.9-1.6,1.9-2c0.4-0.1,0.8-0.2,1.2-0.3c1-0.1,2-0.1,3-0.2c0.9-0.1,1.5,0,1.9,0.3
		C121.4,64.7,120.8,64.6,119.8,64.7z"/>
	<path class="st0" d="M112.8,71.3c-1-0.3-1.7-0.7-2.2-1.2c0.5,0.6,1.3,1,2.3,1.3c1.7,0.5,3.2-0.2,4.3-1.8c0,0-0.1,0-0.2,0
		C115.9,71.1,114.4,71.8,112.8,71.3z"/>
	<path class="st0" d="M105.3,64.9c1.8-1.5,4-2.1,6.3-2.6c0.4-0.1,0.9,0,0.6-0.8c-0.2-0.6,0.2-1.1,0.6-1.5c1.6-1.8,3.7-2.9,6.1-3.1
		c2.1-0.2,4.1-0.1,6,0.5c-2-0.7-4.2-0.8-6.3-0.6c-2.4,0.2-4.4,1.3-6.1,3.1c-0.4,0.4-0.8,0.9-0.6,1.5c0.3,0.7-0.2,0.7-0.6,0.8
		c-2.3,0.5-4.5,1.1-6.3,2.6c-1.9,1.5-2.3,3.4-1.3,5.6c0.2,0.2,0.4,0.4,0.5,0.5c-0.1-0.1-0.1-0.3-0.2-0.4
		C103,68.3,103.4,66.4,105.3,64.9z"/>
	<path class="st0" d="M113.4,85.8c0.1,0,0.2-0.1,0.3-0.1c-0.3-1.1-0.8-1.6-1.7-1.4C112.7,84.3,113.2,84.7,113.4,85.8z"/>
	<path class="st0" d="M116.1,86.3c0.2,0.2,0.3,0.4,0.5,0.2c-0.1-0.1-0.1-0.1-0.2-0.2c-0.5-0.7-1-0.9-1.6-0.9
		C115.2,85.5,115.6,85.8,116.1,86.3z"/>
	<path class="st0" d="M103.3,78.6c-0.2,1.1,0.3,2,0.6,3C103.7,80.6,103.1,79.7,103.3,78.6z"/>
	<path class="st0" d="M115.4,62.9c-0.4-0.2-0.9-0.2-1.4,0C114.5,62.8,115,62.7,115.4,62.9z"/>
	<path class="st0" d="M113,74.6C113,74.6,113,74.6,113,74.6c0.9,0.2,1.8,0.2,2.6,0.5c1.4,0.5,2.8,0.8,4.3,0.8
		c-1.4,0-2.8-0.3-4.2-0.8C114.8,74.8,113.9,74.7,113,74.6z"/>
	<path class="st0" d="M104.5,80.5c0-0.4,0.1-0.8,0.3-1.3C104.6,79.6,104.5,80,104.5,80.5z"/>
	<path class="st0" d="M113.9,78.7c-1.7-0.8-3.7-1.4-4.9-3.1c-0.4-0.5-1.2-0.5-1.3-1.2c0,0-0.1,0-0.1,0c-0.3-0.4-0.9-0.5-1.2-0.9
		c0.1,0.8,0.9,0.7,1.3,1.2c0.1,0.7,1,0.7,1.3,1.2c1.2,1.7,3.2,2.3,4.9,3.1c1.3,0.6,2.7,1.2,4.1,1.5c0,0-0.1-0.1-0.1-0.2
		c0.9-0.2,1.9,0.1,2.8-0.4c-0.9,0.3-1.8,0-2.6,0.3C116.6,79.9,115.2,79.3,113.9,78.7z"/>
	<path class="st0" d="M138.6,85C138.6,85,138.5,85,138.6,85C138.5,85,138.6,85,138.6,85z"/>
	<path class="st0" d="M108.6,74.5c1.4,0.2,2.8,0.3,4.2,0.1c0,0,0,0,0,0C111.4,74.8,110,74.7,108.6,74.5z"/>
	<path class="st0" d="M112.9,74.6C112.9,74.6,112.9,74.6,112.9,74.6c-0.1,0-0.1,0-0.1,0C112.8,74.6,112.8,74.6,112.9,74.6
		C112.9,74.6,112.9,74.6,112.9,74.6z"/>
	<path class="st0" d="M121.2,79.8c0,0-0.1,0-0.1,0.1c0-0.1,0-0.1,0-0.1c-0.1,0-0.1,0-0.2,0.1c0,0.1,0,0.1,0.1,0.1
		c0.3,0.1,0.5,0.1,0.7-0.1c0,0,0,0,0.1,0c0,0,0,0-0.1,0C121.5,79.9,121.4,79.9,121.2,79.8z"/>
	<path class="st0" d="M104.9,79C105,79,105,79,104.9,79C105,79,105,79,104.9,79z"/>
	<path class="st0" d="M103.6,84.7c-0.2-1,0.2-1.7,0.7-2.4C103.8,83,103.3,83.8,103.6,84.7z"/>
	<path class="st0" d="M104.1,82.1c0-0.2,0-0.2,0-0.3C104.1,81.8,104.1,81.9,104.1,82.1c0,0.1-0.1,0.2,0,0.2
		C104,82.3,104.1,82.2,104.1,82.1z"/>
	<path class="st0" d="M105.1,79.7c0.1-0.1,0.3-0.2,0.5-0.2C105.4,79.4,105.2,79.6,105.1,79.7z"/>
	<path class="st0" d="M130,59.8c-0.2-0.1-0.5-0.2-0.7-0.2c-0.2,0-0.3-0.1-0.5-0.1c0.2,0.1,0.5,0.1,0.8,0.2
		C129.7,59.7,129.9,59.8,130,59.8z"/>
	<path class="st0" d="M130.1,71.9c0,0.3-0.1,0.5-0.1,0.8c0.5,3-1.2,5-3.5,6.8c0.2-0.1,0.4-0.1,0.6-0.2
		C129.4,77.4,131,75.2,130.1,71.9z"/>
	<path class="st0" d="M136,88.5C136,88.5,136,88.4,136,88.5C136,88.5,136,88.5,136,88.5C136,88.5,136,88.5,136,88.5z"/>
	<path class="st0" d="M106.3,78.9c0,0.1,0.1,0.1,0.1,0.2C106.4,79,106.4,78.9,106.3,78.9C106.3,78.9,106.3,78.9,106.3,78.9z"/>
	<path class="st0" d="M107.1,85.8C107.1,85.8,107.1,85.8,107.1,85.8C107.2,85.8,107.2,85.8,107.1,85.8
		C107.2,85.8,107.2,85.8,107.1,85.8c0.1,0,0.2,0,0.2,0c0,0,0,0,0,0C107.3,85.7,107.2,85.7,107.1,85.8z"/>
	<path class="st0" d="M104.1,77.1C104.1,77.1,104.1,77.1,104.1,77.1C104.2,77.1,104.2,77.1,104.1,77.1
		C104.1,77.1,104.1,77.1,104.1,77.1z"/>
	<path class="st0" d="M107.2,85.8C107.2,85.8,107.2,85.8,107.2,85.8c0.1,0,0.1,0,0.2,0c0,0,0,0,0,0
		C107.3,85.8,107.2,85.8,107.2,85.8z"/>
	<path class="st0" d="M199.2,73.6c-5.1,0.8-10.2,1.2-15.4,1.6c-9.7,0.7-19.4,1.2-29.1,1.4c-0.2,0.4-0.4,0.7-0.6,1
		c-0.3,0.2-0.6,0.4-1.1,0.4c-0.7,0.1-1.4,0-2.1,0.4c-0.3,0.2-0.9,0.1-1.3-0.1c-0.7-0.3-1.2-0.9-2.2-0.7c-0.5,0.1-1.1-0.7-1.4-1.4
		c-0.2,0-0.4,0-0.6,0c-0.1,1.2-0.6,2.2-1.3,2.9c-0.6,0.7-1.3,1.2-2.2,1.6c-0.1,0.8-0.4,1.6-0.8,2.3c-0.1,0.2-0.3,0.5-0.4,0.7
		c-0.2,0.3-0.4,0.7-0.8,0.2c0.1-0.1,0.1-0.1,0.1-0.2c0,0,0,0,0,0c0,0,0,0,0,0c0,0-0.1,0.1-0.1,0.1c-0.1,0-0.1,0-0.1,0
		c-0.2,0.5-0.5,0.8-0.8,1c-0.1,0.1-0.1,0.1-0.2,0.1c0,0-0.1,0-0.1,0.1c-0.2,0.1-0.3,0.2-0.5,0.3c0,0-0.1,0.1-0.1,0.1c0,0,0,0,0,0
		c-0.3,0.1-0.7,0.3-1,0.4c-0.3,0.1-0.5,0.3-0.9,0.4c0,0,0-0.1,0-0.1c-0.1,0-0.1,0-0.2,0c0,0,0,0,0,0c-0.3,0-0.6,0.1-0.9,0.2
		c-0.3,0.1-0.6,0.2-0.9,0.4c-0.2,0.1-0.3,0.1-0.5,0.2c-1,0.5-2.1,0.2-3.1,0.6c0,0-0.1-0.1-0.2-0.2c0,0,0.1-0.1,0.1-0.1
		c0,0,0-0.1,0.1-0.1c-0.4,0-0.9,0.5-1.4,0.4c-0.2,0-0.5,0-0.8-0.3c0,0,0-0.1,0-0.1c-0.7,0.1-1.4,1.1-1.9-0.2
		c-0.1-0.2-0.4,0.1-0.7,0.2c-0.6,0.1-1.3,0.5-1.6-0.5c-0.1-0.4-0.3-0.1-0.5,0c-0.6,0.3-1.3,0.5-1.8-0.2c-0.2-0.3-0.5,0-0.7,0
		c-1.3-0.2-2.7-0.3-3.9-1.1c-0.2-0.1-0.2-0.3-0.5-0.2c-0.7,0.3-1.3,0-1.7-0.6c-0.2-0.3-0.4-0.2-0.7-0.2c-0.8,0.1-1.1-0.6-1.5-1
		c-0.3-0.3-1,0.6-1.5-0.1c-0.3-0.4-0.6-0.7-0.8-1.3c-0.2,0.2-0.4,1-0.8,0.5c-0.8-1-2.1-1.4-2.7-2.6c-0.2-0.4-0.4-0.7-0.4-1
		c0,0.1,0,0.1,0,0.2c-0.1,0-0.1,0-0.2,0c0,0,0,0.1,0,0.1c-0.9-0.1-0.9-1-1.2-1.6c-0.1,0-0.2,0-0.3-0.1c0-0.1,0-0.1,0-0.2
		c-0.1,0-0.2,0-0.2,0c-0.2-0.1-0.2-0.3-0.4-0.2c-0.4,0.1-0.7,0.3-0.9,0.6c-0.5,0.7-0.4,1.6-0.4,2.5c0-0.1-0.1-0.1-0.1-0.2
		c0,0.1,0,0.2,0,0.3c-0.6-1.1-0.9-2.2-0.6-3.5c0.1-0.3,0.2-0.6,0.4-0.8c0.1-0.1,0.2-0.2,0.4-0.2c0.4-0.1,0.6,0.3,0.8,0.6
		c0.2,0.2,0.2,0.4,0.4,0.5c-0.4-1.2-0.8-2.5-0.6-3.8c0.1-0.3,0.1-0.6,0.2-0.8c0-0.2,0.1-0.3,0.4-0.4c0.4,0,0.5,0.5,0.8,0.7
		c0,0,0,0,0.1-0.1c-0.2-0.4-0.6-0.6-0.7-1c-0.2-0.1-0.3-0.2-0.5-0.3c-0.4,0.8-0.6,1.7-0.5,2.6c0,0.3,0,0.6,0,1c0,0,0,0,0,0
		c0,0,0,0.1,0,0.1c-1-1.3-0.8-2.6-0.9-3.9c-0.1,0-0.1,0-0.1,0c0,0.1,0,0.3-0.1,0.3c0,0.1,0,0.1-0.1,0.1c-0.3-1.2-0.2-2.2,0.2-3.3
		c0,0,0-0.1,0-0.1c-0.1-0.4,0.2-0.7,0.2-1.1c0-0.1,0-0.1-0.1-0.2c-0.9,0.7-1.2,1.7-1.2,2.8c0,0.9,0.2,1.9,0.4,2.8
		c0.3,1.3,0.9,2.5-0.1,3.8c-0.3,0.4-0.5,0.7-1.1,0.7c-9-0.2-17.9-0.5-26.9-0.9c-12.6-0.7-25.2-1.5-37.8-3.1c-1.6-0.2-2,0.1-2.2,1.7
		c0,0.3,0,0.5,0,0.8c0,2.1,0.1,4.2,0.1,6.3c0,12.7,0.3,25.3,0.1,38c-0.1,8.4-0.7,16.7-1.5,25.1c-0.2,1.7,0.3,3.1,0.9,4.5
		c0.4,1.1,1.1,1.5,2.2,0.9c0.4-0.2,0.8-0.2,1.2-0.3c10.1-2.8,20.4-4.5,30.7-5.9c14.9-2,30-3,45.1-3.3c8.5-0.2,16.9-0.2,25.4,0
		c12.8,0.3,25.5,1.1,38.2,3.1c7.6,1.2,15.1,2.6,22.2,5.6c0.5,0.2,0.6,0.1,0.8-0.3c0.5-1.2,1-2.3,0.9-3.7c-0.2-2-0.2-4-0.2-6
		c-0.1-13.8,0.6-27.5,1.1-41.3c0.2-7.5,0.4-15,0.5-22.5C201.2,74.5,200.2,73.4,199.2,73.6z M107.3,81.5
		C107.3,81.5,107.3,81.5,107.3,81.5c0.1,0,0.2,0,0.3,0c0.6,0.2,1.3,0.4,1.2,1.2c-0.1,0.3-0.1,0.4,0,0.5c0.2,0,0.4-0.1,0.6-0.1
		c1.1-0.2,1.5,0.2,1.7,1.4c0.3-0.1,0.6-0.2,0.8-0.2c0.9-0.2,1.5,0.3,1.7,1.4c0.4-0.2,0.8-0.3,1.1-0.2c0.6-0.1,1.1,0.2,1.6,0.9
		c0.1,0.1,0.2,0.2,0.2,0.2c0,0,0,0,0.1,0c0.1,0,0.1-0.1,0.2-0.1c0.2,0,0.4,0,0.6,0c0.8-0.1,1.4,0.4,2.1,0.8c0.1,0,0.1,0.1,0.2,0.1
		c0.4,0,0.9-0.1,1.4,0c0.3,0,0.7,0,0.9,0.3c0.2,0.1,0.3,0.3,0.5,0.6c0.3-0.4,0.7-0.4,1.2-0.4c0.3,0,0.5,0,0.8,0.1
		c0.5,0.2,0.8,0.4,0.8,0.9c0.3-0.4,0.7-0.6,1.3-0.6c0.1,0,0.1,0,0.2,0c0,0,0.1,0,0.1,0c0.7,0,1.1,0.3,1.2,0.9
		c0.6-0.5,1.1-0.8,1.4-0.7c0.5-0.1,0.8,0.1,1,0.7c0.2-0.3,0.4-0.6,0.7-0.8c0.2,0,0.3-0.1,0.5-0.1c0.3-0.1,0.7-0.1,0.9,0.1
		c0.4,0.3,0.2,0.6,0.1,1c-0.1,0.4-0.5,0.7-0.3,1.1c0.5-0.4,0.6-1.1,0.9-1.7c0.2-0.4,0.5-0.8,0.8-0.9c0.2-0.1,0.5,0,0.7,0
		c0-0.1,0.1-0.2,0.1-0.2c0,0,0,0,0,0.1c0,0,0,0,0.1-0.1c0.1-0.1,0.2-0.2,0.3-0.3c0.1-0.1,0.3-0.1,0.5,0.1c0.4,0.3,0,0.7,0.1,1.1
		c0.4-0.2,0.3-0.6,0.3-1c0-0.3,0-0.5,0.3-0.6c0.1,0,0.3,0,0.4,0.1c0,0,0,0.1,0,0.1c0,0,0,0,0.1,0c0.1,0.2,0,0.5-0.1,0.6
		c-0.3,0.4-0.3,1.1-1,0.9c-0.8,1.2-2.1,1.8-3.4,2.4c0,0-0.1,0-0.1,0c-0.2,0.1-0.5,0.3-0.5-0.1c0,0,0-0.1,0-0.2
		c-0.7,0.2-1.3,0.8-2.1,0.7c-0.3,0-0.5,0-0.8-0.1c0-0.1,0.1-0.1,0.1-0.2c-0.5,0.1-1,0.4-1.5,0.4c-0.4,0.1-0.7,0.1-1.1-0.3
		c-0.1,0-0.3,0.1-0.4,0.2c-0.2,0-0.5,0.1-0.7,0.1c-0.5,0.1-1,0.2-1.4-0.3c0,0,0,0-0.1,0c0,0-0.1,0-0.1,0c-0.5,0.1-1.1,0.3-1.5,0.2
		c-0.4,0-0.8-0.1-1.1-0.6c-0.1,0-0.1,0.1-0.2,0.1c-0.5,0.1-1.1,0.2-1.5,0.1c-0.3,0-0.7-0.2-1-0.5c-0.1-0.1-0.1-0.1-0.2-0.1
		c0,0-0.1,0-0.1,0c-0.2,0.1-0.4,0.1-0.6,0c-0.6,0-1.1-0.3-1.7-0.5c-1-0.5-2.3-0.2-3-1.3c-0.3,0.1-0.5,0.1-0.7,0.1
		c-0.7,0-1.1-0.6-1.5-1.2c-0.1,0.2-0.2,0.3-0.4,0.2c-0.1,0.1-0.2,0.1-0.4,0c-0.7-0.4-1.2-0.9-1.6-1.7c-0.1,0.2-0.3,0.2-0.5,0.1
		c-0.1,0-0.2-0.1-0.2-0.1c-0.1,0-0.2-0.1-0.2-0.1c0,0,0,0,0,0c-0.1,0-0.1,0-0.2,0c0.4,0.6,1,1,1.6,1.4c0.1,0.1,0.2,0.1,0.3,0.2
		c0.5,0.4,1,0.6,1.5,0.8c1,0.5,2.1,0.9,3.1,1.4c0.4,0.2,0.8,0.2,1.1,0.4c1.4,0.5,3,0.4,4.1,1.5c0.3,0.3,0.3,0,0.4-0.1
		c0.4-0.3,0.9-0.4,1.1-0.1c0.7,0.8,1.4,0.3,2.1,0.3c0.2,0,0.5,0,0.7,0.2c0.1,0.1,0.2,0.1,0.2,0.3c0,0,0,0,0,0.1c0,0,0.1,0,0.2-0.1
		c0.5-0.8,1.1-0.5,1.6,0c0.1,0.1,0.2,0.2,0.3,0c0.3-0.8,0.9-0.4,1.3-0.3c0,0,0,0.1,0,0.1c0.2-0.1,0.4-0.1,0.5-0.2
		c0.2,0,0.3-0.1,0.5-0.1c0,0,0,0,0,0c0.1,0,0.2,0,0.3,0c0.6,0.2,0.6,0.8,0.5,1.4c0.3-0.3,0.6-0.6,0.4-1c-0.2-0.4,0-0.5,0.4-0.5
		c0.2,0,0.4,0.1,0.5,0.2c0.1,0.1,0.2,0.3,0.1,0.5c-0.2,0.6-0.6,1.1-1.4,0.9c-0.6,0.3-1.2,0.5-1.7,0.8c-0.1,0-0.1,0-0.1-0.1
		c-0.4,0.3-0.6,0-0.8-0.2c0,0,0,0,0,0c0,0,0,0,0-0.1l0,0l0,0c0,0,0,0,0,0c-0.9,0.4-3,0.4-4.3,0.5c0,0,0,0,0,0c-0.2,0-0.4,0-0.6,0
		s-0.4,0-0.6,0c-0.4,0-0.8-0.1-1.1-0.1c-1-0.1-2-0.1-3-0.4c0,0,0,0,0,0c0,0,0,0,0,0c-1.3-0.3-2.7-0.6-3.8-1.3c0,0,0,0,0,0
		c-1-0.6-2-1-3-1.6c0,0,0,0,0,0c-0.1-0.1-0.2-0.1-0.2-0.2c-0.5-0.4-1-0.9-1.7-1.1c-0.1,0-0.2,0-0.2-0.1c-0.1-0.1-0.3-0.2-0.4-0.3
		c-0.1-0.1-0.1-0.1-0.1-0.2c-0.2-0.3-0.3-0.7-0.5-1c0,0.2-0.1,0.3-0.1,0.4c0,0-0.1,0-0.1-0.1c0,0,0,0,0,0.1
		c-0.2-0.1-0.4-0.3-0.4-0.4c0,0,0.1,0,0.1,0c-0.2-0.3-0.4-0.6-0.6-0.9c0,0,0,0,0,0c0,0-0.1,0-0.1,0c0,0,0,0.1,0,0.1
		c-0.2-0.1-0.4-0.2-0.5-0.3c0,0,0-0.1,0-0.1c-0.6-0.6-0.9-1.2-0.9-2c0-0.5-0.1-1.1,0.4-1.3c0.2-0.1,0.4-0.1,0.6,0
		c0.5,0,0.6,0.5,0.9,0.8c0,0.1,0.1,0.2,0.1,0.3c0.1,0.1,0.1,0.2,0.1,0.3c0.5,0.2,1,0.3,0.8,1c0,0,0,0.1,0,0.1c0.1,0,0.2,0,0.4-0.1
		c-0.4-1.1-0.9-2.1-0.5-3.3C106.7,82,106.6,81.3,107.3,81.5z M106.9,80.8c0,0,0,0.1,0,0.1c-0.9,0.9-0.5,2.1-0.7,3.3
		c-1.2-1.2-1.4-2.5-1.2-3.9c0-0.2,0-0.4,0.2-0.6c0.1-0.2,0.2-0.3,0.5-0.2C106,79.5,106.8,80.4,106.9,80.8z M103.9,81.6
		c-0.3-1-0.8-1.9-0.6-3c0.1-0.4,0.1-0.8,0.6-0.8c0.5-0.1,0.8,0.3,1.1,0.6c0.3,0.3,0.2,0.4,0,0.6c0,0,0,0-0.1,0.1
		c-0.1,0.1-0.1,0.1-0.2,0.2c-0.2,0.4-0.3,0.9-0.3,1.3c0,0.4,0,0.9,0.1,1.3c0,0.3,0.2,0.5-0.3,0.5c-0.5,0.7-0.9,1.4-0.7,2.4
		c-0.6-0.6-0.7-1.3-0.8-2.1C102.7,81.8,103.1,81.4,103.9,81.6z M103.4,98.6c-0.1,1.9-1,3.7-1.9,5.4c-3.2,6.1-7.9,10.7-14,14
		c-0.4,0.3-0.8,0.5-1.3,0.6c-1.3,0.3-1.4,1.1-1.1,2.1c0.2,0.6,0.3,1.1,0.5,1.6c0.7,1.5,1.8,2.1,3.4,1.7c2.7-0.6,4.7-2.5,6.5-4.4
		c0.8-0.9,1.4-1.9,1.9-3.1c1.4-3.7,3.8-6.7,7.4-8.6c0.6-0.4,1.3-0.6,2-0.8c4.5-1.2,7.8,1.6,7.6,6.2c0,0.3-0.1,0.6-0.1,0.9l0.1,0.1
		c1.9-1.4,3-3.4,4.1-5.6c0.2-0.3,0-0.5-0.2-0.7c-0.9-1.1-1.1-2.3-0.4-3.6c0.8-1.4,1.9-2,3.5-2c1,0,1.6,0.6,1.7,1.6
		c0.1,1.2,0,2.3-0.5,3.4c-0.2,0.6-0.1,1,0.4,1.3c0.4,0.3,0.8,0.7,1.2,1.1c1.8,2.1,1.9,3.7,0.4,6c-1,1.5-1.9,2.9-2.7,4.5
		c-0.2,0.6-0.5,1.2-0.3,1.9c0.3,0.9,1,1.1,1.9,1c1.3-0.2,2.6-0.7,3.8-1.3c0.4-0.2,0.5-0.5,0.4-0.9c-0.8-6.1,5-12.7,10.9-13.9
		c1.9-0.4,3.7-0.3,5,1.4c1.2,1.7,0.8,3.4-0.1,5.1c-1.5,2.9-4,4.8-6.7,6.6c-1.3,0.9-2.6,1.6-4,2.4c1,1,2.3,1.3,3.6,1.1
		c2-0.2,3.7-1.2,5.3-2.3c2-1.4,3.7-3.2,5.2-5.1c0.5-0.6,0.6-1.4,0.9-2.1c0.7-1.6,1.4-3.3,2.1-4.9c0.2-0.6,0.3-0.9-0.5-0.9
		c-1.1-0.1-2.2-0.3-3.2-0.6c-1.1-0.4-1.6-1.1-1.5-2.2c0.1-1.1,0.7-1.7,1.9-1.4c1.4,0.4,2.8,0.5,4.2,0.7c0.8,0.1,1.1,0,1.5-0.7
		c1.4-2.7,3-5.3,4.9-7.7c0.6-0.8,1.4-1.3,2.4-1.2c1.6,0.2,2.2,1.4,1.3,2.8c-1.3,2-2.6,4-3.9,6c-0.2,0.3-0.3,0.5-0.5,0.9
		c1.5,0.1,2.9-0.2,4.3-0.2c2.4,0.1,4.1-0.8,5.2-3.1c1-2,2.4-3.8,3.8-5.6c0.5-0.6,1-1.2,1.7-1.4c0.9-0.2,1.6-0.1,2.2,0.7
		c0.5,0.7,0.3,1.4-0.2,2.1c-1.3,1.7-2.5,3.5-3.7,5.3c-0.1,0.2-0.2,0.4-0.4,0.7c1.2,0,2.3-0.3,3.3-0.5c1.6-0.3,3.2-0.8,4.7-1.4
		c0.9-0.3,1.9-0.8,2.6,0.2c0.4,0.5-0.2,1.4-1.6,2.1c-3.2,1.5-6.6,2.4-10,3.1c-0.9,0.2-1.5,0.6-1.9,1.5c-1.6,3.1-2.8,6.4-3.6,9.8
		c-0.3,1.1-0.4,2.2-0.2,3.3c0.2,1.3,1,1.9,2.4,1.8c0.3,0,0.6,0,0.9-0.1c0.7-0.2,1.5-0.3,2.1-0.7c0.9-0.5,0.2-1.3,0.2-2
		c0.2-4.6,2.4-8,5.8-10.9c1.9-1.5,4-2.6,6.4-2.9c0.8-0.1,1.5-0.1,2.3,0.1c2.5,0.6,3.7,2.8,2.9,5.2c-0.8,2.1-2.2,3.8-3.9,5.3
		c-2.3,2.2-5,3.8-7.8,5.2c-0.6,0.4-0.6,0.6-0.1,1c1.1,0.9,2.3,1.1,3.6,1c4.7-0.4,8.3-2.7,11.3-6.2c0.3-0.4,0.5-0.8,1.1-0.8
		c0.6,0,0.9,0.3,1.2,0.7c0.3,0.5,0.1,1-0.2,1.5c-2.3,3.3-5.3,5.7-9.1,7c-2.7,0.9-5.4,1.3-8.2,0.7c-1.4-0.3-2.6-0.9-3.5-2
		c-0.4-0.4-0.7-0.4-1.2-0.2c-1.4,0.7-2.9,1.1-4.5,1.2c-2.5,0.1-4.6-0.5-5.7-3.1c-1.6,1.5-3.3,2.6-5.4,3c-3.9,0.7-6.2-1.1-6.7-5
		c0-0.1,0-0.2-0.1-0.5c-0.4,0.3-0.7,0.6-1,0.9c-2.7,2.6-5.9,4.6-9.8,5c-2.4,0.2-4.6-0.1-6.3-2c-0.5-0.5-0.8-0.1-1.1,0
		c-1.9,0.8-4,1.4-6.1,1.6c-1.8,0.1-3.5-0.1-4.6-1.8c-1.1-1.7-1-3.5,0-5.1c1.2-2.1,2.5-4.1,3.8-6.1c0.6-1,0.5-1.9-0.4-2.7
		c-0.7,1-1.3,2-2,2.9c-1.8,2.3-3.7,4.6-6.6,5.7c-0.4,0.2-0.6,0.6-0.8,0.9c-1.8,2.6-4,4.7-7.1,5.7c-0.5,0.2-1,0.3-1.5,0.4
		c-3.5,0.5-5.4-0.7-6.5-4.2c-0.5,0.4-0.9,0.9-1.3,1.3c-2.2,2.1-4.7,3.5-7.7,3.6c-4,0.2-6.5-1.9-7-5.9c-0.1-1.1-0.3-1.7-1.5-1.8
		c-1.3-0.2-2.4-1-3-2.2c-0.2-0.4-0.4-0.9,0-1.3c0.5-0.4,0.8,0,1.2,0.2c0.8,0.4,1.6,0.6,2.4,0.8c0.8,0.2,1-0.1,1.2-0.9
		c1.6-8.1,5.9-14.5,12.4-19.5c1.5-1.2,3.2-2.1,5.2-2.4C101.7,93.5,103.7,95.3,103.4,98.6z M56.7,101.7c0.4,1.3,1.1,2.3,2.3,2.9
		c0.3,0.1,0.6,0.3,0.8,0.5c0.4,0.3,0.7,0.7,0.5,1.2c-0.1,0.2-0.2,0.3-0.3,0.4c-0.2,0.3-0.7,0.4-1.1,0.4c-0.6,0-1.2-0.2-1.7-0.4
		c-3.8-1.6-5.7-5.7-4.5-9.8c0.5-1.5,1.2-2.8,2.1-3.9c1.4-1.8,3.4-3.1,5.8-4.1c3.8-1.5,8-1.7,12.1-1.6c4.7-0.1,9.2,0.6,13.7,0.8
		c2.5,0.1,4.9,0.2,7.4,0.3c0.6,0,1.3,0,1.6,0.7c0.1,0.4,0,0.7-0.2,1c-0.2,0.3-0.5,0.6-0.9,0.8c-1.5,1-3.2,1.2-4.9,1.1
		c-4.9-0.3-9.9-0.8-14.9-0.9c-3.5-0.1-7.1,0-10.5,1c-2,0.6-3.7,1.5-5.1,2.9c-0.5,0.5-0.9,1-1.3,1.6C56.6,98.2,56.2,99.9,56.7,101.7z
		 M54.1,110.2c0.5-0.1,0.9-0.1,1.3,0.1c0.3,0.1,0.4,0.3,0.5,0.5c0.3,0.3,0.3,0.8-0.1,1.2c-0.4,0.4-0.9,0.5-1.3,0.7
		c-3.5,1.4-5.6,5.3-4.6,9c0.2,0.9,0.7,1.7,1.2,2.4c1,1.1,2.5,1.8,4.3,1.8c2.9,0.1,5.3-0.9,7.1-3.2c2.4-3.1,3.5-6.8,4.7-10.4
		c0-0.1,0.1-0.2,0-0.3c-0.1-0.1-0.3,0-0.4,0c-1.2-0.1-2.5-0.2-3.7-0.4c-0.6-0.1-1.1-0.4-1.3-0.7c-0.3-0.3-0.4-0.7-0.4-1.2
		c0.2-0.9,0.9-1.4,2.1-1.2c1.3,0.2,2.5,0.2,3.8,0.3c0.7,0,1-0.2,1.2-0.9c1-3,2.3-5.8,4-8.4c1.9-2.9,4.3-5.1,7.8-5.9
		c0.8-0.2,1.7-0.3,2.5-0.1c0.3,0.1,0.5,0.2,0.7,0.5c0.2,0.2,0.3,0.4,0.3,0.7c0.1,0.5-0.3,0.9-0.7,1c-5.6,1.6-7.6,6.4-9.5,11.2
		c-0.2,0.4-0.3,0.9-0.5,1.3c-0.1-0.2,0-0.1-0.1,0.1c0.6-0.1,1.2-0.2,1.8-0.3c1.4-0.3,2.7-0.6,3.9-1.1c0.8-0.2,1.7-0.5,2.2,0.5
		c0,0,0,0,0,0.1c0,0,0.1,0.1,0.1,0.1c0.4,0.8-0.2,1.7-1.3,2.2c-2.2,0.9-4.5,1.4-6.9,1.7c-0.7,0.1-1,0.4-1.2,1c-0.9,3-2,5.9-3.5,8.7
		c-2.2,3.9-5.2,6.8-9.9,7.5c-2.5,0.4-4.9,0.4-7.3-0.5c-2.3-0.9-4-2.5-4.9-4.5c-1.3-2.5-1.2-5.6,0.4-8.3
		C48.1,112.5,50.8,110.8,54.1,110.2z M37.7,77.1c1.9,0.2,3.7,0.4,5.5,0.6c3.4,0.4,6.9,0.6,10.3,0.8c4.4,0.3,8.9,0.4,13.3,0.7
		c1,0.1,1.9,0.3,2.9,0.2c1.4,0,2.8,0,4.2,0c1.4,0.3,2.7,0.1,4.1,0.1c1.2,0.1,2.5,0.1,3.8,0.1c1.9,0,3.9,0,5.8,0
		c0.2,0.2,0.5,0.2,0.8,0.2c2.5,0,5.1,0,7.6,0c1.2,0,2.4,0,3.6,0c0.6,0,1,0.1,1.2,0.7c-0.3,0.3-0.7,0.2-0.9,0.2l0.2,0.1h-2.2
		c-11.5,0.4-32.1-0.1-43.7-0.5c-0.6,0-1.2,0-1.7,0c-0.1,0-0.2,0-0.3-0.1c-4-0.1-6.5-0.2-6.5-0.2l0,0c-1.9-0.1-3.7-0.4-5.4-1
		C39.3,78.7,38.3,78.3,37.7,77.1z M196.4,144.7c-0.1,0.7-0.6,0.5-1,0.4c-2.5-0.6-4.9-1.3-7.4-1.9c-7.9-1.8-15.8-3.1-23.8-4.1
		c-13.5-1.6-27.1-2.2-40.7-2.1c-10.9,0.1-21.8,0.6-32.7,1.5c-9.6,0.7-19.2,1.8-28.8,3.1c-5.3,0.7-10.6,1.5-15.9,2.5
		c-0.6,0.1-0.9,0.1-1.2-0.3c-0.1-0.1-0.2-0.2-0.3-0.4c-0.2-0.6-0.6-1.3-0.9-1.9c-0.6-1.2-0.6-1.2,0.8-1.3c6.8-0.7,13.5-1.5,20.3-2.1
		c5.4-0.5,10.9-1,16.3-1.4c10.1-0.8,20.3-1.3,30.5-1.5c0.9,0,1.7,0,2.6,0.1c2.4,0,4.8,0,7.2,0c8.3-0.2,16.6,0.1,24.8,0.6
		c15.2,1,30.1,3.2,44.8,7.1c1.5,0.4,3,0.7,4.5,1.1c0.2,0.1,0.5,0,0.7,0.1C196.3,144.3,196.4,144.4,196.4,144.7z M196.3,78.9
		c-0.4,1-1.3,1.3-2.3,1.4c-2.4,0.1-4.8,0.2-7.2,0.3c-0.1,0-0.3,0-0.5,0c-1.3,0.2-2.6,0.1-3.9,0.1c-0.2,0-0.4,0-0.6,0.1
		c-1.1,0-2.3,0-3.4,0c-2.8,0-5.6,0-8.4,0c-6.9,0-13.8,0-20.7,0c-0.8,0-1.5,0-2.3,0c-0.8-0.1-1.7,0.2-2.5-0.3
		c0.9-0.7,2.1-0.6,3.1-0.6c6.6-0.1,13.3-0.2,19.9-0.3c1.1,0,2.3,0,3.4,0c0.7-0.2,1.5-0.3,2.2-0.3c7.4-0.3,14.8-0.6,22.2-1.6
		C196.4,77.6,196.7,77.9,196.3,78.9z"/>
	<path class="st0" d="M128.6,93.1C128.6,93.1,128.6,93.2,128.6,93.1C128.6,93.2,128.6,93.1,128.6,93.1
		C128.6,93.1,128.6,93.1,128.6,93.1z"/>
	<path class="st0" d="M102.3,68.1C102.3,68.1,102.3,68.1,102.3,68.1c0,0.1,0.1,0.1,0.1,0.1c0,0,0-0.1,0-0.1c0.3,0.4,0.4,0.8,0.5,1.3
		c0,0,0,0.1,0,0.1c0.1,0.1,0.1,0.2,0.1,0.3c0.3,0.4,0.6,0.9,0.9,1.3c0.2,0.1,0.3,0.2,0.5,0.3c-0.1-0.2-0.1-0.3-0.2-0.5
		c-0.1-0.2-0.2-0.3-0.5-0.5c-1-2.2-0.6-4.1,1.3-5.6c1.8-1.5,4-2.1,6.3-2.6c0.4-0.1,0.9-0.1,0.6-0.8c-0.2-0.6,0.2-1.1,0.6-1.5
		c1.7-1.8,3.7-2.9,6.1-3.1c2.2-0.2,4.3-0.1,6.3,0.6c1.3,0.4,2.5,1,3.6,1.9c0.1,0.1,0.2,0.1,0.3,0.2c0.2,0,0.3,0.1,0.5,0.1
		c0.3,0,0.5,0.1,0.7,0.2c0.5,0.1,1,0.4,1.4,0.7c1.5,1.1,1.6,2.7,0.1,3.8c-0.8,0.6-0.8,0.8,0,1.4c2.5,1.7,2.9,4,1.2,6.5
		c-0.8,1-1.3,2.1-1.6,3.4c-0.6,2.1-2.1,3.5-4.3,4c0.1-0.1,0.2-0.2,0.3-0.3c-0.2,0.1-0.4,0.1-0.6,0.2c2.3-1.8,4-3.8,3.5-6.8
		c-0.4,2.5-1.6,4.6-3.9,5.8c0-0.1-0.1-0.1-0.1-0.2c0,0-0.1,0-0.1,0.1c0,0,0,0,0,0c-1.3,0.8-2.6,1.3-4.1,1.4c0,0,0,0,0,0
		c0,0,0,0-0.1,0c-0.2,0.2-0.4,0.2-0.7,0.1c-0.1,0-0.1,0-0.1-0.1c-0.1,0-0.1,0.1-0.2,0.1c-0.9,0.4-1.9,0.2-2.8,0.4
		c0,0.1,0,0.1,0.1,0.2c0,0,0.1,0,0.1,0c0,0.1,0,0.1,0.1,0.1c0.3,0.1,0.7-0.1,1,0.1c1,0.3,1.9,0.7,3,0.6c0,0,0.1,0,0.1,0
		c0,0,0,0,0-0.1c1.9-0.7,3.8-1.2,5.7-1.7c1-0.3,1.9-0.8,2.6-1.5c0.2-0.3,0.4-0.5,0.6-0.9c0.1-0.3,0.3-0.7,0.4-1
		c0.1-0.2,0.1-0.3,0.2-0.5c0.1-0.4,0.2-0.9,0.2-1.3c0-0.3,0.1-0.5,0.3-0.7c1.5-1.7,2.3-3.7,1.8-6c-0.3-0.5-0.7-0.9-1-1.4
		s-1.2-0.7-1.1-1.2c0.1-0.4,0.8-0.8,1.2-1.2c0.1-0.2,0.1-0.3,0.2-0.4c0-0.1,0-0.1,0.1-0.1c0.1-0.2,0.1-0.4,0.2-0.6
		c0.1-1.3-0.6-2.2-1.5-3c-2.1-1.8-4.6-2.6-7.2-3.1c-3.9-0.7-7.8-0.5-11.3,1.8c-0.9,0.6-1.9,1.3-2.1,2.3c-0.2,1.1-0.8,1.2-1.5,1.2
		c0,0,0,0,0,0c-1.3,0.4-2.5,0.8-3.8,1.1c-0.1,0.1-0.1,0.1-0.2,0.2c0.1-0.1,0.1-0.1,0.2-0.2c0,0,0,0,0,0c0,0-0.1,0-0.1,0
		c-0.1,0.1-0.1,0.1-0.2,0.2c-0.6,0.4-1.2,0.8-1.8,1.2c-0.6,0.8-1.2,1.5-1.8,2.3c0.1,0.1,0.1,0.2,0.1,0.3
		C102.5,67.4,102.3,67.7,102.3,68.1z"/>
	<path class="st0" d="M102.3,68.1c0-0.4,0.3-0.7,0.2-1.1C102.5,67.4,102.1,67.7,102.3,68.1z"/>
	<path class="st0" d="M133.3,74c0,0,0.1,0,0.1,0c0,0,0,0,0-0.1C133.4,74,133.3,74,133.3,74C133.3,74,133.3,74,133.3,74z"/>
	<path class="st0" d="M140.5,72.4C140.5,72.4,140.5,72.4,140.5,72.4c0,0.1-0.1,0.1-0.1,0.2C140.4,72.5,140.5,72.5,140.5,72.4z"/>
	<path class="st0" d="M134.3,59.5c0.3,0.1,0.2-0.2,0.3-0.3c0.3-0.4,0.6-0.9,1.2-0.8c-0.1-0.2,0-0.2,0-0.2c0,0,0.1,0,0.2,0
		c0.7-0.4,1.3-0.6,2-0.6c0.7,0,1.4,0.1,2,0.3c0.5,0,0.9,0.1,1.3,0.1c0,0,0.1,0,0.2,0c0.1,0,0.3,0,0.4,0h0c0.8-0.1,1.6-0.1,2.4,0
		c0.3,0,0.6,0,0.9,0c0.1,0,0.3,0,0.4,0h0c0.2,0,0.3,0,0.5,0c0.4-0.1,0.9-0.2,1.3-0.2c2.5-0.2,4.7-1.2,6.5-2.9
		c2.2-2.2,3.5-4.9,4.6-7.7c-0.2,0.1-0.3,0.2-0.5,0.2c-0.5,0.3-0.7,0.2-1.3-0.1c-0.6,0.3-1.3,0.6-1.9,0.9c-0.9,1.1-2.1,0.9-3.3,1
		c-2,0.1-4,0-6,0.5c-1.5,0.4-2.8,1-3.8,2c-0.3,0.3-0.6,0.7-0.9,1.2c0,0,0,0,0,0c0,0,0,0,0,0c-0.3,0.5-0.7,0.8-1.1,1.2
		c-0.6,0.7-1.1,1.5-1.1,2.4c0,0.3-0.1,0.5-0.2,0.6c-0.1,0.1-0.3,0.1-0.6,0c-1.1,0.2-2.2,0.2-3.1,0.9c-0.3,0.2-0.7,0.5-0.7,1
		C134,59.2,134,59.4,134.3,59.5z M147.6,50c0.2-0.1,0.5-0.1,0.7-0.1c0,0-0.1,0.1-0.1,0.1c0,0,0.1,0,0.1,0c0,0,0.1-0.1,0.1-0.1
		c0.2,0,0.4,0,0.6,0c0.4,0,0.9,0,1.3-0.1c-0.1,0-0.1,0.1-0.2,0.1c0,0,0,0,0.1,0c-0.2,0.1-0.4,0.2-0.7,0.3c-0.1,0-0.2,0.1-0.2,0.1
		c-0.1,0-0.2,0-0.3,0c-2.1,0.1-4,0.7-6,1.3c0,0,0.1,0,0.1-0.1c-0.1,0-0.1,0-0.2,0.1C144.3,50.5,145.9,50.1,147.6,50z M140,54.8
		c0.4-0.5,0.7-1,1.3-1.3c1.8-1.6,4-2.4,6.4-2.7c2.5-0.4,5-1.1,7.6-1.3c0,0,0,0,0,0c0.1,0,0.1,0,0.2,0c-0.3,0.7-0.9,1.1-1.4,1.6
		c0,0-0.1,0-0.1,0.1c0.1,0.1,0.2,0.2,0.3,0.2c0.8-0.8,1.5-1.7,2.3-2.5c0,0.1,0,0.1,0,0.2c0.1-0.1,0.1-0.1,0.1-0.2
		c-1.4,5-5.5,8.1-10.8,8.4c-1.2,0.1-2.3,0-3.5,0h0c0,0-0.1,0-0.1,0c-0.2,0-0.3,0-0.5,0c0,0-0.1,0-0.1,0c0,0,0,0-0.1,0
		c0,0-0.1,0-0.1,0c-0.1,0-0.1,0-0.2,0c0,0-0.1,0-0.1,0c-0.3,0-0.6,0.1-0.8,0c-0.4,0-0.7,0-0.9-0.3C139.1,56.3,139.6,55.5,140,54.8z"
		/>
	<path class="st0" d="M149,50C149,50,149,49.9,149,50C148.9,49.9,149,50,149,50C148.9,50,149,50,149,50z"/>
	<path class="st0" d="M149.6,75.1c0,0,0.1,0,0.1,0c0.2,0,0.4,0,0.5,0.3v0.1c0,0-0.1,0-0.1,0c0,0-0.1,0-0.1,0h0c-0.2,0-0.3,0-0.4,0
		c-0.1,0-0.3,0-0.4-0.1c-0.8,0-1.4,0-2.2,0c0,0-0.1,0-0.1,0c-0.2,0.2-0.4,0.2-0.7,0.1c-0.1,0-0.1,0-0.2,0c0.3,0.7,0.9,1.3,1.3,1.3
		c1-0.2,1.5,0.3,2.2,0.7c0.4,0.2,0.9,0.3,1.3,0.1c0.7-0.4,1.4-0.3,2.1-0.4c0.3,0,0.5,0,0.8-0.2c0.3-0.2,0.5-0.6,0.6-1
		c0-0.4,0-0.8-0.4-1.2c-0.8-1.1-2.3-0.7-3.3-1.5c-0.5-0.3-1.1-0.1-1.6,0.1c-0.1,0.1-0.3,0.2-0.4,0.3c-0.3,0.3-0.5,0.3-0.9,0.3
		c-0.9-0.1-1.6,0.3-2.3,0.9c0,0,0.1,0,0.1,0c0,0,0,0,0,0C146.9,74.9,148.3,74.9,149.6,75.1z"/>
	<path class="st0" d="M144.3,73.8c-0.2,0.3-0.2,0.3-0.1,0.4c2.2-1.6,4.5-3,7-3.9c-1.4,0.1-2.7,0.9-4.3,1.4c3.8-4.4,8-3.2,12.2-1.4
		c-2.2-1.7-4.8-2.2-7.9-2.1c1.7-1.2,3.3-1.9,5-2.5c-3.8,0.6-6.9,3-10.4,4.4C145.6,71.5,145.1,72.7,144.3,73.8
		C144.2,73.8,144.2,73.8,144.3,73.8z"/>
	<path class="st0" d="M143.8,73.8C143.7,73.8,143.7,73.8,143.8,73.8c-0.2,0-0.2,0.1-0.3,0.2c0,0,0.1,0.1,0.2,0.2
		C143.6,74.1,143.6,74.1,143.8,73.8z"/>
	<path class="st0" d="M106.2,62.9c1.4-2.7,3.5-4.9,5.9-6.7c4.5-3.3,9.4-4.5,14.9-3.8c0.4,0.2,0.5,0.1,0.6-0.3
		c-2.9-0.5-5.7-0.4-8.4,0.2c-6.9,1.6-11.8,5.7-15,12c0.6-0.4,1.2-0.8,1.8-1.2C106.1,63,106.1,63,106.2,62.9z"/>
	<path class="st0" d="M136.7,62.9c0.8,0.1,1.8-0.1,1.9,1.2c0,0.3,0.4,0.4,0.5,0.1c0.4-0.7,0.9-0.4,1.3-0.2c2.9,1.5,4.6,4.3,3.5,7.2
		c-0.2,0.6-0.6,1.2-1.1,1.9c0,0,0.1,0,0.1,0c0.2,0.3,0.5,0.5,0.8,0.6c0.9-1,1.4-2.3,1.6-3.6c0-3.4-2-5.9-5-6.8
		c-0.5-0.2-0.7-0.3-0.5-0.8c0-0.1,0.1-0.3,0.1-0.4c0-0.4,0.3-0.8-0.3-0.9c-0.5-0.1-0.5,0.4-0.5,0.7c0,0.5-0.2,0.9-0.4,1.3
		c-1.5-1-3.1-1-4.8-0.6c-0.1,0.2-0.1,0.3-0.2,0.5C134.7,63,135.7,62.7,136.7,62.9z"/>
	<path class="st0" d="M143.5,74c0.1-0.1,0.1-0.2,0.2-0.3c-0.3-0.2-0.6-0.4-0.8-0.6c0,0-0.1,0-0.1,0c-0.1,0.1-0.1,0.2-0.2,0.2
		C142.8,73.7,143.2,73.8,143.5,74z"/>
	<path class="st0" d="M140.8,81.2c0.3-0.1,0.5-0.3,0.8-0.4c0.1,0,0.1-0.1,0.2-0.1c0,0,0-0.1,0-0.1c0.9-0.4,1.6-0.9,2.2-1.5
		c0.7-0.8,1.1-1.7,1.2-2.9c-0.1-0.2-0.3-0.3-0.4-0.5c-0.1,0-0.1,0-0.2,0c-0.1,0.2-0.2,0.3-0.2,0.4c0.1,1.7-0.9,2.7-2.2,3.5
		c-1.8,1.1-3.8,1.6-5.8,2.1c-1.5,0.3-3.1,0.4-4.5,1c1,0.5,2.1,0,3-0.1c1.6-0.3,3.3-0.4,4.8-1c0.1-0.1,0.2-0.1,0.3-0.1
		c0.2-0.1,0.3-0.1,0.5-0.2C140.6,81.3,140.7,81.2,140.8,81.2z"/>
	<path class="st0" d="M141.8,80.6c0,0,0,0.1,0,0.1c0.9-0.4,1.7-0.9,2.2-1.6C143.4,79.7,142.6,80.2,141.8,80.6z"/>
	<path class="st0" d="M205.6,144.6c-1.7,0-3,1.4-3,3c0,1.6,1.4,3,3,3c1.7,0,3-1.3,3-3S207.3,144.6,205.6,144.6z M205.7,150
		c-1.3,0.1-2.6-1.1-2.6-2.4c0-1.3,1.1-2.5,2.5-2.5c1.3,0,2.5,1.1,2.6,2.3C208.2,148.8,207.1,150,205.7,150z"/>
	<path class="st0" d="M138,57.6c-0.7,0-1.3,0.2-2,0.6c0,0,0.1,0,0.1,0c-0.1,0.1-0.2,0.1-0.2,0.2c0,0,0,0,0-0.1c0,0,0,0-0.1,0.1
		c0,0.3-0.4,0.5-0.1,0.8c0.3,0.2,0.4-0.2,0.6-0.3c0.6-0.5,1.3-0.6,2-0.9c0.6,0,1.1-0.1,1.7-0.1C139.3,57.7,138.6,57.5,138,57.6z"/>
	<path class="st0" d="M138,57.6c0.7,0,1.3,0.1,2,0.3C139.3,57.6,138.6,57.5,138,57.6z"/>
	<path class="st0" d="M83,95.5c-5.6,1.7-7.6,6.4-9.5,11.2c-0.2,0.4-0.3,0.9-0.5,1.3c0,0,0,0.1,0,0.3c0.1-0.2,0-0.3,0.1-0.1
		c0.2-0.4,0.3-0.9,0.5-1.3c1.9-4.8,3.9-9.6,9.5-11.2c0.4-0.1,0.8-0.5,0.7-1c0-0.3-0.1-0.6-0.3-0.7c0.1,0.2,0.2,0.3,0.2,0.5
		C83.7,95,83.4,95.4,83,95.5z"/>
	<path class="st0" d="M73,108.3c0.6-0.1,1.2-0.2,1.8-0.3C74.2,108.1,73.6,108.2,73,108.3z"/>
	<path class="st0" d="M55.7,111.8c-0.3,0.4-0.8,0.5-1.3,0.7c-3.5,1.4-5.5,5.3-4.6,9c0.2,1,0.7,1.9,1.3,2.6c-0.6-0.7-1-1.4-1.2-2.4
		c-1-3.7,1.1-7.6,4.6-9c0.4-0.2,0.9-0.3,1.3-0.7c0.5-0.5,0.4-0.9,0.1-1.2C56,111.1,56,111.4,55.7,111.8z"/>
	<path class="st0" d="M79.6,109.6c-2.2,0.9-4.5,1.4-6.9,1.7c-0.7,0.1-1,0.4-1.2,1c-0.9,3-1.9,6-3.5,8.7c-2.2,3.9-5.3,6.8-9.9,7.5
		c-2.5,0.4-4.9,0.4-7.3-0.5c-2.2-0.9-3.9-2.4-4.8-4.3c0.9,2,2.6,3.6,4.9,4.5c2.4,0.9,4.8,0.9,7.3,0.5c4.7-0.7,7.7-3.6,9.9-7.5
		c1.5-2.8,2.6-5.7,3.5-8.7c0.2-0.6,0.5-0.9,1.2-1c2.4-0.3,4.7-0.8,6.9-1.7c1.1-0.5,1.7-1.4,1.3-2.2c0-0.1-0.1-0.1-0.1-0.1
		C81.2,108.3,80.6,109.1,79.6,109.6z"/>
	<path class="st0" d="M66.7,111.8c-1.2-0.1-2.5-0.2-3.7-0.4c-0.6-0.1-1-0.3-1.2-0.5c0.3,0.4,0.7,0.6,1.3,0.7
		c1.2,0.2,2.5,0.3,3.7,0.4c0.2,0,0.3,0,0.4,0C67.2,111.8,66.9,111.8,66.7,111.8z"/>
	<path class="st0" d="M131.2,64.2c-0.7,0.6-0.8,0.9,0,1.4c2.5,1.7,3,4,1.2,6.5c-0.7,1.1-1.2,2.2-1.6,3.4c-0.5,2-1.8,3.2-3.7,3.8
		c-0.1,0.1-0.2,0.2-0.3,0.3c2.2-0.5,3.7-1.9,4.3-4c0.3-1.3,0.8-2.4,1.6-3.4c1.7-2.5,1.3-4.8-1.2-6.5c-0.8-0.6-0.8-0.8,0-1.4
		c1.5-1.1,1.4-2.7-0.1-3.8c-0.4-0.3-0.9-0.6-1.4-0.7c0.4,0.1,0.8,0.4,1.1,0.6C132.6,61.5,132.7,63.1,131.2,64.2z"/>
	<path class="st0" d="M126,78.3c0,0.1,0.1,0.1,0.1,0.2c2.3-1.3,3.5-3.3,3.9-5.8c0-0.3-0.1-0.6-0.2-0.9
		C129.5,74.6,128.4,76.9,126,78.3z"/>
	<path class="st0" d="M104.4,71.4c-0.1-0.2-0.1-0.3-0.2-0.5C104.2,71.1,104.3,71.2,104.4,71.4z"/>
	<path class="st0" d="M128.8,59.5c-0.1,0-0.2-0.1-0.3-0.2c-1.1-0.9-2.3-1.5-3.6-1.9c1.2,0.4,2.3,1,3.3,1.8
		C128.3,59.4,128.5,59.4,128.8,59.5z"/>
	<path class="st0" d="M60.4,89.1c4-1.6,8.2-1.9,12.3-1.8c-4.1-0.1-8.3,0.1-12.1,1.6c-2.4,1-4.3,2.2-5.8,4.1
		C56.2,91.3,58.1,90,60.4,89.1z"/>
	<path class="st0" d="M58.8,95c-0.5,0.5-1,1.1-1.5,1.8c-1,1.6-1.4,3.2-0.9,5.1c0.4,1.3,1.1,2.3,2.3,2.9c0.3,0.1,0.6,0.3,0.8,0.5
		c0.4,0.3,0.7,0.7,0.5,1.2c0,0.1-0.1,0.1-0.1,0.2c0.1-0.1,0.2-0.2,0.3-0.4c0.2-0.5-0.1-0.9-0.5-1.2c-0.2-0.2-0.5-0.4-0.8-0.5
		c-1.2-0.6-1.9-1.6-2.3-2.9c-0.5-1.8-0.1-3.5,0.9-5.1C58,96,58.4,95.5,58.8,95z"/>
	<path class="st0" d="M86.2,88.3c2.4,0.1,4.9,0.2,7.4,0.3c0.7,0,1.4,0,1.6,0.7c0.1,0.3,0.1,0.6,0,0.8c0.2-0.3,0.3-0.6,0.2-1
		c-0.3-0.7-1-0.7-1.6-0.7c-2.5-0.1-4.9-0.2-7.4-0.3c-4.5-0.2-9-0.9-13.7-0.8C77.4,87.2,81.9,87.9,86.2,88.3z"/>
	<path class="st0" d="M106.3,78.4c0-0.1,0-0.2,0-0.3C106.3,78.2,106.3,78.3,106.3,78.4C106.3,78.4,106.3,78.4,106.3,78.4z"/>
	<path class="st0" d="M117.9,80.5c-1.4-0.3-2.8-0.9-4.1-1.5c-1.7-0.8-3.7-1.4-4.9-3.1c-0.3-0.5-1.2-0.5-1.3-1.2
		c-0.4-0.5-1.2-0.4-1.3-1.2c0,0,0-0.1-0.1-0.1c-0.6,0.2-0.8-0.2-1-0.6c0,0,0,0-0.1,0c-0.1,0.1-0.1,0.1-0.2,0.2c0.2,0.3,0,0.7-0.1,1
		c-0.4,1-0.1,2.2-0.2,3.3c0.1,0,0.1,0,0.2,0.1c0,0.1,0.1,0.1,0.1,0.2c0,0,0.1,0,0.1,0c-0.1-0.6-0.2-1.2-0.2-1.8c0-0.3,0-0.5,0.1-0.8
		c0.1-0.4,0-1.1,0.6-0.9c0.6,0.1,1,0.6,1,1.3c0,0,0,0.1,0,0.1c0,0.1,0,0.1,0,0.2c0,0.2-0.1,0.5-0.2,0.7c0,0.2,0,0.5-0.2,0.7
		c0,0.3,0,0.7,0,1c0.1-0.1,0.2-0.1,0.2-0.2c0-0.1,0-0.3,0-0.4c0.2-0.5-0.2-1.4,0.7-1.3c0,0,0,0,0,0c0.1,0,0.1,0,0.2,0
		c1,0.1,1.2,0.9,1.1,1.7c0.3-0.1,0.5-0.1,0.8-0.1c0.7,0,1.1,0.4,1.5,1.5c0.4-0.2,0.7-0.2,1-0.2c0.6,0,1,0.4,1.3,1.3
		c0.2-0.2,0.5-0.4,0.8-0.3c0.1,0,0.2,0,0.3,0c1.1,0.6,2.4,0.8,3.5,1.3c0,0.1,0.1,0.1,0.1,0.2c0.1,0.1,0.2,0.2,0.3,0.2
		c0,0,0.1,0,0.1,0c0.2,0,0.4,0,0.5,0c1.2,0,2.3,1,3.7,0.9c0.4,0,1,0.4,1.6,0.3c0.7-0.1,1.3,0.3,1.4,1.1c0.3-0.4,0.7-0.6,1.1-0.6
		c0.2,0,0.3,0,0.5,0c0.5,0.1,0.8,0.4,0.9,1c0.3-0.5,0.7-0.8,1.2-0.8c0.1,0,0.3,0,0.4,0c0.5,0.2,0.9,0.4,0.8,1.1c0.4-0.5,0.6-1,1.3-1
		c0,0,0.1,0,0.1,0c0,0,0.1,0,0.1,0c0.7,0,0.9,0.4,1,1c0.4-0.5,0.6-1.3,1.3-1.2c0.1,0,0.3,0,0.5,0.1c0.6,0.2,0.2,0.7,0.2,1.1
		c0.4-0.3,0.5-0.7,0.7-1.2c0.2-0.3,0.4-0.4,0.7-0.4c0.1,0,0.3,0,0.5,0.1c0.4,0.2,0.2,0.5,0,0.8c-0.3,0.6-0.7,1.1-1.3,1.6
		c0.2,0,0.3,0,0.5,0c0.1,0,0.1,0,0.2,0c0.7-0.8,1.4-1.6,1.7-2.7c0.1-0.4,0.3-0.6,0.7-0.5c0.3,0.1,0.3,0.2,0.3,0.4
		c0.1,0.2,0,0.5-0.1,0.7c-0.2,0.4-0.4,0.8-0.7,1.3c1-0.7,1.3-1.8,1.7-2.9c-1.5,0.6-3.1,0.6-4.6,0.9c-0.9,0.2-2,0.6-3,0.1
		c-1.2,0.4-2.5,0-3.7-0.1c-1-0.1-2-0.2-3-0.6c-0.6-0.2-1.2-0.4-1.9-0.3c-0.4,0-0.8-0.3-1-0.6c-1.1,0.2-2-0.2-3-0.6
		c-0.4-0.1-1,0.2-1.2-0.3C118.1,80.6,118,80.6,117.9,80.5z"/>
	<path class="st0" d="M104.8,77.3c0,0.1,0,0.1,0,0.2c0.1,0.1,0.2,0.1,0.3,0.1c0-0.1-0.1-0.1-0.1-0.2
		C104.9,77.4,104.9,77.3,104.8,77.3z"/>
	<path class="st0" d="M137.9,85.4c0,0,0.1-0.1,0.1-0.1C137.9,85.3,137.9,85.3,137.9,85.4C137.9,85.4,137.9,85.4,137.9,85.4z"/>
	<path class="st0" d="M117.9,80.5c0.1,0.1,0.1,0.1,0.2,0.2c0,0,0-0.1-0.1-0.1C118,80.5,118,80.5,117.9,80.5z"/>
	<path class="st0" d="M111.7,79.1c-0.3,0-0.6,0-1,0.2c0,0,0,0,0,0.1C111.1,79.2,111.5,79.1,111.7,79.1z"/>
	<path class="st0" d="M129,83.8c-0.6-0.1-0.9,0.3-1.2,0.8c0,0.1,0,0.2,0,0.3C128.2,84.2,128.4,83.8,129,83.8z"/>
	<path class="st0" d="M109.2,77.8c-0.2,0-0.5,0-0.8,0.1c0,0,0,0,0,0.1C108.8,77.9,109,77.9,109.2,77.8z"/>
	<path class="st0" d="M131.6,83.9c0,0-0.1,0-0.1,0c-0.7,0-0.9,0.5-1.3,1c0,0.1,0,0.2,0,0.3C130.7,84.6,130.9,84,131.6,83.9z"/>
	<path class="st0" d="M126.3,83.5c-0.4,0-0.8,0.2-1.1,0.6c0,0.1,0,0.1,0,0.2C125.6,83.9,125.9,83.5,126.3,83.5z"/>
	<path class="st0" d="M106.7,77.5c0.2-0.5-0.1-1.2,0.5-1.3c0,0,0,0,0,0c-0.9-0.1-0.5,0.8-0.7,1.3c0,0.1,0,0.2,0,0.4
		c0.1-0.2,0-0.5,0.2-0.7C106.7,77.3,106.7,77.4,106.7,77.5z"/>
	<path class="st0" d="M135.6,83.7c0.1-0.2,0.3-0.4,0.5-0.4c-0.3-0.1-0.6,0.1-0.7,0.4c-0.2,0.4-0.3,0.9-0.7,1.2c0,0,0,0.1,0,0.1
		C135.3,84.7,135.3,84.1,135.6,83.7z"/>
	<path class="st0" d="M118.3,81.8c0.1,0,0.2,0,0.3,0c-0.2,0-0.4,0-0.5,0c0,0-0.1,0-0.1,0C118.1,81.8,118.2,81.8,118.3,81.8z"/>
	<path class="st0" d="M134,83.7c-0.7-0.1-0.9,0.6-1.3,1.2c0,0.1,0,0.1,0,0.2C133.2,84.6,133.3,83.8,134,83.7z"/>
	<path class="st0" d="M113.8,80.1c-0.3-0.1-0.5,0.2-0.8,0.3c0,0,0,0.1,0,0.1C113.4,80.4,113.6,80.2,113.8,80.1z"/>
	<path class="st0" d="M140.1,82.4c0,0.2-0.1,0.5-0.2,0.7c-0.1,0.2-0.2,0.5-0.3,0.7c0,0,0,0,0.1,0c0,0,0-0.1,0-0.1c0.1,0,0.1,0,0.2,0
		c0.7-0.7,0.9-1.5,1-2.5c-0.1,0-0.3,0.1-0.4,0.1c-0.2,0-0.3,0.1-0.5,0.2c-0.1,0-0.1,0.1-0.2,0.1C140.4,81.7,140.3,82.1,140.1,82.4z"
		/>
	<path class="st0" d="M139.6,83.8c0,0,0.1,0,0.1,0c0,0,0.1-0.1,0.1-0.1c-0.1,0-0.1,0-0.2,0C139.7,83.7,139.6,83.8,139.6,83.8z"/>
	<path class="st0" d="M140,81.5c0.2-0.1,0.3-0.1,0.5-0.2C140.3,81.3,140.1,81.4,140,81.5z"/>
	<path class="st0" d="M140.1,82.4c0,0.2-0.1,0.5-0.2,0.7C139.9,82.9,140,82.7,140.1,82.4c0.2-0.3,0.3-0.7-0.3-0.8
		C140.3,81.7,140.2,82.1,140.1,82.4z"/>
	<path class="st0" d="M105,85.6c0-0.2,0.1-0.5,0.2-0.7c0,0,0,0.1,0,0.1c0-0.1,0.1-0.1,0.1-0.2c-0.3-0.2-0.4-0.2-0.5-0.1
		c0,0.1,0,0.2-0.1,0.3c0,0,0,0.1,0,0.1c0,0.4,0,0.9,0,1.3c0.1,0.1,0.2,0.2,0.3,0.3c0.1,0.1,0.1,0.1,0.2,0.2c0-0.2,0-0.3,0-0.5
		C105,86.1,104.9,85.9,105,85.6z"/>
	<path class="st0" d="M105,86.7c-0.1-0.1-0.2-0.2-0.3-0.3c0,0.1,0,0.1,0,0.2c0,0,0,0,0,0c0,0,0,0.1,0,0.1c0.1,0.1,0.3,0.2,0.5,0.3
		c0,0,0-0.1,0-0.1C105.1,86.8,105,86.8,105,86.7z"/>
	<path class="st0" d="M104.7,85c0-0.1,0-0.2,0.1-0.3C104.7,84.8,104.7,84.9,104.7,85z"/>
	<path class="st0" d="M104.7,86.4C104.7,86.4,104.7,86.4,104.7,86.4c0-0.4,0-0.9,0-1.3C104.6,85.5,104.6,86,104.7,86.4z"/>
	<path class="st0" d="M104.7,86.4C104.7,86.4,104.7,86.4,104.7,86.4c0,0.1,0,0.1,0,0.2c0,0,0,0,0,0
		C104.7,86.5,104.7,86.5,104.7,86.4z"/>
	<path class="st0" d="M126.8,91.9c0,0.1,0.1,0.2,0,0.3c0,0.3-0.1,0.5-0.1,0.8c0,0.1,0,0.1,0,0.1c0,0,0,0,0,0c0,0,0,0.1,0,0.1
		c0.8-0.3,0.5-1,0.5-1.5C127.2,91.8,127,91.8,126.8,91.9C126.9,91.9,126.8,91.9,126.8,91.9z"/>
	<path class="st0" d="M126.9,91.9c0.1-0.1,0.3-0.1,0.4-0.2C127.2,91.8,127,91.8,126.9,91.9C126.8,91.9,126.8,91.9,126.9,91.9
		C126.8,91.9,126.9,91.9,126.9,91.9z"/>
	<path class="st0" d="M126.8,91.9C126.8,91.9,126.8,91.9,126.8,91.9C126.8,91.9,126.8,91.9,126.8,91.9c0,0.1,0,0.2,0,0.3
		C126.9,92.1,126.9,92,126.8,91.9z"/>
	<path class="st0" d="M126.7,93c0,0.1,0,0.1,0,0.1c0,0,0,0,0,0C126.7,93.1,126.7,93,126.7,93z"/>
	<polygon class="st0" points="126.8,91.9 126.8,91.9 126.8,91.9 	"/>
	<path class="st0" d="M106.3,78.4c0,0.2,0,0.3,0.1,0.5c0-0.1,0-0.1,0.1-0.2c0-0.2,0-0.4,0-0.5C106.4,78.3,106.4,78.3,106.3,78.4z"/>
	<path class="st0" d="M106.5,78.7c-0.1,0-0.1,0.1-0.1,0.2c0,0.1,0.1,0.2,0.1,0.2c0-0.1,0-0.1,0-0.2
		C106.5,78.9,106.5,78.8,106.5,78.7C106.5,78.8,106.5,78.7,106.5,78.7z"/>
	<path class="st0" d="M106.5,78.7c0,0.1,0,0.1,0,0.2c0-0.1,0.1-0.2,0.2-0.4c0-0.3,0-0.7,0-1c-0.2,0.1-0.1,0.4-0.2,0.7
		C106.5,78.3,106.5,78.5,106.5,78.7z"/>
	<path class="st0" d="M106.5,78.7C106.5,78.7,106.5,78.8,106.5,78.7c0,0.1,0,0.2,0,0.2c0,0,0,0,0,0
		C106.5,78.8,106.5,78.8,106.5,78.7z"/>
	<path class="st0" d="M106.5,78.2c0-0.1,0-0.2,0-0.3c0,0.1-0.1,0.2-0.2,0.2c0,0.1,0,0.2,0,0.3C106.4,78.3,106.4,78.3,106.5,78.2z"/>
	<path class="st0" d="M106.7,77.5c0-0.1,0-0.2,0-0.3c-0.2,0.1-0.1,0.4-0.2,0.7c0,0.1,0,0.2,0,0.3C106.5,77.9,106.5,77.6,106.7,77.5z
		"/>
	<path class="st0" d="M126.7,93.9C126.6,93.9,126.6,93.9,126.7,93.9c-0.5-0.3,0.4-0.5,0.1-0.7c-0.4-0.1-0.5,0.2-0.8,0.5
		C126.2,93.9,126.4,94.2,126.7,93.9z"/>
	<path class="st0" d="M126,93.7C126,93.7,126,93.7,126,93.7c0.1,0.2,0.3,0.6,0.7,0.3c0,0,0,0-0.1,0C126.4,94.2,126.2,93.9,126,93.7z
		"/>
	<path class="st0" d="M126.7,93.9C126.7,93.9,126.7,93.9,126.7,93.9C126.7,93.9,126.6,93.9,126.7,93.9
		C126.6,93.9,126.6,93.9,126.7,93.9z"/>
	<path class="st0" d="M126.7,93.9C126.7,93.9,126.7,93.9,126.7,93.9C126.7,93.9,126.7,93.9,126.7,93.9
		C126.7,93.9,126.8,93.9,126.7,93.9C126.7,93.9,126.7,93.9,126.7,93.9z"/>
	<path class="st0" d="M105.5,84.1c0,0.1,0,0.2,0.1,0.3C105.6,84.3,105.5,84.2,105.5,84.1z"/>
	<path class="st0" d="M129.1,81.4c0.2,0,0.4-0.1,0.5-0.2c0.1-0.2,0.1-0.5,0.1-0.9c0.1,0.2,0.1,0.3,0.2,0.4c0-0.2,0-0.3,0-0.6
		c0.3,1,0.9,0.8,1.6,0.6c1-0.3,2-0.5,3.1-0.8c0.7-0.2,1.5-0.5,2.1,0.1c0-0.3,0.2-0.5,0.4-0.7c0.2-0.2,0.4-0.3,0.8-0.5
		c0.5-0.2,1.1-0.5,1.5-0.9c0.6-0.5,1-0.4,1.2,0.3c0.1-0.9,0.2-1.1,1.2-2.2c0.7-0.7,0.6-1.1-0.4-1.3c-1.1-0.2-2.1-0.3-3.3-0.2
		c-1.5,0.1-2.8,0.6-4.2,0.8c-0.1,0.2-0.3,0.3-0.5,0.4c-0.2,0.1-0.4,0.2-0.6,0.2c-0.5,0.5-0.6,1.2-1.2,1.5v0c0,0,0,0,0,0
		c-0.2,0.4-0.5,0.7-0.7,1c-0.7,0.8-1.6,1.3-2.7,1.6c-1.9,0.5-3.7,1-5.6,1.7c0.3,0.4,0.6,0.5,1,0.5c0.7-0.1,1.3,0.1,1.9,0.3
		c0.1,0,0.3,0,0.4-0.1c-0.1,0-0.3-0.1-0.4-0.1C126.8,82.2,127.9,81.6,129.1,81.4z"/>
	<path class="st0" d="M130.5,78c-0.7,0.7-1.5,1.3-2.6,1.5c-1.9,0.5-3.8,1-5.7,1.7c0,0,0,0,0,0.1c1.9-0.7,3.7-1.2,5.6-1.7
		C128.9,79.3,129.8,78.8,130.5,78z"/>
	<path class="st0" d="M134.3,79.5c-1.1,0.3-2.1,0.5-3.1,0.8c-0.7,0.2-1.3,0.4-1.6-0.6c0,0.2,0,0.4,0,0.6c0.4,0.6,0.9,0.4,1.4,0.2
		c1.1-0.3,2.1-0.5,3.1-0.8c0.9-0.3,1.9-0.7,2.5,0.6c-0.1-0.3-0.2-0.5-0.2-0.7C135.8,79,135,79.3,134.3,79.5z"/>
	<path class="st0" d="M129.3,80.8c-0.1,0.1-0.3,0.2-0.5,0.2c-1.2,0.2-2.3,0.8-3.6,0.9c0.1,0.1,0.3,0.1,0.4,0.1
		c1.1-0.2,2.1-0.7,3-0.8C128.9,81.1,129.2,81,129.3,80.8z"/>
	<path class="st0" d="M139.1,77.5c-0.4,0.4-1,0.7-1.5,0.9c-0.3,0.1-0.6,0.3-0.8,0.5c0.2-0.1,0.3-0.2,0.6-0.3
		c0.5-0.2,1.1-0.5,1.5-0.9c0.8-0.6,1.1-0.3,1.4,0.7c0-0.2,0-0.4,0-0.6C140,77.1,139.7,77,139.1,77.5z"/>
	<path class="st0" d="M135.8,69.8c0,0.8-0.2,1.7-0.8,2.6c-0.3,0.5-0.8,0.9-1,1.4c0.1,0,0.2-0.1,0.3-0.1c2.1-0.8,4.5-1.4,6.8-1.4
		c0.2-0.3,0.4-0.6,0.6-0.9c0.2-0.3,0.4-0.6,0.5-1c0.4-0.8,0.4-1.6,0.3-2.4c-0.3-1.2-1.4-2.2-2.9-2.5c-1.1-0.2-2.1-0.4-3-1.2
		c-0.7-0.7-1.7-0.6-2.6-0.6c-0.4,0.4-1.1,0.7-1.2,1.2c-0.1,0.5,0.8,0.7,1.1,1.2s0.7,0.9,1,1.4c0,0,0,0,0,0c0,0,0-0.1,0-0.1
		C135.5,68.2,135.8,69,135.8,69.8z"/>
	<path class="st0" d="M140.4,72.6c0-0.1,0.1-0.1,0.1-0.2c-2.3,0-4.7,0.6-6.8,1.4c-0.1,0.1-0.2,0.1-0.3,0.1c0,0,0,0,0,0.1
		C135.7,73.1,138,72.6,140.4,72.6z"/>
	<path class="st0" d="M112.9,74.6C112.9,74.6,112.9,74.6,112.9,74.6C112.9,74.6,113,74.6,112.9,74.6C113,74.6,113,74.6,112.9,74.6
		C113,74.6,112.9,74.6,112.9,74.6z"/>
	<path class="st0" d="M120.7,79.9c0.1,0,0.1,0,0.2-0.1c0,0,0,0,0,0C120.8,79.8,120.7,79.9,120.7,79.9z"/>
	<path class="st0" d="M142.6,73.2c0-0.1,0.1-0.1,0.1-0.2c-0.7-0.2-1.4-0.5-2-0.6c-0.1,0-0.1,0-0.2,0c0,0.1-0.1,0.1-0.1,0.2
		C141.1,72.8,141.9,73.1,142.6,73.2z"/>
	<path class="st0" d="M136.7,63c0.8,0.1,1.8-0.1,1.9,1.2c0,0.4,0.3,0.4,0.5,0.1c0.4-0.7,0.9-0.4,1.3-0.2c2.8,1.5,4.5,4.2,3.5,7.1
		c1.2-2.9-0.6-5.7-3.5-7.2c-0.4-0.2-0.9-0.5-1.3,0.2c-0.1,0.3-0.5,0.2-0.5-0.1C138.5,62.8,137.5,63,136.7,63c-1-0.3-2,0-3,0.1
		c0,0,0,0.1,0,0.1C134.7,63.1,135.7,62.9,136.7,63z"/>
	<path class="st0" d="M141.6,70.5c-0.1,0.4-0.3,0.7-0.5,1c0.2-0.3,0.4-0.5,0.5-0.8c0.4-0.9,0.5-1.8,0.3-2.6
		C142,68.9,141.9,69.7,141.6,70.5z"/>
	<path class="st0" d="M102.6,70.8c0.3-0.3,0.2-0.6,0.4-1c-0.1-0.1-0.1-0.2-0.2-0.3C102.6,69.9,102.4,70.4,102.6,70.8z"/>
	<polygon class="st0" points="102.5,70.9 102.5,70.9 102.5,70.9 	"/>
	<path class="st0" d="M103,69.8c0-0.1-0.1-0.2-0.1-0.3c0,0,0,0,0,0C102.8,69.6,102.9,69.7,103,69.8z"/>
	<path class="st0" d="M102.8,69.5c0,0,0-0.1,0-0.1l0,0c-0.4,0.4-0.5,0.9-0.3,1.5c0,0,0,0,0,0c0,0,0-0.1,0.1-0.1
		C102.4,70.4,102.6,69.9,102.8,69.5z"/>
	<path class="st0" d="M102.8,69.5C102.8,69.5,102.8,69.5,102.8,69.5c0-0.1,0-0.1,0-0.1C102.8,69.4,102.8,69.5,102.8,69.5z"/>
	<path class="st0" d="M121.7,79.8c-0.2,0-0.3,0-0.5,0.1C121.4,79.9,121.5,79.9,121.7,79.8z"/>
	<path class="st0" d="M121.7,79.8C121.7,79.7,121.7,79.7,121.7,79.8c-0.1-0.1-0.4-0.1-0.6,0c0,0,0.1,0,0.1,0
		C121.3,79.7,121.5,79.7,121.7,79.8z"/>
	<path class="st0" d="M133.6,63.2C133.5,63.2,133.5,63.3,133.6,63.2L133.6,63.2z"/>
	<path class="st0" d="M132.6,75.1c0.3-0.1,0.7-0.2,1-0.3c0.1,0,0.2-0.1,0.2-0.1c0,0,0,0,0,0c2.7-1.4,5.4-1.6,8.2-0.8
		c-1.2-0.6-2.5-0.7-3.8-0.7c-1.4,0-2.7,0.4-4,0.9c0,0,0,0,0,0c-0.4,0.2-0.9,0.3-1.3,0.5C132.7,74.8,132.7,74.9,132.6,75.1z"/>
	<path class="st0" d="M133.8,74.7C133.8,74.7,133.8,74.7,133.8,74.7c2.9-1.4,5.7-1.5,8.7-0.5c-0.2-0.1-0.3-0.2-0.5-0.3
		C139.1,73.1,136.5,73.3,133.8,74.7z"/>
	<path class="st0" d="M134.1,74.1C134.1,74.1,134.1,74.1,134.1,74.1C134.1,74.1,134.1,74.1,134.1,74.1z"/>
	<path class="st0" d="M133,74.2c0.1,0,0.2-0.1,0.2-0.1c0,0,0,0,0.1-0.1C133.1,74,133.1,74,133,74.2z"/>
	<path class="st0" d="M133.2,74.1c0.1,0,0.1-0.1,0.2-0.1C133.3,74,133.3,74,133.2,74.1C133.2,74,133.2,74,133.2,74.1z"/>
	<path class="st0" d="M151.5,53.7C151.5,53.7,151.5,53.7,151.5,53.7C151.5,53.7,151.5,53.7,151.5,53.7
		C151.5,53.7,151.5,53.7,151.5,53.7z"/>
	<path class="st0" d="M145.8,57.3c-1.2,0-2.2,0-3.4,0c1.2,0,2.3,0.1,3.5,0c5.3-0.3,9.4-3.4,10.8-8.4c-0.1,0.1-0.1,0.1-0.1,0.2
		C155.2,54,151,57,145.8,57.3z"/>
	<path class="st0" d="M153.9,51.1c0,0,0.1,0,0.1,0.1c0,0,0.1,0,0.1-0.1c0.5-0.5,1.1-0.9,1.4-1.6c-0.1,0-0.1,0-0.2,0
		C155,50.2,154.4,50.6,153.9,51.1z"/>
	<path class="st0" d="M151.3,53.2c0.1,0.1,0.2,0.3,0.2,0.5c0.1-0.1,0.1-0.1,0.2-0.2c1-0.4,1.9-1.1,2.6-2c-0.2-0.1-0.3-0.2-0.3-0.3
		C153.1,51.9,152.2,52.5,151.3,53.2z"/>
	<path class="st0" d="M151.7,53.5c-0.1,0.1-0.1,0.1-0.2,0.2c0,0,0,0,0,0c1.1-0.5,2.1-1.2,2.9-2.2c0,0,0,0-0.1,0
		C153.6,52.4,152.6,53.1,151.7,53.5z"/>
	<path class="st0" d="M145.2,58c-0.3,0-0.6,0-0.9,0c-0.8,0-1.6,0-2.4,0C143,58.3,144.1,58.2,145.2,58z"/>
	<path class="st0" d="M144.3,58c0.3,0,0.6,0,0.9,0C144.9,58,144.6,58,144.3,58z"/>
	<path class="st0" d="M149,50.3c0.1,0,0.2,0,0.3,0c0.1,0,0.2,0,0.2-0.1c0.2-0.1,0.4-0.2,0.6-0.3c-0.4,0-0.8,0-1.1,0.1
		C149,50.1,149,50.2,149,50.3z"/>
	<path class="st0" d="M149.5,50.2c-0.1,0-0.2,0.1-0.2,0.1C149.3,50.3,149.4,50.3,149.5,50.2z"/>
	<path class="st0" d="M150.1,49.9c0.1,0,0.1-0.1,0.2-0.1c-0.4,0.1-0.9,0.1-1.3,0.1c0,0,0,0.1,0,0.1
		C149.3,49.9,149.7,49.9,150.1,49.9z"/>
	<path class="st0" d="M147.7,50c0.1,0,0.2,0.1,0.3,0.1c0.1,0,0.1,0,0.2-0.1C148,49.9,147.7,49.9,147.7,50
		C147.6,50,147.6,50,147.7,50C147.6,50,147.6,50,147.7,50z"/>
	<path class="st0" d="M148.2,50c0,0,0.1,0,0.1-0.1c-0.2,0-0.5,0-0.7,0.1C147.7,49.9,148,49.9,148.2,50z"/>
	<path class="st0" d="M147.9,50.1c-0.1,0-0.2,0-0.3-0.1c0,0-0.1,0-0.1,0C147.7,50.1,147.8,50.1,147.9,50.1z"/>
	<path class="st0" d="M146.1,58c-0.2,0-0.3,0-0.5,0c0.1,0.1,0.2,0.1,0.3,0.1C145.9,58.1,146,58.1,146.1,58z"/>
	<path class="st0" d="M146.1,58L146.1,58c-0.1,0.1-0.2,0.1-0.2,0.1C145.9,58.2,146,58.1,146.1,58z"/>
	<path class="st0" d="M141.4,58.1c0,0,0.1,0,0.1-0.1C141.4,58,141.3,58,141.4,58.1C141.3,58,141.3,58,141.4,58.1
		C141.3,58,141.3,58.1,141.4,58.1z"/>
	<path class="st0" d="M141.4,58.1C141.3,58.1,141.3,58,141.4,58.1C141.3,58.1,141.3,58.1,141.4,58.1z"/>
	<path class="st0" d="M141.6,57.2C141.6,57.2,141.6,57.3,141.6,57.2C141.6,57.3,141.7,57.3,141.6,57.2
		C141.7,57.3,141.7,57.2,141.6,57.2z"/>
	<path class="st0" d="M141.5,57.3C141.5,57.3,141.5,57.3,141.5,57.3C141.5,57.3,141.5,57.3,141.5,57.3
		C141.5,57.3,141.5,57.3,141.5,57.3z"/>
	<path class="st0" d="M141.5,57.3C141.5,57.3,141.5,57.3,141.5,57.3c0.1,0,0.1-0.1,0.2-0.1C141.6,57.2,141.5,57.2,141.5,57.3z"/>
	<path class="st0" d="M136,58.2C136,58.2,136,58.2,136,58.2C136,58.2,136,58.2,136,58.2C136,58.2,136,58.2,136,58.2z"/>
	<path class="st0" d="M135.8,58.3c0.1,0,0.1-0.1,0.1-0.1c0,0-0.1,0-0.2,0C135.8,58.2,135.8,58.2,135.8,58.3z"/>
	<path class="st0" d="M136,58.2c-0.1,0-0.1,0-0.2,0C135.9,58.2,135.9,58.2,136,58.2C136,58.2,136,58.2,136,58.2z"/>
	<path class="st0" d="M135.8,58.3C135.9,58.4,135.9,58.4,135.8,58.3c0,0,0.1,0,0.2-0.1c0,0-0.1,0-0.1,0c0,0,0,0,0,0
		C136,58.3,135.9,58.3,135.8,58.3z"/>
	<path class="st0" d="M150.2,76.1C150.2,76.1,150.2,76.1,150.2,76.1C150.3,76.1,150.3,76.1,150.2,76.1c0-0.1-0.1-0.1-0.2-0.2
		c-0.1,0-0.2,0-0.4,0.1c0.1,0.1,0.2,0.1,0.3,0.1C150,76.1,150.1,76.1,150.2,76.1z"/>
	<path class="st0" d="M149.9,76.1c0.1,0,0.2,0,0.4,0c0,0,0,0-0.1,0C150.1,76.1,150,76.1,149.9,76.1z"/>
	<path class="st0" d="M149.9,75.9c0.1,0,0.2,0.1,0.3,0.2C150.2,76,150.1,75.9,149.9,75.9z"/>
	<path class="st0" d="M146.5,76.1c0.3,0.1,0.5,0.1,0.7-0.1c-0.1,0-0.2-0.1-0.3-0.1C146.8,76,146.7,76,146.5,76.1
		C146.5,76.1,146.5,76.1,146.5,76.1z"/>
	<path class="st0" d="M146.6,76.1c0.1-0.1,0.2-0.1,0.3-0.2c-0.1,0-0.3,0-0.4,0.2C146.5,76.1,146.5,76.1,146.6,76.1
		C146.5,76.1,146.5,76.1,146.6,76.1z"/>
	<path class="st0" d="M154.2,122.9c2.1-1,3.9-2.2,4.3-4.9c0.5-3.4,2-6.6,3.6-9.9c-2.3,0.3-4.5,0.5-6.7,0.4c-0.5,0-0.7,0.2-0.9,0.6
		c-1.1,2.7-2.3,5.4-3,8.2c-0.3,1.3-0.5,2.5-0.3,3.8C151.5,123,152.6,123.7,154.2,122.9z"/>
	<path class="st0" d="M98.1,97.1c-1.5,0.4-2.7,1.3-3.8,2.4c-2.9,2.9-5.1,6.2-6.9,9.8c-1,2-1.8,4.2-2.2,6.5c0.7-0.1,1.1-0.4,1.6-0.7
		c5.4-3.6,9.4-8.3,12.2-14.1c0.4-0.8,0.6-1.7,0.7-2.6C99.8,97.2,99.3,96.8,98.1,97.1z"/>
	<path class="st0" d="M102.4,123.4c1.2,0.6,2.2-0.3,3-1c2.1-1.8,3.4-4.1,4.1-6.8c0.4-1.6,0.7-3.2,0.1-4.8c-0.4-1.1-1.1-1.4-2.2-1
		c-0.3,0.1-0.7,0.3-1,0.6c-3.1,2.6-4.8,5.9-5.2,9.8C101.3,121.5,101.2,122.8,102.4,123.4z"/>
	<path class="st0" d="M181.2,111.9c0.3-0.6,0.8-1.5,0.1-2.1c-0.7-0.7-1.4-0.2-2.1,0.2c-1.9,1-3.3,2.5-4.4,4.2
		c-1.1,1.7-1.9,3.6-2.1,5.9c1.6-0.8,3-1.8,4.2-2.9C178.7,115.7,180.2,114,181.2,111.9z"/>
	<path class="st0" d="M138.6,114.5c0.6-0.7,1.1-1.5,1.4-2.4c0.2-0.5,0.5-1.2,0-1.7c-0.5-0.6-1.2-0.2-1.8,0c-0.1,0.1-0.3,0.1-0.4,0.2
		c-3.4,2.1-5.4,5.1-5.9,9.4C134.5,118.4,136.8,116.8,138.6,114.5z"/>
	<path class="st0" d="M114.2,114.4c0.1,0.1,0.2,0,0.2-0.1c-0.1-0.1-0.1-0.1-0.2-0.1V114.4z"/>
	<path class="st0" d="M109.4,70.2c0.9,1.7,3.1,2.6,5.2,2c0.6-0.2,1.3-0.4,1.8-0.4c0.2,0,0.3,0,0.5,0c0.7,0,1,0,1.4,0
		c2.4-0.2,4.6-0.7,6.4-2.5c0.4-0.4,0.7-0.9,0.9-1.4c0.1-0.3,0.2-0.7,0.3-1c0.1-0.8,0-1.7-0.4-2.4c-0.5-0.9-1.3-1.6-2.4-2
		c-1.5-0.5-3.2-0.5-4.7,0.1c-1,0.4-1.9,1-3,0.2c-0.4-0.2-0.9-0.1-1.4,0c-1.2,0.4-2.4,0.9-3.4,1.8c0,0,0,0,0,0
		C108.8,66.3,108.4,68.2,109.4,70.2z M110.1,66.2c1.4-2.4,4-3.3,6.5-2.3c0.4,0.2,0.6,0,0.9-0.2c2-1.3,4-1.1,6-0.1
		c0.2,0.1,0.4,0.2,0.6,0.4c1,0.7,1.2,2.1,0.3,3.4c-1.5,2.2-3.7,3.3-6.2,3.7c-0.3,0.1-0.7,0.1-1,0.1c-0.1,0-0.3,0-0.4,0
		c0.7-0.6,1.4-1.2,2.3-1.5c0.4-0.2,0.7-0.3,1.1-0.4c1.4-0.3,2.2-1.2,2.1-2.4c0-0.8-0.1-1.4-0.5-1.8c-0.4-0.3-1-0.4-1.9-0.3
		c-1,0.1-2,0.1-3,0.2c-0.4,0.1-0.8,0.2-1.2,0.3c-1,0.4-1.9,0.8-1.9,2c0,0.4,0.2,0.9,0.6,1.2c0.4,0.4,0.9,0.6,1.4,0.8
		c0.4,0.1,0.9,0.2,1.3,0.2c0,0,0,0-0.1,0.1c0.1,0,0.1,0,0.2,0c-1.1,1.6-2.6,2.3-4.3,1.8c-1-0.3-1.8-0.7-2.3-1.3
		c-0.6-0.5-0.9-1.2-0.9-2.1C109.7,67.4,109.8,66.8,110.1,66.2z M114.8,66.7c0.5-1,2.5-1.8,3.5-1.5c0.1,0,0.1,0,0.1,0.1
		c0.2,0.1,0.1,0.3,0.1,0.3c0.5-0.2,1-0.5,1.5-0.6c0.2,0,0.4-0.1,0.6-0.1c0.4,0,0.7,0.1,0.8,0.5c0,0,0,0.1,0,0.1c0,0,0,0,0,0
		c0.1,0.3-0.2,0.5-0.5,0.7c-0.7,0.4-1.5,0.8-2.3,0.7c-0.4-0.1-0.5-0.2-0.5-0.3c-0.2-0.3,0.4-0.7,0.4-1c-1.2,0.5-1.5,1.1-1.1,2.3
		c0.3,0.6,0.2,0.9-0.1,1c-0.2,0.1-0.4,0.1-0.7,0c0,0,0,0,0,0l0,0c-0.5,0-1-0.1-1.4-0.4c-0.4-0.2-0.6-0.5-0.6-0.8
		C114.5,67.4,114.6,67.1,114.8,66.7z M121.7,67.2c-0.1,1.1-1.4,1.9-2.8,1.9c-0.4,0-0.8,0-1-0.6c-0.1-0.6,0.1-0.9,0.6-1.1
		c0.8-0.3,1.6-0.6,2.3-0.9c0.2-0.1,0.4-0.1,0.5-0.1C121.7,66.3,121.8,66.7,121.7,67.2z"/>
	<path class="st0" d="M114,62.9c-1.3,0.4-2.4,0.9-3.4,1.8c0,0,0,0,0,0c0,0,0,0,0,0C111.6,63.8,112.8,63.3,114,62.9z"/>
	<path class="st0" d="M116.4,71.8c0.2,0,0.3,0,0.5,0C116.7,71.8,116.6,71.8,116.4,71.8z"/>
	<path class="st0" d="M124.7,69.3c-1.8,1.8-4,2.3-6.4,2.5C120.7,71.6,123,71.1,124.7,69.3z"/>
	<path class="st0" d="M107.6,74.4c0,0,0.1,0,0.1,0c0,0,0,0,0,0c0.3,0.1,0.6,0.1,0.9,0.1c1.4,0.2,2.8,0.2,4.2,0.1c0,0,0,0,0,0
		c0,0,0,0,0,0c0,0,0,0,0.1,0c0,0,0,0,0,0c0,0,0,0,0.1,0c0,0,0,0,0,0c0.9,0.1,1.8,0.2,2.7,0.5c1.4,0.5,2.8,0.8,4.2,0.8
		c0.8,0,1.7-0.1,2.5-0.2c0,0,0,0,0,0c0,0,0.1,0,0.1,0c3.1-1.1,4.9-3.4,5.7-6.4c0.2-1,0.4-2.1-0.1-3c-0.7-1.1-0.4-1.8,0.5-2.6
		c0.8-0.7,0.8-1.5,0.1-2.1c-0.9-0.8-2-1-3.1-1.2c0.3,0.2,0.6,0.4,0.9,0.6c1.5,1,1.6,1.7,0.5,3.1c-0.4,0.5-0.3,0.9,0,1.4
		c1.1,1.4,1.2,3,0.5,4.6c-0.6,1.5-1.7,2.6-3.1,3.4c-0.1,0-0.1,0.1-0.2,0.1c0,0,0,0,0,0c-3,1.7-6,1.5-9.1,0.2
		c-0.6-0.2-1.2-0.5-1.9-0.3c-2.4,0.7-4.7,0.7-6.9-0.4c0,0.1,0,0.2,0.1,0.3c0,0,0,0,0,0c0,0,0,0.1,0,0.1
		C106.6,73.9,107.3,74,107.6,74.4z"/>
	<path class="st0" d="M127.5,70.1c0.7-1.6,0.6-3.2-0.5-4.6c-0.3-0.5-0.4-0.9,0-1.4c1.1-1.4,1-2.1-0.5-3.1c-0.3-0.2-0.6-0.4-0.9-0.6
		c-0.2,0-0.3,0-0.5-0.1c0.4,0.3,0.8,0.5,1.2,0.8c1.5,1,1.6,1.7,0.5,3.1c-0.5,0.5-0.4,0.9,0,1.4c1.1,1.4,1.2,3,0.5,4.6
		c-0.7,1.5-1.7,2.6-3.1,3.4c0.1,0,0.1-0.1,0.2-0.1C125.8,72.7,126.9,71.6,127.5,70.1z"/>
	<path class="st0" d="M106.3,73.4c0,0,0,0.1,0.1,0.1C106.4,73.5,106.4,73.4,106.3,73.4C106.4,73.4,106.3,73.4,106.3,73.4z"/>
	<path class="st0" d="M107.7,74.4c0.3,0,0.6,0.1,0.9,0.1C108.3,74.5,108,74.5,107.7,74.4C107.7,74.4,107.7,74.4,107.7,74.4z"/>
	<path class="st0" d="M113,74.6C113,74.6,112.9,74.6,113,74.6C112.9,74.6,113,74.6,113,74.6C113,74.6,113,74.6,113,74.6z"/>
	<path class="st0" d="M119.9,75.9c0.8,0,1.7,0,2.5-0.2c0,0,0,0,0,0C121.5,75.9,120.7,76,119.9,75.9z"/>
	<path class="st0" d="M112.8,74.6C112.8,74.6,112.8,74.6,112.8,74.6C112.8,74.6,112.8,74.6,112.8,74.6
		C112.8,74.6,112.8,74.6,112.8,74.6z"/>
	<path class="st0" d="M106.3,73.1c-0.3-0.3-0.6-0.6-1-0.6C105.5,72.9,105.8,73.2,106.3,73.1z"/>
	<path class="st0" d="M130.4,87.2C130.4,87.2,130.4,87.1,130.4,87.2C130.4,87.1,130.4,87.1,130.4,87.2
		C130.3,87.2,130.4,87.2,130.4,87.2L130.4,87.2z"/>
	<path class="st0" d="M130.4,87.2C130.4,87.2,130.3,87.2,130.4,87.2c-0.1,0-0.1,0.1-0.1,0.1C130.3,87.3,130.3,87.2,130.4,87.2
		L130.4,87.2z"/>
	<path class="st0" d="M130.5,87.3C130.5,87.3,130.5,87.3,130.5,87.3c0.1,0,0.2,0,0.2-0.1c-0.1-0.1-0.1-0.1-0.2-0.1
		c0,0-0.1,0.1-0.1,0.1L130.5,87.3z"/>
	<path class="st0" d="M130.4,87.5c0,0,0.1-0.1,0.2-0.2c0,0,0,0-0.1,0l-0.1-0.1c0,0-0.1,0.1-0.1,0.1
		C130.4,87.3,130.4,87.4,130.4,87.5z"/>
	<path class="st0" d="M128.5,87.3C128.5,87.3,128.5,87.3,128.5,87.3c0.1,0,0.1-0.1,0.1-0.1c-0.1-0.2-0.2-0.1-0.2,0
		C128.4,87.2,128.4,87.2,128.5,87.3z"/>
	<path class="st0" d="M128.5,87.4C128.5,87.4,128.5,87.3,128.5,87.4C128.5,87.3,128.5,87.3,128.5,87.4c-0.1-0.2-0.1-0.2-0.1-0.2
		c0,0,0,0-0.1,0C128.3,87.3,128.4,87.3,128.5,87.4z"/>
	<path class="st0" d="M132.1,90.5c0-0.2,0.1-0.3,0.2-0.4c-0.1,0-0.2,0-0.2,0.1c0,0,0,0,0,0c0,0,0,0,0,0
		C132,90.3,132,90.4,132.1,90.5z"/>
	<path class="st0" d="M132.1,90.2C132.1,90.2,132.1,90.2,132.1,90.2C132.1,90.2,132.1,90.2,132.1,90.2
		C132.1,90.2,132.1,90.2,132.1,90.2z"/>
	<path class="st0" d="M129.4,91.1c0-0.1,0.1-0.2,0.1-0.2c-0.1-0.1-0.2-0.1-0.3,0C129.2,91,129.3,91,129.4,91.1z"/>
	<path class="st0" d="M106.3,85.8C106.3,85.8,106.2,85.9,106.3,85.8c0,0.2,0.1,0.2,0.2,0.2c0,0,0-0.1,0-0.2c0,0,0-0.1,0-0.1
		C106.4,85.7,106.3,85.7,106.3,85.8z"/>
	<path class="st0" d="M106.4,85.7c0,0-0.1-0.1-0.1-0.1c-0.1,0-0.1,0.1-0.2,0.1c0,0.1,0,0.1,0.1,0.2c0,0,0-0.1,0-0.1
		C106.3,85.7,106.4,85.7,106.4,85.7z"/>
	<path class="st0" d="M106.3,76.8c0.2-0.2,0.2-0.5,0.2-0.7C106.3,76.3,106.3,76.5,106.3,76.8z"/>
	<path class="st0" d="M134.9,88.4c-0.1,0.2-0.2,0.4-0.2,0.7c0.1-0.2,0.3-0.4,0.3-0.6C135,88.5,135,88.5,134.9,88.4z"/>
	<path class="st0" d="M134.9,88.4C134.9,88.4,134.9,88.4,134.9,88.4C134.9,88.4,134.9,88.4,134.9,88.4
		C134.9,88.4,134.9,88.4,134.9,88.4c-0.1-0.1-0.1-0.1-0.1-0.1c-0.1,0.3-0.3,0.6-0.2,1.1c0.1-0.1,0.1-0.2,0.2-0.3
		C134.7,88.8,134.8,88.6,134.9,88.4z"/>
	<path class="st0" d="M135,88.3c0,0,0,0.1-0.1,0.1c0.1,0,0.1,0.1,0.2,0.1c0.1-0.3,0.2-0.6-0.1-0.9c-0.1,0.1-0.1,0.1-0.1,0.1
		C134.9,87.9,135,88.1,135,88.3z"/>
	<path class="st0" d="M134.9,87.7C134.9,87.7,134.8,87.7,134.9,87.7C134.8,87.7,134.8,87.7,134.9,87.7
		C134.8,87.7,134.9,87.7,134.9,87.7z"/>
	<path class="st0" d="M135,87.6C135,87.5,135,87.5,135,87.6c-0.1-0.1-0.1,0-0.2,0.1c0,0,0,0,0,0C134.9,87.7,134.9,87.6,135,87.6z"/>
	<path class="st0" d="M134.9,88.4c0,0,0-0.1,0.1-0.1c0-0.2-0.1-0.4-0.1-0.6c0,0,0,0,0,0c0,0,0,0.1-0.1,0.1
		C134.8,88,134.9,88.2,134.9,88.4C134.9,88.4,134.9,88.4,134.9,88.4C134.9,88.4,134.9,88.4,134.9,88.4z"/>
	<path class="st0" d="M134.9,88.4C134.9,88.4,134.9,88.4,134.9,88.4C134.9,88.4,134.9,88.4,134.9,88.4
		C134.9,88.4,134.9,88.4,134.9,88.4z"/>
	<path class="st0" d="M137.6,85.1c0.1,0.1,0.2,0,0.3-0.1c-0.1-0.1-0.1-0.1-0.2-0.1C137.7,85,137.6,85.1,137.6,85.1z"/>
	<path class="st0" d="M104.1,82.1c0.1-0.2,0-0.2,0-0.3c0-0.1-0.1-0.1-0.2-0.2C103.7,81.9,103.9,82,104.1,82.1z"/>
	<path class="st0" d="M104.1,82.1c0,0.1-0.1,0.2,0,0.2c0,0,0.1,0,0.2,0C104.3,82.2,104.3,82,104.1,82.1z"/>
	<path class="st0" d="M104.1,82.1c0.2-0.1,0.2,0.1,0.2,0.2C104.3,82.1,104.3,82,104.1,82.1z"/>
	<path class="st0" d="M104.3,82.3c-0.1,0-0.1,0-0.2,0C104.1,82.3,104.2,82.3,104.3,82.3z"/>
	<path class="st0" d="M132.6,75.1c0,0.1,0,0.2,0,0.3c0.2,0,0.4,0,0.5-0.1c0.2-0.1,0.3-0.2,0.5-0.4c0,0,0,0,0,0c0,0,0.1-0.1,0.1-0.1
		C133.3,74.9,133,75,132.6,75.1z"/>
	<path class="st0" d="M133.1,75.3c0.2-0.1,0.4-0.2,0.5-0.4c0,0,0,0,0,0C133.4,75.1,133.3,75.2,133.1,75.3z"/>
	<path class="st0" d="M206.1,146c-1.3-0.3-1.6,0-1.6,1.5c0,0.3,0,0.6-0.2,0.9c0.1,0.3-0.1,0.7,0.3,0.7c0.5,0,0.3-0.5,0.3-0.7
		c0-0.2,0-0.4,0.3-0.5c0.3,0,0.5,0.1,0.6,0.4c0.1,0.2,0.2,0.5,0.3,0.7c0.1,0.1,0.3,0.1,0.4,0.1s0.2-0.2,0.2-0.2
		c-0.5-0.7,0.1-1.4,0.1-2.1C206.9,146.4,206.5,146.1,206.1,146z M205.7,147.3c-0.3,0-0.6,0-0.6-0.4c0-0.4,0.2-0.4,0.5-0.4
		c0.3,0,0.6,0.1,0.7,0.4C206.2,147.2,206,147.3,205.7,147.3z"/>
	<path class="st0" d="M115.9,69.4c0.4,0.1,0.8,0.1,1.1,0.2c0,0,0,0,0.1-0.1c-0.4,0-0.9-0.1-1.3-0.2c-0.6-0.1-1.1-0.4-1.4-0.8
		C114.7,68.9,115.2,69.2,115.9,69.4z"/>
	<path class="st0" d="M117.2,71.2c-0.1,0-0.3,0-0.4,0C116.9,71.2,117.1,71.2,117.2,71.2z"/>
	<path class="st0" d="M122.4,67c0-0.9-0.2-1.5-0.6-1.9c0.3,0.4,0.5,0.9,0.5,1.8c0.1,1.2-0.7,2.1-2.1,2.4c-0.4,0.1-0.8,0.2-1.1,0.4
		c0.4-0.1,0.8-0.2,1.2-0.3C121.7,69.1,122.4,68.2,122.4,67z"/>
	<path class="st0" d="M110.6,70.1c-0.5-0.5-0.8-1.2-0.8-2c-0.1-0.7,0.1-1.3,0.4-1.8c1.4-2.4,4-3.3,6.5-2.3c0.4,0.1,0.6,0,0.9-0.2
		c1.9-1.2,4-1,6-0.1c0.2,0.1,0.3,0.2,0.5,0.3c-0.2-0.1-0.4-0.3-0.6-0.4c-2-1-4-1.2-6,0.1c-0.3,0.2-0.5,0.4-0.9,0.2
		c-2.5-1-5.1-0.1-6.5,2.3c-0.3,0.6-0.4,1.2-0.4,1.8C109.7,68.9,110,69.6,110.6,70.1z"/>
	<path class="st0" d="M115.2,68.5c-0.3-0.2-0.5-0.5-0.6-0.8C114.6,68,114.8,68.3,115.2,68.5z"/>
	<path class="st0" d="M118.4,65.3c0.1,0.1,0,0.3,0.1,0.3C118.5,65.5,118.5,65.4,118.4,65.3z"/>
	<polygon class="st0" points="116.6,68.9 116.6,68.9 116.6,68.9 116.6,68.9 	"/>
	<path class="st0" d="M117.3,68.9c0.3-0.1,0.4-0.4,0.1-1C117.6,68.5,117.5,68.8,117.3,68.9z"/>
	<path class="st0" d="M118,68.5c-0.2-0.6,0.1-0.9,0.6-1.1c0.8-0.3,1.5-0.6,2.3-0.9c0.2-0.1,0.3-0.1,0.4-0.1c-0.1,0-0.3,0-0.5,0.1
		c-0.7,0.3-1.5,0.6-2.3,0.9C118,67.6,117.8,67.9,118,68.5c0.1,0.6,0.5,0.6,0.9,0.6C118.5,69.1,118.1,69.1,118,68.5z"/>
	<path class="st0" d="M118.5,65.6c0.5-0.2,1-0.4,1.5-0.6C119.5,65.1,119,65.4,118.5,65.6z"/>
	<path class="st0" d="M120.9,66.1c-0.7,0.5-1.6,0.8-2.3,0.7c-0.3,0-0.4-0.1-0.5-0.2c0,0.1,0.2,0.2,0.5,0.3c0.8,0.1,1.6-0.3,2.3-0.7
		c0.3-0.2,0.6-0.4,0.5-0.7c0,0,0,0,0,0C121.3,65.8,121.1,65.9,120.9,66.1z"/>
</g>
</svg>
