<?xml version="1.0" encoding="utf-8"?>
<!-- Generator: Adobe Illustrator 22.0.1, SVG Export Plug-In . SVG Version: 6.00 Build 0)  -->
<svg version="1.1" id="Layer_1" xmlns="http://www.w3.org/2000/svg" xmlns:xlink="http://www.w3.org/1999/xlink" x="0px" y="0px"
	 viewBox="0 0 240.7 216" style="enable-background:new 0 0 240.7 216;" xml:space="preserve">
<style type="text/css">
	.st0{fill:#FFFFFF;}
</style>
<g>
	<path class="st0" d="M113.6,100.9c-0.8,0.1-1.5,0.5-1.8,1.4h4.8C116,100.9,114.5,100.6,113.6,100.9z"/>
	<path class="st0" d="M151.2,105.5c1.1-0.2,1.8-0.5,2.2-1.7h-2.2c-1.2,0.1-1.8,0-2.1,0.5c-0.1,0.2,0,0.5,0.1,0.7
		C149.7,105.7,150.6,105.6,151.2,105.5z"/>
	<path class="st0" d="M131,101.9c-0.6-0.5-1.8-0.6-2.3-0.5c-0.4,0.1-0.7,0.3-1,0.6c-0.4,0.4-0.5,0.9-0.4,1.2c0.1,0.5,0.4,0.8,1,1.1
		c0.7,0.3,1.8,0.3,2.5,0c0.5-0.3,0.7-0.7,0.8-1.1C131.5,102.6,131.4,102.2,131,101.9z"/>
	<path class="st0" d="M186.8,107.1c0.1-0.1,0.2-0.1,0.3-0.2c0,0,0,0,0,0C186.9,107.1,186.8,107.1,186.8,107.1
		c-0.3,0.1-0.4,0.2-0.5,0.3l-0.1,0.1l0.2-0.1C186.5,107.4,186.6,107.2,186.8,107.1z"/>
	<path class="st0" d="M33.9,85.1v10.1v29.4c0,3.4,2.3,6.2,5.2,6.2h159.5h8.2V85.1H33.9z M160.7,98.9h4.1v0.9c2-1.5,4.6-1.5,6.2-0.6
		c1.8,0.9,1.8,2.4,1.8,4v4.7h-4.1V104c0-0.8,0.1-2-0.9-2.5c-0.5-0.3-1.5-0.3-2.1,0.1c-1,0.6-0.9,1.4-0.9,2.6v3.6h-4.1V98.9z
		 M145.1,104.5c0.4-1.8,2.2-2.1,4-2.3c0.9-0.1,1.3-0.1,2.3-0.2c0.8,0,2.1,0,2.1,0c-0.1-0.6-0.2-1-0.8-1.2c-0.5-0.2-2.5-0.3-3,0
		c-0.2,0.1-0.4,0.3-0.4,0.5h-3.7c0-0.7,0.2-1.2,0.6-1.7c0.9-1.1,2.7-1.2,5.2-1.2c3.1,0,4.9,0.2,5.8,1.3c0.6,0.6,0.5,1.6,0.5,2.3v3.8
		c0,0.9,0.2,1.5,0.7,1.9l-4.6,0.1c-0.2-0.3-0.2-0.8-0.2-0.8c-2.3,1.1-4.9,1.4-6.9,0.7l-0.1-0.1C145.2,106.9,144.8,105.7,145.1,104.5
		z M59.3,107.9h-4.1v-3.8c0-0.8,0.1-2-0.9-2.5c-0.5-0.3-1.5-0.3-2.1,0.1c-1,0.6-0.9,1.4-0.9,2.6v3.6h-4.1v-9h4.1v0.9
		c2-1.5,4.6-1.5,6.2-0.6c1.8,0.9,1.8,2.4,1.8,4V107.9z M74.9,104.6c-0.6,1.9-2.1,2.8-3.9,3.3c-2.1,0.6-5.9,0.6-8-1.3
		c-1.2-1.1-1.5-2.5-1.3-3.7c0.2-1.5,1.1-2.7,2.8-3.5c0.9-0.4,2-0.6,2.8-0.7c1.5-0.2,5.1,0,6.9,2.2C75.1,101.9,75.3,103.2,74.9,104.6
		z M84.6,102.2c-1.3,0-2.1,0.2-2.9,0.6v5h-4.1v-9h4.1v1c0.2-0.3,0.7-0.7,1.4-0.9c0.2-0.1,1-0.2,1.5-0.2V102.2z M102.2,107.9H98
		l-1.5-3.9c-0.3-0.6-0.3-0.7-0.4-0.9c0,0.2-0.1,0.3-0.3,0.9l-1.5,4h-4.2l-4-9h4.5l1.4,3.8c0.2,0.7,0.3,0.8,0.3,1c0-0.2,0-0.3,0.3-1
		l1.4-3.8h4.4l1.4,3.8c0.2,0.7,0.3,0.8,0.3,1c0-0.2,0.1-0.3,0.3-1l1.4-3.8h4.5L102.2,107.9z M120.8,104.1h-9c0,0.5,0.6,1.2,1.3,1.4
		c0.6,0.2,2,0.3,2.7-0.2c0.4-0.3,0.5-0.4,0.6-0.5l4,0.4l-0.1,0.1c-0.9,2-3.3,2.6-4.6,2.8c-1.8,0.2-5.5,0.4-7.4-2
		c-1-1.2-1.2-2.6-0.7-4c0.6-1.9,2.1-2.8,3.9-3.2c1.9-0.5,5.8-0.4,7.8,1.5c1.1,1,1.5,2.5,1.5,3.6V104.1L120.8,104.1L120.8,104.1z
		 M135.7,105.9c-0.2,1.4,0,2.8-1.2,4c-1.3,1.3-3.1,1.4-5.4,1.4c-2.3,0-4.1-0.3-5.2-1.9c-0.1-0.2-0.3-0.6-0.4-1.3h4.2
		c0,0.1,0.1,0.2,0.2,0.3c0.4,0.7,1.6,0.5,2.1,0.4c0.5,0,1.1-0.2,1.4-0.8c0.2-0.3,0.2-1.2,0.2-1.6c-1.5,1.1-4.1,1.2-5.8,0.5
		c-1.5-0.7-2.4-1.7-2.6-3.1c-0.2-1.1-0.1-2.7,1-3.8c1.3-1.4,3.3-1.8,4.8-1.6c0.7,0.1,1.6,0.3,2.6,1.1v-0.8h4.1V105.9z M142.4,107.9
		h-4.1v-9h4.1V107.9z M142.4,97.7h-4.1v-2.3h4.1V97.7z M199.2,112.2c-0.4,0.2-0.8,0.5-1.2,0.5c-0.4-0.1-0.8-0.2-1.3-0.3
		c-0.7-0.1-1.3-0.3-2-0.4c-0.5-0.1-1.1-0.2-1.6-0.3c-0.4-0.1-0.8-0.2-1.2-0.2c-0.5-0.1-1-0.1-1.5-0.1c-0.6,0-1.3,0-1.9-0.1
		c-1,0.5-1.9,0.9-3,1.3c-0.7,0.2-1.4,0.5-2.1,0.7c0.2,0.3,0.6,0.4,0.7,0.8l-0.1,0.1c-0.1,0-0.2,0.1-0.4,0.1
		c-0.7-0.1-1.4-0.3-2.1-0.5h-0.2c-0.3,0.1-0.7,0.3-1,0.1c-14.1,7-27.7,11.4-34.4,10c-6-1.2-4.1-7.8,4.4-14.5h1.8
		c-6.8,5.7-6.2,11.1-1.9,11.6c4.8,0.6,16.9-2,29.6-7.7c-0.1,0-0.1,0-0.2,0c-0.3,0-0.5-0.1-0.7-0.2c-0.5-0.2-1-0.3-1.4-0.5
		c-0.1,0-0.1-0.2,0-0.3c0.3-0.2,0.7-0.3,1-0.2c0.3,0,0.7,0.1,1,0.1c-0.4-0.4-0.8-0.8-1.2-1.2c0-0.1-0.1-0.2-0.1-0.3
		c0-0.1,0.1-0.2,0.2-0.3c0.1,0,0.1-0.1,0.2-0.1c0.3-0.2,0.4-0.3,0.7-0.2c0.7,0.3,1.3,0.5,2.1,0.9c0.2,0.1,0.3,0.2,0.5,0.2
		c0.2,0,0.3-0.1,0.5-0.2c0.1,0,0.3-0.1,0.4-0.2c0.2-0.1,0.4-0.3,0.6-0.4c0.4-0.3,0.7-0.5,1.1-0.8c-0.6-0.2-1.2-0.5-1.8-0.8
		c-0.6-0.2-0.8-0.3-1.4-0.4c-0.4-0.1-0.9-0.2-0.9-0.2c-0.9-0.2-1.1-0.2-1.8-0.4c-0.3-0.2-0.7-0.2-1.1-0.4c0-0.1,0-0.1,0-0.2
		c0.1-0.2,0.3-0.3,0.5-0.5c0.2-0.1,0.4-0.3,0.7-0.4c0.5-0.1,1,0,1.6,0.1c0.8,0.1,1.5,0.2,2.2,0.3c0.9,0.1,1.9,0.2,2.9,0.4
		c0,0,0.1,0,0.2,0c0,0.1,0.1,0.1,0.2,0.1s0.1,0,0.2,0c0.4-0.4,1-0.8,1.5-0.9c0.3-0.1,0.6,0.2,0.8,0.4c1-0.8,2.1-1.5,3.2-2.1
		c1.1-0.5,2-1,2.9-1.2c0.6-0.1,1.2-0.3,1.8-0.3c0.1,0,0.2,0,0.3,0c0.4,0.1,0.8,0.1,1.2,0.2c0.2,0.1,0.3,0.1,0.5,0.2
		c0.1,0,0.2,0,0.3,0.1c0.1,0.1,0.1,0.2,0.1,0.3c0.1,0.3-0.1,0.6-0.2,0.8c-0.5,0.8-1.3,1.4-2.1,2c-0.8,0.6-1.7,1.1-2.5,1.7
		c-0.2,0.1-0.3,0.2-0.5,0.3c0.2,0.1,0.2,0.1,0.4,0.2c0,0.1,0,0.1,0.1,0.1c0.3-0.1,0.4-0.3,0.7-0.4c0.2-0.1,0.4-0.1,0.6-0.1
		c0.2,0.1,0.5,0.3,0.5,0.5c0.1,0.3,0,0.6-0.1,0.9c1.1,0.5,2.1,1,3.1,1.5c0.2,0.2,0.5,0.2,0.7,0.4
		C199.4,111.9,199.2,112.1,199.2,112.2z"/>
	<path class="st0" d="M195.7,104.2c0.6-0.2,0.9-0.3,1.4-0.4c-0.1,0-0.2,0-0.3,0C196.5,103.9,196.2,104,195.7,104.2
		c-0.5,0.1-1.2,0.4-1.9,0.7c-0.9,0.5-1.7,0.9-2.7,1.5c-0.4,0.2-1.1,0.8-1.1,0.9c-0.5-0.1-1-0.1-1.4-0.1l-0.1,0.1c0.5,0,1,0,1.6,0.1
		c0-0.1,0.7-0.7,1.1-0.9c1-0.7,1.8-1.1,2.6-1.5C194.5,104.7,195.2,104.4,195.7,104.2z"/>
	<path class="st0" d="M185.9,110.1c-0.2-0.1-0.3-0.1-0.5-0.2C185.5,110,185.7,110.1,185.9,110.1z"/>
	<path class="st0" d="M182.3,111.6l0.2-0.1c0.4-0.2,0.5-0.3,0.7-0.4c0.7-0.4,1.2-0.8,1.9-1.2l0.1-0.1c0,0,0,0-0.1,0l-0.1,0.1
		c-0.7,0.4-1.2,0.8-1.9,1.2c-0.2,0.1-0.3,0.2-0.7,0.4L182.3,111.6c-0.3,0.1-0.5,0.2-0.7,0.2c0,0,0,0,0,0
		C181.9,111.9,182.1,111.7,182.3,111.6z"/>
	<path class="st0" d="M179,111.1c0-0.1-0.2-0.1-0.2-0.2l0.3-0.2H179l-0.3,0.2C178.7,111,178.9,111,179,111.1
		c0.3,0.4,0.8,0.9,1.2,1.3c0.2,0.1,0.3,0.1,0.5,0.1c0,0,0,0,0,0c-0.2,0-0.3,0-0.4-0.1C179.9,112,179.4,111.5,179,111.1z"/>
	<path class="st0" d="M67.7,101.1c-0.3,0.1-0.6,0.2-1,0.5c-0.8,0.6-0.9,1.4-0.9,2c0,0.7,0.4,1.4,1.1,1.8c0.7,0.4,1.8,0.5,2.5,0.1
		c0.8-0.4,1.2-1.1,1.3-1.7c0.1-0.6-0.1-1.5-0.7-2C69.4,101.1,68.4,100.9,67.7,101.1z"/>
	<path class="st0" d="M191.1,106.4c1-0.6,1.8-1,2.7-1.5c0.7-0.3,1.4-0.6,1.9-0.8c0.5-0.2,0.8-0.3,1.1-0.3c-0.4,0-0.7,0-1.1,0
		c-0.8,0.2-1.6,0.4-2.4,0.7c-0.9,0.3-1.9,0.9-2.6,1.3c-0.8,0.4-1.4,0.8-2.1,1.4l0,0c0.4,0,0.9,0,1.4,0.1
		C190,107.2,190.7,106.6,191.1,106.4z"/>
	<path class="st0" d="M190.7,105.9c0.7-0.4,1.7-1,2.6-1.3c0.8-0.3,1.6-0.5,2.4-0.7c0.4-0.1,0.7-0.1,1.1,0c0.1,0,0.2,0,0.3-0.1
		c-0.4-0.1-0.9-0.1-1.5,0c-0.8,0.2-1.6,0.4-2.4,0.7c-0.9,0.3-1.9,0.9-2.6,1.3c-0.8,0.4-1.4,0.8-2.1,1.4l-0.1,0.1c0.1,0,0.1,0,0.2,0
		l0,0C189.3,106.6,189.9,106.2,190.7,105.9z"/>
	<path class="st0" d="M187.1,107.6c0-0.3-0.1-0.4,0-0.6c-0.1,0-0.2,0.1-0.3,0.2c-0.2,0.1-0.3,0.2-0.4,0.3l-0.2,0.1
		c0,0.2,0,0.3,0,0.6c0,0,0.1,0.1,0.1,0.1c0,0,0.1,0.1,0.1,0.2c0,0,0,0,0,0c0.4-0.2,0.7-0.4,0.9-0.6
		C187.2,107.7,187.1,107.6,187.1,107.6z"/>
	<path class="st0" d="M186.4,108.4L186.4,108.4c0,0-0.1-0.1-0.1-0.2C186.3,108.3,186.4,108.4,186.4,108.4z"/>
	<path class="st0" d="M187.2,106.9c0,0-0.1,0-0.1,0c-0.1,0.2,0,0.3,0,0.6c0,0.1,0.1,0.2,0.2,0.3c-0.2,0.2-0.5,0.4-0.9,0.6
		c0.4-0.2,0.7-0.4,1-0.6c-0.1-0.1-0.2-0.2-0.2-0.3C187.2,107.2,187.1,107.1,187.2,106.9z"/>
	<path class="st0" d="M185.2,109.9L185.2,109.9c-0.8,0.5-1.3,0.9-2,1.3c-0.2,0.1-0.3,0.2-0.7,0.4l-0.2,0.1c-0.2,0.1-0.4,0.2-0.7,0.2
		c0,0,0,0,0,0c0,0,0,0-0.1,0c-0.2-0.1-0.5-0.2-0.7-0.3c-0.6-0.3-1.1-0.5-1.7-0.8l-0.3,0.2c0,0.1,0.2,0.1,0.2,0.2
		c0.4,0.4,0.9,0.9,1.3,1.3c0.2,0.1,0.3,0.1,0.4,0.1c0.4,0,0.7-0.1,1-0.2c1.2-0.6,2.1-1.1,2.9-1.5c0.4-0.2,0.8-0.4,1.3-0.7
		c-0.2-0.1-0.4-0.1-0.5-0.2C185.3,109.9,185.3,109.9,185.2,109.9z"/>
	<path class="st0" d="M181.7,112.4c-0.3,0.1-0.6,0.2-1,0.2c0,0,0,0,0.1,0C181.2,112.5,181.5,112.4,181.7,112.4
		c1.3-0.6,2.2-1.1,3-1.5c0.4-0.2,0.8-0.4,1.2-0.7c-0.5,0.3-0.9,0.5-1.3,0.7C183.8,111.2,182.9,111.7,181.7,112.4z"/>
	<path class="st0" d="M185.2,109.9L185.2,109.9c0.1,0.1,0.1,0.1,0.2,0.1C185.3,109.9,185.3,109.9,185.2,109.9z"/>
	<path class="st0" d="M181.5,111.9C181.5,111.9,181.5,111.8,181.5,111.9c-0.1-0.1-0.4-0.2-0.6-0.3c-0.6-0.3-1.1-0.5-1.7-0.8h-0.1
		c0.6,0.3,1.1,0.5,1.7,0.8C181,111.6,181.3,111.7,181.5,111.9z"/>
</g>
</svg>
