<?xml version="1.0" encoding="utf-8"?>
<!-- Generator: Adobe Illustrator 22.0.1, SVG Export Plug-In . SVG Version: 6.00 Build 0)  -->
<svg version="1.1" id="Layer_1" xmlns="http://www.w3.org/2000/svg" xmlns:xlink="http://www.w3.org/1999/xlink" x="0px" y="0px"
	 viewBox="0 0 240.7 216" style="enable-background:new 0 0 240.7 216;" xml:space="preserve">
<style type="text/css">
	.st0{fill:#FFFFFF;}
</style>
<g>
	<path class="st0" d="M147.4,89.2c0,0,0.1-0.1,0.1-0.1C147.5,89.1,147.4,89.1,147.4,89.2z"/>
	<path class="st0" d="M147.6,89.1l-0.1,0.1C147.5,89.2,147.6,89.2,147.6,89.1z"/>
	<path class="st0" d="M143.4,111.2l-10,25.6c0.8,0,1.6,0,2.4,0c14.3,0,28.6,0,42.9,0c0.9,0,0.8,0.1,1.1-0.7c3.2-8,6.3-16.1,9.5-24.2
		c0.1-0.2,0.2-0.4,0.2-0.7c-0.3,0-0.6,0-0.9,0C173.5,111.2,158.4,111.2,143.4,111.2z"/>
	<path class="st0" d="M199.9,85.7c-0.5,0-1,0-1.5,0s-1.1,0-1.6,0c-0.5-0.1-1,0-1.6-0.1c0.6-1.7,1.5-3.3,2-5c-0.2,0-0.2,0-0.3,0
		c-2.7,0.5-5.4,1.1-8.1,1.6c-0.5,0.1-0.7,0.3-0.9,0.7c-1,2.4-2.1,4.9-3.1,7.3c-0.1,0.1-0.1,0.4-0.3,0.5c0-0.3,0.1-0.5,0.1-0.8
		c0.2-1.3,0.5-2.6,0.7-3.9c0.1-0.6,0.1-0.7-0.5-0.8c-0.4,0-0.9-0.1-1.3-0.1c-1.8,0.1-3.3,0.8-4.6,1.8c-0.5,0.3-1,0.8-1.5,1.2
		c0.1-0.9,0.7-1.6,0.8-2.4c-0.2-0.2-0.5-0.1-0.7-0.1c-1.8,0-3.5,0-5.2,0c-0.4,0-0.9-0.1-1.3,0.1c-0.3,0.2-0.4,0.8-0.6,1.2
		c-0.8,1.7-1.5,3.6-2.3,5.3c-0.1,0.2-0.1,0.5-0.4,0.7c-0.1-0.3,0-0.6,0-0.8c0.1-0.6,0.1-1.1,0.1-1.7c-0.1-1.1-0.3-2.1-1.1-2.9
		c-1-1.2-2.3-1.8-3.8-2.1c-2.1-0.4-4.3-0.5-6.4-0.3c-2.5,0.3-4.8,1-6.9,2.4c-0.7,0.5-1.3,1.1-2,1.6c0,0.1-0.1,0.1-0.1,0.1
		c0,0,0,0,0,0c0-0.1,0-0.1,0.1-0.1c0.3-0.8,0.8-1.6,1.3-2.4c1.5-2.4,3-4.6,4.4-7c0.1-0.1,0.3-0.3,0.2-0.5c-2.4,0-4.9,0-7.3,0
		c-0.5,0-0.8,0.2-1,0.6c-1.9,3.1-3.8,6.1-5.7,9.2c-1.8,3-3.6,5.9-5.4,8.8c-0.5,0.9-1.3,1.5-2.3,1.7c-0.2,0.1-0.5,0.2-0.8,0.2
		s-0.7,0.2-0.9-0.1c-0.1-0.2,0.1-0.5,0.2-0.7c0-0.1,0-0.1,0-0.1c2.5-6.2,5.1-12.4,7.7-18.6c0.1-0.3,0.3-0.5,0.3-0.8
		c-0.2-0.1-0.4-0.1-0.5-0.1c-2.3-0.1-4.7-0.1-7-0.1c-0.5,0-0.6,0.2-0.8,0.6c-3.3,8.2-6.6,16.5-9.9,24.7c-0.1,0.1-0.3,0.3-0.1,0.5
		c1.4-0.1,2.8,0,4.2,0c2.7,0,5.5,0.1,8.2-0.1c2.3-0.2,4.3-1.1,6-2.7c1.1-1.1,2-2.4,2.9-3.7c0.7-1,1.3-2.1,2-3.1
		c0.1-0.2,0.1-0.4,0.4-0.4c0.1,0.4-0.1,0.8-0.2,1.1c-0.4,1.5-0.5,3-0.2,4.5c0.4,1.9,1.5,3.2,3.4,3.9c1.6,0.5,3.2,0.8,4.8,0.9
		c2.7,0.2,5.4-0.1,8.1-0.5c0.4-0.1,0.6-0.3,0.8-0.6c0.8-1.5,1.6-3,2.4-4.5c0.1-0.1,0.2-0.3,0.1-0.5c-0.2,0-0.5,0-0.7,0.1
		c-1.6,0.4-3.2,0.7-4.8,0.9c-1.3,0.2-2.5,0.2-3.8-0.2c-1.5-0.4-2.3-1.6-2.2-3.1c0.1-0.6,0.1-0.7,0.8-0.7c4.6,0,9.1,0.1,13.7,0.1
		c0.1,0,0.3-0.1,0.5,0.1c-1.1,2.7-2.3,5.5-3.4,8.3c0.2,0.1,0.4,0.1,0.6,0.1c2.3,0,4.5,0,6.8,0c0.5,0,0.7-0.1,0.9-0.5
		c0.8-1.5,1.3-3,1.9-4.6c0.6-1.6,1.2-3.3,2.2-4.8c0.9-1.4,2-2.5,3.5-3.3c1.5-0.8,3.1-0.8,4.7-0.2c0.7,0.2,0.7,0.3,0.4,0.9
		c-0.5,1-0.9,2-1.3,3c-0.6,1.7-1.4,3.3-2,5c-0.2,0.6-0.3,1.1-0.4,1.7c-0.2,1.6,0.6,2.8,2.1,3.2c0.7,0.2,1.4,0.3,2.1,0.3
		c2.4,0.1,4.8-0.2,7.1-0.8c0.3-0.1,0.5-0.3,0.7-0.6c0.7-1.5,1.5-2.9,2.3-4.3c0-0.1,0.2-0.3,0.1-0.5c-0.6,0.2-1.1,0.3-1.7,0.5
		c-0.6,0.2-1.3,0.3-1.9,0.1c-0.9-0.2-1.5-0.8-1.1-1.8c0-0.1,0.1-0.2,0.1-0.3c0.8-2.3,1.9-4.5,2.8-6.8c0.1-0.3,0.3-0.3,0.6-0.3
		c1.3,0.1,2.7,0.1,4,0.1c0.3,0,0.5-0.1,0.6-0.4c0.5-1.4,1.1-2.7,1.7-4.1C199.9,86.2,200,86,199.9,85.7z M159.9,91.7
		c0,0.1,0,0.2,0,0.3c-0.2,0.6-0.2,0.6-0.8,0.6c-1.9,0.1-3.7,0.1-5.6,0.1c0,0-0.1,0-0.3,0c0.7-1.8,2.8-3.3,4.6-3.4
		C159.3,89.4,160.1,90.2,159.9,91.7z"/>
	<path class="st0" d="M95.7,111.2c-14.7,0-29.4,0-44.1,0c-0.1,0-0.3,0-0.4,0c-0.3-0.1-0.5,0.1-0.6,0.4c-0.1,0.1-0.1,0.3-0.2,0.4
		c-3.1,8-6.2,16-9.3,23.9c-0.5,1.2-0.3,1,0.7,1c14.7,0,29.6,0,44.3,0l10-25.7C96,111.2,95.8,111.2,95.7,111.2z"/>
	<path class="st0" d="M87.7,136.8c-0.2,0-0.3,0-0.5,0l0,0.1c0.2,0,0.4,0,0.6,0c14.8,0,29.7,0,44.5,0c0,0,0,0,0,0l0-0.1
		C117.5,136.8,102.5,136.8,87.7,136.8z"/>
	<path class="st0" d="M87.7,136.8c14.9,0,29.8,0,44.7,0l10-25.6c-0.2,0-0.4,0-0.7,0c-14.7,0-29.4,0-44.1,0c0,0-0.1,0-0.1,0
		c-0.1,0-0.2,0-0.3,0l-10,25.6C87.3,136.8,87.5,136.8,87.7,136.8z"/>
	<path class="st0" d="M53.1,105.6c0.2,0,0.4,0,0.6,0c2.4,0,4.7,0,7.1,0c0.9,0,0.7,0.1,1-0.7c1.3-3.2,2.6-6.5,3.9-9.7
		c0.3-0.7,0.2-0.6,0.9-0.6c1.8,0,3.6,0,5.4,0c0.2,0,0.3,0,0.5,0c0.2,0,0.3,0.1,0.2,0.3c-0.1,0.2-0.1,0.3-0.2,0.5
		c-0.6,1.6-0.8,3.3-0.6,5c0.3,2.2,1.8,4,3.9,4.6c1.7,0.4,3.4,0.6,5.1,0.7c2.5,0.1,5-0.1,7.5-0.5c0.3-0.1,0.5-0.2,0.6-0.5
		c0.8-1.6,1.6-3.1,2.4-4.7c0-0.1,0.1-0.3,0-0.4c-0.1-0.1-0.2,0-0.3,0c-1.8,0.5-3.6,0.9-5.4,1c-1.2,0.1-2.5,0.1-3.7-0.3
		c-1.3-0.5-2-1.5-2-2.8c0-0.8,0.1-0.9,0.9-0.9c4.4,0,8.8,0,13.2,0c1.2,0,1.1,0,0.7,1c-0.4,1-0.9,1.9-1.1,3c-0.4,2,0.4,3.8,2.2,4.6
		c0.4,0.2,0.9,0.4,1.4,0.4c1.5,0.1,3,0.1,4.5-0.1c2.1-0.4,4-1.2,5.5-2.9c0.1,0,0.1-0.2,0.3-0.1c-0.1,0.7-0.3,1.4-0.4,2.1
		c-0.1,0.6-0.1,0.6,0.5,0.6c1.9,0,3.8-0.1,5.7-0.1c0.7-0.1,0.7-0.1,1-0.7c2.2-5.7,4.4-11.3,6.6-17c0.2-0.6,0.5-1.2,0.7-1.8
		c-0.2-0.1-0.5-0.1-0.7-0.1c-2.2,0-4.3,0-6.4,0c-1,0-0.8-0.1-1.2,0.8c-1.4,3.4-2.7,6.8-4.1,10.2c-0.4,1-1,1.8-1.9,2.4
		s-1.9,0.8-2.9,0.5c-0.8-0.2-1.2-0.7-1.3-1.6c0-0.6,0.1-1,0.3-1.5c1.1-2.7,2.1-5.4,3.2-8.1c0.3-0.9,0.7-1.7,0.9-2.6
		c-0.2-0.1-0.3-0.1-0.4-0.1c-2.4,0-4.8,0-7.2,0c-0.4,0-0.6,0.2-0.7,0.5c-0.8,2-1.6,4.1-2.4,6.1c-0.1,0.2-0.1,0.5-0.3,0.6
		c0,0,0,0,0,0c0,0,0,0,0,0c0,0,0,0,0,0c-0.1-0.5,0.1-1,0.1-1.7c0.2-2.4-0.9-4.2-3.1-5.2c-0.4-0.1-0.8-0.3-1.2-0.4
		c-2.9-0.8-5.9-0.8-8.8-0.2c-2.8,0.6-5.2,1.8-7.1,3.8c-0.3,0.2-0.5,0.3-0.8,0.3c-2.4,0-4.9,0-7.3,0c-0.1,0-0.3,0.1-0.4-0.1
		c0.3-0.9,0.6-1.9,1.1-2.8c0.7-1.4,1.7-2,3.2-2c2.5,0.1,5.1,0,7.7,0c0.6,0,0.6,0.1,0.8-0.5c0.6-1.5,1.1-3,1.6-4.3
		c0.1-0.2,0.2-0.3,0.1-0.5C82.4,79,82.2,79,82.1,79c-3.7,0-7.4,0-11.1,0c-1.8,0-3.5,0.2-5.1,0.8c-2.1,0.8-3.8,2.1-4.7,4.3
		c-2.7,6.9-5.4,13.7-8.1,20.6c-0.1,0.1-0.1,0.3-0.2,0.5S52.8,105.6,53.1,105.6z M85.5,89.6c0.6-0.2,1.2-0.2,1.8-0.1
		c0.8,0.1,1.2,0.6,1.4,1.3c0,0.4,0.1,0.7,0,1.1c-0.2,0.8-0.1,0.8-1,0.8c-1.7,0-3.3,0-5,0c-0.2,0-0.5,0-0.8-0.1
		C82.7,91.1,83.9,90,85.5,89.6z"/>
	<path class="st0" d="M147.4,89.2C147.4,89.2,147.4,89.2,147.4,89.2l0.1-0.1C147.5,89.1,147.5,89.2,147.4,89.2z"/>
	<path class="st0" d="M147.5,89.2C147.4,89.2,147.4,89.2,147.5,89.2C147.4,89.2,147.4,89.2,147.5,89.2z"/>
	<path class="st0" d="M96.6,92.8C96.6,92.8,96.6,92.8,96.6,92.8L96.6,92.8z"/>
</g>
</svg>
