<?xml version="1.0" encoding="utf-8"?>
<!-- Generator: Adobe Illustrator 22.0.1, SVG Export Plug-In . SVG Version: 6.00 Build 0)  -->
<svg version="1.1" id="Layer_1" xmlns="http://www.w3.org/2000/svg" xmlns:xlink="http://www.w3.org/1999/xlink" x="0px" y="0px"
	 viewBox="0 0 240.7 216" style="enable-background:new 0 0 240.7 216;" xml:space="preserve">
<style type="text/css">
	.st0{fill:#FFFFFF;}
</style>
<g>
	<g>
		<path class="st0" d="M110.8,116h5.7l-2,10.7h14.1l6.5-34H121l-1.9,10.4h-5.7l1.9-10.4H85.1l-6.7,9.1l1.7-9.1H66l-6.5,34h14.1
			l2-10.8l3.7,10.8h29.5L110.8,116z M79.9,125.9l-4.4-13l-2.5,13H60.5l6.2-32.5h12.5L77,104.9l8.5-11.5h14.6l-13.9,16.2l7.8,16.2
			H79.9z M87.1,109.8l14-16.4L94.9,126L87.1,109.8z M95.7,125.9l6.2-32.5h12.5l-1.9,10.4h7.2l1.9-10.4h12.5l-6.2,32.5h-12.5l2-10.7
			h-7.2l-2,10.7H95.7z"/>
	</g>
	<g>
		<path class="st0" d="M141.7,114.6l2.2-9.6h-8.2l-1.8,9.6H141.7z M136.3,105.8h6.7l-1.8,8.1h-6.4L136.3,105.8z"/>
	</g>
	<g>
		<path class="st0" d="M133.3,130.3l-0.6,1.1h16.7l0.2-0.4c8.4-18.3,19.4-29.6,19.5-29.7l0.2-0.2l2.5-13.1h-32l-2.6,13.5h17
			C150.8,104.9,141.4,115,133.3,130.3z M138.2,100.7l2.3-12h30.5l-2.3,12c0,0-11.2,11.2-19.7,29.9h-15
			c10.1-19.1,22.1-29.9,22.1-29.9H138.2z"/>
	</g>
	<g>
		<path class="st0" d="M159,121.6h-0.5v0.8h0.4c0.4,0,0.6-0.1,0.6-0.4C159.5,121.8,159.4,121.6,159,121.6z"/>
	</g>
	<g>
		<path class="st0" d="M159,120.6c-1.1,0-2,0.9-2,2s0.9,2,2,2s2-0.9,2-2C161,121.5,160.1,120.6,159,120.6z M159.6,123.8l-0.6-1h-0.4
			v1H158v-2.6h1.1c0.7,0,1,0.4,1,0.8c0,0.4-0.2,0.7-0.6,0.8l0.7,1H159.6z"/>
	</g>
	<g>
		<path class="st0" d="M90,147.6c0.3,0,0.6,0.1,0.9,0.1c3.7,0.3,7.4,0.5,11.1,0.5c12.4,0,24.5-1.8,35-5.2c4.2-1.2,8.4-3,12.5-5.4
			c1.7-0.9,3.3-2,4.8-3c3-2.1,5.8-4.4,8.5-7c16-15.4,21.9-35.3,13.5-46.4l-0.1-0.2c-0.1-0.1-0.1-0.2-0.2-0.3
			c-0.7-0.9-1.6-1.8-2.7-2.7l-0.3-0.2c-6.6-5.1-18.5-7.9-33.5-7.9c-8.7,0-18,0.9-27.6,2.8c-1.5,0.3-3,0.6-4.5,0.9l-1.1,0.2
			c-1.4,0.3-2.8,0.6-4.2,1l-0.1,0c-1.5,0.4-2.9,0.8-4.3,1.1l-0.9,0.3c-1.4,0.4-2.8,0.8-4.2,1.2c-1.4,0.4-2.9,0.9-4.3,1.4l-0.7,0.2
			c-2.8,1-5.5,2-8.2,3.1l-0.5,0.2c-1.3,0.5-2.6,1.1-3.9,1.7c-18.7,8.4-31.5,19-34.3,28.5c-1.7,4.8-1,9.5,1.9,14.1
			c6.7,10.6,24.7,18.5,46.8,20.7L90,147.6z M159,125.1c-1.4,0-2.5-1.1-2.5-2.5c0-1.4,1.1-2.5,2.5-2.5c1.4,0,2.5,1.1,2.5,2.5
			C161.6,123.9,160.4,125.1,159,125.1z M139.8,88h32l-2.5,13.1l-0.2,0.2c-0.1,0.1-11.2,11.4-19.5,29.7l-0.2,0.4h-16.7l0.6-1.1
			c8.1-15.3,17.5-25.4,20.9-28.8h-17L139.8,88z M143.9,105l-2.2,9.6h-7.9l1.8-9.6H143.9z M75.7,115.9l-2,10.8H59.6l6.5-34h14.1
			l-1.7,9.1l6.7-9.1h30.2l-1.9,10.4h5.7l1.9-10.4h14.1l-6.5,34h-14.1l2-10.7h-5.7l-2,10.7H79.4L75.7,115.9z"/>
	</g>
	<g>
		<polygon class="st0" points="87.1,109.8 94.9,126 101.1,93.4 		"/>
	</g>
	<g>
		<path class="st0" d="M196.3,78.1c-0.1-0.1-0.2-0.2-0.2-0.3c-0.9-1-1.9-2-3.2-2.9c-0.1-0.1-0.2-0.1-0.3-0.2
			c-11.8-8.4-38.2-11-69.6-5.5c-17.5,3.1-33.8,8.2-47.2,14.3c0,0,0,0,0,0c1.3-0.6,2.6-1.1,3.9-1.7c0.2-0.1,0.3-0.1,0.5-0.2
			c2.6-1.1,5.4-2.1,8.2-3.1c0.2-0.1,0.5-0.2,0.7-0.2c1.4-0.5,2.8-0.9,4.3-1.4c0,0,0,0,0.1,0c1.4-0.4,2.8-0.8,4.2-1.2
			c0.3-0.1,0.6-0.2,0.9-0.3c1.4-0.4,2.9-0.8,4.4-1.2c0,0,0.1,0,0.1,0c1.4-0.3,2.8-0.7,4.3-1c0.4-0.1,0.7-0.2,1.1-0.2
			c1.5-0.3,3-0.6,4.5-0.9c27.8-5.3,51.3-2.8,61.7,5.3c0.1,0.1,0.2,0.1,0.3,0.2c1.1,0.9,2,1.8,2.8,2.8c0.1,0.1,0.1,0.2,0.2,0.3
			c0,0.1,0.1,0.1,0.1,0.2c8.4,11.2,2.9,31.6-13.6,47.3c-2.7,2.6-5.6,5-8.6,7c-1.5,1.1-3.1,2.1-4.9,3.1c-4.2,2.4-8.5,4.2-12.7,5.4
			c-13.2,4.3-29.6,6.2-46.3,4.8c-0.5,0-1-0.1-1.5-0.2c2.9,0.4,5.8,0.8,8.9,1c18.9,1.5,37.4-0.5,52.3-5c4.7-1.3,9.6-3.2,14.3-5.7
			c2-1,3.8-2.1,5.5-3.2c3.3-2.2,6.6-4.6,9.7-7.4c18.6-16.6,24.9-37.9,15.4-49.7C196.4,78.2,196.3,78.2,196.3,78.1z"/>
	</g>
	<g>
		<path class="st0" d="M87.3,78.5c-2.8,1-5.5,2-8.2,3.1C81.8,80.5,84.5,79.5,87.3,78.5z"/>
	</g>
	<g>
		<path class="st0" d="M89.4,148.3C89.4,148.3,89.4,148.3,89.4,148.3c0.5,0,1,0.1,1.5,0.2C90.4,148.4,89.9,148.3,89.4,148.3z"/>
	</g>
</g>
</svg>
